<svg width="92" height="70" viewBox="0 0 92 70" fill="none" xmlns="http://www.w3.org/2000/svg">
<path d="M24.79 14.9898C25.9172 12.5708 29.5589 12.3041 30.7711 15.1438C30.8752 14.976 30.9644 14.8347 31.0494 14.6912C31.8154 13.4143 33.2974 12.8353 34.8197 13.2199C36.1955 13.5662 37.1006 14.6456 37.1219 16.1573C37.1633 19.1967 37.1367 22.2382 37.1431 25.2787C37.1431 25.6569 36.9657 25.8279 36.5939 25.8258C35.9395 25.8226 35.285 25.812 34.6306 25.83C34.1759 25.8428 33.9922 25.6452 33.9943 25.1979C34.0049 23.0414 34.006 20.8848 34.006 18.7282C34.006 18.2862 34.0038 17.8443 33.973 17.4045C33.9157 16.5599 33.5672 16.1371 32.8979 16.0574C32.0852 15.9608 31.3873 16.3804 31.2024 17.1612C31.0813 17.6711 31.0356 18.2087 31.0314 18.7346C31.0133 20.8561 31.0261 22.9766 31.0229 25.0981C31.0229 25.7493 30.9443 25.8215 30.2845 25.8237C29.7364 25.8258 29.1882 25.8269 28.64 25.8237C27.9697 25.8205 27.9038 25.7578 27.9027 25.0981C27.9027 22.9064 27.9123 20.7137 27.9017 18.5221C27.8995 18.0302 27.8698 17.5299 27.7731 17.0497C27.6382 16.3804 27.2271 16.0606 26.6013 16.0277C25.9002 15.9905 25.3881 16.2646 25.1905 16.9031C25.0407 17.3854 24.9558 17.9049 24.9494 18.4095C24.9228 20.6362 24.9366 22.8639 24.9334 25.0917C24.9334 25.7514 24.8612 25.8205 24.2015 25.8237C23.6533 25.8258 23.1051 25.8258 22.557 25.8237C21.8707 25.8215 21.7878 25.744 21.7867 25.0705C21.7846 23.3027 21.7857 21.5349 21.7867 19.7672C21.7867 17.8762 21.7867 15.9841 21.791 14.0931C21.7921 13.4483 21.8887 13.3527 22.523 13.3474C23.0892 13.3431 23.6544 13.3527 24.2206 13.3505C24.6211 13.3495 24.7985 13.5503 24.7911 13.9412C24.7858 14.2897 24.79 14.6392 24.79 14.9876V14.9898Z" fill="white"/>
<path d="M18.4956 45.9383C18.9673 45.6802 19.4337 45.405 19.9181 45.1628C20.8955 44.6741 21.9376 44.4011 23.0297 44.4021C24.3449 44.4032 25.4678 44.8122 26.1254 46.1115C26.4484 45.9149 26.7395 45.729 27.0391 45.558C28.4509 44.757 29.9446 44.2619 31.5912 44.4553C33.3654 44.6635 34.4309 45.7938 34.4894 47.5913C34.5425 49.2327 34.5159 50.8772 34.5202 52.5207C34.5234 53.8454 34.5244 55.1712 34.5202 56.496C34.518 57.1504 34.4479 57.2131 33.7808 57.2163C33.4801 57.2173 33.1795 57.2173 32.8788 57.2163C32.1511 57.2141 32.0746 57.1377 32.0736 56.3845C32.0714 55.5186 32.0736 54.6528 32.0736 53.787C32.0736 52.1435 32.0736 50.5001 32.0714 48.8566C32.0714 48.6091 32.0693 48.3605 32.0428 48.1151C31.9163 46.9412 31.2949 46.3898 30.1167 46.3824C28.9343 46.3739 27.8549 46.7308 26.85 47.3194C26.6991 47.4075 26.5663 47.6657 26.5652 47.8463C26.5493 50.6913 26.5578 53.5363 26.5578 56.3813C26.5578 57.1748 26.5185 57.211 25.71 57.212C25.3913 57.212 25.0726 57.1972 24.7561 57.2152C24.2674 57.2439 24.0931 57.007 24.0995 56.5459C24.1112 55.645 24.1027 54.7431 24.1027 53.8422C24.1027 52.1287 24.1091 50.414 24.0953 48.7004C24.0921 48.3329 24.0528 47.9557 23.9593 47.602C23.7617 46.8541 23.2433 46.4461 22.4667 46.3919C21.1547 46.3016 19.9457 46.6543 18.8324 47.3247C18.6879 47.4118 18.5965 47.6986 18.5955 47.893C18.5806 50.72 18.5859 53.548 18.5848 56.3749C18.5848 57.1738 18.5466 57.2099 17.7445 57.211C17.4088 57.211 17.072 57.2025 16.7374 57.2131C16.305 57.228 16.1297 57.0165 16.1393 56.6001C16.1488 56.1231 16.1414 55.6461 16.1414 55.1691C16.1414 51.9704 16.1414 48.7727 16.1414 45.5739C16.1414 44.8483 16.2041 44.7772 16.9222 44.7888C17.3058 44.7952 17.7796 44.7113 18.0473 44.9004C18.3054 45.082 18.35 45.5654 18.4967 45.9372L18.4956 45.9383Z" fill="white"/>
<path d="M15.9078 17.8921C15.9078 17.4587 15.9471 17.0327 15.8993 16.6162C15.8228 15.9491 15.3458 15.5209 14.6627 15.4296C13.8415 15.3191 13.0468 15.6909 12.7324 16.3421C12.6559 16.5004 12.6516 16.7118 12.5401 16.8276C12.3924 16.9817 12.1704 17.1665 11.9834 17.1623C11.4023 17.1506 10.8233 17.0603 10.2433 16.9944C9.66749 16.9296 9.53363 16.749 9.68449 16.1839C10.1031 14.6201 11.1548 13.6905 12.6825 13.2687C14.208 12.8481 15.7229 12.8534 17.1943 13.4972C18.3671 14.0103 19.047 14.9218 19.098 16.2008C19.1649 17.8772 19.1734 19.5568 19.1607 21.2354C19.1543 22.0852 19.3232 22.8469 19.8863 23.496C20.2188 23.8785 20.2103 24.1834 19.7801 24.5074C19.3009 24.8686 18.8622 25.2819 18.4149 25.6834C18.0941 25.9724 17.7934 25.9926 17.497 25.6633C17.1327 25.2585 16.7715 24.8505 16.3805 24.4129C16.1606 24.602 15.928 24.8091 15.6879 25.0067C14.4704 26.0075 13.0649 26.2093 11.5904 25.8407C9.89164 25.4157 8.97483 23.7712 9.27335 21.8483C9.55807 20.0221 10.6958 18.8291 12.675 18.3999C13.7236 18.1726 14.7976 18.0621 15.9067 17.8921H15.9078ZM16.0352 19.8564C15.9694 19.7916 15.9035 19.7268 15.8377 19.6609C15.1131 19.8352 14.3514 19.9212 13.6715 20.2027C12.6272 20.6351 12.2426 22.0799 12.8174 23.0541C13.1233 23.5725 13.7183 23.8137 14.3259 23.6458C15.0324 23.4504 15.5179 22.9574 15.6868 22.286C15.8844 21.4967 15.9269 20.6681 16.0363 19.8564H16.0352Z" fill="white"/>
<path d="M45.8162 17.9176C45.8162 17.5479 45.8374 17.2303 45.8119 16.9158C45.7397 16.0128 45.3084 15.5284 44.5159 15.4285C43.6182 15.3148 42.7693 15.7238 42.5452 16.5026C42.3667 17.1251 42.0714 17.276 41.4711 17.141C40.992 17.0327 40.4885 17.0422 39.9977 16.9827C39.5908 16.9339 39.4165 16.7352 39.5249 16.2911C39.8511 14.959 40.6351 14.0188 41.8961 13.5014C43.4025 12.8842 44.9514 12.8141 46.511 13.2847C48.1311 13.7744 48.9788 14.8665 49.0149 16.5546C49.0479 18.1258 49.0457 19.6981 49.0224 21.2704C49.0096 22.1022 49.2253 22.8278 49.7405 23.4822C50.1347 23.9826 50.1017 24.1058 49.6099 24.5244C49.1796 24.8909 48.7366 25.2436 48.3287 25.6335C47.9536 25.9915 47.6264 25.9851 47.2929 25.6027C46.9572 25.2181 46.6236 24.8325 46.2486 24.4012C46.0467 24.5743 45.8268 24.7677 45.6026 24.9568C44.3491 26.016 42.9043 26.1944 41.3692 25.8162C40.4184 25.5825 39.7597 24.9578 39.3889 24.0517C38.4806 21.8335 39.5355 19.3603 41.8164 18.6336C42.9468 18.2735 44.1653 18.1875 45.3434 17.9782C45.4805 17.9537 45.6186 17.941 45.8162 17.9155V17.9176ZM45.8831 19.6822C45.1331 19.8129 44.4957 19.8585 43.9029 20.0423C42.7088 20.412 42.1649 21.5583 42.5505 22.746C42.797 23.5045 43.5151 23.8764 44.2779 23.6182C45.1437 23.325 45.5602 22.6323 45.7153 21.8005C45.8342 21.1663 45.8236 20.5066 45.8831 19.6832V19.6822Z" fill="white"/>
<path d="M76.6043 15.2182C76.6787 15.0779 76.7509 14.9366 76.8274 14.7975C77.5679 13.443 78.7428 12.8916 80.2907 13.1699C81.6824 13.4207 82.5758 14.3874 82.7628 15.8981C82.8403 16.527 82.8743 17.1655 82.8775 17.7997C82.8903 20.2389 82.8839 22.677 82.8818 25.1161C82.8818 25.7493 82.8095 25.8205 82.1827 25.8247C81.5995 25.8279 81.0152 25.8035 80.433 25.8332C79.9242 25.8587 79.7425 25.6526 79.7457 25.1523C79.7606 22.9787 79.7616 20.8051 79.7457 18.6315C79.7414 18.1057 79.6883 17.5745 79.598 17.056C79.4992 16.4856 79.1614 16.0989 78.5527 16.0139C77.9174 15.9257 77.3618 16.17 77.1514 16.731C76.8848 17.4417 76.6914 18.2193 76.667 18.9747C76.6022 20.9868 76.6457 23.0031 76.6447 25.0184C76.6447 25.779 76.5958 25.8247 75.8256 25.8269C75.2424 25.8279 74.6591 25.8215 74.0759 25.8269C73.7019 25.8311 73.5267 25.6643 73.5277 25.284C73.5309 21.4839 73.5309 17.685 73.5277 13.8849C73.5277 13.5258 73.6903 13.3654 74.0387 13.3654C74.6751 13.3654 75.3114 13.3654 75.9478 13.3633C76.3175 13.3622 76.5034 13.5333 76.497 13.9125C76.4896 14.346 76.4949 14.7794 76.4949 15.2139C76.5321 15.216 76.5682 15.2171 76.6054 15.2192L76.6043 15.2182Z" fill="white"/>
<path d="M71.8312 19.6386C71.7972 21.0101 71.5741 22.286 70.9112 23.4536C69.9413 25.1608 68.4986 26.0967 66.5067 26.0669C64.4744 26.0372 63.0359 25.0173 62.2286 23.206C61.1534 20.7955 61.1503 18.3213 62.2402 15.9151C63.0519 14.1239 64.5052 13.1423 66.5035 13.1105C68.5071 13.0786 69.988 13.9816 70.9356 15.7483C71.5953 16.9774 71.7929 18.3139 71.8301 19.6376L71.8312 19.6386ZM68.5336 19.5919C68.4051 18.6825 68.3158 17.6616 68.1034 16.6672C67.9249 15.8322 67.3725 15.4827 66.5651 15.5093C65.8151 15.5337 65.201 16.0118 65.082 16.9742C64.9227 18.2608 64.8834 19.5717 64.9216 20.8688C64.9418 21.5519 65.133 22.2754 65.4262 22.8958C65.9075 23.9146 67.2195 23.9369 67.8357 22.9861C68.0141 22.711 68.1618 22.3869 68.217 22.0672C68.3509 21.2885 68.4221 20.4991 68.5326 19.5908L68.5336 19.5919Z" fill="white"/>
<path d="M38.8674 35.1448C31.8091 35.0353 25.4721 32.7311 20.0318 28.0366C20.018 28.0249 20.0042 28.0142 19.9914 28.0015C19.7907 27.7954 19.4231 27.6137 19.6483 27.2717C19.8863 26.9094 20.1827 27.2154 20.4376 27.3322C22.2798 28.1832 24.0741 29.1584 25.9672 29.8702C31.7368 32.0384 37.7115 32.7566 43.8413 32.0512C47.3333 31.6486 50.7084 30.7689 53.9624 29.4314C54.0771 29.3847 54.1919 29.339 54.3066 29.2944C54.6423 29.1669 54.9599 29.2051 55.1405 29.5281C55.3296 29.867 55.1597 30.1623 54.8569 30.3355C53.4025 31.1652 51.9928 32.099 50.4683 32.7747C46.8212 34.3916 42.9606 35.1033 38.8684 35.1437L38.8674 35.1448Z" fill="white"/>
<path d="M56.1232 15.8471C54.8611 15.8471 53.6999 15.8481 52.5388 15.8471C51.8876 15.846 51.8026 15.76 51.7983 15.1183C51.7962 14.7125 51.8047 14.3056 51.7962 13.8998C51.7877 13.5035 51.9662 13.3123 52.3667 13.3134C54.7697 13.3166 57.1738 13.3176 59.5769 13.3134C59.971 13.3134 60.1378 13.4855 60.1686 13.8849C60.2451 14.8708 60.0348 15.7217 59.408 16.5408C58.2489 18.0536 57.1962 19.6471 56.0998 21.2077C55.9999 21.3501 55.9065 21.4967 55.7768 21.6911C56.4525 21.7591 57.091 21.757 57.6955 21.9004C58.4434 22.0767 59.1817 22.3328 59.885 22.6419C60.1123 22.7418 60.3216 23.1051 60.3577 23.3728C60.431 23.9104 60.3938 24.466 60.3747 25.012C60.3588 25.4646 60.1198 25.6069 59.7022 25.4125C57.142 24.2259 54.5902 24.2153 52.0342 25.4285C51.656 25.608 51.3914 25.4635 51.3787 25.0513C51.3564 24.381 51.3362 23.7043 51.4063 23.0403C51.4435 22.6929 51.6252 22.3317 51.8281 22.0353C53.1369 20.1284 54.4701 18.2374 55.7938 16.3411C55.8841 16.2125 55.9681 16.0797 56.1232 15.8471Z" fill="white"/>
<path d="M45.8853 55.9308C44.7975 56.6872 43.6947 57.296 42.4273 57.4585C41.6996 57.552 40.9369 57.5849 40.2176 57.4734C38.7877 57.2513 37.8613 56.2113 37.6712 54.7367C37.5968 54.1609 37.5862 53.5745 37.5841 52.9923C37.5756 50.5181 37.5788 48.0439 37.5819 45.5707C37.5819 44.8568 37.6584 44.7878 38.3755 44.7846C38.7112 44.7835 39.048 44.8016 39.3826 44.7803C39.8713 44.7485 40.036 44.9716 40.0328 45.4411C40.02 47.5265 40.0211 49.6119 40.0307 51.6963C40.0339 52.4197 40.0285 53.1485 40.1135 53.8635C40.2506 55.0151 40.9061 55.5813 42.0672 55.6132C43.3272 55.6482 44.4692 55.2477 45.5114 54.5699C45.6537 54.4775 45.7355 54.1917 45.7366 53.9952C45.7504 51.2384 45.7451 48.4816 45.7451 45.7248C45.7451 44.8005 45.7685 44.775 46.7065 44.7835C48.4095 44.7984 48.1864 44.5838 48.1906 46.2868C48.1981 49.6799 48.1938 53.072 48.1917 56.4652C48.1917 57.1621 48.1375 57.211 47.4289 57.2173C46.6279 57.2237 46.1134 56.7945 45.8853 55.9298V55.9308Z" fill="white"/>
<path d="M54.5732 57.7283C53.4354 57.4734 52.3295 57.262 51.2459 56.9688C50.5798 56.7892 50.2335 55.8384 50.6085 55.2467C50.6956 55.1096 51.094 55.1011 51.332 55.1383C52.3232 55.2955 53.3016 55.5484 54.296 55.6546C54.8781 55.7162 55.4996 55.6323 56.0743 55.4953C56.8254 55.3168 57.2302 54.7442 57.2801 53.9952C57.3279 53.276 56.9433 52.8118 56.3304 52.5493C55.4221 52.1616 54.4861 51.8397 53.5736 51.4604C53.087 51.2586 52.5887 51.0482 52.1574 50.7529C50.0773 49.3347 50.1836 46.3675 52.3572 45.099C53.8901 44.2035 55.5368 44.2927 57.1983 44.6306C57.4225 44.6762 57.6434 44.7421 57.8623 44.809C58.8227 45.1022 58.9363 45.285 58.8779 46.2899C58.8513 46.7351 58.6718 46.8785 58.2299 46.7744C57.5266 46.6076 56.8201 46.4089 56.1051 46.3558C55.4295 46.3059 54.7305 46.3696 54.0601 46.4875C53.4057 46.6033 53.0254 47.0729 52.9638 47.7496C52.9043 48.4019 53.1741 48.9087 53.7658 49.1732C54.7475 49.6119 55.7503 50.0018 56.7447 50.414C57.006 50.5224 57.2684 50.6265 57.5234 50.7476C58.8832 51.3924 59.629 52.4144 59.5451 53.974C59.4622 55.5016 58.6803 56.5576 57.3014 57.0888C56.4451 57.4192 55.4996 57.5191 54.5754 57.7262L54.5732 57.7283Z" fill="white"/>
<path d="M69.1605 51.0716C69.2731 51.7834 69.3315 52.51 69.511 53.2048C69.8478 54.5083 70.7625 55.1946 72.0681 55.4156C73.139 55.5972 74.179 55.4443 75.2116 55.1734C75.865 55.0023 75.967 55.0756 75.9776 55.7375C75.9957 56.8041 75.9574 56.8816 74.9259 57.178C73.4131 57.6115 71.8843 57.6306 70.3811 57.1642C68.6006 56.6118 67.5053 55.3667 67.0209 53.5862C66.5662 51.9162 66.5577 50.2281 67.0092 48.5613C67.6849 46.0647 69.5355 44.621 72.3242 44.5371C73.326 44.5063 74.3448 44.7676 75.3402 44.9694C75.8352 45.0704 76.1412 46.3845 75.7662 46.7298C75.6408 46.8445 75.3455 46.8126 75.1341 46.7903C74.3479 46.7085 73.5629 46.513 72.7788 46.5226C70.6818 46.5502 69.5535 47.6115 69.3049 49.6863C69.2508 50.141 69.2412 50.602 69.2115 51.0599C69.1945 51.0642 69.1775 51.0674 69.1615 51.0716H69.1605Z" fill="white"/>
<path d="M64.1195 51.0111C64.1195 52.8468 64.1216 54.6826 64.1185 56.5183C64.1174 57.144 64.0441 57.212 63.412 57.2184C63.0593 57.2216 62.7045 57.2003 62.3528 57.2226C61.8726 57.2535 61.6729 57.0378 61.6793 56.5704C61.6889 55.9351 61.6814 55.2998 61.6814 54.6645C61.6814 51.6814 61.6782 48.6983 61.6793 45.7152C61.6793 44.8207 61.7186 44.7857 62.5929 44.7846C62.8755 44.7846 63.1592 44.8037 63.4407 44.7803C63.9421 44.7378 64.1333 44.9418 64.128 45.4507C64.1089 47.3034 64.1206 49.1572 64.1206 51.0111H64.1195Z" fill="white"/>
<path d="M54.2109 27.8687C53.4556 27.9399 52.6663 28.0249 51.8738 28.0822C51.707 28.0939 51.5327 28.0036 51.3617 27.9601C51.4541 27.8039 51.5083 27.5946 51.6432 27.5001C52.7481 26.7235 54.0197 26.408 55.337 26.3761C56.2252 26.3548 57.1197 26.5153 58.0078 26.6247C58.4646 26.681 58.6749 27.0082 58.659 27.4501C58.5793 29.7044 57.8537 31.6964 56.2028 33.2878C56.0669 33.4195 55.8098 33.4259 55.6101 33.4907C55.6207 33.2963 55.5931 33.0912 55.6472 32.9096C56.0191 31.6634 56.4674 30.4375 56.7691 29.1754C56.9709 28.3308 56.6597 28.0323 55.779 27.9314C55.5336 27.9038 55.2871 27.8814 55.0406 27.8719C54.7761 27.8613 54.5116 27.8698 54.2099 27.8698L54.2109 27.8687Z" fill="white"/>
<path d="M62.8883 42.5738C61.9629 42.5611 61.3935 41.9906 61.3988 41.0812C61.4042 40.1931 62.0054 39.6162 62.9265 39.6162C63.8614 39.6162 64.4659 40.226 64.4425 41.1439C64.4202 42.0405 63.8263 42.5866 62.8883 42.5738Z" fill="white"/>
</svg>
