<svg width="92" height="46" viewBox="0 0 92 46" fill="none" xmlns="http://www.w3.org/2000/svg">
<g clip-path="url(#clip0_1278_442)">
<path d="M35.2255 16.0904C31.9229 18.2899 30.1601 21.2747 30.4299 25.257C30.6983 29.2394 32.8618 31.949 36.3954 33.7239C36.3567 33.8454 36.3153 33.9803 36.2699 34.1138C35.5394 36.2519 34.5538 38.2644 33.2611 40.1194C32.616 41.0462 31.9403 41.9543 31.2325 42.8344C30.8439 43.3178 30.3858 43.7559 29.9131 44.1605C28.2197 45.6095 26.2966 45.9126 24.2026 45.2115C23.6751 45.0339 23.1583 44.8176 22.6495 44.5892C21.2232 43.9495 19.7382 43.6891 18.1797 43.8307C17.2435 43.9161 16.3568 44.1765 15.4887 44.5224C14.7489 44.8176 14.013 45.1287 13.2545 45.3664C11.5451 45.9046 9.97727 45.5975 8.56035 44.493C7.70431 43.8253 6.98183 43.032 6.30074 42.1934C3.50429 38.7506 1.62395 34.863 0.598319 30.5481C0.0534507 28.2618 -0.081431 25.9448 0.042767 23.6171C0.170971 21.1919 0.818671 18.8976 2.16215 16.845C3.77271 14.3824 5.98557 12.7438 8.86483 12.044C10.673 11.6033 12.4519 11.7008 14.1947 12.3578C14.9532 12.6436 15.7064 12.9414 16.4649 13.2285C16.7748 13.3461 17.0913 13.4502 17.4051 13.5557C18.1223 13.7974 18.8421 13.8081 19.5565 13.5504C20.3431 13.2646 21.127 12.9708 21.9083 12.6743C22.9286 12.287 23.9569 11.9305 25.04 11.7622C26.4542 11.5418 27.8551 11.666 29.2333 12.0079C31.541 12.5808 33.4627 13.7694 34.9224 15.6684C35.0185 15.794 35.1067 15.9248 35.2255 16.0904Z" fill="white"/>
<path d="M71.9133 45.3397C71.8612 45.2075 71.8104 45.086 71.765 44.9618C69.1409 37.7303 66.4793 30.5134 63.9058 23.2632C62.3901 18.9937 60.7769 14.7616 59.2558 10.4948C59.2117 10.372 59.1756 10.2478 59.1276 10.0929H65.3575C65.4016 10.2064 65.455 10.3252 65.495 10.4494C66.7517 14.2462 67.995 18.0469 69.2677 21.8383C69.9395 23.8401 70.6579 25.8273 71.3577 27.8198C72.7934 31.9076 74.0741 36.0436 75.2132 40.2236C75.2479 40.3491 75.2947 40.4706 75.3655 40.6856C75.4362 40.4773 75.483 40.3531 75.519 40.2262C76.9333 35.293 78.6373 30.456 80.3854 25.635C81.5179 22.5127 82.5422 19.3543 83.6533 16.2253C84.3384 14.2969 84.9968 12.3605 85.6699 10.4281C85.7126 10.3039 85.766 10.1837 85.8194 10.0501H92C91.9693 10.169 91.9546 10.2692 91.9198 10.3613C90.0448 15.3332 88.1605 20.3025 86.2949 25.2784C85.6565 26.9825 85.0769 28.7079 84.4453 30.4146C82.641 35.2864 80.8221 40.1528 79.0086 45.0205C78.9712 45.1194 78.9311 45.2169 78.8817 45.3397H71.9119H71.9133Z" fill="white"/>
<path d="M51.247 10.0995H57.7707V14.3477H51.3044C51.2871 14.4959 51.2617 14.6081 51.2604 14.7216C51.2417 16.5966 51.1709 18.4729 51.219 20.3466C51.3552 25.7178 51.2403 31.0903 51.2831 36.4616C51.2897 37.327 51.3098 38.191 51.5515 39.031C51.5956 39.1846 51.6477 39.3342 51.7024 39.4837C52.0042 40.309 52.5905 40.8179 53.4332 41.0449C54.2825 41.2746 55.1466 41.2626 56.0079 41.1611C56.7718 41.0716 57.5304 40.9367 58.2929 40.8219C58.3797 41.0849 58.4104 44.4864 58.325 45.1407C57.8268 45.2583 57.3154 45.3958 56.7959 45.496C55.2507 45.7951 53.6909 45.9394 52.1164 45.9086C51.4099 45.8953 50.7115 45.8098 50.0264 45.6322C47.9204 45.0847 46.5702 43.7412 45.8918 41.6939C45.4778 40.4413 45.3696 39.1472 45.3603 37.8398C45.3523 36.7888 45.359 35.7391 45.359 34.6881C45.359 30.6056 45.3162 26.5231 45.375 22.4419C45.411 19.9152 45.3937 17.3898 45.3843 14.8645C45.3843 14.6949 45.3683 14.5266 45.359 14.3209H41.3138V10.0782H45.5633V4.5093C47.4423 3.74275 49.3066 2.98153 51.2083 2.20563C51.2844 2.67571 51.2363 3.10707 51.2457 3.53575C51.255 3.96043 51.247 4.38644 51.247 4.81245V10.0995Z" fill="white"/>
<path d="M18.1436 11.1479C17.9753 10.2838 18.0394 9.47322 18.2397 8.68797C19.3054 4.5053 21.9843 1.95056 26.1603 0.939613C26.4541 0.868834 26.7613 0.856814 27.1058 0.812744C27.1619 1.37764 27.1833 1.90916 27.1165 2.43266C26.7212 5.52158 25.315 8.0189 22.7188 9.78839C21.5343 10.5963 20.2242 11.0878 18.7739 11.1466C18.5656 11.1546 18.3572 11.1466 18.1436 11.1466V11.1479Z" fill="white"/>
</g>
<defs>
<clipPath id="clip0_1278_442">
<rect width="92" height="45.0999" fill="white" transform="translate(0 0.812744)"/>
</clipPath>
</defs>
</svg>
