<svg width="92" height="25" viewBox="0 0 92 25" fill="none" xmlns="http://www.w3.org/2000/svg">
<g clip-path="url(#clip0_1278_447)">
<path d="M48.3345 24.233H39.9661V13.1609C39.9011 13.1494 39.836 13.1378 39.7696 13.1263C38.9343 14.5439 38.102 15.9629 37.2624 17.3791C35.9055 19.6652 34.5442 21.9498 33.1844 24.2345H24.816C24.8088 24.0914 24.7958 23.9483 24.7958 23.8053C24.7958 16.1233 24.7944 8.44136 24.7958 0.760849C24.7958 0.581661 24.8363 0.401028 24.8551 0.249296H32.2292V11.1754C32.5081 11.015 32.6411 10.8055 32.7668 10.5902C34.6959 7.30699 36.6323 4.02669 38.5456 0.734838C38.7797 0.331665 39.0369 0.172708 39.5109 0.177043C41.8895 0.201609 44.2695 0.187158 46.6495 0.190049C46.859 0.190049 47.0686 0.21606 47.3677 0.234846V11.1884C47.6712 10.9962 47.82 10.7636 47.9602 10.5266C49.8778 7.26364 51.8012 4.00502 53.7029 0.733393C53.937 0.33022 54.1942 0.171263 54.6682 0.177043C57.0467 0.201609 59.4268 0.187158 61.8068 0.190049C61.9932 0.190049 62.1796 0.21606 62.4686 0.237736C62.2996 0.548424 62.1724 0.79553 62.0322 1.03541C58.671 6.75497 55.3112 12.476 51.9428 18.1927C50.752 20.2143 49.5382 22.2229 48.3359 24.2374L48.3345 24.233Z" fill="white"/>
<path d="M0 24.233C0.0997094 23.9715 0.164737 23.6911 0.304908 23.4527C4.74125 15.8907 9.18772 8.33443 13.6197 0.769522C13.8639 0.351898 14.1269 0.165485 14.6342 0.171265C16.9896 0.200166 19.3451 0.182826 21.7005 0.185716C21.9144 0.185716 22.1283 0.203057 22.4274 0.216062C22.4433 0.487734 22.4693 0.739175 22.4693 0.989171C22.4722 8.48038 22.4722 15.9716 22.4664 23.4628C22.4664 23.72 22.3985 23.9758 22.3624 24.233H15.1486C15.1081 23.9556 15.0316 23.6781 15.0301 23.4007C15.0214 20.2215 15.0258 17.0424 15.0229 13.8647C15.0229 13.6306 15.0027 13.3965 14.9911 13.1609C14.9362 13.1566 14.8798 13.1508 14.8249 13.1465C12.6718 16.843 10.5186 20.538 8.36692 24.2345H0V24.233Z" fill="white"/>
<path d="M50.9313 24.233C51.0425 23.9729 51.1278 23.6984 51.2694 23.4556C55.7072 15.8964 60.1537 8.34166 64.5842 0.778191C64.8285 0.360568 65.0842 0.165484 65.5943 0.172709C67.9729 0.200166 70.3529 0.18427 72.7315 0.18716C72.941 0.18716 73.1506 0.216061 73.4381 0.236292V24.2345H66.0799C66.0495 23.9512 65.9946 23.668 65.9946 23.3862C65.9888 20.2273 65.9917 17.0684 65.9888 13.9095C65.9888 13.6667 65.9672 13.4239 65.9556 13.1812L65.8039 13.1638C63.6363 16.8545 61.4672 20.5452 59.2996 24.2359H50.9313V24.233Z" fill="white"/>
<path d="M75.7473 24.233V0.226177H83.1634V16.7447H91.8988C91.9407 16.9687 91.9956 17.1248 91.9971 17.2808C92.0028 19.4354 92.0028 21.59 91.9971 23.7446C91.9971 23.9079 91.9393 24.0697 91.9075 24.233H75.7473Z" fill="white"/>
</g>
<defs>
<clipPath id="clip0_1278_447">
<rect width="92" height="24.0618" fill="white" transform="translate(0 0.171265)"/>
</clipPath>
</defs>
</svg>
