<svg width="92" height="27" viewBox="0 0 92 27" fill="none" xmlns="http://www.w3.org/2000/svg">
<g clip-path="url(#clip0_1278_472)">
<path d="M92 26.4657H65.8677V0.267457C74.5203 0.255827 83.1884 0.259703 92 0.267457V26.4657ZM84.6305 17.3013C81.7579 18.3054 78.9784 19.2203 76.6447 16.6152C75.4042 15.2312 75.3421 11.9361 76.5129 10.432C78.6915 7.63691 81.5021 8.48977 84.3785 9.36201V6.92362C80.4593 5.06284 76.0981 5.7994 73.9155 8.62933C71.8183 11.3507 71.9307 15.9251 74.059 18.5186C76.3462 21.3059 81.7773 21.6276 84.6305 19.7242V17.3013Z" fill="white"/>
<path d="M32.897 26.4114V0.372128H59.1029V26.4153H32.897V26.4114ZM49.5587 12.6998C49.6556 12.6067 49.8456 12.4517 50.0045 12.2695C51.9118 10.1335 51.2024 7.28802 48.4771 6.45067C45.8488 5.64821 43.1623 6.14442 40.4952 6.02812V20.5344C43.1817 20.5344 45.7751 20.7864 48.2949 20.4685C51.1481 20.1119 52.6174 17.4409 51.5048 15.0684C51.0977 14.2 50.2604 13.5333 49.5548 12.6998H49.5587Z" fill="white"/>
<path d="M0 0.356621H26.1284V26.392H0V0.356621ZM7.50126 20.5887C10.1684 20.5887 12.6107 20.7089 15.0335 20.5499C16.9098 20.4259 18.2899 19.3559 18.7939 17.4603C19.2552 15.7236 18.5923 14.4094 16.7548 13.1107C16.6695 13.0487 16.6462 12.9014 16.5571 12.7269C16.7199 12.5757 16.9176 12.4245 17.0765 12.2423C18.8985 10.1877 18.2628 7.38106 15.6848 6.5127C13.0138 5.60944 10.2692 6.14829 7.50126 6.03587V20.5887Z" fill="white"/>
<path d="M43.3872 18.3286V14.4443C44.6316 14.4443 45.8372 14.3318 47.0118 14.4753C48.2989 14.6303 48.8416 15.4212 48.7602 16.5842C48.6749 17.7859 47.888 18.255 46.8258 18.317C45.7442 18.3829 44.6587 18.3325 43.3872 18.3325V18.3286Z" fill="white"/>
<path d="M43.4143 12.0291V8.48977C44.4493 8.48977 45.4495 8.44325 46.4419 8.5014C47.3994 8.55955 47.9732 9.09065 48.0197 10.0908C48.0701 11.153 47.5351 11.8624 46.5233 11.9981C45.5348 12.1299 44.5152 12.0252 43.4104 12.0252L43.4143 12.0291Z" fill="white"/>
<path d="M10.4707 18.2356V14.4016C11.6182 14.4016 12.6959 14.3241 13.762 14.421C15.1808 14.5489 15.8631 15.2971 15.8243 16.4756C15.7856 17.596 15.1808 18.1775 13.793 18.3248C13.0913 18.3984 12.378 18.379 11.6725 18.3674C11.3042 18.3635 10.9359 18.2899 10.4746 18.2356H10.4707Z" fill="white"/>
<path d="M10.4979 8.52079C11.5678 8.52079 12.5796 8.47039 13.5798 8.5363C14.5606 8.6022 15.0607 9.19532 15.0607 10.1916C15.0607 11.1569 14.5994 11.8547 13.669 11.9826C12.6727 12.1183 11.6415 12.0136 10.494 12.0136V8.52079H10.4979Z" fill="white"/>
</g>
<defs>
<clipPath id="clip0_1278_472">
<rect width="92" height="26.206" fill="white" transform="translate(0 0.259705)"/>
</clipPath>
</defs>
</svg>
