<svg width="92" height="38" viewBox="0 0 92 38" fill="none" xmlns="http://www.w3.org/2000/svg">
<g clip-path="url(#clip0_1278_497)">
<path d="M41.565 14.1138C41.1099 14.9843 41.1113 14.9817 40.1894 14.6056C39.5621 14.3492 38.9335 14.0954 38.297 13.8626C38.059 13.7758 37.7973 13.7561 37.5448 13.7048C37.5251 13.76 37.5054 13.8152 37.4856 13.8692C38.4943 14.2952 39.5043 14.7226 40.5668 15.1711C40.1526 15.8339 39.4372 15.4762 38.9467 15.6866C38.8257 15.4288 38.735 15.2368 38.5929 14.9344C38.2102 16.0272 37.9643 16.231 36.9662 16.1955C36.4967 16.1784 36.0273 16.0416 35.5696 15.9154C35.1777 15.8076 34.8108 15.5801 34.2322 15.7826C34.6964 16.2573 35.1093 16.6742 35.517 17.0976C35.6551 17.241 35.7813 17.3975 35.9247 17.5605C36.4823 17.1871 37.2226 17.3738 37.5093 18.0195C37.6001 18.2246 37.6316 18.4258 37.3726 18.4968C37.0175 18.5942 36.5875 18.8019 36.3021 18.6849C35.6709 18.4271 35.0436 18.0695 34.5426 17.6144C34.0678 17.1831 33.7706 16.5624 33.3682 16.0456C33.096 15.6971 33.0092 15.3341 33.2143 14.9515C33.4234 14.5622 33.7483 14.382 34.2322 14.382C35.2106 14.382 36.189 14.3031 37.1924 14.2019C36.8755 14.1256 36.5585 14.0506 36.2416 13.9744C36.2403 13.931 36.2377 13.8876 36.2363 13.8455C36.3573 13.7876 36.4796 13.7285 36.7216 13.6127C36.2811 13.5812 35.9562 13.5588 35.5446 13.5299C35.7708 14.0598 35.4407 14.1651 35.108 14.2006C34.7188 14.2413 34.3229 14.2229 33.9297 14.2229C33.3603 14.2229 33.1118 14.3492 32.95 14.8791C32.8172 15.3118 32.737 15.7707 33.0947 16.1784C33.6352 16.7938 34.1638 17.4211 34.6833 18.055C34.7516 18.1378 34.7872 18.3167 34.7438 18.4035C34.7043 18.4824 34.5097 18.5639 34.4308 18.531C34.102 18.3916 33.7864 18.2181 33.476 18.0366C33.3892 17.9866 33.3564 17.8117 33.2748 17.7907C32.6318 17.625 32.6528 17.0845 32.5739 16.5979C32.4727 15.9719 32.3688 15.3473 32.278 14.72C32.1636 13.9231 32.7067 13.422 33.5037 13.5259C33.8877 13.5759 34.3098 13.6009 34.6701 13.4917C34.9923 13.3944 35.2645 13.1077 35.5367 12.8789C35.6275 12.8027 35.6472 12.6448 35.7011 12.5265C36.1785 11.4902 36.2889 11.4205 37.4436 11.4639C38.0932 11.4876 38.7442 11.5192 39.5214 11.5534C39.2505 12.1688 39.0229 12.6843 38.7954 13.2011C38.8375 13.2208 38.8783 13.2419 38.9204 13.2616C39.0742 12.9828 39.2189 12.6988 39.382 12.4265C39.549 12.1504 39.7265 11.8795 39.9132 11.6165C39.9935 11.5047 40.1105 11.4179 40.2118 11.3206C40.263 11.4376 40.2828 11.6099 40.3722 11.6599C40.5642 11.7664 40.7878 11.8532 41.0034 11.865C41.2796 11.8808 41.561 11.815 41.8266 11.7861C41.8806 12.2687 41.9226 12.6356 41.9634 12.9973C42.0844 12.9236 42.283 12.804 42.4815 12.683L42.4697 12.6685C42.4263 12.8487 42.3816 13.0288 42.3382 13.209L42.3487 13.1945C42.0975 13.3957 42.116 13.9086 41.6149 13.8363C41.607 13.8363 41.5728 14.027 41.5505 14.1282L41.565 14.1151V14.1138Z" fill="white"/>
<path d="M51.4121 12.416C51.9315 12.7053 52.2932 13.1419 52.4628 13.6995C52.6719 14.386 52.8284 15.0882 52.9902 15.7878C53.0691 16.1284 52.9533 16.3467 52.5812 16.4743C52.2156 16.5979 51.8881 16.8333 51.5396 17.0095C51.4081 17.0766 51.2516 17.1818 51.1267 17.1594C50.4468 17.0371 49.7735 16.8833 49.0989 16.7347C49.0161 16.7163 48.9332 16.6295 48.8596 16.6413C47.8023 16.8004 46.9501 16.0942 45.9599 15.9575C45.5864 15.9062 45.2366 15.6682 44.8789 15.5104C44.6224 15.3973 44.6935 15.2145 44.7737 15.0185C44.9131 14.6766 45.0393 14.3281 45.1695 13.9823L45.1761 13.973C45.518 13.3168 45.877 12.6685 46.1926 12.0005C46.3518 11.6651 46.5714 11.5783 46.9199 11.6033C48.4519 11.7138 49.955 11.9807 51.4239 12.4279L51.4095 12.4187L51.4121 12.416Z" fill="white"/>
<path d="M28.8891 27.0579C29.1889 27.1473 29.3783 27.1959 29.5624 27.2617C30.4369 27.5747 30.7802 28.056 30.7933 28.9792C30.7946 29.1107 30.7881 29.2422 30.7986 29.3724C30.8393 29.8905 31.1102 30.1048 31.6297 30.0272C31.7362 30.0115 31.8375 29.9418 31.9427 29.9405C32.0518 29.9378 32.1623 29.9865 32.2728 30.0128C32.2109 30.1114 32.1728 30.2495 32.0834 30.3021C30.8065 31.0622 28.8931 30.0535 28.8839 28.5754C28.8786 27.6772 28.3933 27.3209 27.6582 27.2669C26.9665 27.2157 26.2682 27.2564 25.4923 27.2564C25.4923 28.0757 25.4765 28.8555 25.5107 29.634C25.516 29.7471 25.7474 29.9207 25.8947 29.9444C26.1998 29.9931 26.5181 29.9589 26.8363 30.0772C26.3576 30.4047 25.825 30.2784 25.3161 30.2942C24.7914 30.3113 24.2654 30.3166 23.742 30.2942C23.2173 30.2718 22.6755 30.4139 22.1679 30.2008C22.1626 30.1443 22.1573 30.0891 22.1521 30.0325C22.4282 30.0075 22.7057 29.9497 22.9793 29.9668C23.4172 29.9931 23.6065 29.8616 23.5973 29.3829C23.571 27.9389 23.571 26.495 23.5947 25.0511C23.6026 24.5855 23.4369 24.4422 22.9885 24.454C22.7018 24.4619 22.3401 24.604 22.0587 24.1608C22.2718 24.1148 22.423 24.0543 22.5742 24.0543C24.3456 24.0503 26.1196 24.0201 27.8897 24.0753C28.4617 24.0937 29.0456 24.2897 29.5887 24.4948C30.0582 24.6723 30.3778 25.0695 30.3712 25.6087C30.3633 26.1676 30.0345 26.5384 29.5466 26.7751C29.3717 26.8593 29.1889 26.929 28.8917 27.0552L28.8891 27.0579ZM25.4897 25.5837C25.4897 25.8664 25.4516 26.157 25.5055 26.4293C25.5331 26.5713 25.7185 26.787 25.8356 26.7896C26.4418 26.7988 27.0559 26.7962 27.6556 26.708C28.2434 26.6213 28.5393 26.1768 28.5275 25.5837C28.5156 25.0037 28.2368 24.6513 27.6451 24.5422C27.3058 24.4803 26.952 24.4725 26.6049 24.4725C25.3582 24.4751 25.4989 24.3291 25.4897 25.5837Z" fill="white"/>
<path d="M65.7436 30.0746C65.5898 30.1824 65.4517 30.3429 65.2807 30.3902C64.4812 30.6125 63.7158 30.498 63.0254 30.0325C62.5336 29.6998 62.3561 29.1988 62.3337 28.6175C62.2995 27.7272 62.0168 27.3774 61.1515 27.2827C60.5242 27.2143 59.8864 27.2499 59.2525 27.2407C59.004 27.2367 58.9053 27.3656 58.908 27.6075C58.9132 28.2638 58.9132 28.9187 58.9067 29.5749C58.904 29.855 59.0342 29.9628 59.3051 29.9654C59.6378 29.9681 59.9692 29.9957 60.3046 30.1075C59.8167 30.402 59.2828 30.2811 58.7699 30.2995C58.2465 30.3179 57.7205 30.3231 57.1958 30.2995C56.6776 30.2758 56.1372 30.4244 55.6401 30.1929C55.6374 30.139 55.6348 30.0851 55.6322 30.0325C56.0832 29.9917 56.533 29.9523 57.0603 29.905C57.0603 29.5788 57.0603 29.279 57.0603 28.9792C57.0603 27.7772 57.0629 26.5739 57.0603 25.372C57.0577 24.3949 57.134 24.479 56.1937 24.4633C55.9912 24.4593 55.7913 24.3804 55.5901 24.337C55.5953 24.2739 55.6006 24.2108 55.6046 24.1476C55.7584 24.1161 55.9123 24.0582 56.0648 24.0582C57.7915 24.053 59.5195 24.0267 61.2448 24.0753C61.8195 24.0911 62.4034 24.2634 62.9557 24.4475C63.4896 24.625 63.8394 25.0419 63.8329 25.631C63.8276 26.1925 63.4633 26.5437 62.982 26.7777C62.8084 26.8632 62.627 26.9329 62.3626 27.0473C62.5967 27.1262 62.7479 27.1775 62.9005 27.2275C63.9078 27.5602 64.2642 28.0481 64.2747 29.1107C64.2839 30.0246 64.5272 30.2048 65.3899 29.9444C65.4662 29.922 65.5464 29.9155 65.6253 29.901C65.6647 29.9589 65.7029 30.018 65.7423 30.0759L65.7436 30.0746ZM58.9106 25.5061C58.9106 25.9138 58.8804 26.1807 58.9224 26.4358C58.9448 26.57 59.096 26.7883 59.1855 26.787C59.8811 26.7751 60.5847 26.7685 61.2698 26.6594C61.7445 26.5844 61.9957 26.1307 62.001 25.6179C62.0062 25.1037 61.7643 24.721 61.2553 24.5948C60.8792 24.5014 60.4795 24.4725 60.0902 24.4738C58.7173 24.479 58.9303 24.3041 58.9106 25.5061Z" fill="white"/>
<path d="M73.9429 27.0565C74.2256 27.1499 74.432 27.213 74.6359 27.2867C75.3736 27.5523 75.7734 28.0678 75.7944 28.8621C75.7944 28.9055 75.7971 28.9489 75.7984 28.9936C75.8313 30.0667 76.0456 30.2193 77.0714 29.9036C77.1108 29.8918 77.1568 29.9023 77.3436 29.9023C77.2292 30.0799 77.1845 30.235 77.0819 30.2968C75.8142 31.0569 74.002 30.072 73.9389 28.5978C73.9021 27.7259 73.597 27.3564 72.7383 27.2775C72.1097 27.2196 71.4719 27.2538 70.838 27.2407C70.5474 27.2354 70.4645 27.3893 70.4685 27.6536C70.4764 28.2664 70.4843 28.8792 70.4632 29.4907C70.4501 29.88 70.6355 29.9786 70.9813 29.9707C71.2641 29.9641 71.5481 30.0049 71.9703 30.0351C71.4206 30.3639 67.7516 30.3928 67.1387 30.1364C67.5793 29.7892 68.0961 30.0983 68.5735 29.8708C68.5893 29.7208 68.6248 29.5341 68.6248 29.3474C68.6287 27.9481 68.63 26.5476 68.6248 25.1484C68.6234 24.483 68.6169 24.4896 67.9212 24.4698C67.6621 24.4619 67.4031 24.412 67.1453 24.3817L67.1309 24.1766C67.2742 24.1371 67.4189 24.0622 67.5622 24.0622C69.377 24.0582 71.1931 24.0319 73.0065 24.0871C73.5562 24.1042 74.1151 24.3107 74.6385 24.5106C75.1132 24.6921 75.4315 25.0866 75.4289 25.6205C75.4262 26.1794 75.0817 26.545 74.5951 26.7791C74.4044 26.8711 74.2059 26.9487 73.9429 27.0618V27.0565ZM70.4737 25.6074C70.4737 25.8914 70.4435 26.1794 70.4869 26.4556C70.5066 26.5831 70.6736 26.7909 70.7709 26.7883C71.4653 26.7738 72.1675 26.7685 72.85 26.6528C73.3576 26.5673 73.6062 26.0992 73.5891 25.5587C73.572 25.0458 73.3235 24.6986 72.7935 24.5803C72.4147 24.4961 72.0163 24.4725 71.627 24.4738C70.2896 24.4777 70.4908 24.316 70.4737 25.6074Z" fill="white"/>
<path d="M33.7141 30.0233C34.1678 29.9852 34.6215 29.947 35.1462 29.9023C35.1462 29.5223 35.1462 29.1777 35.1462 28.8332C35.1462 27.5655 35.1331 26.2978 35.1528 25.0314C35.1594 24.6079 35.0174 24.4554 34.5886 24.458C34.2875 24.458 33.8996 24.6303 33.6168 24.1542C33.8404 24.1121 33.9956 24.0582 34.1507 24.0582C35.855 24.0543 37.5607 24.0346 39.2637 24.0753C39.7976 24.0885 40.3446 24.2239 40.8562 24.3949C41.3862 24.5724 41.7294 24.9774 41.7228 25.5811C41.7149 26.1663 41.3388 26.4792 40.8509 26.6962C40.6958 26.7646 40.5366 26.8264 40.3723 26.8948C40.8168 27.0881 41.2612 27.2209 41.64 27.459C42.5934 28.0573 42.6092 29.1646 41.6426 29.7432C41.1902 30.0141 40.6287 30.2258 40.1093 30.2429C38.0578 30.31 36.0023 30.2903 33.9495 30.2968C33.8733 30.2968 33.797 30.2403 33.7194 30.2114C33.7168 30.1496 33.7154 30.0878 33.7128 30.0246L33.7141 30.0233ZM36.9886 27.1131C36.9886 28.0336 36.9728 28.799 37.0031 29.5617C37.0084 29.6972 37.203 29.9378 37.3082 29.9365C38.0486 29.9313 38.7995 29.9365 39.5267 29.8169C40.1763 29.7103 40.5011 29.1685 40.4748 28.5084C40.4459 27.7838 40.154 27.3419 39.4714 27.2499C38.6798 27.1433 37.8737 27.1552 36.9886 27.1118V27.1131ZM36.9899 25.4798C36.9899 25.8783 36.9584 26.1465 37.0031 26.4003C37.0254 26.5292 37.1846 26.7317 37.2845 26.7344C37.9368 26.7488 38.5969 26.7659 39.2426 26.687C39.816 26.616 40.0961 26.1623 40.0803 25.539C40.0659 24.9551 39.7818 24.6158 39.1756 24.5251C38.8323 24.4738 38.4799 24.4711 38.1314 24.4725C36.7782 24.479 37.0136 24.3304 36.9899 25.4811V25.4798Z" fill="white"/>
<path d="M1.57149 24.5698C1.07309 24.3252 0.518132 24.6684 0 24.1792C0.269586 24.12 0.420818 24.0569 0.572049 24.0569C2.32239 24.0543 4.07404 24.0359 5.82307 24.0793C6.33462 24.0924 6.85802 24.2423 7.3459 24.4146C7.85088 24.5934 8.1757 24.9893 8.17702 25.5613C8.17702 26.1452 7.80617 26.4674 7.32092 26.6923C7.18415 26.7554 7.04081 26.8014 6.78963 26.8987C7.15522 27.0289 7.4327 27.1078 7.69176 27.2249C8.30063 27.4997 8.8043 27.8877 8.7872 28.632C8.77011 29.3382 8.30589 29.755 7.69176 29.9602C7.18021 30.1311 6.63183 30.2719 6.0966 30.2837C4.25947 30.3245 2.42102 30.3047 0.58257 30.3021C0.441859 30.3021 0.299833 30.2534 0.0959991 30.2166C0.347175 29.8326 0.677254 29.9786 0.94421 29.9681C1.59516 29.9405 1.60042 29.9536 1.60174 29.304C1.60437 27.9034 1.60305 26.5029 1.60042 25.1024C1.60042 24.9301 1.5807 24.7591 1.56886 24.5711L1.57149 24.5698ZM3.51646 27.2091V30.0062C4.38177 29.947 5.21157 29.9536 6.01638 29.8168C6.77517 29.6867 7.09604 29.133 7.01977 28.3676C6.95533 27.7128 6.6121 27.2985 5.87961 27.2262C5.12609 27.1512 4.35941 27.2091 3.51514 27.2091H3.51646ZM3.48095 24.5198C3.48095 25.1984 3.46517 25.8072 3.4941 26.4135C3.49936 26.5305 3.68084 26.7317 3.78473 26.7343C4.41464 26.7488 5.05244 26.7659 5.67578 26.6883C6.26756 26.616 6.52531 26.2031 6.51479 25.5561C6.50427 24.9419 6.25967 24.5908 5.64291 24.5343C4.95645 24.4711 4.25947 24.5198 3.47964 24.5198H3.48095Z" fill="white"/>
<path d="M44.3937 6.72841C44.0044 6.47329 44.2398 6.18135 44.3766 5.9328C44.6948 5.35286 44.8198 4.79133 44.2898 4.17457H44.9144C44.8158 3.67485 44.7198 3.19354 44.6107 2.63596C44.829 2.66094 44.9749 2.65568 45.1078 2.69645C46.7332 3.19222 48.3915 3.40263 50.0931 3.35924C51.6081 3.31978 52.935 3.86948 54.0146 4.91758C54.7419 5.62376 55.5664 6.11296 56.5185 6.41937C56.5961 6.44436 56.6658 6.49301 56.8052 6.56271C55.7781 6.81126 54.8536 6.81126 54.0107 6.22869C53.4136 5.81576 52.7443 5.63165 52.0407 5.57379C50.8217 5.47385 49.6 5.38705 48.3783 5.33445C47.4236 5.29368 46.4491 5.43308 45.5601 4.85051C45.4825 5.50015 45.2616 5.97488 44.7553 6.2905C44.6541 6.35362 44.6015 6.49433 44.5265 6.59953L44.395 6.72841H44.3937Z" fill="white"/>
<path d="M47.6852 24.4712C47.6852 25.205 47.6852 25.8362 47.6852 26.4674C47.6852 26.7291 47.7944 26.879 48.0745 26.8751C48.8859 26.8659 49.7446 26.9619 50.0655 25.919C50.0891 25.8428 50.2325 25.7441 50.2982 25.7586C50.3719 25.7731 50.4718 25.9046 50.4731 25.9874C50.4876 26.7094 50.4902 27.4313 50.4731 28.1533C50.4705 28.244 50.3351 28.3322 50.2614 28.4216C50.1878 28.3545 50.0905 28.3006 50.0457 28.2177C49.6249 27.455 48.6952 27.0447 47.9075 27.3117C47.8049 27.3459 47.6905 27.5273 47.6865 27.6431C47.6668 28.2769 47.6839 28.9121 47.68 29.546C47.6786 29.8616 47.8483 29.9681 48.1363 29.9602C49.0542 29.9365 49.976 29.9602 50.8887 29.88C51.8158 29.7984 52.5772 29.421 52.8205 28.3979C52.8442 28.298 52.9757 28.223 53.0572 28.1375C53.123 28.2348 53.2413 28.3308 53.2453 28.4295C53.265 28.9318 53.2782 29.4381 53.2374 29.9378C53.2269 30.0667 53.0217 30.193 52.885 30.2916C52.8271 30.3337 52.7153 30.3008 52.6272 30.3008C50.0681 30.3008 47.5077 30.3034 44.9486 30.3008C44.7605 30.3008 44.5725 30.2705 44.3305 30.2495C44.5251 29.8182 44.8486 29.9786 45.0893 29.9707C45.856 29.9444 45.8573 29.9576 45.8586 29.2198C45.8612 27.885 45.8626 26.5503 45.8612 25.2155C45.8612 24.4764 45.8573 24.4843 45.0919 24.4646C44.8381 24.458 44.5843 24.4001 44.3305 24.3659C44.3305 24.2976 44.3292 24.2292 44.3279 24.1608C44.4765 24.124 44.6238 24.0556 44.7724 24.0556C47.2223 24.049 49.6736 24.0556 52.1235 24.0464C52.4747 24.0464 52.6561 24.1476 52.6364 24.5303C52.6154 24.9235 52.6417 25.318 52.6206 25.7112C52.6154 25.8178 52.5141 25.9203 52.4562 26.0242C52.3681 25.9506 52.2222 25.8901 52.1985 25.7994C51.9421 24.7762 51.1675 24.5067 50.2562 24.4751C49.429 24.4462 48.6005 24.4685 47.6813 24.4685L47.6852 24.4712Z" fill="white"/>
<path d="M32.9237 6.20896C33.5247 6.27471 34.1244 6.34178 34.87 6.42332C34.657 6.26156 34.5176 6.18924 34.4242 6.07746C34.3164 5.94858 34.1572 5.76316 34.1862 5.64086C34.244 5.39363 34.39 5.15955 34.7438 5.23845C35.0975 5.31735 35.4591 5.36338 35.8182 5.41598C35.8931 5.4265 35.9799 5.41598 36.0522 5.38968C37.3752 4.90837 38.4548 5.23451 39.2386 6.38123C39.5332 6.81257 39.787 7.27153 40.0513 7.7055C39.2347 8.28675 38.4667 8.85354 37.679 9.38877C36.9991 9.85035 36.9517 9.81879 36.8044 9.02976C36.7939 8.97584 36.74 8.92981 36.648 8.79305C36.598 8.96795 36.5559 9.06526 36.5441 9.16652C36.5204 9.37167 36.5704 9.60312 36.4901 9.77934C36.1982 10.4277 36.1824 10.4211 36.8531 10.6683C36.4928 10.9274 36.2508 10.9142 35.9326 10.6078C35.6722 10.358 35.5446 10.0779 35.7603 9.732C35.7945 9.67676 35.8471 9.62942 35.8721 9.57156C35.9497 9.39008 36.0194 9.20466 36.0917 9.02187C35.8865 8.99162 35.6801 8.96137 35.4486 8.9285V8.43667C35.8997 8.46954 36.3258 8.49979 36.8623 8.53793C36.7334 7.78045 36.6046 7.02561 36.4744 6.27077C36.4389 6.2734 36.402 6.27734 36.3665 6.27998C36.2258 6.76918 36.0983 7.26101 35.9418 7.74495C35.7761 8.25519 35.7642 8.25124 35.1817 8.16839C35.2027 8.2828 35.2185 8.38538 35.2395 8.48664C35.3276 8.9022 35.3 9.22044 34.753 9.26384C34.5794 9.27699 34.4268 9.46899 34.2493 9.53605C34.123 9.5834 33.9455 9.60312 33.8337 9.54789C33.7535 9.50844 33.672 9.27173 33.7154 9.21386C34.1493 8.62077 33.9008 7.91853 34.0533 7.28468C34.0889 7.14002 34.1704 7.0072 34.2493 6.82572C33.7811 6.70211 33.3301 6.58244 32.8777 6.46408C32.8922 6.3786 32.9066 6.29313 32.9211 6.20765L32.9237 6.20896Z" fill="white"/>
<path d="M17.3416 24.0516C17.9689 24.0516 18.5949 24.0516 19.2222 24.0516C19.6377 24.0516 20.0546 24.0398 20.4688 24.0582C20.574 24.0635 20.674 24.1687 20.7766 24.2265C20.6714 24.3068 20.5714 24.4462 20.4609 24.4541C20.0927 24.483 19.7219 24.4646 19.28 24.4646C19.2669 24.7513 19.2485 24.984 19.2471 25.2155C19.2419 26.2215 19.2577 27.2288 19.2366 28.2348C19.2156 29.2356 18.7448 29.901 17.7927 30.1956C16.2817 30.6624 14.7668 30.6072 13.2847 30.0562C12.3668 29.7156 11.8934 29.0528 11.9144 28.0428C11.9354 27.0368 11.9026 26.0295 11.9236 25.0235C11.9328 24.5948 11.7724 24.4264 11.3489 24.4606C11.1109 24.4804 10.8676 24.4646 10.6283 24.4396C10.5665 24.433 10.4573 24.3133 10.4692 24.2778C10.4968 24.1937 10.573 24.1135 10.6506 24.0608C10.6953 24.0293 10.7782 24.0503 10.8426 24.0503C12.1998 24.0503 13.5556 24.0451 14.9127 24.0608C15.0521 24.0622 15.1902 24.1871 15.3283 24.2542C15.1889 24.3252 15.0508 24.3988 14.9088 24.4633C14.872 24.4804 14.822 24.4672 14.7786 24.4672C13.6582 24.4764 13.7594 24.3147 13.7555 25.5508C13.7528 26.4043 13.7436 27.2577 13.7568 28.1112C13.7752 29.254 14.2079 29.7945 15.3427 29.8773C16.0923 29.9313 16.8761 29.8813 17.606 29.713C18.4621 29.517 18.8132 28.9463 18.8237 28.0718C18.8355 27.0658 18.8066 26.0584 18.8369 25.0524C18.8513 24.5777 18.6606 24.4291 18.2227 24.4672C18.0057 24.4856 17.7822 24.483 17.5678 24.4501C17.4679 24.4343 17.3837 24.3252 17.2917 24.2581C17.3074 24.1897 17.3245 24.1213 17.3403 24.0516H17.3416Z" fill="white"/>
<path d="M81.3954 24.6171C82.1647 25.4338 82.9353 26.2504 83.7573 27.121C84.5318 26.253 85.263 25.4324 85.9955 24.6105C85.9823 24.5606 85.9692 24.5119 85.9547 24.4619C85.6404 24.4619 85.3248 24.4777 85.0131 24.4527C84.9092 24.4448 84.8146 24.3304 84.7159 24.2634C84.808 24.1923 84.8987 24.0622 84.9921 24.0608C85.91 24.0437 86.8292 24.0437 87.7471 24.0582C87.8352 24.0595 87.9207 24.195 88.0075 24.2673C87.9312 24.3304 87.8602 24.4041 87.7748 24.4501C87.7222 24.4777 87.6432 24.4764 87.5814 24.4646C86.8029 24.3173 86.3321 24.7302 85.8955 25.3075C85.3813 25.9861 84.8119 26.6252 84.2399 27.2564C83.9545 27.5707 83.8256 27.9008 83.8546 28.3216C83.8809 28.7135 83.8717 29.1093 83.8572 29.5025C83.844 29.8379 83.9769 29.976 84.3188 29.9668C84.6699 29.9562 85.0223 29.9917 85.3774 30.1062C84.8843 30.3981 84.349 30.2824 83.8348 30.3008C83.2667 30.3205 82.6973 30.31 82.1292 30.3021C81.6006 30.2942 81.0653 30.3415 80.5406 30.2679C80.5367 30.189 80.5327 30.1114 80.5288 30.0325C80.7997 30.0088 81.0706 29.9707 81.3415 29.9654C82.0543 29.951 81.9938 29.9497 82.0753 29.2303C82.2042 28.0994 81.8938 27.2012 81.0219 26.445C80.5143 26.0045 80.0909 25.4601 79.6674 24.9314C79.3768 24.5685 79.0415 24.4251 78.5891 24.4646C78.3077 24.4896 78.0197 24.4738 77.7382 24.4462C77.662 24.4383 77.5975 24.3173 77.5278 24.2489C77.6002 24.1845 77.6646 24.0898 77.7488 24.0622C77.8474 24.0293 77.9644 24.053 78.0736 24.053C79.4294 24.053 80.7865 24.053 82.1424 24.053C82.2515 24.053 82.3672 24.0332 82.4685 24.0622C82.5592 24.0871 82.6355 24.1674 82.717 24.2226C82.6368 24.3028 82.5619 24.4462 82.4751 24.4527C82.1371 24.479 81.7965 24.4632 81.4572 24.4632C81.4375 24.5145 81.4165 24.5671 81.3967 24.6184L81.3954 24.6171Z" fill="white"/>
<path d="M55.4875 21.4873C55.1206 20.7259 54.7826 19.9487 54.3644 19.2162C54.2566 19.0281 53.9029 18.9111 53.6504 18.8887C52.7588 18.8111 51.8474 18.8743 50.9729 18.7178C50.2391 18.5863 49.5316 18.2562 48.8451 17.9406C48.5953 17.8262 48.4441 17.4987 48.2481 17.2673L48.2573 17.2791C48.2231 17.1318 48.1889 16.9845 48.1469 16.8031C48.5571 16.7005 48.8307 16.9424 49.1095 17.1226C49.4172 17.3212 49.7091 17.3896 50.0931 17.3422C50.4863 17.2936 50.9019 17.4251 51.3451 17.4829C51.4674 17.3804 51.6239 17.2291 51.8014 17.1068C52.096 16.903 52.3485 16.8228 52.7456 17.0319C53.1164 17.2291 53.6372 17.2778 54.0607 17.2068C54.4946 17.1344 54.7405 17.2344 54.9194 17.5829C55.1995 18.1273 55.4586 18.6823 55.7268 19.2333C56.0622 19.925 56.3975 20.6167 56.7513 21.3492C56.8644 21.29 56.9656 21.2558 57.0432 21.1914C57.3812 20.9073 57.6481 21.0323 57.8756 21.3361C58.0058 21.5096 58.1439 21.6872 58.2281 21.8844C58.3359 22.1369 58.2281 22.296 57.9453 22.3447C57.702 22.3868 57.4561 22.5288 57.226 22.5012C56.9498 22.4683 56.575 22.3789 56.4462 22.1803C56.1963 21.7976 55.8794 21.5964 55.4743 21.4728L55.4888 21.4873H55.4875Z" fill="white"/>
<path d="M41.778 9.40323C41.5018 9.43611 41.2243 9.46899 40.8969 9.50844C40.5694 8.67469 40.4761 7.78703 40.4037 6.90331C40.3906 6.74156 40.6168 6.54693 40.7588 6.39044C40.9719 6.15505 41.2086 5.93938 41.5084 5.64349C41.1731 5.5396 40.9561 5.47122 40.6825 5.38705C40.8272 5.07276 40.9363 4.76503 41.1086 4.49545C41.1862 4.37315 41.3887 4.25874 41.5321 4.26005C42.3395 4.26794 43.147 4.30213 43.9531 4.34553C44.3936 4.3692 44.5041 4.63616 44.3792 5.02936C44.1227 5.83812 43.9268 6.67581 43.3232 7.32545L42.8787 8.17497C42.496 8.52478 42.112 8.87327 41.7359 9.23096C41.7149 9.25069 41.7635 9.34406 41.7793 9.40192L41.778 9.40323Z" fill="white"/>
<path d="M58.9264 15.3749C58.3057 15.154 57.8901 14.3413 56.9301 14.649C57.7428 14.8936 58.4319 15.1014 58.8054 15.9825C58.1294 15.6945 57.5876 15.2039 56.9143 15.6327C57.0327 15.7734 57.151 15.9128 57.2917 16.0798C55.4743 16.085 54.5196 15.6353 54.1093 14.0243C53.962 13.447 53.7293 12.967 52.9599 13.0538C52.7351 13.0788 52.4786 12.8329 52.2064 12.6948C52.9402 12.032 54.4512 12.0347 55.1692 12.6343C55.3533 12.7882 55.5217 12.9618 55.715 13.1038C56.2686 13.5102 56.867 13.6798 57.564 13.5128C58.2346 13.3523 58.5384 13.618 58.6068 14.3018C58.6226 14.4649 58.7265 14.6214 58.7962 14.7766C58.8672 14.933 58.9474 15.0856 59.0237 15.2395L58.925 15.3736L58.9264 15.3749ZM55.5914 13.7903C55.5559 13.86 55.5204 13.931 55.4849 14.0007C55.761 14.1269 56.0424 14.3663 56.3133 14.3544C56.8459 14.3307 57.3706 14.1677 57.9769 14.0467C57.1458 13.7824 56.3028 14.4978 55.5914 13.7903Z" fill="white"/>
<path d="M37.2713 2.85031C36.5953 2.42029 35.9194 1.99158 35.1935 1.53C35.7274 0.963209 36.3915 0.827759 37.0438 0.740965C38.7244 0.520036 40.2906 0.96847 41.8069 1.64835C42.0936 1.77723 42.1436 1.96002 41.9923 2.22172C41.8832 2.40977 41.778 2.60045 41.6688 2.78851C41.5399 3.01338 41.3611 3.06861 41.1165 2.96998C40.8943 2.88056 40.6654 2.80166 40.434 2.74379C40 2.63596 39.62 2.67015 39.1952 2.9279C38.8336 3.14752 38.3338 3.137 37.8946 3.22774L37.2713 2.85163V2.85031Z" fill="white"/>
<path d="M44.3937 6.72841L44.5252 6.59953C44.8855 6.35099 45.2445 6.10244 45.6128 5.84732C45.6312 5.95384 45.664 6.15636 45.7022 6.38123C45.7614 6.22343 45.8179 6.07614 45.9218 5.79735C46.1427 6.13137 46.3005 6.36677 46.4965 6.66134C46.2058 6.76654 45.9928 6.84282 45.7561 6.9283V7.70681C46.1874 7.38988 46.5109 7.62659 46.8476 7.8199C48.8754 8.98504 50.9045 10.1462 52.931 11.3127C53.1046 11.4126 53.2611 11.5415 53.4255 11.6559C53.3887 11.7204 53.3519 11.7848 53.3137 11.8492C50.7204 10.55 48.1258 9.24937 45.5325 7.95009C45.5168 7.97377 45.501 7.99744 45.4852 8.02111C45.5904 8.16839 45.7666 8.30779 45.7837 8.46428C45.8021 8.63918 45.7009 8.84302 45.6075 9.01003C45.5049 9.19151 45.3511 9.34537 45.2077 9.52422C44.537 8.5616 44.5357 8.53135 45.1314 7.68182C44.8895 7.57136 44.3858 7.93694 44.4739 7.16632C44.2477 7.54769 44.1438 7.89486 43.7493 7.6713C43.677 7.15449 44.0439 6.94539 44.3937 6.72578V6.72841Z" fill="white"/>
<path d="M42.8788 8.17628C43.0274 7.89354 43.176 7.6108 43.3233 7.32675C43.6152 7.93431 43.7309 8.55896 43.4653 9.22175C43.5087 9.22701 43.5521 9.23227 43.5955 9.23884C43.6639 8.94032 43.7493 8.64444 43.7967 8.34329C43.8493 8.00138 44.0189 7.83831 44.4016 7.87776C44.4279 8.01716 44.47 8.1605 44.4792 8.30515C44.5173 8.92191 44.7067 9.47687 45.0933 9.9687C45.1735 10.0713 45.1683 10.2422 45.2025 10.3816L45.1998 10.3869C45.0328 10.5473 44.804 10.6775 44.7093 10.8721C44.4674 11.3666 44.157 11.6888 43.5613 11.6467C43.3995 11.6349 43.2312 11.7125 42.9511 11.773C43.0011 11.3535 42.9695 10.9655 43.1076 10.6512C43.2312 10.3698 43.5402 10.1699 43.8335 9.86612C42.4799 10.2633 41.7781 10.6819 41.7281 11.122C41.9582 10.9826 42.1699 10.855 42.3291 10.759C42.4737 10.9326 42.5987 11.0628 42.6999 11.2101C42.7657 11.3061 42.7959 11.4271 42.8419 11.5376C42.7262 11.556 42.6065 11.602 42.4961 11.5862C42.3527 11.5652 42.2107 11.4389 42.0805 11.456C41.8215 11.4902 41.5506 11.6125 41.4217 11.2706C41.2915 10.9274 41.5045 10.3448 41.8057 10.1791C41.9753 10.0857 42.1555 10.0121 42.408 9.89374C42.2383 9.8293 42.1397 9.79117 42.0213 9.74514C42.2922 9.31643 42.5579 8.8943 42.8248 8.47217C42.8433 8.37222 42.8617 8.27228 42.8801 8.17233L42.8788 8.17628Z" fill="white"/>
<path d="M47.4499 2.18884C46.9094 2.81612 46.9041 2.81481 46.1624 2.02051C46.0217 2.15465 45.9007 2.34665 45.7337 2.40319C45.6022 2.44791 45.401 2.35191 45.2537 2.27563C44.7829 2.03235 44.3227 1.76934 43.8322 1.49843C44.3463 1.20518 44.9578 1.21438 45.5772 1.27093C46.0073 1.31038 46.4439 1.31564 46.8673 1.39455C47.1579 1.44846 47.442 1.57471 47.7063 1.7141C47.9128 1.82325 48.0824 1.99947 48.3336 2.19673C48.3888 1.94424 48.4296 1.75487 48.4796 1.52342C48.907 1.68517 49.3159 1.87717 49.2831 2.35585C49.266 2.6044 49.02 2.95552 48.7925 3.04889C48.0561 3.3474 47.8773 2.59256 47.4512 2.19015L47.4499 2.18884Z" fill="white"/>
<path d="M45.1998 10.3882L45.2025 10.383C45.3484 10.1186 45.5273 9.86745 45.6325 9.58734C45.8574 8.99425 46.0651 8.91666 46.7332 9.28225C46.5333 9.37693 46.3597 9.45978 46.1414 9.56367C46.4057 9.65572 46.6096 9.72674 46.9738 9.8543C46.4649 10.3908 46.0441 10.834 45.5944 11.3087C45.7956 11.3245 45.9783 11.339 46.2769 11.3627C45.7916 12.036 45.8179 12.9894 44.825 13.1945L44.8408 13.2064C44.3556 12.8566 44.3464 12.8158 44.6475 12.3582C44.7014 12.2766 44.8079 12.1609 44.7843 12.1083C44.566 11.627 44.8014 11.3009 45.1617 11.0589C45.5089 10.8248 45.0394 10.5986 45.1998 10.3869V10.3882Z" fill="white"/>
<path d="M91.9999 22.9444C91.9946 23.7847 91.395 24.383 90.5586 24.3791C89.7104 24.3751 89.041 23.7202 89.0489 22.901C89.0581 22.0685 89.7156 21.4307 90.5652 21.4294C91.4239 21.4294 92.0051 22.0422 91.9999 22.9444ZM91.3003 23.6966C91.796 23.0969 91.7987 22.5393 91.3516 22.0817C90.961 21.6819 90.3403 21.624 89.9155 21.9475C89.475 22.2829 89.3329 23.0127 89.6157 23.4927C89.9063 23.9872 90.4073 24.1226 91.0622 23.8491C90.8426 23.5822 90.6335 23.3297 90.3889 23.0325C90.2929 23.3191 90.2324 23.4993 90.1706 23.6808C90.1141 23.6729 90.0589 23.665 90.0023 23.6558C90.0023 23.21 89.997 22.7655 90.0076 22.3197C90.0089 22.2434 90.0773 22.1014 90.1115 22.1027C90.4244 22.1093 90.7729 22.0646 91.0399 22.1882C91.3042 22.3105 91.2805 22.6222 91.0964 22.8707C91.0373 22.9509 90.9833 23.0364 90.9321 23.1127C91.0609 23.3165 91.1648 23.4822 91.3016 23.6979L91.3003 23.6966ZM90.8979 22.6524C90.8873 22.5643 90.8781 22.4762 90.8676 22.3881C90.6848 22.4157 90.5007 22.4433 90.3192 22.4788C90.3166 22.4788 90.3324 22.6432 90.3455 22.6445C90.5296 22.6564 90.7138 22.6524 90.8979 22.6524Z" fill="white"/>
<path d="M55.473 21.4728C55.5966 21.8029 55.8833 22.1146 55.5348 22.5459C55.4085 22.4749 55.2179 22.4289 55.1429 22.3118C54.9982 22.083 54.847 21.9594 54.5682 22.0251C54.5143 22.0383 54.417 22.008 54.3894 21.966C54.0738 21.4807 53.4044 21.2624 53.3886 20.5378C53.3781 20.0683 53.24 19.6015 53.1598 19.1386C53.8739 18.9124 54.1342 19.0084 54.2789 19.6659C54.4499 20.4444 54.8483 21.0362 55.4874 21.4873L55.473 21.4728Z" fill="white"/>
<path d="M43.3718 13.1564C43.7756 13.5628 43.6335 13.9586 43.3626 14.3663C42.9905 14.9265 42.6433 15.5025 42.2633 16.0561C42.2015 16.1468 41.9818 16.2323 41.9095 16.1916C41.7622 16.1074 41.6307 15.9496 41.5623 15.7918C41.5202 15.6958 41.6149 15.5445 41.6399 15.417C41.7044 15.079 41.9161 14.7305 41.5387 14.4254C41.4926 14.3886 41.5544 14.219 41.5663 14.1111L41.5518 14.1243C41.728 14.1506 41.9042 14.1769 42.1278 14.2111C42.2028 13.8678 42.2764 13.5299 42.3501 13.1906L42.3395 13.2051C42.6446 13.1577 42.9484 13.1104 43.2535 13.063C43.2929 13.0933 43.3324 13.1235 43.3718 13.1538V13.1564Z" fill="white"/>
<path d="M40.1211 35.6268C40.1737 36.0844 40.2276 36.5407 40.2841 37.0312H39.6648C39.9251 36.3948 39.9883 35.7846 39.6108 35.1757C40.7181 34.6273 41.1823 35.6123 41.8819 36.2133C41.953 35.7491 42.0411 35.3979 41.4979 35.2362C41.5216 35.1941 41.5466 35.152 41.5703 35.1099C41.8648 35.0942 42.1594 35.0784 42.454 35.0626C42.0266 35.5663 42.2646 36.1081 42.1936 36.5946C42.1699 36.7551 42.0989 36.9089 42.0503 37.0654C41.8819 36.9931 41.6768 36.9602 41.5505 36.8419C41.1139 36.4303 40.705 35.991 40.2855 35.561C40.2302 35.5834 40.1763 35.6044 40.1211 35.6268Z" fill="white"/>
<path d="M42.2369 16.4861H43.5954C43.602 16.4572 43.6085 16.4269 43.6151 16.398C43.2377 16.3309 42.8616 16.2652 42.4723 16.1968C42.4894 15.7286 42.7183 15.4985 43.1299 15.5419C43.577 15.5893 44.028 15.6721 44.4541 15.8102C45.0604 16.0074 45.6443 16.2705 46.3123 16.5348C44.9604 16.636 43.6782 17.2541 42.2369 16.4861Z" fill="white"/>
<path d="M45.3853 37.1141C45.6601 36.3593 45.7285 35.7504 45.2524 35.0258C45.9402 35.0718 46.5241 35.0587 47.0856 35.1652C47.5091 35.2454 47.8207 35.5544 47.851 36.0371C47.8773 36.4539 47.5893 36.8629 47.0804 36.9681C46.5557 37.076 46.006 37.0668 45.3853 37.1141ZM46.2861 36.7774C47.0725 36.7288 47.3973 36.2843 47.1001 35.7149C47.0133 35.5492 46.7332 35.4834 46.5412 35.3716C46.4557 35.5189 46.3163 35.661 46.2966 35.8161C46.2585 36.1304 46.2848 36.4539 46.2848 36.7774H46.2861Z" fill="white"/>
<path d="M37.2713 2.85031C37.4791 2.97524 37.6869 3.10148 37.8946 3.22641C38.7968 3.73271 39.6976 4.23901 40.6457 4.77029C40.3235 5.12667 40.1079 4.8676 39.9159 4.76634C38.1616 3.84054 36.4152 2.90291 34.6662 1.9679C34.436 1.84429 34.1901 1.74172 33.9784 1.59311C33.8035 1.47081 33.668 1.29328 33.5155 1.13942C33.7246 1.17098 33.96 1.15126 34.1388 1.24199C34.9147 1.63914 35.6709 2.07311 36.4415 2.48209C36.7085 2.62412 36.9965 2.72801 37.2739 2.85031H37.2713Z" fill="white"/>
<path d="M58.6542 36.2172C58.7936 35.7293 58.7804 35.394 58.3819 35.1178H59.142C59.071 35.7701 59.0026 36.4066 58.9224 37.1483C58.1084 36.784 57.727 36.0121 57.0169 35.5544C56.9433 36.062 56.8473 36.5289 57.18 37.0273H56.4685C56.7394 36.5079 56.8078 35.6425 56.3831 35.1652C57.4877 34.6602 57.9795 35.5676 58.6542 36.2185V36.2172Z" fill="white"/>
<path d="M44.0662 3.62882C43.4692 3.07386 42.692 3.23693 41.903 3.16066C42.091 2.80296 42.2436 2.51891 42.3448 2.20724C42.4553 1.87059 43.222 1.77853 43.7282 1.96001C44.2188 2.13623 44.5199 2.48735 44.4318 2.91211C44.3805 3.15671 44.6633 3.65117 44.0544 3.61566L44.0662 3.62882Z" fill="white"/>
<path d="M36.4757 10.2107C37.8723 9.7846 38.7784 8.4485 40.3052 8.14867C40.2197 9.05869 40.1395 8.99162 39.5345 9.25594C39.0953 9.44794 38.7928 9.9332 38.2287 10.0003C38.0932 10.016 37.9985 10.4158 37.867 10.4277C37.4173 10.4671 36.9583 10.4119 36.5033 10.3935C36.4941 10.333 36.4849 10.2725 36.4757 10.2107Z" fill="white"/>
<path d="M52.1117 34.9837C52.8521 34.9706 53.5175 35.4913 53.5123 36.0805C53.507 36.6302 52.8469 37.122 52.1262 37.1115C52.1039 37.1115 52.0828 37.1101 52.0605 37.1088C51.3556 37.0668 50.773 36.5657 50.7993 36.0226C50.8269 35.4584 51.4095 34.9969 52.1104 34.985L52.1117 34.9837ZM51.5555 36.087C51.5607 36.6131 51.737 36.8248 52.1657 36.8221C52.5746 36.8195 52.8048 36.5591 52.81 36.0897C52.8166 35.5834 52.576 35.2796 52.1683 35.277C51.7383 35.2743 51.5502 35.5242 51.5555 36.0857V36.087Z" fill="white"/>
<path d="M35.4144 37.1102C34.7122 37.1207 34.0678 36.6078 34.0796 36.045C34.0915 35.4782 34.6596 35.0061 35.3552 34.985C36.0982 34.9627 36.7295 35.4729 36.7176 36.0897C36.7071 36.6446 36.1259 37.0996 35.4144 37.1115V37.1102ZM36.0364 36.0634C36.0391 35.4992 35.8536 35.2704 35.396 35.277C34.9765 35.2835 34.8016 35.5045 34.7937 36.0358C34.7858 36.5881 34.9883 36.8379 35.4355 36.8235C35.8602 36.809 36.0338 36.5907 36.0364 36.0634Z" fill="white"/>
<path d="M45.1775 13.9717L45.1709 13.9809C45.0091 14.24 44.8421 14.4964 44.6856 14.7581C44.1977 15.58 43.9939 15.6274 43.0852 15.0751C43.5139 14.4964 43.9282 13.9126 44.3766 13.355C44.4621 13.2498 44.6817 13.2537 44.8408 13.2064L44.825 13.1945C45.0657 13.3971 45.3392 13.5851 45.1775 13.9704V13.9717Z" fill="white"/>
<path d="M56.4409 6.92698C57.2497 6.81388 57.9269 6.91251 58.3951 7.60423C58.6423 7.96982 58.9777 8.16576 59.4248 8.2131C59.8522 8.25781 60.2151 8.43008 60.3848 8.96794C58.9001 8.58 57.4483 8.27754 56.4409 6.92698Z" fill="white"/>
<path d="M28.9536 37.0957C29.331 36.425 29.2903 35.6228 28.8602 35.131H30.2187C29.8544 35.6031 29.8321 35.7648 29.9688 36.7616C30.5251 36.9536 30.8775 36.6854 31.1261 36.1567C31.393 36.9602 31.3194 37.0825 30.6053 37.093C30.0845 37.1009 29.5651 37.0944 28.9549 37.0944L28.9536 37.0957Z" fill="white"/>
<path d="M34.991 4.53621C35.6261 4.41785 36.2653 4.31396 36.8952 4.17457C37.1674 4.11407 37.4133 4.55462 37.6803 4.19298C37.796 4.30344 37.9617 4.39418 38.013 4.52832C38.0787 4.69927 38.0498 4.90705 38.0656 5.15428C37.5803 5.05697 37.0569 5.16743 36.9478 4.51648C36.9175 4.66508 36.8873 4.81368 36.857 4.96229C36.6479 4.86629 36.4402 4.77029 36.2508 4.68349C36.2376 4.72295 36.2284 4.93993 36.1364 4.98333C35.9589 5.06749 35.6945 5.13587 35.5407 5.0596C35.325 4.95308 35.1777 4.70848 35.0015 4.52437L34.991 4.53621Z" fill="white"/>
<path d="M43.3719 13.1564C43.3324 13.1262 43.293 13.0959 43.2535 13.0657C42.9931 12.9328 42.7315 12.8 42.4711 12.6672L42.4829 12.6817C42.4882 12.4016 42.5473 12.1885 42.884 12.1109C43.1523 12.0491 43.3929 11.8466 43.6612 11.8019C43.8427 11.7716 44.082 11.8676 44.2346 11.9847C44.299 12.0347 44.2004 12.2832 44.1938 12.4436C44.1846 12.6817 44.1912 12.921 44.1912 13.2024C43.9295 13.4286 43.6507 13.234 43.3719 13.1564Z" fill="white"/>
<path d="M41.3072 16.2047C41.2336 16.3572 41.1599 16.5098 41.0981 16.6374C40.3117 16.4256 39.5437 16.2192 38.7744 16.0127C38.7784 15.9706 38.7823 15.9299 38.7862 15.8878H40.5721C40.935 15.5603 40.9798 15.0369 41.5518 14.8686C41.4571 15.3618 41.3756 15.7891 41.2941 16.2165L41.3085 16.2034L41.3072 16.2047Z" fill="white"/>
<path d="M51.4266 12.4266C51.1649 12.2845 50.9177 12.0715 50.6389 12.0136C49.4698 11.773 48.2915 11.577 47.1158 11.3706C46.916 11.3351 46.7121 11.3258 46.5096 11.3048L46.4846 11.1694C46.5714 11.1036 46.6608 10.9787 46.7463 10.9826C48.3283 11.0379 49.863 11.3048 51.2727 12.0715C51.3674 12.1228 51.6883 12.1741 51.4134 12.416L51.4279 12.4252L51.4266 12.4266Z" fill="white"/>
<path d="M39.9054 10.3382C40.0711 10.0739 40.2118 9.84509 40.3538 9.61758C41.2573 10.1699 41.4098 10.4816 41.16 11.2956C40.9246 11.072 40.3052 11.3679 40.4814 10.6525C40.4919 10.6078 40.1789 10.4842 39.9054 10.3382Z" fill="white"/>
<path d="M39.6331 5.60403C39.3346 5.942 39.0992 5.86441 38.7757 5.57773C38.4364 5.27527 38.0998 5.03855 38.3588 4.4744C38.6731 4.70848 39.3175 4.56777 39.1255 5.31472C39.2715 5.25422 39.3898 5.20688 39.5069 5.15822C39.5424 5.3134 39.5779 5.46726 39.6134 5.62244L39.6318 5.60403H39.6331Z" fill="white"/>
<path d="M40.2038 9.34275C39.9908 9.81222 39.8475 10.1686 39.666 10.5026C39.6081 10.6105 39.4411 10.7301 39.332 10.7236C39.0427 10.7065 38.7573 10.6236 38.4601 10.4356C39.0111 10.0897 39.5608 9.74384 40.2025 9.34143L40.2038 9.34275Z" fill="white"/>
<path d="M31.8191 0.0347748C32.1886 0.113678 32.5674 0.167595 32.9264 0.28069C33.1999 0.366169 33.3722 0.576578 33.238 0.890876C33.1342 1.13548 32.7673 1.18676 32.5003 0.960574C32.2255 0.727809 31.994 0.442442 31.7441 0.180746C31.7691 0.132089 31.7928 0.0834318 31.8178 0.0347748L31.8191 0.0347748Z" fill="white"/>
<path d="M48.2494 17.2673C48.2494 17.529 48.1705 17.738 47.8773 17.5447C47.5643 17.337 47.2921 17.0687 46.9423 16.7781C47.5393 16.6899 47.9009 16.9793 48.2586 17.2804L48.2494 17.2686V17.2673Z" fill="white"/>
<path d="M41.2928 16.2178C41.4558 16.2757 41.6373 16.306 41.778 16.398C41.903 16.4809 41.9806 16.6334 42.0792 16.7544C41.9687 16.8399 41.8425 17.0095 41.7504 16.9924C41.59 16.9622 41.3954 16.8491 41.3191 16.7136C41.2468 16.5821 41.3059 16.377 41.3072 16.2047L41.2928 16.2178Z" fill="white"/>
<path d="M42.8182 3.38422C42.6222 3.95627 42.5091 3.99572 41.8358 3.72087C42.0725 3.30663 42.4197 3.30137 42.8182 3.38422Z" fill="white"/>
<path d="M40.0789 7.27415C39.7791 6.79459 39.8334 6.38693 40.242 6.05115C40.3801 6.52325 40.1473 6.89278 40.0789 7.27415Z" fill="white"/>
<path d="M52.7771 16.7768C53.3426 16.5072 53.4491 16.5414 53.8581 17.0937C53.3847 17.2962 53.1059 16.9411 52.7771 16.7768Z" fill="white"/>
<path d="M45.9849 7.23997C46.4859 6.7968 46.6542 6.85334 47.125 7.65553C46.6818 7.49378 46.3531 7.37411 45.9849 7.23997Z" fill="white"/>
<path d="M35.0016 4.52438C34.5729 4.51649 34.2612 4.29556 33.9417 3.97469C34.7859 3.94444 34.8109 3.95891 34.9911 4.53622L35.0016 4.52438Z" fill="white"/>
<path d="M44.0544 3.61568C43.9519 3.72877 43.8611 3.92209 43.7454 3.93918C43.5008 3.97469 43.243 3.91683 42.9419 3.89315C43.1418 3.66697 43.5166 3.57886 44.0663 3.62883L44.0544 3.61568Z" fill="white"/>
<path d="M39.6331 5.60404L39.6147 5.62245C39.9698 5.5567 40.1552 5.63692 39.9106 6.01039C39.8185 6.1511 39.6647 6.25105 39.5397 6.3694C39.4924 6.33653 39.445 6.30496 39.3977 6.27209C39.4766 6.04984 39.5542 5.82628 39.6331 5.60404Z" fill="white"/>
<path d="M33.8969 4.15222C34.2335 4.42575 34.482 4.62696 34.7635 4.85578C34.1717 5.00569 34.0349 4.90312 33.8969 4.15222Z" fill="white"/>
<path d="M36.5178 7.30966V8.17891C36.0641 7.89881 36.0588 7.80018 36.5178 7.30966Z" fill="white"/>
</g>
<defs>
<clipPath id="clip0_1278_497">
<rect width="92" height="37.1135" fill="white" transform="translate(0 0.0347748)"/>
</clipPath>
</defs>
</svg>
