<svg width="92" height="35" viewBox="0 0 92 35" fill="none" xmlns="http://www.w3.org/2000/svg">
<g clip-path="url(#clip0_1278_555)">
<path d="M31.7932 11.568C31.9871 11.8021 32.0624 12.0674 32.0871 12.3481C32.1288 12.8189 32.0442 13.2715 31.8652 13.7066C31.7377 14.017 31.5196 14.256 31.2037 14.3631C30.7736 14.5087 30.3369 14.6416 29.8936 14.7372C28.5647 15.0245 27.2551 15.3772 25.9652 15.8057C25.8592 15.8408 25.7515 15.8716 25.6428 15.8963C25.0154 16.0408 24.6397 16.422 24.4556 17.045C23.8783 18.9984 23.202 20.9195 22.4868 22.8268C21.6364 25.0928 20.7053 27.3265 19.7549 29.5519C19.1869 30.8813 18.5936 32.1997 18.0195 33.5263C17.9141 33.7708 17.7558 33.9614 17.5498 34.1191C17.1076 34.4564 16.6083 34.6267 16.0518 34.5849C15.7106 34.5591 15.3695 34.5108 15.0328 34.4492C14.8877 34.4229 14.7433 34.3531 14.6164 34.2746C14.3038 34.0817 14.1912 33.7681 14.3329 33.4291C14.5697 32.8622 14.8136 32.2969 15.0811 31.7437C15.9776 29.8881 16.9082 28.0489 17.7828 26.1838C18.8304 23.9497 19.8351 21.6946 20.6366 19.3566C20.7454 19.0396 20.847 18.7199 20.9519 18.4013C20.9596 18.3788 20.9646 18.3552 20.9717 18.3321C21.0233 18.1645 21.0503 17.9937 20.897 17.8679C20.7399 17.7388 20.5888 17.8289 20.4306 17.9009C19.667 18.2475 18.9007 18.587 18.1327 18.9237C17.9207 19.0166 17.7048 19.1028 17.485 19.1742C16.9066 19.3621 16.6088 19.1852 16.5204 18.587C16.455 18.1475 16.4913 17.7097 16.6412 17.2872C16.7527 16.9741 16.9615 16.7505 17.2851 16.661C18.593 16.299 19.7939 15.6711 21.0365 15.1487C21.2425 15.0619 21.4436 14.9624 21.6518 14.8811C21.7891 14.8273 21.866 14.7427 21.9127 14.5999C22.4934 12.8315 23.0477 11.056 23.5014 9.25036C23.7508 8.25825 23.9607 7.25845 24.0502 6.23667C24.0936 5.74226 24.1189 5.2484 24.0337 4.75509C23.8755 3.8333 23.3503 3.3724 22.4143 3.34054C21.9314 3.32406 21.4595 3.40536 20.9893 3.50534C19.7143 3.77726 18.5178 4.26069 17.3625 4.85562C15.7744 5.67304 14.2835 6.64813 12.8387 7.69188C11.6472 8.5527 10.4474 9.40637 9.30751 10.332C8.21103 11.2225 7.18376 12.1987 6.13122 13.1425C5.16163 14.0115 4.19808 14.8877 3.23069 15.7595C2.78188 16.1638 2.2644 16.2556 1.7167 16.0216C0.981682 15.7079 0.456511 15.158 0.112074 14.4433C-0.0774494 14.05 -0.0192192 13.655 0.232929 13.3089C0.410366 13.0655 0.609778 12.8293 0.836107 12.631C1.42445 12.1152 2.03367 11.6224 2.63355 11.1192C4.55351 9.50855 6.61189 8.09125 8.73125 6.75964C10.7561 5.48737 12.8453 4.3321 15.0168 3.32955C16.6577 2.57201 18.3321 1.89961 20.0834 1.43926C21.1447 1.1602 22.2182 0.951447 23.324 0.986056C23.8546 1.00254 24.3787 1.0723 24.8616 1.30577C25.6702 1.69636 26.1712 2.35886 26.4596 3.19167C26.6865 3.84758 26.753 4.53041 26.7629 5.22094C26.7793 6.3762 26.659 7.52103 26.4437 8.65158C26.1872 10.0002 25.8817 11.3401 25.6005 12.6838C25.5779 12.7914 25.562 12.9062 25.5741 13.0145C25.6021 13.265 25.7647 13.377 26.013 13.327C26.1218 13.3051 26.2267 13.2617 26.3333 13.2292C28.0516 12.7046 29.7705 12.18 31.4889 11.6559C31.5872 11.6263 31.6855 11.5983 31.7926 11.5669L31.7932 11.568Z" fill="white"/>
<path d="M39.556 15.5821C39.762 16.2622 39.7927 16.9324 39.4554 17.5812C39.2434 17.9888 38.8973 18.253 38.4716 18.4145C38.0854 18.5612 37.6833 18.6178 37.2729 18.6123C36.522 18.6018 35.7705 18.5936 35.0201 18.5672C34.0301 18.5326 33.0408 18.4815 32.0509 18.4359C31.8514 18.4266 31.6526 18.4002 31.4537 18.3969C31.2356 18.3931 31.0236 18.4365 30.8302 18.5425C30.5407 18.7013 30.4111 19.0051 30.5017 19.3143C30.5599 19.5126 30.6835 19.6335 30.8939 19.689C32.3184 20.0658 33.7643 20.1158 35.2228 19.9845C35.9149 19.9225 36.6071 19.8576 37.2987 19.795C37.3624 19.789 37.4262 19.7868 37.4904 19.7846C37.892 19.7703 38.1464 19.9208 38.2925 20.2949C38.5221 20.8827 38.4298 21.2348 37.9365 21.565C37.6206 21.7759 37.2691 21.9407 36.918 22.0902C36.4923 22.2714 36.0517 22.417 35.6155 22.5736C35.1601 22.7367 34.7355 22.9515 34.3674 23.2701C34.1603 23.4492 33.9878 23.6547 33.8478 23.892C33.594 24.3216 33.9005 24.9506 34.4658 24.9171C34.7338 24.9011 34.9849 24.8341 35.231 24.7374C35.8446 24.4974 36.4099 24.165 36.9532 23.7992C37.9469 23.1301 38.933 22.4489 39.918 21.7666C40.8535 21.1189 41.8264 20.541 42.8927 20.1318C43.5502 19.8796 44.216 19.6505 44.9203 19.5791C45.2032 19.5505 45.496 19.5571 45.7778 19.595C46.1898 19.65 46.4683 19.8873 46.6134 20.2911C46.7073 20.5525 46.8216 20.8124 46.9666 21.0486C47.2654 21.5364 47.6258 21.5628 48.006 21.1316C48.2114 20.8981 48.3916 20.6426 48.5795 20.3943C49.1398 19.6555 49.7117 18.9265 50.3764 18.2766C50.7428 17.9179 51.135 17.591 51.5805 17.3329C51.9222 17.1351 52.2837 16.9912 52.6776 16.9368C53.3708 16.8412 53.9735 17.056 54.5041 17.485C54.7612 17.6927 54.8376 18.0036 54.8755 18.3184C54.9348 18.8155 54.8744 19.3072 54.7887 19.7961C54.6052 20.8442 54.2855 21.8583 54.0256 22.8873C53.8987 23.3899 53.79 23.8975 53.6927 24.4073C53.6543 24.6089 53.657 24.8215 53.6669 25.0275C53.684 25.3796 53.8268 25.534 54.1817 25.5653C54.4107 25.5856 54.6442 25.5642 54.8749 25.556C55.2402 25.5428 55.5495 25.6521 55.7852 25.9438C56.0686 26.2948 56.0456 26.6607 55.7116 26.9617C55.4809 27.1699 55.2045 27.299 54.9051 27.3649C54.2284 27.5144 53.5444 27.5572 52.8599 27.4226C51.7733 27.2089 51.1855 26.542 51.0773 25.434C51.0109 24.7512 51.0878 24.0782 51.1954 23.4069C51.2839 22.8548 51.3855 22.3055 51.4751 21.7534C51.4965 21.6205 51.5102 21.4809 51.4926 21.3485C51.4767 21.2266 51.4349 21.0969 51.3685 20.9942C51.2564 20.8201 51.0872 20.7772 50.9098 20.8865C50.7422 20.9898 50.5736 21.1112 50.4478 21.2601C50.1347 21.632 49.8314 22.0149 49.5491 22.411C48.8074 23.452 48.0774 24.5007 47.3467 25.5488C46.9825 26.0712 46.5354 26.5091 46.0454 26.9139C45.1521 27.6528 43.9688 27.0727 43.6782 26.2421C43.542 25.8532 43.4871 25.4527 43.4827 25.0423C43.4755 24.3968 43.6222 23.7744 43.7579 23.1498C43.8068 22.9235 43.8628 22.6988 43.9084 22.472C43.982 22.1066 43.709 21.849 43.3525 21.9688C43.1355 22.0418 42.9267 22.1539 42.7339 22.2791C42.2582 22.5873 41.7962 22.9175 41.3232 23.23C40.6233 23.6926 39.9037 24.126 39.2203 24.6105C38.3798 25.2066 37.5723 25.8482 36.7417 26.458C36.3819 26.7222 36.0127 26.9788 35.6249 27.1985C34.8212 27.6539 33.9505 27.7583 33.0496 27.588C32.0108 27.3913 31.3197 26.6371 31.1664 25.5856C31.0576 24.8385 31.1889 24.1496 31.6361 23.5399C31.919 23.1542 32.2354 22.7939 32.5392 22.4236C32.5947 22.356 32.6595 22.2956 32.7238 22.2357C32.8293 22.1369 32.9045 22.0253 32.8474 21.8759C32.7914 21.7298 32.6634 21.6902 32.5194 21.6782C31.8245 21.6199 31.1439 21.4848 30.4781 21.2799C29.8628 21.0909 29.2783 20.8377 28.7817 20.4163C28.1741 19.9016 27.911 19.2468 28.0132 18.4552C28.0753 17.9745 28.3104 17.5839 28.6751 17.2691C29.0767 16.9225 29.5513 16.7181 30.0512 16.5649C30.8434 16.3226 31.6592 16.2105 32.4832 16.1842C33.505 16.1518 34.5278 16.1419 35.5507 16.1419C36.8461 16.1419 38.115 15.9732 39.3577 15.6079C39.4033 15.5942 39.4499 15.5837 39.4966 15.5728C39.5038 15.5711 39.512 15.575 39.5571 15.5832L39.556 15.5821Z" fill="white"/>
<path d="M80.1172 15.2618C80.1628 15.7079 80.1238 16.1188 80.0128 16.5215C79.6788 17.7317 78.7785 18.4612 77.5161 18.487C76.7585 18.5024 75.9988 18.4513 75.2413 18.4128C74.5392 18.3771 73.8388 18.3156 73.1373 18.2717C72.9708 18.2612 72.8 18.2596 72.6357 18.2832C72.5044 18.3019 72.3671 18.3436 72.2545 18.4117C71.8057 18.6842 71.8304 19.2973 72.2951 19.5445C72.3649 19.5818 72.4412 19.6115 72.5182 19.6291C74.0283 19.9818 75.5522 20.2564 77.0958 20.4136C77.326 20.4372 77.5595 20.4542 77.7836 20.5064C77.9748 20.5509 78.1725 20.6141 78.3357 20.719C78.7125 20.9612 78.8103 21.393 78.6098 21.794C78.4769 22.0594 78.2659 22.2522 78.0215 22.411C77.6073 22.6801 77.1464 22.8356 76.6684 22.9427C76.2696 23.0323 75.8768 23.1366 75.5126 23.3267C75.1165 23.5333 74.7694 23.7959 74.5496 24.1974C74.4222 24.4309 74.3694 24.6797 74.454 24.9368C74.5694 25.2868 74.8144 25.4944 75.1858 25.5395C75.5187 25.5796 75.8373 25.5142 76.151 25.4076C76.831 25.1763 77.4425 24.8138 78.0248 24.404C79.8118 23.146 81.3395 21.6249 82.6002 19.84C83.0436 19.2121 83.4253 18.548 83.6764 17.8157C83.7269 17.6679 83.7374 17.5262 83.7083 17.3707C83.555 16.5462 83.5231 15.7211 83.7275 14.8987C83.8566 14.3796 84.078 13.9055 84.4345 13.5012C84.6927 13.2084 84.9948 12.9799 85.3777 12.8716C85.5376 12.8266 85.6892 12.8348 85.8463 12.8925C86.5181 13.1386 86.8785 13.6325 86.8879 14.3724C86.8917 14.6823 86.8565 14.9937 86.8263 15.303C86.7983 15.5892 86.7494 15.8727 86.7181 16.1589C86.7044 16.2852 86.7044 16.4143 86.7082 16.5418C86.7154 16.7895 86.8005 17.0065 86.9681 17.195C87.2993 17.5674 87.6861 17.8761 88.0805 18.1761C88.4491 18.4562 88.8199 18.7342 89.1803 19.0254C89.3154 19.1347 89.4363 19.2682 89.5412 19.4072C89.7911 19.7373 89.7983 20.0147 89.5577 20.3526C89.3302 20.6712 89.0737 20.9684 88.8474 21.2876C88.5661 21.6842 88.2914 22.0874 88.0365 22.5011C87.9294 22.6746 87.8662 22.879 87.8058 23.0762C87.5278 23.9771 88.4392 24.5594 89.0836 24.4177C89.4011 24.3479 89.6862 24.2106 89.9614 24.0453C90.1669 23.9217 90.3718 23.798 90.5761 23.6728C90.7948 23.5388 91.0057 23.5454 91.2551 23.7629C91.5128 23.9876 91.5847 24.2826 91.521 24.6116C91.465 24.9017 91.3243 25.1538 91.1304 25.3703C90.2015 26.4096 89.0413 26.8568 87.6547 26.7019C87.051 26.6343 86.4841 26.447 85.9738 26.1141C85.7947 25.9971 85.6211 25.8625 85.4728 25.7087C85.0618 25.2835 84.9322 24.7621 85.0003 24.1837C85.0646 23.636 85.264 23.1317 85.5068 22.6433C85.6952 22.2643 85.9023 21.8951 86.0963 21.5188C86.1803 21.3557 86.2589 21.1892 86.3281 21.0195C86.4215 20.7904 86.3737 20.5778 86.2111 20.396C85.9617 20.1164 85.6365 19.9554 85.2755 19.9027C85.014 19.8648 84.7949 20.0021 84.6454 20.2224C84.3537 20.652 84.0642 21.0826 83.7802 21.5172C83.299 22.2527 82.831 22.996 82.2498 23.6607C81.2269 24.8297 80.0837 25.8542 78.7153 26.6074C77.2947 27.3896 75.7763 27.811 74.1508 27.7852C73.257 27.7709 72.4561 27.4764 71.8205 26.8216C71.353 26.3399 71.1289 25.7592 71.153 25.083C71.1706 24.5951 71.3541 24.1754 71.693 23.8382C71.9633 23.569 72.2666 23.3317 72.567 23.0949C72.7802 22.9273 73.0137 22.7862 73.2362 22.6301C73.301 22.5846 73.3669 22.5362 73.4196 22.4774C73.5399 22.3456 73.5476 22.1929 73.4169 22.0731C73.3268 21.9907 73.207 21.9259 73.0895 21.8902C72.4627 21.7012 71.8282 21.5375 71.2047 21.3386C70.6548 21.1629 70.1346 20.9173 69.6814 20.5487C68.8722 19.8906 68.6343 18.8408 69.0936 17.9415C69.2952 17.5465 69.605 17.2504 69.9703 17.0093C70.518 16.6473 71.1278 16.4369 71.7601 16.2852C72.5407 16.0974 73.335 16.0238 74.1354 15.9985C74.9177 15.9738 75.7016 15.9677 76.4817 15.9155C77.4963 15.848 78.4846 15.6052 79.4772 15.3975C79.6854 15.3541 79.8942 15.3113 80.1183 15.2646L80.1172 15.2618Z" fill="white"/>
<path d="M66.5138 27.861C65.7217 27.8549 64.9142 27.616 64.1857 27.1199C64.0803 27.048 63.9687 26.9848 63.86 26.9178C63.4996 26.6942 63.1376 26.7046 62.7684 26.9013C62.4938 27.0474 62.2169 27.1919 61.9329 27.3182C61.389 27.5594 60.8232 27.7209 60.225 27.7566C58.9033 27.8357 57.8776 27.3204 57.1525 26.2179C56.7037 25.5362 56.4757 24.7715 56.4004 23.9667C56.2285 22.1247 56.6422 20.4108 57.5936 18.8298C58.0963 17.9953 58.7516 17.3026 59.6273 16.8467C60.877 16.1962 62.1218 16.2742 63.3485 16.9076C63.6743 17.0757 63.9418 17.324 64.0319 17.7009C64.0621 17.8278 64.0616 17.9712 64.0385 18.1003C63.9984 18.3282 63.8484 18.481 63.6161 18.4925C63.3875 18.504 63.1546 18.4854 62.9277 18.4529C62.652 18.4139 62.3839 18.3293 62.0982 18.365C61.656 18.4205 61.2731 18.6046 60.9292 18.8787C60.4002 19.3 60.019 19.8384 59.7163 20.4355C59.2241 21.4057 59.0214 22.4379 59.0884 23.5212C59.1164 23.9777 59.2054 24.4232 59.4125 24.839C59.7981 25.6125 60.5222 25.9355 61.3522 25.696C61.9472 25.5241 62.3905 25.145 62.7404 24.6484C63.1019 24.1359 63.3057 23.5596 63.3996 22.9433C63.5589 21.8935 63.7105 20.842 63.872 19.7922C64.0934 18.3541 64.4071 16.9368 64.8015 15.5354C65.6267 12.6063 66.5133 9.69643 67.4851 6.81293C68.041 5.16325 68.6063 3.51632 69.2985 1.91719C69.4633 1.53704 69.6605 1.17063 69.8478 0.800376C69.9566 0.584484 70.1318 0.43781 70.3565 0.349915C70.9399 0.121938 71.531 -0.00660791 72.1572 0.169182C72.7961 0.348817 73.107 0.806968 72.9554 1.45354C72.8576 1.87049 72.7033 2.27756 72.5429 2.67638C71.976 4.08379 71.4019 5.48846 70.819 6.88929C69.9297 9.02897 69.1381 11.2044 68.4376 13.4127C67.8921 15.1327 67.3203 16.8445 66.7858 18.5678C66.3809 19.8724 66.0403 21.1958 65.8656 22.5549C65.7931 23.1185 65.7431 23.6854 65.8442 24.2496C65.8843 24.4748 65.9486 24.7034 66.0447 24.9099C66.2073 25.2604 66.5012 25.4532 66.889 25.4994C67.3005 25.5488 67.6823 25.4538 68.0482 25.2741C68.213 25.1934 68.3734 25.1027 68.542 25.0302C69.1402 24.7737 69.7852 25.1791 69.8297 25.8339C69.85 26.1366 69.7423 26.3992 69.5693 26.637C69.2688 27.0501 68.8579 27.3232 68.3964 27.5209C67.824 27.7665 67.2263 27.895 66.5138 27.8588V27.861Z" fill="white"/>
<path d="M91.9901 15.7112C91.9901 15.7354 91.9879 15.7595 91.9901 15.7832C92.0538 16.316 91.7857 16.6841 91.3814 16.973C90.954 17.2785 90.4816 17.3252 89.9921 17.1527C89.3356 16.9208 88.9462 16.2842 88.9967 15.548C89.0417 14.8905 89.5301 14.3395 90.1943 14.1983C90.8661 14.0549 91.5517 14.3626 91.8769 14.9696C91.9417 15.091 91.9648 15.2388 91.9868 15.3777C92.0038 15.4865 91.9901 15.6002 91.9906 15.7123L91.9901 15.7112ZM91.8445 15.6914C91.8434 14.9542 91.2556 14.367 90.5189 14.367C89.7828 14.367 89.1939 14.9547 89.1928 15.6914C89.1917 16.4468 89.7768 17.0296 90.531 17.0252C91.2715 17.0208 91.8456 16.438 91.8445 15.6914Z" fill="white"/>
<path d="M89.895 14.8669C90.2229 14.8669 90.5091 14.8559 90.7942 14.8707C91.0008 14.8811 91.1601 14.9817 91.2073 15.2047C91.2562 15.436 91.1898 15.5777 90.9673 15.7222C90.9552 15.7299 90.9491 15.7464 90.9277 15.7755C91.2084 15.9364 91.1881 16.2155 91.2007 16.5105C91.1216 16.5165 91.0469 16.522 90.9425 16.5303C90.9349 16.4281 90.9294 16.344 90.9228 16.2605C90.9014 15.9864 90.8063 15.8947 90.5305 15.8853C90.4284 15.882 90.3256 15.8848 90.1943 15.8848V16.5083C90.0916 16.5171 90.0164 16.5231 89.9114 16.5319C89.8757 15.971 89.9005 15.4255 89.8955 14.8674L89.895 14.8669ZM90.2048 15.6667C90.3883 15.6535 90.5619 15.6557 90.7283 15.6244C90.8684 15.598 90.9206 15.503 90.9222 15.3629C90.9233 15.2217 90.8695 15.1366 90.7333 15.0959C90.5657 15.0459 90.3938 15.0383 90.2048 15.0619V15.6667Z" fill="white"/>
</g>
<defs>
<clipPath id="clip0_1278_555">
<rect width="92" height="34.5042" fill="white" transform="translate(0 0.0873413)"/>
</clipPath>
</defs>
</svg>
