<svg width="92" height="80" viewBox="0 0 92 80" fill="none" xmlns="http://www.w3.org/2000/svg">
<g clip-path="url(#clip0_1278_552)">
<path d="M7.90608 57.5105C11.1614 59.73 14.807 60.6 18.5903 60.9188C22.4375 61.2428 26.2591 61.0643 29.6649 58.9289C32.0605 57.4263 33.0146 55.1175 32.6651 52.3699C32.3335 49.7677 30.5374 48.3773 28.1393 47.7931C26.624 47.4232 25.0524 47.2625 23.4937 47.1069C21.9324 46.9487 20.3583 46.9257 18.7919 46.8186C16.8709 46.6885 16.0392 46.066 16.0596 44.8236C16.0826 43.4306 17.524 42.2979 19.2001 42.2954C20.4297 42.2954 21.6798 42.3591 22.8814 42.1576C29.4251 41.0606 32.137 34.9174 28.5986 29.31C28.5603 29.2462 28.5603 29.1594 28.5195 28.9911H32.8284V26.0725C32.461 26.1184 32.1447 26.1542 31.8309 26.2026C29.2848 26.5904 26.7668 26.5904 24.2718 25.82C21.741 25.0393 19.1771 24.9551 16.6157 25.6848C13.2355 26.6491 10.7379 29.4375 10.3807 32.6749C9.96997 36.3971 11.4445 39.1906 14.6437 41.1014C14.8912 41.2494 15.1386 41.3948 15.3784 41.5351C14.636 42.0989 13.8605 42.5658 13.238 43.1857C11.3808 45.0251 11.5466 47.9258 13.7253 49.3646C14.7355 50.033 16.0392 50.4412 17.2535 50.5841C20.2843 50.9413 23.3483 51.0229 26.3867 51.3265C28.6011 51.5484 29.6241 52.4541 29.7134 53.9746C29.8078 55.5691 28.5705 57.1559 26.7005 57.5896C18.6312 59.4596 9.46229 57.536 4.38292 48.9411C0.255143 41.9561 -0.994926 34.3919 0.795989 26.496C2.35475 19.6308 6.83204 14.7479 12.488 10.8676C18.8735 6.48981 26.1265 4.29836 33.5937 2.72684C43.1274 0.721629 52.7938 0.407836 62.4882 0.673157C68.8457 0.846636 75.1011 1.65791 80.9127 4.4897C88.7601 8.31389 92.2577 14.725 91.9847 23.33C91.7602 30.4197 89.329 36.8614 86.0507 43.0148C79.7672 54.8114 71.629 65.1002 60.8784 73.1644C54.4367 77.9963 47.2195 80.4786 39.0838 79.6597C31.9941 78.9479 25.8025 76.0243 20.2256 71.7001C15.409 67.9652 11.4649 63.447 8.30406 58.2427C8.16119 58.0054 8.03874 57.7554 7.90608 57.5105ZM60.312 35.6802V14.4596C58.4395 14.9444 56.7022 15.3934 55.1434 15.7964C55.3551 17.4649 55.6128 18.9624 55.72 20.4676C55.8169 21.8197 55.771 23.1821 55.748 24.5393C55.6026 33.0449 56.095 41.5632 55.4189 50.0943H60.5289V37.9711C61.9065 39.6141 63.2382 41.257 64.6286 42.849C66.4144 44.8899 68.1314 47.0074 70.0906 48.8723C72.4836 51.1479 76.2747 51.3801 78.859 49.6274C76.6599 49.3876 74.9583 48.2523 73.5628 46.7676C70.43 43.4332 67.4119 39.9917 64.2485 36.4813C68.1186 32.9428 71.879 29.5038 75.6063 26.0955C74.1062 26.0955 72.4556 26.07 70.8101 26.1159C70.481 26.1261 70.0932 26.3353 69.8457 26.5726C67.7028 28.6237 65.593 30.7105 63.4576 32.7693C62.4958 33.6954 61.4983 34.5858 60.3146 35.6802H60.312ZM34.6142 46.0277C34.6142 47.0099 34.5683 47.9003 34.6397 48.783C34.6627 49.0815 34.9152 49.5177 35.1678 49.6146C39.4997 51.2704 43.8979 51.903 48.2578 49.8289C53.2683 47.4462 53.6867 41.9994 49.0946 38.9202C47.1659 37.6267 45.0153 36.6675 43.0254 35.4608C41.9131 34.7873 40.7523 34.0679 39.9104 33.1112C38.4511 31.4504 39.0098 29.412 41.0533 28.5701C41.8161 28.2563 42.6937 28.1543 43.528 28.0981C46.0306 27.9298 48.2553 28.787 50.4977 30.3406C50.4977 29.4043 50.4365 28.69 50.513 27.9936C50.6176 27.0241 50.235 26.4526 49.3114 26.2281C47.9159 25.8863 46.5332 25.3863 45.1173 25.2587C42.3187 25.0112 39.6068 25.3812 37.3031 27.2308C34.0198 29.8661 33.9279 34.4633 37.3235 36.9507C39.2905 38.3921 41.584 39.3794 43.7065 40.6116C44.6887 41.1831 45.7424 41.7265 46.5358 42.5122C48.4798 44.4358 47.7578 47.2829 45.102 47.7727C43.3647 48.0916 41.4717 47.9615 39.7114 47.6681C38.0328 47.3875 36.4306 46.6323 34.6167 46.0252L34.6142 46.0277Z" fill="white"/>
<path d="M14.631 33.2234C14.6463 29.8406 16.6489 27.8456 20.0241 27.8507C23.5753 27.8532 25.9096 30.4044 25.8765 34.2465C25.8484 37.7262 23.8151 39.8284 20.4961 39.808C16.9831 39.7876 14.6131 37.1267 14.631 33.2234Z" fill="white"/>
</g>
<defs>
<clipPath id="clip0_1278_552">
<rect width="92" height="79.2212" fill="white" transform="translate(0 0.591522)"/>
</clipPath>
</defs>
</svg>
