<svg width="92" height="93" viewBox="0 0 92 93" fill="none" xmlns="http://www.w3.org/2000/svg">
<path d="M46.0527 62.5261C30.9297 62.5488 18.9913 50.1691 18.9655 35.4927C18.9397 20.8077 30.8532 8.35811 46.0495 8.36026C61.2307 8.36349 73.1195 20.7851 73.1249 35.4314C73.1303 50.1358 61.1845 62.5401 46.0517 62.5251L46.0527 62.5261ZM44.2263 12.0574C38.2313 12.4201 30.328 15.7297 25.6859 23.7836C21.2397 31.4986 21.54 41.1078 26.547 48.474C30.78 54.7014 36.7331 58.095 44.2263 58.8839V12.0574ZM67.2117 45.5873C68.852 42.1453 69.613 38.5473 69.5075 34.7716C69.4149 31.462 68.6518 28.3106 67.2096 25.3045C61.3545 28.6862 55.5199 32.055 49.6508 35.4454C55.522 38.8368 61.3524 42.2034 67.2117 45.5873ZM47.8695 12.0132V32.3112C53.7268 28.9284 59.556 25.5628 65.424 22.1735C61.0757 16.1602 55.2616 12.7591 47.8695 12.0143V12.0132ZM65.4046 48.7075C59.5539 45.329 53.7214 41.9602 47.8663 38.5785V58.8269C49.6713 58.9808 54.3661 57.6214 57.0827 56.1598C60.4472 54.3484 63.2111 51.8654 65.4046 48.7065V48.7075Z" fill="white"/>
<path d="M59.0448 77.9205C59.0448 74.035 62.2026 70.8858 66.0945 70.8847C70.1242 70.8825 73.1335 74.2664 73.1217 77.9431C73.1109 81.5228 70.1952 84.9562 66.0719 84.9584C62.2026 84.9616 59.0437 81.793 59.0437 77.9205H59.0448ZM70.2835 77.9269C70.2889 75.6172 68.4064 73.7304 66.0913 73.7261C63.788 73.7207 61.897 75.5946 61.8873 77.8914C61.8776 80.2205 63.7525 82.1105 66.0773 82.1148C68.3924 82.1191 70.2781 80.241 70.2835 77.928V77.9269Z" fill="white"/>
<path d="M44.5696 77.914C44.5706 81.8048 41.4182 84.9605 37.5295 84.9584C33.658 84.9562 30.5034 81.8016 30.4959 77.9248C30.4883 74.0458 33.6527 70.8836 37.5424 70.8847C41.4235 70.8847 44.5685 74.0318 44.5696 77.914ZM37.5338 73.725C35.2197 73.7272 33.3362 75.6118 33.3373 77.9226C33.3384 80.2334 35.2241 82.1148 37.5392 82.1137C39.8532 82.1137 41.74 80.2259 41.7367 77.9172C41.7324 75.6043 39.8468 73.7229 37.5338 73.725Z" fill="white"/>
<path d="M51.7195 77.8731C54.1057 80.2593 56.4294 82.5819 58.779 84.9326C58.6982 84.9455 58.6509 84.9584 58.6046 84.9584C57.4088 84.9595 56.2141 84.9627 55.0184 84.953C54.914 84.953 54.787 84.8831 54.7095 84.8066C53.3124 83.4193 51.9208 82.0255 50.5302 80.6306C50.4721 80.5714 50.4344 80.4918 50.3881 80.4207C50.3634 80.4369 50.3386 80.4519 50.3139 80.4681V84.9433H47.5316V70.8933H50.2999V75.4202C50.3989 75.3277 50.4602 75.2749 50.5162 75.219C51.9089 73.8262 53.2995 72.4324 54.6955 71.0429C54.773 70.9654 54.8989 70.8922 55.0022 70.8912C56.2131 70.8804 57.4239 70.8847 58.6347 70.8847C58.6638 70.8847 58.6939 70.8901 58.7111 70.8912C56.3874 73.2117 54.0615 75.5343 51.7195 77.872V77.8731Z" fill="white"/>
<path d="M19.0032 70.8933H21.752V75.3621C21.7875 75.389 21.8241 75.4149 21.8597 75.4418C21.8973 75.3664 21.9188 75.2749 21.9748 75.2179C23.3632 73.8219 24.7549 72.4292 26.1498 71.0408C26.223 70.9676 26.3381 70.8933 26.435 70.8922C27.6609 70.8825 28.8857 70.8858 30.1116 70.8869C30.1332 70.8869 30.1547 70.8944 30.1547 70.8944C27.8374 73.2117 25.5126 75.5354 23.1652 77.8828C25.5449 80.2561 27.8783 82.5819 30.2107 84.9089C30.2021 84.9261 30.1924 84.9433 30.1838 84.9595H29.9642C28.8147 84.9595 27.6663 84.9573 26.5168 84.9627C26.3683 84.9627 26.2617 84.9218 26.1562 84.8153C24.7678 83.4193 23.3751 82.0276 21.9845 80.6338C21.9253 80.5746 21.8812 80.5025 21.8295 80.4358C21.8091 80.4476 21.7875 80.4595 21.7671 80.4702V84.9433H19.0021V70.8933H19.0032Z" fill="white"/>
</svg>
