<svg width="92" height="43" viewBox="0 0 92 43" fill="none" xmlns="http://www.w3.org/2000/svg">
<g clip-path="url(#clip0_1278_480)">
<path d="M92 0.601288C88.9118 14.6156 85.8375 28.5685 82.7503 42.5818C82.3153 42.3103 81.9378 42.0517 81.5396 41.8298C78.0372 39.875 74.2604 38.7465 70.3063 38.2056C62.5041 37.1385 55.0328 38.4711 47.7923 41.3988C47.2117 41.6336 46.6371 42.0715 46.0594 42.0725C45.5066 42.0725 44.9587 41.6138 44.3999 41.378C37.5449 38.482 30.4243 37.2089 22.9886 37.9064C18.3053 38.3463 13.8687 39.6521 9.68171 41.8001C9.46176 41.913 9.23983 42.023 9.01691 42.131C8.97431 42.1518 8.92279 42.1567 8.79498 42.1884C5.8653 28.3346 2.9376 14.4898 0 0.601288H92ZM40.0852 19.9726C40.1248 19.8101 40.1714 19.7002 40.1753 19.5892C40.2754 16.8468 39.4392 14.5036 37.0089 13.0383C34.4269 11.4818 31.637 11.4838 28.8499 12.4379C26.7129 13.1691 25.3278 14.7008 24.8374 16.9013C24.6045 17.9465 24.5372 19.0651 24.6135 20.1341C24.8364 23.2629 26.7703 25.4178 29.8189 26.1233C31.4814 26.5077 33.1617 26.5602 34.8292 26.2689C35.7417 26.1094 36.6651 25.83 37.4973 25.4278C39.0984 24.652 39.891 23.252 40.1823 21.4677C38.7833 21.4677 37.4349 21.4617 36.0865 21.4796C35.9874 21.4806 35.8427 21.6282 35.8011 21.7392C35.5891 22.3108 35.1888 22.7299 34.6172 22.8339C33.883 22.9677 33.1053 23.0896 32.378 22.9875C31.0187 22.7963 30.0894 21.3676 30.3212 19.9736H40.0852V19.9726ZM80.7271 16.1077C80.742 15.2645 80.4864 14.6027 80.0306 14.0132C79.3936 13.1899 78.5425 12.6569 77.5656 12.3537C75.167 11.6096 72.7793 11.7226 70.4361 12.5925C69.9051 12.7896 69.4027 13.1106 68.946 13.4524C66.8208 15.0456 66.7743 19.0037 69.805 20.1916C70.6878 20.5374 71.63 20.7405 72.5544 20.9713C73.3529 21.1714 74.1703 21.2923 74.9659 21.5014C75.3503 21.6024 75.7109 21.8273 75.6852 22.3237C75.6594 22.8181 75.3582 23.1748 74.9074 23.2184C74.2337 23.2847 73.5312 23.2966 72.8684 23.1797C72.2314 23.0668 71.8024 22.5922 71.7092 21.9145C71.6706 21.6302 71.5418 21.5747 71.2872 21.5767C70.0666 21.5856 68.8469 21.5786 67.6263 21.5816C67.5352 21.5816 67.443 21.6193 67.3598 21.6381C67.234 23.369 68.2465 24.9106 69.9992 25.613C72.058 26.4383 74.196 26.3729 76.3361 26.0668C77.6944 25.8726 78.9507 25.4169 79.993 24.4647C81.5911 23.0053 81.9824 19.2068 78.9933 17.9426C78.0927 17.5621 77.1109 17.362 76.1548 17.1252C75.1819 16.8844 74.1832 16.7398 73.2211 16.4643C72.9586 16.389 72.6673 16.0205 72.6029 15.7381C72.5088 15.325 72.8981 15.11 73.2499 14.9851C74.1217 14.677 75.0174 14.6453 75.8526 15.0406C76.2053 15.2071 76.4451 15.6103 76.7413 15.8996C76.8235 15.9799 76.9266 16.0988 77.0217 16.0997C78.2383 16.1136 79.455 16.1087 80.7261 16.1087L80.7271 16.1077ZM38.7615 12.1783C39.03 12.7331 39.249 13.1899 39.4729 13.6456C41.4257 17.6265 43.3834 21.6044 45.3273 25.5902C45.4799 25.9033 45.6572 26.0192 46.0059 26.0123C47.1433 25.9905 48.2817 25.9945 49.4201 26.0103C49.7104 26.0143 49.8541 25.9142 49.9789 25.6507C52.0417 21.2834 54.1153 16.9211 56.184 12.5578C56.2355 12.4498 56.2633 12.3319 56.3168 12.1753C55.0655 12.1753 53.8785 12.2041 52.6936 12.1615C52.2121 12.1446 52.004 12.3309 51.8217 12.7391C51.0023 14.576 50.1552 16.3999 49.3171 18.2279C49.0307 18.8521 48.7395 19.4743 48.4075 20.1876C48.2857 19.9439 48.2094 19.8022 48.143 19.6566C47.0671 17.3035 45.995 14.9475 44.9082 12.5984C44.8309 12.431 44.6397 12.1991 44.499 12.1971C42.6215 12.1704 40.744 12.1793 38.7615 12.1793V12.1783ZM24.2647 25.9429V22.4654H16.4783V12.3329H11.3472V25.942H24.2647V25.9429ZM62.2861 25.9439V12.1902H57.1669V25.9439H62.2861ZM64.5599 15.3735C65.0662 15.5192 65.3803 15.3953 65.6527 15.0238C66.0322 14.5076 66.475 14.038 66.8684 13.5317C66.9813 13.387 67.0754 13.1839 67.0804 13.0056C67.1012 12.1 67.0863 11.1945 67.0923 10.2889C67.0943 10.0521 67.0319 9.92236 66.7604 9.92533C65.8548 9.93524 64.9483 9.92236 64.0437 9.93821C63.9347 9.94019 63.7366 10.067 63.7346 10.1403C63.7138 11.1043 63.7207 12.0693 63.7207 13.1007H65.3426C65.0652 13.9052 64.8155 14.6304 64.5599 15.3745V15.3735Z" fill="white"/>
<path d="M30.4837 17.4482C30.3391 16.0334 31.1436 14.8732 32.3146 14.8068C33.6106 14.7325 34.3586 15.6757 34.3546 17.4482H30.4837Z" fill="white"/>
</g>
<defs>
<clipPath id="clip0_1278_480">
<rect width="92" height="41.9805" fill="white" transform="translate(0 0.601288)"/>
</clipPath>
</defs>
</svg>
