<svg width="92" height="25" viewBox="0 0 92 25" fill="none" xmlns="http://www.w3.org/2000/svg">
<g clip-path="url(#clip0_1278_489)">
<path d="M0 0.58728H3.55171C5.13025 4.71769 6.72205 8.8805 8.31237 13.0433C8.40219 13.0227 8.49201 13.0006 8.58331 12.98V0.669741H12.4015V22.6265C11.0454 22.7737 9.68475 22.921 8.25641 23.0771C6.84132 19.2308 5.47482 15.5186 4.1098 11.8064L3.8094 11.8491V23.5689C2.45763 23.7544 1.25164 23.9193 0 24.0916V0.58728Z" fill="white"/>
<path d="M78.2629 0.597595H82.4125C83.2047 2.4942 84.0146 4.43351 84.9585 6.69382C85.9613 4.51891 86.8536 2.5796 87.7518 0.631463H91.978C90.289 4.38197 88.6589 8.00289 86.992 11.7063C88.6206 15.7321 90.2654 19.7933 92.0015 24.0843C90.4083 23.8899 89.0388 23.722 87.6208 23.5497C86.7049 21.3365 85.8052 19.1602 84.77 16.6584C83.7333 18.8951 82.8322 20.8418 81.8897 22.8768C80.5954 22.7575 79.3335 22.6412 77.8418 22.5042C79.5087 18.795 81.0902 15.2757 82.7232 11.6415C81.2757 8.0559 79.8091 4.42614 78.2629 0.597595Z" fill="white"/>
<path d="M16.3214 0.618195H26.9191V4.20525H20.228V9.14555H25.2434V12.7989H20.2192V18.3134C22.4692 18.1839 24.6264 18.0602 26.9 17.9306V21.5221C23.4101 21.768 19.9129 22.0139 16.3214 22.2672V0.618195Z" fill="white"/>
<path d="M47.8731 12.6369V20.9404H44.1211V0.635864H54.6761V4.24942H47.9688V8.93645H53.0666V12.6384H47.8731V12.6369Z" fill="white"/>
<path d="M67.7446 21.6973C64.2533 21.5265 60.8871 21.363 57.412 21.1937V0.680054H61.1934V17.6788C63.4714 17.8275 65.5742 17.9659 67.7446 18.1088V21.6973Z" fill="white"/>
<path d="M37.4726 21.1142H33.5851V4.28037H29.6167V0.678589H41.388V4.21116H37.4726V21.1142Z" fill="white"/>
<path d="M74.8526 22.2009C73.5833 22.117 72.4112 22.0404 71.136 21.955V0.672699H74.8526V22.2009Z" fill="white"/>
</g>
<defs>
<clipPath id="clip0_1278_489">
<rect width="92" height="23.5043" fill="white" transform="translate(0 0.58728)"/>
</clipPath>
</defs>
</svg>
