<svg width="92" height="16" viewBox="0 0 92 16" fill="none" xmlns="http://www.w3.org/2000/svg">
<g clip-path="url(#clip0_1278_562)">
<path d="M7.86804 7.10644C7.92005 6.93275 7.97205 6.75956 8.02356 6.58587C8.44667 5.16152 8.86625 3.73666 9.29644 2.31432C9.37621 2.05126 9.48124 1.79274 9.60292 1.54584C9.81498 1.11616 10.1805 0.90107 10.6562 0.914703C10.9031 0.921772 11.154 0.966709 11.3928 1.03235C11.9518 1.18635 12.2062 1.53221 12.1669 2.10831C12.1462 2.40722 12.0846 2.70865 12.0028 2.99797C11.3009 5.4781 10.5809 7.95267 9.88618 10.4348C9.53173 11.7006 9.19596 12.973 8.89554 14.2525C8.70165 15.0775 7.84583 15.439 7.10613 15.0017C6.66029 14.7382 6.41087 14.3252 6.28716 13.8384C6.14427 13.278 6.01451 12.7135 5.89889 12.147C5.54494 10.407 5.20059 8.66561 4.85119 6.92467C4.82544 6.79642 4.79161 6.66969 4.74011 6.45157C4.6775 6.65303 4.63358 6.77168 4.60328 6.89387C4.02718 9.20283 3.45006 11.5118 2.8785 13.8223C2.64877 14.7513 1.84495 15.2274 0.927019 14.9669C0.276187 14.7821 -0.112595 14.2136 0.0282753 13.5506C0.329708 12.1364 0.632655 10.7206 0.995182 9.32098C1.5723 7.09382 2.19586 4.87877 2.80782 2.66119C2.8881 2.37087 3.00069 2.08711 3.12641 1.81294C3.37079 1.28076 3.78734 1.01316 4.38567 1.05052C4.85119 1.0793 5.29602 1.1924 5.71358 1.39538C6.21496 1.63875 6.4553 2.0861 6.59617 2.59757C6.81227 3.38372 7.02433 4.17088 7.23337 4.95905C7.42221 5.66996 7.60498 6.38239 7.79079 7.09432L7.86754 7.10644H7.86804Z" fill="white"/>
<path d="M83.3483 8.23542C83.4053 8.08243 83.4356 7.9976 83.4685 7.91379C83.8492 6.93426 84.2294 5.95473 84.6121 4.97621C84.6504 4.87876 84.7009 4.78535 84.7519 4.69346C84.9605 4.32134 85.269 4.14361 85.7007 4.21682C85.8299 4.23853 85.9587 4.2663 86.0859 4.29862C86.6868 4.4511 86.8796 4.68084 86.8438 5.30693C86.8216 5.69773 86.7569 6.09257 86.658 6.47176C86.0935 8.63329 85.5118 10.7903 84.9393 12.9498C84.8448 13.3052 84.7721 13.6663 84.6848 14.0237C84.5131 14.7251 83.9345 15.0866 83.2271 14.9316C82.6601 14.8074 82.2612 14.466 82.0199 13.9475C81.9264 13.7465 81.8598 13.5299 81.8088 13.3138C81.516 12.0733 81.2312 10.8307 80.9434 9.58909C80.9328 9.54263 80.9181 9.49669 80.8454 9.43913C80.8005 9.58353 80.749 9.72592 80.7116 9.87234C80.3653 11.2215 80.0159 12.5701 79.6801 13.9222C79.5443 14.4686 79.2373 14.8356 78.689 14.9876C77.77 15.2421 76.946 14.5332 77.1222 13.5966C77.3383 12.4474 77.5771 11.3007 77.8659 10.1682C78.2522 8.65348 78.6895 7.15188 79.1201 5.64926C79.2136 5.32308 79.3499 5.00398 79.5084 4.70305C79.7584 4.22793 80.0966 4.081 80.6218 4.16381C80.6475 4.16785 80.6728 4.17643 80.699 4.17996C81.7831 4.32487 82.4601 4.88684 82.6949 5.99563C82.8494 6.72573 83.11 7.43311 83.3483 8.23592V8.23542Z" fill="white"/>
<path d="M50.1185 4.96559C50.4275 4.77676 50.6861 4.59347 50.9663 4.45311C51.5515 4.15975 51.8923 4.27386 52.1998 4.84845C52.5355 5.47555 52.6759 6.16122 52.7198 6.85901C52.841 8.7802 52.4628 10.6029 51.5495 12.303C51.0769 13.182 50.4634 13.949 49.653 14.5458C49.2466 14.8452 48.8032 15.0749 48.3094 15.189C47.4597 15.386 46.6892 15.183 45.9995 14.6725C45.1754 14.0631 44.7296 13.2123 44.5216 12.2298C44.2343 10.8715 44.4615 9.55777 44.9296 8.27882C45.4784 6.77924 46.3792 5.53816 47.7354 4.66567C48.0752 4.44705 48.4473 4.26578 48.826 4.12289C49.3965 3.9078 49.6793 4.04463 49.9413 4.58741C49.9974 4.70354 50.0509 4.82119 50.1185 4.96509V4.96559ZM49.9161 7.94508C49.8878 7.61789 49.8726 7.28869 49.8272 6.96353C49.7868 6.67219 49.5813 6.56616 49.3157 6.67926C49.2445 6.70956 49.1809 6.76106 49.1178 6.80751C48.3882 7.34575 47.8585 8.03495 47.5561 8.89179C47.2673 9.70974 47.184 10.5575 47.2249 11.4189C47.2314 11.5602 47.2698 11.7072 47.3259 11.8374C47.5051 12.2515 47.9217 12.407 48.3014 12.1687C48.5053 12.0409 48.6911 11.8486 48.8204 11.6441C49.5308 10.5171 49.906 9.28562 49.9161 7.94457V7.94508Z" fill="white"/>
<path d="M74.9224 4.96207C75.2471 4.76667 75.5172 4.57582 75.811 4.43343C76.3599 4.16734 76.6926 4.28246 76.988 4.81918C77.3374 5.45487 77.4793 6.15417 77.5242 6.86559C77.6444 8.77315 77.2667 10.5817 76.369 12.2742C75.9772 13.0124 75.4914 13.6875 74.8462 14.2222C74.4952 14.513 74.108 14.7801 73.6985 14.9765C72.6493 15.4804 71.6465 15.3224 70.7357 14.6215C69.949 14.0162 69.5249 13.18 69.3234 12.2247C69.0371 10.8655 69.2664 9.55223 69.7354 8.2743C70.3004 6.73482 71.2345 5.47254 72.6437 4.59955C72.9542 4.40718 73.2915 4.24611 73.6349 4.12089C74.2049 3.91287 74.4856 4.04768 74.7477 4.59349C74.8037 4.70962 74.8578 4.82625 74.9224 4.96308V4.96207ZM74.7204 7.94762C74.6922 7.62044 74.677 7.29123 74.6316 6.96607C74.5892 6.6606 74.367 6.5581 74.0863 6.69544C74.0277 6.72371 73.9762 6.76713 73.9237 6.80601C73.2198 7.3291 72.6972 7.99003 72.3898 8.81657C72.0772 9.65725 71.9899 10.5292 72.0287 11.4174C72.0348 11.5587 72.0727 11.7057 72.1287 11.8359C72.307 12.2505 72.724 12.4075 73.1032 12.1702C73.3072 12.043 73.494 11.8506 73.6228 11.6466C74.3342 10.5196 74.7088 9.28866 74.7204 7.94762Z" fill="white"/>
<path d="M61.522 8.72518C61.5271 9.37046 61.3973 9.98796 61.1539 10.5752C60.3744 12.456 59.056 13.8303 57.2065 14.6836C56.5148 15.0027 55.7847 15.1371 55.0172 15.0613C54.5578 15.0159 54.1735 14.8351 53.9009 14.4721C53.6333 14.1156 53.3818 13.743 53.1637 13.3547C52.8835 12.8549 52.9011 12.3222 53.09 11.789C53.3313 11.1079 53.5934 10.4323 53.8024 9.74106C54.015 9.03772 54.1867 8.32125 54.3513 7.60478C54.4487 7.17914 54.3896 7.10239 53.968 6.94536C53.7787 6.87468 53.6853 6.73482 53.6949 6.55507C53.7166 6.16325 53.7383 5.76791 53.813 5.38418C53.8822 5.02973 54.1347 4.77424 54.4608 4.63337C54.7476 4.50967 55.0521 4.40515 55.3591 4.35365C56.6037 4.14512 57.8296 4.20117 58.9803 4.77626C60.6036 5.58715 61.4806 6.89235 61.5215 8.72518H61.522ZM56.4133 6.54901C56.481 6.69442 56.5027 6.85145 56.5895 6.908C56.8662 7.08724 56.8874 7.35485 56.8996 7.63204C56.9263 8.23036 56.8087 8.81303 56.6471 9.38156C56.432 10.1389 56.1775 10.8852 55.9382 11.6355C55.8741 11.8359 55.768 12.0556 55.9751 12.2156C56.1725 12.3681 56.4098 12.3242 56.6006 12.1853C57.0142 11.8849 57.4555 11.6072 57.8109 11.2467C58.6521 10.3934 58.9495 9.3447 58.7379 8.16523C58.5466 7.09633 57.5166 6.35512 56.4133 6.5485V6.54901Z" fill="white"/>
<path d="M27.6131 10.4005C28.2003 11.5077 28.7759 12.5862 29.3424 13.6688C29.4575 13.8889 29.5625 14.1196 29.6302 14.3575C29.7539 14.7942 29.6241 15.1386 29.2293 15.3703C28.9723 15.5213 28.6875 15.644 28.3997 15.7207C27.9186 15.8495 27.5949 15.6894 27.3556 15.2431C26.7901 14.1883 26.2321 13.13 25.6697 12.0737C25.6096 11.9606 25.5419 11.8511 25.447 11.687C25.3894 11.844 25.347 11.946 25.3147 12.051C25.1072 12.716 24.9027 13.382 24.6962 14.0469C24.6689 14.1348 24.6407 14.2226 24.6068 14.308C24.3165 15.0355 23.702 15.3405 22.9926 15.0992C22.3681 14.8866 21.8056 14.2686 22.0565 13.4345C22.9164 10.5777 23.7702 7.71887 24.5998 4.85349C24.832 4.0522 25.8858 3.70835 26.5684 4.11127C26.8577 4.28244 27.041 4.54146 27.0627 4.87622C27.0794 5.13574 27.0743 5.40587 27.0193 5.65832C26.8557 6.40256 26.6618 7.14024 26.4811 7.88095C26.4568 7.98041 26.4402 8.0814 26.4043 8.25913C26.5957 8.15461 26.733 8.092 26.8572 8.0097C27.9953 7.25385 28.8274 6.24049 29.3752 4.99285C29.6297 4.41372 29.8226 4.2683 30.4552 4.28951C30.7153 4.29809 30.9824 4.33293 31.2303 4.40867C31.6473 4.53641 31.8023 4.83734 31.7165 5.26954C31.6963 5.37204 31.66 5.47252 31.6201 5.56895C30.8127 7.52902 29.612 9.16746 27.7691 10.2818C27.7252 10.3086 27.6863 10.3434 27.6126 10.3989L27.6131 10.4005Z" fill="white"/>
<path d="M35.4019 6.79693C35.2544 7.39222 35.1222 7.9244 34.9828 8.48737C35.1201 8.5106 35.2327 8.53938 35.3463 8.54695C35.8977 8.58331 36.4496 8.61966 37.0014 8.64592C37.7023 8.67873 38.0532 9.09276 37.9562 9.79055C37.9416 9.89456 37.9143 9.99655 37.8886 10.0985C37.7285 10.7393 37.3938 11.0513 36.7323 11.0907C36.1022 11.1281 35.469 11.1124 34.8374 11.119C34.6289 11.121 34.4203 11.119 34.1643 11.119C34.0851 11.4739 33.9866 11.8006 33.9457 12.1344C33.9144 12.3903 34.0179 12.4893 34.2749 12.5368C34.4289 12.565 34.5885 12.5711 34.746 12.5721C35.2595 12.5767 35.773 12.5691 36.2865 12.5756C36.8479 12.5832 37.0585 12.7887 37.0216 13.3527C36.9994 13.6905 36.9257 14.0298 36.8333 14.3565C36.7278 14.7281 36.447 14.9533 36.0754 15.0315C35.8199 15.0851 35.5539 15.1123 35.2933 15.1083C34.5829 15.0972 33.872 15.0709 33.1621 15.0371C32.022 14.9826 31.3101 14.2732 31.2429 13.1356C31.2152 12.6595 31.249 12.1894 31.3893 11.7294C31.4429 11.5537 31.4863 11.3755 31.5393 11.1786C30.9622 10.8771 30.9561 10.3672 31.0707 9.8269C31.2005 9.21394 31.504 8.73225 32.1215 8.49545C32.2048 8.46314 32.3012 8.37478 32.3255 8.29298C32.4653 7.81483 32.5855 7.33112 32.7168 6.83177C32.2442 6.63586 32.1755 6.24708 32.1932 5.8179C32.2098 5.4271 32.3285 5.0676 32.5481 4.74547C32.8076 4.36477 33.1586 4.12039 33.6317 4.12291C34.3946 4.12695 35.158 4.13857 35.9204 4.17088C36.6697 4.20269 37.4175 4.26681 38.1663 4.31074C38.9065 4.35366 39.2574 4.80253 39.112 5.53162C39.0963 5.60887 39.0807 5.68612 39.0615 5.76287C38.9075 6.39047 38.5869 6.69494 37.9446 6.75149C37.4609 6.7944 36.9722 6.78733 36.4854 6.79541C36.1325 6.80147 35.7791 6.79642 35.4014 6.79642L35.4019 6.79693Z" fill="white"/>
<path d="M66.1495 6.79692C66.0071 7.37101 65.8723 7.91328 65.7279 8.49595C65.9081 8.51918 66.047 8.54442 66.1869 8.55351C66.7251 8.58785 67.2638 8.61814 67.8026 8.64843C68.4115 8.68277 68.7447 9.04479 68.7094 9.64867C68.7008 9.79206 68.672 9.93546 68.6372 10.0753C68.467 10.7595 68.1298 11.0533 67.4224 11.0968C66.9765 11.1245 66.5282 11.1149 66.0808 11.1185C65.7138 11.1215 65.3467 11.119 64.9695 11.119C64.816 11.434 64.7054 11.74 64.6827 12.0697C64.661 12.3858 64.7569 12.4999 65.074 12.5474C65.229 12.5706 65.3886 12.5716 65.5461 12.5726C66.0727 12.5761 66.5994 12.566 67.1255 12.5792C67.5572 12.5898 67.7521 12.7796 67.7708 13.2098C67.7894 13.6486 67.7031 14.0747 67.5289 14.4781C67.3931 14.7932 67.131 14.972 66.8074 15.0341C66.5383 15.0856 66.2596 15.1113 65.9854 15.1073C65.3012 15.0972 64.6176 15.0684 63.9334 15.0391C62.7747 14.9896 62.039 14.2838 61.9915 13.124C61.9739 12.6963 62.0531 12.2626 62.1117 11.8344C62.1415 11.6158 62.2238 11.4042 62.2874 11.169C61.7583 10.921 61.7113 10.4641 61.7901 9.9713C61.8981 9.29725 62.1915 8.75245 62.8767 8.49242C62.9585 8.46162 63.0478 8.36669 63.0721 8.28338C63.2119 7.80574 63.3331 7.32304 63.4634 6.83075C63.0064 6.64444 62.9196 6.27181 62.9337 5.85526C62.9468 5.45234 63.0655 5.0782 63.2942 4.74395C63.5542 4.36325 63.9057 4.11988 64.3778 4.1219C65.1407 4.12543 65.9036 4.13806 66.666 4.16987C67.4153 4.20168 68.1626 4.2658 68.9114 4.30922C69.6329 4.35113 69.9823 4.77879 69.8661 5.49223C69.8495 5.59574 69.8227 5.69824 69.7965 5.79972C69.6415 6.39804 69.3198 6.69544 68.6902 6.74997C68.1934 6.79288 67.6915 6.78531 67.1921 6.79389C66.8523 6.79995 66.512 6.7949 66.1495 6.7949V6.79692Z" fill="white"/>
<path d="M15.6548 11.3628C15.7381 9.86476 16.1299 8.2137 16.9549 6.68028C17.3649 5.91787 17.8981 5.2529 18.61 4.74748C19.3381 4.23096 20.1374 3.93255 21.0457 3.98052C22.3484 4.04919 23.3653 5.24532 23.1921 6.54194C23.0911 7.2988 22.6024 7.79715 21.949 8.11474C21.4769 8.34397 20.9942 8.03294 20.8448 7.4836C20.7907 7.28416 20.7312 7.07563 20.6226 6.90396C20.4227 6.58839 20.1631 6.56415 19.9046 6.83024C19.7506 6.98879 19.6133 7.17358 19.5108 7.36898C18.9453 8.44748 18.5474 9.58757 18.3192 10.7832C18.2733 11.0245 18.2743 11.2861 18.3116 11.529C18.3854 12.0106 18.8605 12.1778 19.228 11.8566C19.3629 11.739 19.4755 11.58 19.5562 11.4189C19.8819 10.7665 20.4383 10.557 21.1189 10.5711C21.224 10.5732 21.3285 10.5903 21.433 10.6055C21.8455 10.6661 22.0207 10.8473 22.0192 11.2563C22.0182 11.4643 21.9924 11.6784 21.9364 11.8784C21.5708 13.1841 20.7842 14.16 19.6118 14.8397C18.1571 15.6829 16.5929 14.824 16.0592 13.7087C15.7376 13.0371 15.6492 12.3277 15.6558 11.3638L15.6548 11.3628Z" fill="white"/>
<path d="M41.4599 15.0139C41.0655 15.0139 40.6636 15.0628 40.2784 15.0048C39.1247 14.8301 38.2158 13.8339 38.1295 12.6519C38.1032 12.2919 38.1325 11.9081 38.232 11.5628C38.8692 9.35177 39.5342 7.14884 40.188 4.94288C40.4076 4.20167 41.0388 3.81945 41.7992 3.97143C42.3223 4.07594 42.6691 4.44302 42.6898 4.98024C42.701 5.26501 42.655 5.55736 42.5949 5.83809C42.193 7.71686 41.6901 9.56888 41.0994 11.3972C40.8878 12.052 40.9898 12.2025 41.6755 12.2222C42.0436 12.2328 42.4127 12.2176 42.7812 12.2207C42.9388 12.2217 43.0978 12.2267 43.2523 12.2525C43.837 12.3499 44.0794 12.6801 43.939 13.2608C43.8471 13.641 43.7032 14.0146 43.5381 14.3701C43.321 14.8366 42.8969 15.0113 42.4086 15.0361C42.0935 15.0517 41.777 15.0391 41.4609 15.0391C41.4609 15.031 41.4609 15.0229 41.4609 15.0144L41.4599 15.0139Z" fill="white"/>
<path d="M12.3487 15.1805C11.9977 15.1577 11.6529 15.0467 11.3479 14.8189C10.8506 14.4473 10.6931 13.999 10.8667 13.4006C11.617 10.8115 12.3709 8.22328 13.1227 5.63409C13.1701 5.47 13.2095 5.30337 13.262 5.14079C13.5766 4.16278 14.7884 3.76794 15.6185 4.37737C15.9921 4.65153 16.1552 5.01709 16.0345 5.48211C15.5362 7.40381 15.0474 9.32853 14.5334 11.2462C14.285 12.1732 13.9911 13.0876 13.7109 14.0055C13.6539 14.1929 13.5827 14.3807 13.4867 14.5508C13.2545 14.9628 12.845 15.185 12.3492 15.181L12.3487 15.1805Z" fill="white"/>
<path d="M88.2581 5.82144C88.2667 4.80959 89.122 4.00224 90.1626 4.02294C91.1922 4.04364 92.0051 4.8515 92 5.84921C91.995 6.86206 91.1427 7.68709 90.1147 7.67447C89.0731 7.66184 88.2495 6.83934 88.2581 5.82144ZM90.1233 7.30891C90.9776 7.31194 91.6547 6.65454 91.6476 5.82901C91.6405 5.02469 90.966 4.37991 90.1308 4.37991C89.2942 4.37991 88.6156 5.02166 88.6065 5.82144C88.5969 6.64747 89.2684 7.30588 90.1238 7.30891H90.1233Z" fill="white"/>
<path d="M89.4644 4.84746C89.8678 4.84746 90.247 4.82878 90.6231 4.85352C90.9069 4.8722 91.0589 5.04791 91.0877 5.30592C91.1164 5.56444 90.9998 5.76135 90.7479 5.86637C90.6767 5.89616 90.5984 5.90879 90.4596 5.94665C90.6509 6.23849 90.8256 6.50559 91.0155 6.79592C90.8317 6.89639 90.711 6.86862 90.612 6.70907C90.4944 6.51872 90.3636 6.33645 90.2551 6.14104C90.1485 5.94968 90.0092 5.88051 89.7618 5.97644C89.7552 6.19406 89.7471 6.42581 89.7411 6.65757C89.7365 6.83782 89.6487 6.88226 89.4639 6.81409V4.84746H89.4644ZM89.7709 5.64421C90.039 5.64421 90.2843 5.65633 90.5277 5.64017C90.6938 5.62906 90.7832 5.50738 90.7771 5.34379C90.7721 5.19686 90.6822 5.09891 90.5328 5.08275C90.2778 5.05548 90.0203 5.00701 89.7709 5.11001V5.64421Z" fill="white"/>
</g>
<defs>
<clipPath id="clip0_1278_562">
<rect width="92" height="14.8505" fill="white" transform="translate(0 0.914185)"/>
</clipPath>
</defs>
</svg>
