<svg width="92" height="38" viewBox="0 0 92 38" fill="none" xmlns="http://www.w3.org/2000/svg">
<g clip-path="url(#clip0_1278_576)">
<path d="M67.4249 23.3068H53.5462C52.8587 18.0845 50.1765 14.8085 44.6186 14.7859C43.2501 14.7795 41.7234 15.2797 40.555 16.0027C39.335 16.758 38.244 17.9361 37.4985 19.1722C36.7819 20.3568 36.5786 21.8512 36.117 23.3068H22.7805C23.0065 15.9575 25.7112 9.90899 31.55 5.56462C39.1155 -0.0675755 47.3524 -0.787334 55.6861 3.66032C63.3581 7.75294 66.9827 14.5051 67.4249 23.3068Z" fill="white"/>
<path d="M0 37.9538V24.4591C0.900505 24.6495 2.02372 24.9336 3.16306 25.1111C3.71176 25.195 4.3121 25.1756 4.84788 25.0433C6.91678 24.5301 8.95986 24.3687 11.0062 25.1369C13.3107 26.0019 15.0084 28.1289 15.0536 30.243C15.1052 32.5636 13.8142 34.6939 11.3063 35.462C9.58925 35.9881 7.66559 35.9107 5.8323 35.9559C5.00603 35.9752 4.17008 35.6266 3.12756 35.4007C3.17598 36.3012 3.21793 37.0694 3.26635 37.9538H0ZM3.1082 30.3624C3.05333 33.6449 4.26045 35.1231 7.04266 35.1812C9.72158 35.2393 11.9874 33.1446 12.0261 30.5819C12.0616 28.0869 9.7474 25.7275 7.22986 25.7017C4.50575 25.6694 3.15984 27.1897 3.1082 30.3656V30.3624Z" fill="white"/>
<path d="M63.1516 26.8314C63.0967 26.0148 63.0612 25.45 63.016 24.7593H65.7756V35.6073C65.2269 35.6073 64.4426 35.8493 64.0166 35.5621C62.7481 34.7132 61.5765 35.3749 60.3629 35.5169C58.3747 35.7493 56.5092 35.4943 54.9664 34.0935C52.7458 32.073 53.0847 28.7002 55.6667 27.1638C57.2418 26.2278 58.9363 25.8921 60.7535 26.315C61.4732 26.4828 62.1994 26.628 63.1548 26.8346L63.1516 26.8314ZM63.1161 30.9821C63.1936 28.3936 62.0962 27.0186 59.924 26.9799C57.8938 26.9444 56.0605 28.6227 55.9701 30.6012C55.8733 32.7541 57.6517 34.6487 59.8013 34.6842C61.9832 34.7165 63.0386 33.5384 63.1161 30.9853V30.9821Z" fill="white"/>
<path d="M37.7921 26.7249C40.2806 26.1762 41.9041 26.5925 43.0338 28.6195C43.7697 29.9396 44.8638 31.0596 45.9289 32.4378C46.9166 30.8143 47.8849 29.4199 48.6434 27.9191C49.2921 26.6345 50.1765 26.2569 51.7161 26.7087C51.3901 27.3704 51.0931 28.0127 50.7607 28.6421C49.4148 31.1854 48.0592 33.7223 46.7068 36.2625C46.143 37.3168 45.1758 37.7418 43.8052 37.5374C44.086 36.7014 44.3603 35.8913 44.5249 35.4104C41.5878 32.8703 40.1225 29.6136 37.7921 26.7281V26.7249Z" fill="white"/>
<path d="M22.9225 36.2657C21.4442 35.6783 19.7756 35.3103 18.4619 34.4227C16.0218 32.7767 16.0702 29.7492 18.336 27.8771C21.0763 25.6146 25.6079 25.6049 28.3352 27.8513C30.6914 29.7943 30.3718 33.3286 27.5573 34.8036C26.2211 35.504 24.6428 35.7428 22.9257 36.2657H22.9225ZM27.1991 31.179C27.2023 29.0036 25.4917 27.2833 23.3421 27.3091C21.086 27.3349 19.4689 28.9293 19.4496 31.1499C19.4302 33.2447 21.2183 35.0457 23.3259 35.0521C25.4562 35.0586 27.1958 33.3189 27.2023 31.1822L27.1991 31.179Z" fill="white"/>
<path d="M75.5004 36.1883C74.1674 35.7364 72.7182 35.462 71.4885 34.7875C68.5707 33.1898 68.4545 29.6233 71.1431 27.6577C73.7446 25.7566 77.5209 25.6533 80.2321 27.4059C81.6845 28.3451 82.5527 29.5845 82.3752 31.4017C82.2074 33.1026 81.323 34.3517 79.7899 34.9747C78.473 35.5105 77.0432 35.7654 75.4972 36.1883H75.5004ZM72.0113 31.1629C72.0081 33.2866 73.7575 35.0424 75.8813 35.0489C78.0179 35.0554 79.7189 33.335 79.7189 31.1596C79.7189 28.9745 78.0115 27.2703 75.8619 27.3058C73.5832 27.3414 72.0146 28.9164 72.0113 31.1629Z" fill="white"/>
<path d="M92 28.0837C88.6401 28.5259 88.5207 28.6453 88.5432 31.8342C88.5529 32.9961 88.6498 34.1548 88.7143 35.433H84.9154V26.4796H91.9193C91.9355 26.8152 91.9678 27.4059 92 28.0805V28.0837Z" fill="white"/>
<path d="M32.6183 24.4236H35.8911V35.4168H32.6183V24.4236Z" fill="white"/>
<path d="M47.8365 23.281H42.3431C42.4174 21.5123 43.3921 20.4536 44.9317 20.3826C46.5132 20.3116 47.5719 21.3057 47.8365 23.281Z" fill="white"/>
</g>
<defs>
<clipPath id="clip0_1278_576">
<rect width="92" height="37.1821" fill="white" transform="translate(0 0.771606)"/>
</clipPath>
</defs>
</svg>
