<svg width="92" height="27" viewBox="0 0 92 27" fill="none" xmlns="http://www.w3.org/2000/svg">
<g clip-path="url(#clip0_1278_586)">
<path d="M66.4893 26.0483C58.6148 26.0483 50.7403 26.0483 42.8653 26.0499C42.49 26.0499 42.1264 26.0472 41.7931 25.8257C41.2277 25.4499 40.9546 24.9212 40.9535 24.2557C40.9488 21.4432 40.9514 18.6306 40.9514 15.818C40.9514 11.2667 40.9504 6.71479 40.9551 2.16345C40.9557 1.48786 41.2283 0.945895 41.8149 0.579616C42.0641 0.42416 42.3335 0.367195 42.6252 0.367195C45.9595 0.369324 49.2939 0.367727 52.6282 0.367727C61.4604 0.367727 70.2926 0.36826 79.1254 0.367727C82.8585 0.367727 86.5921 0.381037 90.3251 0.35495C91.1924 0.349094 92.0021 1.186 92.0005 2.0261C91.983 9.45231 91.9899 16.8785 91.9979 24.3053C91.9989 25.0671 91.6619 25.5931 90.9954 25.9136C90.8192 25.9982 90.6036 26.0355 90.4061 26.036C87.8522 26.0435 85.2984 26.0403 82.7445 26.0403C77.3265 26.0403 71.9084 26.0403 66.4898 26.0403V26.0483H66.4893ZM46.5335 7.9792C46.5244 8.21824 46.4823 8.45782 46.5122 8.68834C46.5968 9.34264 46.9397 9.57955 47.587 9.44166C48.072 9.33838 48.5507 9.20368 49.0351 9.09668C50.0525 8.87148 51.0773 8.75329 52.1208 8.89224C53.0424 9.01522 53.718 9.45923 53.9357 10.3946C54.0528 10.8977 54.0448 11.4301 54.0885 11.9492C54.0922 11.996 54.0576 12.0466 54.0273 12.1339C53.892 12.1339 53.7531 12.1392 53.6147 12.1329C53.3581 12.1217 53.1015 12.0839 52.8459 12.0919C52.05 12.1169 51.2525 12.1329 50.4592 12.1989C49.3375 12.2931 48.2552 12.5529 47.2745 13.1364C46.772 13.4356 46.3439 13.8194 46.0596 14.338C45.1445 16.0075 45.7727 18.227 47.5865 19.1305C48.6475 19.6592 49.7725 19.6959 50.9112 19.508C52.0809 19.3147 53.0493 18.7323 53.8638 17.8815C53.9197 17.823 53.9799 17.7687 54.0709 17.6803C54.0858 17.8011 54.0991 17.8608 54.0997 17.9204C54.1023 18.1866 54.0938 18.4528 54.1039 18.719C54.1199 19.1321 54.2876 19.3376 54.6853 19.4329C55.1341 19.5404 55.5786 19.4845 56.0455 19.394C56.053 19.2599 56.0658 19.1385 56.0663 19.0171C56.0722 16.5436 56.0785 14.0707 56.0807 11.5973C56.0807 10.984 56.0333 10.3749 55.8608 9.78132C55.5675 8.77352 54.9786 8.01168 54.007 7.58098C53.0706 7.16626 52.0713 7.07149 51.0656 7.09971C50.4135 7.11781 49.7624 7.21736 49.1139 7.30521C48.2504 7.4218 47.4188 7.67202 46.5335 7.9792ZM77.385 18.7695C78.4892 19.1965 79.5667 19.4009 80.6581 19.534C81.297 19.6123 81.9401 19.6331 82.588 19.6022C83.5037 19.5585 84.3811 19.3898 85.2068 18.9873C85.6253 18.7834 85.9841 18.4938 86.2918 18.1461C86.7571 17.6201 86.9717 16.9834 87.0185 16.2972C87.0776 15.4304 86.863 14.651 86.2247 14.0127C85.7626 13.5511 85.2297 13.2056 84.619 13.0022C83.7465 12.711 82.8574 12.4683 81.98 12.1914C81.4237 12.0157 80.8684 11.8315 80.3243 11.6223C79.9218 11.4674 79.6067 11.1916 79.4816 10.7593C79.2867 10.0874 79.6439 9.43367 80.3376 9.13075C80.8546 8.90555 81.4056 8.84699 81.9497 8.85231C82.8973 8.86189 83.8412 8.95719 84.7601 9.22338C85.0311 9.30164 85.3111 9.3602 85.5912 9.39321C86.0565 9.44858 86.3961 9.17919 86.4393 8.71655C86.4654 8.43812 86.4441 8.15489 86.4441 7.84717C86.1044 7.74229 85.7722 7.61399 85.4283 7.53786C84.0244 7.22535 82.612 6.97619 81.1639 7.1391C80.2003 7.24771 79.291 7.50325 78.5073 8.11709C77.4457 8.94867 77.1673 10.4276 77.5778 11.5318C77.8993 12.3964 78.5792 12.9224 79.374 13.2887C79.8761 13.5197 80.4244 13.6539 80.9573 13.8125C81.6116 14.0068 82.2776 14.1623 82.9266 14.371C83.3797 14.5169 83.8386 14.6787 84.2506 14.9119C85.0849 15.3846 85.2505 16.3222 84.6691 17.0712C84.4194 17.3933 84.0584 17.5546 83.681 17.6638C83.0475 17.8469 82.4011 17.9353 81.7399 17.84C80.961 17.7271 80.1816 17.6217 79.4044 17.4971C79.0035 17.4327 78.6111 17.3039 78.2092 17.2597C77.8136 17.2166 77.557 17.4093 77.4745 17.7974C77.4074 18.112 77.4117 18.4416 77.384 18.7685L77.385 18.7695ZM70.4912 4.77958C70.0248 4.62147 69.6021 4.59538 69.1794 4.66193C68.6838 4.73965 68.4815 4.9952 68.4676 5.4999C68.465 5.5888 68.4666 5.67718 68.4666 5.76609C68.4676 8.8981 68.4666 12.0301 68.4724 15.1616C68.4735 15.6572 68.4729 16.1571 68.5315 16.648C68.6082 17.29 68.8371 17.8858 69.2587 18.3921C70.0552 19.3477 71.1434 19.6054 72.3098 19.6267C72.748 19.6347 73.1904 19.5473 73.6269 19.4781C74.3403 19.3647 75.0138 19.1214 75.6676 18.8153C75.8156 18.4341 75.7581 18.0668 75.6069 17.7229C75.4557 17.379 75.075 17.2672 74.6134 17.3971C74.3148 17.4812 74.022 17.5845 73.7249 17.6739C73.2218 17.8251 72.7155 17.9028 72.1821 17.8538C71.0561 17.7506 70.4971 16.9834 70.4896 15.9671C70.4731 13.8024 70.4848 11.6372 70.4875 9.47254C70.4875 9.37937 70.5082 9.28567 70.5216 9.17494C70.6594 9.16855 70.7728 9.15843 70.8862 9.15843C71.9947 9.15737 73.1031 9.16003 74.2115 9.1547C74.3962 9.15364 74.5826 9.13022 74.7646 9.09614C74.9712 9.05728 75.1096 8.92152 75.1799 8.72294C75.33 8.2965 75.2539 7.87113 75.181 7.42446C75.0532 7.41647 74.9409 7.40423 74.828 7.40423C73.5157 7.40263 72.2034 7.40423 70.8905 7.4021C70.7707 7.4021 70.6515 7.38294 70.4917 7.36909V4.78118L70.4912 4.77958ZM59.3852 19.3903C59.8356 19.5181 60.2519 19.4973 60.6672 19.468C60.7875 19.4595 60.911 19.4132 61.0207 19.3584C61.2868 19.2253 61.3369 18.9852 61.3364 18.7088C61.3321 16.5447 61.3321 14.3806 61.3401 12.2164C61.3406 12.0466 61.3742 11.856 61.4561 11.7107C61.643 11.3806 61.848 11.0558 62.0838 10.7588C62.7323 9.94263 63.5724 9.42782 64.6073 9.26651C65.0082 9.20422 65.4165 9.18239 65.8227 9.16216C66.3956 9.13288 66.6485 8.89277 66.6506 8.3178C66.6517 8.05321 66.6192 7.78808 66.5942 7.52402C66.5878 7.458 66.5505 7.39465 66.5175 7.30308C64.3427 7.03955 62.6631 7.84558 61.3896 9.61362C61.3507 9.50022 61.3364 9.40918 61.3364 9.31761C61.3337 8.84752 61.3385 8.37743 61.3332 7.90733C61.33 7.60228 61.2054 7.41807 60.9184 7.32916C60.4063 7.17105 59.892 7.22375 59.3751 7.32065C59.366 7.38134 59.3564 7.41541 59.3564 7.44895C59.3586 8.45089 59.3655 9.45337 59.3623 10.4553C59.3612 10.8621 59.3287 11.2688 59.3287 11.6755C59.3293 12.1259 59.3612 12.5769 59.3623 13.0273C59.3665 15.0226 59.3644 17.0185 59.366 19.0139C59.366 19.1353 59.3783 19.2567 59.3852 19.3887V19.3903Z" fill="white"/>
<path d="M37.196 6.85907C37.0347 7.22908 36.8819 7.58524 36.7243 7.93928C36.0711 9.40439 35.4179 10.87 34.7609 12.3341C34.2386 13.4989 33.7089 14.6606 33.1861 15.8249C32.6159 17.0947 32.0511 18.3665 31.4809 19.6363C30.9581 20.8011 30.4428 21.9692 29.9024 23.1255C29.526 23.931 28.9084 24.4591 28.0034 24.5762C27.2527 24.6731 26.5175 24.5842 25.8084 24.3122C25.753 24.2909 25.7061 24.2483 25.6188 24.1924C26.6293 22.0591 27.6371 19.9323 28.6539 17.7862C27.011 15.2068 25.3691 12.6301 23.7033 10.015C22.6955 11.0809 21.7149 12.1179 20.7151 13.1753C22.1493 15.3394 23.5713 17.4849 25.0172 19.6666C24.8501 19.7369 24.7345 19.8008 24.611 19.8348C23.7906 20.0627 22.958 20.1521 22.1126 20.0148C21.1591 19.8599 20.459 19.3216 19.9479 18.5241C19.2015 17.3593 18.4657 16.1885 17.7241 15.021C17.3579 14.4445 16.9884 13.8706 16.6221 13.2945C16.5375 13.1614 16.4592 13.0235 16.3698 12.8739C16.5119 12.7078 16.6386 12.5502 16.7754 12.4017C17.4521 11.6638 18.1314 10.9286 18.8102 10.1923C19.6024 9.33252 20.3813 8.45941 21.1905 7.61612C21.9837 6.78933 22.9724 6.37141 24.1212 6.39164C24.5967 6.40016 25.0705 6.48587 25.5459 6.5258C25.7652 6.54443 25.8967 6.66209 26.0048 6.8399C26.5069 7.66563 27.0131 8.48869 27.5184 9.31282C28.4362 10.8094 29.3535 12.3059 30.2724 13.8013C30.2942 13.837 30.3278 13.8663 30.3842 13.9307C30.4837 13.7188 30.578 13.5341 30.6584 13.3435C31.3553 11.6942 32.0378 10.0385 32.7501 8.39606C33.0669 7.66563 33.5364 7.04594 34.2972 6.7116C34.8828 6.45499 35.4972 6.41666 36.1185 6.51728C36.4134 6.5652 36.7009 6.66262 36.9895 6.74461C37.0534 6.76271 37.1087 6.81009 37.196 6.86014V6.85907Z" fill="white"/>
<path d="M10.6636 6.72704C10.7924 7.51816 10.7961 8.26349 10.4293 8.96251C10.1147 9.56198 9.5706 9.83509 8.92216 9.8452C8.25082 9.85585 7.57896 9.77599 6.90656 9.77067C6.10159 9.76428 5.2961 9.78132 4.4922 9.81965C4.29096 9.82923 4.07748 9.92985 3.90072 10.039C3.47322 10.3025 3.48972 10.7976 3.95024 10.9962C4.31172 11.1522 4.70675 11.2422 5.09486 11.3199C6.06752 11.5153 7.05083 11.6617 8.01924 11.8757C8.93866 12.0791 9.7942 12.4496 10.4698 13.1348C11.3158 13.993 11.6139 15.0397 11.5005 16.2279C11.4393 16.8695 11.2465 17.4583 10.8962 17.9955C10.3692 18.8036 9.59882 19.2844 8.71134 19.6043C8.08951 19.829 7.44373 19.9461 6.78624 19.9701C5.90089 20.0025 5.01447 20.0302 4.12965 20.0153C3.39603 20.0031 2.66347 19.9301 1.93144 19.8764C1.49915 19.8449 1.06792 19.7992 0.636153 19.7582C0.58398 19.7534 0.533403 19.7353 0.474841 19.722C0.451949 19.6746 0.417344 19.6304 0.409358 19.5814C0.284781 18.8494 0.306076 18.1323 0.649463 17.454C0.870402 17.0175 1.2287 16.7412 1.69347 16.6118C2.09808 16.4995 2.51067 16.4851 2.93126 16.5298C3.38005 16.5772 3.83258 16.5873 4.28351 16.6097C4.76105 16.6331 5.2418 16.6246 5.71508 16.6794C6.18198 16.7337 6.63611 16.6858 7.08544 16.5921C7.27603 16.5522 7.47195 16.451 7.62368 16.327C7.92501 16.0799 7.92767 15.6386 7.61463 15.4054C7.40859 15.2521 7.15039 15.1376 6.8991 15.0817C6.00843 14.8837 5.10764 14.7319 4.21643 14.5366C3.62122 14.4061 3.01164 14.2901 2.45051 14.0627C1.19409 13.5533 0.288507 12.6546 0.0649065 11.2858C-0.193299 9.70891 0.318321 8.38009 1.66205 7.43404C2.45743 6.87398 3.35556 6.5817 4.31492 6.50291C5.12574 6.43636 5.94188 6.38525 6.7543 6.40228C7.71738 6.42252 8.67886 6.5226 9.64088 6.59075C9.87033 6.60725 10.0993 6.63068 10.3276 6.65783C10.4309 6.67007 10.5316 6.69935 10.6636 6.72757V6.72704Z" fill="white"/>
<path d="M12.6101 19.9269C12.6032 19.821 12.5909 19.7166 12.5909 19.6118C12.5898 14.4493 12.5888 9.2862 12.592 4.12369C12.592 3.44969 12.7895 2.84544 13.316 2.38918C13.4411 2.28058 13.5875 2.18848 13.7377 2.11767C14.532 1.74447 15.3609 1.7466 16.2276 1.88555C16.2436 2.0096 16.2681 2.11128 16.2681 2.21297C16.2697 7.57992 16.2707 12.9463 16.2681 18.3133C16.2681 19.1592 15.856 19.6597 15.0324 19.8806C14.3089 20.0749 13.5737 20.0302 12.839 20.0174C12.7959 20.0169 12.7517 20.002 12.7102 19.9882C12.6857 19.9802 12.6649 19.961 12.6095 19.9264L12.6101 19.9269Z" fill="white"/>
<path d="M54.0704 13.5879C54.0811 13.7279 54.0955 13.8317 54.096 13.935C54.0986 14.4844 54.0901 15.0338 54.1013 15.5827C54.1056 15.7909 54.0497 15.9602 53.916 16.1167C53.0669 17.1128 52.0213 17.7458 50.7026 17.9049C49.9982 17.9901 49.3312 17.9241 48.6934 17.5892C47.6217 17.0265 47.3092 15.6524 48.0678 14.7101C48.2297 14.5094 48.457 14.3476 48.6817 14.2139C49.3982 13.7875 50.1963 13.6193 51.0167 13.5783C51.8291 13.5373 52.6436 13.5357 53.4571 13.5266C53.6493 13.5245 53.8415 13.5634 54.0699 13.5873L54.0704 13.5879Z" fill="white"/>
</g>
<defs>
<clipPath id="clip0_1278_586">
<rect width="92" height="25.6944" fill="white" transform="translate(0 0.35495)"/>
</clipPath>
</defs>
</svg>
