<svg width="92" height="35" viewBox="0 0 92 35" fill="none" xmlns="http://www.w3.org/2000/svg">
<g clip-path="url(#clip0_1278_592)">
<path d="M47.2465 0.299988C47.6729 0.369902 48.1016 0.429828 48.5257 0.512035C52.4425 1.26803 55.2644 3.48607 57.1382 6.96257C57.2473 7.16463 57.3395 7.37514 57.4371 7.58257C57.4455 7.60101 57.4348 7.62944 57.4286 7.69859C57.3703 7.60255 57.328 7.53571 57.2888 7.4681C55.4395 4.24744 52.6599 2.29369 49.0651 1.45549C48.6679 1.36253 48.263 1.28339 47.8573 1.24652C46.9338 1.16201 46.1187 1.44781 45.4149 2.04861C45.3696 2.08702 45.3427 2.14618 45.2567 2.26603C45.6063 2.34209 45.9274 2.36437 46.2047 2.4873C46.4644 2.60254 46.678 2.82304 46.9223 3.00589C47.0253 2.74237 47.1113 2.52341 47.2066 2.2814C47.0844 2.20534 46.887 2.10162 47.0506 1.84424C47.4048 1.83963 47.7183 1.92722 48.0118 2.14772C48.1232 2.23146 48.3314 2.1869 48.5142 2.13773C48.9199 2.39741 49.3248 2.65786 49.7465 2.9283C49.3939 3.36391 48.9283 2.85685 48.5695 3.09194C48.5288 3.43536 48.8853 3.42691 49.0489 3.66969C48.8115 3.7373 48.6033 3.79723 48.4535 3.84025C48.2899 4.01312 48.1493 4.14757 48.0248 4.29585C47.9203 4.42031 47.8035 4.54938 47.7467 4.69689C47.5723 5.14788 47.2757 5.47056 46.8524 5.70181C46.5167 5.88543 46.5051 5.97071 46.6388 6.32105C46.7026 6.48777 46.7771 6.65218 46.8163 6.82504C46.8447 6.94951 46.8217 7.08549 46.8217 7.25913C46.3354 7.04708 46.4337 6.55845 46.1663 6.2496C46.0672 6.26266 45.9581 6.2834 45.8475 6.29109C45.6977 6.30107 45.5479 6.30415 45.398 6.30338C45.322 6.30338 45.2321 6.25882 45.1714 6.28571C44.8111 6.44474 44.4277 6.36177 44.0597 6.41478C43.5542 6.48777 43.2522 6.88343 43.1831 7.52495C43.1546 7.78694 43.1785 8.05507 43.1785 8.34318H41.6534C41.6941 8.21795 41.7233 8.12652 41.7579 8.0205C41.3983 7.3905 41.0011 6.76512 40.8813 6.01143C40.6377 6.56536 41.2017 7.08012 40.9474 7.73162C40.8506 7.48884 40.8121 7.30292 40.713 7.16002C40.4964 6.84809 40.4749 6.51005 40.4795 6.14972C40.4818 5.9638 40.4364 5.7625 40.3573 5.59425C40.2305 5.32535 40.2421 5.06797 40.3688 4.82443C40.5379 4.49867 40.7292 4.18214 40.932 3.87559C41.0787 3.65356 41.2047 3.44228 41.2862 3.17415C41.3891 2.83533 41.6404 2.54108 41.8332 2.23069C41.9077 2.11084 41.9961 1.99944 42.0437 1.85346C38.946 2.87913 36.5873 4.78755 34.9962 7.68092C34.9885 7.60332 34.9716 7.56337 34.9832 7.53725C36.2869 4.62314 38.2991 2.40817 41.3062 1.18736C42.414 0.737911 43.5695 0.473621 44.7611 0.367597C44.8741 0.357609 44.9839 0.323805 45.0961 0.300756C45.8129 0.300756 46.529 0.300756 47.2458 0.300756L47.2465 0.299988Z" fill="white"/>
<path d="M92 32.5726C91.8018 33.1112 91.3692 33.3056 90.8414 33.3524C90.5518 33.3778 90.2606 33.3909 89.9141 33.4124C89.9395 33.6982 89.9625 33.9648 89.9871 34.2475H88.9576C88.9706 33.7404 89.0029 33.2311 88.9906 32.7232C88.9776 32.2231 89.0928 31.7106 88.8646 31.1736C89.5876 31.2005 90.2883 31.2151 90.9866 31.2581C91.4545 31.2865 91.8041 31.5208 92 31.9588V32.5719V32.5726ZM89.9464 32.7847C90.2299 32.7593 90.4949 32.7578 90.7508 32.7063C90.9743 32.661 91.0235 32.4666 91.0189 32.2584C91.0143 32.0502 90.9136 31.9073 90.7093 31.8889C90.4619 31.8673 90.2114 31.8835 89.9471 31.8835V32.7839L89.9464 32.7847Z" fill="white"/>
<path d="M50.9559 19.7461C50.9367 19.8667 50.9213 19.9658 50.9036 20.0772C50.3943 20.2747 49.8887 20.4713 49.4477 20.6427C49.2027 20.9162 48.9945 21.1482 48.7862 21.3802L48.7263 21.3395C48.7133 21.4355 48.6994 21.5316 48.6864 21.6245C48.535 21.7175 48.3952 21.8028 48.2492 21.8927C48.2692 21.9779 48.2853 22.0471 48.303 22.1239C48.2623 22.1301 48.2193 22.1508 48.1901 22.1393C47.8605 22.0087 47.7767 21.8312 47.8443 21.4855C47.9066 21.1682 48.0994 20.8762 48.0126 20.5259C47.9949 20.4529 48.0933 20.3484 48.144 20.2616C48.2477 20.0864 48.4021 19.9259 48.452 19.7369C48.6287 19.0715 48.9799 18.4523 48.9875 17.7424C48.9883 17.654 48.9837 17.5488 49.0275 17.4796C49.2726 17.0886 49.079 16.8097 48.8116 16.5416C48.7878 16.5177 48.7747 16.4816 48.7402 16.4248H54.5292C54.4032 16.8427 54.2564 17.2353 53.9222 17.5449C53.3483 17.5027 52.9734 17.7662 52.6976 18.2717C52.3642 18.8841 51.7657 19.3527 50.9559 19.7461Z" fill="white"/>
<path d="M57.2904 18.0574C56.4522 19.836 55.2583 21.3349 53.7079 22.5457C51.6181 24.1783 49.2372 25.045 46.5889 25.1241C40.6025 25.3023 36.6734 21.7375 35.0631 17.9191C37.5892 22.0686 41.3177 24.2214 46.1418 24.2444C50.9582 24.2667 54.7067 22.1585 57.2912 18.0566L57.2904 18.0574Z" fill="white"/>
<path d="M52.7367 12.9406C53.1316 13.5076 53.5226 14.07 53.9452 14.6777H51.9576C52.0329 14.5533 52.0959 14.4495 52.1697 14.3266C51.8908 13.9202 51.6096 13.5115 51.3269 13.0997H50.7384C50.7929 13.6336 50.5624 14.1729 50.9812 14.6769H49.1465C49.4891 14.3274 49.3831 13.9117 49.387 13.5168C49.3946 12.6479 49.3977 11.779 49.3831 10.9108C49.3793 10.6842 49.304 10.4583 49.254 10.1948C49.2648 10.1932 49.3424 10.1717 49.4208 10.1717C50.2905 10.1694 51.1609 10.1648 52.0306 10.1756C52.2711 10.1786 52.517 10.2078 52.7497 10.2662C53.2269 10.3861 53.578 10.6626 53.6978 11.1643C53.8238 11.6906 53.7047 12.1562 53.3052 12.528C53.1485 12.674 52.9564 12.7824 52.7359 12.9398L52.7367 12.9406ZM50.7591 12.233C51.1663 12.2115 51.5359 12.2184 51.8954 12.1639C52.1881 12.1193 52.3764 11.8443 52.3587 11.59C52.3403 11.3172 52.1405 11.1321 51.8078 11.1175C51.4667 11.1029 51.1241 11.1144 50.7591 11.1144V12.233Z" fill="white"/>
<path d="M26.5512 10.1725C27.0529 10.1725 27.4716 10.1563 27.888 10.1825C28.004 10.1901 28.1316 10.3038 28.2192 10.4006C28.8215 11.0621 29.4146 11.7321 30.0116 12.3982C30.1015 12.4981 30.1975 12.5933 30.3496 12.7524C30.3496 11.9772 30.3604 11.2919 30.3404 10.6081C30.3366 10.4744 30.2175 10.3438 30.1399 10.1886H31.6565C31.3899 10.4429 31.4129 10.7341 31.4145 11.0245C31.4191 12.097 31.416 13.1703 31.416 14.2428V14.6769H30.3581C29.9732 14.2667 29.5721 13.8372 29.1703 13.4093C28.7708 12.9836 28.3705 12.558 27.8942 12.1516V13.0067C27.8942 13.2364 27.8919 13.4669 27.8942 13.6966C27.898 14.0323 27.8227 14.3842 28.1485 14.6854H26.5796C26.9315 14.3174 26.817 13.8894 26.8217 13.4838C26.8316 12.6663 26.8217 11.8489 26.8263 11.0314C26.8278 10.7402 26.8547 10.4467 26.5497 10.1709L26.5512 10.1725Z" fill="white"/>
<path d="M19.8225 10.1894H21.6894C21.4313 10.4421 21.4428 10.7302 21.4467 11.0237C21.4551 11.6622 21.4467 12.3014 21.4513 12.9398C21.4551 13.4031 21.5896 13.6328 21.963 13.7342C22.3817 13.8487 22.8111 13.8741 23.14 13.5207C23.2414 13.4116 23.3005 13.2226 23.3044 13.0689C23.3221 12.2645 23.3251 11.4593 23.3098 10.6549C23.3067 10.5059 23.1961 10.3592 23.1277 10.1924H24.8133C24.771 10.4959 24.7011 10.7971 24.6927 11.099C24.6735 11.7759 24.6934 12.4527 24.6827 13.1296C24.6689 14.0008 24.2824 14.4879 23.4365 14.6785C22.742 14.8352 22.0375 14.8344 21.3422 14.6808C20.4986 14.4941 20.1006 14.0077 20.0807 13.1396C20.0645 12.4374 20.0745 11.7344 20.076 11.0322C20.076 10.7425 20.1168 10.446 19.824 10.1901L19.8225 10.1894Z" fill="white"/>
<path d="M56.9284 11.3725C57.1459 11.5108 57.2988 11.643 57.4762 11.7121C57.7728 11.8273 58.0909 11.885 58.3882 11.9979C58.6725 12.1062 58.9652 12.2199 59.2141 12.389C60.03 12.9444 59.947 14.103 59.0658 14.5555C58.4581 14.8675 57.8043 14.8521 57.1543 14.7491C56.7656 14.6877 56.3853 14.574 55.9835 14.4787C55.889 14.5632 55.786 14.6546 55.6462 14.7799V13.251C56.1148 13.4123 56.5881 13.5959 57.0737 13.7335C57.3141 13.8018 57.5784 13.8026 57.832 13.8057C58.0394 13.808 58.2599 13.7711 58.296 13.5061C58.3298 13.2564 58.1254 13.1834 57.9464 13.1181C57.7551 13.0482 57.5492 13.0182 57.3587 12.9467C56.9899 12.8077 56.6127 12.6801 56.2654 12.4973C55.7484 12.2253 55.5309 11.7667 55.6047 11.1874C55.6731 10.6496 56.0472 10.3691 56.5166 10.2086C57.2688 9.95043 58.0256 10.0042 58.7777 10.2309C58.8991 10.2677 59.0205 10.3054 59.1549 10.3461C59.261 10.2616 59.3662 10.1771 59.5099 10.0618V11.4755C59.0827 11.3525 58.6663 11.2035 58.2368 11.1167C57.8181 11.0322 57.3633 10.8708 56.9277 11.371L56.9284 11.3725Z" fill="white"/>
<path d="M43.071 10.1917H47.3488V11.3741C47.0783 11.0675 46.7703 11.1106 46.4714 11.1113C45.886 11.1113 45.3013 11.1113 44.6943 11.1113V11.9687C45.2982 11.895 45.9021 12.137 46.4745 11.7697V13.0927C45.9152 12.6994 45.3051 12.9537 44.6982 12.8676V13.735H45.6178C45.886 13.735 46.1541 13.7366 46.423 13.735C46.7349 13.7335 47.0576 13.7888 47.348 13.4907V14.6723H43.0894C43.4321 14.3174 43.3176 13.8887 43.3222 13.483C43.3314 12.6794 43.3214 11.8758 43.3268 11.0714C43.3291 10.7679 43.3583 10.4629 43.0702 10.1917H43.071Z" fill="white"/>
<path d="M62.5823 13.8879C62.5093 14.037 62.4379 14.1837 62.3687 14.3251C62.4448 14.4442 62.5109 14.5463 62.5961 14.6792H60.9735C61.0373 14.5325 61.0826 14.4173 61.1364 14.3059C61.7011 13.1473 62.2727 11.9926 62.8282 10.8294C62.9119 10.6534 62.9211 10.4429 62.9764 10.1994H64.4031C65.133 11.6591 65.8729 13.1381 66.6366 14.667H64.7535C64.8318 14.5463 64.8979 14.4442 64.9732 14.3274C64.9048 14.1845 64.8349 14.037 64.7642 13.8879H62.5823ZM62.938 13.0151H64.4047C64.1534 12.4835 63.926 12.0033 63.6664 11.454C63.4013 12.0217 63.1785 12.4996 62.938 13.0151Z" fill="white"/>
<path d="M41.8793 10.194C41.1518 11.7144 40.4434 13.1949 39.7312 14.6831H38.7609C38.0602 13.2049 37.3534 11.7137 36.6296 10.1878H38.4866C38.4151 10.3085 38.356 10.4083 38.2815 10.5336C38.6333 11.318 38.9921 12.117 39.3793 12.9798C39.7735 12.1354 40.1422 11.3456 40.5156 10.5459C40.4511 10.436 40.3889 10.33 40.309 10.194H41.8793Z" fill="white"/>
<path d="M72.0753 13.5329V14.6792H67.9104C68.2569 14.398 68.1893 14.0577 68.1893 13.7342C68.1908 12.8161 68.1985 11.898 68.1839 10.9799C68.1801 10.7287 68.1048 10.479 68.0571 10.2032H69.772C69.4662 10.4813 69.5315 10.8186 69.5307 11.142C69.5284 11.8688 69.5307 12.5956 69.5307 13.3224C69.5307 13.4461 69.5307 13.5698 69.5307 13.6843C70.3244 13.828 71.6796 13.7488 72.0753 13.5329Z" fill="white"/>
<path d="M45.7761 33.0636C46.111 32.4051 46.416 31.8066 46.7195 31.2097H47.7751C47.6176 31.633 47.6115 33.8426 47.7713 34.2452H46.6565C46.8586 33.7566 46.7226 33.2541 46.7671 32.7601C46.7426 32.7509 46.718 32.7417 46.6934 32.7324C46.4399 33.2357 46.1855 33.7381 45.9266 34.2513H45.4726C45.1906 33.7504 44.901 33.2349 44.6113 32.7201C44.5852 32.7271 44.5583 32.734 44.5322 32.7416C44.5706 33.2357 44.4531 33.7373 44.6282 34.246H43.7071C43.8669 33.8641 43.8646 31.6107 43.704 31.2128H44.7442C45.0677 31.7928 45.4011 32.3913 45.7761 33.0636Z" fill="white"/>
<path d="M74.9356 34.2575H73.8708C74.0429 33.7466 73.9561 33.2311 73.9538 32.7232C73.9515 32.2231 74.0575 31.7099 73.8485 31.212C74.5538 31.212 75.2545 31.212 75.9552 31.212C75.9682 31.212 75.9805 31.2143 75.9936 31.2158C76.539 31.285 76.8587 31.5155 76.9478 31.9027C77.0523 32.3575 76.884 32.691 76.3908 33.0052C76.3585 33.0259 76.3285 33.049 76.2824 33.0812C76.5444 33.4562 76.8041 33.8288 77.093 34.2421H75.7831C75.8115 34.1638 75.8384 34.0885 75.8699 34.0024C75.6893 33.7443 75.5072 33.4838 75.3121 33.2049H74.8857C74.9018 33.5484 74.918 33.8895 74.9349 34.2583L74.9356 34.2575ZM74.9134 32.5742C75.1692 32.5742 75.4074 32.5911 75.6425 32.5688C75.8499 32.5488 76.0051 32.419 76.0097 32.1993C76.0143 31.9649 75.8491 31.8689 75.6332 31.8627C75.3974 31.8558 75.1615 31.8612 74.9134 31.8612V32.5742Z" fill="white"/>
<path d="M80.5003 34.3789C80.1976 34.3289 79.9809 34.3113 79.7735 34.256C79.0344 34.06 78.6096 33.5146 78.5911 32.7593C78.5734 32.0187 78.9922 31.4456 79.7282 31.2297C80.2975 31.063 80.8645 31.0799 81.4069 31.3365C81.9846 31.6092 82.2512 32.0825 82.2574 32.7132C82.2635 33.3586 82.0108 33.8634 81.4115 34.1284C81.1042 34.2644 80.7577 34.3105 80.5003 34.3789ZM81.2509 32.7394C81.2509 32.6886 81.254 32.6379 81.2509 32.5872C81.2125 32.0779 80.9405 31.8113 80.4527 31.8028C79.9533 31.7951 79.6805 32.0333 79.6191 32.5442C79.6037 32.6687 79.6045 32.7977 79.6191 32.923C79.6844 33.4623 79.9886 33.7089 80.5234 33.6682C81.0104 33.6306 81.2532 33.3233 81.2509 32.7394Z" fill="white"/>
<path d="M22.6514 31.2097C23.3459 31.2097 24.0359 31.2081 24.725 31.212C24.8134 31.212 24.9017 31.2396 24.9893 31.2542C25.3773 31.3188 25.6592 31.5193 25.7445 31.915C25.8344 32.3283 25.7007 32.671 25.3412 32.9122C25.2674 32.9621 25.1898 33.0067 25.0815 33.0743C25.3466 33.4569 25.6085 33.8357 25.8966 34.2521H24.5875C24.6144 34.1722 24.639 34.1 24.6712 34.0039C24.4899 33.7458 24.3009 33.4754 24.1104 33.2026H23.6786C23.7001 33.5568 23.7209 33.8895 23.7431 34.2436H22.6745C22.8435 33.7489 22.7551 33.2334 22.7528 32.7263C22.7505 32.2254 22.8535 31.7129 22.6506 31.2105L22.6514 31.2097ZM23.7247 31.862V32.5688C23.9951 32.5688 24.2379 32.5918 24.4738 32.5619C24.6774 32.5357 24.8249 32.3936 24.8103 32.17C24.7965 31.9572 24.6397 31.8696 24.4415 31.8643C24.2049 31.8573 23.969 31.8627 23.7247 31.8627V31.862Z" fill="white"/>
<path d="M7.59454 32.8999V31.2174H8.46347C8.44119 31.4563 8.40354 31.6976 8.3997 31.9388C8.39048 32.5765 8.3974 33.2149 8.39586 33.8526C8.39586 33.9771 8.3851 34.1015 8.37896 34.246H7.75972C7.42859 33.9425 7.13049 33.6828 6.84853 33.4062C6.56811 33.1304 6.30382 32.8377 5.98959 32.5634C5.9942 33.1258 5.86359 33.6836 6.05873 34.249H5.12219C5.2843 33.8119 5.27354 31.5892 5.09607 31.1989C5.37496 31.1989 5.64078 31.1805 5.902 31.2074C6.0111 31.2189 6.12941 31.3096 6.21008 31.3956C6.66491 31.8781 7.10975 32.3706 7.59377 32.8984L7.59454 32.8999Z" fill="white"/>
<path d="M33.5419 10.1932H35.405C35.1015 10.512 35.1829 10.8824 35.1814 11.2373C35.1775 12.0786 35.1798 12.9206 35.1806 13.7619C35.1806 14.0746 35.1253 14.3996 35.4434 14.6808H33.5342C33.8791 14.3742 33.7992 13.997 33.8 13.6374C33.8023 12.7831 33.7977 11.9288 33.8023 11.0744C33.8038 10.771 33.833 10.4667 33.5426 10.1932H33.5419Z" fill="white"/>
<path d="M2.19734 31.2097H3.34823C3.31903 31.4125 3.2714 31.6054 3.26679 31.7997C3.2545 32.2722 3.27063 32.7447 3.25911 33.2172C3.24451 33.8234 2.9541 34.1883 2.35022 34.2567C1.88695 34.309 1.40677 34.3059 0.943492 34.249C0.398008 34.1822 0.117584 33.8342 0.0937668 33.281C0.0722548 32.7839 0.091462 32.2853 0.0784011 31.7874C0.0737914 31.6046 0.0284625 31.4233 -0.000732422 31.222H1.11328C1.08562 31.401 1.03722 31.5815 1.03261 31.7636C1.02109 32.21 1.02186 32.6571 1.03261 33.1043C1.04106 33.483 1.217 33.6413 1.61497 33.6574C2.06365 33.6759 2.30105 33.5184 2.31642 33.1404C2.33716 32.618 2.32871 32.0932 2.31872 31.57C2.31642 31.464 2.24958 31.3603 2.19657 31.2097H2.19734Z" fill="white"/>
<path d="M51.7587 31.2143H52.8927C52.8627 31.4356 52.8174 31.6415 52.8112 31.8497C52.7966 32.3214 52.8174 32.7947 52.7959 33.2664C52.769 33.8441 52.4909 34.1868 51.9231 34.2529C51.4598 34.3066 50.9804 34.3082 50.5171 34.2529C49.9363 34.1845 49.6467 33.8188 49.6297 33.2334C49.6159 32.7616 49.6336 32.2884 49.6213 31.8166C49.6167 31.6207 49.5721 31.4263 49.5437 31.2189H50.6462C50.6178 31.4455 50.5747 31.6522 50.5686 31.8604C50.5571 32.2684 50.5555 32.6779 50.5686 33.0858C50.5824 33.4938 50.7829 33.659 51.2201 33.6582C51.6634 33.6582 51.8493 33.4961 51.8562 33.0812C51.8647 32.5964 51.8655 32.1109 51.8539 31.6261C51.8509 31.4932 51.7932 31.361 51.7571 31.2143H51.7587Z" fill="white"/>
<path d="M83.7686 31.2151H84.8687C84.8411 31.4371 84.7981 31.6445 84.7919 31.8535C84.7804 32.2615 84.7812 32.6702 84.7911 33.0789C84.8011 33.49 84.9932 33.6567 85.4311 33.659C85.8744 33.6613 86.0742 33.4961 86.0834 33.0927C86.0942 32.608 86.0934 32.1224 86.0819 31.6376C86.0788 31.5062 86.0189 31.3756 85.9789 31.2227H87.0914C87.0683 31.4694 87.033 31.7144 87.0261 31.9603C87.0146 32.3936 87.0307 32.8285 87.0169 33.2618C87 33.8088 86.7165 34.143 86.1864 34.2567C85.6801 34.3658 85.1699 34.365 84.6651 34.2506C84.1519 34.1345 83.8746 33.8042 83.8577 33.2764C83.8423 32.8046 83.8592 32.3321 83.8469 31.8596C83.8415 31.6514 83.7978 31.4448 83.7693 31.2151H83.7686Z" fill="white"/>
<path d="M30.2513 31.2435V32.1047C29.672 31.9511 29.1242 31.6538 28.5142 31.9027C28.5565 32.1723 28.7255 32.2131 28.8784 32.2653C29.1673 32.3644 29.4661 32.4397 29.7473 32.558C30.2536 32.7708 30.461 33.0689 30.4211 33.4669C30.3765 33.9141 30.0953 34.1876 29.5583 34.3066C29.1404 34.3996 28.5895 34.3412 27.8389 34.12C27.7713 34.1653 27.6906 34.2191 27.5754 34.2959V33.2987C27.8842 33.4031 28.1769 33.5215 28.4796 33.5975C28.6863 33.6498 28.9099 33.6674 29.1219 33.6536C29.221 33.6467 29.3132 33.5284 29.4077 33.4608C29.3363 33.3809 29.2802 33.2679 29.1911 33.2287C29.0059 33.1465 28.7992 33.1158 28.6095 33.042C28.3736 32.9499 28.1262 32.8653 27.918 32.7255C27.3357 32.3345 27.4079 31.5692 28.0509 31.288C28.5895 31.053 29.1434 31.0929 29.7027 31.2366C29.8656 31.2788 30.0485 31.2427 30.2505 31.2427L30.2513 31.2435Z" fill="white"/>
<path d="M20.8605 34.2544H17.9825C18.1301 33.8634 18.1216 31.5831 17.9695 31.2174H20.8598V31.938C20.2574 31.7813 19.6636 31.8796 19.0443 31.8589V32.4343C19.4553 32.4167 19.8625 32.3982 20.279 32.3806V33.1273C20.0807 33.0981 19.8902 33.0582 19.6981 33.0451C19.4953 33.0313 19.2902 33.0421 19.052 33.0421V33.6198C19.6405 33.6052 20.2398 33.722 20.8598 33.5315V34.2544H20.8605Z" fill="white"/>
<path d="M54.8257 34.1184C54.7497 34.1737 54.6705 34.2314 54.5599 34.312V33.2948C54.8634 33.3978 55.1584 33.5122 55.4626 33.5968C55.6447 33.6467 55.8406 33.6659 56.0304 33.6674C56.1756 33.669 56.3846 33.6728 56.3746 33.4646C56.37 33.3709 56.2194 33.2556 56.1095 33.2019C55.9513 33.1243 55.7669 33.1035 55.5994 33.0421C55.3965 32.9675 55.1922 32.8899 55.0024 32.7893C54.6674 32.611 54.4992 32.3252 54.5345 31.9396C54.5699 31.557 54.8242 31.361 55.1584 31.2435C55.6731 31.0622 56.1863 31.1044 56.7042 31.2396C56.8578 31.2804 57.0269 31.2642 57.2258 31.2765V32.0909C56.6635 31.9688 56.1287 31.6361 55.5379 31.9034C55.5272 32.1831 55.7238 32.2085 55.8859 32.2684C56.244 32.4005 56.6181 32.5004 56.9569 32.6717C57.3641 32.8776 57.4863 33.2134 57.3795 33.6359C57.2958 33.9663 57.0599 34.1515 56.7518 34.2498C56.2347 34.415 55.7169 34.3574 55.2022 34.2267C55.0785 34.1952 54.9571 34.1561 54.8257 34.1184Z" fill="white"/>
<path d="M72.073 31.2765V32.127C71.9447 32.0817 71.8463 32.0348 71.7434 32.0125C71.4222 31.9419 71.0995 31.8297 70.7761 31.8258C70.2283 31.8197 69.8849 32.2269 69.9049 32.7739C69.9241 33.3117 70.266 33.6451 70.8107 33.6513C70.949 33.6528 71.0873 33.6352 71.2924 33.6221C71.2701 33.3202 71.2501 33.0413 71.2302 32.7601H72.1928V33.9947C71.3477 34.3719 70.4818 34.5141 69.6114 34.0339C69.0759 33.7389 68.8784 33.2357 68.9061 32.6456C68.9345 32.0433 69.2372 31.6061 69.7835 31.358C70.3389 31.106 70.9175 31.0952 71.5075 31.2396C71.6742 31.2804 71.8548 31.2642 72.073 31.2765Z" fill="white"/>
<path d="M35.6562 34.2552H34.4453C34.4369 34.0831 34.4292 33.9225 34.4207 33.7435H32.8166C32.7981 33.901 32.7782 34.0685 32.7566 34.2483H31.741C31.9131 33.8972 32.0683 33.5791 32.2258 33.2618C32.4808 32.7478 32.7443 32.2377 32.9902 31.7191C33.0609 31.57 33.0862 31.4002 33.14 31.2097H34.1011C34.6097 32.2054 35.1184 33.2011 35.6562 34.2544V34.2552ZM34.1211 33.1573C33.9406 32.7847 33.7861 32.4666 33.601 32.0848C33.4166 32.4781 33.2652 32.8008 33.0978 33.1573H34.1219H34.1211Z" fill="white"/>
<path d="M65.0762 31.2304V32.0371C64.6859 31.9595 64.3187 31.8389 63.946 31.8236C63.3053 31.7967 62.9327 32.2676 63.0341 32.8999C63.1055 33.3455 63.4106 33.6544 63.8685 33.6398C64.2657 33.6267 64.6606 33.5199 65.0785 33.4508V34.0178C64.3187 34.4972 63.1539 34.372 62.643 34.0078C62.1436 33.6521 61.9185 33.0528 62.0568 32.3798C62.1813 31.7759 62.6853 31.2873 63.3668 31.2059C63.7655 31.1582 64.1773 31.2205 64.583 31.2304C64.7397 31.2343 64.8964 31.2304 65.077 31.2304H65.0762Z" fill="white"/>
<path d="M14.4407 34.2483C13.9567 33.2457 13.4773 32.253 12.9786 31.2204H14.1533C14.1964 31.4194 14.2102 31.6207 14.2832 31.7974C14.4576 32.2192 14.6604 32.6287 14.8794 33.1028C15.1398 32.558 15.3818 32.074 15.5993 31.5792C15.6408 31.4847 15.5893 31.3488 15.5801 31.2174H16.6073C16.1056 32.2476 15.6215 33.2403 15.1314 34.2483H14.4415H14.4407Z" fill="white"/>
<path d="M37.1114 34.2367C37.2527 33.8533 37.2427 31.5808 37.0898 31.2158H38.1946C38.177 31.6069 38.1524 32.0002 38.1439 32.3936C38.1355 32.787 38.1416 33.1811 38.1416 33.619C38.7401 33.6129 39.304 33.7081 39.8833 33.5384V34.2367H37.1106H37.1114Z" fill="white"/>
<path d="M10.3972 31.2151H11.5343C11.4329 32.2184 11.4513 33.2172 11.522 34.2413H10.4172C10.6154 33.7512 10.5171 33.2349 10.5148 32.7286C10.5125 32.23 10.6277 31.7167 10.398 31.2151H10.3972Z" fill="white"/>
<path d="M59.1719 31.2082H60.375C60.1461 31.7014 60.2567 32.2085 60.2552 32.7032C60.2544 33.2049 60.1568 33.7182 60.3497 34.2383H59.2026C59.3463 33.8518 59.3363 31.5785 59.1719 31.2082Z" fill="white"/>
<path d="M46.4921 7.69397C46.638 7.70396 46.7978 7.68091 46.9284 7.73162C47.2127 7.84302 47.4808 7.99514 47.759 8.12345C47.8934 8.18568 48.034 8.23178 48.1815 8.2894C47.9157 8.38236 47.6798 8.34164 47.4916 8.23869C47.1651 8.06122 46.824 7.90986 46.4897 7.74776C46.4905 7.72932 46.4921 7.71165 46.4928 7.69321L46.4921 7.69397Z" fill="white"/>
</g>
<defs>
<clipPath id="clip0_1278_592">
<rect width="92" height="34.0789" fill="white" transform="translate(0 0.299988)"/>
</clipPath>
</defs>
</svg>
