<svg width="33" height="33" viewBox="0 0 33 33" fill="none" xmlns="http://www.w3.org/2000/svg">
<path d="M15.0801 24.3333H17.7465V17.7733H24.3333V15.1065H17.7465V8.33325H15.0801V15.1065H8.33325V17.7733H15.0801V24.3333ZM16.3405 32.3333C14.1317 32.3333 12.0561 31.9133 10.1137 31.0733C8.17125 30.2333 6.47552 29.0889 5.02645 27.6401C3.57765 26.191 2.43325 24.4946 1.59325 22.5509C0.753252 20.6071 0.333252 18.5302 0.333252 16.3201C0.333252 14.1099 0.753252 12.0329 1.59325 10.0889C2.43325 8.14512 3.57765 6.45325 5.02645 5.01325C6.47552 3.57325 8.17192 2.43325 10.1157 1.59325C12.0594 0.753252 14.1363 0.333252 16.3465 0.333252C18.5566 0.333252 20.6337 0.753252 22.5777 1.59325C24.5214 2.43325 26.2133 3.57325 27.6533 5.01325C29.0933 6.45325 30.2333 8.14659 31.0733 10.0933C31.9133 12.0399 32.3333 14.1175 32.3333 16.3261C32.3333 18.5349 31.9133 20.6105 31.0733 22.5529C30.2333 24.4953 29.0933 26.1893 27.6533 27.6349C26.2133 29.0805 24.5199 30.225 22.5733 31.0685C20.6266 31.9117 18.549 32.3333 16.3405 32.3333Z" fill="white"/>
</svg>
