<svg width="2430" height="728" viewBox="0 0 2430 728" fill="none" xmlns="http://www.w3.org/2000/svg">
<g opacity="0.3" clip-path="url(#clip0_1288_63)">
<path d="M0 36.4C30.7031 38.8373 61.4073 41.2754 87.48 40.768C113.553 40.2606 134.994 36.8091 160.38 34.944C185.766 33.0788 215.096 32.8015 244.215 33.488C273.334 34.1745 302.239 35.8249 330.48 35.672C358.721 35.5191 386.297 33.5608 411.885 32.032C437.473 30.5032 461.073 29.401 486 32.032C510.927 34.663 537.179 41.0271 566.19 42.952C595.201 44.8768 626.97 42.3623 654.885 41.496C682.8 40.6297 706.86 41.4108 730.215 41.496C753.57 41.5812 776.216 40.9696 803.115 39.312C830.014 37.6543 861.163 34.9491 891.81 35.672C922.457 36.3949 952.601 40.5452 978.075 40.04C1003.55 39.5347 1024.35 34.3732 1049.76 32.032C1075.17 29.6907 1105.18 30.169 1131.17 30.576C1157.15 30.9829 1179.11 31.3178 1206.5 31.304C1233.88 31.2901 1266.68 30.9276 1293.98 32.76C1321.27 34.5924 1343.05 38.6189 1371.74 40.04C1400.42 41.461 1436.02 40.2773 1465.29 39.312C1494.56 38.3467 1517.49 37.5997 1543.05 34.944C1568.61 32.2882 1596.78 27.7229 1620.81 29.12C1644.84 30.517 1664.72 37.8756 1692.5 39.312C1720.27 40.7483 1755.94 36.2624 1783.62 36.4C1811.3 36.5376 1830.98 41.2987 1854.09 42.952C1877.2 44.6053 1903.73 43.1515 1935.5 40.04C1967.26 36.9285 2004.25 32.1608 2031.48 33.488C2058.71 34.8151 2076.19 42.2378 2098.31 41.496C2120.42 40.7541 2147.18 31.8485 2178.5 29.12C2209.81 26.3914 2245.67 29.8414 2273.27 33.488C2300.87 37.1345 2320.2 40.9776 2344.95 41.496C2369.7 42.0143 2399.85 39.2071 2478.6 36.4" stroke="white" stroke-opacity="0.3" stroke-linecap="round"/>
<path d="M0 72.8C25.0254 69.0203 50.0507 65.2398 78.975 65.52C107.899 65.8003 140.723 70.1399 167.67 70.616C194.617 71.0921 215.687 67.704 243 66.976C270.313 66.248 303.865 68.1816 330.48 69.16C357.095 70.1385 376.769 70.1632 402.165 70.616C427.561 71.0688 458.678 71.9512 484.785 72.072C510.892 72.1929 531.988 71.5537 560.115 69.888C588.242 68.2224 623.397 65.5302 650.025 65.52C676.653 65.5098 694.754 68.1809 720.495 69.16C746.236 70.1392 779.617 69.4258 810.405 71.344C841.193 73.2623 869.39 77.8138 897.885 76.44C926.38 75.0663 955.175 67.7696 979.29 68.432C1003.41 69.0945 1022.84 77.7191 1047.33 78.624C1071.82 79.5289 1101.35 72.7149 1129.95 72.072C1158.55 71.4292 1186.21 76.9576 1213.79 77.168C1241.36 77.3784 1268.83 72.27 1297.62 70.616C1326.41 68.962 1356.5 70.7616 1381.46 72.072C1406.41 73.3824 1426.23 74.2036 1450.71 74.256C1475.19 74.3084 1504.32 73.5914 1532.12 73.528C1559.91 73.4647 1586.36 74.0544 1615.95 73.528C1645.54 73.0017 1678.26 71.3586 1708.29 71.344C1738.32 71.3295 1765.66 72.9413 1789.7 73.528C1813.73 74.1148 1834.48 73.6765 1861.38 73.528C1888.29 73.3795 1921.35 73.5208 1948.86 72.072C1976.37 70.6233 1998.31 67.5876 2022.98 68.432C2047.64 69.2765 2075.01 74.0041 2103.17 73.528C2131.32 73.0519 2160.25 67.3735 2189.43 66.976C2218.61 66.5785 2248.04 71.4605 2274.48 71.344C2300.92 71.2276 2324.39 66.1104 2349.81 65.52C2375.23 64.9296 2402.62 68.8645 2478.6 72.8" stroke="white" stroke-opacity="0.55" stroke-linecap="round"/>
<path d="M0 109.2C30.245 113.481 60.49 117.76 86.265 115.752C112.04 113.744 133.344 105.448 156.735 103.376C180.126 101.304 205.605 105.457 235.71 107.016C265.815 108.575 300.547 107.543 330.48 105.56C360.413 103.577 385.544 100.645 409.455 102.648C433.366 104.651 456.056 111.592 479.925 113.568C503.794 115.544 528.841 112.555 558.9 112.84C588.959 113.125 624.026 116.682 651.24 115.024C678.454 113.366 697.811 106.491 721.71 105.56C745.609 104.629 774.052 109.641 801.9 112.112C829.748 114.583 857 114.511 886.95 111.384C916.9 108.257 949.543 102.073 978.075 103.376C1006.61 104.679 1031.03 113.47 1054.62 115.024C1078.21 116.578 1100.98 110.895 1127.52 107.744C1154.06 104.593 1184.38 103.975 1212.57 103.376C1240.76 102.777 1266.83 102.198 1296.41 104.832C1325.98 107.466 1359.05 113.313 1383.89 112.84C1408.72 112.367 1425.33 105.572 1449.5 104.832C1473.66 104.092 1505.37 109.404 1534.55 109.928C1563.72 110.452 1590.37 106.186 1617.17 107.016C1643.96 107.846 1670.91 113.769 1697.36 115.024C1723.8 116.279 1749.74 112.866 1778.76 111.384C1807.78 109.902 1839.88 110.35 1867.46 109.2C1895.03 108.05 1918.07 105.299 1942.79 104.832C1967.5 104.365 1993.9 106.181 2022.98 106.288C2052.05 106.395 2083.81 104.792 2111.67 105.56C2139.53 106.328 2163.5 109.466 2189.43 109.928C2215.36 110.39 2243.23 108.176 2269.62 107.016C2296.01 105.856 2320.9 105.749 2347.38 106.288C2373.86 106.827 2401.93 108.013 2478.6 109.2" stroke="white" stroke-opacity="0.7" stroke-linecap="round"/>
<path d="M0 145.6C22.7849 146.466 45.571 147.333 72.9 146.328C100.229 145.323 132.103 142.45 162.81 144.144C193.517 145.838 223.058 152.101 250.29 152.152C277.522 152.203 302.446 146.043 325.62 144.872C348.794 143.701 370.217 147.522 397.305 147.784C424.393 148.046 457.145 144.752 487.215 144.144C517.285 143.536 544.672 145.616 571.05 145.6C597.428 145.584 622.796 143.472 648.81 141.96C674.824 140.448 701.486 139.536 729 139.048C756.514 138.56 784.878 138.496 812.835 140.504C840.792 142.512 868.342 146.59 894.24 149.24C920.138 151.89 944.383 153.112 970.785 150.696C997.187 148.281 1025.75 142.229 1053.41 142.688C1081.06 143.147 1107.82 150.119 1133.6 151.424C1159.37 152.729 1184.18 148.369 1210.14 145.6C1236.1 142.831 1263.23 141.652 1292.76 141.232C1322.29 140.812 1354.24 141.15 1381.46 143.416C1408.67 145.682 1431.15 149.877 1458 152.152C1484.85 154.427 1516.06 154.783 1544.27 151.424C1572.47 148.065 1597.65 140.99 1622.03 141.232C1646.4 141.474 1669.98 149.032 1696.14 150.696C1722.3 152.36 1751.05 148.13 1778.76 147.784C1806.47 147.438 1833.14 150.976 1861.38 149.24C1889.62 147.504 1919.43 140.494 1947.65 138.32C1975.86 136.146 2002.49 138.809 2030.27 139.776C2058.04 140.744 2086.96 140.015 2111.67 139.776C2136.38 139.537 2156.87 139.787 2183.36 142.688C2209.84 145.589 2242.31 151.141 2270.84 150.696C2299.36 150.251 2323.94 143.809 2349.81 141.96C2375.68 140.111 2402.84 142.855 2478.6 145.6" stroke="white" stroke-opacity="0.6" stroke-linecap="round"/>
<path d="M0 182C27.6498 184.15 55.2995 186.3 81.405 187.096C107.51 187.892 132.073 187.335 160.38 184.912C188.687 182.489 220.739 178.201 246.645 179.088C272.551 179.975 292.31 186.037 317.115 186.368C341.92 186.699 371.771 181.3 399.735 181.272C427.699 181.244 453.779 186.589 481.14 187.096C508.501 187.603 537.143 183.273 563.76 182.728C590.377 182.183 614.971 185.422 641.52 184.184C668.069 182.946 696.573 177.229 724.14 176.904C751.707 176.579 778.335 181.646 805.545 184.184C832.755 186.722 860.544 186.729 888.165 187.096C915.786 187.463 943.237 188.189 968.355 185.64C993.473 183.091 1016.26 177.267 1044.9 177.632C1073.54 177.997 1108.05 184.552 1136.03 184.912C1164 185.272 1185.45 179.44 1212.57 179.816C1239.69 180.192 1272.5 186.777 1300.05 188.552C1327.61 190.327 1349.91 187.292 1376.6 184.912C1403.28 182.532 1434.33 180.808 1460.43 182.728C1486.53 184.648 1507.68 190.214 1533.33 188.552C1558.98 186.89 1589.15 178.002 1617.17 174.72C1645.18 171.438 1671.05 173.764 1696.14 174.72C1721.23 175.676 1745.55 175.262 1775.12 176.904C1804.68 178.546 1839.5 182.242 1867.46 184.184C1895.41 186.126 1916.49 186.313 1941.57 184.912C1966.65 183.511 1995.73 180.52 2022.98 180.544C2050.22 180.568 2075.62 183.607 2100.74 182.728C2125.85 181.849 2150.67 177.051 2178.5 176.176C2206.32 175.301 2237.16 178.348 2265.98 180.544C2294.79 182.74 2321.59 184.084 2348.6 184.184C2375.6 184.284 2402.8 183.143 2478.6 182" stroke="white" stroke-opacity="0.85" stroke-linecap="round"/>
<path d="M0 218.4C28.7299 218.642 57.4598 218.883 82.62 216.944C107.78 215.005 129.372 210.886 157.95 212.576C186.528 214.266 222.092 221.765 247.86 222.04C273.628 222.315 289.598 215.367 317.115 213.304C344.632 211.241 383.697 214.063 411.885 216.944C440.073 219.825 457.386 222.767 481.14 223.496C504.894 224.225 535.093 222.743 564.975 219.856C594.857 216.969 624.423 212.678 653.67 214.032C682.917 215.386 711.848 222.387 735.075 224.224C758.302 226.061 775.824 222.732 803.115 222.04C830.406 221.348 867.465 223.291 897.885 222.04C928.305 220.789 952.086 216.343 975.645 214.032C999.204 211.721 1022.54 211.545 1049.76 212.576C1076.98 213.607 1108.08 215.845 1134.81 218.4C1161.54 220.955 1183.9 223.829 1212.57 222.04C1241.24 220.251 1276.23 213.799 1302.48 214.032C1328.73 214.265 1346.24 221.184 1369.31 224.952C1392.37 228.72 1420.99 229.339 1450.71 224.952C1480.43 220.565 1511.26 211.172 1540.62 211.12C1569.98 211.068 1597.87 220.356 1624.46 224.224C1651.04 228.092 1676.32 226.539 1703.43 224.224C1730.54 221.909 1759.49 218.834 1786.05 216.944C1812.61 215.054 1836.78 214.349 1861.38 214.76C1885.98 215.171 1911.01 216.696 1939.14 219.128C1967.27 221.559 1998.49 224.894 2027.84 223.496C2057.18 222.097 2084.66 215.964 2112.89 213.304C2141.11 210.644 2170.09 211.458 2194.29 214.032C2218.49 216.606 2237.91 220.941 2262.33 221.312C2286.75 221.683 2316.17 218.09 2344.95 216.944C2373.73 215.798 2401.86 217.099 2478.6 218.4" stroke="white" stroke-opacity="0.25" stroke-linecap="round"/>
<path d="M0 254.8C28.3095 253.986 56.6178 253.173 82.62 251.888C108.622 250.603 132.318 248.848 159.165 251.16C186.012 253.472 216.008 259.852 244.215 258.44C272.422 257.028 298.841 247.824 324.405 248.248C349.969 248.672 374.678 258.723 403.38 261.352C432.082 263.981 464.776 259.187 492.075 256.256C519.374 253.325 541.274 252.256 567.405 251.888C593.536 251.52 623.896 251.851 650.025 251.16C676.154 250.469 698.049 248.756 722.925 249.704C747.801 250.652 775.656 254.26 803.115 256.984C830.574 259.708 857.638 261.549 886.95 259.896C916.262 258.243 947.822 253.098 973.215 249.704C998.609 246.31 1017.84 244.667 1044.9 247.52C1071.96 250.373 1106.86 257.721 1134.81 259.896C1162.76 262.071 1183.77 259.072 1208.93 258.44C1234.08 257.808 1263.4 259.543 1291.55 259.168C1319.69 258.793 1346.68 256.308 1374.17 254.8C1401.65 253.292 1429.63 252.76 1456.79 254.072C1483.94 255.384 1510.25 258.54 1539.41 257.712C1568.56 256.884 1600.55 252.072 1625.67 249.704C1650.79 247.336 1669.04 247.411 1694.93 249.704C1720.81 251.997 1754.32 256.509 1783.62 255.528C1812.92 254.547 1838 248.071 1863.81 247.52C1889.62 246.969 1916.17 252.343 1944 254.072C1971.83 255.801 2000.95 253.885 2027.84 254.8C2054.72 255.715 2079.39 259.461 2103.17 260.624C2126.94 261.787 2149.83 260.366 2179.71 259.896C2209.59 259.426 2246.45 259.91 2274.48 260.624C2302.51 261.338 2321.72 262.284 2346.17 261.352C2370.61 260.42 2400.31 257.61 2478.6 254.8" stroke="white" stroke-opacity="0.5" stroke-linecap="round"/>
<path d="M0 291.2C26.5307 288.964 53.0627 286.728 80.19 286.832C107.317 286.936 135.041 289.381 162.81 291.928C190.579 294.475 218.394 297.124 243 294.84C267.606 292.556 289.004 285.337 317.115 286.104C345.226 286.871 380.052 295.625 407.025 297.752C433.998 299.879 453.118 295.38 479.925 292.656C506.732 289.932 541.223 288.982 569.835 290.472C598.447 291.962 621.18 295.893 648.81 295.568C676.44 295.243 708.97 290.665 733.86 291.2C758.751 291.735 776.004 297.384 803.115 297.024C830.227 296.664 867.199 290.294 895.455 287.56C923.711 284.826 943.252 285.728 968.355 285.376C993.458 285.024 1024.12 283.416 1050.98 286.104C1077.83 288.793 1100.86 295.776 1128.74 297.752C1156.61 299.728 1189.32 296.695 1219.86 295.568C1250.4 294.441 1278.77 295.219 1302.48 294.112C1326.19 293.005 1345.25 290.013 1370.52 290.472C1395.79 290.931 1427.28 294.84 1458 294.84C1488.72 294.84 1518.66 290.933 1543.05 288.288C1567.44 285.643 1586.26 284.262 1613.52 285.376C1640.78 286.49 1676.46 290.099 1704.65 291.928C1732.83 293.757 1753.52 293.804 1777.55 293.384C1801.57 292.964 1828.93 292.077 1858.95 291.2C1888.97 290.324 1921.64 289.459 1947.65 287.56C1973.65 285.661 1992.99 282.729 2019.33 284.648C2045.67 286.567 2079.02 293.337 2105.6 296.296C2132.17 299.255 2151.99 298.403 2179.71 297.752C2207.43 297.101 2243.06 296.653 2272.05 296.296C2301.04 295.939 2323.38 295.674 2348.6 294.84C2373.81 294.006 2401.91 292.603 2478.6 291.2" stroke="white" stroke-opacity="0.9" stroke-linecap="round"/>
<path d="M0 327.6C26.3048 326.089 52.6107 324.579 81.405 323.96C110.199 323.341 141.482 323.613 166.455 322.504C191.428 321.395 210.092 318.906 235.71 321.048C261.328 323.19 293.899 329.962 325.62 333.424C357.341 336.886 388.211 337.039 411.885 333.424C435.559 329.81 452.036 322.429 478.71 322.504C505.384 322.579 542.255 330.112 569.835 332.696C597.416 335.28 615.702 332.92 641.52 331.24C667.338 329.561 700.683 328.563 731.43 327.6C762.177 326.637 790.326 325.707 816.48 326.872C842.634 328.037 866.791 331.295 894.24 330.512C921.689 329.729 952.429 324.904 976.86 323.96C1001.29 323.016 1019.42 325.951 1046.12 326.872C1072.81 327.793 1108.09 326.699 1139.67 326.144C1171.25 325.589 1199.14 325.572 1222.29 324.688C1245.44 323.804 1263.85 322.054 1290.33 323.96C1316.81 325.866 1351.38 331.429 1381.46 331.24C1411.53 331.051 1437.13 325.11 1460.43 323.96C1483.73 322.811 1504.75 326.453 1532.12 326.872C1559.48 327.291 1593.2 324.484 1620.81 324.688C1648.42 324.892 1669.93 328.105 1693.71 329.784C1717.49 331.464 1743.56 331.609 1773.9 331.24C1804.24 330.871 1838.86 329.987 1868.67 330.512C1898.48 331.037 1923.48 332.971 1947.65 331.24C1971.81 329.509 1995.13 324.112 2021.76 323.232C2048.39 322.352 2078.31 325.989 2104.38 325.416C2130.45 324.843 2152.65 320.062 2180.93 321.776C2209.2 323.49 2243.54 331.702 2270.84 332.696C2298.13 333.69 2318.38 327.468 2343.74 325.416C2369.09 323.364 2399.54 325.482 2478.6 327.6" stroke="white" stroke-linecap="round"/>
<path d="M0 364C25.5879 365.642 51.1758 367.283 80.19 367.64C109.204 367.997 141.646 367.067 167.67 366.184C193.694 365.301 213.301 364.464 240.57 362.544C267.839 360.624 302.773 357.618 328.05 358.904C353.327 360.19 368.947 365.767 396.09 366.912C423.233 368.057 461.902 364.769 490.86 364C519.818 363.23 539.066 364.978 566.19 367.64C593.314 370.302 628.314 373.879 654.885 370.552C681.456 367.225 699.597 356.994 726.57 356.72C753.543 356.446 789.349 366.128 816.48 369.096C843.611 372.064 862.067 368.318 885.735 366.912C909.403 365.506 938.285 366.44 967.14 368.368C995.995 370.296 1024.82 373.219 1050.98 370.552C1077.13 367.885 1100.61 359.627 1126.31 357.448C1152 355.269 1179.91 359.168 1210.14 361.088C1240.37 363.008 1272.9 362.947 1301.27 364C1329.63 365.053 1353.81 367.219 1376.6 369.096C1399.38 370.973 1420.76 372.559 1449.5 369.096C1478.23 365.633 1514.32 357.12 1543.05 356.72C1571.78 356.32 1593.15 364.031 1617.17 366.184C1641.18 368.337 1667.85 364.933 1696.14 365.456C1724.43 365.979 1754.34 370.429 1783.62 369.096C1812.9 367.763 1841.56 360.646 1867.46 360.36C1893.35 360.074 1916.47 366.619 1940.36 367.64C1964.24 368.661 1988.87 364.156 2019.33 364C2049.79 363.844 2086.06 368.037 2112.89 368.368C2139.71 368.699 2157.09 365.17 2179.71 365.456C2202.33 365.742 2230.19 369.845 2259.9 368.368C2289.61 366.891 2321.15 359.834 2349.81 358.176C2378.47 356.518 2404.23 360.259 2478.6 364" stroke="white" stroke-opacity="0.2" stroke-linecap="round"/>
<path d="M0 400.4C26.2027 400.645 52.4054 400.889 80.19 401.856C107.975 402.823 137.34 404.512 165.24 405.496C193.14 406.48 219.576 406.76 244.215 406.952C268.854 407.144 291.697 407.25 319.545 404.04C347.393 400.83 380.248 394.306 407.025 395.304C433.802 396.302 454.502 404.824 481.14 405.496C507.778 406.168 540.352 398.991 571.05 396.76C601.748 394.529 630.573 397.246 654.885 397.488C679.197 397.73 698.999 395.498 724.14 396.76C749.281 398.022 779.76 402.777 806.76 404.768C833.76 406.759 857.281 405.985 884.52 404.04C911.759 402.095 942.716 398.977 969.57 398.216C996.424 397.455 1019.17 399.049 1046.12 398.944C1073.06 398.839 1104.19 397.034 1131.17 396.76C1158.14 396.486 1180.97 397.743 1206.5 399.672C1232.02 401.601 1260.26 404.202 1289.12 404.768C1317.97 405.334 1347.44 403.867 1374.17 401.128C1400.9 398.389 1424.89 394.379 1454.36 395.304C1483.82 396.229 1518.77 402.089 1544.27 401.856C1569.76 401.623 1585.82 395.297 1612.31 393.848C1638.79 392.399 1675.7 395.827 1703.43 399.672C1731.16 403.517 1749.69 407.779 1775.12 406.952C1800.54 406.125 1832.84 400.208 1860.17 399.672C1887.49 399.136 1909.83 403.982 1937.93 403.312C1966.02 402.642 1999.89 396.459 2026.62 396.032C2053.35 395.605 2072.96 400.937 2099.52 402.584C2126.08 404.231 2159.6 402.192 2188.22 402.584C2216.83 402.976 2240.55 405.797 2268.41 404.768C2296.26 403.739 2328.26 398.858 2355.89 397.488C2383.51 396.118 2406.75 398.26 2478.6 400.4" stroke="white" stroke-opacity="0.75" stroke-linecap="round"/>
<path d="M0 436.8C27.6996 437.554 55.4004 438.308 82.62 438.984C109.84 439.66 136.581 440.256 162.81 440.44C189.039 440.624 214.759 440.396 240.57 439.712C266.381 439.028 292.285 437.886 318.33 436.072C344.375 434.258 370.563 431.769 397.305 430.976C424.047 430.182 451.347 431.081 479.925 432.432C508.503 433.783 538.36 435.586 568.62 436.072C598.88 436.558 629.544 435.725 654.885 436.072C680.226 436.419 700.247 437.943 724.14 436.072C748.033 434.201 775.801 428.934 804.33 430.248C832.859 431.562 862.152 439.456 889.38 441.896C916.608 444.336 941.768 441.322 967.14 439.712C992.512 438.102 1018.09 437.895 1047.33 438.984C1076.57 440.073 1109.45 442.458 1139.67 442.624C1169.89 442.79 1197.43 440.736 1221.08 441.168C1244.72 441.6 1264.47 444.517 1287.9 442.624C1311.33 440.731 1338.43 434.028 1369.31 433.888C1400.18 433.748 1434.82 440.172 1465.29 440.44C1495.76 440.708 1522.05 434.82 1544.27 432.432C1566.48 430.044 1584.62 431.158 1612.31 432.432C1639.99 433.706 1677.23 435.142 1707.08 435.344C1736.92 435.546 1759.36 434.512 1782.41 435.344C1805.45 436.176 1829.11 438.873 1858.95 441.168C1888.79 443.463 1924.81 445.357 1951.29 442.624C1977.77 439.891 1994.72 432.533 2019.33 429.52C2043.94 426.507 2076.22 427.84 2103.17 429.52C2130.11 431.2 2151.74 433.228 2179.71 433.16C2207.68 433.092 2242.01 430.93 2269.62 431.704C2297.23 432.478 2318.12 436.189 2343.74 437.528C2369.35 438.867 2399.67 437.834 2478.6 436.8" stroke="white" stroke-linecap="round"/>
<path d="M0 473.2C25.1955 471.555 50.3897 469.911 77.76 468.104C105.13 466.297 134.674 464.327 161.595 467.376C188.516 470.425 212.812 478.493 238.14 479.752C263.468 481.011 289.826 475.462 315.9 474.656C341.974 473.85 367.761 477.789 398.52 476.84C429.279 475.891 465.007 470.056 492.075 468.832C519.143 467.608 537.549 470.994 563.76 472.472C589.971 473.95 623.985 473.519 652.455 473.928C680.925 474.337 703.85 475.586 727.785 474.656C751.721 473.726 776.668 470.615 803.115 470.288C829.562 469.961 857.509 472.419 883.305 473.2C909.101 473.981 932.746 473.086 963.495 471.016C994.244 468.946 1032.1 465.699 1060.7 465.92C1089.29 466.141 1108.63 469.826 1131.17 471.744C1153.7 473.662 1179.42 473.809 1206.5 473.928C1233.57 474.047 1262 474.135 1292.76 475.384C1323.52 476.633 1356.6 479.04 1383.89 477.568C1411.17 476.096 1432.65 470.744 1458 470.288C1483.35 469.832 1512.58 474.27 1538.19 476.84C1563.8 479.41 1585.79 480.112 1612.31 478.296C1638.82 476.48 1669.84 472.146 1698.57 472.472C1727.3 472.798 1753.72 477.785 1779.98 479.024C1806.23 480.263 1832.31 477.754 1860.17 476.84C1888.02 475.926 1917.63 476.606 1946.43 475.384C1975.23 474.162 2003.2 471.039 2027.84 469.56C2052.47 468.081 2073.77 468.245 2100.74 471.016C2127.7 473.787 2160.33 479.167 2189.43 479.024C2218.53 478.881 2244.09 473.217 2269.62 473.2C2295.15 473.183 2320.65 478.811 2347.38 479.752C2374.11 480.693 2402.05 476.946 2478.6 473.2" stroke="white" stroke-opacity="0.8" stroke-linecap="round"/>
<path d="M0 509.6C25.4178 506.726 50.8356 503.851 76.545 505.96C102.254 508.069 128.255 515.161 156.735 516.152C185.215 517.144 216.176 512.035 243 508.872C269.824 505.709 292.508 504.492 319.545 504.504C346.582 504.516 377.972 505.758 407.025 505.96C436.078 506.162 462.794 505.322 489.645 505.96C516.497 506.599 543.482 508.714 567.405 508.144C591.328 507.574 612.192 504.317 640.305 503.776C668.418 503.235 703.779 505.41 730.215 508.144C756.651 510.878 774.162 514.169 801.9 513.968C829.638 513.767 867.605 510.075 897.885 507.416C928.165 504.757 950.759 503.134 973.215 503.776C995.671 504.418 1017.99 507.327 1047.33 509.6C1076.67 511.874 1113.04 513.513 1140.89 511.784C1168.73 510.055 1188.07 504.958 1215 503.776C1241.93 502.594 1276.46 505.325 1302.48 506.688C1328.5 508.051 1346.02 508.046 1369.31 506.688C1392.59 505.33 1421.63 502.62 1449.5 504.504C1477.36 506.388 1504.05 512.866 1532.12 513.968C1560.18 515.07 1589.63 510.798 1619.6 510.328C1649.56 509.858 1680.05 513.192 1707.08 515.424C1734.1 517.656 1757.67 518.786 1781.19 516.152C1804.71 513.518 1828.17 507.12 1856.52 505.96C1884.87 504.8 1918.12 508.879 1946.43 509.6C1974.74 510.321 1998.1 507.682 2025.41 508.872C2052.71 510.062 2083.96 515.082 2111.67 514.696C2139.38 514.31 2163.54 508.521 2188.22 506.688C2212.89 504.855 2238.08 506.979 2265.98 508.144C2293.87 509.31 2324.45 509.517 2352.24 509.6C2380.03 509.683 2405.01 509.642 2478.6 509.6" stroke="white" stroke-opacity="0.65" stroke-linecap="round"/>
<path d="M0 546C24.8382 543.651 49.6765 541.301 76.545 542.36C103.414 543.419 132.314 547.886 160.38 548.912C188.447 549.938 215.678 547.527 244.215 546C272.752 544.473 302.596 543.833 329.265 542.36C355.934 540.887 379.432 538.583 403.38 540.176C427.328 541.769 451.722 547.258 477.495 548.184C503.268 549.11 530.416 545.472 558.9 544.544C587.384 543.616 617.204 545.397 647.595 546.728C677.986 548.059 708.946 548.94 733.86 546.728C758.774 544.516 777.639 539.213 805.545 538.72C833.451 538.227 870.398 542.544 897.885 544.544C925.372 546.544 943.401 546.226 967.14 546C990.879 545.774 1020.33 545.64 1048.55 545.272C1076.76 544.904 1103.74 544.304 1132.38 544.544C1161.02 544.784 1191.31 545.862 1219.86 548.184C1248.41 550.506 1275.2 554.07 1298.84 552.552C1322.47 551.034 1342.93 544.435 1370.52 540.904C1398.11 537.373 1432.81 536.912 1462.86 538.72C1492.91 540.528 1518.3 544.605 1543.05 546.728C1567.8 548.851 1591.91 549.02 1617.17 546.728C1642.42 544.436 1668.81 539.684 1696.14 539.448C1723.47 539.212 1751.72 543.494 1781.19 544.544C1810.66 545.594 1841.34 543.413 1868.67 543.088C1896 542.763 1919.96 544.295 1944 543.816C1968.04 543.337 1992.14 540.847 2019.33 540.176C2046.52 539.505 2076.79 540.651 2106.81 543.816C2136.83 546.981 2166.61 552.162 2194.29 550.368C2221.97 548.574 2247.54 539.805 2272.05 540.176C2296.56 540.547 2320.02 550.058 2346.17 552.552C2372.31 555.046 2401.16 550.523 2478.6 546" stroke="white" stroke-opacity="0.15" stroke-linecap="round"/>
<path d="M0 582.4C23.8262 582.446 47.6523 582.491 76.545 583.128C105.438 583.765 139.397 584.992 167.67 584.584C195.943 584.176 218.531 582.131 244.215 580.216C269.899 578.301 298.677 576.513 325.62 578.032C352.563 579.551 377.667 584.374 403.38 586.04C429.093 587.706 455.415 586.215 483.57 585.312C511.725 584.409 541.714 584.095 571.05 585.312C600.386 586.529 629.069 589.277 653.67 586.768C678.271 584.259 698.79 576.493 725.355 577.304C751.92 578.115 784.532 587.503 811.62 587.496C838.708 587.489 860.276 578.085 885.735 577.304C911.194 576.523 940.546 584.365 970.785 585.312C1001.02 586.259 1032.15 580.312 1058.27 578.032C1084.38 575.752 1105.48 577.14 1131.17 580.216C1156.85 583.292 1187.13 588.056 1215 588.952C1242.87 589.848 1268.35 586.877 1296.41 586.768C1324.46 586.659 1355.1 589.409 1383.89 587.496C1412.67 585.583 1439.6 579.005 1462.86 578.76C1486.12 578.515 1505.71 584.603 1533.33 585.312C1560.95 586.021 1596.61 581.35 1626.89 578.76C1657.16 576.17 1682.06 575.66 1705.86 576.576C1729.66 577.492 1752.36 579.832 1779.98 580.216C1807.59 580.6 1840.12 579.025 1869.89 579.488C1899.65 579.951 1926.67 582.451 1950.08 583.856C1973.48 585.261 1993.28 585.569 2020.55 583.128C2047.81 580.687 2082.53 575.498 2112.89 576.576C2143.24 577.654 2169.23 585 2191.86 586.768C2214.49 588.536 2233.75 584.724 2261.12 583.128C2288.48 581.532 2323.96 582.152 2353.46 582.4C2382.95 582.648 2406.48 582.524 2478.6 582.4" stroke="white" stroke-opacity="0.35" stroke-linecap="round"/>
<path d="M0 618.8C29.906 620.118 59.812 621.437 86.265 622.44C112.718 623.443 135.719 624.131 160.38 622.44C185.041 620.749 211.361 616.679 236.925 615.888C262.489 615.097 287.299 617.583 315.9 617.344C344.501 617.105 376.893 614.141 404.595 615.16C432.297 616.179 455.309 621.183 481.14 623.168C506.971 625.153 535.621 624.119 562.545 622.44C589.469 620.76 614.672 618.435 642.735 619.528C670.798 620.621 701.72 625.132 730.215 623.168C758.71 621.204 784.777 612.765 812.835 611.52C840.893 610.275 870.94 616.224 895.455 618.072C919.97 619.92 938.952 617.664 967.14 619.528C995.328 621.392 1032.72 627.374 1059.48 625.352C1086.24 623.33 1102.36 613.306 1127.52 611.52C1152.68 609.733 1186.88 616.186 1215 618.8C1243.12 621.414 1265.17 620.192 1292.76 617.344C1320.35 614.496 1353.47 610.024 1381.46 611.52C1409.44 613.016 1432.3 620.482 1455.57 621.712C1478.84 622.942 1502.54 617.939 1532.12 616.616C1561.69 615.293 1597.14 617.652 1624.46 617.344C1651.77 617.036 1670.97 614.062 1697.36 613.704C1723.74 613.346 1757.33 615.603 1783.62 618.8C1809.91 621.997 1828.9 626.133 1855.31 625.352C1881.71 624.571 1915.52 618.873 1944 615.888C1972.48 612.903 1995.61 612.632 2020.55 615.888C2045.48 619.144 2072.2 625.927 2101.95 624.624C2131.7 623.321 2164.49 613.933 2191.86 613.704C2219.23 613.475 2241.19 622.406 2265.98 623.896C2290.76 625.385 2318.36 619.433 2346.17 617.344C2373.97 615.255 2401.99 617.027 2478.6 618.8" stroke="white" stroke-opacity="0.4" stroke-linecap="round"/>
<path d="M0 655.2C29.1078 654.647 58.2155 654.095 82.62 653.016C107.024 651.937 126.725 650.332 154.305 652.288C181.886 654.244 217.349 659.762 247.86 661.752C278.371 663.742 303.931 662.206 329.265 661.752C354.599 661.298 379.708 661.927 408.24 660.296C436.772 658.665 468.725 654.774 493.29 652.288C517.855 649.802 535.03 648.721 561.33 649.376C587.63 650.031 623.056 652.424 651.24 655.2C679.424 657.976 700.37 661.135 727.785 659.568C755.2 658.001 789.087 651.711 817.695 648.648C846.303 645.585 869.633 645.752 893.025 649.376C916.417 653 939.872 660.081 965.925 660.296C991.978 660.512 1020.63 653.862 1047.33 650.832C1074.03 647.802 1098.78 648.391 1126.31 650.832C1153.83 653.273 1184.15 657.565 1211.36 657.384C1238.56 657.203 1262.66 652.548 1289.12 652.288C1315.57 652.028 1344.37 656.162 1371.74 655.2C1399.1 654.238 1425.02 648.18 1451.93 649.376C1478.83 650.572 1506.73 659.023 1534.55 660.296C1562.36 661.569 1590.1 655.664 1617.17 652.288C1644.23 648.912 1670.62 648.065 1697.36 650.104C1724.09 652.143 1751.17 657.068 1778.76 658.84C1806.35 660.612 1834.46 659.23 1861.38 658.84C1888.3 658.451 1914.02 659.054 1941.57 660.296C1969.12 661.538 1998.51 663.419 2026.62 660.296C2054.73 657.173 2081.56 649.044 2105.6 648.648C2129.63 648.252 2150.85 655.59 2179.71 659.568C2208.57 663.547 2245.05 664.168 2274.48 661.752C2303.91 659.337 2326.28 653.886 2351.03 652.288C2375.77 650.69 2402.88 652.945 2478.6 655.2" stroke="white" stroke-opacity="0.95" stroke-linecap="round"/>
<path d="M0 691.6C30.3495 691.834 60.699 692.069 87.48 693.056C114.261 694.043 137.475 695.783 160.38 695.24C183.285 694.697 205.884 691.872 234.495 689.416C263.106 686.96 297.73 684.876 328.05 684.32C358.37 683.764 384.386 684.737 410.67 687.232C436.954 689.727 463.504 693.743 488.43 694.512C513.356 695.281 536.653 692.801 564.975 691.6C593.297 690.399 626.639 690.478 653.67 691.6C680.701 692.722 701.423 694.888 724.14 693.784C746.857 692.68 771.569 688.307 801.9 689.416C832.231 690.525 868.183 697.114 896.67 697.424C925.157 697.734 946.179 691.765 969.57 690.144C992.961 688.523 1018.72 691.252 1047.33 692.328C1075.94 693.404 1107.39 692.828 1133.6 693.056C1159.8 693.284 1180.76 694.315 1208.93 695.968C1237.09 697.621 1272.47 699.892 1301.27 697.424C1330.06 694.956 1352.29 687.747 1379.03 685.776C1405.76 683.805 1437.02 687.072 1462.86 690.144C1488.7 693.216 1509.13 696.092 1533.33 697.424C1557.53 698.755 1585.5 698.541 1615.95 696.696C1646.4 694.851 1679.33 691.374 1705.86 688.688C1732.39 686.002 1752.53 684.103 1779.98 685.776C1807.42 687.449 1842.17 692.692 1868.67 693.056C1895.17 693.42 1913.41 688.904 1939.14 689.416C1964.87 689.928 1998.1 695.469 2025.41 698.152C2052.71 700.835 2074.09 700.664 2100.74 696.696C2127.38 692.728 2159.27 684.968 2189.43 685.776C2219.59 686.584 2248.02 695.961 2275.7 695.968C2303.37 695.975 2330.29 686.61 2355.89 684.32C2381.48 682.03 2405.74 686.815 2478.6 691.6" stroke="white" stroke-opacity="0.45" stroke-linecap="round"/>
</g>
<defs>
<clipPath id="clip0_1288_63">
<rect width="2430" height="728" fill="white"/>
</clipPath>
</defs>
</svg>
