<svg width="138" height="134" viewBox="0 0 138 134" fill="none" xmlns="http://www.w3.org/2000/svg">
<path fill-rule="evenodd" clip-rule="evenodd" d="M11.877 82.2815C19.3858 91.1254 29.9078 97.2709 41.8303 99.0852C48.0879 119.319 66.7482 134 88.7951 134C103.723 134 117.099 127.269 126.123 116.641V134H138V84.7521H137.997C137.999 84.5615 138 84.3706 138 84.1795C138 59.2022 119.846 38.5178 96.1698 34.9148C89.9121 14.6812 71.2518 0 49.2049 0C22.0298 0 0 22.3054 0 49.8205V134H11.877V82.2815ZM86.5328 49.8205C86.5328 69.8751 71.1062 86.2816 51.6126 87.538C51.5163 86.4315 51.4672 85.3113 51.4672 84.1795C51.4672 64.1249 66.8938 47.7185 86.3874 46.462C86.4836 47.5685 86.5328 48.6887 86.5328 49.8205ZM11.877 49.8205C11.877 67.3451 23.6569 82.0839 39.6365 86.3622C39.6057 85.6386 39.5902 84.9109 39.5902 84.1795C39.5902 58.5084 58.7662 37.372 83.4059 34.6544C77.635 21.3317 64.4933 12.0256 49.2049 12.0256C28.5893 12.0256 11.877 28.947 11.877 49.8205ZM126.123 84.1795C126.123 66.6549 114.343 51.9161 98.3635 47.6378C98.3943 48.3615 98.4098 49.0891 98.4098 49.8205C98.4098 75.4917 79.2338 96.628 54.5941 99.3456C60.365 112.668 73.5067 121.974 88.7951 121.974C109.411 121.974 126.123 105.053 126.123 84.1795Z" fill="white"/>
</svg>
