<svg width="103" height="103" viewBox="0 0 103 103" fill="none" xmlns="http://www.w3.org/2000/svg">
<path d="M103 47.5C103 21.2665 81.7336 0 55.5 0L48.429 7.07107C74.6625 7.07107 95.929 28.3375 95.929 54.5711L103 47.5Z" fill="white"/>
<path d="M88 47.5C88 29.5507 73.4493 15 55.5 15L48.429 22.0711C66.3782 22.0711 80.929 36.6218 80.929 54.5711L88 47.5Z" fill="white"/>
<path d="M89.0945 81.0805C97.6862 72.4853 103 60.6132 103 47.5L95.929 54.5711C95.929 67.6842 90.6151 79.5563 82.0234 88.1516L89.0945 81.0805Z" fill="white"/>
<path d="M55.5 0C42.3797 0 30.5017 5.31953 21.9053 13.9195L14.8483 20.9764C23.4436 12.3848 35.3158 7.07107 48.429 7.07107L55.5 0Z" fill="white"/>
<path d="M78.4859 70.4761C84.3644 64.5952 88 56.4722 88 47.5L80.929 54.5711C80.929 63.5432 77.2933 71.6663 71.4148 77.5472L78.4859 70.4761Z" fill="white"/>
<path d="M55.5 15C46.5229 15 38.3959 18.6397 32.5142 24.5239L25.4528 31.5853C31.3337 25.7068 39.4568 22.0711 48.429 22.0711L55.5 15Z" fill="white"/>
<path d="M55.5 80C64.4722 80 72.5952 76.3643 78.4762 70.4858L71.4148 77.5472C65.5331 83.4314 57.406 87.0711 48.429 87.0711L55.5 80Z" fill="white"/>
<path d="M32.5142 24.5239C26.6357 30.4048 23 38.5278 23 47.5L15.929 54.5711C15.929 45.5989 19.5646 37.4759 25.4431 31.5949L32.5142 24.5239Z" fill="white"/>
<path d="M55.5 95C68.6132 95 80.4853 89.6863 89.0805 81.0946L82.0234 88.1516C73.4271 96.7515 61.5493 102.071 48.429 102.071L55.5 95Z" fill="white"/>
<path d="M21.9053 13.9195C13.3136 22.5147 8.00002 34.3868 8.00002 47.5L0.928955 54.5711C0.928955 41.4579 6.24257 29.5858 14.8342 20.9906L21.9053 13.9195Z" fill="white"/>
<path d="M23 47.5C23 65.4493 37.5508 80 55.5 80L48.429 87.0711C30.4797 87.0711 15.929 72.5203 15.929 54.5711L23 47.5Z" fill="white"/>
<path d="M8.00002 47.5C8.00002 73.7335 29.2665 95 55.5 95L48.429 102.071C22.1954 102.071 0.928955 80.8046 0.928955 54.5711L8.00002 47.5Z" fill="white"/>
<path fill-rule="evenodd" clip-rule="evenodd" d="M55.5 80C73.4493 80 88 65.4493 88 47.5C88 29.5507 73.4493 15 55.5 15C37.5508 15 23 29.5508 23 47.5C23 65.4493 37.5508 80 55.5 80ZM55.5 95C81.7336 95 103 73.7335 103 47.5C103 21.2665 81.7336 0 55.5 0C29.2665 0 8.00002 21.2665 8.00002 47.5C8.00002 73.7335 29.2665 95 55.5 95Z" fill="white"/>
</svg>
