<svg width="78" height="48" viewBox="0 0 78 48" fill="none" xmlns="http://www.w3.org/2000/svg">
<path d="M32 3.55556C32 1.59188 33.567 0 35.5 0H42.5C44.433 0 46 1.59188 46 3.55556V44.4444C46 46.4081 44.433 48 42.5 48H35.5C33.567 48 32 46.4081 32 44.4444V3.55556Z" fill="white"/>
<path d="M63 3.55556C63 1.59188 64.6789 0 66.75 0H74.25C76.3211 0 78 1.59188 78 3.55556V44.4444C78 46.4081 76.3211 48 74.25 48H66.75C64.6789 48 63 46.4081 63 44.4444V3.55556Z" fill="white"/>
<path d="M17 3.55556C17 1.59188 18.535 0 20.4286 0H25.5714C27.465 0 29 1.59188 29 3.55556V28.4444C29 30.4081 27.465 32 25.5714 32H20.4286C18.535 32 17 30.4081 17 28.4444V3.55556Z" fill="white"/>
<path d="M48 19.5556C48 17.5919 49.6629 16 51.7143 16H57.2857C59.3371 16 61 17.5919 61 19.5556V28.4444C61 30.4081 59.3371 32 57.2857 32H51.7143C49.6629 32 48 30.4081 48 28.4444V19.5556Z" fill="white"/>
<path d="M0 3.55556C0 1.59188 1.567 0 3.5 0H10.5C12.433 0 14 1.59188 14 3.55556V44.4444C14 46.4081 12.433 48 10.5 48H3.5C1.567 48 0 46.4081 0 44.4444V3.55556Z" fill="white"/>
</svg>
