<svg width="150" height="46" viewBox="0 0 150 46" fill="none" xmlns="http://www.w3.org/2000/svg">
<g clip-path="url(#clip0_1281_278)">
<path d="M29.0437 22.972C29.0437 16.6108 29.0437 10.2485 29.0437 3.88725C29.0437 2.48086 29.8891 1.33537 31.1959 0.962495C33.0311 0.437338 34.863 1.77766 34.9481 3.70921C34.9515 3.78871 34.9515 3.86933 34.9515 3.94883C34.9515 16.6399 34.9515 29.331 34.9515 42.0221C34.9515 43.4218 34.19 44.5326 32.9427 44.9603C31.0816 45.5986 29.1075 44.2381 29.046 42.273C29.0404 42.0972 29.0437 41.9214 29.0437 41.7444C29.0437 35.4874 29.0437 29.2291 29.0437 22.972Z" fill="white"/>
<path d="M60.5298 34.1391H61.8645V30.9792H64.7814V34.1358H69.7071C69.7071 34.2522 69.7071 34.344 69.7071 34.4359C69.7071 36.3002 69.6982 38.1646 69.7138 40.0289C69.7172 40.4892 69.7564 40.9583 69.8516 41.4085C70.0453 42.3177 70.6107 42.7477 71.5457 42.7477C71.7921 42.7477 72.044 42.7298 72.2836 42.6771C73.185 42.4812 73.5825 41.825 73.7247 40.9897C73.8042 40.5272 73.8289 40.0513 73.8334 39.5822C73.8457 37.8779 73.8378 36.1737 73.8378 34.4683C73.8378 34.3732 73.8378 34.2791 73.8378 34.1671H76.7447V44.7509H73.9812V43.246C73.8927 43.3557 73.8501 43.4061 73.811 43.4598C73.0675 44.4765 72.0586 45.0107 70.8067 45.0454C70.3386 45.0588 69.8583 45.0241 69.4003 44.93C67.9715 44.6355 67.1452 43.7386 66.9179 42.2427C66.8328 41.6839 66.7969 41.1129 66.7891 40.5474C66.7712 39.1712 66.7835 37.7951 66.7835 36.4178C66.7835 36.3237 66.7835 36.2297 66.7835 36.1166H64.7959C64.7959 36.1938 64.7959 36.2711 64.7959 36.3484C64.7959 38.0291 64.796 39.7098 64.7982 41.3894C64.7982 41.5641 64.8116 41.7421 64.843 41.9135C64.9135 42.3065 65.1151 42.5204 65.5137 42.5472C65.9728 42.5786 66.4364 42.554 66.9134 42.554C66.9179 42.5943 66.929 42.6559 66.929 42.7174C66.9302 43.3411 66.9335 43.9659 66.9246 44.5896C66.9246 44.6624 66.8574 44.7934 66.8104 44.7979C65.7085 44.9188 64.6034 44.9939 63.5195 44.6893C62.4076 44.3769 61.8734 43.6233 61.8701 42.3983C61.8645 40.4063 61.8678 38.4132 61.8678 36.42C61.8678 36.3249 61.8678 36.2308 61.8678 36.0998H60.0986V34.4818H57.4236C57.3956 34.3048 57.3777 34.1559 57.3475 34.0081C57.212 33.3273 56.8492 32.8078 56.1964 32.5469C55.2905 32.1863 54.3544 32.1348 53.4239 32.4338C52.658 32.6801 52.2874 33.2265 52.2896 33.9712C52.2907 34.4459 52.4833 34.811 52.9122 34.9913C53.4553 35.2197 54.014 35.4201 54.5795 35.5836C55.7003 35.9083 56.8413 36.1647 57.951 36.5186C58.4762 36.6854 58.9834 36.9609 59.4403 37.2722C60.5768 38.0481 61.065 39.1757 61.0213 40.5317C60.9609 42.4017 60.0337 43.7398 58.3373 44.4497C56.006 45.425 53.6299 45.4126 51.3322 44.3209C49.5944 43.4945 48.7333 42.0411 48.6673 40.1196C48.665 40.0581 48.6673 39.9954 48.6673 39.9181H51.779C51.798 40.0939 51.8081 40.2742 51.8395 40.4511C52.0332 41.5104 52.6961 42.1419 53.7038 42.4241C54.7418 42.7152 55.7809 42.6928 56.7909 42.2987C57.6084 41.9795 57.9823 41.3603 57.8805 40.5608C57.8144 40.0368 57.4829 39.6997 57.0518 39.45C56.4013 39.0727 55.6768 38.8958 54.9557 38.7121C53.8561 38.4333 52.7431 38.1993 51.695 37.7469C51.0948 37.4883 50.5361 37.1647 50.0826 36.6854C49.2518 35.8064 49.048 34.7348 49.2058 33.5871C49.4365 31.912 50.4779 30.8605 51.9884 30.2648C54.0162 29.4665 56.0553 29.5549 58.0316 30.444C59.4761 31.0934 60.2991 32.2479 60.485 33.8346C60.4962 33.9297 60.5107 34.0249 60.5264 34.1358L60.5298 34.1391Z" fill="white"/>
<path d="M15.5912 26.8989C15.5912 31.9489 15.5912 36.999 15.5912 42.049C15.5912 43.4016 14.8499 44.5001 13.6507 44.939C11.7807 45.6232 9.78869 44.294 9.68567 42.2919C9.68119 42.1956 9.68007 42.1005 9.68007 42.0042C9.68007 31.9366 9.68007 21.8679 9.67896 11.8004C9.67896 10.6291 10.1257 9.70087 11.1413 9.08726C13.0236 7.94961 15.4725 9.26194 15.5844 11.4622C15.59 11.582 15.5912 11.7018 15.5912 11.8228C15.5912 16.8493 15.5912 21.8747 15.5912 26.9012V26.8989Z" fill="white"/>
<path d="M61.8151 14.0791H64.7376V19.4191C64.8025 19.3654 64.8328 19.3486 64.8529 19.3228C65.5069 18.4326 66.425 18.0217 67.4865 17.8705C69.4718 17.5872 71.2298 18.6432 71.9801 20.4907C72.8087 22.532 72.7975 24.6058 71.8569 26.6134C71.0328 28.3737 69.3285 29.2348 67.3947 28.9839C66.6445 28.8865 65.9279 28.7006 65.3423 28.199C65.078 27.9728 64.863 27.6906 64.6223 27.4297V28.7354H64.3401C62.6582 28.7354 60.9764 28.7331 59.2957 28.7387C59.1176 28.7387 59.0325 28.6962 58.9732 28.5148C58.6664 27.5731 58.3349 26.6403 58.0281 25.6986C57.9665 25.5105 57.8792 25.4601 57.6888 25.4612C56.0238 25.4691 54.3576 25.4691 52.6926 25.4612C52.5078 25.4612 52.4294 25.5172 52.3701 25.6885C52.0476 26.6336 51.7095 27.5719 51.3858 28.517C51.331 28.6771 51.2604 28.7409 51.0824 28.7387C50.0825 28.7298 49.0825 28.7342 48.0513 28.7342C48.0826 28.6301 48.1017 28.5495 48.1308 28.4722C49.9246 23.7458 51.7206 19.0205 53.51 14.2919C53.5794 14.1082 53.6723 14.0612 53.8593 14.0623C54.7966 14.0724 55.7327 14.0735 56.6699 14.0623C56.8647 14.0601 56.9453 14.1228 57.0125 14.3008C58.5645 18.4696 60.1243 22.6361 61.6818 26.8027C61.7121 26.8833 61.7468 26.9617 61.8162 27.0378V14.0769L61.8151 14.0791ZM69.6219 23.4334C69.6219 22.7056 69.5155 21.999 69.1863 21.3417C68.781 20.5344 68.1483 20.0596 67.2234 20.0305C66.2716 20.0003 65.5505 20.4123 65.1429 21.2589C64.4554 22.6876 64.4521 24.15 65.1351 25.5822C65.536 26.4209 66.2448 26.8385 67.1865 26.8217C68.1315 26.8049 68.781 26.3268 69.1941 25.5004C69.5189 24.8499 69.6241 24.1511 69.6241 23.4323L69.6219 23.4334ZM55.2534 17.7003C55.2355 17.7003 55.2187 17.7026 55.2008 17.7037C54.5693 19.4818 53.9377 21.2589 53.3006 23.0504H57.0943C56.4762 21.2533 55.8648 19.4762 55.2534 17.7003Z" fill="white"/>
<path d="M44.626 29.0175C44.626 33.3711 44.6271 37.7235 44.626 42.077C44.626 43.601 43.6652 44.7801 42.1995 45.0701C40.5524 45.3959 38.8918 44.1519 38.7462 42.479C38.7294 42.2797 38.7193 42.0793 38.7193 41.88C38.7182 33.2613 38.7182 24.6438 38.7193 16.0252C38.7193 14.5102 39.5983 13.339 40.9891 12.9952C42.7594 12.5574 44.5353 13.8764 44.6192 15.6938C44.6248 15.8214 44.626 15.9502 44.626 16.0778C44.626 20.3911 44.626 24.7043 44.626 29.0175Z" fill="white"/>
<path d="M25.2713 28.9392C25.2713 33.2916 25.2713 37.6451 25.2713 41.9975C25.2713 43.5943 24.3285 44.7801 22.8258 45.0757C21.1765 45.3993 19.4969 44.1172 19.3815 42.4432C19.3715 42.2999 19.367 42.1554 19.367 42.0121C19.367 33.2983 19.3737 24.5845 19.3591 15.8718C19.3569 14.3523 20.312 13.208 21.5281 12.8855C23.491 12.3637 25.2669 13.7768 25.2691 15.8584C25.2736 18.875 25.2691 21.8915 25.2691 24.9081C25.2691 26.2529 25.2691 27.5966 25.2691 28.9414L25.2713 28.9392Z" fill="white"/>
<path d="M93.9538 24.1332H86.3027C86.3385 26.0871 87.4134 26.8642 88.9777 26.8216C89.6406 26.8037 90.2329 26.5887 90.729 26.142C90.8466 26.0356 90.9832 25.9191 91.0347 25.7792C91.1478 25.4701 91.3594 25.4399 91.6449 25.4466C92.3403 25.4645 93.0356 25.4522 93.7724 25.4522C93.6907 25.6661 93.6246 25.8508 93.5485 26.0322C92.7546 27.9089 91.318 28.8752 89.3036 29.0074C88.1323 29.0835 87.0014 28.9245 85.9623 28.34C84.6555 27.6043 83.9008 26.4622 83.5447 25.0301C83.528 24.9629 83.5078 24.8968 83.5044 24.8845C83.3141 25.4265 83.164 26.0266 82.9009 26.5719C82.2548 27.9078 81.209 28.7823 79.7085 28.9783C78.591 29.1238 77.4903 28.9962 76.5374 28.3255C76.1993 28.087 75.9339 27.7443 75.6372 27.4509V28.7207H72.8804V14.0824H75.7682V19.4045C77.0827 17.8895 78.6974 17.4651 80.5103 18.0821C82.3567 18.7103 83.1248 20.2432 83.482 22.1087C83.5246 21.9721 83.5537 21.8892 83.5783 21.8041C84.2043 19.643 85.5961 18.3049 87.8311 17.9108C90.7055 17.4047 93.1129 19.0227 93.7736 21.8758C93.9426 22.6047 94.0065 23.3415 93.9549 24.1332H93.9538ZM75.6719 23.4143C75.6853 24.1309 75.776 24.833 76.0985 25.4847C76.5117 26.32 77.1645 26.8082 78.1196 26.8239C79.0501 26.8396 79.7578 26.4264 80.1575 25.6C80.8551 24.1544 80.8518 22.6764 80.1452 21.2353C79.75 20.4302 79.058 20.0226 78.1454 20.0293C77.2429 20.036 76.5968 20.4615 76.1679 21.2409C75.7962 21.9183 75.692 22.6573 75.6719 23.4143ZM91.0179 22.2744C90.8499 20.7258 89.9687 19.9543 88.466 20.0338C87.2578 20.0976 86.2993 21.083 86.2993 22.2744H91.0179Z" fill="white"/>
<path d="M128.714 25.6896C128.46 26.1285 128.238 26.591 127.943 27.003C127.319 27.8787 126.456 28.4486 125.429 28.7521C124.145 29.1305 122.853 29.1361 121.574 28.7297C120.05 28.2448 118.989 27.2449 118.441 25.7489C117.87 24.1914 117.87 22.6069 118.466 21.0561C119.158 19.2567 120.521 18.2512 122.397 17.9242C123.554 17.7226 124.701 17.7977 125.798 18.2299C127.537 18.914 128.525 20.232 128.901 22.0314C129.04 22.692 129.082 23.3616 129.009 24.0357C129.001 24.1208 129.008 24.2082 129.008 24.3101C129.148 24.1253 129.267 23.9383 129.415 23.7782C129.997 23.1478 130.764 22.8723 131.577 22.729C132.458 22.5733 133.351 22.4748 134.235 22.3371C134.51 22.2945 134.785 22.2262 135.047 22.1311C135.56 21.9452 135.777 21.644 135.777 21.1793C135.777 20.5365 135.55 20.0819 135.036 19.9386C134.597 19.8166 134.126 19.8098 133.666 19.7695C133.526 19.7572 133.38 19.7953 133.24 19.8266C132.51 19.989 132.104 20.419 131.983 21.158C131.964 21.2767 131.958 21.3696 131.794 21.3685C130.913 21.3618 130.033 21.3652 129.152 21.364C129.121 21.364 129.091 21.3506 129.043 21.3394C129.104 20.326 129.481 19.4773 130.285 18.8435C131.017 18.2657 131.879 18.0015 132.787 17.8895C133.979 17.7417 135.169 17.763 136.339 18.0686C136.624 18.1425 136.906 18.2422 137.171 18.3699C138.197 18.8625 138.7 19.6934 138.703 20.8243C138.708 22.6484 138.693 24.4735 138.712 26.2976C138.719 26.9023 138.795 27.508 138.86 28.1104C138.882 28.3109 138.972 28.5046 139.037 28.7218H137.133C136.957 28.7218 136.78 28.7218 136.605 28.7218C136.251 28.7218 136.041 28.5486 135.974 28.2023C135.946 28.0545 135.927 27.9044 135.901 27.7387C135.87 27.7533 135.839 27.76 135.819 27.7779C134.72 28.7957 133.381 29.0712 131.947 28.9827C131.468 28.9536 130.975 28.8416 130.529 28.6647C129.36 28.2034 128.79 27.2874 128.715 26.0501C128.707 25.9225 128.715 25.7948 128.715 25.6885L128.714 25.6896ZM120.942 23.402C120.972 23.7435 120.987 24.0884 121.037 24.4276C121.074 24.6785 121.141 24.9282 121.224 25.1689C121.595 26.2528 122.39 26.8216 123.516 26.825C124.656 26.8283 125.462 26.283 125.833 25.2047C126.24 24.0178 126.236 22.8152 125.826 21.6305C125.524 20.7549 124.916 20.2107 123.975 20.0562C122.753 19.8557 121.739 20.4033 121.277 21.5477C121.036 22.1411 120.96 22.7659 120.943 23.4042L120.942 23.402ZM135.739 23.6248C135.399 23.7233 135.046 23.8476 134.684 23.9249C134.287 24.01 133.878 24.0458 133.477 24.1163C133.004 24.1992 132.534 24.3045 132.137 24.599C131.652 24.9595 131.569 25.469 131.657 26.0165C131.738 26.5305 132.078 26.8463 132.572 26.9426C132.953 27.0165 133.351 27.0512 133.737 27.0321C134.875 26.975 135.602 26.3066 135.729 25.1767C135.787 24.6505 135.739 24.1107 135.739 23.6237V23.6248Z" fill="white"/>
<path d="M103.487 41.9875C103.199 42.4197 102.944 42.8844 102.612 43.2875C101.876 44.1777 100.903 44.6905 99.7775 44.9178C98.5346 45.1675 97.3029 45.1227 96.1193 44.6502C94.3277 43.9336 93.3412 42.5541 93.0143 40.6897C92.7825 39.3718 92.8788 38.0717 93.4353 36.8367C94.1698 35.2063 95.4643 34.2814 97.201 33.9657C98.3543 33.7552 99.4975 33.8235 100.605 34.2378C102.042 34.7752 103.005 35.7852 103.534 37.2163C103.567 37.3047 103.6 37.3932 103.636 37.4872C103.674 37.1244 103.68 36.7684 103.753 36.4257C103.975 35.3653 104.654 34.6857 105.639 34.296C106.72 33.8683 107.852 33.8123 108.994 33.8895C109.741 33.9399 110.468 34.0855 111.144 34.4259C112.219 34.9667 112.789 35.8569 112.951 37.0293C112.96 37.0909 112.951 37.1547 112.951 37.2331C112.884 37.2409 112.824 37.2532 112.762 37.2532C111.977 37.2543 111.192 37.2532 110.408 37.2532C110.306 37.2532 110.198 37.2767 110.178 37.1189C110.078 36.3373 109.572 35.9756 108.845 35.8636C108.328 35.7841 107.807 35.7774 107.299 35.9286C106.91 36.0439 106.628 36.2667 106.585 36.7034C106.544 37.1244 106.741 37.4469 107.104 37.5936C107.648 37.8142 108.218 37.9766 108.785 38.1367C109.63 38.3741 110.484 38.5779 111.329 38.8175C111.563 38.8836 111.786 39.0123 111.996 39.14C113.023 39.7648 113.424 40.7266 113.222 41.9796C113.003 43.3457 112.19 44.2124 110.927 44.6524C109.297 45.2202 107.637 45.2202 105.999 44.6939C104.661 44.2639 103.769 43.3793 103.491 41.9908L103.487 41.9875ZM95.8315 39.4669C95.8282 40.169 95.9144 40.8543 96.2145 41.4981C96.6456 42.423 97.3868 42.853 98.3957 42.853C99.4136 42.853 100.191 42.4365 100.594 41.4881C101.146 40.1881 101.139 38.8511 100.642 37.5388C100.26 36.531 99.4752 36.0596 98.4002 36.0596C97.3185 36.0596 96.5784 36.5444 96.1596 37.5432C95.9021 38.158 95.8259 38.8063 95.8315 39.4658V39.4669ZM103.833 38.289C103.981 39.3012 103.931 40.3023 103.665 41.3156H106.168C106.18 41.3906 106.191 41.4444 106.198 41.5004C106.282 42.2416 106.708 42.7019 107.395 42.9404C107.92 43.1229 108.466 43.1632 109.003 43.04C109.308 42.9695 109.618 42.8497 109.876 42.6783C110.26 42.4242 110.397 42.0222 110.313 41.5642C110.255 41.244 110.032 41.0323 109.755 40.917C109.278 40.7188 108.789 40.5385 108.292 40.3997C107.462 40.1679 106.611 40.0078 105.787 39.757C104.975 39.5106 104.259 39.0952 103.832 38.2879L103.833 38.289Z" fill="white"/>
<path d="M0.00569757 34.1739C0.00569757 31.5728 0.00345809 28.9728 0.00569757 26.3716C0.0068173 24.9876 0.732407 23.8992 1.93948 23.4547C3.89454 22.7347 5.91231 24.1758 5.91455 26.3067C5.92127 30.5236 5.91679 34.7405 5.91679 38.9575C5.91679 40.0055 5.92127 41.0536 5.91567 42.1017C5.90671 43.5999 4.93926 44.7734 3.48024 45.069C1.80735 45.4083 0.0751213 44.0859 0.0247331 42.3816C-0.0178169 40.9349 0.00793704 39.4849 0.00569757 38.037C0.00345809 36.7482 0.00569757 35.4605 0.00569757 34.1717V34.1739Z" fill="white"/>
<path d="M108.603 28.7252H105.382V14.0824C105.464 14.0779 105.548 14.0701 105.632 14.0701C108.178 14.0701 110.724 14.0701 113.27 14.0679C114.06 14.0679 114.819 14.2067 115.511 14.5941C116.91 15.3768 117.578 16.594 117.578 18.1829C117.578 19.2153 117.337 20.1783 116.574 20.9207C116.259 21.2275 115.851 21.4402 115.484 21.6922C115.421 21.7347 115.349 21.7616 115.229 21.8221C116.039 22.0449 116.603 22.5107 116.91 23.2284C117.097 23.664 117.233 24.1332 117.312 24.6001C117.406 25.1577 117.418 25.7299 117.455 26.2954C117.511 27.1251 117.569 27.9526 117.993 28.7353C117.83 28.7353 117.697 28.7353 117.563 28.7353C116.707 28.7353 115.85 28.7297 114.994 28.7398C114.826 28.742 114.736 28.6894 114.711 28.5293C114.604 27.8283 114.494 27.1262 114.393 26.4242C114.308 25.8318 114.279 25.2272 114.147 24.646C113.904 23.5812 113.326 23.0762 112.231 23.0302C111.033 22.9799 109.831 23.0191 108.603 23.0191V28.7252ZM108.607 20.6922C108.666 20.6967 108.713 20.7046 108.759 20.7046C109.927 20.7046 111.096 20.7046 112.264 20.7001C112.438 20.7001 112.615 20.6777 112.789 20.6508C113.581 20.531 114.119 20.0876 114.262 19.3452C114.342 18.9376 114.349 18.4998 114.301 18.0866C114.21 17.3117 113.74 16.837 112.977 16.669C112.744 16.6175 112.503 16.5817 112.266 16.5794C111.106 16.5694 109.946 16.5738 108.785 16.5738C108.73 16.5738 108.676 16.5817 108.607 16.5873V20.6922Z" fill="white"/>
<path d="M85.2166 35.4605V30.1205H88.1245V44.7487H85.3789V43.4577C85.3487 43.4364 85.3185 43.414 85.2871 43.3927C85.2793 43.4319 85.2827 43.4778 85.2625 43.5092C84.5963 44.5371 83.6042 44.9884 82.424 45.0455C80.1934 45.153 78.5284 44.0567 77.7793 41.955C77.0895 40.019 77.1097 38.0829 78.0693 36.232C79.3861 33.6902 82.1687 33.4696 83.8001 34.2445C84.3163 34.4897 84.7508 34.8335 85.0833 35.3004C85.1136 35.3418 85.1483 35.3799 85.2166 35.4616V35.4605ZM85.3868 39.4613C85.3655 39.4569 85.3431 39.4535 85.3218 39.449C85.3274 38.8208 85.2558 38.2027 85.0307 37.6126C84.6802 36.6956 84.0453 36.1346 83.0353 36.0674C81.9873 35.998 81.1363 36.3585 80.6884 37.3383C80.0613 38.71 80.0636 40.1186 80.7007 41.4914C81.1654 42.4925 81.9996 42.928 83.1238 42.8407C84.0577 42.769 84.781 42.1722 85.0721 41.1477C85.2278 40.6001 85.286 40.0234 85.3879 39.4602L85.3868 39.4613Z" fill="white"/>
<path d="M147.094 14.0813H150V28.7185H147.244V27.3491C147.092 27.5506 146.99 27.7007 146.872 27.8384C146.212 28.6099 145.341 28.9559 144.354 29.0074C142.045 29.1283 140.369 28.0086 139.619 25.8139C138.974 23.9283 139.007 22.0483 139.919 20.2466C141.175 17.7653 143.848 17.4305 145.56 18.1605C146.124 18.4013 146.595 18.7618 146.956 19.2612C146.987 19.3038 147.024 19.3407 147.094 19.4236V14.0802V14.0813ZM147.258 23.6058C147.206 22.9272 147.152 22.2688 146.927 21.6328C146.582 20.6609 145.857 20.0831 144.917 20.0338C143.785 19.9745 142.955 20.4045 142.542 21.3439C141.943 22.71 141.942 24.1018 142.572 25.4556C143.011 26.3984 143.784 26.871 144.848 26.8195C145.903 26.7691 146.587 26.2092 146.908 25.2384C147.083 24.7132 147.145 24.1511 147.258 23.6058Z" fill="white"/>
<path d="M92.9158 18.1134C93.9347 18.1134 94.919 18.1168 95.9032 18.1101C96.0712 18.109 96.0712 18.2254 96.1048 18.3251C96.7699 20.3339 97.435 22.3416 98.099 24.3504C98.211 24.6897 98.3252 25.0301 98.4585 25.4309C98.5245 25.2406 98.5738 25.1096 98.6164 24.9774C99.324 22.7648 100.033 20.5522 100.732 18.3363C100.788 18.1571 100.863 18.1067 101.045 18.109C101.886 18.119 102.727 18.1134 103.567 18.1134C103.644 18.1134 103.722 18.1134 103.831 18.1134C103.581 18.7842 103.343 19.4258 103.104 20.0674C101.852 23.4355 100.604 26.8048 99.3464 30.1708C99.0575 30.9434 98.6287 31.6186 97.8762 32.0307C97.4339 32.2725 96.9547 32.389 96.4564 32.436C95.6233 32.5144 94.7947 32.4618 93.9515 32.3722V29.9771C94.1968 29.9961 94.433 30.0185 94.6704 30.033C94.9582 30.0498 95.2459 30.0722 95.5337 30.07C96.1955 30.0644 96.7083 29.6131 96.7464 28.9525C96.7643 28.6434 96.724 28.3064 96.6165 28.0175C95.4318 24.8207 94.2292 21.6305 93.0311 18.4382C92.9953 18.3419 92.9617 18.2444 92.9158 18.1134Z" fill="white"/>
<path d="M89.2341 34.1571H92.1231V44.7532H89.2341V34.1571Z" fill="white"/>
<path d="M89.2341 30.1125H92.1197V32.4897H89.2341V30.1125Z" fill="white"/>
</g>
<defs>
<clipPath id="clip0_1281_278">
<rect width="150" height="44.3147" fill="white" transform="translate(0 0.848267)"/>
</clipPath>
</defs>
</svg>
