<svg width="150" height="113" viewBox="0 0 150 113" fill="none" xmlns="http://www.w3.org/2000/svg">
<path d="M40.4187 23.424C42.2564 19.4656 48.1941 19.0292 50.1704 23.6761C50.3401 23.4014 50.4856 23.1702 50.6242 22.9355C51.8731 20.8459 54.2893 19.8984 56.7714 20.5278C59.0145 21.0945 60.4903 22.8608 60.5249 25.3346C60.5925 30.3083 60.5492 35.2856 60.5595 40.261C60.5595 40.8799 60.2703 41.1598 59.6641 41.1564C58.5971 41.1511 57.5301 41.1338 56.4631 41.1633C55.7218 41.1842 55.4221 40.8608 55.4256 40.1289C55.4429 36.5998 55.4447 33.0708 55.4447 29.5417C55.4447 28.8185 55.4412 28.0953 55.391 27.3756C55.2974 25.9935 54.7293 25.3016 53.6381 25.1712C52.313 25.013 51.175 25.6997 50.8736 26.9775C50.6762 27.8119 50.6017 28.6916 50.5948 29.5521C50.5653 33.0238 50.5861 36.4938 50.5809 39.9655C50.5809 41.0312 50.4527 41.1494 49.3771 41.1529C48.4833 41.1564 47.5896 41.1581 46.6958 41.1529C45.6028 41.1477 45.4955 41.0451 45.4937 39.9655C45.4937 36.3791 45.5093 32.7909 45.492 29.2044C45.4885 28.3995 45.44 27.5807 45.2824 26.7949C45.0624 25.6997 44.3921 25.1764 43.3719 25.1225C42.2287 25.0617 41.3938 25.5102 41.0717 26.555C40.8274 27.3443 40.6889 28.1944 40.6785 29.0201C40.6352 32.664 40.6577 36.3095 40.6525 39.9551C40.6525 41.0347 40.5347 41.1477 39.4591 41.1529C38.5653 41.1564 37.6716 41.1564 36.7778 41.1529C35.6589 41.1494 35.5238 41.0225 35.522 39.9203C35.5186 37.0275 35.5203 34.1347 35.522 31.2419C35.522 28.1474 35.522 25.0512 35.5289 21.9568C35.5307 20.9015 35.6883 20.7451 36.7224 20.7364C37.6456 20.7294 38.5671 20.7451 39.4903 20.7416C40.1433 20.7399 40.4325 21.0684 40.4204 21.7082C40.4117 22.2784 40.4187 22.8504 40.4187 23.4206V23.424Z" fill="white"/>
<path d="M30.1559 74.0689C30.9249 73.6464 31.6853 73.1962 32.4752 72.7998C34.0687 72.0001 35.7679 71.5533 37.5485 71.5551C39.6928 71.5568 41.5237 72.2261 42.5958 74.3522C43.1224 74.0306 43.597 73.7264 44.0854 73.4465C46.3874 72.1357 48.8227 71.3256 51.5075 71.642C54.4001 71.9827 56.1374 73.8324 56.2327 76.7739C56.3193 79.4598 56.276 82.151 56.2829 84.8404C56.2881 87.0082 56.2898 89.1778 56.2829 91.3457C56.2794 92.4166 56.1651 92.5192 55.0774 92.5244C54.5872 92.5261 54.097 92.5261 53.6068 92.5244C52.4203 92.5209 52.2956 92.3957 52.2939 91.1632C52.2904 89.7463 52.2939 88.3295 52.2939 86.9126C52.2939 84.2232 52.2939 81.5338 52.2904 78.8444C52.2904 78.4394 52.2869 78.0326 52.2436 77.631C52.0375 75.71 51.0242 74.8077 49.1033 74.7955C47.1755 74.7816 45.4157 75.3658 43.7771 76.3289C43.5312 76.4732 43.3147 76.8956 43.3129 77.1911C43.2869 81.8467 43.3008 86.5023 43.3008 91.1579C43.3008 92.4566 43.2367 92.5157 41.9186 92.5174C41.399 92.5174 40.8793 92.4931 40.3632 92.5226C39.5664 92.5696 39.2823 92.1819 39.2927 91.4274C39.3118 89.9532 39.2979 88.4772 39.2979 87.003C39.2979 84.1989 39.3083 81.393 39.2858 78.5889C39.2806 77.9874 39.2165 77.3702 39.0641 76.7913C38.7419 75.5674 37.8966 74.8999 36.6305 74.8112C34.4913 74.6634 32.5202 75.2406 30.705 76.3376C30.4694 76.4801 30.3204 76.9495 30.3187 77.2676C30.2944 81.8937 30.3031 86.5215 30.3014 91.1475C30.3014 92.4548 30.239 92.5139 28.9313 92.5157C28.3839 92.5157 27.8349 92.5018 27.2893 92.5192C26.5843 92.5435 26.2985 92.1975 26.3141 91.5161C26.3297 90.7355 26.3175 89.9549 26.3175 89.1744C26.3175 83.9399 26.3175 78.7071 26.3175 73.4726C26.3175 72.2852 26.4197 72.1687 27.5906 72.1879C28.2159 72.1983 28.9884 72.061 29.4249 72.3704C29.8458 72.6677 29.9186 73.4587 30.1576 74.0671L30.1559 74.0689Z" fill="white"/>
<path d="M25.9363 28.1735C25.9363 27.4642 26.0004 26.7671 25.9225 26.0856C25.7977 24.9938 25.02 24.2932 23.9063 24.1437C22.5674 23.9629 21.2718 24.5714 20.7591 25.6371C20.6344 25.8961 20.6274 26.242 20.4456 26.4315C20.2048 26.6836 19.8428 26.9861 19.5379 26.9792C18.5905 26.96 17.6465 26.8123 16.7007 26.7045C15.7619 26.5984 15.5437 26.3029 15.7897 25.378C16.4721 22.819 18.1869 21.2979 20.6777 20.6077C23.165 19.9193 25.6349 19.928 28.0339 20.9815C29.9461 21.8211 31.0547 23.3127 31.1378 25.4058C31.2469 28.1491 31.2608 30.8976 31.24 33.6444C31.2296 35.0352 31.505 36.2817 32.423 37.3439C32.9652 37.9697 32.9513 38.4687 32.2498 38.9989C31.4686 39.59 30.7533 40.2662 30.0241 40.9234C29.501 41.3962 29.0108 41.4293 28.5275 40.8903C27.9334 40.228 27.3445 39.5604 26.7071 38.8442C26.3486 39.1536 25.9692 39.4926 25.5778 39.816C23.5928 41.4536 21.3012 41.7839 18.8971 41.1807C16.1274 40.4853 14.6326 37.7941 15.1193 34.6475C15.5835 31.6591 17.4386 29.7068 20.6655 29.0045C22.3751 28.6324 24.1263 28.4516 25.9346 28.1735H25.9363ZM26.1442 31.3879C26.0368 31.2818 25.9294 31.1758 25.822 31.068C24.6407 31.3531 23.3988 31.4939 22.2902 31.9546C20.5876 32.6622 19.9606 35.0265 20.8976 36.6207C21.3965 37.469 22.3665 37.8637 23.3572 37.589C24.5091 37.2691 25.3006 36.4625 25.576 35.3638C25.8982 34.0721 25.9675 32.7161 26.1459 31.3879H26.1442Z" fill="white"/>
<path d="M74.7004 28.2152C74.7004 27.6103 74.7351 27.0905 74.6935 26.5759C74.5757 25.0982 73.8725 24.3054 72.5804 24.142C71.1167 23.956 69.7328 24.6253 69.3673 25.8996C69.0763 26.9183 68.5948 27.1652 67.6162 26.9444C66.835 26.7671 66.014 26.7827 65.2137 26.6854C64.5503 26.6054 64.2663 26.2803 64.4429 25.5537C64.9747 23.3736 66.253 21.8351 68.309 20.9885C70.7651 19.9784 73.2905 19.8637 75.8332 20.6338C78.4747 21.4352 79.8569 23.2224 79.9158 25.9848C79.9695 28.556 79.966 31.1289 79.9279 33.7018C79.9072 35.063 80.2588 36.2504 81.0988 37.3213C81.7414 38.1401 81.6878 38.3418 80.8858 39.0267C80.1843 39.6265 79.462 40.2037 78.7969 40.8417C78.1854 41.4275 77.652 41.4171 77.1081 40.7913C76.5607 40.1619 76.0168 39.5309 75.4054 38.8251C75.0763 39.1084 74.7178 39.4248 74.3523 39.7343C72.3084 41.4675 69.9528 41.7596 67.4499 41.1407C65.8996 40.7582 64.8257 39.736 64.2212 38.2531C62.7403 34.6232 64.4603 30.5761 68.1791 29.387C70.022 28.7976 72.0088 28.6568 73.9297 28.3143C74.1531 28.2743 74.3783 28.2535 74.7004 28.2118V28.2152ZM74.8096 31.1028C73.5867 31.3167 72.5475 31.3914 71.5809 31.6922C69.6341 32.2971 68.7472 34.1729 69.376 36.1165C69.7778 37.3578 70.9487 37.9663 72.1924 37.5438C73.604 37.064 74.283 35.9305 74.5359 34.5693C74.7299 33.5315 74.7126 32.4519 74.8096 31.1046V31.1028Z" fill="white"/>
<path d="M124.899 23.7978C125.02 23.5683 125.138 23.3371 125.262 23.1094C126.47 20.8928 128.385 19.9906 130.909 20.446C133.178 20.8563 134.635 22.4383 134.939 24.9104C135.066 25.9396 135.121 26.9844 135.127 28.0223C135.147 32.0138 135.137 36.0035 135.133 39.995C135.133 41.0312 135.016 41.1476 133.994 41.1546C133.043 41.1598 132.09 41.1198 131.141 41.1685C130.311 41.2102 130.015 40.873 130.02 40.0541C130.045 36.4973 130.046 32.9404 130.02 29.3835C130.013 28.5229 129.927 27.6537 129.78 26.8053C129.618 25.8718 129.068 25.239 128.075 25.0999C127.039 24.9556 126.133 25.3555 125.791 26.2734C125.356 27.4364 125.041 28.7089 125.001 29.945C124.895 33.2376 124.966 36.5372 124.964 39.8351C124.964 41.0798 124.885 41.1546 123.629 41.1581C122.678 41.1598 121.727 41.1494 120.776 41.1581C120.166 41.165 119.881 40.8921 119.882 40.2697C119.888 34.0512 119.888 27.8345 119.882 21.616C119.882 21.0284 120.147 20.7659 120.715 20.7659C121.753 20.7659 122.791 20.7659 123.828 20.7624C124.431 20.7607 124.734 21.0406 124.724 21.6612C124.711 22.3705 124.72 23.0798 124.72 23.7908C124.781 23.7943 124.84 23.7961 124.9 23.7995L124.899 23.7978Z" fill="white"/>
<path d="M117.116 31.0315C117.061 33.2759 116.697 35.3638 115.616 37.2743C114.035 40.0681 111.683 41.5996 108.435 41.551C105.121 41.5023 102.776 39.8334 101.46 36.8693C99.7069 32.9247 99.7017 28.8758 101.479 24.9382C102.802 22.0072 105.172 20.4008 108.43 20.3487C111.696 20.2965 114.111 21.7742 115.656 24.6653C116.732 26.6767 117.054 28.8637 117.114 31.0298L117.116 31.0315ZM111.74 30.955C111.53 29.4669 111.385 27.7963 111.038 26.1691C110.747 24.8026 109.847 24.2307 108.53 24.2741C107.307 24.3141 106.306 25.0964 106.112 26.6715C105.852 28.7767 105.788 30.922 105.851 33.0447C105.884 34.1625 106.195 35.3464 106.673 36.3617C107.458 38.0288 109.597 38.0653 110.602 36.5094C110.893 36.0592 111.134 35.5289 111.224 35.0057C111.442 33.7314 111.558 32.4397 111.738 30.9533L111.74 30.955Z" fill="white"/>
<path d="M63.3706 56.4061C51.8625 56.2271 41.5305 52.4563 32.6604 44.7741C32.6379 44.755 32.6154 44.7376 32.5946 44.7167C32.2672 44.3794 31.6679 44.0822 32.0351 43.5224C32.4231 42.9296 32.9064 43.4302 33.3221 43.6215C36.3255 45.014 39.2511 46.6099 42.3377 47.7747C51.7447 51.3229 61.4861 52.4981 71.4803 51.3437C77.1737 50.6848 82.6766 49.2454 87.982 47.0567C88.1691 46.9802 88.3562 46.9054 88.5432 46.8324C89.0906 46.6238 89.6085 46.6864 89.9029 47.2149C90.2112 47.7694 89.9341 48.2527 89.4404 48.5361C87.0692 49.8938 84.7707 51.422 82.2851 52.5276C76.3388 55.1736 70.0444 56.3383 63.3723 56.4044L63.3706 56.4061Z" fill="white"/>
<path d="M91.505 24.827C89.4473 24.827 87.5541 24.8287 85.6609 24.827C84.5991 24.8252 84.4605 24.6844 84.4536 23.6344C84.4501 22.9703 84.464 22.3045 84.4502 21.6404C84.4363 20.9919 84.7273 20.679 85.3803 20.6807C89.2983 20.6859 93.218 20.6877 97.1361 20.6807C97.7787 20.6807 98.0506 20.9624 98.1008 21.616C98.2256 23.2293 97.8826 24.6218 96.8607 25.9622C94.9709 28.4377 93.2544 31.0454 91.4669 33.5992C91.3041 33.8322 91.1517 34.0721 90.9403 34.3902C92.042 34.5015 93.0829 34.498 94.0685 34.7327C95.2879 35.0213 96.4917 35.4403 97.6384 35.9462C98.009 36.1096 98.3503 36.7041 98.4092 37.1422C98.5287 38.0219 98.468 38.9311 98.4369 39.8247C98.4109 40.5653 98.0212 40.7982 97.3404 40.4801C93.1661 38.5382 89.0056 38.5208 84.8381 40.5061C84.2215 40.7999 83.7902 40.5635 83.7694 39.889C83.7331 38.792 83.7002 37.6846 83.8145 36.5981C83.8751 36.0296 84.1713 35.4385 84.5021 34.9535C86.6361 31.833 88.8099 28.7385 90.968 25.6353C91.1153 25.425 91.2521 25.2077 91.505 24.827Z" fill="white"/>
<path d="M74.8131 90.4208C73.0394 91.6586 71.2415 92.6548 69.1751 92.9208C67.9886 93.0737 66.7449 93.1276 65.5723 92.9451C63.2409 92.5818 61.7305 90.8798 61.4205 88.4668C61.2992 87.5246 61.2819 86.5649 61.2784 85.6123C61.2646 81.5634 61.2698 77.5145 61.275 73.4674C61.275 72.2991 61.3997 72.1861 62.5688 72.1809C63.1162 72.1792 63.6653 72.2087 64.2109 72.174C65.0076 72.1218 65.2761 72.4869 65.2709 73.2553C65.2501 76.6679 65.2519 80.0805 65.2675 83.4913C65.2726 84.6752 65.264 85.8678 65.4026 87.0378C65.626 88.9223 66.6947 89.8489 68.5879 89.9011C70.6422 89.9584 72.5042 89.303 74.2034 88.1939C74.4355 88.0426 74.5688 87.575 74.5706 87.2534C74.5931 82.7421 74.5844 78.2308 74.5844 73.7194C74.5844 72.207 74.6225 72.1653 76.152 72.1792C78.9285 72.2035 78.5648 71.8523 78.5717 74.6391C78.5838 80.1917 78.5769 85.7427 78.5735 91.2953C78.5735 92.4357 78.4851 92.5157 77.3298 92.5261C76.0238 92.5366 75.1849 91.8342 74.8131 90.4191V90.4208Z" fill="white"/>
<path d="M88.9783 93.3623C87.1232 92.9451 85.3201 92.5991 83.5533 92.1193C82.4673 91.8255 81.9026 90.2696 82.5141 89.3013C82.6561 89.077 83.3056 89.0631 83.6936 89.124C85.3097 89.3812 86.9049 89.795 88.5262 89.9689C89.4754 90.0697 90.4887 89.9323 91.4257 89.7081C92.6503 89.416 93.3103 88.479 93.3917 87.2534C93.4696 86.0764 92.8426 85.3167 91.8432 84.8873C90.3622 84.2528 88.8362 83.726 87.3484 83.1054C86.5551 82.7751 85.7427 82.4309 85.0395 81.9476C81.648 79.6267 81.8212 74.7712 85.3651 72.6955C87.8645 71.23 90.5493 71.376 93.2583 71.9288C93.6238 72.0036 93.984 72.1114 94.3409 72.2209C95.9067 72.7007 96.092 72.9997 95.9967 74.6443C95.9534 75.3727 95.6607 75.6074 94.9402 75.4371C93.7935 75.1641 92.6417 74.839 91.476 74.7521C90.3743 74.6704 89.2346 74.7747 88.1417 74.9677C87.0747 75.1572 86.4546 75.9256 86.3541 77.033C86.2571 78.1004 86.6971 78.9296 87.6619 79.3625C89.2623 80.0805 90.8974 80.7185 92.5187 81.393C92.9448 81.5703 93.3726 81.7407 93.7883 81.9389C96.0054 82.9941 97.2213 84.6665 97.0845 87.2186C96.9494 89.7185 95.6746 91.4465 93.4263 92.3158C92.0302 92.8564 90.4887 93.0199 88.9817 93.3589L88.9783 93.3623Z" fill="white"/>
<path d="M112.762 82.4691C112.945 83.6339 113.04 84.823 113.333 85.96C113.882 88.0931 115.374 89.2161 117.502 89.5777C119.248 89.875 120.944 89.6246 122.628 89.1813C123.693 88.9014 123.859 89.0214 123.876 90.1045C123.906 91.8499 123.844 91.9768 122.162 92.4618C119.695 93.1711 117.203 93.2024 114.752 92.4392C111.849 91.5352 110.063 89.4977 109.273 86.5841C108.532 83.8512 108.518 81.0888 109.254 78.3612C110.356 74.2758 113.373 71.9132 117.92 71.7759C119.553 71.7255 121.214 72.1531 122.837 72.4834C123.644 72.6486 124.143 74.7991 123.532 75.3641C123.327 75.5518 122.846 75.4996 122.501 75.4631C121.219 75.3293 119.939 75.0094 118.661 75.0251C115.242 75.0703 113.402 76.807 112.997 80.2022C112.909 80.9462 112.893 81.7007 112.845 82.45C112.817 82.457 112.789 82.4622 112.763 82.4691H112.762Z" fill="white"/>
<path d="M104.543 82.37C104.543 85.3741 104.546 88.3782 104.541 91.3822C104.539 92.4062 104.42 92.5174 103.389 92.5279C102.814 92.5331 102.236 92.4983 101.662 92.5348C100.88 92.5853 100.554 92.2323 100.564 91.4674C100.58 90.4278 100.568 89.3882 100.568 88.3486C100.568 83.467 100.563 78.5854 100.564 73.7038C100.564 72.24 100.628 72.1827 102.054 72.1809C102.515 72.1809 102.977 72.2122 103.436 72.174C104.254 72.1044 104.565 72.4382 104.557 73.2709C104.526 76.3028 104.545 79.3364 104.545 82.37H104.543Z" fill="white"/>
<path d="M88.3872 44.4994C87.1557 44.6159 85.8687 44.7549 84.5766 44.8488C84.3046 44.8679 84.0206 44.7202 83.7417 44.6489C83.8924 44.3933 83.9807 44.0509 84.2007 43.8961C86.0021 42.6253 88.0754 42.109 90.2232 42.0568C91.6713 42.0221 93.1297 42.2846 94.5777 42.4636C95.3225 42.5558 95.6655 43.0912 95.6395 43.8144C95.5096 47.5034 94.3266 50.7631 91.6349 53.3673C91.4132 53.5828 90.994 53.5933 90.6684 53.6993C90.6857 53.3812 90.6407 53.0457 90.729 52.7484C91.3352 50.7092 92.0662 48.703 92.5581 46.6377C92.8872 45.2556 92.3797 44.7671 90.9438 44.6019C90.5437 44.5567 90.1418 44.5202 89.74 44.5046C89.3087 44.4872 88.8774 44.5011 88.3855 44.5011L88.3872 44.4994Z" fill="white"/>
<path d="M102.535 68.5632C101.027 68.5423 100.098 67.6088 100.107 66.1207C100.116 64.6673 101.096 63.7233 102.598 63.7233C104.122 63.7233 105.108 64.7212 105.069 66.2232C105.033 67.6905 104.065 68.5841 102.535 68.5632Z" fill="white"/>
</svg>
