<svg width="150" height="75" viewBox="0 0 150 75" fill="none" xmlns="http://www.w3.org/2000/svg">
<g clip-path="url(#clip0_1326_189)">
<path d="M57.4329 25.6466C52.0482 29.2317 49.1741 34.0966 49.6139 40.5876C50.0516 47.0786 53.5789 51.4951 59.3403 54.388C59.2772 54.5861 59.2097 54.8059 59.1356 55.0236C57.9446 58.5085 56.3377 61.7888 54.23 64.8123C53.1783 66.3229 52.0765 67.8031 50.9225 69.2376C50.2889 70.0255 49.5421 70.7395 48.7713 71.3991C46.0104 73.7608 42.8749 74.2549 39.4608 73.1121C38.6007 72.8226 37.7581 72.47 36.9285 72.0978C34.603 71.0551 32.1818 70.6307 29.6408 70.8614C28.1144 71.0007 26.6687 71.4252 25.2534 71.9889C24.0471 72.47 22.8473 72.9772 21.6106 73.3646C18.8235 74.2418 16.2673 73.7412 13.9571 71.9411C12.5614 70.8527 11.3834 69.5597 10.273 68.1927C5.71351 62.5812 2.64775 56.2447 0.975521 49.2118C0.0871479 45.4852 -0.132768 41.7086 0.0697288 37.9146C0.278758 33.9617 1.33479 30.2221 3.52524 26.8765C6.15116 22.8626 9.75909 20.1918 14.4535 19.0512C17.4017 18.3329 20.302 18.4918 23.1435 19.5627C24.3802 20.0285 25.6083 20.5139 26.845 20.9819C27.3502 21.1735 27.8662 21.3433 28.3779 21.5152C29.5472 21.9092 30.7208 21.9266 31.8857 21.5065C33.1681 21.0407 34.4463 20.5618 35.72 20.0786C37.3836 19.4473 39.0601 18.8661 40.826 18.5919C43.1319 18.2327 45.4159 18.4352 47.663 18.9924C51.4255 19.9262 54.5588 21.8635 56.9386 24.9588C57.0954 25.1634 57.2391 25.3767 57.4329 25.6466Z" fill="white"/>
<path d="M117.25 73.3211C117.165 73.1056 117.082 72.9075 117.008 72.7051C112.73 60.9182 108.39 49.1552 104.194 37.3378C101.723 30.3788 99.0929 23.4808 96.6128 16.5262C96.541 16.3259 96.4822 16.1235 96.4038 15.871H106.561C106.633 16.056 106.72 16.2497 106.786 16.4522C108.834 22.6406 110.862 28.8355 112.937 35.0152C114.032 38.2781 115.203 41.5171 116.344 44.7647C118.685 51.4277 120.773 58.169 122.63 64.9821C122.687 65.1867 122.763 65.3848 122.879 65.7352C122.994 65.3957 123.07 65.1932 123.129 64.9864C125.435 56.9456 128.213 49.0616 131.063 41.2036C132.91 36.1145 134.58 30.9665 136.391 25.8665C137.508 22.7233 138.582 19.5671 139.679 16.4173C139.749 16.2149 139.836 16.019 139.923 15.8013H150C149.95 15.9951 149.926 16.1583 149.869 16.3085C146.812 24.4124 143.74 32.512 140.698 40.6224C139.658 43.3999 138.713 46.2123 137.683 48.9941C134.741 56.9348 131.775 64.8667 128.819 72.8009C128.758 72.9619 128.692 73.1208 128.612 73.3211H117.248H117.25Z" fill="white"/>
<path d="M83.555 15.8819H94.1915V22.806H83.6486C83.6203 23.0477 83.579 23.2305 83.5768 23.4155C83.5463 26.4716 83.4309 29.5299 83.5093 32.5839C83.7314 41.3386 83.5441 50.0956 83.6138 58.8503C83.6247 60.2608 83.6573 61.6692 84.0514 63.0383C84.1233 63.2886 84.2082 63.5324 84.2975 63.7762C84.7896 65.1214 85.7455 65.9508 87.1194 66.3208C88.5042 66.6952 89.913 66.6756 91.3174 66.5102C92.5628 66.3643 93.7996 66.1445 95.0429 65.9573C95.1844 66.3861 95.2345 71.9302 95.0951 72.9968C94.283 73.1883 93.449 73.4126 92.602 73.5758C90.0828 74.0634 87.5396 74.2985 84.9725 74.2484C83.8206 74.2266 82.6819 74.0873 81.5649 73.7978C78.1311 72.9054 75.9298 70.7156 74.8237 67.3787C74.1487 65.3369 73.9723 63.2277 73.9571 61.0967C73.944 59.3836 73.9549 57.6727 73.9549 55.9596C73.9549 49.3054 73.8852 42.6512 73.981 35.9991C74.0398 31.8808 74.0115 27.7646 73.9963 23.6484C73.9963 23.372 73.9702 23.0977 73.9549 22.7625H67.3596V15.8471H74.2881V6.77016C77.3516 5.52072 80.3913 4.27999 83.4919 3.01532C83.616 3.78152 83.5376 4.4846 83.5528 5.18333C83.5681 5.87553 83.555 6.5699 83.555 7.26427V15.8819Z" fill="white"/>
<path d="M29.582 17.5906C29.3076 16.1823 29.4122 14.861 29.7388 13.5811C31.4763 6.76362 35.8441 2.59956 42.6528 0.951783C43.1319 0.836417 43.6327 0.816827 44.1944 0.744995C44.2859 1.66575 44.3207 2.53208 44.2118 3.38535C43.5673 8.4201 41.2745 12.4906 37.0417 15.3747C35.1104 16.6916 32.9744 17.4927 30.6097 17.5884C30.27 17.6015 29.9304 17.5884 29.582 17.5884V17.5906Z" fill="white"/>
</g>
<defs>
<clipPath id="clip0_1326_189">
<rect width="150" height="73.5099" fill="white" transform="translate(0 0.744995)"/>
</clipPath>
</defs>
</svg>
