<svg width="150" height="16" viewBox="0 0 150 16" fill="none" xmlns="http://www.w3.org/2000/svg">
<g clip-path="url(#clip0_1281_430)">
<path d="M52.5524 15.2119C47.9519 13.6313 46.0121 10.1134 47.2112 5.52534C48.1452 1.95545 51.2914 -0.0710453 55.1883 0.389746C58.9143 0.830719 61.3818 3.74659 61.3471 7.67322C61.3124 11.8055 59.8334 13.8022 55.768 15.2119H52.5524ZM50.6919 7.64102C50.9347 8.6394 51.0412 9.53869 51.3781 10.3438C51.8587 11.4834 52.82 12.0309 54.1057 12.0557C55.4063 12.078 56.375 11.5181 56.8779 10.4033C57.7004 8.57747 57.7029 6.68475 56.7045 4.91839C55.6194 2.99842 52.7035 2.95878 51.6085 4.87131C51.123 5.71858 50.9743 6.75412 50.6919 7.64597V7.64102Z" fill="white"/>
<path d="M141.589 15.2119C140.247 14.5529 138.899 13.8989 137.561 13.2275C137.12 13.007 136.707 12.7345 136.137 12.4026C137.358 11.4166 138.146 10.7799 138.706 10.3265C140.207 10.9806 141.527 11.6717 142.93 12.1177C143.574 12.3233 144.416 12.1697 145.09 11.9492C145.494 11.8179 146.004 11.2432 146.004 10.8691C146.004 10.5074 145.471 9.9351 145.068 9.82362C143.727 9.45449 142.33 9.29098 140.973 8.96893C139.345 8.58493 137.95 7.83429 137.4 6.13481C136.721 4.03152 137.707 2.03971 139.865 1.04381C142.858 -0.338567 146.98 0.350143 149.47 2.69869C148.749 3.45429 148.031 4.20741 147.486 4.77969C146.153 4.25201 145.075 3.79121 143.97 3.4097C143.599 3.28088 143.083 3.20903 142.764 3.36758C142.196 3.65 141.731 4.12566 141.223 4.52204C141.661 4.93824 142.03 5.56254 142.551 5.72604C143.757 6.10756 145.038 6.2562 146.284 6.51633C147.986 6.87059 149.311 7.7129 149.995 9.36283V11.5553C149.23 13.775 147.431 14.704 145.296 15.2119C144.059 15.2119 142.823 15.2119 141.584 15.2119H141.589Z" fill="white"/>
<path d="M114.341 9.52889C115.421 11.3126 116.483 13.0691 117.655 14.9989C116.238 14.9989 115.017 15.0485 113.803 14.9642C113.496 14.9444 113.137 14.558 112.943 14.2532C112.287 13.2276 111.638 12.1871 111.088 11.102C110.548 10.0343 109.812 9.57844 108.524 10.0169V14.8949H104.607V0.459229C107.637 0.597961 110.634 0.578142 113.587 0.922497C115.497 1.14546 116.692 2.52784 116.986 4.46266C117.269 6.31822 116.83 7.92851 115.111 9.00369C114.871 9.15481 114.643 9.32079 114.343 9.52641L114.341 9.52889ZM108.571 3.75909V6.79883C109.688 6.79883 110.716 6.87067 111.729 6.77653C112.589 6.69725 113.169 6.19682 113.146 5.24304C113.122 4.29668 112.549 3.82846 111.67 3.77395C110.657 3.71202 109.634 3.75909 108.573 3.75909H108.571Z" fill="white"/>
<path d="M30.8755 14.8849C30.6278 14.9518 30.5881 14.9692 30.5485 14.9717C28.0117 15.1219 26.1132 14.1178 24.853 11.9592C24.6697 11.6421 24.4344 11.3473 24.2981 11.0128C23.8423 9.89056 23.0148 9.65025 21.7959 10.0169V14.9023H17.9585V0.444336C20.9908 0.60041 24.0256 0.61032 27.0183 0.964584C28.8391 1.18012 29.9688 2.54019 30.2537 4.36602C30.546 6.24882 30.1744 7.93344 28.3783 9.03091C28.1702 9.15726 27.9696 9.29599 27.6326 9.514C28.7029 11.2853 29.7582 13.0343 30.873 14.8825L30.8755 14.8849ZM21.8282 6.91523C23.0545 6.84587 24.2263 6.92514 25.3064 6.65016C25.787 6.52876 26.3964 5.67655 26.3692 5.18603C26.3444 4.69799 25.6557 3.94486 25.1503 3.84329C24.0949 3.63519 22.9677 3.78136 21.8282 3.78136V6.91523Z" fill="white"/>
<path d="M128.878 6.29833C130.989 9.32568 132.891 12.0557 134.942 14.9989C133.374 14.9989 132.034 15.0435 130.699 14.9642C130.391 14.9468 130.04 14.5529 129.824 14.2507C128.65 12.6032 127.51 10.9285 126.336 9.23154C123.938 10.7229 125.471 13.0517 124.803 14.9221H121.116V0.654875H124.921V5.40152C125.043 5.48575 125.167 5.56998 125.288 5.65421C126.15 4.71529 127.154 3.86555 127.845 2.81762C129.571 0.203993 132.088 0.397228 134.717 0.692035C132.77 2.55997 130.842 4.41057 128.878 6.29833Z" fill="white"/>
<path d="M14.3142 15.0037C13.4967 15.0037 12.8724 14.9368 12.2729 15.0161C10.8087 15.2118 9.82027 14.8823 9.66915 13.2076C9.64438 12.9474 9.10679 12.5932 8.75748 12.5288C8.16291 12.4173 7.5287 12.4966 6.91184 12.4966C4.94232 12.4966 4.96462 12.5065 4.23132 14.3273C4.11488 14.6147 3.70116 14.9492 3.40388 14.9715C2.34356 15.0507 1.27333 15.0012 0.00244141 15.0012C0.421118 13.703 0.785291 12.5288 1.17919 11.3644C2.28906 8.1017 3.43856 4.85139 4.50878 1.5763C4.75157 0.83309 5.07115 0.513509 5.87877 0.572966C7.06296 0.659674 8.53204 0.243475 9.35948 0.79593C10.1225 1.30379 10.2142 2.80756 10.5783 3.87778C11.6783 7.10085 12.7708 10.3239 13.8609 13.5494C14.0021 13.9656 14.121 14.3893 14.3118 15.0012L14.3142 15.0037ZM7.24628 4.75477C7.17444 4.75477 7.10259 4.75477 7.02827 4.75477C6.61207 6.24863 6.1934 7.74249 5.75243 9.32553H8.50974C8.07372 7.75487 7.66 6.25358 7.2438 4.75477H7.24628Z" fill="white"/>
<path d="M100.998 15.0014C99.687 15.0014 98.5722 15.0831 97.4796 14.9543C97.1378 14.9147 96.6695 14.3374 96.6002 13.9485C96.3896 12.7519 95.7802 12.2887 94.5836 12.4893C94.3036 12.5364 94.0088 12.4968 93.719 12.4968C91.6355 12.4968 91.6529 12.5042 90.8477 14.4019C90.7362 14.662 90.3522 14.9568 90.0772 14.9741C88.9798 15.0385 87.8749 15.0014 86.6064 15.0014C88.2613 10.1358 89.8667 5.42137 91.5092 0.590496C92.8445 0.590496 94.1971 0.55829 95.5473 0.617747C95.8148 0.630134 96.2187 0.939805 96.3078 1.19745C97.8686 5.71866 99.3922 10.2523 100.998 15.0014ZM93.8899 4.72028C93.8181 4.72028 93.7438 4.7178 93.6719 4.71532C93.2532 6.23891 92.837 7.76249 92.4109 9.30837H95.136C94.7025 7.71294 94.2962 6.21661 93.8899 4.72028Z" fill="white"/>
<path d="M72.9785 0.776256C75.8746 0.776256 78.6814 0.59293 81.4487 0.828281C84.1193 1.05372 85.5239 2.98855 85.4149 5.64182C85.3183 8.01019 83.7501 9.62048 81.1613 9.83849C79.7814 9.95492 78.3841 9.85831 76.8507 9.85831V14.9295H72.9785V0.776256ZM76.8928 6.90032C78.0993 6.84582 79.2364 6.85821 80.3561 6.72443C81.2306 6.62038 81.7014 5.91928 81.4586 5.14882C81.2876 4.61123 80.6931 3.92747 80.1852 3.8259C79.1348 3.62028 78.0175 3.76397 76.8928 3.76397V6.89785V6.90032Z" fill="white"/>
<path d="M44.3226 14.9392H34.812V0.677002H38.5974V11.7756H44.3202V14.9368L44.3226 14.9392Z" fill="white"/>
</g>
<defs>
<clipPath id="clip0_1281_430">
<rect width="150" height="14.8865" fill="white" transform="translate(0 0.325439)"/>
</clipPath>
</defs>
</svg>
