<svg width="150" height="39" viewBox="0 0 150 39" fill="none" xmlns="http://www.w3.org/2000/svg">
<g clip-path="url(#clip0_1326_175)">
<path d="M78.806 38.8708H65.162V21.0437C65.0559 21.0251 64.9499 21.0065 64.8415 20.9879C63.4797 23.2704 62.1226 25.5552 60.7537 27.8354C58.5414 31.5162 56.3219 35.1947 54.1049 38.8732H40.4608C40.449 38.6428 40.4278 38.4125 40.4278 38.1821C40.4278 25.8135 40.4254 13.4448 40.4278 1.07841C40.4278 0.789901 40.4938 0.499065 40.5244 0.254762H52.5475V17.8469C53.0022 17.5886 53.219 17.2512 53.424 16.9046C56.5693 11.6183 59.7265 6.33673 62.8459 1.03653C63.2276 0.387384 63.647 0.131448 64.4198 0.138428C68.2979 0.177982 72.1784 0.154715 76.0588 0.159368C76.4005 0.159368 76.7421 0.201248 77.2298 0.231495V17.8678C77.7246 17.5584 77.9673 17.1838 78.1958 16.8022C81.3223 11.5485 84.4583 6.30183 87.5589 1.0342C87.9406 0.385057 88.3599 0.129121 89.1327 0.138428C93.0109 0.177982 96.8913 0.154715 100.772 0.159368C101.076 0.159368 101.38 0.201248 101.851 0.236149C101.575 0.736387 101.368 1.13425 101.139 1.52048C95.6591 10.7295 90.1812 19.9409 84.6892 29.1453C82.7478 32.4003 80.7686 35.6344 78.8084 38.8778L78.806 38.8708Z" fill="white"/>
<path d="M0 38.871C0.16257 38.4498 0.268593 37.9985 0.497133 37.6145C7.73031 25.439 14.98 13.2727 22.2061 1.09249C22.6043 0.420074 23.0331 0.119931 23.86 0.129238C27.7005 0.175772 31.5409 0.147852 35.3813 0.152505C35.73 0.152505 36.0787 0.180425 36.5664 0.201365C36.5923 0.638783 36.6347 1.04363 36.6347 1.44614C36.6394 13.5077 36.6394 25.5693 36.63 37.6308C36.63 38.045 36.5193 38.4568 36.4604 38.871H24.6988C24.6328 38.4242 24.508 37.9775 24.5056 37.5308C24.4915 32.4121 24.4985 27.2934 24.4938 22.177C24.4938 21.8 24.4608 21.4231 24.442 21.0439C24.3525 21.0369 24.2606 21.0276 24.1711 21.0206C20.6605 26.9723 17.1499 32.9216 13.6417 38.8733H0V38.871Z" fill="white"/>
<path d="M83.04 38.8709C83.2215 38.4521 83.3605 38.01 83.5914 37.6191C90.8269 25.4482 98.0766 13.2843 105.3 1.10636C105.698 0.433946 106.116 0.119843 106.947 0.131476C110.825 0.175683 114.706 0.150089 118.584 0.154743C118.926 0.154743 119.267 0.201277 119.736 0.23385V38.8732H107.739C107.689 38.4172 107.6 37.9611 107.6 37.5074C107.59 32.4213 107.595 27.3351 107.59 22.249C107.59 21.8581 107.555 21.4672 107.536 21.0763L107.289 21.0484C103.755 26.9908 100.218 32.9332 96.6841 38.8755H83.04V38.8709Z" fill="white"/>
<path d="M123.501 38.8709V0.21759H135.592V26.814H149.835C149.903 27.1746 149.993 27.4259 149.995 27.6772C150.005 31.1463 150.005 34.6154 149.995 38.0845C149.995 38.3474 149.901 38.608 149.849 38.8709H123.501Z" fill="white"/>
</g>
<defs>
<clipPath id="clip0_1326_175">
<rect width="150" height="38.7417" fill="white" transform="translate(0 0.12915)"/>
</clipPath>
</defs>
</svg>
