<svg width="150" height="43" viewBox="0 0 150 43" fill="none" xmlns="http://www.w3.org/2000/svg">
<g clip-path="url(#clip0_1326_194)">
<path d="M150 43H107.393V0.0127151C121.501 -0.00636769 135.633 -6.74784e-06 150 0.0127151V43ZM137.985 27.9627C133.301 29.6102 128.769 31.1114 124.964 26.8368C122.942 24.566 122.841 19.1592 124.749 16.6911C128.302 12.1049 132.884 13.5043 137.574 14.9355V10.9345C131.184 7.88121 124.073 9.08979 120.515 13.7333C117.095 18.1987 117.278 25.7046 120.748 29.9601C124.478 34.5336 133.333 35.0615 137.985 31.9383V27.9627Z" fill="white"/>
<path d="M53.6365 42.9109V0.184448H96.3636V42.9173H53.6365V42.9109ZM80.8023 20.4123C80.9603 20.2596 81.2701 20.0052 81.5292 19.7062C84.6389 16.2013 83.4823 11.5324 79.0389 10.1584C74.7535 8.8417 70.3734 9.6559 66.0248 9.46507V33.2677C70.405 33.2677 74.6334 33.6812 78.7418 33.1596C83.3938 32.5744 85.7893 28.1917 83.9753 24.2988C83.3116 22.8739 81.9464 21.7799 80.796 20.4123H80.8023Z" fill="white"/>
<path d="M0 0.158997H42.6007V42.8791H0V0.158997ZM12.2303 33.3568C16.5789 33.3568 20.5608 33.554 24.5112 33.2932C27.5704 33.0896 29.8205 31.334 30.6422 28.2235C31.3943 25.3738 30.3135 23.2174 27.3175 21.0865C27.1785 20.9847 27.1406 20.743 26.9952 20.4568C27.2607 20.2087 27.583 19.9606 27.8422 19.6617C30.8128 16.2904 29.7763 11.685 25.5731 10.2602C21.2182 8.77808 16.7432 9.66225 12.2303 9.47778V33.3568Z" fill="white"/>
<path d="M70.74 29.6484V23.2747C72.7689 23.2747 74.7346 23.0902 76.6497 23.3256C78.7482 23.58 79.633 24.8777 79.5003 26.7859C79.3613 28.7578 78.0782 29.5275 76.3463 29.6293C74.5829 29.7374 72.8131 29.6547 70.74 29.6547V29.6484Z" fill="white"/>
<path d="M70.7841 19.3118V13.5042C72.4717 13.5042 74.1025 13.4279 75.7205 13.5233C77.2817 13.6187 78.2172 14.4902 78.293 16.1313C78.3752 17.8742 77.5029 19.0383 75.8533 19.2609C74.2415 19.4772 72.5792 19.3054 70.7778 19.3054L70.7841 19.3118Z" fill="white"/>
<path d="M17.0718 29.4956V23.2047C18.9427 23.2047 20.6998 23.0775 22.4379 23.2365C24.7513 23.4464 25.8637 24.6741 25.8005 26.6078C25.7373 28.4461 24.7513 29.4002 22.4885 29.6419C21.3445 29.7628 20.1815 29.731 19.0312 29.7119C18.4307 29.7056 17.8302 29.5847 17.0781 29.4956H17.0718Z" fill="white"/>
<path d="M17.1162 13.5551C18.8607 13.5551 20.5103 13.4724 22.141 13.5806C23.7402 13.6887 24.5555 14.6619 24.5555 16.2967C24.5555 17.8806 23.8034 19.0255 22.2864 19.2355C20.662 19.4581 18.9808 19.2863 17.1099 19.2863V13.5551H17.1162Z" fill="white"/>
</g>
<defs>
<clipPath id="clip0_1326_194">
<rect width="150" height="43" fill="white"/>
</clipPath>
</defs>
</svg>
