<svg width="150" height="88" viewBox="0 0 150 88" fill="none" xmlns="http://www.w3.org/2000/svg">
<g clip-path="url(#clip0_1281_226)">
<path d="M2.52357 87.6103C2.47846 87.2386 2.39326 86.8668 2.39326 86.495C2.38574 69.6788 2.38574 52.8652 2.38574 36.0491C2.38574 35.7582 2.38574 35.4674 2.38574 35.0779H4.64362V85.1192H145.329C145.246 86.0625 145.181 86.8364 145.113 87.6103H2.52357Z" fill="white"/>
<path d="M145.92 0.401001V59.4611H143.705V2.60893H2.70398V0.401001H145.92Z" fill="white"/>
<path d="M51.811 54.0059V33.3252C54.1441 33.5553 56.4772 33.4668 58.6223 34.0688C61.9026 34.9894 63.1455 39.5418 61.1257 42.3162C60.9603 42.5439 60.7824 42.7639 60.5444 43.0699C62.3286 43.9121 63.4713 45.2121 63.8372 47.1393C64.4537 50.3841 62.5115 53.5329 59.2663 53.9477C56.8556 54.2537 54.3771 54.0084 51.8135 54.0084L51.811 54.0059ZM54.936 51.3907C56.204 51.287 57.4094 51.2946 58.5696 51.0695C59.9655 50.7989 60.835 49.6482 60.8902 48.3128C60.9478 46.9344 60.1108 45.6673 58.6799 45.3512C57.4946 45.0907 56.2491 45.1033 54.936 44.9895V51.3933V51.3907ZM54.8608 42.3137C56.4746 42.4427 57.9331 42.5464 58.7601 41.0289C59.3766 39.8959 59.3916 38.649 58.6323 37.5716C57.7126 36.264 56.3443 36.3045 54.8608 36.5018C54.8608 38.0825 54.8608 39.5823 54.8608 41.082C54.8608 41.4513 54.8608 41.8205 54.8608 42.3137Z" fill="white"/>
<path d="M0 10.0497C1.97471 10.0497 3.92185 9.80688 5.78378 10.1003C9.87854 10.7427 11.6102 15.5303 9.09167 18.8864C8.99394 19.0154 8.90873 19.152 8.75336 19.3796C10.6955 20.3685 11.9059 21.8556 12.0813 24.0686C12.3394 27.3008 10.2895 30.0601 7.09441 30.3661C4.78641 30.5862 2.44082 30.4091 0 30.4091L0 10.0497ZM3.05979 27.7586C4.45562 27.6119 5.75121 27.5993 6.98164 27.3084C8.26219 27.0075 9.01649 25.8466 9.04155 24.6023C9.06661 23.2694 8.34238 22.058 7.02925 21.7342C5.77125 21.4232 4.44309 21.3953 3.05979 21.2335V27.7586ZM3.00717 18.6563C4.55586 18.8156 5.9567 18.8586 6.83379 17.5055C7.57054 16.3674 7.57305 15.0573 6.82126 13.9294C5.93164 12.5914 4.53832 12.6269 3.09738 12.8267C3.05979 13.0391 3.00967 13.1984 3.00967 13.3578C3.00466 15.0776 3.00717 16.7974 3.00717 18.6563Z" fill="white"/>
<path d="M49.6232 30.5128H46.6336C46.6336 28.3251 46.6536 26.1906 46.6236 24.056C46.611 23.1758 46.5409 22.2881 46.4131 21.4181C46.2827 20.5354 45.7114 19.8121 44.8418 19.9234C44.1151 20.017 43.1327 20.4419 42.8345 21.021C42.3809 21.9012 42.3133 23.0342 42.2757 24.0686C42.2005 26.1678 42.2531 28.2695 42.2531 30.4749H39.3337C39.3111 30.0551 39.2685 29.6099 39.2635 29.1673C39.2284 26.8507 39.261 24.5314 39.1533 22.2198C39.0856 20.7428 38.3664 19.9436 37.3314 19.8627C36.1636 19.7716 35.1913 20.543 35.0159 22.0327C34.8254 23.6564 34.8781 25.3079 34.848 26.9493C34.8279 28.0823 34.843 29.2179 34.843 30.4648H31.926V17.7407C33.6752 17.2425 34.6199 17.4195 34.8806 18.0746C36.0308 17.7509 37.171 17.1236 38.2611 17.2046C39.3637 17.288 40.4138 18.0721 41.6793 18.6361C42.5213 17.7787 43.7893 17.068 45.3906 17.1135C47.5508 17.1742 49.0218 18.244 49.3626 20.3913C49.6257 22.0403 49.5756 23.7424 49.6132 25.4242C49.6508 27.0985 49.6207 28.7753 49.6207 30.5179L49.6232 30.5128Z" fill="white"/>
<path d="M56.5799 29.5669C56.006 31.4056 54.5801 30.2296 53.47 30.6519V8.02637H56.3919V18.6512C60.6396 16.5773 63.1305 16.8125 65.0927 19.3897C67.1651 22.1111 67.0874 26.3296 64.9148 28.8967C62.8599 31.3272 60.0832 31.5498 56.5799 29.5669ZM63.4838 24.1824C63.5014 21.671 62.0254 19.8728 59.9254 19.8475C57.7903 19.8222 56.2265 21.6002 56.2215 24.0585C56.2165 26.4763 57.69 28.1936 59.8026 28.2341C61.9251 28.2745 63.4688 26.5775 63.4863 24.1824H63.4838Z" fill="white"/>
<path d="M136.881 57.6224H139.788V68.3889C140.102 68.2321 140.259 68.1917 140.367 68.093C142.976 65.6726 148.324 66.3504 149.687 71.5175C150.276 73.7507 150.078 75.9561 148.757 77.9465C146.935 80.6881 143.462 81.4063 140.713 79.6208C140.475 79.4665 140.244 79.3046 139.919 79.0846C139.826 79.507 139.758 79.818 139.681 80.1671H136.881V57.6224ZM146.893 73.6874C146.878 71.2696 145.359 69.4992 143.309 69.5068C141.142 69.5144 139.615 71.262 139.628 73.7229C139.64 76.1407 141.142 77.8934 143.211 77.9136C145.324 77.9338 146.908 76.1154 146.89 73.6874H146.893Z" fill="white"/>
<path d="M111.796 64.1248C106.782 61.2062 103.251 61.4667 100.499 64.8153C98.1213 67.7111 98.1313 72.127 100.519 74.9596C103.271 78.2197 106.875 78.422 111.789 75.4654C111.789 76.5934 111.849 77.6228 111.754 78.637C111.724 78.9455 111.32 79.3224 110.999 79.4867C106.358 81.854 100.647 80.4377 97.5775 76.1862C94.5753 72.0284 95.0239 66.133 98.6275 62.3823C101.765 59.1172 106.539 58.1814 110.616 59.9492C111.523 60.3438 111.929 60.8395 111.811 61.8436C111.729 62.5365 111.796 63.2498 111.796 64.1248Z" fill="white"/>
<path d="M79.1712 18.6487C79.2414 18.2794 79.3065 17.9405 79.3792 17.5662H82.1608V30.3863C80.136 30.8997 79.4619 30.7202 79.1161 29.4253C77.4897 30.7859 75.6203 31.4258 73.6731 30.6696C72.4903 30.2118 71.2749 29.4 70.4955 28.4111C68.4231 25.7833 68.7188 21.4484 70.899 19.0634C73.0892 16.6709 75.6278 16.5267 79.1737 18.6461L79.1712 18.6487ZM79.4845 24.0079C79.4619 21.5647 77.8681 19.7969 75.7305 19.8475C73.6932 19.8955 72.157 21.7393 72.1871 24.0989C72.2197 26.4991 73.7533 28.2492 75.8232 28.2391C77.9859 28.229 79.5095 26.4687 79.487 24.0079H79.4845Z" fill="white"/>
<path d="M132.751 48.4215H123.845C123.722 49.9162 124.384 51.1075 125.644 51.631C127.955 52.5921 129.343 51.2617 130.511 49.4054C131.378 49.8909 132.167 50.3335 132.949 50.7711C131.661 53.5911 129.1 54.9568 125.94 54.5648C123.136 54.2158 121.146 52.372 120.685 49.4559C120.5 48.2748 120.497 47.0027 120.715 45.8292C121.394 42.1645 124.464 40.2069 128.178 40.9277C131.426 41.5575 133.413 44.7391 132.751 48.4215ZM129.656 45.8469C129.26 44.2687 128.371 43.558 126.895 43.5479C125.404 43.5378 124.421 44.2991 124.013 45.8469H129.656Z" fill="white"/>
<path d="M28.6307 24.0408C28.6383 28.0317 25.7464 30.9225 21.7468 30.92C17.7448 30.92 14.8178 27.9508 14.8253 23.9042C14.8328 20.1358 17.9252 17.1009 21.7569 17.1034C25.6662 17.1059 28.6232 20.0903 28.6307 24.0383V24.0408ZM17.9302 24.0256C17.8901 26.5345 19.4113 28.2214 21.7293 28.2391C24.0147 28.2543 25.5559 26.6458 25.586 24.2153C25.6186 21.5951 24.1225 19.8728 21.7944 19.8526C19.524 19.8323 17.9703 21.5091 17.9302 24.0256Z" fill="white"/>
<path d="M86.0926 61.3529C87.5611 58.5785 88.8241 56.019 90.26 53.5632C90.9818 52.3265 91.0018 51.373 90.26 50.1287C88.5685 47.2834 87.0424 44.3395 85.3032 41.1705C86.4785 41.1705 87.4559 41.1048 88.4156 41.2085C88.7189 41.2413 89.0522 41.689 89.2351 42.0228C90.3803 44.122 91.488 46.2414 92.7359 48.596C93.2547 47.592 93.6932 46.7751 94.1042 45.943C94.7031 44.7391 95.3472 43.553 95.8534 42.3112C96.2318 41.3855 96.7781 41.0112 97.7604 41.1402C98.3669 41.2186 98.9883 41.1553 99.8379 41.1553C98.828 43.1534 97.9158 44.9693 96.9911 46.7801C94.7558 51.158 92.4778 55.5132 90.3026 59.9189C89.7664 61.0039 89.1724 61.578 87.937 61.3681C87.4158 61.2796 86.8695 61.3529 86.0926 61.3529Z" fill="white"/>
<path d="M84.6643 17.5156C85.7243 17.5156 86.639 17.4245 87.5236 17.5586C87.9045 17.6142 88.3356 18.0644 88.5461 18.4463C89.6988 20.5253 90.7914 22.6396 92.0243 24.9664C93.0393 22.9102 94.0542 21.1247 94.811 19.2379C95.3723 17.8393 96.1717 17.2602 97.6252 17.508C98.0236 17.5763 98.4421 17.5181 99.0937 17.5181C98.174 19.3239 97.3445 20.9577 96.5125 22.5865C94.197 27.1136 91.8289 31.6129 89.591 36.1805C89.0021 37.3844 88.308 37.9054 87.0174 37.7005C86.5739 37.6297 86.1077 37.6904 85.4863 37.6904C85.6416 37.2807 85.7243 36.9797 85.8647 36.7117C87.1953 34.1825 88.516 31.6483 89.8918 29.1445C90.2802 28.4389 90.3027 27.8977 89.8918 27.1769C88.313 24.4024 86.8069 21.585 85.2808 18.7802C85.0853 18.4235 84.9224 18.0492 84.6643 17.5207V17.5156Z" fill="white"/>
<path d="M122.051 67.2002H124.953C124.953 69.5649 124.945 71.874 124.958 74.1831C124.96 74.7699 124.97 75.3718 125.088 75.9409C125.359 77.2307 126.211 77.8908 127.491 77.8984C128.689 77.9035 129.611 77.2813 129.822 76.037C130.025 74.8457 130.01 73.6115 130.035 72.395C130.068 70.7132 130.042 69.0288 130.042 67.2432H132.784C132.784 70.4881 133.007 73.7304 132.711 76.9247C132.486 79.3628 129.905 80.7513 126.915 80.5616C124.309 80.3972 122.216 78.7052 122.089 76.305C121.931 73.3283 122.051 70.3338 122.051 67.2027V67.2002Z" fill="white"/>
<path d="M111.458 45.599C108.616 43.1837 106.627 42.9662 104.913 44.7239C103.452 46.2237 103.391 49.0057 104.785 50.6294C106.376 52.4833 108.278 52.3113 111.456 49.9238C111.456 51.1074 111.503 52.1848 111.423 53.2521C111.403 53.5177 111.012 53.8414 110.719 53.9855C107.84 55.3867 104.081 54.4939 102.118 51.9749C100.229 49.5495 100.234 45.9885 102.126 43.5301C104.093 40.9783 107.86 40.0222 110.696 41.4082C111.03 41.5701 111.388 42.0329 111.426 42.387C111.526 43.3733 111.461 44.3774 111.461 45.5964L111.458 45.599Z" fill="white"/>
<path d="M84.1705 49.9364C84.1705 50.6698 84.1705 51.2111 84.1705 51.7498C84.173 53.9375 84.0527 54.0816 81.875 54.4838C78.8102 55.0503 75.8557 53.7984 74.4022 51.3122C72.9412 48.816 73.1768 45.5838 74.9761 43.386C76.9032 41.0364 80.1108 40.1967 83.0403 41.2185C83.8598 41.5043 84.2883 41.9014 84.1881 42.8473C84.1003 43.6692 84.1705 44.5064 84.1705 45.7355C82.8223 44.1801 81.4766 43.1255 79.6773 43.6465C78.8478 43.8867 77.9933 44.4355 77.4194 45.0881C76.0662 46.6283 76.2491 49.2839 77.6475 50.7659C79.2588 52.4706 81.0255 52.2758 84.168 49.9339L84.1705 49.9364Z" fill="white"/>
<path d="M115.237 80.2329V57.6174H118.096C118.121 58.0499 118.162 58.4192 118.162 58.7884C118.162 65.3161 118.152 71.8412 118.154 78.3689C118.154 80.4807 118.304 80.2126 116.249 80.2303C115.961 80.2303 115.671 80.2303 115.237 80.2303V80.2329Z" fill="white"/>
<path d="M117.267 54.1677H114.428V31.6938H117.267V54.1677Z" fill="white"/>
<path d="M70.2249 41.1578V54.1221H67.2854C67.2854 52.5743 67.2854 51.0695 67.2854 49.5646C67.2854 47.248 67.3505 44.9313 67.2578 42.6196C67.2127 41.4613 67.5259 40.9782 68.7012 41.1477C69.1473 41.2135 69.6109 41.1578 70.2249 41.1578Z" fill="white"/>
<path d="M68.804 37.7384C67.7866 37.7536 66.8819 36.8785 66.8393 35.8391C66.7942 34.7414 67.6788 33.7955 68.7689 33.7804C69.7938 33.7652 70.6734 34.62 70.716 35.6772C70.7611 36.7824 69.8866 37.7233 68.804 37.741V37.7384Z" fill="white"/>
</g>
<defs>
<clipPath id="clip0_1281_226">
<rect width="150" height="87.2093" fill="white" transform="translate(0 0.401001)"/>
</clipPath>
</defs>
</svg>
