<svg width="150" height="61" viewBox="0 0 150 61" fill="none" xmlns="http://www.w3.org/2000/svg">
<g clip-path="url(#clip0_1326_105)">
<path d="M67.7691 23.261C67.0272 24.6684 67.0293 24.6641 65.5263 24.0561C64.5036 23.6415 63.4787 23.2312 62.4409 22.8549C62.0529 22.7146 61.6262 22.6827 61.2145 22.5998C61.1823 22.6891 61.1502 22.7784 61.118 22.8656C62.7626 23.5544 64.4092 24.2453 66.1417 24.9703C65.4663 26.0418 64.2999 25.4635 63.5001 25.8037C63.3029 25.387 63.1549 25.0766 62.9234 24.5876C62.2994 26.3543 61.8985 26.6838 60.2711 26.6264C59.5057 26.5988 58.7402 26.3777 57.9941 26.1736C57.3551 25.9993 56.7569 25.6315 55.8135 25.9589C56.5704 26.7264 57.2436 27.4003 57.9083 28.0849C58.1334 28.3166 58.3393 28.5696 58.573 28.8332C59.4821 28.2295 60.6892 28.5313 61.1566 29.5752C61.3046 29.9069 61.356 30.2321 60.9336 30.3469C60.3547 30.5043 59.6536 30.8402 59.1883 30.651C58.1591 30.2343 57.1364 29.656 56.3195 28.9204C55.5455 28.2231 55.0609 27.2196 54.4048 26.3841C53.961 25.8207 53.8195 25.2339 54.1539 24.6153C54.4949 23.986 55.0245 23.6947 55.8135 23.6947C57.4087 23.6947 59.0039 23.5671 60.6399 23.4034C60.1232 23.2801 59.6064 23.1589 59.0897 23.0356C59.0875 22.9655 59.0833 22.8953 59.0811 22.8273C59.2784 22.7337 59.4778 22.6381 59.8723 22.451C59.154 22.4 58.6244 22.3638 57.9533 22.317C58.3221 23.1738 57.7839 23.3439 57.2415 23.4013C56.6068 23.4672 55.9614 23.4374 55.3203 23.4374C54.3919 23.4374 53.9867 23.6415 53.723 24.4983C53.5064 25.1978 53.3756 25.9397 53.9588 26.5988C54.8401 27.5938 55.702 28.6079 56.5489 29.6326C56.6604 29.7666 56.7183 30.0557 56.6475 30.196C56.5832 30.3236 56.2659 30.4554 56.1372 30.4022C55.6012 30.1769 55.0866 29.8962 54.5806 29.6028C54.4391 29.5221 54.3855 29.2393 54.2526 29.2053C53.2041 28.9374 53.2384 28.0636 53.1098 27.277C52.9447 26.265 52.7753 25.2552 52.6273 24.2411C52.4408 22.9527 53.3263 22.1427 54.6256 22.3107C55.2517 22.3915 55.94 22.4318 56.5275 22.2554C57.0528 22.0981 57.4966 21.6346 57.9404 21.2647C58.0884 21.1414 58.1206 20.8862 58.2085 20.6949C58.9868 19.0196 59.1669 18.9069 61.0494 18.9771C62.1086 19.0154 63.1699 19.0664 64.4371 19.1217C63.9954 20.1166 63.6245 20.95 63.2536 21.7855C63.3222 21.8174 63.3886 21.8514 63.4572 21.8833C63.7081 21.4326 63.944 20.9734 64.2098 20.5333C64.4821 20.0869 64.7716 19.6489 65.0761 19.2237C65.2068 19.043 65.3977 18.9027 65.5628 18.7454C65.6464 18.9346 65.6785 19.2131 65.8243 19.2939C66.1374 19.4661 66.5019 19.6064 66.8535 19.6255C67.3038 19.651 67.7626 19.5447 68.1957 19.498C68.2836 20.2782 68.3523 20.8714 68.4187 21.456C68.616 21.337 68.9397 21.1435 69.2635 20.9479L69.2442 20.9245C69.1735 21.2158 69.1006 21.507 69.0298 21.7983L69.0469 21.7749C68.6374 22.1002 68.6674 22.9293 67.8505 22.8124C67.8377 22.8124 67.7819 23.1207 67.7455 23.2844L67.7691 23.2631V23.261Z" fill="white"/>
<path d="M83.824 20.5163C84.6709 20.984 85.2605 21.6898 85.5371 22.5913C85.878 23.701 86.1332 24.8363 86.3969 25.9673C86.5256 26.518 86.3369 26.8709 85.7301 27.0771C85.134 27.277 84.6001 27.6575 84.032 27.9424C83.8175 28.0508 83.5624 28.2209 83.3587 28.1848C82.2502 27.9871 81.1524 27.7383 80.0525 27.4981C79.9174 27.4683 79.7823 27.328 79.6623 27.3471C77.9384 27.6044 76.549 26.4627 74.9345 26.2416C74.3256 26.1587 73.7552 25.7739 73.172 25.5188C72.7539 25.3359 72.8697 25.0404 73.0005 24.7236C73.2278 24.1709 73.4336 23.6075 73.6459 23.0483L73.6566 23.0335C74.2141 21.9726 74.7994 20.9245 75.314 19.8445C75.5734 19.3023 75.9315 19.162 76.4997 19.2024C78.9976 19.381 81.4483 19.8126 83.8433 20.5354L83.8197 20.5205L83.824 20.5163Z" fill="white"/>
<path d="M47.1019 44.1872C47.5907 44.3317 47.8995 44.4104 48.1996 44.5167C49.6255 45.0227 50.1851 45.8008 50.2065 47.2933C50.2087 47.5059 50.198 47.7185 50.2151 47.9289C50.2816 48.7666 50.7233 49.1131 51.5702 48.9877C51.7439 48.9622 51.909 48.8495 52.0805 48.8474C52.2584 48.8431 52.4386 48.9218 52.6187 48.9643C52.5179 49.1238 52.4557 49.347 52.3099 49.432C50.228 50.6609 47.1083 49.0302 47.0933 46.6406C47.0847 45.1885 46.2935 44.6124 45.095 44.5252C43.9672 44.4423 42.8286 44.5082 41.5636 44.5082C41.5636 45.8327 41.5379 47.0934 41.5936 48.352C41.6022 48.5349 41.9796 48.8155 42.2197 48.8538C42.7171 48.9324 43.236 48.8771 43.7549 49.0685C42.9744 49.5979 42.1061 49.3938 41.2763 49.4193C40.4208 49.4469 39.5632 49.4554 38.7098 49.4193C37.8543 49.3831 36.9709 49.6127 36.1433 49.2683C36.1347 49.1769 36.1261 49.0876 36.1176 48.9962C36.5678 48.9558 37.0202 48.8623 37.4662 48.8899C38.1802 48.9324 38.489 48.7198 38.4739 47.9459C38.4311 45.6116 38.4311 43.2773 38.4697 40.9429C38.4825 40.1903 38.2124 39.9586 37.4812 39.9777C37.0138 39.9905 36.4242 40.2201 35.9653 39.5036C36.3127 39.4292 36.5593 39.3314 36.8058 39.3314C39.6939 39.325 42.5864 39.2761 45.4723 39.3654C46.405 39.3952 47.357 39.7119 48.2425 40.0436C49.008 40.3306 49.529 40.9727 49.5183 41.8443C49.5054 42.7479 48.9694 43.3474 48.1739 43.7301C47.8887 43.8662 47.5907 43.9788 47.1061 44.1829L47.1019 44.1872ZM41.5593 41.8039C41.5593 42.261 41.4971 42.7309 41.5851 43.171C41.6301 43.4006 41.9324 43.7492 42.1232 43.7535C43.1117 43.7684 44.113 43.7641 45.0907 43.6217C46.0491 43.4813 46.5315 42.7628 46.5122 41.8039C46.4929 40.8664 46.0384 40.2966 45.0735 40.1201C44.5203 40.0202 43.9436 40.0075 43.3775 40.0075C41.3449 40.0117 41.5743 39.7757 41.5593 41.8039Z" fill="white"/>
<path d="M107.19 49.0642C106.94 49.2385 106.714 49.4979 106.436 49.5745C105.132 49.9338 103.884 49.7488 102.759 48.9962C101.957 48.4583 101.667 47.6483 101.631 46.7086C101.575 45.2693 101.114 44.7038 99.7032 44.5507C98.6805 44.4402 97.6406 44.4976 96.6071 44.4827C96.2019 44.4763 96.0411 44.6847 96.0453 45.0758C96.0539 46.1367 96.0539 47.1955 96.0432 48.2563C96.0389 48.7092 96.2512 48.8835 96.6929 48.8878C97.2353 48.892 97.7756 48.9367 98.3224 49.1174C97.5269 49.5936 96.6564 49.398 95.8202 49.4278C94.9668 49.4575 94.1092 49.466 93.2537 49.4278C92.4089 49.3895 91.5277 49.6297 90.7172 49.2556C90.7129 49.1684 90.7086 49.0812 90.7044 48.9962C91.4398 48.9303 92.1731 48.8665 93.0329 48.79C93.0329 48.2627 93.0329 47.778 93.0329 47.2933C93.0329 45.3501 93.0371 43.4048 93.0329 41.4616C93.0286 39.882 93.1529 40.0181 91.6199 39.9926C91.2897 39.9862 90.9638 39.8586 90.6357 39.7885C90.6443 39.6864 90.6529 39.5844 90.6593 39.4823C90.9102 39.4313 91.161 39.3378 91.4098 39.3378C94.225 39.3293 97.0424 39.2867 99.8554 39.3654C100.792 39.3909 101.744 39.6694 102.645 39.9671C103.515 40.2541 104.086 40.928 104.075 41.8805C104.066 42.7883 103.473 43.3559 102.688 43.7343C102.405 43.8725 102.109 43.9852 101.678 44.1702C102.06 44.2977 102.306 44.3806 102.555 44.4614C104.197 44.9993 104.778 45.788 104.795 47.5059C104.81 48.9834 105.207 49.2747 106.614 48.8537C106.738 48.8176 106.869 48.807 106.997 48.7836C107.062 48.8771 107.124 48.9728 107.188 49.0663L107.19 49.0642ZM96.0496 41.6785C96.0496 42.3375 96.0003 42.7691 96.0689 43.1816C96.1054 43.3984 96.3519 43.7513 96.4977 43.7492C97.632 43.7301 98.7791 43.7195 99.8962 43.543C100.67 43.4218 101.08 42.6883 101.088 41.8592C101.097 41.0279 100.702 40.4093 99.8726 40.2052C99.2594 40.0542 98.6076 40.0075 97.9729 40.0096C95.7344 40.0181 96.0818 39.7353 96.0496 41.6785Z" fill="white"/>
<path d="M120.559 44.1851C121.02 44.336 121.357 44.4381 121.689 44.5571C122.892 44.9866 123.544 45.82 123.578 47.1041C123.578 47.1742 123.582 47.2444 123.584 47.3167C123.638 49.0515 123.988 49.2981 125.66 48.7879C125.724 48.7687 125.799 48.7857 126.104 48.7857C125.917 49.0728 125.844 49.3236 125.677 49.4235C123.61 50.6524 120.656 49.06 120.553 46.6768C120.493 45.2672 119.995 44.6698 118.595 44.5422C117.57 44.4487 116.53 44.504 115.497 44.4827C115.023 44.4742 114.888 44.723 114.894 45.1503C114.907 46.141 114.92 47.1317 114.886 48.1203C114.864 48.7496 115.167 48.9091 115.731 48.8963C116.192 48.8857 116.655 48.9516 117.343 49.0005C116.447 49.532 110.465 49.5787 109.466 49.1642C110.184 48.6029 111.026 49.1025 111.805 48.7347C111.83 48.4924 111.888 48.1905 111.888 47.8886C111.895 45.6265 111.897 43.3623 111.888 41.1003C111.886 40.0245 111.875 40.0351 110.741 40.0032C110.319 39.9905 109.896 39.9097 109.476 39.8608L109.453 39.5291C109.686 39.4654 109.922 39.3442 110.156 39.3442C113.115 39.3378 116.076 39.2953 119.033 39.3846C119.929 39.4122 120.84 39.746 121.693 40.0691C122.467 40.3625 122.986 41.0003 122.982 41.8635C122.978 42.767 122.416 43.3581 121.623 43.7365C121.312 43.8853 120.988 44.0107 120.559 44.1936V44.1851ZM114.903 41.8422C114.903 42.3014 114.854 42.767 114.924 43.2135C114.957 43.4197 115.229 43.7556 115.388 43.7514C116.52 43.728 117.665 43.7195 118.777 43.5324C119.605 43.3942 120.01 42.6373 119.982 41.7636C119.955 40.9344 119.549 40.3732 118.685 40.1818C118.068 40.0458 117.418 40.0075 116.783 40.0096C114.603 40.016 114.931 39.7545 114.903 41.8422Z" fill="white"/>
<path d="M54.9687 48.9813C55.7084 48.9197 56.4482 48.858 57.3037 48.7857C57.3037 48.1713 57.3037 47.6143 57.3037 47.0573C57.3037 45.0078 57.2822 42.9584 57.3144 40.911C57.3251 40.2264 57.0935 39.9798 56.3946 39.9841C55.9036 39.9841 55.271 40.2626 54.8101 39.493C55.1746 39.4249 55.4276 39.3378 55.6806 39.3378C58.4593 39.3314 61.2403 39.2995 64.0169 39.3654C64.8874 39.3867 65.7793 39.6057 66.6134 39.882C67.4775 40.169 68.0371 40.8238 68.0264 41.7997C68.0135 42.7458 67.4003 43.2517 66.6048 43.6025C66.3518 43.7131 66.0924 43.813 65.8244 43.9236C66.5491 44.2361 67.2738 44.4508 67.8913 44.8356C69.4458 45.8029 69.4715 47.593 67.8956 48.5285C67.158 48.9664 66.2425 49.3087 65.3955 49.3364C62.0507 49.4448 58.6995 49.4129 55.3525 49.4235C55.2282 49.4235 55.1038 49.3321 54.9773 49.2853C54.973 49.1854 54.9709 49.0855 54.9666 48.9834L54.9687 48.9813ZM60.3076 44.2765C60.3076 45.7647 60.2818 47.002 60.3311 48.2351C60.3397 48.4541 60.6571 48.8431 60.8286 48.841C62.0357 48.8325 63.26 48.841 64.4457 48.6475C65.5049 48.4753 66.0345 47.5994 65.9916 46.5322C65.9444 45.3607 65.4684 44.6464 64.3556 44.4976C63.0649 44.3254 61.7505 44.3445 60.3076 44.2743V44.2765ZM60.3097 41.636C60.3097 42.2802 60.2582 42.7139 60.3311 43.1242C60.3676 43.3325 60.627 43.6599 60.79 43.6642C61.8535 43.6876 62.9298 43.7152 63.9826 43.5877C64.9174 43.4728 65.3741 42.7394 65.3484 41.7317C65.3248 40.7877 64.8617 40.2392 63.8732 40.0925C63.3136 40.0096 62.739 40.0053 62.1708 40.0075C59.9645 40.0181 60.3483 39.7779 60.3097 41.6381V41.636Z" fill="white"/>
<path d="M2.56222 40.1648C1.7496 39.7694 0.844781 40.3243 0 39.5334C0.439543 39.4377 0.686116 39.3357 0.932689 39.3357C3.7865 39.3314 6.64246 39.3017 9.49413 39.3718C10.3282 39.3931 11.1816 39.6355 11.977 39.914C12.8004 40.2031 13.33 40.843 13.3321 41.7678C13.3321 42.7118 12.7275 43.2327 11.9363 43.5962C11.7133 43.6982 11.4796 43.7727 11.0701 43.93C11.6661 44.1405 12.1185 44.268 12.5409 44.4572C13.5336 44.9016 14.3548 45.5287 14.327 46.7321C14.2991 47.8737 13.5422 48.5477 12.5409 48.8793C11.7069 49.1557 10.8128 49.3832 9.94011 49.4023C6.94478 49.4682 3.94731 49.4363 0.949842 49.4321C0.720422 49.4321 0.488858 49.3534 0.15652 49.2939C0.566046 48.6731 1.10422 48.9091 1.53947 48.8921C2.60081 48.8474 2.60939 48.8687 2.61153 47.8184C2.61582 45.5542 2.61367 43.2901 2.60939 41.0259C2.60939 40.7474 2.57722 40.471 2.55793 40.167L2.56222 40.1648ZM5.73336 44.4317V48.9537C7.14418 48.8581 8.49712 48.8687 9.80932 48.6476C11.0465 48.4371 11.5696 47.5421 11.4453 46.3047C11.3402 45.246 10.7806 44.5763 9.58633 44.4594C8.35775 44.3382 7.10773 44.4317 5.73121 44.4317H5.73336ZM5.67547 40.084C5.67547 41.1811 5.64974 42.1654 5.69691 43.1455C5.70548 43.3347 6.00137 43.66 6.17076 43.6642C7.19779 43.6876 8.23768 43.7153 9.25399 43.5898C10.2188 43.4729 10.6391 42.8053 10.6219 41.7593C10.6048 40.7665 10.206 40.1988 9.20039 40.1074C8.08116 40.0054 6.94478 40.084 5.67332 40.084H5.67547Z" fill="white"/>
<path d="M72.381 11.3213C71.7464 10.9089 72.1302 10.4369 72.3532 10.0351C72.872 9.09752 73.0757 8.18972 72.2116 7.19262H73.2301C73.0693 6.38474 72.9128 5.60662 72.7348 4.7052C73.0907 4.74559 73.3287 4.73709 73.5453 4.803C76.1954 5.6045 78.8991 5.94466 81.6736 5.8745C84.1436 5.81072 86.307 6.69939 88.0673 8.39381C89.253 9.53547 90.5974 10.3263 92.1497 10.8217C92.2762 10.8621 92.3899 10.9408 92.6172 11.0534C90.9426 11.4553 89.4353 11.4553 88.0609 10.5134C87.0875 9.84587 85.9961 9.54823 84.849 9.45469C82.8614 9.29311 80.8696 9.15279 78.8777 9.06775C77.3211 9.00185 75.7323 9.2272 74.2829 8.28539C74.1563 9.33563 73.7961 10.1031 72.9706 10.6134C72.8056 10.7154 72.7198 10.9429 72.5976 11.113L72.3832 11.3213H72.381Z" fill="white"/>
<path d="M77.7476 40.0054C77.7476 41.1917 77.7476 42.2122 77.7476 43.2326C77.7476 43.6557 77.9256 43.8981 78.3823 43.8917C79.7052 43.8768 81.1053 44.032 81.6284 42.3461C81.667 42.2228 81.9008 42.0633 82.008 42.0867C82.128 42.1101 82.291 42.3227 82.2931 42.4566C82.3167 43.6238 82.321 44.791 82.2931 45.9582C82.2888 46.1049 82.068 46.2473 81.9479 46.3919C81.8279 46.2834 81.6692 46.1963 81.5963 46.0623C80.9102 44.8293 79.3943 44.1659 78.11 44.5975C77.9427 44.6528 77.7562 44.9462 77.7497 45.1333C77.7176 46.158 77.7455 47.1849 77.739 48.2096C77.7369 48.7198 78.0135 48.892 78.483 48.8793C79.9796 48.841 81.4826 48.8793 82.9707 48.7496C84.4823 48.6178 85.7237 48.0076 86.1204 46.3536C86.159 46.192 86.3734 46.0708 86.5063 45.9327C86.6135 46.09 86.8065 46.2452 86.8129 46.4046C86.8451 47.2168 86.8665 48.0353 86.8 48.8431C86.7829 49.0515 86.4484 49.2556 86.2254 49.415C86.1311 49.4831 85.9488 49.4299 85.8052 49.4299C81.6327 49.4299 77.4581 49.4342 73.2857 49.4299C72.9791 49.4299 72.6725 49.381 72.278 49.347C72.5953 48.6497 73.1228 48.9091 73.5151 48.8963C74.7651 48.8538 74.7673 48.875 74.7694 47.6824C74.7737 45.5245 74.7759 43.3666 74.7737 41.2087C74.7737 40.0139 74.7673 40.0266 73.5194 39.9947C73.1056 39.9841 72.6918 39.8906 72.278 39.8353C72.278 39.7247 72.2758 39.6142 72.2737 39.5036C72.516 39.4441 72.7561 39.3335 72.9984 39.3335C76.9929 39.3229 80.9895 39.3335 84.984 39.3187C85.5565 39.3187 85.8524 39.4824 85.8202 40.101C85.7859 40.7367 85.8288 41.3745 85.7945 42.0102C85.7859 42.1824 85.6208 42.3482 85.5265 42.5162C85.3828 42.3971 85.1448 42.2993 85.1062 42.1526C84.6881 40.4986 83.4252 40.0628 81.9393 40.0117C80.5907 39.965 79.2399 40.0011 77.7412 40.0011L77.7476 40.0054Z" fill="white"/>
<path d="M53.68 10.4816C54.6599 10.5879 55.6376 10.6963 56.8533 10.8281C56.506 10.5666 56.2787 10.4497 56.1265 10.269C55.9506 10.0606 55.6912 9.76085 55.7384 9.56313C55.8327 9.16344 56.0707 8.78501 56.6475 8.91257C57.2242 9.04013 57.8139 9.11454 58.3992 9.19958C58.5214 9.21659 58.6629 9.19958 58.7809 9.15706C60.9378 8.37895 62.6982 8.9062 63.9761 10.7601C64.4563 11.4574 64.8702 12.1994 65.3011 12.901C63.9696 13.8406 62.7175 14.7569 61.4331 15.6222C60.3246 16.3685 60.2474 16.3174 60.0073 15.0418C59.9901 14.9547 59.9022 14.8803 59.7522 14.6592C59.6707 14.9419 59.6021 15.0992 59.5828 15.2629C59.5442 15.5946 59.6257 15.9688 59.4949 16.2537C59.0189 17.3018 58.9931 17.2911 60.0866 17.6908C59.4991 18.1097 59.1046 18.0884 58.5858 17.593C58.1612 17.1891 57.9532 16.7363 58.3049 16.1771C58.3606 16.0878 58.4464 16.0113 58.4871 15.9177C58.6136 15.6244 58.7273 15.3246 58.8452 15.0291C58.5107 14.9802 58.1741 14.9313 57.7967 14.8781V14.083C58.5322 14.1362 59.2268 14.1851 60.1016 14.2467C59.8915 13.0221 59.6814 11.8018 59.4691 10.5815C59.4112 10.5857 59.3512 10.5921 59.2933 10.5964C59.0639 11.3872 58.8559 12.1824 58.6008 12.9647C58.3306 13.7896 58.3113 13.7832 57.3615 13.6493C57.3958 13.8343 57.4215 14.0001 57.4558 14.1638C57.5995 14.8356 57.5544 15.3501 56.6625 15.4203C56.3795 15.4415 56.1307 15.7519 55.8413 15.8603C55.6355 15.9369 55.346 15.9688 55.1638 15.8795C55.033 15.8157 54.9 15.433 54.9708 15.3395C55.6783 14.3806 55.2731 13.2454 55.5218 12.2206C55.5797 11.9868 55.7126 11.772 55.8413 11.4787C55.078 11.2788 54.3426 11.0853 53.605 10.894C53.6286 10.7558 53.6522 10.6176 53.6757 10.4794L53.68 10.4816Z" fill="white"/>
<path d="M28.2745 39.3271C29.2972 39.3271 30.3178 39.3271 31.3405 39.3271C32.0181 39.3271 32.6978 39.308 33.3732 39.3378C33.5447 39.3463 33.7076 39.5164 33.8749 39.6099C33.7034 39.7396 33.5404 39.9649 33.3603 39.9777C32.7599 40.0245 32.1553 39.9947 31.4349 39.9947C31.4134 40.4582 31.3834 40.8345 31.3813 41.2086C31.3727 42.835 31.3984 44.4636 31.3641 46.0899C31.3298 47.7078 30.5622 48.7836 29.0099 49.2598C26.5463 50.0145 24.0763 49.9253 21.6599 49.0345C20.1633 48.4838 19.3914 47.4123 19.4257 45.7796C19.46 44.1532 19.4064 42.5246 19.4407 40.8983C19.4557 40.2052 19.1941 39.933 18.5037 39.9883C18.1156 40.0202 17.719 39.9947 17.3288 39.9543C17.228 39.9437 17.05 39.7502 17.0693 39.6928C17.1143 39.5567 17.2387 39.4271 17.3652 39.342C17.4381 39.291 17.5732 39.325 17.6782 39.325C19.891 39.325 22.1016 39.3165 24.3143 39.342C24.5416 39.3441 24.7667 39.5461 24.9918 39.6545C24.7645 39.7693 24.5394 39.8884 24.3078 39.9926C24.2478 40.0202 24.1663 39.999 24.0956 39.999C22.2688 40.0138 22.4339 39.7523 22.4275 41.7508C22.4232 43.1306 22.4082 44.5103 22.4296 45.8901C22.4596 47.7376 23.165 48.6114 25.0154 48.7453C26.2375 48.8325 27.5154 48.7517 28.7054 48.4796C30.1012 48.1628 30.6737 47.2401 30.6909 45.8263C30.7102 44.1999 30.663 42.5714 30.7123 40.945C30.7359 40.1775 30.425 39.9373 29.711 39.999C29.3572 40.0287 28.9927 40.0245 28.6432 39.9713C28.4803 39.9458 28.3431 39.7693 28.193 39.6609C28.2187 39.5504 28.2466 39.4398 28.2723 39.3271H28.2745Z" fill="white"/>
<path d="M132.71 40.2414C133.964 41.5616 135.22 42.8819 136.56 44.2893C137.823 42.8861 139.015 41.5595 140.21 40.2307C140.188 40.1499 140.167 40.0713 140.143 39.9905C139.631 39.9905 139.116 40.016 138.608 39.9756C138.439 39.9629 138.284 39.7779 138.124 39.6695C138.274 39.5547 138.422 39.3442 138.574 39.3421C140.07 39.3144 141.569 39.3144 143.066 39.3378C143.209 39.3399 143.349 39.5589 143.49 39.6758C143.366 39.7779 143.25 39.8969 143.111 39.9714C143.025 40.016 142.896 40.0139 142.796 39.9947C141.526 39.7566 140.759 40.4242 140.047 41.3575C139.208 42.4545 138.28 43.4878 137.347 44.5082C136.882 45.0164 136.672 45.55 136.719 46.2303C136.762 46.8639 136.747 47.5038 136.723 48.1395C136.702 48.6816 136.919 48.9048 137.476 48.8899C138.048 48.8729 138.623 48.9303 139.202 49.1153C138.398 49.5873 137.525 49.4002 136.687 49.4299C135.761 49.4618 134.832 49.4448 133.906 49.4321C133.044 49.4193 132.171 49.4958 131.316 49.3768C131.31 49.2492 131.303 49.1238 131.297 48.9962C131.738 48.958 132.18 48.8963 132.622 48.8878C133.784 48.8644 133.685 48.8623 133.818 47.6994C134.028 45.871 133.522 44.419 132.101 43.1965C131.273 42.4843 130.583 41.6041 129.892 40.7495C129.418 40.1627 128.872 39.931 128.134 39.9947C127.675 40.0351 127.206 40.0096 126.747 39.965C126.623 39.9522 126.517 39.7566 126.404 39.6461C126.522 39.5419 126.627 39.3888 126.764 39.3442C126.925 39.291 127.116 39.3293 127.294 39.3293C129.504 39.3293 131.717 39.3293 133.928 39.3293C134.105 39.3293 134.294 39.2974 134.459 39.3442C134.607 39.3846 134.732 39.5143 134.864 39.6036C134.734 39.7332 134.611 39.965 134.47 39.9756C133.919 40.0181 133.364 39.9926 132.81 39.9926C132.778 40.0755 132.744 40.1606 132.712 40.2435L132.71 40.2414Z" fill="white"/>
<path d="M90.4689 35.1815C89.8707 33.9505 89.3197 32.694 88.6379 31.5098C88.462 31.2058 87.8853 31.0166 87.4736 30.9805C86.0199 30.855 84.534 30.9571 83.1082 30.7041C81.9118 30.4915 80.7582 29.9579 79.639 29.4476C79.2316 29.2627 78.9851 28.7333 78.6656 28.3591L78.6806 28.3782C78.6248 28.1401 78.5691 27.902 78.5005 27.6086C79.1695 27.4428 79.6154 27.834 80.07 28.1253C80.5717 28.4463 81.0477 28.5568 81.6738 28.4803C82.3149 28.4016 82.9924 28.6142 83.715 28.7078C83.9144 28.5419 84.1695 28.2975 84.459 28.0997C84.9393 27.7702 85.3509 27.6405 85.9985 27.9786C86.6031 28.2975 87.4522 28.3761 88.1426 28.2613C88.8501 28.1444 89.2511 28.306 89.5427 28.8694C89.9994 29.7495 90.4218 30.6467 90.8592 31.5375C91.4059 32.6558 91.9527 33.774 92.5294 34.9582C92.7138 34.8625 92.8789 34.8073 93.0054 34.7031C93.5564 34.2439 93.9917 34.4459 94.3626 34.937C94.5749 35.2176 94.8 35.5046 94.9373 35.8235C95.1131 36.2317 94.9373 36.4889 94.4763 36.5676C94.0796 36.6356 93.6787 36.8652 93.3034 36.8206C92.8532 36.7674 92.2421 36.6229 92.032 36.3019C91.6246 35.6832 91.1079 35.3579 90.4475 35.1581L90.4711 35.1815H90.4689Z" fill="white"/>
<path d="M68.1163 15.6456C67.666 15.6988 67.2136 15.7519 66.6797 15.8157C66.1458 14.4678 65.9936 13.0328 65.8757 11.6041C65.8542 11.3426 66.223 11.0279 66.4546 10.775C66.8019 10.3944 67.1879 10.0457 67.6767 9.56738C67.13 9.39943 66.7762 9.28888 66.3302 9.15281C66.5661 8.6447 66.744 8.14721 67.0249 7.71138C67.1514 7.51366 67.4816 7.3287 67.7153 7.33083C69.0318 7.34358 70.3483 7.39886 71.6626 7.46902C72.3809 7.50729 72.561 7.93886 72.3573 8.57454C71.9392 9.88203 71.6197 11.2363 70.6356 12.2865L69.9109 13.6599C69.2869 14.2254 68.6609 14.7888 68.0476 15.3671C68.0133 15.399 68.0927 15.5499 68.1184 15.6435L68.1163 15.6456Z" fill="white"/>
<path d="M96.0756 25.2998C95.0635 24.9426 94.386 23.6288 92.8208 24.1262C94.1459 24.5217 95.2694 24.8576 95.8783 26.282C94.7762 25.8164 93.8929 25.0234 92.7951 25.7165C92.988 25.944 93.181 26.1693 93.4104 26.4393C90.4473 26.4478 88.8906 25.7207 88.2217 23.1164C87.9815 22.1831 87.602 21.4071 86.3477 21.5474C85.9811 21.5878 85.563 21.1902 85.1191 20.967C86.3156 19.8955 88.7791 19.8998 89.9498 20.8692C90.25 21.118 90.5245 21.3986 90.8396 21.6282C91.7423 22.2851 92.7179 22.5594 93.8543 22.2894C94.9478 22.03 95.443 22.4595 95.5545 23.565C95.5803 23.8286 95.7497 24.0816 95.8633 24.3325C95.9791 24.5855 96.1099 24.8321 96.2342 25.0808L96.0734 25.2977L96.0756 25.2998ZM90.6381 22.738C90.5802 22.8506 90.5223 22.9654 90.4644 23.0781C90.9147 23.2822 91.3735 23.6692 91.8152 23.65C92.6836 23.6117 93.5391 23.3481 94.5275 23.1525C93.1724 22.7252 91.7981 23.8818 90.6381 22.738Z" fill="white"/>
<path d="M60.7686 5.0518C59.6665 4.35659 58.5644 3.66352 57.3809 2.91729C58.2514 2.00099 59.3341 1.78201 60.3976 1.64169C63.1378 1.28452 65.6914 2.00949 68.1636 3.10863C68.631 3.31698 68.7125 3.61249 68.4659 4.03557C68.288 4.33959 68.1164 4.64786 67.9385 4.95187C67.7283 5.31542 67.4368 5.40471 67.0379 5.24526C66.6756 5.10069 66.3025 4.97313 65.9252 4.87959C65.2176 4.70526 64.5979 4.76053 63.9054 5.17723C63.3158 5.53227 62.501 5.51527 61.7849 5.66196L60.7686 5.05392V5.0518Z" fill="white"/>
<path d="M72.3811 11.3214L72.5955 11.113C73.183 10.7112 73.7683 10.3094 74.3686 9.89695C74.3987 10.0692 74.4523 10.3966 74.5144 10.7601C74.6109 10.505 74.7031 10.2669 74.8725 9.81616C75.2327 10.3562 75.49 10.7367 75.8095 11.2129C75.3356 11.383 74.9883 11.5063 74.6024 11.6445V12.9031C75.3056 12.3907 75.8331 12.7734 76.382 13.086C79.6882 14.9696 82.9966 16.8468 86.3006 18.7326C86.5837 18.8942 86.8388 19.1025 87.1068 19.2875C87.0468 19.3917 86.9868 19.4958 86.9246 19.6C82.6964 17.4995 78.466 15.3969 74.2379 13.2964C74.2121 13.3347 74.1864 13.373 74.1607 13.4112C74.3322 13.6493 74.6195 13.8747 74.6474 14.1277C74.6774 14.4104 74.5123 14.74 74.3601 15.01C74.1928 15.3034 73.942 15.5521 73.7083 15.8412C72.6148 14.285 72.6126 14.2361 73.5839 12.8627C73.1894 12.6841 72.3682 13.2752 72.5118 12.0293C72.1431 12.6459 71.9737 13.2071 71.3304 12.8457C71.2125 12.0102 71.8107 11.6722 72.3811 11.3171V11.3214Z" fill="white"/>
<path d="M69.9109 13.6621C70.1532 13.205 70.3955 12.7479 70.6356 12.2887C71.1116 13.2709 71.3003 14.2808 70.8672 15.3523C70.938 15.3608 71.0087 15.3693 71.0795 15.3799C71.191 14.8973 71.3303 14.4189 71.4075 13.9321C71.4933 13.3793 71.7699 13.1157 72.3938 13.1795C72.4367 13.4048 72.5053 13.6366 72.5203 13.8704C72.5825 14.8675 72.8912 15.7647 73.5216 16.5598C73.6524 16.7257 73.6438 17.002 73.6996 17.2274L73.6953 17.2359C73.423 17.4953 73.0499 17.7057 72.8955 18.0204C72.501 18.8198 71.995 19.3406 71.0237 19.2726C70.76 19.2535 70.4855 19.3789 70.0289 19.4767C70.1103 18.7985 70.0589 18.1713 70.284 17.6632C70.4855 17.2083 70.9894 16.8851 71.4676 16.394C69.2606 17.0361 68.1163 17.7128 68.0348 18.4243C68.41 18.199 68.7553 17.9928 69.0147 17.8376C69.2505 18.1182 69.4542 18.3287 69.6193 18.5668C69.7265 18.722 69.7758 18.9176 69.8509 19.0962C69.6622 19.1259 69.4671 19.2003 69.287 19.1748C69.0533 19.1408 68.8217 18.9367 68.6095 18.9643C68.1871 19.0196 67.7454 19.2173 67.5353 18.6646C67.323 18.1097 67.6703 17.1679 68.1613 16.9C68.4379 16.749 68.7317 16.63 69.1433 16.4387C68.8667 16.3345 68.7059 16.2728 68.513 16.1984C68.9547 15.5053 69.3878 14.8229 69.823 14.1404C69.853 13.9789 69.8831 13.8173 69.9131 13.6557L69.9109 13.6621Z" fill="white"/>
<path d="M77.3638 3.98238C76.4826 4.99648 76.474 4.99435 75.2647 3.71025C75.0353 3.9271 74.838 4.2375 74.5657 4.32891C74.3513 4.4012 74.0233 4.246 73.7831 4.12269C73.0155 3.72938 72.2651 3.30418 71.4653 2.86623C72.3037 2.39213 73.3007 2.40701 74.3106 2.49843C75.0117 2.56221 75.7235 2.57071 76.4139 2.69827C76.8878 2.78544 77.3509 2.98953 77.7819 3.21489C78.1185 3.39135 78.3951 3.67623 78.8046 3.99513C78.8947 3.58694 78.9612 3.2808 79.0426 2.90662C79.7395 3.16812 80.4063 3.47851 80.3527 4.25238C80.3248 4.65419 79.9239 5.22184 79.5529 5.37278C78.3522 5.85538 78.0606 4.63506 77.3659 3.9845L77.3638 3.98238Z" fill="white"/>
<path d="M73.6954 17.238L73.6997 17.2295C73.9377 16.8021 74.2293 16.3961 74.4008 15.9432C74.7675 14.9844 75.1062 14.859 76.1955 15.45C75.8695 15.6031 75.5865 15.737 75.2306 15.905C75.6616 16.0538 75.9939 16.1686 76.5878 16.3748C75.7581 17.2422 75.0719 17.9587 74.3387 18.7262C74.6667 18.7517 74.9647 18.7751 75.4514 18.8133C74.6603 19.9019 74.7031 21.4432 73.0843 21.7749L73.1101 21.794C72.3189 21.2285 72.3039 21.1626 72.7949 20.4227C72.8828 20.2909 73.0565 20.1038 73.0179 20.0188C72.662 19.2407 73.0458 18.7134 73.6332 18.3222C74.1993 17.9438 73.4338 17.5781 73.6954 17.2359V17.238Z" fill="white"/>
<path d="M150 37.537C149.991 38.8956 149.014 39.8629 147.65 39.8565C146.267 39.8501 145.176 38.7914 145.189 37.4669C145.204 36.1211 146.276 35.09 147.661 35.0879C149.061 35.0879 150.009 36.0786 150 37.537ZM148.859 38.7531C149.668 37.7837 149.672 36.8822 148.943 36.1424C148.306 35.4961 147.294 35.4025 146.602 35.9255C145.883 36.4677 145.652 37.6476 146.113 38.4236C146.587 39.223 147.403 39.4419 148.471 38.9997C148.113 38.5682 147.772 38.16 147.373 37.6795C147.217 38.143 147.118 38.4342 147.018 38.7276C146.925 38.7148 146.835 38.7021 146.743 38.6872C146.743 37.9665 146.734 37.2479 146.752 36.5272C146.754 36.4039 146.865 36.1743 146.921 36.1764C147.431 36.187 148 36.1148 148.435 36.3146C148.866 36.5123 148.827 37.0162 148.527 37.418C148.43 37.5477 148.343 37.6859 148.259 37.8092C148.469 38.1387 148.638 38.4066 148.861 38.7552L148.859 38.7531ZM148.203 37.0651C148.186 36.9226 148.171 36.7802 148.154 36.6377C147.856 36.6824 147.556 36.727 147.26 36.7844C147.256 36.7844 147.281 37.0502 147.303 37.0523C147.603 37.0714 147.903 37.0651 148.203 37.0651Z" fill="white"/>
<path d="M90.4453 35.1581C90.6469 35.6917 91.1143 36.1955 90.5461 36.8929C90.3403 36.7781 90.0294 36.7037 89.9072 36.5144C89.6713 36.1445 89.4247 35.9447 88.9702 36.051C88.8823 36.0722 88.7236 36.0233 88.6786 35.9553C88.164 35.1708 87.0726 34.8179 87.0469 33.6465C87.0298 32.8875 86.8046 32.1328 86.6738 31.3844C87.8381 31.0187 88.2626 31.1739 88.4985 32.2369C88.7772 33.4955 89.4269 34.4522 90.4689 35.1814L90.4453 35.1581Z" fill="white"/>
<path d="M70.715 21.7133C71.3733 22.3702 71.1417 23.0101 70.7 23.6692C70.0932 24.5749 69.5272 25.506 68.9075 26.4011C68.8068 26.5478 68.4487 26.686 68.3308 26.6201C68.0906 26.484 67.8762 26.2289 67.7647 25.9738C67.6961 25.8186 67.8505 25.5741 67.8912 25.3679C67.9963 24.8215 68.3415 24.2581 67.7261 23.7649C67.6511 23.7053 67.7519 23.4311 67.7712 23.2567L67.7476 23.278C68.0349 23.3205 68.3222 23.363 68.6867 23.4183C68.8089 22.8634 68.929 22.317 69.0491 21.7685L69.0319 21.7919C69.5293 21.7154 70.0246 21.6389 70.5221 21.5623C70.5864 21.6112 70.6507 21.6601 70.715 21.709V21.7133Z" fill="white"/>
<path d="M65.4147 58.0402C65.5004 58.78 65.5884 59.5178 65.6805 60.3108H64.6707C65.0952 59.2818 65.1981 58.2953 64.5828 57.311C66.3881 56.4244 67.145 58.0168 68.2857 58.9884C68.4014 58.2379 68.5451 57.6703 67.6596 57.4088C67.6982 57.3407 67.7389 57.2727 67.7775 57.2047C68.2578 57.1792 68.7381 57.1536 69.2183 57.1281C68.5215 57.9424 68.9096 58.8183 68.7938 59.6049C68.7552 59.8643 68.6394 60.113 68.5601 60.366C68.2857 60.2491 67.9512 60.196 67.7453 60.0046C67.0335 59.3392 66.3667 58.6291 65.6827 57.9339C65.5926 57.97 65.5047 58.004 65.4147 58.0402Z" fill="white"/>
<path d="M68.8645 27.0962H71.0794C71.0901 27.0495 71.1008 27.0006 71.1115 26.9538C70.4962 26.8454 69.883 26.7391 69.2483 26.6285C69.2762 25.8717 69.6492 25.4996 70.3204 25.5698C71.0494 25.6463 71.7848 25.7803 72.4795 26.0035C73.4679 26.3224 74.4199 26.7476 75.5091 27.1749C73.305 27.3386 71.2144 28.3378 68.8645 27.0962Z" fill="white"/>
<path d="M73.9976 60.4447C74.4457 59.2244 74.5572 58.24 73.781 57.0686C74.9024 57.143 75.8544 57.1218 76.7699 57.294C77.4603 57.4237 77.9685 57.9233 78.0178 58.7035C78.0607 59.3774 77.5911 60.0386 76.7613 60.2087C75.9058 60.383 75.0096 60.3682 73.9976 60.4447ZM75.4663 59.9004C76.7485 59.8218 77.2781 59.1032 76.7935 58.1826C76.652 57.9148 76.1953 57.8085 75.8822 57.6277C75.7429 57.8659 75.5156 58.0955 75.4834 58.3463C75.4213 58.8544 75.4641 59.3774 75.4641 59.9004H75.4663Z" fill="white"/>
<path d="M60.7684 5.05175C61.1071 5.25373 61.4459 5.45782 61.7847 5.65979C63.2555 6.4783 64.7242 7.29681 66.2702 8.15572C65.7448 8.73186 65.3932 8.31304 65.0802 8.14934C62.2199 6.65263 59.3725 5.1368 56.5209 3.62521C56.1457 3.42536 55.7447 3.25954 55.3995 3.0193C55.1143 2.82158 54.8935 2.53457 54.6448 2.28583C54.9857 2.33685 55.3695 2.30496 55.6611 2.45166C56.9261 3.09371 58.159 3.79529 59.4154 4.45647C59.8507 4.68608 60.3202 4.85404 60.7727 5.05175H60.7684Z" fill="white"/>
<path d="M95.6316 58.9948C95.8589 58.206 95.8374 57.6639 95.1878 57.2174H96.4271C96.3113 58.2719 96.1998 59.3009 96.069 60.5C94.7418 59.9111 94.12 58.6631 92.9622 57.9233C92.8421 58.7439 92.6856 59.4986 93.228 60.3044H92.0681C92.5098 59.4646 92.6213 58.0657 91.9287 57.294C93.7298 56.4776 94.5317 57.9445 95.6316 58.9969V58.9948Z" fill="white"/>
<path d="M71.8471 6.31036C70.8737 5.41319 69.6065 5.67681 68.3201 5.5535C68.6267 4.97523 68.8754 4.51601 69.0405 4.01215C69.2206 3.4679 70.4706 3.31908 71.2961 3.61246C72.0958 3.89735 72.5868 4.46499 72.4432 5.15169C72.3596 5.54713 72.8206 6.3465 71.8278 6.2891L71.8471 6.31036Z" fill="white"/>
<path d="M59.4712 16.951C61.7482 16.2622 63.2255 14.1022 65.7148 13.6174C65.5755 15.0886 65.4447 14.9802 64.4584 15.4075C63.7423 15.7179 63.2491 16.5024 62.3293 16.6108C62.1085 16.6364 61.9541 17.2827 61.7397 17.3018C61.0064 17.3656 60.2581 17.2763 59.5162 17.2465C59.5012 17.1487 59.4862 17.0509 59.4712 16.951Z" fill="white"/>
<path d="M84.9649 57.0006C86.1721 56.9793 87.257 57.8212 87.2484 58.7737C87.2399 59.6623 86.1635 60.4575 84.9885 60.4404C84.9521 60.4404 84.9178 60.4383 84.8813 60.4362C83.7321 60.3682 82.7822 59.5582 82.8251 58.6801C82.8702 57.7681 83.82 57.0218 84.9628 57.0027L84.9649 57.0006ZM84.058 58.7843C84.0666 59.6347 84.3539 59.977 85.0529 59.9727C85.7197 59.9685 86.0949 59.5475 86.1035 58.7885C86.1142 57.97 85.7218 57.4789 85.0572 57.4747C84.356 57.4704 84.0494 57.8744 84.058 58.7822V58.7843Z" fill="white"/>
<path d="M57.741 60.4383C56.596 60.4554 55.5454 59.6262 55.5647 58.7163C55.584 57.8 56.5103 57.0367 57.6445 57.0027C58.8559 56.9666 59.8851 57.7915 59.8658 58.7886C59.8487 59.6857 58.901 60.4213 57.741 60.4405V60.4383ZM58.7552 58.7461C58.7594 57.834 58.4571 57.4641 57.711 57.4747C57.027 57.4853 56.7418 57.8425 56.729 58.7014C56.7161 59.5943 57.0463 59.9983 57.7753 59.9749C58.4678 59.9515 58.7509 59.5986 58.7552 58.7461Z" fill="white"/>
<path d="M73.6588 23.0314L73.6481 23.0463C73.3844 23.4651 73.1121 23.8796 72.8569 24.3027C72.0615 25.6315 71.7291 25.708 70.2476 24.8151C70.9465 23.8796 71.6219 22.9357 72.3531 22.0343C72.4924 21.8642 72.8505 21.8706 73.11 21.794L73.0842 21.7749C73.4766 22.1023 73.9226 22.4063 73.6588 23.0292V23.0314Z" fill="white"/>
<path d="M92.0229 11.6424C93.3416 11.4595 94.4458 11.619 95.2091 12.7372C95.6122 13.3283 96.1589 13.6451 96.8879 13.7216C97.5848 13.7939 98.1766 14.0724 98.4531 14.9419C96.0324 14.3147 93.6653 13.8258 92.0229 11.6424Z" fill="white"/>
<path d="M47.2069 60.415C47.8223 59.3307 47.7558 58.0338 47.0547 57.2387H49.2696C48.6756 58.0019 48.6392 58.2634 48.8622 59.8749C49.7691 60.1853 50.3438 59.7516 50.749 58.897C51.1842 60.196 51.0642 60.3937 49.8999 60.4107C49.0509 60.4235 48.2039 60.4128 47.2091 60.4128L47.2069 60.415Z" fill="white"/>
<path d="M57.0505 7.77732C58.0861 7.58598 59.1282 7.41803 60.1552 7.19267C60.599 7.09488 61 7.80709 61.4353 7.22244C61.6239 7.40102 61.8941 7.54771 61.9777 7.76457C62.0849 8.04095 62.0377 8.37686 62.0635 8.77654C61.2723 8.61922 60.4189 8.7978 60.241 7.74543C60.1917 7.98567 60.1423 8.22591 60.093 8.46615C59.7521 8.31095 59.4134 8.15575 59.1046 8.01543C59.0832 8.07921 59.0682 8.43001 58.9181 8.50016C58.6286 8.63623 58.1976 8.74678 57.9468 8.62347C57.5951 8.45127 57.355 8.05583 57.0677 7.75819L57.0505 7.77732Z" fill="white"/>
<path d="M70.7151 21.7132C70.6507 21.6643 70.5864 21.6154 70.5221 21.5665C70.0976 21.3518 69.6709 21.1371 69.2463 20.9224L69.2656 20.9457C69.2742 20.4929 69.3707 20.1485 69.9196 20.0231C70.357 19.9231 70.7494 19.5957 71.1868 19.5234C71.4827 19.4745 71.8729 19.6297 72.1216 19.819C72.2267 19.8997 72.0658 20.3016 72.0551 20.5609C72.0401 20.9457 72.0508 21.3327 72.0508 21.7876C71.6242 22.1533 71.1696 21.8387 70.7151 21.7132Z" fill="white"/>
<path d="M67.3488 26.6413C67.2287 26.888 67.1087 27.1346 67.0079 27.3408C65.7257 26.9985 64.4735 26.6647 63.2192 26.3309C63.2257 26.2629 63.2321 26.197 63.2385 26.129H66.1502C66.742 25.5996 66.8149 24.7535 67.7476 24.4813C67.5932 25.2786 67.4603 25.9695 67.3274 26.6605L67.3509 26.6392L67.3488 26.6413Z" fill="white"/>
<path d="M83.8476 20.5333C83.4209 20.3037 83.0178 19.9593 82.5633 19.8657C80.6572 19.4767 78.736 19.1599 76.8192 18.8261C76.4933 18.7687 76.161 18.7538 75.8308 18.7198L75.79 18.5008C75.9316 18.3945 76.0773 18.1926 76.2167 18.1989C78.7961 18.2882 81.2983 18.7198 83.5968 19.9593C83.7511 20.0422 84.2743 20.1251 83.8262 20.5163L83.8498 20.5312L83.8476 20.5333Z" fill="white"/>
<path d="M65.063 17.1572C65.3331 16.7299 65.5626 16.36 65.7941 15.9922C67.2671 16.8851 67.5158 17.389 67.1085 18.705C66.7247 18.3435 65.7148 18.8219 66.0021 17.6653C66.0193 17.5931 65.509 17.3932 65.063 17.1572Z" fill="white"/>
<path d="M64.6193 9.5036C64.1326 10.05 63.7488 9.92455 63.2213 9.46108C62.6681 8.9721 62.1193 8.58942 62.5416 7.67737C63.0541 8.0558 64.1047 7.82831 63.7917 9.03588C64.0297 8.93809 64.2226 8.86155 64.4135 8.78289C64.4713 9.03376 64.5292 9.2825 64.5871 9.53337L64.6171 9.5036H64.6193Z" fill="white"/>
<path d="M65.5499 15.5478C65.2025 16.3068 64.9688 16.883 64.6729 17.423C64.5786 17.5973 64.3063 17.7908 64.1283 17.7801C63.6566 17.7525 63.1914 17.6186 62.7068 17.3145C63.6052 16.7554 64.5014 16.1963 65.5477 15.5457L65.5499 15.5478Z" fill="white"/>
<path d="M51.8791 0.5C52.4815 0.62756 53.0991 0.714726 53.6844 0.897562C54.1304 1.03575 54.4112 1.37591 54.1925 1.88403C54.0232 2.27946 53.425 2.36238 52.9897 1.9967C52.5416 1.6204 52.1642 1.15906 51.7568 0.735986C51.7976 0.657324 51.8362 0.578662 51.8769 0.5H51.8791Z" fill="white"/>
<path d="M78.6674 28.3591C78.6674 28.7822 78.5387 29.1202 78.0606 28.8077C77.5503 28.4718 77.1065 28.0381 76.5361 27.5683C77.5096 27.4258 78.0992 27.8935 78.6824 28.3804L78.6674 28.3613V28.3591Z" fill="white"/>
<path d="M67.3252 26.6626C67.5911 26.7561 67.8869 26.805 68.1164 26.9538C68.3201 27.0878 68.4466 27.3344 68.6074 27.53C68.4273 27.6682 68.2214 27.9424 68.0713 27.9148C67.8098 27.8659 67.4924 27.683 67.3681 27.4641C67.2501 27.2515 67.3466 26.9198 67.3488 26.6413L67.3252 26.6626Z" fill="white"/>
<path d="M69.8123 5.91495C69.4929 6.83976 69.3085 6.90354 68.2107 6.45921C68.5966 5.78952 69.1627 5.78101 69.8123 5.91495Z" fill="white"/>
<path d="M65.346 12.2036C64.8572 11.4283 64.9458 10.7693 65.6119 10.2264C65.837 10.9897 65.4575 11.5871 65.346 12.2036Z" fill="white"/>
<path d="M86.0498 27.5661C86.9718 27.1303 87.1454 27.1856 87.8123 28.0785C87.0404 28.4059 86.5858 27.8319 86.0498 27.5661Z" fill="white"/>
<path d="M74.9753 12.1483C75.7922 11.4319 76.0667 11.5233 76.8343 12.8202C76.1117 12.5587 75.5757 12.3652 74.9753 12.1483Z" fill="white"/>
<path d="M57.0678 7.75814C56.3688 7.74539 55.8606 7.38822 55.3396 6.86948C56.7161 6.82058 56.7569 6.84396 57.0506 7.77728L57.0678 7.75814Z" fill="white"/>
<path d="M71.8278 6.28912C71.6606 6.47196 71.5126 6.78448 71.324 6.81212C70.9252 6.86952 70.5049 6.77597 70.0139 6.73771C70.3398 6.37203 70.9509 6.22959 71.8471 6.31038L71.8278 6.28912Z" fill="white"/>
<path d="M64.6191 9.50362L64.5891 9.53339C65.168 9.42709 65.4704 9.55677 65.0716 10.1606C64.9215 10.388 64.6706 10.5496 64.4669 10.741C64.3897 10.6878 64.3125 10.6368 64.2354 10.5836C64.364 10.2243 64.4905 9.86292 64.6191 9.50362Z" fill="white"/>
<path d="M55.2666 7.15649C55.8155 7.5987 56.2207 7.92398 56.6796 8.2939C55.7147 8.53627 55.4917 8.37044 55.2666 7.15649Z" fill="white"/>
<path d="M59.5399 12.261V13.6663C58.8002 13.2135 58.7916 13.054 59.5399 12.261Z" fill="white"/>
</g>
<defs>
<clipPath id="clip0_1326_105">
<rect width="150" height="60" fill="white" transform="translate(0 0.5)"/>
</clipPath>
</defs>
</svg>
