<svg width="92" height="78" viewBox="0 0 92 78" fill="none" xmlns="http://www.w3.org/2000/svg">
<g clip-path="url(#clip0_1278_467)">
<path d="M86.6597 64.1921C86.1451 65.1346 85.7455 65.8657 85.3459 66.5983C85.3808 66.63 85.4158 66.6633 85.4491 66.6949C86.0286 66.2969 86.5798 65.844 87.1942 65.511C88.0901 65.0264 89.0059 64.5502 89.9634 64.2155C90.6512 63.9757 91.3489 64.2204 91.8051 64.8482C92.1398 65.3095 92.0149 66.7016 91.6453 67.1395C91.0808 67.8089 90.1866 67.8939 89.5871 67.3344C89.0226 66.8065 89.0259 65.7025 89.6121 65.1563C89.7886 64.9914 90.0167 64.8815 90.1716 64.5918C89.5405 64.8133 88.8727 64.9631 88.2849 65.2679C86.4582 66.2137 84.9079 67.5125 83.8022 69.2593C82.4251 71.4357 81.0946 73.6438 79.8041 75.8718C79.3861 76.5945 78.9432 77.0341 78.054 76.9092C77.5744 76.8409 77.0765 76.8975 76.3722 76.8975C78.0623 74.0434 79.6626 71.3425 81.2628 68.6399C81.2378 68.6149 81.2129 68.5882 81.1879 68.5633C80.257 69.5041 79.3928 70.5282 78.3787 71.3674C76.5903 72.8478 74.7719 74.3098 72.8453 75.5987C71.3416 76.6045 69.6181 77.124 67.7348 77.0641C65.3503 76.9891 63.9698 75.3256 64.4594 72.966C64.516 72.6963 64.5959 72.4315 64.6742 72.1351C63.4486 73.2924 62.2447 74.4297 61.0408 75.5687C59.9234 76.6278 58.6462 77.1989 57.056 77.0641C55.9586 76.9708 55.2676 76.4479 55.4191 75.3572C55.554 74.3931 55.9769 73.4656 56.31 72.5364C56.4448 72.1584 56.678 71.8154 56.8595 71.4707C55.3192 72.8145 53.8122 74.1883 52.2386 75.4805C50.958 76.5329 49.476 77.1307 47.7742 76.8842C46.4471 76.6927 45.7693 75.7502 46.2439 74.503C46.7435 73.1942 47.4595 71.9619 48.1372 70.728C49.078 69.0145 50.0738 67.331 51.1595 65.4327C50.2737 66.242 49.6059 66.9414 48.8466 67.5175C48.3304 67.9105 47.7126 68.2202 47.0915 68.4151C46.2339 68.6848 45.5162 68.2019 45.418 67.4209C45.2997 66.4868 45.8592 65.7025 46.7068 65.6175C46.9133 65.5976 47.1198 65.5776 47.3279 65.5576C47.3546 65.4677 47.3796 65.3761 47.4062 65.2862C47.0399 65.1513 46.6752 64.9065 46.3055 64.9015C44.8252 64.8815 43.5563 65.526 42.6854 66.6466C41.5347 68.127 40.5356 69.7322 39.5448 71.3291C38.5224 72.976 37.5766 74.6695 36.6258 76.3597C36.3627 76.8276 36.0446 77.0424 35.5018 77.0141C34.8024 76.9775 34.098 77.0058 33.1655 77.0058C34.0597 75.5287 34.7974 74.3098 35.6217 72.946C34.5759 73.8902 33.695 74.7594 32.7359 75.5321C31.5303 76.5029 30.2148 77.1956 28.5579 77.0674C27.2374 76.9658 26.4531 76.413 26.1667 75.1075C26.1268 74.9276 26.1101 74.7428 26.0835 74.5696C24.8596 75.2423 23.6806 75.8934 22.4983 76.5412C21.4792 77.099 20.3669 77.124 19.2579 77.0291C18.0956 76.9308 17.0648 75.7769 16.9716 74.528C16.9399 74.0917 16.9666 73.6504 16.9666 73.0226C16.6135 73.2874 16.3871 73.4573 16.1623 73.6288C14.159 75.1557 12.0293 76.5428 9.51317 76.8825C7.73309 77.1223 5.83144 77.1107 4.078 76.7527C1.1073 76.1465 -0.388037 73.4356 0.0782155 70.2351C0.434566 67.7806 1.34376 65.5376 2.56434 63.4095C5.59499 58.1225 9.93114 54.3042 15.6028 52.0729C18.357 50.9889 21.1312 50.8223 23.8654 52.3527C24.4299 52.669 25.2575 52.5841 25.9602 52.5591C26.553 52.5375 27.1392 52.3343 27.8652 52.1828C26.8628 53.6565 25.9403 55.012 24.9445 56.474C24.8712 56.1892 24.8129 55.9994 24.773 55.8046C24.1052 52.5691 21.9155 51.1604 18.6617 51.8348C15.9691 52.3926 13.6995 53.7364 11.7329 55.5881C8.09443 59.0134 5.07545 62.8683 3.74163 67.8056C3.23708 69.6723 3.01561 71.5539 3.59176 73.4573C4.17458 75.3805 5.3935 76.3613 7.39672 76.4646C10.4823 76.6244 13.0334 75.289 15.4446 73.5722C16.4237 72.8744 17.2063 72.0235 17.8441 70.9761C19.6209 68.0587 21.9205 65.6492 25.1177 64.2654C25.842 63.9524 26.6563 63.7292 27.4406 63.6926C29.607 63.5893 30.5195 63.984 31.0324 66.0222C31.507 65.4394 31.8667 64.6467 32.4661 64.362C33.0656 64.0772 33.9065 64.2987 34.8374 64.2987C34.1829 65.4294 33.6118 66.4252 33.0306 67.4159C31.9233 69.3026 30.786 71.1743 29.7119 73.0809C29.4072 73.6204 29.1607 74.2432 29.0875 74.851C28.9759 75.7902 29.6819 76.353 30.5711 76C31.4587 75.6486 32.3512 75.194 33.0823 74.5929C35.6783 72.4565 37.5816 69.7172 39.4449 66.958C39.6931 66.5917 39.9245 66.212 40.156 65.834C41.21 64.1089 41.4282 64.0123 43.6629 64.3603C43.473 64.74 43.2932 65.0963 43.0884 65.5076C43.891 65.1963 44.6187 64.8249 45.3897 64.6318C47.238 64.1688 48.2221 65.0514 48.064 66.938C48.0573 67.0146 48.0873 67.0962 48.1322 67.356C48.6334 66.993 49.0914 66.7149 49.4844 66.3669C51.5425 64.5435 53.0479 62.2838 54.4666 59.9609C55.4507 58.3507 55.7938 58.2091 57.9269 58.6304C56.976 60.3372 56.0452 62.0057 54.9895 63.8991H57.5688L57.5855 64.2671C57.1309 64.3137 56.6613 64.4536 56.2217 64.3886C55.0095 64.2105 54.3417 64.7017 53.7622 65.7774C52.3718 68.3618 50.8248 70.8629 49.3545 73.404C48.9798 74.0517 48.4902 74.8077 49.0764 75.4705C49.6958 76.1698 50.5484 75.7735 51.2328 75.4255C53.266 74.3931 54.9478 72.8844 56.3982 71.1676C57.8969 69.3942 59.2657 67.5059 60.6128 65.6126C61.6203 64.1955 61.8567 64.0389 63.7867 64.4186C63.6268 64.7533 63.4969 65.0764 63.3254 65.3761C61.855 67.9505 60.3664 70.5132 58.9143 73.0976C58.6346 73.5938 58.3998 74.15 58.3015 74.7078C58.135 75.6353 58.7012 76.1415 59.5671 75.7968C60.2698 75.5171 60.9991 75.1208 61.5104 74.5813C63.1422 72.8545 64.7275 71.0777 66.2378 69.2427C68.256 66.7898 70.5423 64.7633 73.7445 64.0673C74.324 63.9407 74.9684 63.9457 75.5562 64.0506C76.9983 64.307 77.7376 65.5076 77.1265 66.8281C76.7119 67.7223 76.0458 68.5916 75.2798 69.2127C73.2799 70.8362 70.9653 71.8037 68.3476 71.8753C67.8364 71.8886 67.5766 72.0718 67.48 72.5531C67.4034 72.9327 67.2902 73.3074 67.2319 73.6887C67.0188 75.0642 67.8014 76.02 69.1952 76.1049C70.5873 76.1882 71.8112 75.662 72.9652 74.9842C77.1531 72.5314 80.5318 69.211 83.2161 65.1929C83.7106 64.4536 84.2152 64.0906 85.0894 64.1855C85.539 64.2338 86.0003 64.1938 86.653 64.1938L86.6597 64.1921ZM30.4479 66.4834C30.5045 65.123 29.8967 64.2588 28.7128 64.2021C27.9235 64.1638 27.0409 64.342 26.3299 64.6884C22.7714 66.4168 20.7532 69.4591 19.4643 73.0659C19.3195 73.4722 19.2712 73.9385 19.2845 74.3748C19.3311 75.7935 20.237 76.5229 21.6191 76.1782C22.44 75.9734 23.2843 75.6886 23.992 75.2407C26.981 73.349 28.8677 70.5482 30.2381 67.3593C30.378 67.0346 30.4063 66.6633 30.4463 66.4834H30.4479ZM67.9546 71.3058C70.6406 71.7121 74.4455 68.9796 75.0866 66.2387C75.1965 65.7691 75.0983 65.0797 74.8102 64.73C74.4006 64.2338 73.7012 64.4236 73.2166 64.7766C72.4623 65.3261 71.708 65.9023 71.0702 66.5767C69.778 67.9405 68.7339 69.4858 67.9563 71.3042L67.9546 71.3058Z" fill="white"/>
<path d="M64.4877 24.9103C64.2363 32.76 61.9233 39.8537 56.3916 45.5986C51.2112 50.9772 43.6779 50.9905 38.2743 45.8234C35.1554 42.8411 33.1156 39.171 31.7701 35.1379C28.11 24.1693 29.9068 14.1132 37.1553 5.09958C39.8363 1.76754 43.3498 -0.0491787 47.7226 0.110679C51.7674 0.257216 54.8962 2.24379 57.424 5.22447C61.2523 9.7388 63.3954 15.0174 64.1997 20.8573C64.3096 21.6516 64.4161 22.4492 64.4794 23.2485C64.5227 23.7997 64.4877 24.3558 64.4877 24.9103ZM62.6427 25.0552C62.7376 21.9147 62.1914 18.864 61.3938 15.8584C60.3547 11.9435 58.8194 8.25845 56.2018 5.09126C52.0488 0.0690495 44.6453 -0.583704 39.7197 3.66586C37.7764 5.3427 36.3411 7.39754 35.2687 9.71382C31.9699 16.8408 30.8759 24.2359 32.591 31.9691C33.5535 36.3085 34.9689 40.4665 37.7415 44.015C40.7438 47.8566 44.6753 49.5035 49.5377 48.6359C53.0512 48.0082 55.539 45.8318 57.4257 42.981C61.0141 37.5591 62.5311 31.5011 62.641 25.0552H62.6427Z" fill="white"/>
<path d="M64.4661 61.5745C63.8283 61.5778 63.2439 60.99 63.2572 60.3539C63.2688 59.7511 63.8183 59.1849 64.4145 59.1583C65.0439 59.1316 65.6484 59.7061 65.66 60.3422C65.6717 60.9916 65.1122 61.5695 64.4661 61.5728V61.5745Z" fill="white"/>
<path d="M48.2072 9.21594C51.3461 11.8603 51.8207 15.6186 52.7282 19.1604C53.5775 22.4692 53.5142 22.4858 55.569 24.7089C54.8363 25.8095 53.9838 26.8103 53.4609 27.9593C52.963 29.05 52.8265 30.3022 52.5001 31.4745C52.0555 33.0731 51.6408 34.6833 51.103 36.2519C50.5501 37.8655 49.6826 39.3126 48.3371 40.4082C49.0448 41.4423 50.7583 41.7637 52.1021 41.1126C53.694 40.3416 54.3817 38.9246 54.7547 37.2993C54.873 36.7831 54.9829 36.2636 55.0961 35.7457C55.191 35.7607 55.2859 35.774 55.3809 35.789V43.2374C55.2193 43.0909 55.1561 43.0626 55.1444 43.0193C54.6831 41.3274 54.2152 41.0077 52.62 41.7038C50.8549 42.4747 49.2463 42.3216 47.6144 41.4107C47.3896 41.2841 46.9633 41.3158 46.7252 41.4473C45.1416 42.3149 43.5497 42.5247 41.8728 41.7188C41.5331 41.5556 41.1335 41.4956 40.7522 41.4423C40.0145 41.3391 39.6148 41.7521 39.415 42.4081C39.3418 42.6496 39.2935 42.8977 39.0437 43.1092V35.8007C39.1286 35.784 39.2135 35.7657 39.2985 35.7491C39.3851 36.0604 39.5016 36.3652 39.5516 36.6816C39.7564 37.9621 40.161 39.1477 41.0319 40.1468C42.469 41.7954 45.0017 41.847 46.2456 40.3833C45.9093 40.1002 45.5196 39.8371 45.2099 39.4991C43.6546 37.8056 43.0168 35.6774 42.449 33.526C42.0177 31.8941 41.6497 30.2456 41.2301 28.6087C40.9054 27.3415 40.2509 26.2641 39.2668 25.3949C39.0837 25.2334 38.9038 25.0685 38.644 24.8354C39.9545 23.9012 40.8005 22.6856 41.2168 21.2086C41.5615 19.983 41.7746 18.7208 42.1309 17.5002C42.6272 15.8034 43.0768 14.0733 43.7895 12.4647C44.314 11.2808 45.2265 10.27 45.9958 9.13767C45.1166 8.03532 42.9819 7.94373 41.5581 9.09438C40.2926 10.1185 39.7997 11.5372 39.5482 13.0775C39.4983 13.3822 39.3984 13.6786 39.2935 14.0833C38.8972 13.4772 38.7806 7.85215 39.087 6.46172C39.2185 6.71482 39.3268 6.8497 39.3634 7.0029C39.6448 8.17186 40.1027 8.47326 41.2717 8.22848C41.4599 8.18852 41.648 8.1269 41.8196 8.04031C43.4764 7.20605 45.07 7.40088 46.6702 8.24014C46.965 8.395 47.4862 8.39167 47.7809 8.23181C49.3262 7.40088 50.8699 7.24935 52.4868 7.98203C52.7848 8.11691 53.1145 8.21349 53.4376 8.25512C54.4583 8.39 54.8513 8.09194 55.0678 7.07451C55.0961 6.93962 55.1178 6.80308 55.161 6.67319C55.171 6.63989 55.251 6.6299 55.3992 6.56662V13.9184C55.3192 13.9351 55.2376 13.9517 55.1577 13.9701C55.0761 13.7136 55.0062 13.4538 54.9129 13.2024C54.5 12.0984 54.2369 10.8994 53.6241 9.91698C52.6266 8.32007 50.5618 7.85048 49.0048 8.6581C48.7484 8.79131 48.5253 8.99114 48.2039 9.2176L48.2072 9.21594ZM47.3263 10.0119C46.1774 11.1376 45.7544 12.3648 45.408 13.6054C43.8328 19.2487 43.3698 24.9853 44.319 30.7751C44.7103 33.1614 45.4097 35.5009 46.0575 37.8372C46.2306 38.4616 46.7285 38.9978 47.1232 39.6506C48.0857 38.7647 48.5103 37.7773 48.8233 36.7498C50.3969 31.5811 50.9448 26.3058 50.3836 20.9239C50.0822 18.0298 49.6593 15.1557 48.6102 12.4248C48.3038 11.6255 47.8059 10.8994 47.3263 10.0119Z" fill="white"/>
</g>
<defs>
<clipPath id="clip0_1278_467">
<rect width="92" height="76.9817" fill="white" transform="translate(0 0.100693)"/>
</clipPath>
</defs>
</svg>
