<svg width="150" height="33" viewBox="0 0 150 33" fill="none" xmlns="http://www.w3.org/2000/svg">
<path d="M76.6517 17.2915C76.7017 20.0273 76.3173 22.689 75.0992 25.174C74.2745 26.8557 73.1689 28.3215 71.588 29.3748C70.4341 30.1448 69.1617 30.5715 67.7709 30.6757C62.3287 31.0815 59.157 27.3107 57.9646 23.8007C57.0441 21.0898 56.8365 18.2957 57.0183 15.4615C57.1634 13.1948 57.6244 11.004 58.7467 9.00233C60.0883 6.60899 61.956 4.80316 64.6884 4.12483C69.045 3.04316 72.9471 4.95983 75.0249 9.12983C76.0764 11.2407 76.5166 13.5015 76.6484 15.8348C76.6759 16.319 76.6525 16.8057 76.6525 17.2907L76.6517 17.2915ZM64.1272 17.2832C64.259 18.5223 64.3557 19.7665 64.5333 20.9998C64.6617 21.8948 64.9352 22.7632 65.5122 23.4907C66.2317 24.3982 67.3782 24.4465 68.0627 23.514C68.4696 22.959 68.7806 22.2832 68.9524 21.6148C69.6294 18.9798 69.5436 16.3032 69.1458 13.6398C69.0274 12.8465 68.7681 12.034 68.3921 11.3273C67.7217 10.0682 66.3009 10.0373 65.4913 11.2182C65.197 11.6473 64.9685 12.1373 64.7984 12.6307C64.2798 14.134 64.2331 15.7048 64.1264 17.284L64.1272 17.2832Z" fill="white"/>
<path d="M129.012 17.3007C128.988 20.124 128.586 22.8657 127.272 25.4057C126.163 27.549 124.645 29.2923 122.324 30.1815C118.768 31.5432 114.557 30.3182 112.166 27.2848C110.687 25.4082 109.895 23.259 109.547 20.9323C109.088 17.8715 109.091 14.8182 109.912 11.8073C110.604 9.26901 111.913 7.12818 114.036 5.51984C117.461 2.92484 123.577 3.00818 126.687 8.01401C128.03 10.1773 128.661 12.5523 128.887 15.0565C128.953 15.8023 128.972 16.5523 129.013 17.3007H129.012ZM121.735 16.9465C121.692 16.284 121.658 15.3398 121.562 14.4023C121.448 13.3098 121.277 12.219 120.675 11.2665C119.939 10.104 118.601 10.0323 117.839 11.1732C117.424 11.794 117.086 12.5198 116.922 13.2457C116.314 15.9473 116.34 18.6748 116.915 21.3798C117.064 22.0832 117.365 22.7907 117.752 23.3982C118.42 24.4465 119.682 24.4423 120.434 23.4482C120.664 23.1432 120.842 22.7865 120.986 22.4298C121.657 20.7582 121.69 18.9932 121.735 16.9482V16.9465Z" fill="white"/>
<path d="M40.2306 4.34241H53.1769V10.3966H47.2253V14.1749C47.3637 14.1841 47.5096 14.2016 47.6547 14.2016C49.1689 14.2032 50.6839 14.2107 52.1981 14.1957C52.5141 14.1924 52.5991 14.2924 52.5966 14.5991C52.5833 16.2932 52.5824 17.9874 52.5966 19.6816C52.5991 20.0016 52.489 20.0799 52.1864 20.0757C50.7006 20.0549 49.2139 20.0524 47.7272 20.0474C47.5638 20.0474 47.4004 20.0699 47.2128 20.0832V24.0282H53.1794V30.2257H40.2297V4.34241H40.2306Z" fill="white"/>
<path d="M92.3047 21.6882C92.8909 22.2507 93.427 22.834 94.034 23.3307C94.8895 24.0307 95.8934 24.3757 97.0149 24.2915C98.0162 24.2165 98.7325 23.5874 98.7867 22.7315C98.8267 22.1099 98.5782 21.5749 98.1413 21.1615C97.6185 20.6665 97.0574 20.2107 96.4904 19.7657C95.3839 18.8974 94.305 18.004 93.5087 16.8232C92.6466 15.5457 92.2314 14.1524 92.2047 12.5965C92.1663 10.3149 92.8375 8.29069 94.2583 6.53819C95.9726 4.42486 98.2639 3.65152 100.931 3.88986C102.274 4.00986 103.543 4.40486 104.746 5.00652C104.878 5.07236 105.041 5.25069 105.042 5.37736C105.059 7.87569 105.055 10.3749 105.055 12.9865C104.866 12.7432 104.737 12.5749 104.606 12.409C103.995 11.6365 103.303 10.9374 102.376 10.5807C101.848 10.3774 101.242 10.249 100.684 10.284C99.2778 10.3724 98.6674 11.7799 99.5196 12.8974C99.7847 13.2449 100.134 13.5365 100.474 13.8182C101.499 14.6682 102.59 15.4457 103.558 16.3532C105.084 17.7815 105.766 19.6074 105.801 21.6915C105.834 23.6999 105.433 25.589 104.261 27.2515C102.582 29.6357 100.258 30.7707 97.345 30.7065C95.7183 30.6707 94.1566 30.3157 92.6307 29.7682C92.3898 29.6815 92.2639 29.5724 92.2647 29.3032C92.2722 26.804 92.2722 24.3049 92.2764 21.8049C92.2764 21.7657 92.2939 21.7257 92.3039 21.6849L92.3047 21.6882Z" fill="white"/>
<path d="M19.9793 11.8066C19.7275 11.6008 19.5216 11.4233 19.3056 11.2574C17.1253 9.58326 14.4121 10.1941 13.1539 12.6408C12.6444 13.6308 12.3876 14.6924 12.2951 15.7949C12.1458 17.5649 12.1875 19.3216 12.8029 21.0174C13.8576 23.9224 16.7075 24.8466 19.2681 23.1174C19.5991 22.8941 19.9126 22.6441 20.232 22.4083C20.232 22.9291 20.2537 23.4466 20.2278 23.9608C20.1369 25.7774 20.026 27.5924 19.9335 29.4083C19.921 29.6549 19.8643 29.8083 19.6066 29.9066C16.6975 31.0141 13.8218 31.0591 11.0294 29.5741C8.7973 28.3866 7.26561 26.5391 6.2884 24.2274C5.25033 21.7724 5.01436 19.1883 5.09691 16.5566C5.18946 13.5983 5.84899 10.8091 7.57912 8.34992C9.60441 5.46909 12.4143 4.02242 15.9113 3.86326C17.1995 3.80492 18.461 3.95326 19.6884 4.36909C19.8951 4.43909 20.0102 4.51576 20.0094 4.76742C19.9985 7.04409 20.0019 9.32159 20.0002 11.5983C20.0002 11.6483 19.9902 11.6983 19.9793 11.8066Z" fill="white"/>
<path d="M145.594 30.2357H133.391V4.35486H140.356V24.0382C140.934 24.0382 141.46 24.0382 141.986 24.0382C143.084 24.0382 144.181 24.0415 145.279 24.0349C145.508 24.0332 145.64 24.0732 145.639 24.3499C145.63 26.2524 145.633 28.1549 145.631 30.0574C145.631 30.1099 145.61 30.1624 145.595 30.2357H145.594Z" fill="white"/>
<path d="M31.47 24.039H36.6862V30.2382H24.5178V4.35071H31.47V24.039Z" fill="white"/>
</svg>
