<svg width="150" height="79" viewBox="0 0 150 79" fill="none" xmlns="http://www.w3.org/2000/svg">
<g clip-path="url(#clip0_1281_218)">
<path d="M150 40.2307C149.194 40.5218 148.362 40.8265 147.312 41.2124C146.432 53.4596 145.559 65.7272 144.652 78.4077C99.6028 76.0449 54.9874 73.7092 9.88446 71.3464V44.7735H4.62403C1.4082 31.7341 0.595775 18.5729 0 4.99194C1.03584 4.843 1.97012 4.61281 2.91118 4.57896C11.8952 4.26753 20.8928 4.22691 29.8565 3.65822C56.6799 1.95213 83.544 2.70362 110.381 1.91828C120.712 1.62039 131.044 1.28865 141.375 0.983996C142.702 0.943375 144.029 0.983996 145.762 0.983996C147.177 14.0843 148.565 26.9815 149.993 40.2375L150 40.2307ZM17.5618 31.4836L17.4603 31.3956C20.4392 31.6394 23.4113 31.8831 25.9501 32.093C31.0616 28.4167 29.1591 19.5072 26.6813 15.2894C23.8852 10.5367 17.2504 9.05405 9.1939 11.471C10.0673 17.9297 10.9609 24.4968 11.8613 31.1654C13.994 31.2805 15.7745 31.3753 17.5551 31.4769L17.5618 31.4836ZM90.26 43.9069V69.4237H96.238V55.1048C96.4141 55.0912 96.5833 55.0845 96.7593 55.0709C99.8262 60.196 102.893 65.3277 105.784 70.1549H110.665C110.936 61.7396 111.193 53.5138 111.464 45.1662H105.804V57.0411C105.574 57.1223 105.337 57.2035 105.107 57.2848C102.196 52.742 99.2846 48.206 96.5224 43.9001H90.2667L90.26 43.9069ZM17.3046 38.5991C17.8462 47.9149 16.5395 56.6958 17.3384 65.8423C20.3782 65.9641 23.066 66.3094 25.7131 66.1402C31.0345 65.7881 34.5821 61.5906 33.7764 56.6078C33.4853 54.8001 32.5104 53.1008 31.7318 51.0427C31.962 50.3521 32.4021 49.3163 32.6593 48.2331C33.5259 44.5907 32.0026 41.1176 28.7868 39.838C25.3001 38.4501 21.6104 38.5517 17.3113 38.5991H17.3046ZM118.715 34.9229C127.53 35.6541 132.682 33.2507 135.241 27.6111C137.672 22.2627 136.229 14.3416 132.12 10.4284C128.552 7.03653 121.064 6.02101 115.777 8.59367C116.738 17.1918 117.72 26.0133 118.715 34.9229ZM67.4174 42.5664V68.2863C68.9881 68.4556 70.3624 68.5977 71.8722 68.7602C72.1565 65.4767 72.4138 62.5791 72.6643 59.6814C72.9689 59.6273 73.2668 59.5663 73.5715 59.5122C76.7467 62.0578 77.2138 66.4177 79.712 69.6607C81.2082 69.4034 82.6638 69.1529 84.4715 68.8415C82.7112 65.145 81.1812 61.9359 79.4006 58.2123C80.213 57.6165 81.1879 57.1494 81.7973 56.3979C85.5479 51.7942 83.3273 43.7241 77.7961 42.6883C74.5803 42.0857 71.1613 42.58 67.4106 42.58L67.4174 42.5664ZM47.3371 9.94094C44.9946 10.1779 42.8484 10.4013 40.7632 10.6112C39.1181 18.187 37.5948 25.2348 36.0309 32.4382C37.6489 32.6075 38.9759 32.7429 40.2893 32.8783C40.9122 31.856 41.4673 30.9285 42.0563 29.9671C45.0352 29.7505 47.899 29.5474 50.6815 29.3443C51.6023 30.7998 52.3064 31.9169 53.1053 33.1762C54.7639 33.3657 56.4294 33.5621 58.8193 33.8397C54.8384 25.553 51.2096 18.0042 47.3303 9.94094H47.3371ZM80.3755 33.8261C83.0768 25.5597 85.6766 17.6048 88.3102 9.54827H82.1561C80.2469 15.8581 78.9673 22.1611 76.5368 28.0715C76.2457 28.0647 75.9614 28.0512 75.6702 28.0444C73.1111 22.0392 70.5452 16.0409 67.9455 9.95448C65.9212 10.1237 64.3167 10.2591 62.2991 10.4284C65.9212 18.5458 69.3334 26.1826 72.7455 33.8261H80.3687H80.3755ZM132.777 50.8057C132.946 49.208 133.088 47.8404 133.257 46.2155C128.065 45.8635 123.298 45.5385 118.261 45.1932C118.004 53.7711 117.76 62.0984 117.503 70.8184C122.175 71.1636 126.467 71.4886 131.098 71.8271C131.199 70.2294 131.274 69.0987 131.348 67.8936C128.105 67.4874 125.275 67.1286 122.229 66.7495C122.391 64.5424 122.52 62.8228 122.662 60.873H131.179C131.26 59.3768 131.335 58.131 131.409 56.8109C128.281 56.425 125.553 56.0932 122.628 55.7276C122.764 53.8184 122.858 52.417 122.973 50.7989H132.783L132.777 50.8057ZM51.6903 67.5348C51.8189 65.7001 51.9408 64.4882 51.9746 63.2696C52.1033 58.693 53.0579 54.5293 56.3075 50.9411C58.5688 48.4429 60.241 45.4234 62.4955 42.1805C59.7874 41.991 57.797 41.8555 55.8336 41.7201C53.7958 44.7396 51.8799 47.5696 49.6118 50.9276C47.5876 47.2514 45.8882 44.1574 44.2025 41.0973H37.5745C39.8493 45.0714 41.8194 48.8017 44.0738 52.3561C45.7935 55.0642 46.3486 57.8738 46.0846 60.9948C45.9289 62.8634 46.0575 64.7523 46.0575 66.8443C48.0073 67.0812 49.6186 67.2843 51.6971 67.5348H51.6903ZM105.432 35.1328C104.708 26.2571 104.01 17.7063 103.299 9.07436H97.2874C98.2691 17.923 99.2102 26.4466 100.172 35.1328H105.432Z" fill="white"/>
<path d="M22.4702 60.7647V55.159C26.4172 54.0757 27.4328 54.5564 28.8477 57.9686C27.426 61.2115 26.8234 61.5026 22.4702 60.7647Z" fill="white"/>
<path d="M22.9036 44.523C24.8195 43.8054 26.3293 44.0626 27.1349 45.6469C27.5073 46.3848 27.4057 47.617 27.0469 48.4226C26.248 50.2303 24.6232 49.9053 22.9036 49.6548V44.523Z" fill="white"/>
<path d="M121.051 12.8183C124.937 11.7419 127.496 12.7032 129.304 15.4181C131.673 18.9792 131.842 22.784 129.893 26.5483C128.559 29.1209 126.311 30.0958 122.879 29.2834C122.283 23.9282 121.68 18.4647 121.051 12.8183Z" fill="white"/>
<path d="M72.5085 53.981C72.6778 51.6656 72.8267 49.6075 72.9757 47.5629C75.088 46.676 77.0039 46.6218 77.9111 48.4294C78.5002 49.6075 78.4392 51.5573 77.857 52.7691C76.9227 54.7189 74.9526 54.834 72.5085 53.9742V53.981Z" fill="white"/>
<path d="M48.7183 24.7407C46.6331 24.9234 45.1369 25.0521 42.8892 25.2484C43.5391 22.6554 44.0672 20.5296 44.5952 18.4105C44.8796 18.3632 45.1639 18.3158 45.4551 18.2616C46.4503 20.2385 47.4455 22.2221 48.7183 24.7407Z" fill="white"/>
<path d="M17.5619 31.4837C16.6005 26.3587 15.6459 21.2404 14.6846 16.1019C17.9681 14.7749 20.5137 15.4452 22.2807 17.4356C24.7924 20.2588 24.9752 23.8063 23.628 27.2591C22.5786 29.9333 20.7236 31.8087 17.4671 31.4025L17.5687 31.4905L17.5619 31.4837Z" fill="white"/>
</g>
<defs>
<clipPath id="clip0_1281_218">
<rect width="150" height="77.4373" fill="white" transform="translate(0 0.963745)"/>
</clipPath>
</defs>
</svg>
