<svg width="93" height="48" viewBox="0 0 93 48" fill="none" xmlns="http://www.w3.org/2000/svg">
<g clip-path="url(#clip0_1278_434)">
<path d="M92.5 24.0805C92.0059 24.2591 91.4951 24.4459 90.8515 24.6826C90.3117 32.1943 89.776 39.7184 89.2196 47.4958C61.5897 46.0466 34.2256 44.614 6.56247 43.1648V26.8668H3.33607C1.36369 18.8693 0.865409 10.7971 0.5 2.46742C1.13531 2.37606 1.70834 2.23488 2.28552 2.21412C7.79572 2.02311 13.3142 1.9982 18.812 1.6494C35.2637 0.603001 51.7403 1.06391 68.2003 0.582239C74.5368 0.399535 80.8734 0.196068 87.2099 0.00921143C88.0237 -0.0157028 88.8376 0.00921143 89.9006 0.00921143C90.7685 8.04406 91.6197 15.9543 92.4959 24.0847L92.5 24.0805ZM11.2713 18.7157L11.209 18.6617C13.036 18.8112 14.8589 18.9606 16.4161 19.0894C19.5511 16.8346 18.3843 11.3701 16.8645 8.78318C15.1496 5.86821 11.0802 4.95884 6.13892 6.44124C6.67458 10.4026 7.22269 14.4304 7.77496 18.5205C9.08296 18.5911 10.175 18.6492 11.2671 18.7115L11.2713 18.7157ZM55.8595 26.3353V41.9856H59.526V33.2033C59.634 33.195 59.7378 33.1908 59.8457 33.1825C61.7268 36.3259 63.6078 39.4734 65.3808 42.434H68.3747C68.5408 37.2726 68.6986 32.2275 68.8647 27.1076H65.3933V34.3909C65.2521 34.4407 65.1068 34.4905 64.9656 34.5404C63.1801 31.7541 61.3946 28.972 59.7004 26.3311H55.8636L55.8595 26.3353ZM11.1135 23.0798C11.4457 28.7935 10.6443 34.1791 11.1342 39.789C12.9986 39.8637 14.6471 40.0755 16.2707 39.9717C19.5345 39.7557 21.7103 37.1813 21.2162 34.1251C21.0376 33.0164 20.4397 31.9742 19.9622 30.7119C20.1034 30.2883 20.3733 29.653 20.5311 28.9886C21.0626 26.7547 20.1283 24.6245 18.1559 23.8397C16.0174 22.9884 13.7544 23.0507 11.1176 23.0798H11.1135ZM73.3119 20.8251C78.7183 21.2735 81.8782 19.7994 83.4478 16.3405C84.9385 13.0601 84.0541 8.20185 81.5336 5.80177C79.3453 3.72143 74.7528 3.09858 71.5098 4.67648C72.0994 9.95 72.7015 15.3605 73.3119 20.8251ZM41.8493 25.5131V41.288C42.8127 41.3918 43.6556 41.479 44.5816 41.5786C44.756 39.5647 44.9138 37.7875 45.0674 36.0103C45.2543 35.9771 45.437 35.9397 45.6239 35.9065C47.5713 37.4678 47.8578 40.1419 49.3901 42.1309C50.3077 41.9731 51.2005 41.8195 52.3092 41.6285C51.2296 39.3613 50.2911 37.393 49.199 35.1092C49.6973 34.7438 50.2953 34.4573 50.669 33.9964C52.9694 31.1728 51.6074 26.2232 48.2149 25.5878C46.2426 25.2183 44.1456 25.5214 41.8452 25.5214L41.8493 25.5131ZM29.5334 5.5028C28.0967 5.64814 26.7804 5.78516 25.5014 5.91389C24.4924 10.5604 23.5581 14.883 22.5989 19.3011C23.5914 19.405 24.4052 19.488 25.2108 19.571C25.5928 18.944 25.9333 18.3752 26.2945 17.7855C28.1216 17.6526 29.878 17.5281 31.5847 17.4035C32.1494 18.2963 32.5812 18.9814 33.0712 19.7538C34.0886 19.87 35.11 19.9904 36.5758 20.1607C34.1342 15.0782 31.9086 10.4483 29.5293 5.5028H29.5334ZM49.797 20.1524C51.4538 15.0823 53.0483 10.2033 54.6636 5.26197H50.8891C49.7181 9.13198 48.9333 12.9978 47.4426 16.6229C47.264 16.6187 47.0896 16.6104 46.9111 16.6063C45.3415 12.9231 43.7677 9.24409 42.1732 5.51111C40.9317 5.61492 39.9476 5.69796 38.7101 5.80177C40.9317 10.7805 43.0245 15.4643 45.1173 20.1524H49.7928H49.797ZM81.9364 30.5665C82.0402 29.5866 82.1274 28.7478 82.2312 27.7512C79.0463 27.5353 76.123 27.336 73.0337 27.1242C72.8759 32.3853 72.7264 37.4927 72.5686 42.841C75.4337 43.0527 78.0664 43.252 80.9066 43.4597C80.9689 42.4797 81.0145 41.7862 81.0602 41.0471C79.0712 40.798 77.3355 40.5779 75.467 40.3454C75.5666 38.9917 75.6455 37.937 75.7327 36.7411H80.9564C81.0062 35.8234 81.0519 35.0594 81.0976 34.2497C79.1792 34.013 77.5058 33.8095 75.712 33.5853C75.795 32.4143 75.8531 31.5548 75.9237 30.5624H81.9405L81.9364 30.5665ZM32.2034 40.8271C32.2823 39.7018 32.357 38.9585 32.3778 38.2111C32.4567 35.404 33.0422 32.8503 35.0353 30.6496C36.4222 29.1174 37.4478 27.2654 38.8306 25.2764C37.1696 25.1601 35.9488 25.0771 34.7446 24.994C33.4948 26.846 32.3196 28.5817 30.9286 30.6413C29.687 28.3865 28.6448 26.4889 27.6109 24.612H23.5457C24.9409 27.0495 26.1492 29.3374 27.532 31.5174C28.5867 33.1784 28.9272 34.9016 28.7652 36.8159C28.6697 37.9619 28.7486 39.1204 28.7486 40.4035C29.9445 40.5488 30.9328 40.6734 32.2075 40.8271H32.2034ZM65.1649 20.9538C64.7206 15.51 64.2929 10.2656 63.8569 4.9713H60.1696C60.7717 10.3985 61.3489 15.6263 61.9385 20.9538H65.1649Z" fill="white"/>
<path d="M14.2817 36.6747V33.2365C16.7026 32.5721 17.3254 32.867 18.1933 34.9598C17.3213 36.9487 16.9517 37.1273 14.2817 36.6747Z" fill="white"/>
<path d="M14.5475 26.7131C15.7226 26.273 16.6486 26.4308 17.1427 27.4024C17.3711 27.855 17.3088 28.6108 17.0887 29.1049C16.5988 30.2136 15.6022 30.0143 14.5475 29.8606V26.7131Z" fill="white"/>
<path d="M74.7445 7.26756C77.128 6.60733 78.6976 7.19697 79.8063 8.86207C81.2596 11.0462 81.3634 13.3799 80.1675 15.6886C79.3495 17.2665 77.9709 17.8644 75.8656 17.3661C75.5002 14.0816 75.1307 10.7306 74.7445 7.26756Z" fill="white"/>
<path d="M44.9719 32.514C45.0757 31.0939 45.1671 29.8316 45.2584 28.5776C46.554 28.0336 47.7291 28.0004 48.2855 29.1091C48.6468 29.8316 48.6094 31.0275 48.2523 31.7707C47.6793 32.9666 46.4709 33.0372 44.9719 32.5099V32.514Z" fill="white"/>
<path d="M30.3805 14.5799C29.1016 14.692 28.1839 14.7709 26.8053 14.8913C27.2039 13.301 27.5278 11.9971 27.8517 10.6974C28.0261 10.6684 28.2005 10.6393 28.379 10.6061C28.9894 11.8186 29.5998 13.0352 30.3805 14.5799Z" fill="white"/>
<path d="M11.2712 18.7157C10.6816 15.5723 10.0961 12.4331 9.50647 9.28148C11.5204 8.46762 13.0817 8.8787 14.1654 10.0995C15.706 11.831 15.8181 14.0069 14.9918 16.1246C14.3481 17.7648 13.2104 18.915 11.2131 18.6658L11.2754 18.7198L11.2712 18.7157Z" fill="white"/>
</g>
<defs>
<clipPath id="clip0_1278_434">
<rect width="92" height="47.4949" fill="white" transform="translate(0.5 -0.00323486)"/>
</clipPath>
</defs>
</svg>
