<svg width="150" height="22" viewBox="0 0 150 22" fill="none" xmlns="http://www.w3.org/2000/svg">
<g clip-path="url(#clip0_1281_348)">
<path d="M0.0110683 0.202465C0.136553 0.19559 0.216484 0.186995 0.295556 0.186995C1.02869 0.186995 1.76183 0.1784 2.49497 0.189573C4.34371 0.217936 6.00337 0.798086 7.44987 1.94979C9.04507 3.2201 10.0515 4.86515 10.4091 6.87204C11.2204 11.4299 8.1641 15.4419 4.05578 16.2816C3.54869 16.3856 3.0373 16.4441 2.52161 16.4527C1.7773 16.4638 1.03299 16.4561 0.287821 16.4552C0.209608 16.4552 0.131396 16.4432 0.0377122 16.4363C0.0239605 16.3624 0.00677093 16.298 0.00247353 16.2326C-0.00354283 16.1415 0.000754569 16.0496 0.000754569 15.9576C0.000754569 10.8626 0.000754569 5.76846 0.000754569 0.673461C0.000754569 0.52649 0.00677093 0.379519 0.0102089 0.202465H0.0110683Z" fill="white"/>
<path d="M23.1467 16.4354C23.0152 16.444 22.9259 16.4551 22.8373 16.4551C22.1162 16.4569 21.3943 16.4646 20.6732 16.4543C16.735 16.3967 13.5515 13.6343 12.7943 10.0176C11.8188 5.36441 14.8957 1.25953 19.0161 0.37598C19.555 0.26081 20.099 0.189473 20.6508 0.187754C21.384 0.186035 22.1171 0.186035 22.8494 0.186035C22.9293 0.186035 23.0084 0.192911 23.1055 0.198068C23.1201 0.264248 23.1416 0.327849 23.145 0.391451C23.1519 0.493729 23.1476 0.597726 23.1476 0.700005C23.1476 5.78297 23.1476 10.8659 23.1476 15.9489C23.1476 16.0967 23.1476 16.2454 23.1476 16.4337L23.1467 16.4354Z" fill="white"/>
<path d="M28.1049 16.4433C28.0929 16.3427 28.0783 16.2757 28.0783 16.2086C28.0774 10.8859 28.0774 5.56395 28.0774 0.266975C28.1762 0.165557 28.2725 0.187903 28.3602 0.187903C29.1156 0.186184 29.872 0.187044 30.6275 0.187044C31.75 0.187044 32.8724 0.181027 33.9949 0.188763C37.4878 0.211109 40.5794 2.44576 41.6684 5.76679C43.2266 10.5171 40.2433 15.3139 35.6107 16.28C35.059 16.3951 34.502 16.4544 33.9399 16.4553C32.1075 16.4596 30.2751 16.457 28.4427 16.4562C28.3413 16.4562 28.2398 16.4484 28.1049 16.4433ZM30.5854 13.9731C30.6713 13.9783 30.7512 13.9877 30.8303 13.9877C31.884 13.9886 32.9378 13.998 33.9915 13.9826C34.3439 13.9774 34.7006 13.9353 35.0478 13.8691C37.8978 13.3251 40.074 10.5446 39.5283 7.35683C39.0676 4.66752 36.7375 2.68212 34.0138 2.65719C32.9601 2.64774 31.9064 2.65461 30.8527 2.65633C30.7624 2.65633 30.673 2.66665 30.5793 2.6718C30.52 2.81534 30.5407 2.95457 30.5407 3.08951C30.5398 6.58158 30.5398 10.0728 30.5407 13.5649C30.5407 13.6568 30.5389 13.7479 30.5467 13.839C30.5501 13.882 30.5716 13.9241 30.5871 13.9731H30.5854Z" fill="white"/>
<path d="M63.1976 0.188557C63.2363 0.626033 63.2139 1.01452 63.2182 1.40128C63.2225 1.8018 63.2191 2.20318 63.2191 2.6037V3.77173C63.2191 4.17225 63.2148 4.57363 63.2199 4.97415C63.2251 5.35833 63.195 5.74424 63.244 6.15937C63.5191 6.01154 63.7623 5.86543 64.0175 5.74768C64.2771 5.62821 64.5435 5.5182 64.816 5.43655C65.0893 5.3549 65.3721 5.29731 65.654 5.25863C65.9368 5.21996 66.2238 5.19933 66.5092 5.20363C66.8057 5.20792 67.1048 5.23371 67.397 5.28184C67.6781 5.32825 67.9574 5.40045 68.2281 5.49155C68.498 5.58266 68.7636 5.69525 69.0171 5.82675C69.2707 5.95825 69.5156 6.10952 69.746 6.27798C69.9763 6.44558 70.1964 6.63294 70.3992 6.8332C70.602 7.03432 70.792 7.25091 70.9622 7.48039C72.4723 9.50361 72.4379 12.3038 70.8874 14.2875C70.5393 14.7327 70.1353 15.1186 69.6721 15.4443C69.2002 15.7761 68.6897 16.0305 68.1396 16.2041C67.6007 16.3743 67.0489 16.4645 66.4843 16.4697C65.9075 16.4749 65.3446 16.3863 64.7911 16.223C64.2513 16.064 63.7597 15.8002 63.2509 15.5002C63.177 15.8294 63.2552 16.1388 63.1976 16.4319C63.146 16.4482 63.1142 16.4663 63.0824 16.4663C62.3493 16.468 61.6162 16.468 60.883 16.4663C60.8512 16.4663 60.8194 16.4499 60.7704 16.4362C60.7627 16.3829 60.7498 16.3287 60.7472 16.2746C60.7068 15.2896 60.7343 0.521176 60.7782 0.220358C61.0309 0.155038 61.2939 0.198871 61.5526 0.191136C61.8276 0.183401 62.1026 0.189417 62.3777 0.189417C62.6527 0.189417 62.9019 0.189417 63.1967 0.189417L63.1976 0.188557ZM66.4172 14.2067C68.2874 14.2144 69.8225 12.7035 69.8354 10.841C69.8483 9.02402 68.3889 7.41765 66.4387 7.41507C64.5393 7.41249 63.0446 8.93291 63.0403 10.7997C63.036 12.7215 64.5917 14.1998 66.4164 14.2067H66.4172Z" fill="white"/>
<path d="M72.3725 20.7035C72.5031 20.3124 73.2182 18.725 73.3669 18.4946C73.4657 18.5333 73.5723 18.5686 73.672 18.6158C74.3562 18.939 75.1529 18.6064 75.4494 17.9231C75.7726 17.1779 76.1018 16.4345 76.4413 15.6962C76.5264 15.5105 76.5135 15.3567 76.4327 15.177C75.8688 13.9248 75.3119 12.6691 74.7532 11.4142C73.8877 9.46923 73.0222 7.52422 72.1585 5.57836C72.1095 5.46749 72.0253 5.36349 72.0528 5.22855C72.3312 5.19331 74.3355 5.18987 74.6862 5.22597C74.7386 5.33684 74.7988 5.45803 74.8547 5.5818C75.8138 7.73566 76.773 9.88951 77.7322 12.0442C77.7778 12.1457 77.807 12.2582 77.923 12.3536C78.4628 11.1435 78.9931 9.95398 79.5225 8.76445C80.0485 7.58439 80.5728 6.40346 81.0979 5.22425C81.2879 5.18386 81.4589 5.20534 81.6291 5.20191C81.8122 5.19847 81.9961 5.20191 82.1792 5.20191H82.6948C82.8779 5.20191 83.0618 5.20105 83.2449 5.20191C83.4125 5.20277 83.581 5.19503 83.7829 5.21394C83.7228 5.36349 83.6807 5.47952 83.63 5.59211C82.6768 7.72362 81.7219 9.85514 80.7679 11.9858C79.6729 14.4302 78.5788 16.8754 77.483 19.3189C77.3987 19.5062 77.3102 19.6945 77.201 19.8681C76.4026 21.1496 74.7988 21.6919 73.3849 21.159C73.0437 21.0301 72.7103 20.8814 72.3725 20.7044V20.7035Z" fill="white"/>
<path d="M54.6115 10.8223C54.5995 13.9809 52.0666 16.4476 49.0068 16.4682C45.8912 16.4897 43.3575 13.9792 43.3351 10.8584C43.3128 7.75136 45.8405 5.21332 48.9535 5.19613C51.9419 5.1798 54.5857 7.58119 54.6115 10.8223ZM48.9613 14.2069C50.8255 14.2121 52.3597 12.6977 52.37 10.8386C52.3803 9.00964 50.9114 7.42132 48.9785 7.41531C47.0919 7.40929 45.5921 8.91682 45.5723 10.7853C45.5526 12.6624 47.085 14.2026 48.9613 14.2069Z" fill="white"/>
<path d="M127.518 16.432C127.22 16.4836 126.633 16.4836 126.338 16.4328C126.284 16.3074 126.308 16.169 126.308 16.0349C126.306 14.0882 126.307 12.1415 126.307 10.1947C126.307 9.77101 126.293 9.34815 126.22 8.92872C126.147 8.5093 126.037 8.1019 125.85 7.71771C125.418 6.82901 124.705 6.34255 123.725 6.24542C123.335 6.20675 122.947 6.23425 122.565 6.33395C121.871 6.51616 121.329 6.9141 120.914 7.49425C120.514 8.05463 120.291 8.68807 120.167 9.35932C120.082 9.82258 120.051 10.2901 120.051 10.7603C120.051 12.5128 120.051 14.2644 120.051 16.0169C120.051 16.1527 120.045 16.2876 120.044 16.4165C119.784 16.4827 119.172 16.4896 118.821 16.4328C118.774 16.3203 118.794 16.1939 118.794 16.071C118.792 14.0899 118.793 12.1088 118.793 10.1277C118.793 9.92142 118.796 9.71515 118.786 9.50973C118.766 9.0396 118.721 8.57204 118.584 8.11995C118.515 7.89133 118.429 7.66443 118.32 7.45128C118.002 6.83073 117.488 6.45084 116.81 6.31074C115.549 6.04946 114.503 6.43021 113.684 7.41861C113.221 7.97728 112.961 8.63478 112.812 9.33869C112.71 9.82172 112.67 10.3116 112.671 10.8058C112.674 12.5583 112.673 14.3099 112.671 16.0624C112.671 16.1853 112.662 16.3082 112.658 16.4251C112.351 16.4861 111.72 16.4861 111.44 16.4277C111.391 16.3005 111.411 16.1621 111.411 16.028C111.409 13.9438 111.415 11.8596 111.408 9.77531C111.404 8.52735 111.383 7.27938 111.365 6.03141C111.361 5.76927 111.341 5.50799 111.328 5.24929C111.585 5.18225 112.203 5.17967 112.505 5.24671C112.558 5.62402 112.545 6.0125 112.575 6.39841C112.604 6.76885 112.596 7.14272 112.661 7.52605C112.711 7.44182 112.761 7.35931 112.809 7.27422C113.329 6.34169 114.098 5.70739 115.113 5.37907C115.899 5.12466 116.693 5.13497 117.481 5.37133C118.138 5.56901 118.665 5.96008 119.07 6.51444C119.274 6.79377 119.436 7.09545 119.564 7.41518C119.602 7.50972 119.645 7.60168 119.69 7.70482C119.788 7.66958 119.802 7.58707 119.834 7.52175C120.002 7.1814 120.201 6.86081 120.448 6.57289C121.165 5.73747 122.087 5.30601 123.171 5.21319C123.71 5.16764 124.246 5.20201 124.774 5.33781C125.813 5.60511 126.571 6.21792 127.045 7.17882C127.323 7.74006 127.464 8.33998 127.52 8.95966C127.542 9.1986 127.549 9.44011 127.549 9.67991C127.55 11.8097 127.55 13.9395 127.549 16.0701C127.549 16.1931 127.569 16.3194 127.517 16.432H127.518Z" fill="white"/>
<path d="M102.903 16.4603H101.518C101.403 16.3804 101.383 16.2489 101.335 16.1363C100.825 14.9236 100.318 13.7091 99.8089 12.4947C99.7556 12.3683 99.6998 12.2437 99.6482 12.1251C99.5219 12.0477 99.3929 12.0787 99.27 12.0787C97.6319 12.0761 95.9937 12.077 94.3555 12.077H91.331C91.2055 12.077 91.0809 12.077 90.9374 12.077C90.8858 12.187 90.8351 12.2867 90.7921 12.3898C90.2687 13.6352 89.747 14.8806 89.2244 16.126C89.1806 16.2308 89.1325 16.334 89.0895 16.4302C88.7998 16.4835 87.9713 16.4852 87.6799 16.4337C87.6834 16.4019 87.6782 16.3658 87.6902 16.3365C90.0194 10.9605 92.3495 5.58444 94.6744 0.220421C94.9907 0.177447 95.723 0.178307 96.016 0.22214C98.2868 5.56209 100.563 10.9115 102.837 16.2618C102.858 16.3125 102.872 16.3666 102.903 16.4603ZM91.4049 10.8823C91.5949 10.8849 91.7186 10.8874 91.8424 10.8874C94.1312 10.8874 96.4208 10.8874 98.7096 10.8874C98.7896 10.8874 98.8704 10.8909 98.9503 10.8849C99.0019 10.8814 99.0534 10.8642 99.1102 10.8531C99.099 10.7963 99.0981 10.762 99.0861 10.7319C97.8424 7.72025 96.597 4.70949 95.3517 1.69787C95.3474 1.68841 95.337 1.67982 95.3276 1.6738C95.3207 1.66951 95.3104 1.66951 95.2743 1.66263C93.9945 4.71121 92.7096 7.76322 91.4049 10.8823Z" fill="white"/>
<path d="M56.2375 0.210903C56.7111 0.169648 58.3819 0.179962 58.6475 0.226374C58.6561 0.275364 58.6724 0.329512 58.675 0.384518C58.7136 1.2079 58.6853 16.144 58.644 16.4345C58.6105 16.4439 58.5692 16.4663 58.528 16.4663C57.7949 16.4671 57.0626 16.4663 56.3294 16.4645C56.308 16.4645 56.2873 16.4525 56.2418 16.4379C56.2323 16.3855 56.2151 16.3219 56.2108 16.2574C56.2048 16.1663 56.2083 16.0743 56.2083 15.9824C56.2083 10.8771 56.2083 5.77174 56.2083 0.667288C56.2083 0.521176 56.1911 0.372486 56.2366 0.211763L56.2375 0.210903Z" fill="white"/>
<path d="M129.503 10.8068C129.493 10.0616 129.611 9.3285 129.89 8.62974C130.59 6.87124 131.882 5.78314 133.716 5.3534C134.818 5.0947 135.927 5.12564 137.007 5.47545C138.986 6.11576 140.193 7.47632 140.65 9.49352C140.906 10.622 140.846 11.7488 140.46 12.8446C139.885 14.4828 138.772 15.6001 137.13 16.1639C135.881 16.5928 134.605 16.6178 133.345 16.2258C131.376 15.613 130.166 14.2662 129.661 12.2782C129.539 11.7986 129.494 11.3087 129.503 10.8068ZM130.783 10.8446C130.792 11.356 130.853 11.913 131.035 12.4493C131.481 13.7703 132.338 14.6934 133.676 15.1351C134.348 15.3578 135.041 15.4145 135.746 15.3191C137.448 15.0905 138.619 14.1803 139.207 12.5696C139.633 11.3998 139.619 10.2043 139.19 9.03456C138.72 7.75135 137.828 6.88413 136.511 6.47416C135.946 6.29797 135.364 6.24984 134.778 6.29625C133.13 6.42517 131.933 7.22191 131.223 8.72428C130.914 9.37749 130.8 10.0754 130.782 10.8446H130.783Z" fill="white"/>
<path d="M142.061 14.4562C142.375 14.2301 142.68 14.011 143.004 13.778C143.064 13.8442 143.119 13.8966 143.165 13.9559C143.734 14.6951 144.477 15.1575 145.388 15.3423C146.028 15.4721 146.664 15.4351 147.288 15.2374C147.519 15.1644 147.738 15.0647 147.936 14.9246C148.603 14.4519 148.835 13.7978 148.721 13.0054C148.67 12.6487 148.483 12.3659 148.211 12.1364C147.999 11.9577 147.758 11.8296 147.503 11.7213C147.091 11.546 146.659 11.4325 146.229 11.313C145.743 11.179 145.257 11.0466 144.777 10.8979C144.382 10.775 144.006 10.6066 143.659 10.3788C143.152 10.047 142.788 9.60611 142.628 9.01307C142.462 8.3994 142.48 7.78831 142.688 7.18754C142.878 6.63833 143.231 6.21203 143.708 5.88542C144.16 5.57601 144.664 5.39294 145.197 5.2941C146.022 5.14111 146.84 5.17205 147.645 5.41271C148.458 5.65594 149.142 6.0917 149.643 6.79132C149.676 6.83773 149.706 6.88672 149.734 6.93571C149.746 6.95462 149.747 6.97954 149.753 7.00103C149.593 7.17722 149.203 7.46515 148.834 7.6783C148.794 7.63275 148.749 7.58634 148.71 7.53477C147.949 6.50339 146.913 6.13639 145.667 6.27563C145.311 6.31516 144.972 6.41572 144.656 6.58504C144.369 6.73889 144.126 6.9443 143.955 7.22707C143.47 8.02897 143.725 9.04917 144.532 9.52532C144.86 9.71871 145.217 9.84505 145.582 9.94131C146.047 10.0642 146.517 10.1682 146.982 10.2894C147.481 10.4192 147.971 10.5799 148.427 10.8257C148.628 10.934 148.826 11.0526 149.009 11.1884C149.625 11.6474 149.955 12.2688 149.995 13.0329C150.064 14.378 149.465 15.4334 148.266 16.0161C147.754 16.2654 147.21 16.3995 146.649 16.4493C145.673 16.5361 144.729 16.4037 143.834 15.9895C143.167 15.6809 142.608 15.2357 142.164 14.6478C142.144 14.6203 142.123 14.5928 142.105 14.5636C142.094 14.5447 142.088 14.5223 142.061 14.4544V14.4562Z" fill="white"/>
<path d="M104.745 6.2703C104.382 6.22647 104.017 6.25569 103.653 6.24968C103.3 6.24366 102.947 6.25483 102.577 6.2428C102.514 5.89643 102.546 5.57069 102.551 5.22861C102.648 5.21658 102.724 5.19939 102.801 5.19939C103.328 5.19681 103.855 5.19939 104.382 5.19767C104.495 5.19767 104.607 5.18994 104.725 5.18564C104.791 5.05414 104.767 4.92694 104.768 4.80489C104.77 3.40737 104.769 2.00986 104.769 0.612343C104.769 0.487718 104.769 0.363093 104.769 0.229874C104.984 0.142207 105.191 0.192057 105.392 0.183462C105.585 0.174867 105.779 0.181743 105.952 0.181743C106.056 0.289178 106.028 0.397473 106.028 0.496313C106.031 1.06873 106.03 1.642 106.03 2.21441C106.03 3.0739 106.029 3.93252 106.031 4.792C106.031 4.9149 106.005 5.04383 106.08 5.1822C106.172 5.18736 106.271 5.19853 106.372 5.19939C107.151 5.20111 107.93 5.19939 108.71 5.20111C108.822 5.20111 108.935 5.20799 109.065 5.21228C109.12 5.5535 109.095 5.87924 109.083 6.19983C108.96 6.27718 108.843 6.24968 108.732 6.25054C107.964 6.25311 107.196 6.2514 106.429 6.25226C106.315 6.25226 106.202 6.25569 106.072 6.25741C106.056 6.35024 106.033 6.42587 106.032 6.50236C106.028 6.81178 106.031 7.12119 106.031 7.4306C106.031 9.33178 106.029 11.2338 106.032 13.135C106.032 13.3868 106.048 13.6386 106.068 13.8896C106.08 14.0254 106.106 14.1621 106.141 14.2944C106.318 14.9562 106.754 15.3181 107.441 15.3774C107.869 15.4143 108.288 15.3662 108.696 15.233C108.794 15.2012 108.89 15.1651 109.005 15.1238C109.091 15.2966 109.077 15.4796 109.088 15.6558C109.097 15.8252 109.09 15.9962 109.09 16.181C108.977 16.2179 108.871 16.2583 108.762 16.2884C108.125 16.4637 107.482 16.5316 106.825 16.4242C105.885 16.2704 105.034 15.6851 104.843 14.3554C104.802 14.0735 104.79 13.7847 104.79 13.4994C104.785 11.2312 104.788 8.96306 104.786 6.69489C104.786 6.56081 104.809 6.42157 104.747 6.2746L104.745 6.2703Z" fill="white"/>
</g>
<defs>
<clipPath id="clip0_1281_348">
<rect width="150" height="21.1862" fill="white" transform="translate(0 0.175781)"/>
</clipPath>
</defs>
</svg>
