<svg width="150" height="69" viewBox="0 0 150 69" fill="none" xmlns="http://www.w3.org/2000/svg">
<g clip-path="url(#clip0_1281_338)">
<path d="M99.9238 24.8286C98.4066 25.5062 97.1585 26.0868 95.8902 26.6229C94.1485 27.3592 92.7567 27.0477 91.5875 25.5548C91.0555 24.8771 90.6084 24.774 89.8135 25.0956C88.0131 25.8259 86.1055 26.3093 84.3456 27.1185C82.5574 27.9418 80.7469 28.848 79.2136 30.0577C77.2008 31.6457 74.8887 32.5074 72.5907 33.444C71.6946 33.8101 70.2907 33.0435 69.874 32.1453C69.5099 31.3584 69.8052 30.6342 70.6993 29.904C70.9239 29.7199 71.025 29.376 71.1606 29.0948C71.4336 28.5284 71.6157 27.9033 71.9697 27.3956C72.7364 26.3012 73.5698 25.2493 74.4133 24.2096C75.0647 23.4085 75.7302 22.6135 76.4625 21.8914C78.0646 20.3095 79.5676 18.6791 80.9047 16.8362C83.2351 13.6239 85.8203 10.5916 88.359 7.53505C89.8782 5.70638 91.278 3.85342 91.9051 1.49678C92.3097 -0.0223974 92.8457 -0.145793 94.1161 0.811026C95.9063 2.16028 96.1289 3.40839 94.7796 5.17841C93.8632 6.38201 92.8255 7.49257 91.8606 8.65977C89.7993 11.1499 87.6085 13.5511 85.7475 16.1828C84.5904 17.8214 83.8278 19.7876 82.2236 21.06C80.0268 22.8037 78.3701 24.9803 76.685 27.169C76.1753 27.8325 75.3722 28.2735 74.7855 28.9836C75.3681 28.6923 75.9871 28.4596 76.5232 28.0996C78.1132 27.0315 79.6 25.7935 81.2608 24.8569C82.6141 24.0943 84.1595 23.6715 85.62 23.097C86.6133 22.7046 87.5944 22.2717 88.6038 21.9318C89.0407 21.7842 89.6051 21.6648 89.9975 21.8186C90.5235 22.0249 90.7177 21.95 91.0332 21.5111C92.1458 19.9514 93.307 18.4262 94.4742 16.907C95.2752 15.8652 96.6852 15.7034 97.5874 16.5065C98.9811 17.7485 99.0944 18.7721 97.8888 19.913C97.1565 20.6069 96.3251 21.1935 95.5746 21.8671C95.348 22.0714 95.2388 22.4072 95.077 22.6843C95.3561 22.656 95.6535 22.6843 95.9104 22.5933C97.6278 21.9945 99.3553 21.416 101.038 20.7302C101.593 20.5037 102.125 20.0566 102.499 19.5792C104.305 17.2752 106.019 14.9003 107.837 12.6064C109.037 11.0953 110.785 10.6584 112.617 10.5775C113.352 10.5451 114.098 10.6402 114.828 10.7494C117.83 11.1985 118.478 14.0527 117.687 16.1363C117.221 17.3601 116.06 17.8982 114.853 18.1915C114.31 18.323 113.896 18.4424 113.861 19.0877C113.853 19.2455 113.764 19.4093 113.681 19.555C112.947 20.8435 109.439 22.5104 107.967 22.2292C107.594 22.1584 107.111 21.9864 106.933 21.7012C106.458 20.9386 106.276 21.412 106.013 21.8186C102.891 26.6512 99.7599 31.4778 96.6548 36.3185C96.1835 37.0528 95.8214 37.8559 95.4107 38.6286C94.9516 39.4904 94.3103 39.9475 93.2726 39.7311C92.9772 39.6704 92.605 39.7513 92.3279 39.8868C91.6138 40.2388 91.2598 39.903 91.2011 39.2658C91.1546 38.752 91.1769 38.1411 91.4135 37.7082C91.9921 36.6523 92.6151 35.5903 93.3939 34.68C95.2914 32.4629 96.9097 30.0901 98.1639 27.4482C98.5725 26.5844 99.2299 25.84 99.9197 24.8245L99.9238 24.8286ZM109.929 16.6724C110.002 16.7917 110.075 16.9131 110.149 17.0324C111.116 16.3224 112.767 16.7068 113.174 15.0986C113.117 15.0055 113.06 14.9125 113.004 14.8194C111.978 15.4364 110.954 16.0534 109.929 16.6724Z" fill="white"/>
<path d="M32.0039 35.9483C33.1812 34.8803 34.2371 33.9639 35.2364 32.9909C35.5884 32.649 35.8393 32.1858 36.0719 31.7448C36.4825 30.962 37.1137 30.4158 37.9714 30.4482C38.6227 30.4724 39.3793 30.6828 39.8729 31.0793C40.4514 31.5445 40.0913 32.2627 39.7919 32.8432C39.2215 33.9497 38.6268 35.0441 38.0685 36.1587C37.9734 36.3489 38.0098 36.6038 37.9875 36.8303C38.202 36.7878 38.4427 36.7959 38.6288 36.6988C41.1554 35.3819 43.5767 33.97 44.8269 31.1764C45.1849 30.3753 45.8545 29.6795 46.4897 29.0443C47.7742 27.7577 49.1497 26.5622 50.4585 25.2979C51.8644 23.9406 53.1874 23.9042 54.5326 25.302C54.9453 25.7308 55.1698 25.8016 55.6472 25.3566C56.7416 24.329 57.5871 24.3856 58.72 25.4314C59.6141 26.2568 59.6808 27.1913 58.8959 28.3181C58.5156 28.8642 58.0929 29.3841 57.5993 30.0335C59.9903 29.1919 62.2135 28.3605 64.473 27.6364C65.7191 27.2379 67.0137 26.9708 68.3063 26.7605C68.6887 26.6977 69.3137 26.9203 69.5019 27.2176C69.688 27.5109 69.6172 28.2048 69.3785 28.4738C68.8829 29.0342 68.2598 29.5662 67.5822 29.8676C66.0448 30.5493 64.4609 31.1339 62.8648 31.6659C60.7084 32.382 58.6451 33.2357 56.8407 34.6679C56.2824 35.1109 55.5602 35.4204 54.8623 35.6004C53.7983 35.8755 52.8233 35.5559 52.2124 34.5971C51.7168 33.8183 51.3041 33.8992 50.7417 34.4959C50.4464 34.8095 50.0702 35.0563 49.7 35.2869C48.8261 35.831 47.9603 36.1891 46.87 35.7137C46.0689 35.3637 45.2537 35.5599 44.5538 36.2235C43.7972 36.9416 42.8768 37.4918 42.1587 38.2382C40.8661 39.5814 39.2518 40.2753 37.5364 40.8174C35.9161 41.3272 35.3072 41.1431 34.3484 39.7554C33.9115 39.1222 33.6566 38.928 33.0355 39.6401C32.2487 40.5403 31.3424 41.3696 30.3694 42.0635C29.0525 43.0021 27.8368 42.8079 26.8496 41.5274C26.3661 40.9003 26.0688 40.9691 25.6541 41.4708C25.0998 42.1444 24.5395 42.814 24.0216 43.5159C23.2226 44.6002 22.4843 45.7289 21.669 46.799C21.1633 47.4645 20.4492 47.6203 19.6785 47.2724C18.8937 46.9184 18.6752 46.2023 18.9442 45.4963C19.3468 44.4444 19.7554 43.3136 20.4654 42.4721C22.6117 39.9273 24.9542 37.5484 27.1186 35.0178C28.2029 33.7515 29.1294 32.3335 30.0134 30.9154C30.685 29.8372 31.6256 29.4832 32.8312 30.0901C33.8609 30.61 34.3565 31.9309 33.8224 32.914C33.2864 33.9032 32.6735 34.8479 32.01 35.9504L32.0039 35.9483ZM53.9075 28.1947C53.77 27.9883 53.6688 27.7415 53.598 27.7496C53.2501 27.7941 52.8111 27.7982 52.5846 28.0086C51.4032 29.105 50.2623 30.2479 49.1477 31.411C48.9717 31.5931 49.0021 31.9734 48.9373 32.2606C49.2731 32.2202 49.704 32.2991 49.9286 32.119C51.031 31.2371 52.0971 30.3106 53.1308 29.3497C53.4585 29.0443 53.6486 28.5912 53.9075 28.1926V28.1947Z" fill="white"/>
<path d="M26.3399 26.5926C26.1882 28.7368 25.3365 30.2722 24.4303 31.8298C23.2024 33.9416 22.1303 36.1425 20.9955 38.307C20.6839 38.8997 20.4675 39.5592 20.071 40.0851C17.2167 43.882 14.2896 47.6243 11.4657 51.4435C10.3673 52.9283 9.37608 54.5122 8.49613 56.1386C6.59058 59.6604 4.78821 63.2389 2.94335 66.7951C2.74106 67.1835 2.56912 67.5941 2.32435 67.9522C1.96832 68.47 1.62241 69.1214 0.833491 68.8787C0.186172 68.6784 -0.198174 67.578 0.105257 66.8052C0.633227 65.458 1.14299 64.0946 1.79436 62.806C3.36006 59.7211 5.00061 56.6727 6.6189 53.6141C7.14283 52.6229 7.59595 51.6296 7.53324 50.4584C7.5029 49.8879 7.73958 49.4753 8.38689 49.2609C8.86227 49.1051 9.34776 48.7511 9.65726 48.3526C11.9087 45.4579 14.2229 42.6016 16.2903 39.5794C17.2511 38.1735 17.7002 36.4197 18.4001 34.8337C18.6004 34.3786 18.8108 33.9093 19.1101 33.5209C20.87 31.2472 21.9685 28.6377 22.8545 25.9473C23.0325 25.4051 22.7412 24.4989 22.3407 24.0498C22.0615 23.7363 21.1168 23.6877 20.6657 23.9143C19.2032 24.6486 17.8317 25.5609 16.4278 26.4105C16.3145 26.4793 16.2255 26.5885 16.1183 26.6694C14.6254 27.7982 13.1568 28.9593 11.6235 30.0274C11.2027 30.3207 10.5777 30.4805 10.0659 30.4441C9.43677 30.3996 9.14952 30.5958 8.9007 31.1258C8.46781 32.0482 7.88118 32.3193 7.16306 32.0199C6.43078 31.7124 6.1233 30.9579 6.45101 30.0719C6.59665 29.6754 6.83535 29.2708 7.13878 28.9856C8.63369 27.5817 10.1205 26.1617 11.7004 24.8569C12.6471 24.0741 13.7374 23.4531 14.8034 22.828C15.8452 22.2171 16.9699 21.7457 18.0036 21.1227C19.4277 20.265 20.9368 19.7755 22.5996 19.7977C24.0884 19.818 25.1201 20.5583 25.466 22.0188C25.8463 23.6189 26.085 25.2534 26.3358 26.5966L26.3399 26.5926Z" fill="white"/>
<path d="M136.075 15.7297C135.284 15.9765 134.501 16.2657 133.698 16.4599C132.531 16.7431 131.347 17.1335 130.168 17.1396C129.339 17.1437 128.442 16.6905 127.696 16.2415C127.225 15.9603 126.954 15.9077 126.569 16.2374C125.932 16.7856 125.333 17.3945 124.637 17.8577C122.651 19.1766 120.225 18.4767 119.168 16.3547C118.828 15.6751 118.807 14.9933 119.319 14.4694C120.984 12.7621 122.643 11.0427 124.425 9.46281C125.37 8.62737 126.664 8.75683 127.656 9.41831C128.641 10.0757 129.183 10.0029 129.794 9.00969C130.192 8.36439 130.89 8.10951 131.655 8.4534C132.403 8.79122 132.812 9.36774 132.715 10.2173C132.672 10.5835 132.593 10.9476 132.512 11.3077C132.393 11.8437 132.26 12.3757 132.132 12.9098C132.595 12.7439 133.051 12.4728 133.526 12.4324C134.659 12.3353 135.806 12.396 136.938 12.3029C137.907 12.224 138.866 12.0278 139.827 11.868C142.147 11.4816 144.47 11.0973 146.788 10.6867C147.516 10.5572 148.224 10.2841 148.954 10.2093C149.284 10.1749 149.776 10.3832 149.956 10.6442C150.087 10.8384 149.913 11.3481 149.731 11.6232C149.517 11.9469 149.185 12.2443 148.837 12.4243C146.268 13.7533 143.654 14.9792 140.741 15.3635C139.206 15.5658 137.671 15.7539 136.135 15.9502C136.115 15.8753 136.097 15.8005 136.077 15.7256L136.075 15.7297Z" fill="white"/>
<path d="M2.0957 50.3977C2.2454 48.9574 3.15569 47.6162 3.98911 46.2306C4.53933 45.3162 4.97425 44.3331 5.48806 43.3965C6.09897 42.2839 6.74022 41.1855 7.36933 40.083C7.76581 39.3872 8.26344 38.7318 8.54664 37.9934C9.13934 36.454 9.59854 34.864 10.1548 33.3105C10.3935 32.6429 10.699 31.939 11.5809 31.9491C12.4447 31.9572 12.7299 32.6692 13.0435 33.3044C13.8708 34.9915 13.5897 36.5713 12.738 38.1957C11.7711 40.0365 10.9984 41.9765 10.0901 43.8496C9.55201 44.9602 8.88446 46.0101 8.32817 47.1125C7.59994 48.5528 6.9506 50.0336 6.20618 51.4658C5.95332 51.9492 5.60134 52.4934 5.14619 52.7402C3.34988 53.7233 2.11998 52.8413 2.09773 50.3977H2.0957Z" fill="white"/>
<path d="M99.6224 8.0954C99.6224 7.20938 100.682 5.68616 101.536 5.50005C101.928 5.41307 102.436 5.44948 102.786 5.63356C104.445 6.49935 104.801 9.14729 103.423 10.3934C103.112 10.6766 102.592 10.8829 102.175 10.8688C100.915 10.8303 99.6244 9.36374 99.6204 8.0954H99.6224Z" fill="white"/>
<path d="M72.1176 26.0423C71.3469 25.8481 70.7117 25.1178 70.8695 24.4948C70.9483 24.1853 71.3934 23.809 71.7211 23.7564C72.3583 23.6533 73.1209 24.3613 72.9672 24.9075C72.8478 25.3323 72.4129 25.6681 72.1176 26.0423Z" fill="white"/>
</g>
<defs>
<clipPath id="clip0_1281_338">
<rect width="150" height="68.7271" fill="white" transform="translate(0 0.202148)"/>
</clipPath>
</defs>
</svg>
