<svg width="150" height="17" viewBox="0 0 150 17" fill="none" xmlns="http://www.w3.org/2000/svg">
<g clip-path="url(#clip0_1281_442)">
<path d="M12.1962 1.64556V2.44298C12.3541 2.15373 12.3182 1.93878 12.2479 1.68669C12.3275 1.70526 12.4018 1.69863 12.4324 1.73313C12.5796 1.89367 12.7163 2.06616 12.8556 2.23467C12.8875 2.27447 12.9113 2.32091 12.9458 2.35806C13.1794 2.61016 13.1595 2.69375 13.1847 3.05199C13.2152 3.48453 13.056 3.72601 12.6898 3.80297C12.6274 4.09089 12.5571 4.33237 12.5292 4.57916C12.5199 4.66806 12.5956 4.78482 12.6659 4.85779C12.7189 4.91352 12.8238 4.92016 12.9286 4.95598C12.8344 5.2041 12.8331 5.47211 12.5584 5.63266C12.7601 6.05459 12.4801 6.32526 12.2294 6.59593C12.0409 6.79894 11.5912 6.79761 11.4412 6.58134C11.3536 6.45529 11.3444 6.27617 11.2913 6.08909C11.2143 6.06255 11.1082 6.02673 11.002 5.98825C10.6783 5.87414 10.5867 5.69635 10.6796 5.36995C10.6863 5.34607 10.6929 5.3182 10.7075 5.29963C10.9782 4.94271 10.8229 4.64285 10.5934 4.34166C10.462 4.1705 10.3652 3.97148 10.2298 3.8043C10.1224 3.67029 9.97641 3.5668 9.85434 3.4434C9.75217 3.33858 9.63807 3.23509 9.56907 3.10904C9.39924 2.79857 9.10866 2.62077 8.78359 2.74284C8.46383 2.86225 8.10293 2.78928 7.80042 2.99626C7.73408 3.04137 7.54567 2.93788 7.42891 2.87552C7.18742 2.74549 7.04811 2.77734 6.97115 3.03607C6.93002 3.17804 6.93931 3.3346 6.93135 3.48586C6.92604 3.57874 6.93135 3.67294 6.93135 3.83216C6.81326 3.72601 6.74559 3.66498 6.65404 3.58272C6.39664 3.93035 5.9495 3.61589 5.62841 3.87197C5.64035 3.95423 5.64831 4.04047 5.6629 4.12406C5.71996 4.44913 5.67086 4.72644 5.36835 4.92546C5.09104 5.10724 5.17994 5.427 5.0791 5.70829C5.3312 5.81709 5.55941 5.91527 5.81284 6.02407C5.77568 6.07449 5.74517 6.15808 5.70669 6.16206C5.52359 6.17931 5.44 6.32261 5.31262 6.41681C5.1879 6.50969 5.17596 6.61716 5.15606 6.74056C5.12952 6.91172 5.10033 7.08155 5.06849 7.27659C5.28609 7.37345 5.52491 7.29384 5.75976 7.29252C5.98798 7.29119 6.21619 7.29252 6.47625 7.29252C6.71906 6.9356 7.05474 6.6092 7.17681 6.14747C7.18875 6.0997 7.21131 6.02938 7.2458 6.01744C7.53107 5.91129 7.6067 5.64327 7.73142 5.41241C7.86543 5.16429 8.10426 5.09928 8.35105 5.11785C8.66816 5.14174 8.97465 5.22931 9.244 5.427C9.22012 5.54111 9.18297 5.64725 9.17633 5.75473C9.15908 6.03203 9.2042 6.08245 9.47752 6.18329C9.5704 6.21779 9.65532 6.27617 9.76544 6.33588C9.82648 6.25494 9.89149 6.17002 9.95252 6.08909C10.2002 6.18196 10.3391 6.31199 10.3691 6.47917H9.71237C9.6447 6.76046 9.56907 7.00725 9.52927 7.26067C9.45364 7.73435 9.53192 7.87101 9.991 8.12443C9.93262 8.34601 9.87291 8.57423 9.81453 8.80111C9.70308 8.81836 9.62878 8.82632 9.55448 8.84092C9.24931 8.90062 9.17102 8.9882 9.20287 9.30796C9.26656 9.93289 9.05957 10.518 8.95873 11.1177C8.92954 11.2929 8.7743 11.3552 8.62039 11.3844C8.47179 11.4123 8.34176 11.3765 8.28338 11.2093C8.26746 11.1615 8.24888 11.0992 8.21173 11.0779C7.81236 10.8471 7.73407 10.4477 7.65314 10.0457C7.64385 9.99658 7.62793 9.93422 7.59343 9.90901C7.3347 9.72326 7.19008 9.4632 7.07199 9.17793C7.05209 9.13017 6.97911 9.0824 6.92471 9.07311C6.64475 9.028 6.34622 8.99881 6.118 9.18589C5.96807 9.30929 5.83406 9.33317 5.66688 9.30398C5.51297 9.27612 5.40683 9.32123 5.31395 9.45922C5.23965 9.57067 5.11758 9.65293 5.00878 9.73785C4.7474 9.94085 4.68902 10.1518 4.86946 10.4278C4.97826 10.5963 5.13748 10.7316 5.27282 10.8829C5.30466 10.9187 5.33253 10.9599 5.371 11.0103C5.30466 11.0541 5.25424 11.0886 5.2025 11.1217C4.90617 11.3048 4.74474 11.5596 4.71821 11.886C4.69698 12.1527 4.81904 12.288 5.08972 12.2933C5.17861 12.2946 5.26884 12.2721 5.35641 12.2814C5.57401 12.3053 5.68811 12.5573 5.53288 12.7033C5.32058 12.905 5.07645 13.0748 4.83497 13.2659V13.8351C5.06716 13.8762 5.28874 13.9227 5.51297 13.9518C5.72526 13.9797 5.91235 14.0169 5.95481 14.2796C5.96409 14.3419 6.04636 14.3923 6.10739 14.4627C6.18302 14.4282 6.25599 14.4069 6.31437 14.3671C6.53728 14.2119 6.75621 14.1641 7.03219 14.2557C7.17946 14.3048 7.39706 14.2716 7.53638 14.1933C7.81236 14.0368 8.08701 14.0076 8.38289 14.0726C8.65489 14.1323 8.90433 14.1243 9.14449 13.9505C9.22542 13.8921 9.35943 13.8961 9.46956 13.8961C9.70573 13.8961 9.87822 13.8139 10.0122 13.6082C10.1502 13.3972 10.3108 13.1995 10.4806 13.0124C10.6836 12.7895 10.8017 12.5587 10.6836 12.2522C10.6358 12.1275 10.6319 12.0014 10.7539 11.9059C11.0166 11.7002 11.0498 11.4057 11.0909 11.1032C11.1493 10.6865 11.3483 10.3177 11.562 9.96341C11.5885 9.9183 11.765 9.90768 11.8247 9.94881C12.0423 10.1027 12.2439 10.2805 12.443 10.4583C12.4841 10.4955 12.5093 10.5684 12.512 10.6268C12.5305 10.9705 12.5518 11.3141 12.5478 11.6578C12.5478 11.7759 12.4775 11.8939 12.4297 12.0425C12.512 12.1606 12.6128 12.3039 12.7123 12.4459C12.6911 12.4937 12.6845 12.5348 12.6606 12.5613C12.3382 12.9169 12.5345 13.2592 12.6845 13.6029C12.7176 13.6798 12.7694 13.7541 12.78 13.8351C12.8224 14.1602 12.8503 14.4879 12.8888 14.8488C12.707 14.931 12.6035 15.1128 12.5544 15.3503C12.5358 15.4432 12.4363 15.5626 12.3488 15.5905C11.891 15.7391 11.4253 15.8664 10.9596 15.9912C10.8641 16.0164 10.7553 16.0111 10.6544 15.9978C10.2338 15.9447 9.82382 15.8439 9.3926 16.0177C9.23339 16.0814 9.00252 15.9421 8.80747 15.954C8.62437 15.9646 8.44525 16.0947 8.26348 16.0986C7.94769 16.1039 7.62926 16.0549 7.31347 16.023C7.04413 15.9951 6.78009 15.9912 6.52932 16.1212C6.34622 16.2167 6.15914 16.1928 5.97338 16.1225C5.74119 16.035 5.50899 16.0217 5.26088 16.0668C4.73944 16.161 4.22065 16.0854 3.70319 16.0018C3.58112 15.9819 3.44711 15.9752 3.33035 16.0071C2.58467 16.2074 1.84431 16.1265 1.09996 15.9978C0.7656 15.9394 0.566577 15.6714 0.286617 15.5321C0.229564 15.5042 0.2017 15.3516 0.213642 15.2641C0.237525 15.0903 0.297232 14.9217 0.346324 14.7373C0.668742 14.6882 0.963297 14.6405 1.28837 14.7453C1.56833 14.8355 1.88942 14.8793 2.15876 14.6405C2.21714 14.5887 2.32594 14.5741 2.41086 14.5768C2.75583 14.5861 3.01987 14.3658 3.31973 14.253C3.38873 14.2265 3.44313 14.0633 3.44048 13.9638C3.43517 13.7873 3.39006 13.6108 3.34627 13.4384C3.27595 13.1571 3.2786 12.8824 3.40598 12.6184C3.55856 12.2986 3.5851 11.9895 3.38475 11.6737C3.27064 11.4946 3.28391 11.2955 3.32504 11.0846C3.402 10.6892 3.5108 10.2885 3.31045 9.88778C3.2733 9.81215 3.29452 9.68212 3.33433 9.59853C3.5108 9.22835 3.46834 8.88338 3.34362 8.49727C3.24543 8.19476 3.30647 7.84315 3.28391 7.51409C3.25207 7.0643 3.26666 6.60655 3.10346 6.17666C3.04508 6.02275 3.02783 5.88078 3.11673 5.73881C3.20563 5.59684 3.20828 5.45752 3.13929 5.30361C3.10346 5.22532 3.09019 5.12979 3.09285 5.04355C3.10479 4.66939 3.01191 4.30186 3.06498 3.9184C3.11408 3.56414 2.8726 3.26959 2.68021 2.98697C2.63775 2.92461 2.49843 2.90737 2.4029 2.90737C2.18663 2.90737 1.97036 2.94717 1.75541 2.94186C1.62405 2.93921 1.45953 2.92063 1.37063 2.84235C1.20345 2.69507 1.03229 2.6964 0.837249 2.71763C0.337036 2.7707 0.0729987 2.56106 0.00533068 2.06483C-0.0278399 1.82468 0.111477 1.56595 0.359592 1.49961C0.563923 1.44388 0.785503 1.4399 0.999121 1.43061C1.26581 1.41867 1.5325 1.42663 1.80052 1.42265C1.86288 1.42265 1.94382 1.42663 1.98628 1.39213C2.47322 0.986125 3.05304 1.18249 3.58643 1.17321C4.14369 1.16259 4.70361 1.27803 5.23832 1.02062C5.29139 0.995413 5.36702 0.994086 5.4254 1.00735C5.63504 1.05645 5.82478 1.02593 6.01319 0.922438C6.21752 0.810984 6.44175 0.834867 6.64608 0.911823C6.91675 1.01266 7.16752 1.01001 7.4581 0.96755C8.12151 0.870691 8.79686 0.856096 9.46823 0.810984C9.60755 0.801697 9.74819 0.805677 9.88884 0.796389C10.0733 0.785775 10.2258 0.822926 10.3771 0.952954C10.4925 1.05379 10.6624 1.10156 10.8163 1.14269C10.9622 1.18249 11.1201 1.17453 11.2701 1.20372C11.5288 1.25414 11.8048 1.26741 11.9706 1.53145C12.0038 1.58452 12.0993 1.59912 12.1975 1.64688L12.1962 1.64556Z" fill="white"/>
<path d="M48.3785 12.0942C48.4966 12.2176 48.628 12.3556 48.7845 12.5188C48.6359 12.5984 48.5391 12.6502 48.4502 12.6966C48.3759 13.0708 48.7023 12.9262 48.8522 13.019C48.9557 13.2446 48.7991 13.364 48.6545 13.4874C48.5722 13.5577 48.4979 13.6413 48.4051 13.6917C48.1105 13.8549 47.9473 14.115 47.8093 14.4069C47.7761 14.4785 47.678 14.5688 47.6116 14.5661C47.3317 14.5568 47.1618 14.7811 46.9164 14.8567C46.8766 15.2428 46.6457 15.4193 46.2768 15.5042C46.0035 15.5665 45.7275 15.6342 45.5099 15.8836C45.3865 16.0256 45.1052 16.0575 44.889 16.0827C44.5997 16.1158 44.3012 16.0668 44.0119 16.1026C43.4533 16.1729 42.9213 16.0177 42.3853 15.9354C42.1053 15.8929 41.8532 15.682 41.5785 15.5692C41.4193 15.5042 41.2415 15.479 41.0704 15.4431C40.8077 15.3874 40.5105 15.4723 40.2982 15.2123C40.2517 15.1552 40.1071 15.1765 39.9996 15.1592C39.9386 15.2375 39.8855 15.3078 39.8311 15.3755C39.4079 15.9009 38.8413 15.877 38.4154 15.3503C38.2787 15.1818 38.0532 15.0876 37.9006 14.9827C37.8382 14.594 37.7785 14.2225 37.7188 13.851C37.7135 13.8138 37.6896 13.7647 37.7056 13.7435C37.8794 13.4967 37.8833 13.2101 37.9019 12.9262C37.9072 12.8386 37.9696 12.7311 37.9364 12.6688C37.7334 12.2853 37.9656 11.8594 37.8037 11.4746C37.756 11.3632 37.7361 11.2358 37.7215 11.1137C37.6923 10.863 37.6591 10.6109 37.6604 10.3588C37.6604 10.1624 37.809 10.0456 37.9776 9.96204C38.2137 9.84528 38.4459 9.71657 38.6874 9.61308C38.7736 9.57593 38.8944 9.56797 38.982 9.59981C39.2447 9.69269 39.5021 9.80149 39.7542 9.92223C39.9784 10.0297 40.1907 10.1624 40.46 10.3123C40.4149 10.4822 40.3579 10.6998 40.2862 10.9731C40.4773 11.0129 40.6299 11.062 40.7864 11.0752C41.0279 11.0951 41.1805 11.2252 41.1181 11.4574C41.0624 11.667 41.138 11.797 41.2548 11.9377C41.3026 11.9961 41.3702 12.0677 41.3689 12.1314C41.3609 12.4551 41.5918 12.4989 41.8227 12.5347C42.1133 12.5799 42.3547 12.6674 42.4688 12.9806C42.5684 13.2539 42.8178 13.1013 43.0367 13.1318C43.2012 13.3003 43.3857 13.4967 43.6948 13.4476C43.8686 13.4211 43.9947 13.3786 44.0703 13.1929C44.1725 12.9434 44.2096 12.9408 44.479 13.0124C44.5281 13.0257 44.5772 13.0389 44.6263 13.0522C45.1185 13.1836 45.2857 13.0442 45.2393 12.5387C45.2034 12.146 45.218 12.1261 45.6015 12.0186C45.6758 11.7639 45.7992 11.5144 45.8098 11.261C45.8204 10.989 45.7222 10.7143 45.6731 10.4397C45.5962 10.0178 45.5099 9.61176 45.0349 9.426C44.9288 9.38487 44.873 9.20973 44.8253 9.14073C44.5281 8.98417 44.272 8.84751 44.0159 8.71217C43.9509 8.67767 43.8899 8.62593 43.8209 8.61133C43.6126 8.56755 43.4003 8.54101 43.1906 8.50386C42.7316 8.42292 42.2725 8.33801 41.8121 8.25707C41.7126 8.23982 41.6051 8.25442 41.5109 8.22655C41.1832 8.12704 40.874 7.97446 40.5396 7.89485C40.2079 7.50343 39.7661 7.26063 39.3375 6.99791C39.2447 6.94086 39.1956 6.81879 39.112 6.74184C39.0125 6.65161 38.9077 6.55874 38.7882 6.50168C38.6158 6.42075 38.5587 6.27612 38.5043 6.1169C38.4632 5.99749 38.4459 5.84623 38.361 5.77193C38.162 5.59546 38.1646 5.42165 38.2495 5.19344C38.3132 5.02095 38.3185 4.82591 38.3544 4.61229C38.2336 4.60433 38.1553 4.60035 38.0373 4.59238C38.2668 4.13065 38.4831 3.6928 38.7113 3.23239C38.5574 3.06388 38.3729 2.88211 38.5507 2.58623C38.9037 2.57959 39.1067 2.39384 39.1279 2.00641C39.1478 1.64286 39.4649 1.55263 39.7276 1.44383C40.0262 1.32044 40.3088 1.18908 40.5834 1.00598C40.8236 0.846763 41.15 0.785729 41.4459 0.749905C41.7975 0.70612 42.1584 0.726022 42.514 0.73531C42.6374 0.737963 42.778 0.761846 42.8802 0.826861C43.2251 1.04579 43.6006 1.06171 43.9854 1.03384C44.2043 1.01792 44.4087 1.01527 44.6156 1.11876C44.8147 1.21695 45.0283 1.22623 45.2393 1.10815C45.3228 1.06038 45.4343 1.03517 45.5298 1.04181C46.1136 1.08294 46.6961 1.13734 47.2786 1.1851C47.4935 1.20235 47.6116 1.32973 47.7098 1.51283C47.8093 1.69858 47.9539 1.85913 48.0627 2.03958C48.1025 2.10459 48.137 2.22002 48.1065 2.2731C47.9951 2.46947 48.072 2.60348 48.1941 2.75473C48.2498 2.8224 48.2963 2.96039 48.2631 3.02541C48.1556 3.24566 48.2166 3.41417 48.352 3.58798C48.3944 3.64238 48.3971 3.7273 48.4276 3.82681C48.2246 3.9157 48.0322 4.00062 47.8451 4.08156C47.8557 4.28323 47.8611 4.46899 47.8756 4.65342C47.8876 4.80733 48.0097 4.84846 48.1304 4.90153C48.3971 5.01962 48.4183 5.14832 48.222 5.34867C48.1543 5.41899 48.0946 5.4986 48.0388 5.57954C47.8677 5.83031 47.7058 6.08771 47.5267 6.33318C47.4803 6.39686 47.3847 6.45922 47.3117 6.46055C46.9495 6.46984 46.6218 6.39952 46.3392 6.12487C46.1203 5.91257 45.9265 5.67773 45.6585 5.4986C45.356 5.29693 45.1384 4.96257 44.9049 4.66934C44.824 4.56717 44.8041 4.41326 44.7642 4.28058C44.7457 4.22087 44.7669 4.11871 44.7337 4.10013C44.3237 3.86396 44.28 3.18463 43.659 3.20585C43.6378 3.20585 43.6165 3.18064 43.5741 3.15278C43.5741 2.90201 43.4812 2.69901 43.1853 2.6592C43.1482 2.6539 43.1084 2.63797 43.0726 2.64328C42.7369 2.69768 42.4025 2.75606 42.0283 2.81975C41.9952 2.90865 41.9514 3.02143 41.9049 3.14349C41.7218 3.20453 41.6728 2.98295 41.5945 2.96437C41.3397 3.06654 41.1354 3.1488 40.8966 3.24566C40.7334 3.41947 40.7891 3.79894 40.4375 3.89315C40.3658 4.12004 40.5078 4.41194 40.2438 4.58708C40.2531 4.83917 40.2464 5.09392 40.2809 5.34337C40.2915 5.419 40.4083 5.49595 40.4932 5.53974C40.6285 5.60873 40.7771 5.65252 40.9218 5.70161C41.1155 5.76662 41.276 5.85021 41.422 6.01872C41.7696 6.42075 42.7063 6.60783 43.2026 6.39156C43.4003 6.30531 43.5568 6.31593 43.7413 6.41544C43.8952 6.49903 44.0716 6.54414 44.2388 6.60252C44.2866 6.61977 44.3463 6.61314 44.3861 6.63967C44.7616 6.88248 45.2247 6.90504 45.6028 7.10273C45.9053 7.26063 46.2795 7.29645 46.5196 7.59366C46.6059 7.6998 46.7863 7.72634 46.9164 7.8033C47.195 7.96915 47.467 8.14562 47.7549 8.32474C47.7629 8.49324 47.7708 8.66971 47.7801 8.882C47.9871 8.95631 48.1981 9.03193 48.4568 9.12481C48.4289 9.22432 48.4157 9.3318 48.3706 9.42467C48.2976 9.5746 48.2883 9.71259 48.3732 9.85987C48.4104 9.92356 48.4462 10.0032 48.4395 10.0722C48.4143 10.3933 48.5656 10.571 48.8641 10.652C48.9371 10.6719 49.0101 10.7037 49.0724 10.7449C49.1919 10.8245 49.1905 10.9373 49.0698 11.0182C48.9968 11.0673 48.9119 11.1005 48.8296 11.1363C48.6731 11.2026 48.6213 11.3008 48.6067 11.4852C48.5921 11.6856 48.4648 11.8766 48.3785 12.0929V12.0942Z" fill="white"/>
<path d="M52.8873 14.8103C52.9881 14.9045 53.073 14.9841 53.2176 15.1195V14.744C53.2336 14.732 53.2614 14.7095 53.2906 14.6896C53.5852 14.5012 53.9036 14.4149 54.2579 14.407C54.5086 14.4017 54.6944 14.1363 54.7846 13.9014C54.9332 13.514 54.8258 13.1226 54.8496 12.7365C54.8656 12.4897 54.7727 12.2071 54.6453 11.9868C54.5285 11.7825 54.5312 11.6034 54.5763 11.4057C54.6095 11.2571 54.6626 11.1125 54.7236 10.9718C54.8191 10.7489 54.8377 10.5366 54.7342 10.3084C54.6891 10.2089 54.6798 10.0868 54.6785 9.97404C54.6718 9.50169 54.6745 9.02935 54.6732 8.557C54.6732 8.50658 54.6718 8.45218 54.6851 8.40574C54.7899 8.06342 54.7966 7.741 54.5843 7.42124C54.5246 7.33101 54.5737 7.15587 54.6015 7.02584C54.6188 6.94358 54.6917 6.87326 54.7342 6.7963C54.8881 6.519 54.8682 6.42081 54.6493 6.1926C54.5299 6.0692 54.4264 5.92989 54.3308 5.81711C54.506 5.56501 54.6718 5.36997 54.7873 5.14971C54.9717 4.79811 54.9147 4.63889 54.575 4.42925C54.4423 4.34699 54.3176 4.28065 54.3388 4.08162C54.3534 3.93833 54.2194 3.90383 54.104 3.88393C53.9408 3.85606 53.7776 3.83218 53.613 3.8083C53.4392 3.78309 53.2734 3.77115 53.1274 3.62785C53.0425 3.54559 52.87 3.55355 52.7055 3.51374C52.8475 3.21653 52.736 2.95515 52.6153 2.68713C52.541 2.52128 52.6046 2.37931 52.7864 2.33287C53.1885 2.2307 53.5812 2.07812 54.019 2.18028C54.1902 2.22009 54.3985 2.16967 54.5737 2.10996C55.0075 1.96003 55.3392 2.11262 55.6364 2.41381C55.6988 2.47617 55.7744 2.52659 55.8302 2.59425C56.0119 2.81981 56.3596 2.87421 56.4299 3.23378C56.4524 3.34789 56.6793 3.42617 56.8186 3.51374C56.9646 3.60529 57.1158 3.68888 57.2923 3.79105C57.1145 3.98874 57.0362 4.2143 56.7749 4.24217C56.751 4.24482 56.7205 4.25942 56.7098 4.27799C56.5665 4.51151 56.4485 4.75565 56.3596 5.05286H57.1835C57.1716 5.28107 57.4874 5.38456 57.356 5.63799C57.2645 5.81313 57.1543 5.97765 57.0389 6.16739C57.149 6.28415 57.283 6.44602 57.4409 6.5787C57.49 6.61983 57.6187 6.6132 57.6837 6.5787C57.8005 6.51502 57.8867 6.39295 58.0048 6.33191C58.1256 6.26955 58.2675 6.24965 58.4201 6.20587C58.4387 6.14483 58.4626 6.07318 58.4825 6.00154C58.5754 5.6831 58.9163 5.46417 59.2361 5.5053C59.5625 5.54776 59.8902 5.59951 60.218 5.61012C60.7805 5.62737 61.2807 5.80517 61.708 6.15943C61.8473 6.27486 61.9986 6.44867 62.0251 6.61453C62.0994 7.08157 62.4178 7.26865 62.8 7.41195C62.8942 7.44645 62.9923 7.469 63.1264 7.50748C63.1118 7.63087 63.141 7.78877 63.0759 7.86307C62.8716 8.09394 62.9074 8.35797 62.9048 8.62201C62.9048 8.73612 62.9048 8.85022 62.9048 8.97627C63.0866 9.04527 63.2551 9.10896 63.4435 9.1806C63.3745 9.36238 63.3466 9.5216 63.2604 9.6357C63.1768 9.74716 63.1211 9.82279 63.1914 9.96608C63.2179 10.0178 63.1569 10.1173 63.1277 10.1916C63.0627 10.3588 63.0282 10.4915 63.1489 10.6826C63.336 10.9784 63.2909 11.3274 63.1675 11.6711C63.2736 11.7069 63.3798 11.744 63.5098 11.7878C63.4926 12.0333 63.8853 12.2257 63.6624 12.4884C63.5005 12.6794 63.6611 13.0231 63.2882 13.0748C63.5231 13.3309 63.7261 13.5512 63.9251 13.7701C64.2276 13.6533 64.3961 13.2579 64.8167 13.4079C64.7384 13.6202 64.4041 13.6878 64.5288 13.9771C64.8725 14.2186 65.1086 14.5396 65.1776 14.9908H65.4881C65.508 15.0478 65.5359 15.1142 65.5558 15.1832C65.6951 15.7006 65.6725 15.6475 65.1604 15.832C64.834 15.9487 64.4359 15.9288 64.1745 16.2366C64.1109 16.3123 63.9715 16.3454 63.8614 16.3574C63.5576 16.3892 63.2524 16.4065 62.9472 16.4158C62.865 16.4184 62.7721 16.3866 62.6978 16.3454C62.4218 16.1929 62.1458 16.1783 61.8606 16.3096C61.8168 16.3295 61.765 16.3441 61.7186 16.3401C61.4294 16.3149 61.1414 16.2658 60.8535 16.2579C60.3467 16.242 59.8969 16.0217 59.4245 15.885C59.1565 15.8081 58.911 15.7683 58.655 15.9116C58.5608 15.9646 58.4413 15.9912 58.3325 15.9978C57.6585 16.0363 56.9845 16.0668 56.3105 16.0987C56.2216 16.1026 56.1141 16.1332 56.0464 16.0947C55.7267 15.9182 55.4096 16.0482 55.0858 16.0589C54.5392 16.0761 53.9899 16.0628 53.4445 16.0164C53.2163 15.9965 52.9801 15.889 52.7785 15.7683C52.4534 15.5759 52.5091 15.0916 52.8886 14.8077L52.8873 14.8103ZM59.26 8.81175C59.3104 8.84226 59.3316 8.86084 59.3542 8.86615C59.532 8.9086 59.6182 9.02006 59.5917 9.19918C59.5652 9.38626 59.4245 9.44331 59.2587 9.44729C59.0212 9.4526 58.7837 9.44862 58.5568 9.44862C58.509 9.29206 58.4758 9.18458 58.4334 9.04792C58.3445 9.0718 58.2065 9.07578 58.1959 9.11559C58.1468 9.30002 58.0022 9.49373 58.1786 9.68347C58.2874 9.80023 58.2728 9.91832 58.1826 10.0258C58.0022 10.2421 57.8177 10.465 57.4913 10.4318C57.3441 10.4172 57.2392 10.4729 57.1756 10.5963C56.9593 11.0076 56.7841 11.4229 57.084 11.8807C57.0601 11.9059 57.0402 11.9391 57.011 11.959C56.7443 12.1474 56.6979 12.3597 56.8996 12.6131C57.0203 12.7644 57.0137 12.8798 56.8943 13.0151C56.8492 13.0669 56.8279 13.1372 56.7762 13.238C57.0707 13.2433 57.2167 13.376 57.2645 13.6321C57.2923 13.782 57.4144 13.855 57.5524 13.7741C57.7514 13.6573 57.9385 13.6772 58.1203 13.782C58.237 13.8497 58.306 13.8192 58.3763 13.7263C58.4745 13.5976 58.578 13.4715 58.6815 13.3402C59.0238 13.3933 59.3476 13.4437 59.7177 13.5007C59.739 13.3123 59.7695 13.1425 59.7761 12.9727C59.7841 12.7657 59.8783 12.6622 60.0733 12.698C60.1437 12.7113 60.2034 12.7697 60.2737 12.7962C60.4515 12.8665 60.5709 12.7803 60.559 12.5892C60.5483 12.4247 60.5311 12.2588 60.5138 12.0943C60.4939 11.894 60.5324 11.7268 60.7049 11.5888C60.815 11.5012 60.8867 11.3672 61.0034 11.2199C60.5324 11.0647 60.612 10.66 60.5019 10.3495C60.283 10.2606 59.9685 10.3031 59.9407 9.92362C60.2034 9.89709 60.4502 9.87321 60.7182 9.84667C60.6545 9.59855 60.6001 9.38228 60.5497 9.18591C60.7354 9.032 60.9026 8.91259 61.0446 8.76796C61.1905 8.62068 61.2118 8.44156 61.0857 8.36859C60.8734 8.24519 60.6372 8.1616 60.4077 8.06873C60.2949 8.02361 60.1675 8.01167 60.0601 7.95727C59.7469 7.80203 59.4683 7.89624 59.3622 8.22927C59.3051 8.40839 59.2958 8.60211 59.2613 8.81042L59.26 8.81175Z" fill="white"/>
<path d="M19.8825 4.46904C20.0125 4.57519 20.0775 4.63755 20.1505 4.68664C20.4265 4.86974 20.6985 4.84852 20.9784 4.62296C21.0806 4.54069 21.1894 4.44516 21.3168 4.546C21.5967 4.76758 21.8727 4.76095 22.1514 4.55396C22.5202 4.818 22.8997 4.84055 23.3309 4.67072C23.315 4.28992 23.384 3.91178 23.0841 3.59334C22.9859 3.48985 22.9541 3.32665 22.8718 3.20591C22.8214 3.13161 22.7405 3.06527 22.6582 3.02546C22.4764 2.93656 22.2827 2.87553 22.1009 2.78796C21.9046 2.69243 21.7241 2.57832 21.4893 2.68845C21.4256 2.71896 21.2956 2.69774 21.2438 2.64997C20.9201 2.34745 20.5459 2.25325 20.0921 2.37399C19.9886 2.16303 19.8865 1.97594 19.8042 1.77957C19.7326 1.61107 19.7684 1.47175 19.9356 1.35499C20.1253 1.22231 20.2911 1.06574 20.5539 1.15995C20.6149 1.18118 20.7051 1.15597 20.7715 1.12678C21.5118 0.809667 22.2907 0.714135 23.0868 0.735365C23.441 0.744652 23.794 0.789764 24.1482 0.818954C24.1734 0.821608 24.2 0.821608 24.2238 0.828242C24.5489 0.9251 24.943 1.58188 24.8727 1.92287C24.7864 2.34215 24.8461 2.74417 24.9815 3.14355C25.0398 3.31869 25.0412 3.48852 24.9271 3.65039C24.7917 3.84013 24.7665 4.01394 24.9045 4.24216C25.0425 4.47302 25.0252 4.73839 24.8421 4.98385C24.7201 5.14705 24.6299 5.34873 24.5794 5.54775C24.5556 5.64196 24.6352 5.78525 24.7055 5.87813C24.862 6.09042 25.0252 6.28679 24.8156 6.55481C24.801 6.57339 24.7877 6.60788 24.7944 6.62646C24.9218 6.96214 24.7586 7.32967 24.9231 7.66403C25.0531 7.92807 25.142 8.20007 25.0664 8.51055C25.0398 8.61669 25.0916 8.76397 25.154 8.86614C25.3835 9.24693 25.3463 9.62508 25.1473 9.98996C25.0544 10.1585 24.9961 10.3071 25.0677 10.4915C25.077 10.5154 25.0889 10.5419 25.0863 10.5645C25.0584 10.7821 24.9841 11.005 25.0093 11.2159C25.0412 11.484 24.9204 11.6485 24.7572 11.817C24.6378 11.9404 24.6524 12.0691 24.7678 12.1872C24.874 12.2973 24.9682 12.4353 25.0982 12.503C25.357 12.637 25.3636 12.8493 25.3384 13.0841C25.3264 13.1969 25.2972 13.3083 25.2734 13.4211C25.2176 13.6852 25.3171 13.8377 25.5759 13.8802C25.625 13.8882 25.6807 13.8948 25.7285 13.8829C26.0748 13.7993 26.4078 13.9266 26.7329 13.989C27.1017 14.058 27.4679 14.2119 27.6152 14.6484C27.7147 14.9443 27.6855 15.3065 27.4374 15.4989C27.123 15.7417 26.7992 15.9527 26.3547 15.8651C26.1836 15.832 25.9713 15.885 25.8067 15.9607C25.3357 16.1769 24.8926 16.1278 24.4534 15.8917C24.2066 15.759 23.9744 15.5931 23.7183 15.487C23.4994 15.3968 23.2566 15.3609 23.0217 15.3211C22.9408 15.3065 22.8373 15.3317 22.7643 15.3729C22.4034 15.5746 22.0558 15.7975 21.6909 15.9898C21.5622 16.0575 21.3977 16.0774 21.2478 16.0814C20.6746 16.0986 20.1014 16.1053 19.5282 16.104C19.4353 16.104 19.3319 16.0549 19.2536 16.0005C18.8887 15.7484 18.5742 15.422 18.1457 15.2627C18.0714 15.2349 18.0196 15.142 17.9612 15.0757C17.7649 14.8581 17.5712 14.6391 17.3735 14.4229C17.2381 14.2756 17.063 14.1602 17.0298 13.9359C17.0219 13.8829 16.9608 13.8271 16.9091 13.7953C16.657 13.64 16.6132 13.3946 16.6119 13.1319C16.6119 12.8519 16.6251 12.572 16.6278 12.292C16.6291 12.1023 16.6145 11.9112 16.6212 11.7215C16.6251 11.5848 16.6357 11.4455 16.6676 11.3141C16.7565 10.9439 16.7552 10.5804 16.58 10.2394C16.5097 10.1001 16.4779 9.97801 16.5522 9.84533C16.6676 9.63569 16.6782 9.4433 16.5137 9.24959C16.4606 9.18723 16.4354 9.09037 16.4221 9.00545C16.3956 8.83031 16.645 8.07004 16.7525 7.91215C16.8215 7.81131 16.8998 7.69455 16.9077 7.57912C16.925 7.32039 16.8932 7.06962 17.0073 6.80823C17.0749 6.65299 17.1094 6.51633 17.2686 6.42876C17.3655 6.37569 17.4783 6.30139 17.5207 6.20718C17.6919 5.83302 17.9533 5.56367 18.3328 5.40711C18.3447 5.4018 18.358 5.39649 18.3646 5.38721C18.7189 4.81269 19.442 4.89893 19.8878 4.4717L19.8825 4.46904ZM19.0041 7.44245C19.0041 7.58973 18.9988 7.70251 19.0041 7.81529C19.0161 8.04218 18.8821 8.24518 18.6737 8.30887C18.3779 8.39909 18.2571 8.64721 18.3182 8.9484C18.3659 9.17927 18.3633 9.42075 18.3832 9.66356C18.2598 9.68877 18.1762 9.70601 18.0581 9.73122C17.9798 10.1532 17.8803 10.5738 17.8312 11.001C17.7954 11.3062 17.8737 11.3672 18.1682 11.4455C18.2346 11.4627 18.2929 11.5065 18.4071 11.5636C18.2969 11.6538 18.2186 11.7148 18.143 11.7812C18.005 11.9019 18.0236 12.0744 18.07 12.2071C18.1404 12.4061 18.2585 12.5932 18.3779 12.7696C18.4389 12.8585 18.5424 12.9594 18.6392 12.9753C18.8648 13.0125 18.967 13.165 19.0665 13.3322C19.1355 13.4477 19.2111 13.5273 19.3624 13.5339C19.8878 13.5551 20.3442 13.7966 20.7489 13.9664C20.9479 13.9412 21.0899 13.9094 21.2332 13.9081C21.4866 13.9054 21.7055 13.8245 21.9019 13.6679C22.0333 13.5631 22.1673 13.4596 22.3318 13.3309C22.3384 13.1995 22.349 13.0244 22.3557 12.8838C22.6728 12.6741 22.962 12.4831 23.2539 12.2893C23.2513 11.9364 23.2367 11.5901 23.4596 11.2929C23.4795 11.2664 23.4914 11.2173 23.4822 11.1854C23.3588 10.7356 23.6467 10.2487 23.3535 9.81216C23.3229 9.76705 23.3389 9.68611 23.3455 9.62375C23.372 9.39554 23.2964 9.19917 23.1611 9.0227C23.0018 8.81439 22.8532 8.60342 22.7192 8.37388C22.5945 8.16027 22.4698 7.9692 22.491 7.71047C22.3557 7.66934 22.2376 7.63219 22.1182 7.59637C22.0704 7.4544 22.0001 7.331 21.8966 7.25405C21.6007 7.03777 21.2863 6.84671 20.9904 6.63177C20.8524 6.53093 20.7449 6.47785 20.5844 6.59727C20.518 6.64636 20.38 6.65698 20.3044 6.62248C20.0842 6.52031 19.8838 6.58798 19.6463 6.6384C19.5667 7.01256 19.4751 7.39602 19.0028 7.44643L19.0041 7.44245Z" fill="white"/>
<path d="M126.414 7.40136C126.344 7.11476 126.295 6.91043 126.243 6.7061C126.225 6.6318 126.189 6.56148 126.176 6.48718C126.12 6.16608 126.29 5.95247 126.595 6.03208C126.901 6.11168 127.165 6.04136 127.452 5.979C127.955 5.86755 128.439 5.96706 128.895 6.19527C128.962 6.22845 129.044 6.27488 129.072 6.33592C129.239 6.69947 129.593 6.77244 129.917 6.8892C130.192 6.98871 130.42 6.90778 130.59 6.67558C130.764 6.43941 130.915 6.18731 131.253 6.15016C131.325 6.1422 131.395 6.04667 131.451 5.979C131.615 5.77998 131.838 5.69772 132.08 5.64862C132.711 5.51992 133.347 5.51063 133.976 5.64862C134.142 5.68577 134.314 5.76936 134.443 5.87949C134.688 6.08913 134.943 6.20589 135.276 6.17007C135.638 6.13026 135.977 6.24702 136.318 6.38766C136.322 6.56413 136.424 6.75652 136.239 6.88257C136.121 6.96351 135.969 7.067 135.843 6.86797C135.815 6.91574 135.795 6.93431 135.794 6.95554C135.772 7.2156 136.097 7.3443 136.03 7.64682C135.967 7.92943 136.249 8.08202 136.409 8.30625C136.379 8.38453 136.368 8.51589 136.3 8.56233C136.1 8.69899 136.121 8.87811 136.147 9.0705C136.16 9.17001 136.209 9.29606 136.168 9.36771C135.953 9.74187 136.143 10.1174 136.116 10.5008C136.257 10.5579 136.385 10.6083 136.509 10.6587C136.473 10.9294 136.387 11.2027 136.413 11.4641C136.445 11.7732 136.569 12.0731 136.511 12.3942C136.726 12.5892 136.663 12.9806 137.012 13.0921C137.071 13.1107 137.101 13.2341 137.136 13.3124C137.167 13.3813 137.187 13.4557 137.217 13.5432C137.361 13.5499 137.509 13.5578 137.626 13.5631C137.729 13.7635 137.794 13.9585 137.917 14.1084C138.031 14.2478 138.198 14.3473 138.352 14.4508C138.559 14.5888 138.648 14.7957 138.706 15.02C138.75 15.1858 138.752 15.3517 138.585 15.4658C138.564 15.4804 138.539 15.495 138.53 15.5162C138.276 16.092 137.684 16.1093 137.208 16.3136C137.143 16.3415 137.058 16.3282 136.982 16.3269C136.603 16.3203 136.222 16.3043 135.843 16.3057C135.524 16.3057 135.206 16.3349 134.887 16.3349C134.52 16.3349 134.147 16.2778 133.818 16.5087C133.565 16.2738 133.287 16.1902 132.968 16.1743C132.563 16.1531 132.404 15.9328 132.459 15.5374C132.477 15.4127 132.506 15.2893 132.535 15.1381C132.503 15.1182 132.471 15.0956 132.438 15.0784C131.96 14.8395 131.857 14.8899 131.747 15.4101C131.736 15.4592 131.727 15.5109 131.704 15.5547C131.574 15.8028 130.811 16.1717 130.517 16.1504C130.204 16.1279 129.889 16.1265 129.576 16.1199C129.54 16.1199 129.497 16.1292 129.467 16.1491C129.097 16.3959 128.686 16.3242 128.28 16.3083C127.976 16.2964 127.672 16.3057 127.368 16.3004C127.115 16.2964 126.859 16.299 126.607 16.2725C126.344 16.2446 126.109 16.1544 126.024 15.8599C126.011 15.8147 125.976 15.7577 125.938 15.7418C125.577 15.5892 125.675 15.2827 125.706 15.016C125.74 14.7029 125.909 14.4601 126.218 14.3632C126.396 14.3075 126.592 14.2955 126.781 14.2849C126.97 14.273 127.163 14.2876 127.354 14.2876C127.859 14.2849 127.865 14.1323 127.883 13.6945C127.894 13.4464 127.837 13.1943 127.801 12.9448C127.786 12.8453 127.754 12.7485 127.72 12.6529C127.578 12.2589 127.559 11.8887 127.874 11.553C127.944 11.4787 127.96 11.3513 127.993 11.2465C128.022 11.151 128.017 11.0382 128.069 10.9586C128.164 10.81 128.154 10.6667 128.093 10.522C127.989 10.2779 127.996 10.0271 128.021 9.77106C128.05 9.47784 128.06 9.18461 127.89 8.91924C127.863 8.87944 127.85 8.82238 127.851 8.77329C127.855 8.20674 127.489 7.9772 127.021 7.79675C126.774 7.70122 126.566 7.50352 126.416 7.40268L126.414 7.40136ZM133.77 9.0161C133.845 8.74012 133.928 8.51191 133.963 8.27839C133.99 8.09529 133.924 7.91218 133.722 7.84717C133.485 7.77154 133.246 7.67866 132.995 7.71183C132.913 7.87371 132.84 8.01833 132.765 8.16959C132.584 8.14305 132.424 8.11917 132.263 8.09529C132.301 8.13907 132.34 8.18286 132.378 8.22797C132.209 8.32483 132.003 8.39117 131.882 8.53048C131.787 8.64061 131.716 8.75604 131.568 8.75472C131.373 8.75339 131.302 8.88607 131.245 9.02672C131.115 9.34383 130.891 9.58133 130.587 9.71003C130.286 9.8374 130.136 10.1147 129.899 10.2978C129.563 10.5552 129.726 10.8683 129.749 11.1709C129.753 11.2345 129.735 11.3035 129.757 11.3606C129.792 11.4601 129.828 11.5729 129.9 11.6445C130.084 11.8343 130.11 11.8834 129.909 12.0214C129.685 12.1753 129.645 12.4048 129.722 12.5919C129.836 12.8705 129.881 13.1147 129.75 13.3906C129.698 13.4994 129.759 13.5883 129.876 13.6255C129.924 13.6414 129.986 13.6361 130.022 13.664C130.319 13.9028 130.628 14.1058 131.036 14.062C131.257 14.3101 131.606 14.3141 131.862 14.4919C132.018 14.5994 132.162 14.5967 132.329 14.5383C132.65 14.4269 132.945 14.2438 133.293 14.2053C133.646 14.1668 133.833 13.9612 133.834 13.6905C133.96 13.5844 134.071 13.5379 134.098 13.461C134.163 13.2805 134.17 13.0908 134.059 12.9103C133.994 12.8029 133.959 12.6781 133.904 12.5481C134.281 12.2589 134.201 11.8807 134.028 11.5543C133.911 11.3354 133.902 11.1549 133.968 10.948C134.029 10.7569 134.109 10.5725 134.146 10.4743C134.117 10.1054 134.077 9.81883 134.075 9.53223C134.075 9.28677 134.069 9.06917 133.773 9.0161H133.77Z" fill="white"/>
<path d="M102.079 13.1995C102.217 13.161 102.372 13.1027 102.533 13.0774C102.938 13.0111 103.265 13.0828 103.452 13.4967C103.528 13.6626 103.685 13.7926 103.812 13.9332C103.982 14.1217 104.181 14.2888 104.328 14.4932C104.514 14.7506 104.47 14.9244 104.308 15.1871C104.043 15.6223 103.609 15.6886 103.171 15.7444C102.972 15.7696 102.796 15.7789 102.602 15.8943C102.275 16.0893 101.924 16.1703 101.515 15.9885C101.099 15.8027 100.63 15.7682 100.174 15.9314C100.117 15.9527 100.05 15.9567 99.988 15.9567C99.4029 15.9553 98.8177 15.9447 98.2326 15.9513C97.9805 15.954 97.7298 16.0044 97.4777 16.0071C97.3476 16.0084 97.1911 15.9911 97.0902 15.9195C96.7572 15.682 96.3724 15.605 95.989 15.5745C95.632 15.5453 95.4861 15.264 95.2605 15.0796C95.2035 15.0332 95.1929 14.8355 95.2433 14.7652C95.4344 14.4998 95.6015 14.2026 95.9293 14.0686C95.9757 14.05 96.0407 14.042 96.0672 14.0075C96.2716 13.7409 96.5197 13.782 96.7851 13.8895C96.9629 13.9624 97.1194 13.9624 97.2654 13.7992C97.4153 13.6321 97.6183 13.583 97.8478 13.5644C98.1291 13.5405 98.4197 13.5445 98.6784 13.3508C98.8828 13.1969 98.969 13.023 98.9239 12.7975C98.835 12.3649 98.8257 11.9404 98.9398 11.5131C98.9584 11.4415 98.969 11.3473 98.9385 11.2876C98.774 10.9651 98.9226 10.6998 99.0725 10.4318C99.2569 10.1014 99.2795 9.77631 99.0937 9.43399C98.9809 9.22701 98.9027 9.00012 98.8244 8.81569C98.8668 8.62595 98.9013 8.45745 98.9438 8.29027C98.9876 8.11911 99.0221 7.93999 99.0951 7.78077C99.2675 7.40262 99.2728 7.39068 98.9372 7.14787C98.9345 7.13593 98.9292 7.12266 98.9292 7.11072C98.9319 6.64368 98.7328 6.48181 98.2671 6.58132C98.1305 6.61051 97.9978 6.67951 97.8611 6.68614C97.5851 6.70073 97.28 6.75779 97.0371 6.66358C96.7519 6.55346 96.4746 6.5508 96.188 6.52825C95.8536 6.50171 95.7727 6.43272 95.6665 6.12489C95.4994 5.64193 95.6891 5.22398 95.9054 4.81399C95.9346 4.75959 96.058 4.73571 96.1376 4.73306C96.4043 4.72377 96.6723 4.73306 96.939 4.73173C97.1181 4.73173 97.2892 4.72111 97.4312 4.57649C97.5254 4.48096 97.6608 4.44248 97.7815 4.53005C98.023 4.70652 98.2923 4.67733 98.5524 4.63089C98.9425 4.5619 99.314 4.61762 99.6775 4.74765C99.8885 4.82328 100.115 4.88829 100.289 5.01832C100.5 5.17754 100.704 5.23062 100.959 5.21071C101.146 5.19612 101.349 5.20541 101.526 5.26246C101.808 5.35534 102.027 5.30492 102.274 5.14437C102.655 4.89758 103.06 4.68794 103.544 4.72111C103.629 4.72642 103.72 4.64681 103.809 4.60701C104.052 4.49821 104.292 4.34164 104.57 4.45708C104.99 4.63089 105.435 4.65212 105.875 4.68794C106.052 4.70254 106.186 4.77021 106.317 4.88166C106.46 5.00373 106.645 5.08201 106.775 5.21602C106.986 5.43362 107.282 5.57824 107.351 5.9272C107.381 6.07978 107.495 6.22042 107.589 6.35443C107.711 6.52692 107.754 6.69808 107.64 6.88516C107.506 7.10409 107.558 7.30709 107.64 7.53663C107.788 7.95326 107.75 8.36059 107.427 8.70424C107.401 8.7321 107.359 8.75731 107.353 8.78783C107.295 9.16066 106.991 9.15801 106.719 9.21506C106.511 9.25885 106.31 9.34377 106.101 9.37428C105.79 9.41807 105.474 9.43001 105.242 9.44859C104.974 9.09963 104.757 8.81569 104.526 8.51716C104.203 8.84223 103.941 8.62728 103.634 8.47204C103.686 8.35794 103.73 8.25975 103.777 8.15228C103.992 8.22658 104.185 8.2916 104.377 8.35794C104.398 8.33007 104.42 8.30354 104.439 8.27567C104.347 8.13768 104.254 7.99837 104.158 7.85772C103.646 8.00367 103.18 7.92672 102.737 7.69851C102.566 7.61094 102.444 7.64145 102.363 7.81527C102.278 7.99704 102.221 8.19341 102.112 8.35926C102.021 8.49991 101.885 8.61932 101.75 8.72149C101.343 9.03064 101.044 9.37163 101.114 9.94349C101.149 10.2261 101.079 10.5207 101.057 10.8099C101.051 10.8961 101.02 10.9983 101.055 11.066C101.166 11.2862 101.154 11.48 100.983 11.6458C101.123 11.8731 101.295 11.9182 101.499 11.7811C101.694 11.6498 101.823 11.6949 101.823 11.9271C101.823 12.1327 101.761 12.3397 101.713 12.621C101.798 12.755 101.93 12.9647 102.076 13.1955L102.079 13.1995Z" fill="white"/>
<path d="M118.727 7.45045C118.781 7.34563 118.826 7.25939 118.867 7.18111C118.682 6.81889 118.561 6.43145 118.212 6.20457C118.089 6.12496 117.951 6.06392 117.813 6.01748C117.639 5.9591 117.456 5.92461 117.314 5.88878C117.035 5.93257 116.78 5.99626 116.524 6.0082C116.117 6.0281 115.708 6.02146 115.301 6.01085C115.081 6.00422 114.923 6.08383 114.758 6.22845C114.46 6.48983 114.271 6.77908 114.351 7.18774C114.449 7.69724 114.106 7.98118 113.769 8.21603C113.518 8.39117 113.181 8.34606 112.885 8.23859C112.732 8.18286 112.59 8.09794 112.447 8.01966C112.239 7.90688 112.086 7.76491 112.064 7.49822C112.049 7.33237 111.968 7.16651 111.888 7.01393C111.788 6.81889 111.741 6.61455 111.846 6.43013C112.042 6.08515 112.15 5.67118 112.517 5.44297C112.751 5.29835 112.983 5.14709 113.231 5.03165C113.857 4.74108 113.861 4.757 114.612 4.73577C114.818 4.73047 115.022 4.66014 115.288 4.6084C115.415 4.76098 115.662 4.74241 115.903 4.74108C116.081 4.74108 116.26 4.73312 116.438 4.74373C116.551 4.75037 116.697 4.74639 116.767 4.8114C117.003 5.029 117.279 5.00777 117.558 5.00114C117.803 4.9945 118.008 5.09269 118.235 5.17761C118.826 5.39653 119.169 5.88082 119.545 6.30541C119.786 6.57608 119.998 6.94228 119.961 7.37084C119.94 7.62427 119.957 7.88034 119.957 8.13509C119.957 8.31422 119.979 8.47211 120.097 8.63398C120.184 8.75339 120.193 8.94446 120.194 9.10368C120.202 10.2766 120.198 11.4482 120.198 12.6211C120.198 13.0457 120.514 13.4928 120.894 13.6573C121.297 13.8325 121.694 14.0235 122.084 14.2252C122.158 14.2637 122.226 14.3818 122.232 14.468C122.252 14.7082 122.251 14.9523 122.232 15.1925C122.224 15.284 122.153 15.3742 122.098 15.4565C121.853 15.8214 121.46 16.035 121.081 16.1438C120.706 16.2513 120.277 16.2858 119.868 16.0443C119.605 15.889 119.357 15.7391 119.124 15.5401C118.967 15.4074 118.741 15.357 118.581 15.2867C118.366 15.3384 118.167 15.3636 117.986 15.4366C117.697 15.552 117.421 15.7006 117.139 15.832C117.048 15.8745 116.956 15.9355 116.861 15.9381C116.649 15.9448 116.467 15.9886 116.299 16.1319C116.232 16.1876 116.106 16.1902 116.008 16.1889C115.724 16.1849 115.446 16.1836 115.224 16.4529C115.006 16.1796 114.725 16.1836 114.443 16.1916C114.302 16.1955 114.159 16.173 114.022 16.1955C113.544 16.2752 113.189 15.9819 112.784 15.8227C112.313 15.6383 112.006 15.2734 111.66 14.9443C111.301 14.6007 111.094 14.1867 111.026 13.6958C111.015 13.6215 110.993 13.5446 110.956 13.4809C110.684 13.0165 110.696 12.5547 110.952 12.0904C110.976 12.0466 111.018 11.9948 111.011 11.9537C110.956 11.5782 111.22 11.3102 111.344 11.0024C111.429 10.794 111.652 10.6415 111.814 10.4637C112.005 10.2514 112.206 10.0696 112.527 10.0922C112.617 10.0988 112.711 10.0245 112.805 9.99132C112.956 9.93692 113.106 9.88385 113.259 9.83608C113.331 9.81353 113.433 9.83343 113.477 9.78964C113.727 9.54153 114.039 9.5946 114.342 9.59062C114.656 9.58664 114.961 9.61185 115.248 9.39425C115.374 9.29872 115.617 9.35312 115.808 9.34914C116.039 9.34516 116.256 9.3372 116.45 9.16869C116.534 9.09571 116.686 9.08112 116.808 9.07581C117.101 9.06254 117.395 9.05989 117.688 9.07581C117.933 9.08775 118.127 9.02805 118.298 8.83831C118.403 8.72155 118.553 8.62602 118.702 8.57295C118.861 8.51457 118.929 8.41903 118.94 8.2691C118.964 7.97322 118.962 7.68132 118.726 7.45311L118.727 7.45045ZM114.53 14.1854C114.78 14.1854 114.984 14.1947 115.187 14.1814C115.31 14.1735 115.451 14.1589 115.55 14.0952C115.845 13.9081 116.206 13.8192 116.423 13.514C116.455 13.4689 116.531 13.453 116.588 13.4265C116.983 13.2394 117.381 13.055 117.776 12.8626C117.826 12.8374 117.883 12.7763 117.892 12.7232C117.937 12.4804 118.099 12.3199 118.269 12.1673C118.444 12.0094 118.489 11.7971 118.411 11.61C118.272 11.2783 118.026 10.9692 117.68 10.8883C117.328 10.8073 116.93 10.733 116.588 11.0156C116.5 11.0873 116.351 11.0966 116.227 11.1072C116.063 11.1218 115.897 11.1085 115.731 11.1125C115.382 11.1191 115.016 11.0435 114.717 11.3168C114.677 11.354 114.596 11.3513 114.534 11.3579C114.116 11.3964 113.784 11.6127 113.466 11.8621C113.219 12.0559 113.105 12.3332 112.964 12.6038C112.763 12.9926 112.753 13.246 113.065 13.5485C113.839 14.2995 113.489 14.1721 114.53 14.1854Z" fill="white"/>
<path d="M91.1342 12.5839C91.316 12.7604 91.4872 12.9117 91.6358 13.0802C91.6981 13.1505 91.7273 13.2593 91.7459 13.3561C91.7645 13.4543 91.7539 13.5591 91.7539 13.6613C91.7552 14.277 91.531 14.5834 90.9511 14.8409C90.7733 14.9205 90.6287 15.0797 90.4814 15.2177C90.3063 15.3822 90.1564 15.5772 89.895 15.6157C89.8472 15.6224 89.7888 15.6489 89.7623 15.686C89.5527 15.9793 89.2183 16.0881 88.9224 16.2513C88.8176 16.3096 88.6849 16.3362 88.5642 16.3428C88.2139 16.3601 87.8663 16.3096 87.5465 16.5564C87.4205 16.6533 87.175 16.5856 86.9906 16.6214C86.5023 16.7143 86.1029 16.4808 85.6996 16.2791C85.3413 16.1 85.0176 15.8492 84.5943 15.8346C84.5452 15.8333 84.4815 15.8214 84.451 15.7882C84.2016 15.5321 83.8938 15.3689 83.5899 15.1872C83.1919 14.9497 83.0526 14.5025 82.8575 14.1084C82.8177 14.0288 82.8098 13.9121 82.7474 13.8709C82.4329 13.656 82.3653 13.2818 82.1609 12.9979C82.1132 12.9316 82.0972 12.832 82.0946 12.7458C82.0893 12.5614 82.0415 12.4061 81.9261 12.2535C81.8584 12.1633 81.8452 12.0147 81.8438 11.8927C81.8385 10.8856 81.8385 9.87853 81.8438 8.8728C81.8438 8.76135 81.8425 8.61672 81.9062 8.54375C82.084 8.34075 82.1039 8.11253 82.0919 7.86574C82.084 7.69724 82.1742 7.56057 82.2273 7.40932C82.3971 6.9237 82.7859 6.63312 83.1123 6.28682C83.2768 6.11301 83.4373 5.92593 83.6987 5.88612C83.7452 5.87949 83.7982 5.8503 83.8314 5.81447C84.2892 5.33151 84.9473 5.1975 85.482 4.85385C85.8389 4.62431 86.1985 4.64687 86.5739 4.64554C87.045 4.64289 87.5173 4.6336 87.9883 4.65218C88.1436 4.65748 88.2948 4.73842 88.4474 4.78751C88.7791 4.89233 89.0365 5.17893 89.4213 5.16964C89.5288 5.16698 89.6535 5.25986 89.7451 5.33682C89.9189 5.4841 90.1046 5.59953 90.3036 5.71231C90.5491 5.8503 90.776 6.06922 90.9326 6.30407C91.1462 6.62516 91.2921 6.99269 91.4567 7.3443C91.4925 7.42126 91.4885 7.51679 91.5018 7.60436C91.5137 7.67999 91.4951 7.78215 91.5389 7.82594C91.7844 8.07273 91.7459 8.38188 91.7618 8.68572C91.7671 8.78125 91.8096 8.88607 91.8627 8.96833C92.0935 9.32657 92.1055 9.6742 91.8534 10.0271C91.803 10.0975 91.7963 10.197 91.7486 10.2699C91.6968 10.3469 91.6278 10.4172 91.5522 10.4716C91.4009 10.5817 91.2205 10.66 91.0891 10.7887C90.9418 10.936 90.7879 11.005 90.5836 11.0037C89.2329 10.9997 87.8809 11.0063 86.5302 10.9957C86.3908 10.9957 86.2409 10.9241 86.1149 10.8511C85.8827 10.7171 85.6478 10.6813 85.4369 10.8458C85.2936 10.9559 85.1503 10.9891 84.9831 11.005C84.5598 11.0461 84.126 11.5384 84.1246 11.967C84.1246 12.0943 84.1339 12.223 84.1233 12.3491C84.0716 12.9501 84.3382 13.4172 84.7416 13.8272C84.8849 13.9718 85.0468 14.1031 85.1688 14.2637C85.3904 14.5556 85.7367 14.6604 86.0353 14.7785C86.3126 14.8873 86.6854 14.9271 86.9746 14.6697C87.0277 14.6219 87.1126 14.5888 87.183 14.5874C87.4045 14.5821 87.6155 14.5675 87.776 14.3871C87.7906 14.3698 87.8225 14.3579 87.845 14.3592C88.4249 14.3751 88.8189 13.9121 89.3417 13.782C89.3868 13.7714 89.4306 13.7303 89.4624 13.6931C89.7596 13.3402 90.1922 13.2181 90.5836 13.0205C90.7707 12.9262 90.9193 12.7577 91.1303 12.5866L91.1342 12.5839ZM89.0498 9.47783C89.1387 9.47916 89.2302 9.46722 89.3165 9.48181C89.7291 9.55213 90.0277 9.37434 90.2692 9.06254C90.2851 9.04263 90.305 9.02671 90.3222 9.00814C90.5239 8.78523 90.5518 8.52915 90.4111 8.27573C90.3381 8.14438 90.2851 8.00241 90.2055 7.87503C89.9932 7.53669 89.883 7.13334 89.5354 6.88124C89.3934 6.77775 89.2767 6.63578 89.1626 6.50044C88.9503 6.24835 88.6982 6.12097 88.3599 6.16343C88.1714 6.18731 87.9777 6.16608 87.7867 6.16874C87.5319 6.17139 87.2811 6.18466 87.0728 5.98033C87.0118 5.92062 86.8818 5.91266 86.7836 5.91266C86.4333 5.91266 86.0644 5.83172 85.7739 6.12362C85.758 6.13955 85.7261 6.13689 85.7022 6.14618C85.2325 6.31203 84.926 6.6915 84.6832 7.07761C84.5346 7.31378 84.4139 7.56721 84.1936 7.73439C83.9017 7.95729 83.8619 8.32482 83.6523 8.59019C83.6085 8.64591 83.6178 8.76666 83.6417 8.84759C83.716 9.105 84.2374 9.47916 84.5187 9.48049C85.1808 9.48447 85.8442 9.48579 86.5063 9.47783C86.6283 9.47651 86.7677 9.45793 86.8698 9.39822C87.3276 9.13021 87.7707 9.1302 88.2258 9.40088C88.3081 9.44997 88.4156 9.46987 88.5138 9.47651C88.6916 9.48845 88.8707 9.48049 89.0485 9.48049L89.0498 9.47783Z" fill="white"/>
<path d="M72.2229 10.4079C72.2043 10.4198 72.1512 10.437 72.1194 10.4742C71.9575 10.6639 71.7837 10.6998 71.5435 10.6029C71.387 10.5392 71.1946 10.5498 71.0194 10.5538C70.8682 10.5578 70.7156 10.5923 70.567 10.6241C70.368 10.6666 70.1716 10.721 69.9341 10.7807C69.9023 11.2451 69.9208 11.6843 70.3242 12.0398C70.2724 12.1725 70.218 12.3132 70.1544 12.479C70.425 12.8187 70.6957 13.1703 70.9823 13.51C71.0592 13.6015 71.1826 13.7103 71.2875 13.713C71.7134 13.7236 71.9257 13.9677 72.0517 14.3525C72.1486 14.3525 72.2375 14.3631 72.3224 14.3512C72.6727 14.3007 72.9991 14.3565 73.3228 14.5091C73.6081 14.6431 73.9106 14.6895 74.1667 14.4162C74.2078 14.3724 74.2715 14.3379 74.3299 14.326C74.5435 14.2808 74.7067 14.1893 74.8593 14.0142C75.0264 13.8191 75.2679 13.6878 75.4776 13.5285C75.4975 13.5126 75.524 13.5033 75.5399 13.4848C75.7363 13.2685 75.8955 12.9938 76.1343 12.8505C76.3745 12.7072 76.6783 12.6621 76.9052 12.4671C76.9822 12.4007 77.0817 12.3516 77.1361 12.2707C77.286 12.0478 77.4983 12.1208 77.6881 12.1526C77.7425 12.1619 77.8154 12.3092 77.8101 12.3888C77.7876 12.7046 77.7438 13.0204 77.6947 13.3335C77.6589 13.5591 77.6124 13.7833 77.5501 14.0022C77.5209 14.1057 77.4585 14.2092 77.3869 14.2888C77.1029 14.5993 76.8057 14.8952 76.5218 15.2043C76.3891 15.3489 76.2272 15.398 76.0428 15.3994C75.788 15.3994 75.5758 15.4883 75.4006 15.6767C75.2653 15.8213 75.1008 15.8757 74.8938 15.8929C74.5541 15.9208 74.2171 15.9951 73.8854 16.0787C73.5842 16.1543 73.3095 16.2326 73.015 16.023C72.885 15.9301 72.674 15.95 72.4988 15.9221C72.256 15.8836 72.0822 15.8027 71.9217 15.5652C71.6709 15.195 71.2689 14.9615 70.7965 14.9416C70.5152 14.9297 70.2273 14.9734 70.0655 14.663C70.0601 14.6524 70.0482 14.6404 70.0376 14.6378C69.6183 14.5475 69.5055 14.1707 69.2985 13.8709C69.1327 13.632 68.9177 13.4277 68.7174 13.2141C68.5555 13.0416 68.4388 12.8519 68.4069 12.6144C68.4016 12.5772 68.4016 12.5347 68.383 12.5029C68.1349 12.0757 68.1402 11.5834 68.0434 11.119C68.0049 10.9386 68.0832 10.7329 68.0474 10.5511C67.977 10.1916 68.0858 9.95938 68.4016 9.76832C68.6113 9.64095 68.6272 9.45917 68.4826 9.23361C68.1323 8.68431 68.2875 8.10183 68.3446 7.52466C68.3512 7.45965 68.4268 7.4026 68.464 7.33758C68.586 7.12131 68.7068 6.90371 68.8262 6.68744C68.8381 6.66488 68.8395 6.63304 68.8567 6.61844C69.2667 6.24428 69.4206 5.65252 69.9208 5.35929C70.1371 5.23191 70.3786 5.14434 70.5365 4.9347C70.9624 4.87898 71.3286 4.69057 71.6656 4.43317C71.6908 4.41326 71.7439 4.41326 71.7771 4.42388C72.0504 4.51941 72.2985 4.50614 72.5015 4.27129C72.5161 4.25404 72.5479 4.24741 72.5718 4.24608C73.1503 4.19168 73.7315 4.09085 74.2993 4.31773C74.4161 4.36417 74.5422 4.38673 74.6616 4.42786C74.8632 4.49553 75.0609 4.57514 75.2639 4.63882C75.4444 4.69588 75.6262 4.74762 75.8106 4.7861C76.0879 4.84448 76.3108 4.95593 76.401 5.25314C76.4594 5.4442 76.6001 5.57158 76.7765 5.66446C77.3643 5.97228 77.7226 6.45126 77.8712 7.10273C77.9229 7.33227 78.0569 7.54191 78.1392 7.76482C78.167 7.84177 78.1538 7.93332 78.1604 8.01824C78.175 8.20532 78.1445 8.41231 78.2175 8.57418C78.3833 8.94702 78.2374 9.27607 78.1087 9.59451C77.964 9.95142 77.7942 10.3044 77.2887 10.2871C77.1348 10.2818 76.9795 10.4516 76.819 10.5273C76.6319 10.6162 76.4687 10.6215 76.3148 10.4278C76.1423 10.2102 76.0348 10.2062 75.7947 10.368C75.4603 10.5923 75.1406 10.7024 74.7903 10.3893C74.7359 10.3402 74.6005 10.3813 74.5037 10.3787C74.3299 10.3747 74.1547 10.3826 73.9836 10.3601C73.8469 10.3415 73.7394 10.3335 73.5922 10.3906C73.3268 10.4941 73.0282 10.5286 72.7403 10.5472C72.5917 10.5565 72.4365 10.4702 72.2255 10.4105L72.2229 10.4079ZM72.4139 9.25882C72.4484 9.24821 72.4723 9.23759 72.4975 9.23494C73.2804 9.13012 74.0632 9.02397 74.846 8.92579C75.0105 8.90456 75.1896 8.8621 75.1923 8.69359C75.195 8.45344 75.3515 8.42027 75.5054 8.38577C75.7376 8.3327 75.9751 8.30749 76.21 8.27034C76.2352 7.83779 76.1065 7.48619 75.7363 7.28053C75.5638 7.185 75.5333 7.0616 75.4829 6.8984C75.4019 6.63967 75.3184 6.34246 75.1352 6.166C74.8871 5.92584 74.5607 5.74274 74.2357 5.61404C73.9132 5.48666 73.5431 5.37786 73.21 5.41236C72.8823 5.44686 72.5042 5.54637 72.3197 5.91788C72.2255 6.10894 72.1074 6.25091 71.8421 6.16865C71.5157 6.06781 71.2782 6.22305 71.1176 6.50036C71.1481 6.69009 71.3326 6.844 71.1959 7.05762C70.8629 7.09345 70.5259 7.1306 70.218 7.16509C70.1039 7.46761 69.9553 7.72103 69.9182 7.98905C69.8691 8.34862 69.6767 8.61266 69.4856 8.88864C69.3569 9.07439 69.3874 9.27076 69.5971 9.35303C69.7576 9.41539 69.946 9.44192 70.1172 9.42998C70.4595 9.40477 70.7992 9.33976 71.1389 9.29199C71.5811 9.23096 71.9752 9.31013 72.3211 9.52949C72.3542 9.43529 72.3847 9.34506 72.4153 9.26015L72.4139 9.25882Z" fill="white"/>
<path d="M146.402 13.5418C146.839 13.6227 146.837 14.0208 147.023 14.2782C146.894 14.4255 146.77 14.5674 146.646 14.7107C146.658 14.724 146.671 14.7373 146.683 14.7505C146.831 14.6669 146.979 14.582 147.138 14.4918C147.324 15.0942 147.147 15.6116 146.68 15.8797C146.517 15.9739 146.334 16.0641 146.152 16.0866C145.479 16.1689 144.811 16.1609 144.195 15.8146C144.094 15.7576 143.932 15.7496 143.967 15.5625C143.97 15.5453 143.924 15.5002 143.898 15.4975C143.501 15.4537 143.252 15.1698 142.982 14.9296C142.74 14.7134 142.51 14.4799 142.298 14.2331C142.12 14.0274 142.048 13.7873 142.088 13.4954C142.156 12.9872 142.51 12.7815 142.919 12.6104C143.058 12.552 143.196 12.4896 143.333 12.4273C143.455 12.3715 143.552 12.2428 143.715 12.3092C143.739 12.3198 143.789 12.2959 143.813 12.2733C144.182 11.9337 144.552 11.7864 145.099 11.7585C145.199 11.7532 145.302 11.7426 145.401 11.7267C145.917 11.6444 146.406 12.0133 146.445 12.5347C146.463 12.7722 146.433 13.0097 146.545 13.2379C146.602 13.356 146.609 13.4927 146.402 13.5431V13.5418Z" fill="white"/>
<path d="M147.073 13.6161C147.292 13.5551 147.435 13.5139 147.604 13.4662C147.44 13.4113 147.271 13.4228 147.096 13.5007C146.887 13.1982 147.085 12.9434 147.234 12.7271C147.421 12.4551 147.702 12.2813 148.015 12.1433C148.421 11.9642 148.828 11.9151 149.262 11.9563C149.632 11.9921 149.951 12.2203 149.997 12.5414C150.013 12.6555 149.975 12.7829 149.942 12.8983C149.764 13.5153 149.282 13.8961 148.83 14.2954C148.692 14.4175 148.518 14.4958 148.361 14.5966C148.165 14.724 147.965 14.6736 147.784 14.5834C147.398 14.3896 147.25 14.0195 147.074 13.6148L147.073 13.6161ZM148.096 13.2871L148.073 13.3614C148.186 13.3919 148.299 13.4224 148.412 13.4516C148.418 13.4317 148.425 13.4118 148.43 13.3919C148.319 13.356 148.207 13.3216 148.096 13.2857V13.2871Z" fill="white"/>
<path d="M144.686 9.63568C144.593 9.65293 144.499 9.66885 144.394 9.68742C144.387 9.63833 144.369 9.59853 144.379 9.56934C144.569 9.03861 144.962 8.6525 145.388 8.33008C145.794 8.02226 146.42 8.2173 146.688 8.62464C146.721 8.67506 146.765 8.74671 146.752 8.79713C146.683 9.07443 146.708 9.35705 146.63 9.64497C146.485 10.1757 146.193 10.6096 145.929 11.0647C145.804 11.2796 145.534 11.3433 145.332 11.3367C145.051 11.3274 144.743 11.2199 144.61 10.92C144.499 10.6679 144.411 10.3999 144.35 10.1306C144.289 9.85726 144.31 9.85328 144.581 9.76438C144.624 9.74978 144.663 9.72457 144.705 9.70335C144.698 9.68079 144.69 9.65823 144.683 9.63568H144.686ZM146.299 8.88868C146.282 8.87673 146.265 8.86612 146.248 8.85418C146.217 8.90194 146.187 8.95104 146.156 8.9988C146.173 9.00411 146.203 9.02003 146.208 9.01472C146.241 8.97492 146.269 8.93113 146.299 8.88868Z" fill="white"/>
<path d="M148.903 10.9412C148.842 11.0872 148.818 11.2689 148.714 11.3724C148.369 11.7227 148.011 12.073 147.451 12.0106C147.433 12.008 147.411 12.0372 147.391 12.0531C147.151 12.2402 147.019 12.1951 146.863 11.8368C146.98 11.866 147.072 11.8886 147.216 11.9244C147.06 11.6431 146.883 11.7904 146.728 11.8063C146.403 11.4149 146.419 10.8802 146.765 10.5219C146.781 10.506 146.827 10.4914 146.827 10.4901C146.687 10.1902 146.983 10.0655 147.089 9.8718C147.171 9.72319 147.306 9.59316 147.446 9.491C147.797 9.23492 147.963 9.25615 148.316 9.57326C148.292 9.47375 148.275 9.39945 148.256 9.31984C148.716 9.30657 148.968 9.46977 149.054 9.86251C149.118 10.1571 149.192 10.4596 149.037 10.7541C148.992 10.8165 148.946 10.8789 148.903 10.9412ZM148.591 9.98988C148.571 9.99784 148.55 10.0058 148.53 10.0138C148.591 10.1478 148.652 10.2831 148.712 10.4171C148.726 10.4118 148.739 10.4065 148.754 10.4025C148.7 10.2659 148.645 10.1279 148.591 9.99121V9.98988Z" fill="white"/>
<path d="M144.116 10.591C144.067 11.1045 143.987 11.5729 143.491 11.8382C143.418 11.8767 143.373 11.9683 143.31 12.032C143.028 12.3252 142.649 12.3676 142.31 12.1487C142.246 12.1076 142.181 12.0704 142.12 12.024C141.63 11.6525 141.523 11.2213 141.802 10.672C142.059 10.1638 142.419 9.74452 142.929 9.47119C143.491 9.17 143.964 9.42077 144.033 10.0484C144.055 10.2368 144.09 10.4238 144.116 10.591Z" fill="white"/>
<path d="M6.82788 5.94971C6.9725 6.08239 7.02292 6.15802 6.92607 6.24824C6.90882 6.26416 6.83319 6.24824 6.83319 6.24559C6.82655 6.16996 6.82921 6.09433 6.82921 5.94971H6.82788Z" fill="white"/>
<path d="M148.903 10.9412C148.948 10.8789 148.993 10.8165 149.037 10.7542C149.02 10.8391 149.002 10.9227 148.986 11.0076C148.959 10.985 148.931 10.9638 148.903 10.9412Z" fill="white"/>
<path d="M60.2722 8.30356C60.0759 8.37786 59.9551 8.4243 59.8171 8.47737C59.8291 8.12046 59.853 8.10984 60.2722 8.30356Z" fill="white"/>
</g>
<defs>
<clipPath id="clip0_1281_442">
<rect width="150" height="15.9152" fill="white" transform="translate(0 0.724731)"/>
</clipPath>
</defs>
</svg>
