<svg width="150" height="57" viewBox="0 0 150 57" fill="none" xmlns="http://www.w3.org/2000/svg">
<g clip-path="url(#clip0_1326_81)">
<path d="M51.8368 19.1331C52.1529 19.5129 52.2756 19.9435 52.3159 20.3991C52.384 21.1632 52.2461 21.8979 51.9541 22.604C51.7463 23.1077 51.3907 23.4956 50.8757 23.6694C50.1744 23.9057 49.4624 24.1215 48.7396 24.2766C46.5729 24.7429 44.4377 25.3153 42.3346 26.0107C42.1618 26.0678 41.9862 26.1177 41.8089 26.1578C40.786 26.3923 40.1734 27.0111 39.8733 28.0221C38.932 31.1926 37.8294 34.3104 36.6633 37.406C35.2768 41.0837 33.7586 44.7089 32.2091 48.3207C31.283 50.4783 30.3157 52.6181 29.3797 54.7712C29.2077 55.168 28.9498 55.4773 28.6139 55.7332C27.8929 56.2807 27.0788 56.557 26.1714 56.4893C25.6152 56.4474 25.059 56.3689 24.51 56.2691C24.2735 56.2263 24.038 56.113 23.8311 55.9855C23.3214 55.6726 23.1378 55.1635 23.3689 54.6134C23.7549 53.6933 24.1526 52.7759 24.5888 51.878C26.0505 48.8663 27.5678 45.8813 28.9937 42.8544C30.7017 39.2283 32.3399 35.5684 33.6467 31.7739C33.824 31.2594 33.9897 30.7405 34.1608 30.2234C34.1733 30.1869 34.1814 30.1485 34.193 30.1111C34.2772 29.8391 34.3211 29.5619 34.0712 29.3577C33.8151 29.1482 33.5688 29.2944 33.3108 29.4112C32.0658 29.9738 30.8164 30.5248 29.5642 31.0713C29.2185 31.222 28.8665 31.362 28.5082 31.4779C27.5651 31.7828 27.0796 31.4957 26.9354 30.5248C26.8289 29.8115 26.888 29.1009 27.1325 28.4153C27.3143 27.9071 27.6547 27.5442 28.1822 27.3989C30.3148 26.8113 32.2727 25.7923 34.2987 24.9444C34.6346 24.8035 34.9624 24.6421 35.3019 24.5102C35.5258 24.4228 35.6512 24.2855 35.7273 24.0537C36.674 21.1837 37.5778 18.3021 38.3176 15.3715C38.7242 13.7613 39.0664 12.1386 39.2123 10.4803C39.2831 9.67789 39.3243 8.87636 39.1855 8.07573C38.9275 6.57966 38.0713 5.83162 36.5451 5.77991C35.7578 5.75317 34.9884 5.88512 34.2217 6.04739C32.1428 6.48872 30.1921 7.27331 28.3085 8.23888C25.7191 9.56555 23.2883 11.1481 20.9327 12.8421C18.99 14.2392 17.0338 15.6247 15.1753 17.127C13.3876 18.5723 11.7127 20.1566 9.99659 21.6883C8.41574 23.0988 6.84474 24.5209 5.26747 25.9358C4.53571 26.592 3.692 26.7409 2.79902 26.3611C1.60061 25.852 0.744357 24.9595 0.182774 23.7996C-0.126231 23.1612 -0.0312905 22.5202 0.379821 21.9585C0.669121 21.5635 0.994248 21.1801 1.36326 20.8583C2.32252 20.0211 3.31582 19.2213 4.29388 18.4047C7.42424 15.7905 10.7803 13.4903 14.2358 11.3291C17.5372 9.2642 20.9434 7.38921 24.484 5.76208C27.1594 4.5326 29.8894 3.4413 32.7447 2.69416C34.4752 2.24124 36.2253 1.90244 38.0283 1.95861C38.8935 1.98536 39.748 2.09859 40.5352 2.47751C41.8537 3.11142 42.6705 4.18666 43.1407 5.5383C43.5107 6.60284 43.619 7.71107 43.6351 8.83178C43.662 10.7068 43.4659 12.5648 43.1148 14.3997C42.6965 16.5885 42.1985 18.7631 41.7399 20.9439C41.7032 21.1186 41.6772 21.305 41.6969 21.4806C41.7426 21.8872 42.0077 22.069 42.4126 21.9879C42.5899 21.9522 42.761 21.8818 42.9347 21.8292C45.7364 20.9777 48.5389 20.1263 51.3406 19.2757C51.5009 19.2276 51.6612 19.1821 51.8359 19.1313L51.8368 19.1331Z" fill="white"/>
<path d="M64.4935 25.6478C64.8293 26.7516 64.8795 27.8393 64.3296 28.8923C63.9838 29.5538 63.4196 29.9827 62.7254 30.2448C62.0958 30.4829 61.4401 30.5747 60.7711 30.5658C59.5467 30.5488 58.3214 30.5355 57.0979 30.4927C55.4839 30.4365 53.8709 30.3536 52.2569 30.2796C51.9317 30.2644 51.6075 30.2216 51.2833 30.2163C50.9277 30.21 50.582 30.2805 50.2667 30.4526C49.7947 30.7102 49.5833 31.2033 49.7311 31.7052C49.826 32.0271 50.0275 32.2232 50.3706 32.3133C52.6931 32.9249 55.0504 33.006 57.4284 32.7929C58.557 32.6922 59.6855 32.587 60.8132 32.4854C60.9171 32.4755 61.021 32.472 61.1258 32.4684C61.7805 32.4452 62.1952 32.6895 62.4334 33.2967C62.8078 34.2507 62.6573 34.8222 61.853 35.358C61.338 35.7004 60.7648 35.9679 60.1925 36.2104C59.4983 36.5046 58.78 36.7409 58.0688 36.995C57.3263 37.2598 56.634 37.6084 56.0339 38.1255C55.6962 38.4161 55.415 38.7496 55.1866 39.1347C54.7728 39.832 55.2726 40.8528 56.1942 40.7984C56.6313 40.7726 57.0406 40.6638 57.4419 40.5069C58.4423 40.1173 59.364 39.5779 60.2498 38.9841C61.8701 37.8981 63.4778 36.7926 65.0837 35.6852C66.609 34.6341 68.1953 33.6961 69.9337 33.0319C71.0059 32.6227 72.0914 32.2509 73.2397 32.135C73.7009 32.0886 74.1783 32.0993 74.6378 32.1608C75.3095 32.25 75.7636 32.6351 76.0001 33.2904C76.1533 33.7148 76.3396 34.1366 76.576 34.5199C77.0633 35.3117 77.6508 35.3544 78.2706 34.6546C78.6056 34.2756 78.8994 33.8611 79.2057 33.4581C80.1193 32.2589 81.0517 31.0758 82.1354 30.021C82.7328 29.4388 83.3723 28.9083 84.0987 28.4893C84.6558 28.1683 85.2452 27.9347 85.8874 27.8465C87.0177 27.6913 88.0002 28.0399 88.8655 28.7363C89.2846 29.0733 89.4091 29.5779 89.4709 30.0888C89.5677 30.8957 89.4691 31.6936 89.3294 32.4871C89.0303 34.1883 88.509 35.8341 88.0853 37.504C87.8784 38.3198 87.7011 39.1437 87.5426 39.971C87.4799 40.2982 87.4843 40.6433 87.5005 40.9776C87.5282 41.5491 87.7611 41.7997 88.3397 41.8505C88.7132 41.8835 89.0938 41.8487 89.47 41.8353C90.0656 41.8139 90.5699 41.9914 90.9541 42.4648C91.4163 43.0345 91.3787 43.6283 90.8341 44.1169C90.458 44.4548 90.0074 44.6643 89.5193 44.7713C88.4158 45.0138 87.3007 45.0833 86.1847 44.8649C84.4131 44.5181 83.4547 43.4357 83.2783 41.6374C83.1699 40.5292 83.2953 39.437 83.4709 38.3475C83.6151 37.4514 83.7808 36.5599 83.9268 35.6638C83.9617 35.4481 83.9841 35.2216 83.9554 35.0067C83.9294 34.8088 83.8614 34.5984 83.753 34.4317C83.5703 34.149 83.2944 34.0795 83.0051 34.2569C82.7319 34.4245 82.457 34.6216 82.2519 34.8632C81.7413 35.4668 81.2469 36.0882 80.7865 36.731C79.5774 38.4206 78.387 40.1226 77.1958 41.8237C76.602 42.6716 75.8729 43.3822 75.074 44.0393C73.6176 45.2385 71.6884 44.297 71.2145 42.9489C70.9924 42.3177 70.9029 41.6677 70.8957 41.0017C70.884 39.9541 71.1232 38.9439 71.3444 37.9302C71.4241 37.5629 71.5155 37.1982 71.5898 36.83C71.7098 36.2371 71.2647 35.819 70.6834 36.0133C70.3296 36.1319 69.9893 36.3138 69.6749 36.5171C68.8992 37.0172 68.146 37.5531 67.3748 38.0604C66.2337 38.8111 65.0604 39.5146 63.9462 40.3009C62.5758 41.2683 61.2592 42.3096 59.905 43.2993C59.3183 43.7281 58.7164 44.1445 58.0841 44.5011C56.7737 45.2403 55.3541 45.4097 53.8852 45.1333C52.1915 44.8141 51.0647 43.59 50.8148 41.8835C50.6375 40.6709 50.8516 39.5529 51.5806 38.5632C52.0419 37.9374 52.5578 37.3525 53.0531 36.7516C53.1436 36.6419 53.2493 36.5438 53.3541 36.4466C53.526 36.2861 53.6487 36.1052 53.5556 35.8627C53.4642 35.6255 53.2555 35.5613 53.0209 35.5417C51.8878 35.4472 50.7781 35.2278 49.6926 34.8953C48.6894 34.5886 47.7364 34.1776 46.9267 33.4937C45.9361 32.6583 45.5071 31.5956 45.6737 30.3108C45.7749 29.5307 46.1583 28.8968 46.753 28.3859C47.4077 27.8233 48.1816 27.4916 48.9966 27.2429C50.2882 26.8497 51.6183 26.6678 52.9618 26.625C54.6277 26.5724 56.2954 26.5564 57.9632 26.5564C60.0751 26.5564 62.1441 26.2826 64.1701 25.6897C64.2445 25.6675 64.3206 25.6505 64.3967 25.6327C64.4084 25.63 64.4218 25.6363 64.4953 25.6496L64.4935 25.6478Z" fill="white"/>
<path d="M130.626 25.1281C130.7 25.852 130.637 26.5189 130.456 27.1724C129.911 29.1366 128.443 30.3206 126.385 30.3625C125.15 30.3875 123.911 30.3046 122.676 30.2421C121.531 30.1842 120.389 30.0843 119.246 30.013C118.974 29.9961 118.696 29.9934 118.428 30.0317C118.214 30.062 117.99 30.1298 117.806 30.2404C117.074 30.6826 117.115 31.6776 117.872 32.0788C117.986 32.1394 118.111 32.1876 118.236 32.2161C120.698 32.7885 123.183 33.2343 125.7 33.4893C126.075 33.5276 126.456 33.5552 126.821 33.6399C127.133 33.7122 127.455 33.8147 127.721 33.985C128.336 34.3782 128.495 35.079 128.168 35.7298C127.951 36.1604 127.607 36.4734 127.209 36.731C126.534 37.1679 125.782 37.4202 125.003 37.5941C124.353 37.7394 123.712 37.9088 123.118 38.2173C122.473 38.5525 121.907 38.9787 121.548 39.6305C121.341 40.0094 121.255 40.4133 121.392 40.8305C121.581 41.3985 121.98 41.7355 122.585 41.8086C123.128 41.8737 123.648 41.7676 124.159 41.5946C125.268 41.2193 126.265 40.6308 127.214 39.9657C130.128 37.924 132.619 35.4552 134.674 32.5585C135.397 31.5394 136.02 30.4615 136.429 29.273C136.511 29.0332 136.528 28.8031 136.481 28.5508C136.231 27.2126 136.179 25.8734 136.512 24.5387C136.723 23.6962 137.084 22.9267 137.665 22.2705C138.086 21.7953 138.579 21.4244 139.203 21.2488C139.463 21.1757 139.711 21.1891 139.967 21.2827C141.062 21.6821 141.65 22.4836 141.665 23.6846C141.671 24.1874 141.614 24.693 141.565 25.1949C141.519 25.6594 141.439 26.1195 141.388 26.584C141.366 26.7891 141.366 26.9986 141.372 27.2054C141.384 27.6075 141.523 27.9597 141.796 28.2655C142.336 28.87 142.966 29.3711 143.609 29.8579C144.21 30.3126 144.815 30.7637 145.403 31.2363C145.623 31.4137 145.82 31.6303 145.991 31.8559C146.399 32.3917 146.41 32.842 146.018 33.3903C145.647 33.9074 145.229 34.3898 144.86 34.9078C144.401 35.5515 143.953 36.2059 143.538 36.8773C143.363 37.159 143.26 37.4907 143.162 37.8108C142.708 39.2729 144.194 40.218 145.245 39.988C145.763 39.8748 146.228 39.6519 146.676 39.3835C147.011 39.1829 147.345 38.9823 147.678 38.779C148.035 38.5615 148.379 38.5722 148.786 38.9252C149.206 39.2899 149.323 39.7687 149.219 40.3027C149.128 40.7735 148.898 41.1827 148.582 41.534C147.068 43.2208 145.176 43.9466 142.915 43.6952C141.931 43.5855 141.007 43.2815 140.175 42.7412C139.883 42.5513 139.6 42.3328 139.358 42.0832C138.688 41.3931 138.476 40.547 138.587 39.6082C138.692 38.7193 139.017 37.9008 139.413 37.1082C139.72 36.493 140.058 35.8939 140.374 35.2831C140.511 35.0183 140.639 34.7482 140.752 34.4727C140.905 34.1009 140.827 33.7559 140.562 33.4607C140.155 33.0069 139.625 32.7457 139.036 32.6601C138.61 32.5986 138.252 32.8215 138.009 33.179C137.533 33.8762 137.061 34.5752 136.598 35.2805C135.814 36.4743 135.05 37.6806 134.103 38.7594C132.435 40.6567 130.571 42.3195 128.34 43.5418C126.024 44.8114 123.548 45.4953 120.898 45.4534C119.441 45.4302 118.135 44.9523 117.099 43.8895C116.336 43.1076 115.971 42.1652 116.01 41.0677C116.039 40.276 116.338 39.5948 116.891 39.0474C117.332 38.6105 117.826 38.2253 118.316 37.8411C118.663 37.5691 119.044 37.34 119.407 37.0868C119.512 37.0128 119.62 36.9343 119.706 36.8389C119.902 36.6249 119.915 36.3771 119.701 36.1827C119.555 36.049 119.359 35.9438 119.168 35.8858C118.146 35.5791 117.111 35.3134 116.095 34.9907C115.198 34.7054 114.35 34.3068 113.611 33.7086C112.292 32.6405 111.904 30.9367 112.653 29.4772C112.981 28.8361 113.486 28.3556 114.082 27.9642C114.975 27.3766 115.969 27.0351 117 26.7891C118.273 26.4841 119.568 26.3647 120.873 26.3237C122.148 26.2835 123.427 26.2737 124.698 26.189C126.353 26.0794 127.964 25.6853 129.582 25.3483C129.922 25.2778 130.262 25.2083 130.628 25.1325L130.626 25.1281Z" fill="white"/>
<path d="M108.446 45.5764C107.155 45.5666 105.838 45.1787 104.651 44.3736C104.479 44.2568 104.297 44.1543 104.12 44.0455C103.532 43.6827 102.942 43.6996 102.34 44.0188C101.892 44.2559 101.441 44.4904 100.978 44.6955C100.091 45.0869 99.1683 45.349 98.1929 45.407C96.0379 45.5354 94.3657 44.6991 93.1834 42.9097C92.4517 41.8032 92.08 40.5621 91.9572 39.256C91.6769 36.2665 92.3513 33.4848 93.9026 30.9188C94.7222 29.5645 95.7907 28.4402 97.2184 27.7002C99.256 26.6446 101.286 26.7712 103.286 27.7992C103.817 28.072 104.253 28.475 104.4 29.0866C104.449 29.2926 104.448 29.5253 104.411 29.7348C104.345 30.1048 104.101 30.3527 103.722 30.3714C103.349 30.3901 102.969 30.3598 102.6 30.3072C102.15 30.2439 101.713 30.1066 101.247 30.1646C100.526 30.2546 99.9018 30.5533 99.3411 30.9982C98.4786 31.682 97.857 32.5558 97.3635 33.5249C96.561 35.0994 96.2305 36.7747 96.3398 38.5329C96.3854 39.2738 96.5305 39.9969 96.8682 40.6718C97.497 41.9271 98.6774 42.4514 100.031 42.0627C101.001 41.7836 101.724 41.1684 102.294 40.3624C102.883 39.5306 103.216 38.5953 103.369 37.595C103.629 35.8912 103.876 34.1847 104.139 32.4809C104.5 30.1467 105.012 27.8465 105.655 25.572C107 20.8182 108.446 16.0955 110.03 11.4156C110.936 8.73816 111.858 6.06521 112.987 3.46983C113.255 2.85286 113.577 2.25818 113.882 1.65725C114.06 1.30686 114.345 1.06881 114.712 0.926159C115.663 0.556154 116.627 0.347525 117.648 0.63283C118.689 0.924376 119.196 1.66795 118.949 2.71734C118.79 3.39405 118.538 4.05471 118.276 4.70199C117.352 6.98621 116.416 9.26598 115.466 11.5395C114.016 15.0122 112.725 18.5428 111.583 22.127C110.694 24.9185 109.761 27.6967 108.89 30.4936C108.23 32.6111 107.674 34.7589 107.39 36.9646C107.271 37.8794 107.19 38.7995 107.355 39.7151C107.42 40.0807 107.525 40.4516 107.682 40.7868C107.947 41.3556 108.426 41.6686 109.058 41.7435C109.729 41.8237 110.352 41.6695 110.948 41.3779C111.217 41.2469 111.478 41.0998 111.753 40.9821C112.729 40.5657 113.78 41.2237 113.853 42.2865C113.886 42.7777 113.71 43.2039 113.428 43.5899C112.938 44.2604 112.268 44.7035 111.516 45.0245C110.583 45.423 109.608 45.6317 108.446 45.5728V45.5764Z" fill="white"/>
<path d="M149.984 25.8574C149.984 25.8966 149.98 25.9358 149.984 25.9742C150.088 26.839 149.651 27.4364 148.991 27.9053C148.295 28.401 147.524 28.4768 146.726 28.1969C145.656 27.8206 145.021 26.7873 145.103 25.5926C145.177 24.5254 145.973 23.6311 147.056 23.402C148.151 23.1693 149.269 23.6686 149.799 24.6537C149.905 24.8508 149.943 25.0906 149.978 25.3162C150.006 25.4927 149.984 25.6773 149.985 25.8592L149.984 25.8574ZM149.746 25.8253C149.745 24.6288 148.786 23.6757 147.585 23.6757C146.385 23.6757 145.425 24.6297 145.423 25.8253C145.421 27.0512 146.375 27.9972 147.605 27.99C148.812 27.9829 149.748 27.0369 149.746 25.8253Z" fill="white"/>
<path d="M146.568 24.487C147.102 24.487 147.569 24.4692 148.034 24.4932C148.371 24.5102 148.63 24.6733 148.708 25.0353C148.787 25.4107 148.679 25.6407 148.316 25.8752C148.296 25.8877 148.287 25.9144 148.252 25.9617C148.709 26.2229 148.676 26.6758 148.697 27.1546C148.568 27.1644 148.446 27.1733 148.276 27.1867C148.263 27.0209 148.254 26.8845 148.244 26.7489C148.209 26.304 148.054 26.1551 147.604 26.14C147.437 26.1346 147.27 26.1391 147.056 26.1391V27.151C146.888 27.1653 146.766 27.1751 146.595 27.1894C146.536 26.2791 146.577 25.3937 146.569 24.4879L146.568 24.487ZM147.073 25.7851C147.372 25.7637 147.655 25.7673 147.926 25.7165C148.155 25.6737 148.24 25.5195 148.243 25.2921C148.244 25.063 148.157 24.9248 147.935 24.8588C147.661 24.7777 147.381 24.7652 147.073 24.8035V25.7851Z" fill="white"/>
</g>
<defs>
<clipPath id="clip0_1326_81">
<rect width="150" height="56" fill="white" transform="translate(0 0.5)"/>
</clipPath>
</defs>
</svg>
