<svg width="150" height="29" viewBox="0 0 150 29" fill="none" xmlns="http://www.w3.org/2000/svg">
<g clip-path="url(#clip0_1281_295)">
<path d="M9.93739 27.7902C11.4364 26.6447 13.3279 23.3943 14.3379 20.2723C13.5621 20.6511 12.9101 20.9885 12.2421 21.2915C9.64356 22.4623 7.01516 23.4172 4.08146 22.6184C0.741443 21.7093 -0.468309 19.8247 0.16067 16.4273C1.73312 7.95672 9.0536 1.40524 17.6917 0.620164C22.5124 0.181715 27.2963 0.615573 32.0871 0.975973C34.7476 1.17798 37.4059 1.44426 40.0894 1.84828C39.1688 1.91026 38.2369 2.09161 37.3278 2.01356C31.589 1.51083 25.8891 1.91944 20.2168 2.75043C16.3075 3.32202 13.321 5.48901 10.9268 8.49847C8.72075 11.2715 7.15519 14.3613 6.62492 17.9056C6.61344 17.9814 6.57442 18.0617 6.59049 18.1283C6.79938 19.0144 6.75347 20.2103 7.31817 20.6786C7.74974 21.039 9.08804 20.7016 9.79507 20.2907C13.5873 18.0778 16.3029 14.8525 18.2128 10.9432C18.6444 10.0594 19.0071 9.14122 19.4134 8.21382H25.3015C24.9112 9.04481 24.5439 9.80923 24.195 10.5805C22.5721 14.1708 20.9101 17.7472 19.3491 21.3627C17.8019 24.9437 15.1184 27.0074 11.2895 27.6571C10.89 27.7236 10.4814 27.7397 9.93969 27.7902H9.93739Z" fill="white"/>
<path d="M63.722 8.66148C61.858 8.6523 60.5312 9.60954 59.388 10.8905C57.5309 12.9702 56.2637 15.3599 55.6761 18.0893C55.6279 18.3119 55.5292 18.5599 55.5843 18.7596C55.7978 19.524 55.8597 20.4858 56.3647 20.9794C57.0695 21.6703 58.1163 21.2778 58.7475 20.6626C59.9068 19.5355 61.2015 18.4084 61.9406 17.0173C63.5016 14.079 64.7297 10.9639 66.1208 7.93609C66.736 6.59549 67.3925 5.27096 68.0835 3.96709C69.5251 1.25606 71.9974 0.624781 74.7383 0.693648C71.5452 6.64599 68.9902 12.8738 66.3251 19.0534C66.2494 19.2279 66.1208 19.423 66.1507 19.5883C66.4123 21.1171 65.2439 21.3512 64.227 21.7048C63.0884 22.1019 61.9383 22.4692 60.7906 22.8479L60.6138 22.6C61.0408 22.0835 61.47 21.567 61.897 21.0482C61.8603 20.9885 61.8236 20.9312 61.7868 20.8715C61.3553 21.0551 60.9076 21.2112 60.4921 21.427C58.759 22.3269 56.9478 22.7584 54.9782 22.5564C51.8517 22.2373 50.4124 20.4009 50.9932 17.3432C51.8884 12.6557 56.9685 7.88788 62.4066 8.40667C62.8474 8.44799 63.2812 8.57195 63.7174 8.65689L63.722 8.66148Z" fill="white"/>
<path d="M116.416 10.2959C118.172 9.68297 120.018 9.04021 121.864 8.39746L122.091 8.72802C121.788 9.16417 121.483 9.60033 120.991 10.3074C121.611 10.0158 121.988 9.84824 122.355 9.6669C124.37 8.66833 126.464 8.27809 128.677 8.86575C130.802 9.43046 131.831 10.9203 131.624 13.1056C131.135 18.2568 125.743 22.9627 120.576 22.7285C120.089 22.7056 119.607 22.5862 118.921 22.4783C123.239 21.8631 124.788 18.6815 126.154 15.4356C126.652 14.2534 126.824 12.8692 126.843 11.5722C126.863 10.165 125.674 9.46718 124.474 10.2132C123.31 10.9363 122.061 11.8477 121.407 12.9931C119.968 15.5136 118.879 18.2339 117.647 20.8714C116.83 22.6184 116.067 24.3951 115.181 26.1076C114.288 27.8315 112.828 28.736 110.827 28.7222C110.145 28.7176 109.463 28.8278 109.013 28.8645C110.342 25.9148 111.784 22.9283 113.042 19.866C114.295 16.8152 116.093 13.9343 116.414 10.2959H116.416Z" fill="white"/>
<path d="M134.911 10.1742C136.569 9.59799 138.485 8.92999 140.405 8.26428C140.464 8.3584 140.522 8.45481 140.581 8.54893C140.29 8.96442 139.996 9.37762 139.507 10.0732C140.163 9.81377 140.554 9.68522 140.923 9.51076C142.645 8.68437 144.419 8.32167 146.35 8.61091C148.829 8.98279 150.073 10.3395 150 12.8186C149.853 17.8229 143.804 23.7684 137.781 22.4025C141.736 21.2111 145.356 16.3584 145.349 12.1001C145.349 11.4252 145.014 10.4244 144.518 10.1604C143.967 9.86657 142.93 10.0273 142.324 10.3739C140.627 11.3449 139.479 12.9013 138.694 14.6551C137.519 17.2789 136.47 19.9578 135.345 22.6045C134.976 23.4746 134.533 24.3124 134.135 25.171C132.772 28.1138 130.373 29.0229 127.517 28.6487C128.837 25.6852 130.235 22.6826 131.516 19.6318C132.774 16.6292 134.438 13.7552 134.914 10.1765L134.911 10.1742Z" fill="white"/>
<path d="M104.449 21.0321C101.816 22.5127 99.0664 23.3185 96.0799 22.9558C95.1065 22.8364 94.108 22.6688 93.1989 22.3245C91.6931 21.7552 91.2064 20.6212 92.0099 19.2278C92.57 18.2545 93.4147 17.3386 94.3467 16.705C95.786 15.7294 97.409 15.0247 98.947 14.1914C99.2798 14.0101 99.5874 13.7805 99.8973 13.5624C100.607 13.0666 100.685 12.6465 99.8583 12.1277C99.3258 11.7926 98.9194 11.26 98.4557 10.8147C98.9975 10.3142 99.4635 9.54981 100.099 9.36846C101.651 8.92313 103.274 8.57421 104.883 8.49845C107.734 8.36302 110.597 8.46172 113.694 8.46172C112.605 11.1062 111.625 13.4683 110.663 15.8396C109.979 17.5222 109.272 19.198 108.682 20.9128C108.531 21.3558 108.779 21.9343 108.855 22.5541C106.862 23.408 105.696 23.0935 104.452 21.0321H104.449ZM106.52 9.2973C106.375 9.30878 106.104 9.30419 105.843 9.3501C103.582 9.74723 102.868 11.2623 104.14 13.0344C104.573 13.6405 104.399 13.9641 103.846 14.3085C102.393 15.2129 100.903 16.0715 99.5346 17.093C98.7978 17.6439 98.155 18.4152 97.6936 19.2141C97.0256 20.3733 97.5008 21.1561 98.807 21.4453C100.049 21.7185 101.075 21.2341 101.989 20.5248C104.89 18.2752 106.931 15.3989 108.12 11.9349C108.216 11.6525 108.262 11.3449 108.283 11.0465C108.366 9.79085 107.897 9.2996 106.522 9.2996L106.52 9.2973Z" fill="white"/>
<path d="M36.7608 9.12062C32.1055 10.7 30.4756 14.3131 29.5551 18.413C29.3279 19.4253 29.0478 20.6993 30.1726 21.31C31.2791 21.9137 32.0756 20.8784 32.8148 20.2173C34.9451 18.3143 36.2811 15.9062 36.9881 13.1768C37.1327 12.619 36.9445 11.8362 36.6231 11.3381C36.2352 10.7344 36.2053 10.289 36.8159 10.0595C38.4458 9.45118 40.1009 8.89336 41.7835 8.46639C42.0681 8.39293 42.6374 9.00355 42.8968 9.40986C43.0667 9.67614 42.9886 10.1674 42.8899 10.5209C41.2854 16.1932 38.2805 20.6603 32.2616 22.4118C30.5055 22.9237 28.692 23.2038 26.8418 22.763C24.8998 22.2993 23.6923 21.0506 23.8071 19.0764C23.8897 17.6761 24.1445 16.1565 24.7965 14.9421C27.0117 10.8216 30.517 8.6661 35.3192 8.85663C35.7232 8.8727 36.1204 8.99896 36.7631 9.12062H36.7608Z" fill="white"/>
<path d="M65.0671 28.5386C65.8958 27.4781 66.6029 26.8537 66.9633 26.0709C69.1555 21.287 71.2674 16.4686 73.4 11.6595C73.439 11.5699 73.4045 11.446 73.4045 11.2807C72.81 11.2141 72.2361 11.1499 71.6462 11.0833C71.6875 10.9708 71.6944 10.9134 71.7104 10.9088C73.82 10.5645 74.6373 9.00123 75.4545 7.2681C76.678 4.66954 78.2252 2.29825 81.1589 1.21475C83.3144 0.418196 85.4171 0.636273 87.5359 1.26984C87.7264 1.32723 87.8894 1.47185 88.018 1.77257C87.5795 1.77257 87.1388 1.807 86.7026 1.76568C84.8937 1.59811 83.4636 2.27759 82.5179 3.77887C81.5009 5.39034 80.6149 7.08216 79.6714 8.73954C79.7632 8.84973 79.8527 8.95762 79.9446 9.0678C80.5942 9.01042 81.2438 8.95073 81.8935 8.89334L81.9991 9.07699C81.2668 9.45116 80.5093 9.78172 79.816 10.2179C79.4005 10.4796 78.9391 10.84 78.7532 11.2646C76.9695 15.3599 75.2157 19.4689 73.5124 23.5963C72.9271 25.0104 71.9951 26.1099 70.6292 26.6769C68.8984 27.3954 67.0688 27.8821 65.0694 28.5409L65.0671 28.5386Z" fill="white"/>
<path d="M94.666 13.8907C93.1922 15.0454 91.5601 15.8259 89.6824 15.9039C89.2439 15.9223 88.5139 15.7387 88.4175 15.4701C88.2683 15.0546 88.3877 14.3476 88.6792 14.0124C89.3449 13.2503 90.2034 12.6557 90.9518 11.9625C91.2755 11.6618 91.6864 11.3151 91.7667 10.9295C91.932 10.149 91.5188 9.62333 90.674 9.52921C89.462 9.39607 88.3877 10.0664 87.8781 11.205C86.6568 13.9367 85.4792 16.6913 84.1524 19.3725C83.3489 20.9977 82.433 22.685 80.2982 22.8916C79.256 22.9926 78.1932 22.9099 77.1257 22.9099C79.2652 20.1507 80.2798 16.8772 81.687 13.7989C82.316 12.4216 82.9082 11.0259 83.466 9.62103C83.7346 8.94155 84.1317 8.74643 84.8617 8.80611C85.6078 8.8658 86.3745 8.65231 87.1297 8.67756C87.738 8.69822 88.5415 7.97513 88.9661 9.05174C88.9868 9.10454 89.4459 8.97599 89.703 8.94844C91.3971 8.7648 93.0889 8.48933 94.7853 8.45949C95.3156 8.45031 96.181 9.01501 96.3096 9.47641C96.4588 10.0136 96.1191 10.8583 95.7127 11.3312C95.1848 11.9441 94.3515 12.2862 93.7064 12.8118C93.3919 13.0666 93.206 13.4775 92.9627 13.8196C93.3851 13.8724 93.8074 13.939 94.2344 13.9757C94.3744 13.9872 94.5237 13.9229 94.666 13.8953V13.8907Z" fill="white"/>
<path d="M47.185 22.8434C46.1198 22.4692 44.995 22.2075 44.001 21.6933C42.6008 20.9702 42.0452 19.6595 42.6627 18.2224C44.6484 13.5946 46.6753 8.98059 48.8469 4.43771C50.1278 1.75881 52.5772 0.790088 55.3135 0.810748C53.9339 3.84086 52.4624 6.91689 51.1241 10.048C49.6664 13.4592 48.3167 16.9163 46.9531 20.3665C46.6409 21.1562 46.4481 22.0032 47.4168 22.623C47.3388 22.6965 47.263 22.7722 47.185 22.8457V22.8434Z" fill="white"/>
</g>
<defs>
<clipPath id="clip0_1281_295">
<rect width="150" height="28.428" fill="white" transform="translate(0 0.436523)"/>
</clipPath>
</defs>
</svg>
