<svg width="150" height="131" viewBox="0 0 150 131" fill="none" xmlns="http://www.w3.org/2000/svg">
<g clip-path="url(#clip0_1326_180)">
<path d="M12.8901 93.9024C18.1977 97.5446 24.1416 98.9721 30.3101 99.4954C36.5827 100.027 42.8136 99.7341 48.3665 96.23C52.2723 93.7643 53.828 89.9756 53.2581 85.4668C52.7174 81.1967 49.7891 78.9151 45.8791 77.9565C43.4084 77.3494 40.8461 77.0857 38.3047 76.8303C35.7591 76.5708 33.1927 76.5331 30.6387 76.3572C27.5066 76.1437 26.1506 75.1223 26.1839 73.0835C26.2213 70.7977 28.5715 68.939 31.3042 68.9348C33.3091 68.9348 35.3473 69.0394 37.3064 68.7087C47.9755 66.9086 52.3971 56.8277 46.6279 47.626C46.5655 47.5214 46.5655 47.3791 46.4989 47.1027H53.5243V42.3135C52.9253 42.3889 52.4096 42.4475 51.8979 42.527C47.7468 43.1634 43.6413 43.1634 39.5733 41.8991C35.4471 40.618 31.2668 40.4799 27.0907 41.6772C21.5793 43.2596 17.5072 47.8354 16.9248 53.1479C16.2552 59.2558 18.6594 63.8399 23.8754 66.9755C24.2788 67.2184 24.6823 67.457 25.0733 67.6872C23.8629 68.6124 22.5984 69.3785 21.5835 70.3958C18.5554 73.4142 18.8257 78.1741 22.378 80.5353C24.0251 81.6321 26.1506 82.3019 28.1305 82.5364C33.072 83.1225 38.0676 83.2564 43.0216 83.7546C46.632 84.1188 48.3 85.605 48.4456 88.1001C48.5995 90.7166 46.5821 93.3205 43.5332 94.0322C30.3767 97.1008 15.4274 93.9443 7.14585 79.8403C0.415776 68.378 -1.62238 55.9653 1.29759 43.0085C3.83905 31.7429 11.139 23.7301 20.3606 17.3626C30.7718 10.1788 42.5973 6.58267 54.7722 4.00385C70.3162 0.71335 86.0766 0.198425 101.883 0.633809C112.248 0.918484 122.447 2.24976 131.923 6.89665C144.717 13.172 150.42 23.6925 149.975 37.8131C149.609 49.4471 145.645 60.0178 140.3 70.1153C130.055 89.4732 116.786 106.357 99.258 119.59C88.7553 127.519 76.9881 131.592 63.7234 130.249C52.1642 129.081 42.069 124.283 32.9764 117.187C25.1232 111.058 18.6926 103.644 13.539 95.1039C13.3061 94.7146 13.1064 94.3043 12.8901 93.9024ZM98.3346 58.0795V23.2571C95.2816 24.0525 92.4489 24.7893 89.9075 25.4507C90.2527 28.1886 90.6728 30.646 90.8475 33.116C91.0056 35.3348 90.9307 37.5703 90.8933 39.7975C90.6562 53.7549 91.459 67.7333 90.3567 81.7326H98.6882V61.8388C100.934 64.5349 103.106 67.2309 105.373 69.8432C108.284 73.1923 111.084 76.667 114.278 79.7273C118.18 83.4616 124.361 83.8425 128.574 80.9665C124.989 80.5729 122.214 78.71 119.939 76.2735C114.831 70.8019 109.911 65.1545 104.753 59.394C111.063 53.5875 117.194 47.9442 123.271 42.3512C120.825 42.3512 118.134 42.3093 115.451 42.3847C114.914 42.4014 114.282 42.7447 113.879 43.134C110.385 46.4999 106.945 49.9244 103.463 53.3028C101.895 54.8225 100.269 56.2835 98.3388 58.0795H98.3346ZM56.436 75.0595C56.436 76.6712 56.3611 78.1323 56.4776 79.5808C56.515 80.0706 56.9268 80.7865 57.3386 80.9455C64.4014 83.6625 71.5724 84.7007 78.681 81.2972C86.8503 77.3871 87.5324 68.4492 80.0453 63.3962C76.9007 61.2737 73.3943 59.6996 70.1498 57.7194C68.3363 56.6142 66.4437 55.4337 65.0711 53.8638C62.6919 51.1384 63.6028 47.7935 66.9345 46.412C68.1782 45.8971 69.6091 45.7296 70.9693 45.6375C75.0497 45.3612 78.6768 46.7678 82.333 49.3174C82.333 47.7809 82.2332 46.6088 82.358 45.4659C82.5285 43.875 81.9046 42.9373 80.3989 42.5689C78.1236 42.0079 75.8692 41.1874 73.5606 40.9781C68.9977 40.572 64.5761 41.179 60.8201 44.2141C55.4668 48.5387 55.3171 56.0826 60.8534 60.1643C64.0603 62.5296 67.7997 64.1497 71.2604 66.1718C72.8618 67.1095 74.5797 68.0012 75.8733 69.2906C79.0429 72.4472 77.8657 77.1192 73.5357 77.923C70.7031 78.4463 67.6167 78.2327 64.7467 77.7513C62.0097 77.2908 59.3975 76.0516 56.4401 75.0553L56.436 75.0595Z" fill="white"/>
<path d="M23.8547 54.0481C23.8796 48.497 27.1448 45.2232 32.6478 45.2316C38.4379 45.2358 42.2438 49.4222 42.1897 55.7269C42.144 61.4371 38.8289 64.8867 33.4174 64.8532C27.6897 64.8197 23.8255 60.4533 23.8547 54.0481Z" fill="white"/>
</g>
<defs>
<clipPath id="clip0_1326_180">
<rect width="150" height="130" fill="white" transform="translate(0 0.5)"/>
</clipPath>
</defs>
</svg>
