<svg width="150" height="151" viewBox="0 0 150 151" fill="none" xmlns="http://www.w3.org/2000/svg">
<path d="M75.0859 101.48C50.4287 101.517 30.9641 81.3331 30.9219 57.4041C30.8798 33.4611 50.3041 13.1629 75.0807 13.1664C99.8327 13.1717 119.217 33.4243 119.225 57.3041C119.234 81.2787 99.7572 101.503 75.0842 101.479L75.0859 101.48ZM72.108 19.1943C62.3335 19.7857 49.4478 25.1818 41.8791 38.3133C34.6299 50.8919 35.1195 66.5591 43.283 78.5692C50.1848 88.7227 59.8908 94.2557 72.108 95.542V19.1943ZM109.584 73.8628C112.259 68.2508 113.499 62.3844 113.327 56.2284C113.176 50.8323 111.932 45.6941 109.581 40.7929C100.034 46.3065 90.5215 51.7992 80.9524 57.3269C90.525 62.8564 100.031 68.3456 109.584 73.8628ZM78.0481 19.1224V52.2168C87.5979 46.7014 97.1021 41.214 106.669 35.688C99.58 25.8838 90.1003 20.3385 78.0481 19.1241V19.1224ZM106.638 78.95C97.0986 73.4416 87.5892 67.949 78.0428 62.4353V95.449C80.9857 95.7 88.6403 93.4836 93.0695 91.1005C98.5551 88.1471 103.062 84.0987 106.638 78.9483V78.95Z" fill="white"/>
<path d="M96.2686 126.58C96.2686 120.245 101.417 115.11 107.763 115.108C114.333 115.105 119.239 120.622 119.22 126.617C119.203 132.453 114.449 138.051 107.726 138.055C101.417 138.06 96.2668 132.894 96.2668 126.58H96.2686ZM114.593 126.59C114.601 122.824 111.532 119.748 107.758 119.741C104.002 119.732 100.919 122.788 100.903 126.532C100.887 130.33 103.944 133.411 107.735 133.418C111.509 133.425 114.584 130.363 114.593 126.592V126.59Z" fill="white"/>
<path d="M72.6677 126.569C72.6695 132.913 67.5295 138.058 61.1893 138.055C54.8772 138.051 49.7337 132.908 49.7215 126.587C49.7092 120.262 54.8684 115.107 61.2104 115.108C67.5383 115.108 72.666 120.24 72.6677 126.569ZM61.1963 119.739C57.4234 119.743 54.3525 122.816 54.3542 126.583C54.356 130.351 57.4305 133.418 61.2051 133.417C64.978 133.417 68.0542 130.339 68.049 126.575C68.042 122.803 64.9675 119.736 61.1963 119.739Z" fill="white"/>
<path d="M84.3251 126.503C88.2156 130.393 92.0043 134.18 95.8351 138.013C95.7035 138.034 95.6263 138.055 95.5508 138.055C93.6012 138.056 91.6533 138.062 89.7037 138.046C89.5335 138.046 89.3264 137.932 89.2001 137.807C86.9223 135.545 84.6533 133.273 82.386 130.999C82.2913 130.902 82.2299 130.772 82.1544 130.656C82.114 130.683 82.0737 130.707 82.0333 130.734V138.03H77.4971V115.122H82.0105V122.503C82.172 122.352 82.272 122.266 82.3632 122.175C84.634 119.904 86.9012 117.632 89.1773 115.366C89.3036 115.24 89.5089 115.121 89.6774 115.119C91.6516 115.101 93.6258 115.108 95.6 115.108C95.6474 115.108 95.6965 115.117 95.7246 115.119C91.9359 118.902 88.1437 122.689 84.3251 126.501V126.503Z" fill="white"/>
<path d="M30.9834 115.122H35.4653V122.409C35.5232 122.452 35.5829 122.495 35.6408 122.538C35.7022 122.416 35.7373 122.266 35.8285 122.173C38.0923 119.897 40.3613 117.627 42.6356 115.363C42.7549 115.244 42.9427 115.122 43.1006 115.121C45.0994 115.105 47.0964 115.11 49.0951 115.112C49.1302 115.112 49.1653 115.124 49.1653 115.124C45.3872 118.902 41.5967 122.691 37.7694 126.518C41.6493 130.388 45.4538 134.18 49.2566 137.974C49.2425 138.002 49.2267 138.03 49.2127 138.056H48.8547C46.9805 138.056 45.1081 138.053 43.234 138.062C42.9918 138.062 42.8181 137.995 42.6461 137.821C40.3824 135.545 38.1116 133.276 35.8443 131.004C35.7478 130.907 35.6759 130.79 35.5916 130.681C35.5583 130.7 35.5232 130.719 35.4899 130.737V138.03H30.9817V115.122H30.9834Z" fill="white"/>
</svg>
