<svg width="150" height="69" viewBox="0 0 150 69" fill="none" xmlns="http://www.w3.org/2000/svg">
<g clip-path="url(#clip0_1326_96)">
<path d="M150 0.725159C144.965 23.2752 139.952 45.7264 134.919 68.2748C134.21 67.838 133.594 67.4219 132.945 67.0648C127.235 63.9195 121.077 62.1037 114.63 61.2332C101.909 59.5163 89.7273 61.6605 77.9222 66.3713C76.9756 66.7492 76.0387 67.4538 75.0969 67.4554C74.1955 67.4554 73.3022 66.7173 72.3912 66.3379C61.2144 61.678 49.6048 59.6295 37.4814 60.7518C29.8456 61.4596 22.6119 63.5608 15.7854 67.017C15.4268 67.1987 15.0649 67.3757 14.7015 67.5495C14.632 67.5829 14.548 67.5909 14.3396 67.6419C9.56299 45.3502 4.78957 23.0727 0 0.725159H150ZM65.3562 31.8951C65.4209 31.6336 65.4968 31.4567 65.5032 31.2781C65.6664 26.8653 64.303 23.095 60.3405 20.7372C56.1309 18.2327 51.582 18.2359 47.0379 19.7711C43.5536 20.9477 41.2953 23.4123 40.4957 26.953C40.1161 28.6349 40.0062 30.4348 40.1306 32.1549C40.4941 37.1894 43.6473 40.6568 48.6178 41.7919C51.3284 42.4104 54.068 42.4949 56.7867 42.0262C58.2745 41.7696 59.78 41.32 61.1369 40.6728C63.7473 39.4245 65.0396 37.1719 65.5145 34.3007C63.2336 34.3007 61.0351 34.2912 58.8366 34.3198C58.6751 34.3214 58.4392 34.559 58.3714 34.7375C58.0257 35.6574 57.3731 36.3317 56.441 36.4991C55.244 36.7143 53.976 36.9104 52.7903 36.7462C50.574 36.4385 49.0588 34.1397 49.4368 31.8967H65.3562V31.8951ZM131.62 25.6761C131.645 24.3194 131.228 23.2545 130.485 22.3059C129.446 20.9811 128.058 20.1234 126.466 19.6356C122.555 18.4384 118.662 18.6201 114.841 20.0198C113.976 20.3371 113.157 20.8536 112.412 21.4036C108.947 23.9671 108.871 30.3359 113.812 32.2474C115.252 32.8038 116.788 33.1306 118.295 33.502C119.597 33.8241 120.93 34.0185 122.227 34.3549C122.854 34.5175 123.442 34.8794 123.4 35.6781C123.358 36.4736 122.867 37.0475 122.132 37.1177C121.033 37.2245 119.888 37.2436 118.807 37.0555C117.769 36.8738 117.069 36.1101 116.917 35.0197C116.854 34.5622 116.644 34.4729 116.229 34.4761C114.239 34.4904 112.25 34.4793 110.26 34.4841C110.112 34.4841 109.961 34.5446 109.826 34.5749C109.621 37.36 111.272 39.8406 114.129 40.9709C117.486 42.2988 120.972 42.1936 124.461 41.701C126.676 41.3886 128.724 40.6552 130.423 39.1232C133.029 36.7749 133.667 30.6627 128.793 28.6285C127.325 28.0164 125.724 27.6943 124.165 27.3133C122.579 26.9259 120.951 26.6932 119.382 26.25C118.954 26.1288 118.479 25.5358 118.374 25.0814C118.221 24.4166 118.856 24.0707 119.429 23.8698C120.851 23.374 122.311 23.323 123.673 23.9591C124.248 24.2269 124.639 24.8758 125.122 25.3413C125.256 25.4704 125.424 25.6617 125.579 25.6633C127.563 25.6856 129.546 25.6777 131.619 25.6777L131.62 25.6761ZM63.1981 19.3534C63.6359 20.2462 63.9929 20.9811 64.3579 21.7145C67.5418 28.12 70.7338 34.5207 73.9032 40.9342C74.1519 41.438 74.4411 41.6245 75.0097 41.6133C76.8641 41.5783 78.7202 41.5846 80.5763 41.6101C81.0496 41.6165 81.2838 41.4555 81.4873 41.0315C84.8505 34.0042 88.2315 26.9849 91.6044 19.964C91.6884 19.7903 91.7336 19.6005 91.8208 19.3487C89.7806 19.3487 87.8454 19.3949 85.9134 19.3263C85.1284 19.2992 84.7891 19.599 84.4919 20.2558C83.156 23.2114 81.7749 26.1464 80.4083 29.0877C79.9414 30.092 79.4665 31.0932 78.9253 32.241C78.7267 31.8488 78.6023 31.6209 78.494 31.3865C76.7398 27.6003 74.9919 23.8093 73.2199 20.0294C73.0939 19.76 72.7821 19.3869 72.5527 19.3837C69.4916 19.3407 66.4305 19.355 63.1981 19.355V19.3534ZM39.562 41.5017V35.9061H26.8668V19.6021H18.5008V41.5001H39.562V41.5017ZM101.553 41.5033V19.3726H93.2068V41.5033H101.553ZM105.261 24.4948C106.086 24.7291 106.598 24.5298 107.042 23.932C107.661 23.1014 108.383 22.3458 109.025 21.5311C109.209 21.2984 109.362 20.9716 109.37 20.6846C109.404 19.2275 109.38 17.7704 109.39 16.3133C109.393 15.9323 109.291 15.7234 108.848 15.7282C107.372 15.7442 105.894 15.7234 104.419 15.7489C104.241 15.7521 103.918 15.9562 103.915 16.0742C103.881 17.6253 103.893 19.1781 103.893 20.8377H106.537C106.085 22.1321 105.677 23.2991 105.261 24.4964V24.4948Z" fill="white"/>
<path d="M49.7017 27.833C49.4659 25.5565 50.7775 23.6897 52.6869 23.5829C54.7998 23.4633 56.0194 24.981 56.013 27.833H49.7017Z" fill="white"/>
</g>
<defs>
<clipPath id="clip0_1326_96">
<rect width="150" height="67.5497" fill="white" transform="translate(0 0.725159)"/>
</clipPath>
</defs>
</svg>
