<svg width="150" height="38" viewBox="0 0 150 38" fill="none" xmlns="http://www.w3.org/2000/svg">
<g clip-path="url(#clip0_1281_264)">
<path d="M84.8208 0.298096H92.5811C93.3697 3.41588 94.1535 6.51776 94.9373 9.61805C95.0025 9.61169 95.0677 9.60533 95.1328 9.60056C95.8944 6.51299 96.6576 3.427 97.4255 0.312405H105.273V17.8267H99.9741V7.99318C99.9232 7.98523 99.8739 7.97728 99.823 7.97092C98.9422 11.2429 98.0614 14.5165 97.1679 17.8378H92.9483C92.031 14.5292 91.1088 11.2048 90.131 7.67679V17.8267H84.8208V0.298096Z" fill="white"/>
<path d="M147.276 29.2994C149.28 30.6238 149.415 32.7447 149.574 34.8784C149.637 35.7337 149.849 36.578 150 37.4699H144.376C144.2 36.2377 143.969 34.9738 143.847 33.6987C143.691 32.0802 143.041 31.4188 141.424 31.4045C140.656 31.3981 139.89 31.4045 139.02 31.4045V37.4953H133.357V19.8364C137.147 19.8364 140.877 19.7649 144.604 19.865C146.59 19.9191 148.294 20.8046 149.133 22.7062C149.959 24.5743 149.69 26.444 148.52 28.1277C148.216 28.5633 147.736 28.8765 147.278 29.301L147.276 29.2994ZM139.052 27.4711C140.387 27.3614 141.696 27.3009 142.988 27.1245C143.613 27.0402 143.841 26.506 143.86 25.8796C143.879 25.2277 143.698 24.6156 143.043 24.5139C141.737 24.3119 140.407 24.2643 139.052 24.1482V27.4695V27.4711Z" fill="white"/>
<path d="M117.418 19.7394H132.37V24.49H123.15V26.2866H131.311V30.8098H123.104V32.6398H132.297V37.4381H117.418V19.741V19.7394Z" fill="white"/>
<path d="M110.793 19.7028H116.433V37.3904H110.771V30.5252H106.049V37.3936H100.462V19.6694H106.103V25.6522H110.795V19.7028H110.793Z" fill="white"/>
<path d="M9.7444 27.3438H17.1978V37.287H13.328V35.8991C12.1451 36.9023 10.8732 37.3045 9.53771 37.4651C6.39767 37.8435 3.77912 36.7958 1.8633 34.2901C-0.761614 30.8559 -0.594675 24.959 2.22897 21.7204C3.79025 19.9286 5.85552 19.0955 8.26262 18.9842C11.0036 18.8586 13.2994 19.7028 15.1357 21.7395C16.2153 22.9351 16.6493 24.4312 17.0372 25.9288H11.5616C11.1467 24.4168 10.4281 23.7793 9.18475 23.7221C7.61235 23.6489 6.41198 24.3389 6.02087 25.6983C5.48825 27.5473 5.46441 29.3964 6.35316 31.1802C7.42792 33.3346 10.6204 33.6478 11.9798 31.7208C12.0354 31.6429 12.0561 31.5412 12.1261 31.3679H9.74122V27.3438H9.7444Z" fill="white"/>
<path d="M93.9357 25.9192C93.4365 24.4502 92.667 23.8269 91.3442 23.8365C89.926 23.846 88.8131 24.6457 88.4108 26.056C87.9752 27.5807 87.9307 29.1372 88.4092 30.6603C89.0738 32.7748 91.5079 33.7383 93.419 32.6397C93.8196 32.4092 94.1074 31.9815 94.446 31.6444C94.4095 31.5824 94.3729 31.5188 94.3363 31.4568H92.1502V27.4789H99.4494V37.279H95.559C95.578 36.8497 95.5955 36.438 95.6146 36.0262C95.5288 36.0182 95.4604 35.9896 95.4302 36.0119C90.7925 39.5891 84.4154 37.3776 82.8446 31.5586C81.9574 28.2707 82.3168 25.0782 84.4663 22.3022C87.371 18.5517 92.7464 18.3498 96.0153 20.4277C97.4939 21.3674 98.4732 22.8094 98.9677 24.5297C99.0917 24.9605 99.1966 25.3946 99.335 25.9161H93.9389L93.9357 25.9192Z" fill="white"/>
<path d="M24.4558 19.5692H29.8757C32.0491 25.5059 34.2177 31.4314 36.4165 37.4348C34.4769 37.4348 32.6358 37.4476 30.7947 37.4126C30.6293 37.4094 30.402 37.1312 30.3225 36.934C30.0601 36.2869 30.0379 35.3712 29.5736 35.0246C29.1285 34.6907 28.2492 34.9323 27.5608 34.9292C26.5306 34.9244 25.5003 34.9292 24.4351 34.9292C24.1426 35.7623 23.8564 36.5779 23.5909 37.3347H17.9006C20.0995 31.3773 22.2665 25.5075 24.4574 19.5708L24.4558 19.5692ZM28.599 30.7573C28.1395 29.2755 27.7055 27.8796 27.2715 26.4837C27.2047 26.4948 27.1395 26.5043 27.0727 26.5155C26.6339 27.9114 26.1935 29.3057 25.7356 30.7589H28.5974L28.599 30.7573Z" fill="white"/>
<path d="M77.4787 19.6503C79.6044 25.579 81.7142 31.4648 83.8446 37.4046H77.9954C77.7617 36.5986 77.5296 35.7925 77.2847 34.9483C75.6233 34.9483 73.9889 34.9339 72.3545 34.9689C72.1716 34.9721 71.9045 35.2233 71.8298 35.4173C71.5834 36.0532 71.4085 36.7178 71.1859 37.4333H65.5195C66.0983 35.8752 66.6881 34.3091 67.2636 32.7383C68.782 28.595 70.3035 24.4534 71.7996 20.3037C71.9793 19.8045 72.1939 19.6153 72.7535 19.6328C74.31 19.6837 75.8713 19.6503 77.4787 19.6503ZM74.8458 26.401C74.7838 26.4105 74.7218 26.4217 74.6598 26.4312C74.1972 27.8939 73.7361 29.3566 73.2718 30.8257H76.1337C75.6901 29.301 75.2672 27.851 74.8458 26.401Z" fill="white"/>
<path d="M77.4102 15.507C75.7869 15.507 74.2272 15.4848 72.6691 15.5309C72.4195 15.5388 72.0634 15.8028 71.9553 16.0397C71.6945 16.6088 71.5515 17.2321 71.3432 17.8935H65.6545C66.2142 16.3656 66.7706 14.8441 67.3287 13.3209C68.8391 9.2047 70.367 5.09483 71.8408 0.965882C72.0427 0.40147 72.3003 0.256789 72.8488 0.267919C74.3815 0.299717 75.9157 0.279048 77.4929 0.279048C79.6615 6.12031 81.8269 11.9504 84.0305 17.8839C82.1211 17.8839 80.2593 17.8919 78.3991 17.8648C78.2719 17.8633 78.0939 17.6152 78.035 17.4483C77.8124 16.8298 77.6296 16.1971 77.4118 15.507H77.4102ZM76.2718 11.4639C75.8124 9.94082 75.3735 8.49243 74.9363 7.04404C74.8648 7.05517 74.7932 7.06789 74.7217 7.07902C74.2718 8.52105 73.8218 9.96308 73.3528 11.4639H76.2703H76.2718Z" fill="white"/>
<path d="M37.2002 37.4634V19.6487H42.8411V32.6604H50.5489V37.4634H37.2002Z" fill="white"/>
<path d="M57.2567 32.7256H64.9041V37.4189H51.6062V19.7059H57.2567V32.724V32.7256Z" fill="white"/>
<path d="M45.0417 17.973V0.331543H50.6731V13.1842H58.3873V17.973H45.0417Z" fill="white"/>
<path d="M65.0059 0.328369V17.9301H59.384V0.328369H65.0059Z" fill="white"/>
</g>
<defs>
<clipPath id="clip0_1281_264">
<rect width="150" height="37.4754" fill="white" transform="translate(0 0.267944)"/>
</clipPath>
</defs>
</svg>
