<svg width="150" height="46" viewBox="0 0 150 46" fill="none" xmlns="http://www.w3.org/2000/svg">
<g clip-path="url(#clip0_1281_305)">
<path d="M86.6294 15.1414C86.6793 14.9784 86.7291 14.8883 86.7291 14.8001C86.7349 11.2215 86.7637 7.64106 86.7215 4.06443C86.7042 2.54172 86.0848 1.94913 84.587 1.75352C84.3665 1.72475 84.1382 1.72859 83.9215 1.67872C83.4843 1.579 83.1314 1.36421 83.1487 0.852168C83.1678 0.29218 83.5821 0.202045 84.027 0.202045C86.102 0.198209 88.1751 0.200127 90.2502 0.202045C90.5071 0.202045 90.7641 0.225058 90.9808 0.382315C91.234 0.56642 91.3452 0.819565 91.3164 1.13024C91.2858 1.46393 91.0882 1.6442 90.7718 1.70557C90.4899 1.76119 90.2022 1.78996 89.928 1.86858C88.7505 2.20419 88.294 2.78528 88.2883 4.01265C88.2768 6.7282 88.2844 9.44568 88.2844 12.1612C88.2844 14.942 88.2864 17.7208 88.2806 20.5016C88.2806 20.82 88.2902 21.1517 88.2058 21.4509C88.0543 21.9975 87.5365 22.1931 87.082 21.8594C86.7541 21.6177 86.4683 21.2975 86.2209 20.9695C82.8936 16.5644 79.5759 12.1516 76.2543 7.74078C75.3894 6.59396 74.5187 5.45289 73.65 4.3099C73.5157 4.13347 73.393 3.94744 73.1475 3.88607C72.8541 4.15264 72.9768 4.49209 72.9768 4.78934C72.9672 8.68816 72.9768 12.587 72.9634 16.4858C72.9615 17.1954 73.0977 17.8839 73.1878 18.5781C73.2856 19.3318 73.9664 19.815 74.9464 19.932C75.3242 19.9781 75.7154 19.932 76.0759 20.0989C76.4346 20.2657 76.6225 20.5361 76.5611 20.9389C76.5036 21.3262 76.2236 21.4566 75.8765 21.4777C75.6214 21.495 75.3664 21.495 75.1113 21.495C70.4837 21.495 65.8562 21.495 61.2286 21.495C61.0368 21.495 60.845 21.4931 60.6533 21.4893C60.1489 21.4835 59.7673 21.3282 59.7558 20.7375C59.7442 20.1487 60.1048 19.9665 60.6207 19.9608C60.8124 19.9589 61.0042 19.9474 61.1941 19.9474C61.873 19.9435 62.0878 19.5446 62.0226 18.9425C61.9957 18.6931 61.9247 18.44 61.8289 18.208C61.3705 17.0841 60.8776 15.9757 60.4346 14.8461C60.2064 14.2689 59.8612 13.9927 59.2149 14.0023C57.3317 14.0291 55.4485 14.0157 53.5671 14.01C53.1241 14.01 52.7559 14.0771 52.5622 14.5565C52.0617 15.7935 51.3694 16.9576 51.2332 18.3326C51.1411 19.2685 51.3003 19.6022 52.1691 19.9493C52.6792 20.1545 53.4655 20.1948 53.3332 20.9657C53.197 21.7654 52.4165 21.4739 51.8948 21.4854C50.4603 21.5199 49.022 21.5008 47.5875 21.4931C47.1369 21.4912 46.6402 21.5027 46.5692 20.8852C46.5059 20.3424 46.8549 20.0701 47.319 19.9224C48.4812 19.5523 49.1294 18.697 49.5763 17.6154C51.2601 13.5439 52.9592 9.47828 54.6526 5.4107C55.2049 4.08552 55.7534 2.75651 56.3038 1.43133C56.4016 1.19545 56.5013 0.959562 56.6145 0.731348C56.8062 0.340124 57.067 0.027528 57.5542 0.0332813C58.0144 0.0390346 58.2235 0.366973 58.3807 0.727513C58.9906 2.13324 59.5966 3.54088 60.193 4.95235C62.0705 9.3939 63.9327 13.8393 65.8236 18.2751C66.6386 20.1909 69.4079 20.7605 70.9306 19.3586C71.2815 19.0345 71.4234 18.6203 71.4234 18.1543C71.4234 13.2659 71.4388 8.37556 71.4062 3.48718C71.3985 2.22912 70.9191 1.83215 69.6418 1.73242C69.4213 1.71516 69.1912 1.69598 68.9879 1.61736C68.6312 1.48119 68.3972 1.21463 68.4567 0.808059C68.5104 0.441766 68.7942 0.276838 69.1336 0.234647C69.4175 0.200127 69.707 0.202045 69.9928 0.202045C71.3659 0.200127 72.7371 0.219305 74.1102 0.192456C74.7776 0.179032 75.2436 0.416835 75.6502 0.957645C79.0044 5.4222 82.3796 9.87142 85.7492 14.3245C85.9774 14.6256 86.1596 14.9727 86.6294 15.1472V15.1414ZM59.3664 12.4278C58.49 9.94813 57.4947 7.75613 56.4303 5.55261C55.3756 7.80791 54.3457 10.0018 53.4847 12.4086C55.4676 12.5084 57.2933 12.4853 59.3645 12.4278H59.3664Z" fill="white"/>
<path d="M60.8315 34.5281C59.5236 34.5281 58.2138 34.5549 56.9059 34.5185C56.1484 34.4974 55.8971 34.81 55.9086 35.5426C55.9393 37.491 55.9029 39.4414 55.9297 41.3918C55.9489 42.8359 56.367 43.2386 57.813 43.346C58.0335 43.3632 58.2656 43.3767 58.4669 43.4572C58.8332 43.6068 58.9866 43.9156 58.9387 44.3087C58.8908 44.6961 58.6184 44.8342 58.2675 44.861C58.0776 44.8764 57.8859 44.8783 57.6941 44.8783C55.3314 44.8783 52.9706 44.8783 50.6079 44.8783C50.257 44.8783 49.9041 44.8917 49.5704 44.7459C49.2099 44.5887 49.0085 44.3279 49.0603 43.9213C49.1082 43.5339 49.3767 43.3939 49.7258 43.3594C49.7584 43.3556 49.789 43.3556 49.8216 43.3517C51.9312 43.0813 52.0808 42.9164 52.0827 40.7762C52.0865 36.2694 52.0846 31.7627 52.0827 27.2559C52.0827 26.8743 52.0769 26.4869 52.0252 26.1091C51.9254 25.3765 51.5093 24.9642 50.746 24.9488C50.5235 24.945 50.2992 24.9431 50.0767 24.9335C49.5551 24.9105 49.0699 24.7705 49.0871 24.1453C49.1044 23.5163 49.6145 23.4261 50.1227 23.407C50.1553 23.407 50.186 23.407 50.2186 23.407C52.7079 23.407 55.1991 23.405 57.6883 23.4146C57.9376 23.4146 58.1985 23.4664 58.4343 23.5508C58.8045 23.6831 58.9943 23.967 58.9406 24.3716C58.8888 24.759 58.6184 24.8932 58.2694 24.9258C58.2061 24.9316 58.1409 24.9431 58.0776 24.9373C56.436 24.7954 55.9566 25.4417 55.9259 27.2176C55.901 28.6559 55.9125 30.0942 55.9221 31.5325C55.9297 32.5087 56.0122 32.6027 56.9404 32.6065C59.5907 32.6161 62.2392 32.5931 64.8895 32.6199C65.6528 32.6276 65.8944 32.3112 65.8791 31.5862C65.8465 30.0213 65.8887 28.4545 65.8618 26.8877C65.8369 25.4053 65.3977 24.9949 63.9019 24.9393C63.6487 24.9297 63.386 24.9143 63.1501 24.8376C62.8145 24.7283 62.6457 24.4521 62.6534 24.0974C62.6611 23.7138 62.9123 23.5239 63.2556 23.4626C63.5049 23.4185 63.7638 23.4108 64.0169 23.4089C66.4103 23.405 68.8056 23.405 71.199 23.4089C71.5806 23.4089 71.9738 23.3782 72.2979 23.6409C72.5261 23.825 72.7409 24.0322 72.6737 24.362C72.6085 24.6842 72.3707 24.8491 72.0677 24.8952C71.7858 24.9373 71.4962 24.9297 71.2086 24.9488C70.3494 25.0025 69.8546 25.4417 69.7357 26.2874C69.6955 26.5713 69.705 26.8609 69.705 27.1485C69.705 31.8797 69.7031 36.6089 69.705 41.34C69.705 42.878 70.0502 43.2348 71.5979 43.3479C71.7877 43.3613 71.9853 43.3652 72.1617 43.4265C72.4973 43.5416 72.6699 43.8139 72.6814 44.1591C72.6948 44.5388 72.4455 44.744 72.1099 44.8227C71.8951 44.8744 71.6669 44.8783 71.4445 44.8783C68.9552 44.8821 66.464 44.884 63.9748 44.8764C63.6909 44.8764 63.3918 44.8572 63.129 44.7651C62.757 44.6347 62.6036 44.3145 62.6515 43.9213C62.6994 43.5358 62.9679 43.3958 63.3189 43.3632C63.3822 43.3575 63.4455 43.3556 63.5107 43.3498C65.4572 43.1811 65.858 42.7496 65.8638 40.7896C65.8695 39.0636 65.8714 37.3376 65.8638 35.6116C65.858 34.6106 65.7813 34.5377 64.7553 34.5319C63.4474 34.5223 62.1375 34.53 60.8296 34.53L60.8315 34.5281Z" fill="white"/>
<path d="M109.779 15.1491C109.997 14.7675 109.924 14.4415 109.924 14.1289C109.93 10.8054 109.93 7.48383 109.926 4.16034C109.926 2.47079 109.533 2.0086 107.874 1.76888C107.245 1.67875 106.44 1.74203 106.536 0.813836C106.63 -0.0951853 107.46 0.219328 108.003 0.207822C109.788 0.173302 111.576 0.194397 113.363 0.196315C113.649 0.196315 113.942 0.177138 114.211 0.305628C114.491 0.439871 114.667 0.656579 114.661 0.980682C114.654 1.30287 114.477 1.52149 114.19 1.63848C114.044 1.69793 113.883 1.7171 113.727 1.75546C111.89 2.2023 111.476 2.699 111.472 4.62252C111.459 9.86186 111.466 15.1031 111.466 20.3424C111.466 20.6627 111.486 20.9849 111.449 21.2994C111.372 21.9745 110.998 22.1797 110.387 21.8939C109.997 21.7117 109.752 21.378 109.499 21.0424C105.379 15.5557 101.258 10.0709 97.1272 4.59375C96.945 4.35211 96.8127 4.03952 96.4809 3.91103C96.2163 4.18719 96.3333 4.52088 96.3314 4.82005C96.3237 9.1005 96.3218 13.3829 96.3275 17.6633C96.3294 19.2129 96.8587 19.7825 98.4102 19.9397C98.788 19.9781 99.1831 19.9282 99.5053 20.1967C99.7603 20.4096 99.9751 20.6589 99.8907 21.0156C99.7891 21.4548 99.4132 21.4854 99.0546 21.4874C97.3631 21.495 95.6716 21.495 93.9802 21.495C93.4068 21.495 92.8314 21.5027 92.258 21.4758C91.8035 21.4548 91.4334 21.2572 91.4065 20.7471C91.3835 20.2657 91.7575 20.1085 92.1429 20.003C93.7807 19.5542 94.6002 18.4937 94.6015 16.8214C94.6015 12.541 94.6015 8.2586 94.5977 3.97815C94.5977 3.59651 94.5823 3.20913 94.5229 2.83324C94.4059 2.10449 94.0051 1.70943 93.2169 1.72861C92.5879 1.74395 91.7709 1.8245 91.7843 0.903971C91.7978 -0.110527 92.6953 0.230835 93.261 0.211657C94.567 0.167549 95.8788 0.236588 97.1848 0.182891C97.9787 0.150289 98.5329 0.464802 98.9836 1.06123C100.501 3.07488 102.016 5.09045 103.536 7.10027C105.519 9.72186 107.504 12.3396 109.493 14.9574C109.545 15.0264 109.643 15.0628 109.775 15.1511L109.779 15.1491Z" fill="white"/>
<path d="M124.043 21.4931C121.586 21.4931 119.128 21.4969 116.671 21.4912C116.355 21.4912 116.027 21.4873 115.724 21.4125C115.382 21.3301 115.21 21.0443 115.185 20.6972C115.158 20.3367 115.417 20.1852 115.706 20.1123C116.013 20.0337 116.33 19.9876 116.646 19.955C117.599 19.8572 118.067 19.3951 118.152 18.4323C118.169 18.2425 118.163 18.0488 118.163 17.857C118.163 13.0645 118.167 8.27009 118.163 3.47759C118.163 2.08529 118.008 1.91078 116.617 1.72859C116.073 1.65763 115.681 1.43517 115.71 0.836829C115.741 0.213555 116.238 0.200131 116.696 0.200131C121.068 0.196295 125.441 0.190542 129.812 0.203966C130.782 0.207802 131.102 0.566424 131.19 1.53298C131.294 2.67597 131.432 3.81512 131.538 4.95811C131.578 5.39728 131.676 5.92083 131.091 6.07617C130.462 6.24301 130.145 5.83453 129.984 5.28988C129.794 4.64743 129.595 4.02032 129.28 3.41622C128.695 2.29241 127.767 1.79763 126.572 1.75736C125.33 1.71517 124.083 1.75544 122.839 1.73626C122.219 1.72667 121.991 2.01817 121.995 2.61268C122.008 4.65702 122.001 6.70328 122.001 8.74761C122.001 9.15802 122.06 9.55499 122.58 9.56842C123.439 9.58951 124.304 9.69499 125.151 9.46102C126.08 9.20596 126.329 8.87611 126.4 7.90188C126.442 7.31696 126.298 6.59205 127.211 6.54985C127.811 6.52109 128.141 6.98902 128.109 7.97092C128.053 9.62595 128.007 11.2771 128.116 12.9303C128.132 13.1508 128.105 13.379 128.059 13.5957C127.98 13.9659 127.771 14.2478 127.374 14.3034C126.95 14.3628 126.743 14.0656 126.574 13.7434C126.373 13.3598 126.423 12.9341 126.39 12.5237C126.317 11.5782 125.953 11.1966 125.017 11.1487C124.285 11.1122 123.55 11.1487 122.816 11.1333C122.259 11.1237 121.995 11.3673 121.999 11.9349C122.01 13.9793 121.962 16.0255 122.027 18.0699C122.079 19.654 122.453 19.9742 124.012 19.9474C124.965 19.9301 125.917 19.9972 126.87 19.9991C129.079 20.0011 130.195 18.6279 131.114 16.948C131.417 16.3937 131.586 15.7647 131.806 15.1664C131.958 14.7579 132.136 14.3494 132.669 14.4683C133.152 14.5757 133.49 14.9401 133.438 15.4329C133.25 17.2395 133.281 19.0671 132.903 20.8564C132.765 21.5103 132.282 21.495 131.796 21.4969C129.211 21.5008 126.626 21.4969 124.041 21.4988L124.043 21.4931Z" fill="white"/>
<path d="M137.794 43.0967C137.452 43.4112 137.423 43.7526 137.264 44.0249C137.08 44.3432 136.869 44.6424 136.455 44.5714C136.006 44.4967 135.715 44.2147 135.63 43.7526C135.607 43.6279 135.598 43.4994 135.598 43.3709C135.596 41.7101 135.594 40.0494 135.598 38.3886C135.598 37.888 135.653 37.3683 136.263 37.2782C136.833 37.1938 137.138 37.6157 137.306 38.0856C137.544 38.7453 137.69 39.4395 137.941 40.0935C139.03 42.949 141.805 44.349 144.557 43.3671C145.929 42.8781 146.914 41.9058 147.047 40.3773C147.175 38.8757 146.491 37.7154 145.202 36.9483C143.416 35.8859 141.435 35.2319 139.602 34.2539C137.617 33.1953 136.34 31.6764 135.895 29.4403C135.444 27.1696 136.848 24.5289 138.984 23.6371C141.384 22.636 143.591 22.9467 145.674 24.4445C145.852 24.573 146.036 24.6957 146.205 24.8127C146.69 24.6823 146.698 24.2335 146.891 23.9229C147.244 23.3552 147.86 23.3648 148.149 23.9689C148.284 24.2508 148.374 24.5807 148.381 24.8913C148.41 26.1034 148.422 27.3173 148.391 28.5313C148.38 28.9685 148.307 29.4959 147.76 29.5956C147.175 29.703 146.932 29.2485 146.738 28.7825C146.172 27.4189 145.591 26.0765 144.233 25.2653C142.456 24.2029 140.478 24.3908 139.259 25.7716C138.444 26.694 138.463 28.1688 139.276 29.1047C140.221 30.194 141.432 30.8633 142.726 31.4482C144.492 32.2479 146.349 32.8999 147.871 34.158C149.162 35.2223 149.874 36.584 149.977 38.2869C150.104 40.3715 149.73 42.272 148.017 43.6279C145.486 45.632 142.005 45.8448 138.894 43.8811C138.522 43.6471 138.177 43.369 137.794 43.0928V43.0967Z" fill="white"/>
<path d="M91.7499 44.8802C90.697 44.8802 89.6442 44.8802 88.5913 44.8802C88.2711 44.8802 87.945 44.8879 87.6689 44.6942C87.3697 44.4852 87.1242 44.2224 87.2067 43.8197C87.2872 43.4285 87.6171 43.3901 87.9469 43.3498C89.8053 43.1331 89.9395 42.8819 89.1935 41.1195C88.7831 40.1491 88.3689 39.1806 87.9987 38.1949C87.7417 37.5122 87.3371 37.1861 86.57 37.2053C84.8172 37.2475 83.0624 37.2341 81.3076 37.2111C80.6057 37.2015 80.1915 37.4546 79.946 38.1412C79.5721 39.1902 79.0313 40.1817 78.7973 41.2806C78.5461 42.4677 78.8778 43.0162 80.0573 43.323C80.5214 43.4438 80.9682 43.5742 80.9375 44.1419C80.903 44.769 80.4044 44.8726 79.8962 44.8745C78.3332 44.8802 76.7702 44.8783 75.2072 44.8745C74.6894 44.8745 74.2349 44.7383 74.1448 44.138C74.0604 43.5781 74.444 43.3498 74.8908 43.1811C75.9379 42.786 76.6072 42.04 77.0349 41.0083C79.3343 35.4678 81.6548 29.9351 83.9676 24.3985C84.0174 24.2815 84.0692 24.1645 84.1287 24.0514C84.3205 23.6793 84.5046 23.2708 84.9974 23.2612C85.521 23.2497 85.7837 23.6295 85.9678 24.0571C86.4741 25.2289 86.9708 26.4045 87.4656 27.582C89.4236 32.2287 91.3702 36.8774 93.3416 41.5184C93.6964 42.3526 94.1682 43.1005 95.1961 43.2731C95.7082 43.3594 96.1128 43.6797 96.0361 44.2569C95.9594 44.8284 95.4588 44.8706 94.9986 44.8725C93.915 44.8802 92.8296 44.8745 91.746 44.8764L91.7499 44.8802ZM84.1172 28.7902C84.0424 28.7825 83.9657 28.7729 83.8909 28.7652C82.863 31.0148 81.9367 33.3065 81.0219 35.6136C82.1265 35.999 86.2037 35.9338 86.9075 35.5292C85.9812 33.2892 85.0492 31.0397 84.1172 28.7882V28.7902Z" fill="white"/>
<path d="M129.557 44.8783C128.504 44.8783 127.451 44.8783 126.4 44.8783C126.045 44.8783 125.696 44.8457 125.397 44.6271C125.136 44.4391 125.048 44.1764 125.105 43.8695C125.157 43.5857 125.351 43.4342 125.625 43.3786C125.688 43.3671 125.752 43.3633 125.815 43.3537C127.76 43.0698 127.834 42.9528 127.1 41.1674C126.651 40.0762 126.158 39.0022 125.721 37.9053C125.527 37.4163 125.219 37.2149 124.707 37.2168C122.762 37.2264 120.815 37.2226 118.871 37.2206C118.46 37.2206 118.119 37.3223 117.958 37.7595C117.582 38.776 117.024 39.7214 116.761 40.7819C116.466 41.971 116.516 43.0296 118.038 43.3709C118.495 43.4745 118.756 43.7967 118.7 44.2838C118.635 44.8457 118.192 44.8706 117.764 44.8725C116.201 44.8783 114.638 44.8783 113.077 44.8687C112.573 44.8668 112.074 44.7575 111.95 44.1879C111.813 43.5627 112.327 43.3613 112.778 43.2022C113.819 42.8339 114.446 42.0841 114.857 41.0945C117.139 35.5829 119.421 30.0712 121.728 24.5691C121.958 24.0207 122.056 23.2171 122.904 23.2478C123.705 23.2766 123.838 24.0226 124.079 24.5941C126.386 30.0616 128.68 35.5349 130.987 41.0006C131.44 42.0745 131.956 43.0909 133.26 43.3882C133.709 43.4898 133.923 43.8945 133.82 44.3662C133.712 44.8514 133.296 44.8668 132.907 44.8687C131.791 44.8745 130.675 44.8706 129.558 44.8706L129.557 44.8783ZM121.983 28.7978C121.893 28.7921 121.801 28.7863 121.711 28.7806C120.771 31.0435 119.726 33.2624 118.888 35.7823C120.944 35.9166 122.81 35.8667 124.879 35.8245C123.859 33.3487 122.923 31.0723 121.985 28.7978H121.983Z" fill="white"/>
<path d="M36.7387 44.8803C35.6858 44.8803 34.6329 44.8803 33.5801 44.8803C33.2598 44.8803 32.9415 44.8668 32.6461 44.7153C32.3316 44.5542 32.1648 44.303 32.2031 43.9405C32.2434 43.5532 32.4966 43.3997 32.8513 43.3633C32.8839 43.3595 32.9146 43.3595 32.9472 43.3537C34.8765 43.0948 34.9743 42.9126 34.1976 41.0601C33.7776 40.059 33.3615 39.0579 32.9607 38.0473C32.7344 37.4738 32.3642 37.2034 31.7237 37.2111C29.9057 37.236 28.0876 37.2284 26.2677 37.2149C25.6559 37.2111 25.257 37.424 25.0173 38.0242C24.5915 39.0905 24.0661 40.1184 23.8321 41.2557C23.5847 42.4639 23.8992 43.02 25.0633 43.3192C25.5638 43.4477 26.0471 43.5877 25.9608 44.211C25.8783 44.8227 25.3529 44.8745 24.8543 44.8764C23.3546 44.8803 21.8549 44.8783 20.3552 44.8764C19.8163 44.8764 19.2947 44.8093 19.1777 44.1573C19.0664 43.5417 19.519 43.3364 19.9889 43.1523C20.9612 42.7726 21.619 42.0765 22.0198 41.1138C24.2828 35.6616 26.5496 30.2093 28.8183 24.7591C28.9161 24.5232 29.0312 24.2949 29.1481 24.0667C29.3553 23.6659 29.5528 23.2172 30.1013 23.2594C30.6114 23.2977 30.8492 23.6947 31.0295 24.1224C32.1667 26.8302 33.2982 29.54 34.4393 32.246C35.7548 35.3624 37.0628 38.4826 38.4052 41.5874C38.735 42.3507 39.1685 43.0795 40.1197 43.2406C40.2693 43.2655 40.4208 43.3575 40.5454 43.4496C40.8273 43.6586 41.1495 43.8811 41.0651 44.2915C40.9712 44.7498 40.5838 44.8592 40.181 44.863C39.0323 44.8745 37.8836 44.8668 36.7348 44.8668C36.7348 44.8687 36.7348 44.8707 36.7348 44.8745L36.7387 44.8803ZM31.9999 35.7517C31.0275 33.2931 30.1281 31.0282 28.987 28.8036C27.8978 31.0397 26.912 33.2874 26.0145 35.7517H31.9999Z" fill="white"/>
<path d="M105.408 40.0993C106.052 39.3801 106.189 38.4653 106.536 37.656C107.92 34.4284 109.326 31.2104 110.559 27.9195C110.661 27.651 110.751 27.3749 110.812 27.0949C111.113 25.7045 110.805 25.2212 109.393 24.9547C108.902 24.8626 108.492 24.7054 108.515 24.1473C108.54 23.5202 109.023 23.4089 109.543 23.407C111.138 23.407 112.734 23.407 114.329 23.407C114.619 23.407 114.901 23.4339 115.154 23.6026C115.741 23.9958 115.776 24.6536 115.129 24.8492C113.342 25.3938 112.784 26.9261 112.164 28.3817C109.926 33.6402 107.734 38.9179 105.533 44.1918C105.301 44.746 105.065 45.2293 104.351 45.2696C103.615 45.3118 103.352 44.8246 103.116 44.28C101.858 41.3803 100.602 38.4788 99.3498 35.5772C98.1225 32.735 96.8855 29.8948 95.6773 27.0431C95.1844 25.8829 94.5228 24.9892 93.1305 24.9125C92.6683 24.8875 92.3327 24.6133 92.3692 24.1051C92.4018 23.6487 92.7431 23.4646 93.1631 23.4224C93.353 23.4032 93.5448 23.4013 93.7365 23.4013C95.9707 23.4013 98.2049 23.3974 100.439 23.4032C100.725 23.4032 101.018 23.4109 101.291 23.4837C101.672 23.5854 101.864 23.8807 101.856 24.2758C101.847 24.7092 101.573 24.8895 101.174 24.924C101.11 24.9297 101.047 24.9297 100.982 24.9355C99.1581 25.1004 98.9241 25.5281 99.6452 27.1716C101.427 31.2354 103.178 35.3144 104.94 39.3859C105.04 39.616 105.08 39.8806 105.41 40.0935L105.408 40.0993Z" fill="white"/>
<path d="M9.08446 44.8802C6.56451 44.8802 4.04457 44.884 1.52654 44.8783C1.21011 44.8783 0.88409 44.8725 0.579165 44.7977C0.19753 44.7037 0.00383553 44.4027 0.0115066 44.0095C0.0191777 43.5799 0.289583 43.3939 0.690396 43.3594C0.722998 43.3575 0.753682 43.3517 0.786284 43.3536C2.94185 43.415 3.05884 42.4197 3.055 40.7858C3.04158 36.2522 3.05117 31.7166 3.04925 27.183C3.04925 26.8647 3.05308 26.5425 3.01089 26.228C2.88432 25.317 2.54871 25.0121 1.63777 24.9527C1.28874 24.9297 0.933952 24.9488 0.586836 24.9066C0.166846 24.8529 0 24.5634 0 24.1626C0 23.7541 0.186023 23.4894 0.604096 23.4376C0.824639 23.4089 1.04902 23.407 1.27148 23.407C3.82211 23.407 6.37465 23.407 8.92528 23.407C9.30692 23.407 9.69431 23.3935 10.0491 23.5776C10.3636 23.7406 10.5266 23.9957 10.4844 24.3543C10.4403 24.7398 10.1814 24.9028 9.82855 24.9201C9.38363 24.9431 8.93487 24.9258 8.48995 24.9527C7.5349 25.0083 7.09382 25.3899 6.93848 26.3239C6.88094 26.6672 6.88478 27.0239 6.88478 27.3748C6.88094 32.0369 6.88094 36.699 6.88478 41.3611C6.88478 42.8301 7.33354 43.298 8.81405 43.3364C9.86499 43.3632 10.9198 43.3306 11.9707 43.346C13.6833 43.3709 14.878 42.5501 15.6681 41.083C16.0306 40.4099 16.395 39.7329 16.5542 38.9715C16.5925 38.7874 16.6711 38.6053 16.7651 38.4403C16.9588 38.099 17.2695 37.957 17.655 38.028C18.0366 38.099 18.1728 38.3924 18.1728 38.7337C18.1785 40.4904 18.19 42.2471 18.1536 44.0018C18.1382 44.769 17.5571 44.884 16.93 44.884C14.3142 44.8802 11.7003 44.884 9.08446 44.884V44.8802Z" fill="white"/>
<path d="M25.6732 21.4931C23.1533 21.4931 20.6314 21.495 18.1115 21.4931C17.7931 21.4931 17.469 21.4931 17.1584 21.4394C16.7786 21.3723 16.5178 21.1306 16.5178 20.7202C16.5178 20.306 16.7786 20.0663 17.1603 20.0068C17.5036 19.9531 17.8603 19.9704 18.2093 19.9493C19.055 19.8994 19.5556 19.4468 19.6841 18.6068C19.7128 18.4189 19.7128 18.2252 19.7128 18.0334C19.7128 13.1777 19.7205 8.32187 19.7109 3.46417C19.709 2.07954 19.3868 1.76886 18.0309 1.73434C17.6493 1.72475 17.2562 1.76503 16.9301 1.50229C16.7019 1.31819 16.4891 1.11107 16.5523 0.781212C16.6137 0.459027 16.8553 0.297935 17.1545 0.244238C17.3731 0.203964 17.5994 0.198211 17.8219 0.198211C20.4703 0.194376 23.1188 0.192458 25.7672 0.198211C26.7357 0.200129 27.2036 0.472452 27.1231 1.00943C27.0022 1.81105 26.3425 1.70558 25.7768 1.73242C25.3031 1.75544 24.8026 1.63462 24.3653 1.87817C23.7382 2.22529 23.5503 2.81596 23.5503 3.5006C23.5522 8.51748 23.5445 13.5324 23.556 18.5493C23.5579 19.4948 23.9357 19.9052 24.8889 19.932C26.4192 19.9742 27.9535 19.9857 29.4819 19.9301C31.2194 19.8668 31.9673 18.5551 32.6386 17.2184C32.8955 16.7083 33.095 16.1579 33.2388 15.6055C33.3922 15.0168 33.6742 14.6793 34.3089 14.8078C34.9514 14.9382 35.1048 15.4406 35.0108 15.9814C34.8287 17.0285 34.8555 18.0814 34.8497 19.1342C34.8478 19.5504 34.8555 19.9646 34.844 20.3808C34.8171 21.3358 34.6791 21.4893 33.7144 21.4931C31.0334 21.5046 28.3543 21.4969 25.6732 21.4969V21.4931Z" fill="white"/>
<path d="M40.4092 21.4931C39.1339 21.4931 37.8586 21.4931 36.5814 21.4931C36.2956 21.4931 36.0022 21.5123 35.7356 21.3838C35.4576 21.2496 35.2811 21.0348 35.285 20.7107C35.2888 20.4211 35.4652 20.2446 35.705 20.1219C36.0924 19.9244 36.5123 19.9436 36.9247 19.957C37.6937 19.98 38.0964 19.583 38.2786 18.8734C38.4129 18.3441 38.48 17.811 38.48 17.2644C38.4761 12.9207 38.48 8.57887 38.4742 4.23513C38.4742 3.8861 38.4608 3.53131 38.4013 3.18611C38.1885 1.95874 37.9545 1.76888 36.7003 1.73628C36.5411 1.73245 36.3819 1.73245 36.2228 1.72669C35.705 1.71135 35.3348 1.46971 35.3214 0.938491C35.3061 0.345901 35.7702 0.211657 36.2458 0.209739C38.9575 0.200151 41.6673 0.202068 44.379 0.209739C44.916 0.209739 45.3398 0.4322 45.3456 1.0363C45.3513 1.72861 44.8163 1.71902 44.3253 1.73436C44.0377 1.74395 43.75 1.73436 43.4662 1.76697C42.8084 1.84559 42.4402 2.23106 42.3481 2.88502C42.3347 2.97899 42.3232 3.0768 42.327 3.17077C42.4344 6.10879 41.9569 9.04105 42.1678 11.9695C42.3193 14.0771 42.2733 16.179 42.3213 18.2828C42.35 19.5523 42.6223 19.8362 43.867 19.9704C44.1815 20.0049 44.4941 20.0778 44.8028 20.1526C45.2017 20.2485 45.3839 20.5208 45.359 20.9274C45.3302 21.3953 45.0023 21.4893 44.6226 21.4912C43.2188 21.495 41.815 21.4912 40.4131 21.4912C40.4131 21.4912 40.4131 21.495 40.4131 21.4969L40.4092 21.4931Z" fill="white"/>
</g>
<defs>
<clipPath id="clip0_1281_305">
<rect width="150" height="45.2459" fill="white" transform="translate(0 0.0275879)"/>
</clipPath>
</defs>
</svg>
