<svg width="150" height="29" viewBox="0 0 150 29" fill="none" xmlns="http://www.w3.org/2000/svg">
<g clip-path="url(#clip0_1281_361)">
<path d="M0 28.154V26.7591C0.585415 26.4597 147.971 26.3024 149.604 26.5918C149.701 26.9865 149.804 27.4013 149.95 27.9934C149.642 28.0537 149.326 28.1724 149.008 28.1724C123.25 28.1791 97.4916 28.1758 71.7317 28.1774C48.0341 28.1774 24.3365 28.1858 0.638938 28.1891C0.449933 28.1891 0.259255 28.1691 0 28.154Z" fill="white"/>
<path d="M133.975 1.23669V22.9673C132.995 22.9673 132.056 23.0074 131.13 22.9271C130.974 22.9138 130.75 22.3802 130.748 22.0858C130.721 18.7289 130.735 15.3703 130.726 12.0133C130.726 11.6403 130.665 11.269 130.631 10.896C130.559 10.891 130.487 10.8843 130.415 10.8793C130.159 12.0802 129.9 13.2812 129.648 14.4838C129.109 17.0613 128.569 19.6388 128.042 22.218C127.928 22.7699 127.649 22.9907 127.063 22.9924C125.259 23.0007 125.203 23.0359 124.769 21.2629C123.987 18.0883 123.28 14.8953 122.541 11.7106C122.474 11.4229 122.402 11.1369 122.332 10.8492C122.251 10.8559 122.171 10.8626 122.092 10.8693V22.892H118.752V1.26345C119.59 1.26345 120.411 1.26345 121.231 1.26345C123.558 1.26345 123.517 1.27014 123.939 3.52148C124.523 6.65428 125.177 9.77538 125.794 12.9032C125.944 13.6642 126.063 14.4319 126.212 15.1947C126.257 15.4255 126.351 15.6463 126.466 16.0159C126.617 15.7767 126.721 15.6831 126.741 15.5727C127.289 12.6289 127.823 9.68339 128.373 6.74126C128.683 5.08036 128.999 3.42112 129.36 1.77025C129.407 1.55783 129.746 1.2668 129.96 1.26011C131.263 1.21327 132.568 1.23669 133.976 1.23669H133.975Z" fill="white"/>
<path d="M91.8701 17.0963C92.9974 17.0027 93.9792 16.919 95.0046 16.8337C95.2069 17.4526 95.3525 18.043 95.5866 18.5933C96.1219 19.8461 96.908 20.3512 97.8447 20.112C98.8516 19.8545 99.4922 18.8894 99.4453 17.6717C99.3985 16.4791 98.7378 15.6194 97.9249 14.8115C96.4112 13.3079 94.8825 11.8159 93.4591 10.2286C91.8584 8.44389 91.6309 3.78566 94.1632 1.89728C95.5532 0.861935 98.2762 0.584281 100.046 1.47913C101.655 2.29369 102.769 4.18375 102.628 6.00355C101.647 6.1959 100.633 6.39327 99.6042 6.59398C99.3784 5.98181 99.2129 5.45828 98.9921 4.95817C98.6877 4.27239 98.1039 3.96463 97.3763 4.00478C96.6186 4.04659 96.1653 4.5467 95.9412 5.21909C95.3424 7.02719 96.1888 8.41211 97.3746 9.63312C98.589 10.8842 99.9555 11.9965 101.11 13.2995C102.647 15.034 103.224 17.0947 102.714 19.4129C102.19 21.7914 100.405 23.2014 97.9484 23.2616C96.2205 23.3034 94.6684 22.9689 93.5026 21.6174C92.4304 20.3746 92.029 18.871 91.8684 17.0963H91.8701Z" fill="white"/>
<path d="M71.2114 22.994V1.30518H80.5329V4.59353C79.8806 4.59353 79.3052 4.59353 78.7298 4.59353C77.5891 4.59353 76.4484 4.60022 75.3077 4.59019C74.8209 4.58517 74.5031 4.70727 74.5098 5.28098C74.5249 6.77797 74.5232 8.27496 74.5098 9.77195C74.5048 10.3155 74.8176 10.4159 75.2625 10.4126C76.2092 10.4059 77.1559 10.4326 78.1009 10.4008C78.7365 10.3791 79.0259 10.5982 78.9941 11.2622C78.9573 12.0316 78.9857 12.8061 78.9857 13.7394C77.8835 13.7394 76.8665 13.7394 75.8496 13.7394C74.9564 13.7394 74.5115 14.181 74.5148 15.0641C74.5182 16.2567 74.5115 17.4492 74.5199 18.6401C74.5215 18.9362 74.5617 19.2339 74.5935 19.642H80.5848C80.5848 20.7092 80.6032 21.6659 80.563 22.6193C80.558 22.7498 80.2636 22.9772 80.1014 22.9772C77.1843 22.999 74.2673 22.994 71.2131 22.994H71.2114Z" fill="white"/>
<path d="M146.076 4.59691C144.731 4.59691 143.542 4.59859 142.353 4.59691C140.893 4.59468 140.155 3.86487 140.138 2.40746C140.135 2.08297 140.172 1.75682 140.193 1.37713C140.458 1.33364 140.667 1.27008 140.878 1.26841C143.606 1.245 146.334 1.24834 149.06 1.20151C149.778 1.1898 149.901 1.48418 149.968 2.1365C150.151 3.89609 149.548 5.43991 148.904 7.01384C147.265 11.0147 145.685 15.0407 144.082 19.0567C144.022 19.2072 143.989 19.3678 143.893 19.6839H149.936C149.936 20.7326 149.972 21.6375 149.906 22.5357C149.893 22.7097 149.49 22.9907 149.262 22.9923C146.451 23.0224 143.639 23.0057 140.827 23.0141C140.259 23.0141 140.167 22.708 140.128 22.2196C139.989 20.4633 140.379 18.8442 141.065 17.2235C142.694 13.3681 144.221 9.46924 145.783 5.58543C145.884 5.33454 145.939 5.06692 146.078 4.59859L146.076 4.59691Z" fill="white"/>
<path d="M43.5398 4.62866H40.1628V1.30852C43.5415 1.11115 46.9319 1.17471 50.4043 1.2734V4.6203H47.0122C46.9905 5.09198 46.962 5.41646 46.962 5.74095C46.9587 11.1167 46.962 16.4942 46.9587 21.87C46.9587 23.0107 46.9537 23.0107 45.7929 23.0174C45.3195 23.019 44.8445 22.9906 44.3745 23.0257C43.7105 23.0742 43.5248 22.7949 43.5281 22.1476C43.5499 16.6882 43.5398 11.2288 43.5398 5.76771C43.5398 5.44155 43.5398 5.11539 43.5398 4.62699V4.62866Z" fill="white"/>
<path d="M24.1909 4.36444V1.33032H34.2835V4.4832C33.6161 4.4832 32.9404 4.47985 32.2646 4.4832C31.3324 4.48766 30.8663 4.96714 30.8663 5.92165C30.8663 11.2205 30.8697 16.5177 30.8663 21.8165C30.8663 22.1376 30.8312 22.4605 30.8078 22.8502H27.68C27.6532 22.514 27.6064 22.1945 27.6064 21.875C27.6014 16.4374 27.603 11.0014 27.6014 5.56371C27.6014 4.53672 27.5462 4.4832 26.5192 4.47651C25.8234 4.47149 25.1276 4.46815 24.4334 4.45978C24.3833 4.45978 24.3331 4.42131 24.1926 4.36612L24.1909 4.36444Z" fill="white"/>
<path d="M8.98186 19.6839V22.8435H0.0300293V1.36877H3.33679V19.6856H8.98186V19.6839Z" fill="white"/>
<path d="M59.7824 1.32532V19.714H65.5162C65.5162 20.6959 65.5513 21.5723 65.4861 22.4421C65.4727 22.6177 65.0779 22.9004 64.8555 22.9037C62.2663 22.9372 59.6771 22.9255 57.0862 22.9271C56.3987 22.9271 56.4723 22.4404 56.4723 21.9921C56.4723 16.7753 56.469 11.5584 56.469 6.34316C56.469 4.98332 56.469 3.62349 56.4807 2.26365C56.484 1.96927 56.5376 1.67489 56.5727 1.32532H59.7841H59.7824Z" fill="white"/>
<path d="M14.7257 1.31189H18.0174C18.0408 1.64641 18.0776 1.93912 18.0776 2.23183C18.0793 8.80855 18.0776 15.3853 18.0776 21.962C18.0776 23.0442 18.0776 23.0408 17.0239 23.0241C16.4385 23.0157 15.8464 23.0743 15.2743 22.9906C15.0469 22.9572 14.8328 22.636 14.6755 22.4052C14.5969 22.2915 14.6605 22.0807 14.6605 21.9151C14.6605 15.3936 14.6572 8.87378 14.6605 2.35226C14.6605 2.02777 14.7023 1.70495 14.7291 1.31356L14.7257 1.31189Z" fill="white"/>
<path d="M112.164 22.7782H109.063C109.038 22.5139 108.999 22.3048 108.999 22.0941C108.999 15.5006 109.003 8.90719 109.003 2.31375C109.003 1.36705 109.085 1.27673 110.043 1.27171C110.459 1.27004 110.879 1.28844 111.294 1.25666C111.965 1.2048 112.251 1.46406 112.249 2.15819C112.236 8.83527 112.241 15.5107 112.237 22.1877C112.237 22.3483 112.199 22.5089 112.166 22.7798L112.164 22.7782Z" fill="white"/>
</g>
<defs>
<clipPath id="clip0_1281_361">
<rect width="150" height="27.2469" fill="white" transform="translate(0 0.942261)"/>
</clipPath>
</defs>
</svg>
