<svg width="150" height="27" viewBox="0 0 150 27" fill="none" xmlns="http://www.w3.org/2000/svg">
<g clip-path="url(#clip0_1281_401)">
<path d="M66.6071 12.5808C66.9695 11.9504 67.2896 11.2851 67.6826 10.7275C69.2165 8.55446 71.8946 8.32109 73.4528 10.182C73.9789 10.8108 74.3096 11.617 74.5399 12.6308C74.6212 12.4459 74.6761 12.3232 74.729 12.1989C75.8541 9.5455 78.0652 8.30897 80.1326 9.21213C81.5726 9.841 82.3554 11.3003 82.5857 13.3915C82.6406 13.8885 82.6522 14.3992 82.6533 14.9038C82.6596 17.88 82.6649 20.8577 82.648 23.8339C82.6448 24.3248 82.7684 24.5309 83.0875 24.5749C83.1857 24.5885 83.2819 24.6325 83.3801 24.6597C83.884 24.7991 84.0647 25.2325 83.8777 25.9372C83.8449 26.0599 83.658 26.1705 83.5449 26.1645C82.8044 26.1251 82.0649 25.9917 81.3264 26.0008C79.7682 26.0205 78.2099 26.1114 76.6517 26.166C76.47 26.1721 76.2428 26.3039 76.208 25.8356C76.153 25.0916 76.208 24.8355 76.5143 24.7128C77.4134 24.3536 77.2877 24.6249 77.2908 23.1974C77.2951 21.091 77.3003 18.9862 77.276 16.8799C77.2686 16.2707 77.1979 15.6479 77.0869 15.0584C76.8841 13.9795 76.3738 13.4203 75.5974 13.3506C75.2942 13.3233 74.9889 13.346 74.6941 13.346C74.6941 15.7191 74.6941 17.9952 74.6941 20.2697C74.6941 21.4578 74.7057 22.6443 74.6878 23.8323C74.6804 24.2885 74.8061 24.5067 75.1072 24.5749C75.2266 24.6021 75.3417 24.6734 75.4611 24.6991C75.6998 24.7506 75.7907 24.9476 75.8034 25.2825C75.8372 26.1311 75.797 26.1933 75.2033 26.169C73.7116 26.1069 72.2199 26.022 70.7283 26.0023C70.0226 25.9932 69.3147 26.1069 68.6101 26.1827C68.3502 26.2099 68.2573 26.072 68.2499 25.7038C68.233 24.8507 68.2245 24.8461 68.8172 24.6173C69.1637 24.4829 69.3369 24.1546 69.3369 23.6323C69.3327 21.2896 69.3528 18.9453 69.3084 16.6041C69.2947 15.8964 69.1647 15.1569 68.9703 14.5038C68.6957 13.5779 67.5188 12.9899 66.8997 13.3885C66.8226 13.4385 66.7761 13.6961 66.7761 13.8567C66.7687 16.2631 66.7708 18.6695 66.7708 21.0759C66.7708 22.026 66.7825 22.9762 66.7656 23.9263C66.7592 24.2976 66.8533 24.49 67.0994 24.5552C67.1649 24.5718 67.2283 24.6006 67.2927 24.6249C67.8611 24.8401 67.8484 24.8401 67.8526 25.6705C67.8548 26.1039 67.7311 26.2069 67.4512 26.1827C66.3916 26.0948 65.3309 25.972 64.2703 25.9751C63.0332 25.9796 61.795 26.0887 60.559 26.1842C60.2283 26.2099 60.1364 26.0463 60.1449 25.5977C60.1607 24.8158 60.147 24.8264 60.6837 24.6567C61.4686 24.4097 61.3946 24.5794 61.3957 23.4323C61.3957 20.8046 61.3894 18.1755 61.402 15.5479C61.4042 15.0887 61.3027 14.8659 60.9784 14.8523C60.8696 14.8478 60.7618 14.7947 60.652 14.769C60.1533 14.6538 60.0382 14.4219 60.165 13.7158C60.1871 13.5915 60.2875 13.4506 60.3741 13.4021C62.3201 12.2929 64.0695 10.6926 65.7651 8.96361C66.0155 8.70751 66.2215 8.74388 66.4677 8.90754C66.7212 9.07574 66.6811 9.38791 66.6726 9.68189C66.6494 10.535 66.6187 11.3882 66.5944 12.2413C66.5913 12.358 66.6029 12.4762 66.6071 12.5823V12.5808Z" fill="white"/>
<path d="M6.55737 12.4761C6.83521 11.9821 7.12679 11.3411 7.50182 10.8213C8.91639 8.86042 10.5887 8.47097 12.4069 9.39989C13.4422 9.92875 14.075 11.0683 14.4003 12.5321C14.7511 11.9321 15.0712 11.2911 15.4568 10.7455C16.7097 8.96801 18.7676 8.42248 20.3893 9.40595C21.6897 10.1955 22.3606 11.6775 22.4789 13.6293C22.5655 15.0598 22.5328 16.5069 22.5391 17.9465C22.5476 19.862 22.5412 21.7789 22.5412 23.6943C22.5412 24.1893 22.7067 24.4873 23.0378 24.5884C23.1244 24.6141 23.2152 24.6262 23.2966 24.6702C23.4519 24.7551 23.7044 24.8202 23.7329 24.9657C23.7973 25.2991 23.7667 25.6809 23.7329 26.034C23.7265 26.1007 23.5301 26.1765 23.4234 26.1704C22.6838 26.1219 21.9433 25.9931 21.2048 26.0022C19.6466 26.0219 18.0884 26.1113 16.5301 26.1704C16.3421 26.178 16.1266 26.2825 16.0811 25.837C16.0146 25.1763 16.0959 24.8354 16.3959 24.7141C17.2855 24.3565 17.1809 24.6111 17.1809 23.2003C17.1809 21.0939 17.1851 18.9891 17.1576 16.8843C17.1502 16.2736 17.0826 15.6508 16.9717 15.0613C16.7689 13.9748 16.2396 13.4171 15.4483 13.3459C15.3818 13.3398 15.3163 13.3353 15.2497 13.3307C14.5673 13.2883 14.5799 13.2883 14.582 14.2324C14.5884 17.3828 14.5842 20.5348 14.5852 23.6852C14.5852 24.1742 14.7518 24.4808 15.0849 24.605C15.6987 24.8354 15.7114 24.8733 15.6733 25.7567C15.6596 26.0764 15.5793 26.2083 15.349 26.184C14.6433 26.1113 13.9366 25.9946 13.2309 26.0037C11.6726 26.0249 10.1144 26.1143 8.55615 26.1719C8.37972 26.178 8.17689 26.2795 8.14414 25.8416C8.09237 25.1293 8.14414 24.849 8.41353 24.7293C8.95231 24.4878 9.2217 23.964 9.2217 23.1579C9.2217 21.1788 9.2386 19.1982 9.21325 17.2207C9.20374 16.5009 9.14881 15.7614 9.01992 15.0673C8.77166 13.7293 7.73847 12.964 6.81197 13.3777C6.73168 13.4141 6.65139 13.6565 6.64928 13.805C6.63449 14.7234 6.64189 15.6417 6.64189 16.56C6.64189 18.983 6.64822 21.4046 6.63555 23.8277C6.63343 24.2747 6.73274 24.5187 7.04333 24.5747C7.09721 24.5853 7.14897 24.6187 7.20285 24.6384C7.72579 24.8339 7.86101 25.14 7.70994 25.8961C7.68459 26.0219 7.50711 26.1719 7.40252 26.1659C6.69576 26.1295 5.98901 25.9931 5.28331 26.0037C3.6807 26.0249 2.07809 26.1143 0.475476 26.1704C0.2906 26.1765 0.067692 26.2977 0.0338861 25.8355C-0.0231614 25.0566 0.0349425 24.8308 0.375115 24.7141C0.385679 24.7111 0.396243 24.705 0.406808 24.702C0.9801 24.5151 1.26675 23.9954 1.26675 23.1427C1.26675 20.6408 1.25724 18.139 1.27414 15.6371C1.27731 15.1325 1.19702 14.8491 0.817761 14.8431C0.719512 14.8431 0.62232 14.7931 0.524072 14.7703C0.0476197 14.6612 -0.0886603 14.3703 0.0539584 13.702C0.0803692 13.5777 0.181787 13.4459 0.271584 13.3944C2.18584 12.3003 3.90572 10.7243 5.58756 9.04833C5.73546 8.90134 5.94464 8.78769 6.11684 8.80587C6.42532 8.83921 6.58167 9.09985 6.56688 9.6075C6.53836 10.6001 6.55843 11.5972 6.55843 12.4821L6.55737 12.4761Z" fill="white"/>
<path d="M43.2135 11.1911C43.2051 11.3957 43.1956 11.52 43.1956 11.6457C43.1987 13.9248 43.1861 16.2055 43.2199 18.4846C43.2294 19.1362 43.3234 19.809 43.4703 20.4288C43.7048 21.4229 44.4136 21.879 45.1098 21.535C45.3972 21.3925 45.5979 21.488 45.7923 21.7744C45.9983 22.0775 45.9064 22.37 45.8007 22.6821C44.85 25.4734 42.6198 27.013 40.4996 26.3326C39.0765 25.875 38.1131 24.3248 37.9155 22.1381C37.8669 21.6062 37.8426 21.0667 37.8405 20.5303C37.8331 17.6178 37.8299 14.7037 37.8447 11.7912C37.8468 11.3245 37.738 11.1229 37.4243 11.0911C37.2151 11.0699 37.0006 11.0487 36.8031 10.9593C36.6964 10.9108 36.5591 10.7335 36.5432 10.588C36.4513 9.79548 36.5348 9.63182 37.0735 9.44392C38.9477 8.78777 40.564 7.49971 41.8856 5.47064C42.0092 5.28122 42.2068 5.10998 42.3821 5.08119C42.9505 4.98572 42.9727 5.02058 43.0234 5.83887C43.0794 6.72081 43.109 7.60579 43.1502 8.48924C43.1607 8.70745 43.1713 8.92567 43.1829 9.18328C43.4903 9.18328 43.7745 9.18479 44.0576 9.18328C44.9651 9.17419 45.8779 9.25753 46.7779 9.13327C48.0573 8.95597 49.1486 8.06494 50.1353 6.9269C50.5389 6.46169 50.9192 5.94495 51.272 5.40245C51.5467 4.97966 51.8678 5.03725 52.1901 5.10544C52.264 5.12059 52.3559 5.37972 52.3654 5.5358C52.4267 6.54352 52.4668 7.55426 52.5144 8.56349C52.5228 8.7514 52.5355 8.93779 52.5514 9.19843C52.7119 9.19843 52.8609 9.19995 53.0099 9.19843C53.6955 9.19085 54.3822 9.19085 55.0678 9.16661C55.3182 9.15752 55.4375 9.31208 55.4671 9.64698C55.4724 9.70911 55.4787 9.77275 55.484 9.83488C55.5749 11.0972 55.4925 11.2305 54.6251 11.2305C53.9533 11.2305 53.2814 11.2305 52.5873 11.2305C52.5778 11.3593 52.5598 11.4806 52.5598 11.6018C52.563 13.8976 52.5514 16.1933 52.5831 18.4876C52.5915 19.1256 52.6771 19.7848 52.8218 20.3879C53.0732 21.435 53.7758 21.885 54.51 21.5198C54.7921 21.3789 55.0044 21.4865 55.147 21.7881C55.2294 21.9623 55.2738 22.2775 55.221 22.4639C54.5913 24.7354 52.7965 26.4372 51.0808 26.469C50.1364 26.4872 49.2468 26.2796 48.4936 25.4037C47.584 24.3445 47.2396 22.8791 47.2195 21.2834C47.1794 18.1663 47.2026 15.0462 47.2005 11.9276C47.2005 11.2351 47.1984 11.2351 46.7241 11.2305C45.6951 11.2184 44.6672 11.2048 43.6382 11.1911C43.5072 11.1896 43.3773 11.1911 43.2125 11.1911H43.2135Z" fill="white"/>
<path d="M90.6832 22.3425C90.2796 23.6427 89.7789 24.7065 89.0193 25.4884C87.7283 26.8174 85.9968 26.828 84.8981 25.4581C84.0414 24.3898 83.7847 22.9669 83.8227 21.3924C83.8681 19.5027 84.5569 18.2814 85.7274 17.5207C87.1547 16.5917 88.6686 16.0689 90.1835 15.5552C90.2796 15.5219 90.3758 15.487 90.4972 15.4446C90.5258 14.1581 90.5617 12.8836 90.1803 11.6759C89.9997 11.1031 89.7334 10.6576 89.2697 10.547C88.9887 10.4803 88.7953 10.5848 88.7488 11.044C88.676 11.7789 88.6094 12.5184 88.5006 13.2428C88.2322 15.0249 87.4484 16.0401 86.2662 16.1705C85.7306 16.2296 85.2425 16.0614 84.9235 15.3855C84.6002 14.699 84.653 13.9702 84.9024 13.267C85.2267 12.3563 85.7327 11.6653 86.3127 11.0985C88.4414 9.01644 90.7814 8.46182 93.2693 9.30284C94.9364 9.86656 95.7826 11.5153 95.7921 13.9899C95.8005 16.3159 95.7984 18.6435 95.8101 20.9696C95.8122 21.2818 95.846 21.603 95.903 21.9061C96.0161 22.5138 96.2337 22.6335 96.6182 22.3425C96.9922 22.0592 97.3736 22.3107 97.4549 22.9214C97.4718 23.0502 97.4275 23.2442 97.362 23.3412C96.7112 24.314 96.0404 25.2626 95.1952 25.8945C94.2962 26.5658 93.3665 26.7447 92.4305 26.0597C91.7914 25.5915 91.4079 24.7732 91.1142 23.8685C90.9621 23.4018 90.8427 22.9138 90.6832 22.341V22.3425ZM90.5099 20.3407C90.5099 20.024 90.5142 19.7088 90.5099 19.3921C90.493 18.3693 90.137 17.6585 89.4989 17.2449C88.939 16.8827 88.5143 17.2161 88.4594 18.0889C88.378 19.3815 88.6295 20.5468 89.3003 21.4439C89.5095 21.7243 89.8285 21.8849 90.1159 21.9804C90.3483 22.0576 90.5363 21.8667 90.5141 21.4303C90.4962 21.0681 90.5099 20.7029 90.5099 20.3407Z" fill="white"/>
<path d="M30.5754 22.5336C30.2458 23.214 29.9342 24.0293 29.5095 24.6991C28.5904 26.1463 27.4198 26.7539 26.0644 26.3675C24.6763 25.972 23.754 24.2339 23.7001 22.0502C23.6441 19.7439 24.1956 18.4437 25.6714 17.4799C27.0765 16.5616 28.5703 16.0464 30.0683 15.563C30.3208 15.4811 30.4317 15.3569 30.4011 14.978C30.3261 14.04 30.305 13.0884 30.1835 12.1625C30.0968 11.5063 29.8486 10.9138 29.3742 10.6335C28.8988 10.3516 28.6759 10.5532 28.6009 11.276C28.5206 12.0413 28.4625 12.8171 28.3231 13.5612C28.0136 15.2144 27.1642 16.1479 26.0158 16.1873C24.9414 16.2237 24.3097 14.9583 24.7027 13.5309C24.9531 12.6186 25.4221 11.9428 25.9535 11.3594C27.3385 9.83945 28.9147 9.02418 30.6536 8.98023C31.4628 8.95902 32.2921 9.05146 33.0823 9.29543C34.7916 9.82581 35.6537 11.4457 35.6621 13.9415C35.6695 16.0464 35.6569 18.1512 35.6685 20.256C35.6716 20.791 35.7086 21.3319 35.7815 21.8547C35.8745 22.5245 36.1058 22.6458 36.5252 22.3185C36.8792 22.0411 36.9383 22.0745 37.1982 22.5427C37.4 22.9079 37.4021 23.2065 37.1412 23.5126C36.501 24.2611 35.8924 25.0719 35.2237 25.7629C34.6226 26.3842 33.9053 26.5615 33.1668 26.4478C32.3745 26.3266 31.7713 25.725 31.3677 24.7779C31.054 24.0414 30.8216 23.2352 30.5775 22.5321L30.5754 22.5336ZM30.399 20.3955C30.399 20.0484 30.4053 19.6999 30.3979 19.3529C30.3768 18.38 29.9236 17.4996 29.2929 17.1935C28.8122 16.9601 28.4668 17.2193 28.3579 17.8936C28.1583 19.1347 28.6178 20.9349 29.3521 21.6532C29.5412 21.8381 29.7915 21.9457 30.0229 21.9836C30.25 22.0199 30.4201 21.8457 30.4022 21.4395C30.3863 21.0925 30.399 20.744 30.399 20.397V20.3955Z" fill="white"/>
<path d="M143.012 15.7462C143.51 17.8844 144.202 19.7801 145.574 20.9757C146.645 21.9077 147.948 21.647 149.076 20.3196C149.293 20.0635 149.474 20.0332 149.697 20.262C149.915 20.4878 149.98 20.7363 149.855 21.1136C149.126 23.3078 147.953 24.849 146.391 25.7173C143.905 27.0993 141.562 26.7326 139.513 24.1655C138.436 22.8169 137.895 21.0106 137.76 18.9906C137.532 15.5962 138.222 12.7261 140.239 10.7091C141.434 9.51502 142.799 9.03162 144.242 8.95737C145.391 8.89827 146.518 9.04375 147.591 9.67717C149.214 10.6349 150.039 12.4245 149.998 14.8809C149.987 15.528 149.933 15.6144 149.475 15.6234C147.406 15.6598 145.339 15.6886 143.27 15.7204C143.196 15.7204 143.124 15.7341 143.012 15.7462ZM142.871 14.9824C143.183 14.9249 143.476 14.884 143.767 14.8127C144.431 14.6521 144.884 14.1005 145.037 13.1701C145.132 12.5958 145.181 11.9745 145.139 11.3926C145.043 10.0742 144.209 9.5423 143.47 10.2697C143.136 10.5985 142.941 11.0652 142.827 11.6108C142.594 12.7246 142.724 13.8277 142.871 14.9824Z" fill="white"/>
<path d="M119.627 15.7175C120.142 17.9163 120.845 19.8408 122.256 21.0228C123.308 21.9047 124.604 21.6168 125.699 20.3166C125.949 20.0196 126.148 20.056 126.373 20.3212C126.549 20.5288 126.591 20.7546 126.491 21.0713C126.078 22.3654 125.485 23.461 124.695 24.3127C122.462 26.7175 120.039 27.2131 117.492 25.5037C115.687 24.2914 114.695 22.1214 114.416 19.318C114.149 16.6283 114.506 14.1446 115.793 12.0503C116.724 10.5335 117.923 9.65153 119.29 9.24693C120.944 8.75747 122.589 8.76807 124.184 9.66668C125.827 10.5926 126.67 12.4292 126.622 14.8856C126.609 15.5281 126.554 15.619 126.098 15.6266C124.019 15.6615 121.94 15.6902 119.861 15.7206C119.806 15.7206 119.752 15.7206 119.628 15.7206L119.627 15.7175ZM119.492 14.9841C119.806 14.9265 120.08 14.8856 120.351 14.825C121.059 14.6643 121.521 14.0779 121.679 13.0869C121.764 12.5565 121.805 11.9852 121.769 11.4457C121.68 10.0955 120.832 9.4909 120.108 10.285C119.822 10.5986 119.593 11.1169 119.466 11.6094C119.185 12.6989 119.347 13.8188 119.492 14.9841Z" fill="white"/>
<path d="M98.3605 15.4872C98.3605 12.7171 98.3542 9.94857 98.3668 7.17848C98.369 6.72842 98.2887 6.48748 97.957 6.47233C97.826 6.46626 97.6928 6.42687 97.5661 6.37534C97.3812 6.30109 97.1181 6.37837 97.1266 5.90861C97.1329 5.50098 97.0886 5.13881 97.4668 4.92817C99.4222 3.8356 101.212 2.29902 102.955 0.642728C103.103 0.5018 103.316 0.404817 103.488 0.432093C103.797 0.480585 103.941 0.75335 103.917 1.25645C103.566 8.79689 103.811 16.3464 103.731 23.8914C103.727 24.3415 103.853 24.5294 104.142 24.5688C104.23 24.5809 104.315 24.6203 104.401 24.6461C104.998 24.8158 104.974 24.6673 104.984 25.6735C104.989 26.0614 104.895 26.2114 104.617 26.1811C103.878 26.1023 103.138 25.9917 102.399 26.0008C100.786 26.022 99.174 26.1114 97.5608 26.169C97.3727 26.1751 97.1551 26.2842 97.1266 25.822C97.0791 25.037 97.1245 24.837 97.4414 24.7233C97.4625 24.7158 97.4837 24.7021 97.5048 24.6961C98.076 24.5092 98.3616 24.0041 98.3616 23.1807V15.4887L98.3605 15.4872Z" fill="white"/>
<path d="M136.277 11.7216C136.277 12.402 136.27 13.0839 136.28 13.7643C136.284 14.0477 136.2 14.1492 136.012 14.1841C135.452 14.2841 135.315 14.178 135.114 13.4385C134.916 12.7172 134.724 11.9929 134.517 11.2776C134.148 10.0001 132.933 9.51675 132.146 10.326C131.547 10.9412 131.539 12.4399 132.187 13.0824C132.626 13.5173 133.146 13.784 133.633 14.1144C134.141 14.4583 134.681 14.725 135.161 15.1327C137.262 16.9163 137.765 20.9229 136.25 23.6854C135.419 25.2007 134.273 25.9387 132.986 26.257C131.167 26.7055 129.374 26.4888 127.613 25.6932C127.296 25.5493 127.159 25.2947 127.182 24.828C127.257 23.3459 127.325 21.8624 127.4 20.3804C127.413 20.1152 127.422 19.7985 127.695 19.8258C127.993 19.8545 128.356 19.6106 128.53 20.2122C128.779 21.0729 129.03 21.9351 129.293 22.7868C129.417 23.1914 129.562 23.5854 129.717 23.9672C130.244 25.2553 131.393 25.7008 132.312 24.9825C133.081 24.3824 133.236 22.7171 132.551 21.8503C132.205 21.4139 131.754 21.1244 131.324 20.8577C130.667 20.4501 129.965 20.1849 129.321 19.7424C128.008 18.8408 127.382 17.2799 127.359 15.2084C127.33 12.3944 128.274 10.4881 130.195 9.46674C131.544 8.74998 132.941 8.69542 134.351 8.84544C134.836 8.89697 135.319 8.99546 135.8 9.08184C136.227 9.15761 136.274 9.23792 136.276 9.86831C136.278 10.4851 136.276 11.1033 136.276 11.7216H136.277Z" fill="white"/>
<path d="M111.365 9.18016C112.027 9.18016 112.665 9.18016 113.304 9.18016C113.514 9.18016 113.724 9.18319 113.934 9.17107C114.158 9.15894 114.256 9.32563 114.277 9.62264C114.28 9.66962 114.284 9.7166 114.287 9.76509C114.374 11.1956 114.351 11.238 113.355 11.232C112.791 11.2289 112.227 11.2153 111.664 11.1895C111.457 11.1804 111.366 11.2653 111.369 11.5881C111.389 14.0248 111.388 16.463 111.422 18.8997C111.428 19.3952 111.515 19.9074 111.63 20.3787C111.886 21.4182 112.586 21.888 113.317 21.5243C113.595 21.3864 113.786 21.5031 113.969 21.7698C114.146 22.0274 114.109 22.2941 114.012 22.5957C113.075 25.5552 110.561 27.1857 108.397 26.2219C107.058 25.6249 106.373 24.2262 106.123 22.3305C106.055 21.8213 106.031 21.294 106.03 20.7742C106.022 17.8132 106.026 14.8522 106.026 11.8911C106.026 11.2017 106.011 11.1804 105.541 11.085C105.453 11.0668 105.364 11.0622 105.277 11.0456C104.718 10.9319 104.582 10.6758 104.741 9.89086C104.776 9.7166 104.981 9.55142 105.128 9.49687C106.193 9.10288 107.244 8.6316 108.149 7.7239C108.834 7.03744 109.469 6.23884 110.08 5.42206C110.371 5.03413 110.672 5.02807 110.992 5.10838C111.08 5.1296 111.18 5.43115 111.192 5.61451C111.257 6.63738 111.297 7.6648 111.346 8.6907C111.353 8.84375 111.358 8.99832 111.364 9.18622L111.365 9.18016Z" fill="white"/>
</g>
<defs>
<clipPath id="clip0_1281_401">
<rect width="150" height="26.087" fill="white" transform="translate(0 0.42749)"/>
</clipPath>
</defs>
</svg>
