<svg width="150" height="29" viewBox="0 0 150 29" fill="none" xmlns="http://www.w3.org/2000/svg">
<g clip-path="url(#clip0_1281_320)">
<path d="M26.0475 0.440674C26.0759 0.809271 26.1137 1.18732 26.1137 1.55592C26.1137 9.39096 26.1137 17.2355 26.1137 25.0705C26.1137 25.4769 26.1137 25.8739 26.1137 26.337C25.6978 26.3653 25.4143 26.4126 25.1213 26.4126C17.0405 26.4126 8.96919 26.4126 0.888413 26.4126C0.595426 26.4126 0.292987 26.3464 0 26.3181V0.440674H26.0475ZM4.3003 4.72207V22.1406H8.46827V8.8995H10.9445V22.1406H15.207V8.8995H17.6643V22.1406H21.8134V4.72207H4.3003Z" fill="white"/>
<path d="M33.9014 13.181V22.4337H30.4895V5.06238C32.5593 4.62763 32.7105 4.69379 33.7691 6.41391C35.3947 9.06969 37.0297 11.7255 38.6648 14.3813C38.8538 14.6932 39.0617 14.9861 39.3358 15.402C41.1883 12.3871 42.9745 9.48555 44.7608 6.57458C45.5106 5.35852 46.6353 4.83556 48.1349 5.00568V22.4431H44.8081V12.9069C44.4489 13.3605 44.2694 13.559 44.1276 13.7858C43.0596 15.506 42.0105 17.245 40.9331 18.9651C40.3188 19.9386 38.3151 19.9386 37.7102 18.9651C36.5005 17.0276 35.3096 15.0807 34.1188 13.1432C34.0526 13.1621 33.9864 13.1715 33.9203 13.1904L33.9014 13.181Z" fill="white"/>
<path d="M99.8804 10.2605C101.005 10.6291 102.281 9.72176 103.188 10.9977C106.77 9.50438 109.426 9.96749 111.297 12.4626C113.055 14.7971 113.018 18.2656 111.203 20.5339C109.369 22.8306 106.496 23.3315 103.103 21.8665V28.5107H99.8804V10.2605ZM102.886 16.4416C103.094 17.1977 103.094 18.1144 103.538 18.6909C104.521 19.9291 106.534 20.0803 107.848 19.2202C109.152 18.3602 109.643 16.5739 109.001 15.0333C108.386 13.5873 106.969 12.7839 105.438 13.1714C104.011 13.5306 102.772 13.8425 102.886 16.4416Z" fill="white"/>
<path d="M91.204 10.081C94.8805 10.0715 97.7442 12.8029 97.7915 16.366C97.8388 19.948 94.9372 22.7645 91.204 22.755C87.5086 22.755 84.6921 20.0047 84.6921 16.4133C84.6921 12.8313 87.518 10.081 91.204 10.0715V10.081ZM94.4552 16.47C94.4741 14.5609 93.1037 13.1148 91.2702 13.0865C89.4366 13.0581 88.019 14.4947 87.9906 16.3849C87.9623 18.2752 89.3421 19.7307 91.1851 19.759C93.0281 19.7874 94.4458 18.3697 94.4552 16.47Z" fill="white"/>
<path d="M120.871 22.7644C117.166 22.7644 114.35 20.0425 114.331 16.4605C114.322 12.869 117.119 10.0998 120.796 10.0809C124.519 10.062 127.421 12.8501 127.412 16.451C127.402 20.0141 124.548 22.7644 120.862 22.7644H120.871ZM124.104 16.4321C124.104 14.5419 122.695 13.0864 120.862 13.0864C119.047 13.0864 117.611 14.5513 117.601 16.4227C117.601 18.294 119.019 19.7589 120.852 19.7589C122.695 19.7589 124.094 18.3224 124.094 16.4321H124.104Z" fill="white"/>
<path d="M61.9716 17.2638H53.6357C53.7585 18.568 54.3918 19.3619 55.4219 19.8061C57.1232 20.5339 58.5786 19.9668 60.0247 18.7476C60.5634 19.4186 61.0927 20.0802 61.6314 20.7513C60.053 22.6415 56.9058 23.3503 54.2216 22.3107C51.6793 21.3278 50.1671 18.861 50.3656 16.054C50.5735 13.1147 52.2841 10.9031 54.8738 10.2415C59.0228 9.18298 62.8978 12.9162 61.9811 17.2638H61.9716ZM58.6732 14.8159C58.3707 13.3888 57.4918 12.6894 56.2158 12.7461C54.9305 12.8028 54.0326 13.5967 53.8908 14.8159H58.6732Z" fill="white"/>
<path d="M72.6136 19.8252C72.7743 20.7325 72.9255 21.5642 73.0767 22.3864C69.1167 23.6057 65.8749 21.7249 65.9033 18.0956C65.9127 16.4889 65.9033 14.8822 65.9033 13.1337H62.5481V10.3456H65.8466V7.0188H69.1734V10.3267H73.1618V13.0676H69.249C69.249 14.9295 69.2112 16.6779 69.2679 18.4264C69.2963 19.3054 69.9295 19.7401 70.7801 19.8157C71.3377 19.863 71.9048 19.8157 72.6136 19.8157V19.8252Z" fill="white"/>
<path d="M149.726 11.3853C149.263 12.0941 148.8 12.8124 148.374 13.4645C147.42 13.2472 146.56 12.9164 145.7 12.8975C145.218 12.8975 144.736 13.4173 144.254 13.7008C144.622 14.0694 144.934 14.5514 145.369 14.7688C146.304 15.2319 147.316 15.5627 148.299 15.9408C150.605 16.8386 150.52 20.9499 148.318 22.0557C146.049 23.1898 142.6 22.9157 140.369 21.0728C140.861 20.3545 141.362 19.6267 141.721 19.088C142.978 19.4188 144.074 19.8347 145.199 19.9575C145.7 20.0142 146.531 19.5889 146.73 19.1731C147.079 18.417 146.257 18.1145 145.671 17.8688C144.773 17.4908 143.828 17.2072 142.94 16.8008C141.777 16.2715 140.965 15.4115 140.898 14.06C140.832 12.6517 141.494 11.6121 142.656 10.8749C144.594 9.64626 147.845 9.87309 149.716 11.3853H149.726Z" fill="white"/>
<path d="M129.529 4.72217H132.667V22.4243H129.529V4.72217Z" fill="white"/>
<path d="M82.8114 13.0297C81.9797 13.1148 81.2897 13.0959 80.6565 13.266C79.1821 13.6629 78.5867 14.5135 78.5867 16.0257C78.5867 18.1523 78.5867 20.2693 78.5867 22.462H75.3733V10.3834H78.3032C78.3882 10.6291 78.4827 10.9221 78.6056 11.2907C79.9193 10.2794 81.3559 9.89191 83.1044 10.2038C83.0004 11.1489 82.9059 12.0846 82.8019 13.0392L82.8114 13.0297Z" fill="white"/>
<path d="M135.455 10.355H138.526V22.4242H135.455V10.355Z" fill="white"/>
<path d="M136.948 8.07734C135.757 8.06789 134.774 7.08496 134.812 5.94137C134.84 4.78832 135.87 3.85265 137.052 3.89991C138.224 3.94716 139.112 4.84503 139.112 5.98862C139.112 7.17947 138.167 8.09624 136.957 8.08679L136.948 8.07734Z" fill="white"/>
</g>
<defs>
<clipPath id="clip0_1281_320">
<rect width="150" height="28.0606" fill="white" transform="translate(0 0.440674)"/>
</clipPath>
</defs>
</svg>
