<svg width="150" height="55" viewBox="0 0 150 55" fill="none" xmlns="http://www.w3.org/2000/svg">
<g clip-path="url(#clip0_1281_333)">
<path d="M0 44.7094C0.67696 40.1896 1.25212 35.0081 2.29555 29.9181C2.9267 26.8489 5.604 25.3372 8.43909 24.4923C10.9739 23.7339 12.5721 25.663 14.0431 27.1797C15.5548 28.7373 16.7408 30.6205 17.9878 32.4173C19.4842 34.5805 20.1968 34.7281 21.963 32.6616C24.0346 30.2337 25.8924 27.6328 27.9131 25.159C30.2698 22.268 33.5884 21.0922 36.113 22.4054C37.1666 22.9551 38.3373 23.8815 38.7648 24.9198C40.4954 29.0986 41.946 33.3895 43.5392 37.6243C43.982 38.8 44.5724 39.9147 45.0814 41.0651C46.5677 44.399 45.6922 46.9032 42.455 48.588C38.2406 50.7766 34.922 49.1173 34.413 44.516C34.2348 42.9331 34.245 41.3348 34.0618 39.7519C33.9396 38.6881 33.7971 37.5683 33.3543 36.6114C32.265 34.2344 31.1096 34.1071 29.5368 36.1635C27.5976 38.7033 25.6837 41.2687 23.9074 43.9154C22.0801 46.6334 19.2552 46.7963 16.4964 46.8523C14.0126 46.8981 12.5619 45.249 11.6814 43.0247C11.4676 42.4801 10.8975 42.078 10.4903 41.6097C10.134 42.1848 9.55887 42.7295 9.47234 43.3453C9.33492 44.3226 9.41126 45.3609 9.58941 46.3433C10.2155 49.835 7.019 53.6117 3.46115 53.459C1.51171 53.3776 0.290126 52.5785 0.335935 50.3694C0.371564 48.6999 0.152698 47.0254 0.0101798 44.7094H0Z" fill="white"/>
<path d="M99.1669 51.1176C95.5021 50.97 92.4074 49.046 91.2877 45.6562C90.3969 42.9687 89.9897 40.1234 89.1397 37.4207C88.4577 35.2422 87.3786 33.1859 86.5897 31.0328C86.2385 30.0759 85.6837 28.8187 86.0247 28.0501C88.1828 23.23 86.9612 18.2978 86.8798 13.3911C86.834 10.6375 86.8951 7.86349 87.1597 5.12003C87.3582 3.08915 91.5625 0.0911847 93.4356 0.686705C94.2653 0.951381 95.3138 2.09661 95.38 2.90591C95.5836 5.47632 95.3443 8.07727 95.324 10.668C95.2985 13.2639 95.1255 15.8852 95.38 18.4556C95.777 22.4461 96.2809 22.6955 100.327 23.5455C103.687 24.253 107.29 24.6602 110.248 26.2127C115.49 28.9663 117.44 32.402 115.404 37.6497C113.429 42.7549 111.332 47.7379 105.545 49.6619C103.488 50.344 101.3 50.6392 99.177 51.1126L99.1669 51.1176ZM102.72 42.6786C103.819 41.8235 105.107 41.233 105.728 40.2354C106.608 38.8153 107.672 37.1916 106.354 35.3592C104.654 32.9975 102.292 31.8218 99.4621 31.837C98.7597 31.837 97.3905 33.0281 97.477 33.4251C98.0216 35.9191 98.7291 38.4081 99.7369 40.7495C100.078 41.5384 101.447 41.8896 102.73 42.6786H102.72Z" fill="white"/>
<path d="M67.7621 18.2928C71.1571 18.135 74.0685 19.9674 76.4404 22.8075C79.6267 26.625 82.4364 30.646 84.0549 35.4407C85.2918 39.1004 84.6556 42.4495 82.1157 45.0199C77.8147 49.3667 72.4245 51.4892 66.174 51.2195C60.6159 50.9802 56.3301 46.1346 56.7119 39.4058C56.8799 36.3925 58.2236 33.4556 58.9718 30.4679C59.2925 29.1954 59.7658 27.8567 59.6488 26.5995C59.1958 21.8455 62.3872 18.2622 67.7672 18.2877L67.7621 18.2928ZM71.1978 42.8007C74.7251 42.7549 75.8602 41.3603 74.8116 38.0315C74.3179 36.4587 73.4934 34.9572 72.6433 33.5269C71.6355 31.837 70.0831 31.7607 68.4747 32.6413C66.0315 33.9748 65.2171 36.1686 65.9857 39.08C66.6881 41.7369 68.2304 42.8364 71.1978 42.7956V42.8007Z" fill="white"/>
<path d="M122.494 11.8489C124.016 12.8872 125.207 13.5845 126.261 14.4396C129.243 16.8675 131.982 19.6568 135.178 21.759C138.767 24.1156 139.871 23.5811 142.604 20.3898C143.582 19.2445 144.981 18.252 146.391 17.7481C147.358 17.402 149.201 17.6412 149.695 18.3182C150.229 19.046 150 20.7715 149.481 21.7284C147.557 25.2659 145.185 28.5693 143.332 32.1373C140.594 37.4105 137.708 42.648 136.873 48.6999C136.456 51.7131 133.656 54.1716 130.699 54.6297C127.905 55.0623 126.083 53.2249 127.106 50.6137C129.025 45.6969 131.254 40.8971 133.361 36.0515C133.763 35.1251 134.201 34.2191 134.603 33.2927C135.168 31.9795 134.878 30.8597 133.443 30.4933C127.238 28.9154 122.947 24.2785 117.862 20.9293C115.837 19.5957 115.506 17.575 117.313 15.5238C118.616 14.0426 120.601 13.157 122.494 11.8591V11.8489Z" fill="white"/>
</g>
<defs>
<clipPath id="clip0_1281_333">
<rect width="150" height="54.0804" fill="white" transform="translate(0 0.610352)"/>
</clipPath>
</defs>
</svg>
