<svg width="150" height="39" viewBox="0 0 150 39" fill="none" xmlns="http://www.w3.org/2000/svg">
<g clip-path="url(#clip0_1326_88)">
<path d="M0 0.5H5.79084C8.36454 7.17773 10.9599 13.9078 13.5528 20.638C13.6992 20.6046 13.8457 20.5689 13.9945 20.5356V0.633317H20.2199V36.1312C18.0087 36.3693 15.7904 36.6074 13.4615 36.8597C11.1543 30.6415 8.92634 24.6398 6.70076 18.6382L6.21099 18.7072V37.6549C4.00701 37.9548 2.04072 38.2215 0 38.5V0.5Z" fill="white"/>
<path d="M127.602 0.516663H134.368C135.66 3.58295 136.98 6.71827 138.519 10.3726C140.154 6.85634 141.609 3.72102 143.073 0.571418H149.964C147.21 6.63494 144.552 12.489 141.835 18.4763C144.49 24.985 147.172 31.5509 150.002 38.4881C147.405 38.1738 145.172 37.9025 142.86 37.6239C141.366 34.0458 139.9 30.5272 138.212 26.4825C136.522 30.0987 135.052 33.2459 133.516 36.536C131.405 36.3431 129.348 36.1551 126.916 35.9337C129.634 29.9368 132.212 24.247 134.875 18.3716C132.515 12.5747 130.123 6.70636 127.602 0.516663Z" fill="white"/>
<path d="M26.6111 0.549988H43.89V6.34926H32.9805V14.3364H41.1578V20.2428H32.9661V29.1583C36.6346 28.9488 40.1518 28.7488 43.8588 28.5393V34.3458C38.1688 34.7433 32.4667 35.1409 26.6111 35.5504V0.549988Z" fill="white"/>
<path d="M78.0539 19.9809V33.4054H71.9365V0.578552H89.1458V6.42068H78.2099V13.9983H86.5217V19.9833H78.0539V19.9809Z" fill="white"/>
<path d="M110.453 34.629C104.761 34.3529 99.2724 34.0886 93.6064 33.8149V0.649963H99.7718V28.1322C103.486 28.3727 106.914 28.5965 110.453 28.8274V34.629Z" fill="white"/>
<path d="M61.0966 33.6863H54.7584V6.47066H48.2881V0.647583H67.4804V6.35877H61.0966V33.6863Z" fill="white"/>
<path d="M122.042 35.4432C119.973 35.3075 118.062 35.1837 115.982 35.0457V0.638062H122.042V35.4432Z" fill="white"/>
</g>
<defs>
<clipPath id="clip0_1326_88">
<rect width="150" height="38" fill="white" transform="translate(0 0.5)"/>
</clipPath>
</defs>
</svg>
