<svg width="150" height="25" viewBox="0 0 150 25" fill="none" xmlns="http://www.w3.org/2000/svg">
<g clip-path="url(#clip0_1326_67)">
<path d="M12.8284 10.5205C12.9132 10.2417 12.998 9.96365 13.0819 9.68481C13.7718 7.39813 14.4559 5.11065 15.1573 2.82722C15.2874 2.4049 15.4586 1.98988 15.657 1.5935C16.0028 0.903689 16.5988 0.558378 17.3742 0.580264C17.7768 0.591612 18.1859 0.663754 18.5753 0.769131C19.4866 1.01636 19.9016 1.57161 19.8373 2.4965C19.8036 2.97637 19.7032 3.46029 19.5698 3.92476C18.4255 7.90637 17.2516 11.8791 16.1188 15.8639C15.5409 17.8961 14.9935 19.9388 14.5037 21.9928C14.1875 23.3173 12.7922 23.8977 11.5861 23.1957C10.8592 22.7726 10.4526 22.1095 10.2509 21.3281C10.0179 20.4284 9.80633 19.5221 9.61781 18.6126C9.04073 15.8193 8.47929 13.0236 7.90962 10.2287C7.86763 10.0228 7.81248 9.81936 7.72851 9.46919C7.62643 9.79261 7.55481 9.9831 7.50541 10.1793C6.56611 13.8861 5.62517 17.5929 4.69327 21.3022C4.31871 22.7937 3.00813 23.558 1.51151 23.1398C0.450369 22.8431 -0.183515 21.9304 0.0461647 20.8661C0.537631 18.5956 1.03157 16.3227 1.62264 14.0758C2.56359 10.5003 3.58027 6.9442 4.57802 3.38409C4.70892 2.918 4.8925 2.46245 5.09748 2.0223C5.49592 1.16794 6.17508 0.738329 7.1506 0.798312C7.90962 0.844516 8.63488 1.02609 9.31569 1.35194C10.1332 1.74265 10.525 2.46083 10.7547 3.28196C11.107 4.54405 11.4528 5.80776 11.7936 7.07309C12.1015 8.2144 12.3995 9.35814 12.7024 10.5011L12.8276 10.5205H12.8284Z" fill="white"/>
<path d="M135.894 12.333C135.987 12.0874 136.037 11.9512 136.09 11.8167C136.711 10.2441 137.331 8.67157 137.955 7.10065C138.017 6.94421 138.1 6.79425 138.183 6.64672C138.523 6.04932 139.026 5.76399 139.73 5.88153C139.94 5.91638 140.15 5.96096 140.358 6.01284C141.337 6.25764 141.652 6.62646 141.593 7.63159C141.557 8.25898 141.452 8.89287 141.29 9.50162C140.37 12.9718 139.422 16.4346 138.488 19.9015C138.334 20.4721 138.216 21.0517 138.073 21.6256C137.793 22.7515 136.85 23.3319 135.697 23.083C134.772 22.8836 134.122 22.3357 133.728 21.5032C133.576 21.1806 133.467 20.8328 133.384 20.4859C132.907 18.4943 132.442 16.4994 131.973 14.5062C131.956 14.4316 131.932 14.3579 131.813 14.2655C131.74 14.4973 131.656 14.7259 131.595 14.9609C131.03 17.1268 130.461 19.2919 129.913 21.4627C129.692 22.3397 129.191 22.929 128.297 23.173C126.799 23.5816 125.456 22.4435 125.743 20.9398C126.095 19.0949 126.485 17.2541 126.956 15.4359C127.585 13.0042 128.298 10.5935 129 8.18117C129.153 7.65753 129.375 7.14523 129.633 6.66212C130.041 5.89936 130.593 5.66348 131.449 5.79641C131.491 5.8029 131.532 5.81668 131.575 5.82235C133.342 6.05499 134.446 6.95718 134.829 8.73723C135.081 9.90934 135.506 11.045 135.894 12.3338V12.333Z" fill="white"/>
<path d="M81.7149 7.08366C82.2188 6.7805 82.6402 6.48626 83.0971 6.26091C84.0513 5.78996 84.6069 5.97315 85.1083 6.8956C85.6557 7.90236 85.8846 9.00314 85.9562 10.1234C86.1538 13.2077 85.5372 16.1339 84.048 18.8631C83.2774 20.2744 82.2772 21.5057 80.9559 22.4638C80.2932 22.9445 79.5704 23.3133 78.7653 23.4965C77.3798 23.8126 76.1236 23.4867 74.9991 22.6672C73.6556 21.6889 72.9287 20.323 72.5895 18.7456C72.1211 16.5651 72.4915 14.456 73.2546 12.4027C74.1495 9.9953 75.6181 8.00287 77.8293 6.60217C78.3833 6.25119 78.9901 5.96018 79.6075 5.73079C80.5377 5.38548 80.9987 5.60515 81.426 6.47653C81.5174 6.66296 81.6046 6.85183 81.7149 7.08285V7.08366ZM81.3848 11.8669C81.3387 11.3417 81.314 10.8132 81.2399 10.2912C81.1741 9.82345 80.839 9.65323 80.406 9.8348C80.2899 9.88344 80.1862 9.96612 80.0833 10.0407C78.8937 10.9048 78.0302 12.0112 77.5371 13.3868C77.0662 14.7 76.9304 16.0609 76.997 17.4438C77.0077 17.6708 77.0703 17.9067 77.1617 18.1158C77.4539 18.7805 78.1331 19.0301 78.7522 18.6475C79.0847 18.4425 79.3877 18.1336 79.5984 17.8053C80.7567 15.9961 81.3684 14.0191 81.3848 11.8661V11.8669Z" fill="white"/>
<path d="M122.156 7.07799C122.685 6.76429 123.126 6.45789 123.605 6.2293C124.5 5.80212 125.042 5.98693 125.524 6.84859C126.094 7.86912 126.325 8.99179 126.398 10.1339C126.594 13.1963 125.978 16.0999 124.515 18.8169C123.876 20.002 123.084 21.0858 122.032 21.9442C121.46 22.4111 120.828 22.8399 120.161 23.1552C118.45 23.9642 116.815 23.7105 115.33 22.5854C114.047 21.6135 113.356 20.2711 113.027 18.7375C112.561 16.5554 112.934 14.4471 113.699 12.3955C114.62 9.92397 116.143 7.89749 118.441 6.49598C118.947 6.18715 119.497 5.92857 120.057 5.72755C120.986 5.39358 121.444 5.61001 121.871 6.48626C121.963 6.67269 122.051 6.85994 122.156 7.07961V7.07799ZM121.827 11.871C121.781 11.3457 121.756 10.8172 121.682 10.2952C121.613 9.80481 121.251 9.64026 120.793 9.86074C120.697 9.90614 120.613 9.97585 120.528 10.0383C119.38 10.878 118.528 11.9391 118.027 13.266C117.517 14.6157 117.375 16.0155 117.438 17.4414C117.448 17.6683 117.51 17.9042 117.601 18.1134C117.892 18.7788 118.572 19.0309 119.19 18.65C119.523 18.4457 119.827 18.1369 120.037 17.8094C121.197 16.0001 121.808 14.0239 121.827 11.871Z" fill="white"/>
<path d="M100.308 13.1193C100.316 14.1552 100.104 15.1466 99.7075 16.0893C98.4364 19.1087 96.287 21.3152 93.2715 22.6851C92.1437 23.1973 90.9533 23.413 89.702 23.2914C88.9529 23.2184 88.3264 22.9282 87.8819 22.3454C87.4455 21.7731 87.0356 21.1749 86.68 20.5516C86.2231 19.7491 86.2519 18.8939 86.5598 18.0379C86.9533 16.9445 87.3805 15.8599 87.7213 14.7502C88.0679 13.621 88.3478 12.4708 88.6162 11.3206C88.7751 10.6373 88.6787 10.5141 87.9913 10.262C87.6826 10.1485 87.5303 9.92395 87.546 9.63538C87.5814 9.00636 87.6168 8.37167 87.7386 7.75562C87.8514 7.18659 88.263 6.77643 88.7948 6.55027C89.2624 6.35168 89.7588 6.18389 90.2593 6.10121C92.2886 5.76643 94.2874 5.85641 96.1635 6.77967C98.8102 8.08148 100.24 10.1769 100.307 13.1193H100.308ZM91.9782 9.62565C92.0885 9.8591 92.1239 10.1112 92.2655 10.202C92.7167 10.4897 92.7512 10.9194 92.771 11.3644C92.8146 12.3249 92.6228 13.2603 92.3594 14.1731C92.0087 15.3889 91.5938 16.587 91.2036 17.7915C91.099 18.1133 90.9261 18.4659 91.2637 18.7229C91.5855 18.9677 91.9725 18.8972 92.2836 18.6743C92.9579 18.192 93.6774 17.7461 94.2569 17.1674C95.6284 15.7975 96.1133 14.1139 95.7684 12.2203C95.4564 10.5043 93.777 9.31438 91.9782 9.62484V9.62565Z" fill="white"/>
<path d="M45.0214 15.8088C45.9788 17.5864 46.9173 19.3179 47.8409 21.0558C48.0286 21.4092 48.1999 21.7796 48.3102 22.1614C48.5119 22.8626 48.3003 23.4154 47.6565 23.7874C47.2375 24.0298 46.7732 24.2268 46.304 24.35C45.5194 24.5567 44.9917 24.2997 44.6015 23.5832C43.6795 21.8899 42.7699 20.1909 41.8528 18.4951C41.7548 18.3135 41.6445 18.1376 41.4897 17.8742C41.3959 18.1263 41.3267 18.29 41.2741 18.4586C40.9357 19.5262 40.6023 20.5953 40.2656 21.6629C40.2212 21.8039 40.1751 21.945 40.1199 22.082C39.6465 23.25 38.6447 23.7396 37.488 23.3522C36.4697 23.0109 35.5526 22.0187 35.9618 20.6796C37.3637 16.0933 38.7558 11.5038 40.1084 6.90367C40.4871 5.61727 42.2051 5.06526 43.3181 5.71211C43.7898 5.9869 44.0887 6.40273 44.1241 6.94015C44.1512 7.35679 44.143 7.79046 44.0533 8.19575C43.7865 9.39056 43.4704 10.5748 43.1757 11.764C43.1362 11.9237 43.109 12.0858 43.0506 12.3711C43.3626 12.2033 43.5865 12.1028 43.789 11.9707C45.6446 10.7572 47.0012 9.13036 47.8944 7.1274C48.3094 6.19765 48.6238 5.9642 49.6553 5.99825C50.0793 6.01203 50.5148 6.06796 50.919 6.18954C51.599 6.39462 51.8517 6.87774 51.7117 7.5716C51.6788 7.73615 51.6195 7.89746 51.5545 8.05228C50.2382 11.199 48.2805 13.8294 45.2758 15.6183C45.2041 15.6613 45.1408 15.7172 45.0206 15.8064L45.0214 15.8088Z" fill="white"/>
<path d="M57.7206 10.0236C57.4802 10.9793 57.2645 11.8337 57.0373 12.7375C57.2612 12.7748 57.4448 12.821 57.63 12.8331C58.529 12.8915 59.4288 12.9499 60.3286 12.992C61.4712 13.0447 62.0434 13.7094 61.8853 14.8296C61.8614 14.9966 61.817 15.1603 61.775 15.3241C61.514 16.3527 60.9682 16.8537 59.8898 16.9169C58.8624 16.9769 57.8301 16.9517 56.8002 16.9623C56.4602 16.9655 56.1203 16.9623 55.7029 16.9623C55.5736 17.5321 55.4131 18.0566 55.3464 18.5924C55.2954 19.0033 55.4641 19.1622 55.8832 19.2384C56.1342 19.2838 56.3944 19.2935 56.6512 19.2951C57.4884 19.3024 58.3257 19.2903 59.1629 19.3008C60.0783 19.313 60.4216 19.6429 60.3615 20.5483C60.3253 21.0906 60.2051 21.6353 60.0544 22.1598C59.8824 22.7564 59.4247 23.1179 58.8188 23.2435C58.4022 23.3295 57.9684 23.3732 57.5436 23.3667C56.3853 23.3489 55.2262 23.3068 54.0688 23.2524C52.2099 23.1649 51.0492 22.026 50.9397 20.1998C50.8944 19.4354 50.9496 18.6807 51.1784 17.9423C51.2657 17.6602 51.3365 17.3741 51.4229 17.0579C50.482 16.574 50.4721 15.7553 50.659 14.888C50.8705 13.9039 51.3653 13.1306 52.3721 12.7504C52.5079 12.6986 52.6652 12.5567 52.7047 12.4254C52.9327 11.6578 53.1286 10.8812 53.3427 10.0796C52.5721 9.76505 52.4602 9.14089 52.489 8.45189C52.5162 7.8245 52.7096 7.24736 53.0677 6.7302C53.4909 6.11902 54.063 5.72669 54.8344 5.73074C56.0783 5.73723 57.323 5.75587 58.5661 5.80775C59.7877 5.85882 61.0069 5.96176 62.2278 6.03228C63.4346 6.10118 64.0068 6.8218 63.7697 7.99229C63.7441 8.11631 63.7186 8.24033 63.6873 8.36354C63.4363 9.3711 62.9135 9.85989 61.8664 9.95067C61.0777 10.0196 60.2808 10.0082 59.4872 10.0212C58.9118 10.0309 58.3356 10.0228 57.7198 10.0228L57.7206 10.0236Z" fill="white"/>
<path d="M107.853 10.0236C107.62 10.9453 107.401 11.8159 107.165 12.7513C107.459 12.7886 107.685 12.8291 107.913 12.8437C108.791 12.8988 109.669 12.9474 110.548 12.9961C111.541 13.0512 112.084 13.6324 112.026 14.6019C112.012 14.8321 111.965 15.0623 111.909 15.2868C111.631 16.3852 111.081 16.8569 109.928 16.9266C109.201 16.9712 108.47 16.9558 107.741 16.9615C107.142 16.9663 106.544 16.9623 105.929 16.9623C105.678 17.4681 105.498 17.9593 105.461 18.4886C105.426 18.9961 105.582 19.1793 106.099 19.2555C106.352 19.2927 106.612 19.2944 106.869 19.296C107.727 19.3017 108.586 19.2854 109.444 19.3065C110.148 19.3235 110.465 19.6283 110.496 20.3189C110.526 21.0234 110.386 21.7075 110.102 22.3551C109.88 22.861 109.453 23.1479 108.925 23.2476C108.486 23.3303 108.032 23.3716 107.585 23.3651C106.47 23.3489 105.355 23.3027 104.239 23.2557C102.35 23.1763 101.151 22.0431 101.073 20.1811C101.044 19.4946 101.174 18.7983 101.269 18.1109C101.318 17.7599 101.452 17.4203 101.556 17.0425C100.693 16.6445 100.616 15.911 100.745 15.1198C100.921 14.0377 101.399 13.1631 102.516 12.7456C102.65 12.6962 102.795 12.5438 102.835 12.41C103.063 11.6432 103.261 10.8683 103.473 10.078C102.728 9.77885 102.586 9.18064 102.609 8.5119C102.631 7.86505 102.824 7.2644 103.197 6.72779C103.621 6.11661 104.194 5.7259 104.964 5.72915C106.208 5.73482 107.452 5.75509 108.695 5.80615C109.916 5.85722 111.135 5.96016 112.356 6.02987C113.532 6.09715 114.102 6.78372 113.912 7.92909C113.885 8.09526 113.842 8.25981 113.799 8.42274C113.546 9.38328 113.022 9.86072 111.995 9.94827C111.185 10.0172 110.367 10.005 109.553 10.0188C108.998 10.0285 108.444 10.0204 107.853 10.0204V10.0236Z" fill="white"/>
<path d="M25.5242 17.3538C25.66 14.9488 26.2988 12.2982 27.644 9.83643C28.3124 8.61244 29.1818 7.54489 30.3425 6.73349C31.5296 5.90426 32.8328 5.4252 34.3138 5.50221C36.4377 5.61245 38.0957 7.53274 37.8133 9.61433C37.6486 10.8294 36.8518 11.6295 35.7865 12.1393C35.0168 12.5073 34.2298 12.008 33.9861 11.1261C33.898 10.8059 33.8009 10.4711 33.6239 10.1955C33.2979 9.6889 32.8748 9.65 32.4533 10.0772C32.2022 10.3317 31.9783 10.6284 31.8111 10.9421C30.8891 12.6735 30.2404 14.5038 29.8683 16.4233C29.7934 16.8107 29.7951 17.2306 29.856 17.6205C29.9762 18.3938 30.7508 18.6621 31.3501 18.1466C31.5699 17.9577 31.7535 17.7024 31.8852 17.4438C32.4162 16.3965 33.3234 16.0601 34.4331 16.0828C34.6044 16.0861 34.7748 16.1136 34.9452 16.138C35.6177 16.2352 35.9034 16.5262 35.9009 17.1828C35.8993 17.5168 35.8573 17.8605 35.7659 18.1815C35.1699 20.2776 33.8873 21.8445 31.9758 22.9356C29.6041 24.2892 27.0537 22.9104 26.1836 21.1198C25.6592 20.0418 25.5151 18.9029 25.5258 17.3555L25.5242 17.3538Z" fill="white"/>
<path d="M67.5975 23.2152C66.9545 23.2152 66.2992 23.2938 65.6711 23.2006C63.79 22.9201 62.3082 21.3208 62.1675 19.4232C62.1247 18.8453 62.1724 18.2292 62.3346 17.6748C63.3735 14.1252 64.4577 10.5886 65.5238 7.04717C65.8819 5.85722 66.9109 5.2436 68.1507 5.48759C69.0035 5.65538 69.5691 6.24468 69.6028 7.10715C69.621 7.56432 69.546 8.03365 69.4481 8.48434C68.7928 11.5005 67.9729 14.4738 67.0097 17.4089C66.6647 18.4603 66.831 18.7018 67.949 18.7334C68.5491 18.7505 69.1509 18.7261 69.7518 18.731C70.0087 18.7326 70.268 18.7407 70.5199 18.7821C71.4732 18.9385 71.8684 19.4686 71.6395 20.4008C71.4897 21.0112 71.2551 21.611 70.9859 22.1817C70.6319 22.9307 69.9404 23.2111 69.1443 23.2509C68.6306 23.276 68.1145 23.2557 67.5991 23.2557C67.5991 23.2427 67.5991 23.2298 67.5991 23.216L67.5975 23.2152Z" fill="white"/>
<path d="M20.1337 23.4827C19.5616 23.4462 18.9993 23.2678 18.5021 22.9023C17.6912 22.3057 17.4344 21.5859 17.7176 20.6253C18.9409 16.4686 20.17 12.3135 21.3957 8.15684C21.4731 7.8934 21.5373 7.6259 21.623 7.36489C22.1358 5.79478 24.1116 5.1609 25.4649 6.13928C26.0741 6.57943 26.34 7.1663 26.1433 7.91285C25.3308 10.998 24.5339 14.0879 23.6958 17.1665C23.2908 18.6548 22.8117 20.1228 22.3548 21.5964C22.2618 21.8971 22.1457 22.1987 21.9893 22.4718C21.6106 23.1333 20.943 23.4899 20.1346 23.4835L20.1337 23.4827Z" fill="white"/>
<path d="M143.899 8.45759C143.913 6.83316 145.308 5.53703 147.004 5.57027C148.683 5.6035 150.008 6.90044 150 8.50217C149.992 10.1282 148.602 11.4527 146.926 11.4324C145.228 11.4122 143.885 10.0917 143.899 8.45759ZM146.94 10.8456C148.333 10.8504 149.437 9.79506 149.425 8.46974C149.414 7.17848 148.314 6.14335 146.952 6.14335C145.588 6.14335 144.482 7.17361 144.467 8.45759C144.451 9.78371 145.546 10.8407 146.941 10.8456H146.94Z" fill="white"/>
<path d="M145.866 6.89397C146.524 6.89397 147.142 6.86398 147.755 6.9037C148.218 6.93369 148.466 7.21578 148.512 7.62999C148.559 8.04501 148.369 8.36114 147.958 8.52974C147.842 8.57757 147.715 8.59783 147.488 8.65863C147.8 9.12715 148.085 9.55595 148.395 10.022C148.095 10.1833 147.898 10.1388 147.737 9.88262C147.545 9.57702 147.332 9.2844 147.155 8.9707C146.981 8.66349 146.754 8.55244 146.351 8.70645C146.34 9.05582 146.327 9.42788 146.317 9.79994C146.31 10.0893 146.166 10.1606 145.865 10.0512V6.89397H145.866ZM146.366 8.17308C146.803 8.17308 147.203 8.19254 147.6 8.1666C147.87 8.14877 148.016 7.95341 148.006 7.69078C147.998 7.4549 147.851 7.29765 147.608 7.27171C147.192 7.22794 146.772 7.15012 146.366 7.31548V8.17308Z" fill="white"/>
</g>
<defs>
<clipPath id="clip0_1326_67">
<rect width="150" height="23.8411" fill="white" transform="translate(0 0.579468)"/>
</clipPath>
</defs>
</svg>
