<svg width="150" height="61" viewBox="0 0 150 61" fill="none" xmlns="http://www.w3.org/2000/svg">
<g clip-path="url(#clip0_1326_220)">
<path d="M109.932 36.9279H87.3035C86.1826 28.4171 81.8095 23.0781 72.7476 23.0413C70.5164 23.0308 68.0272 23.8461 66.1222 25.0243C64.133 26.2552 62.3543 28.1751 61.1387 30.1897C59.9705 32.1202 59.6389 34.5556 58.8864 36.9279H37.1421C37.5105 24.9507 41.9204 15.0933 51.4401 8.01326C63.7752 -1.16557 77.2049 -2.33856 90.7925 4.90982C103.301 11.5796 109.211 22.5837 109.932 36.9279Z" fill="white"/>
<path d="M0 60.798V38.8057C1.46821 39.116 3.29954 39.5789 5.15717 39.8682C6.05178 40.005 7.03059 39.9734 7.90415 39.7577C11.2774 38.9214 14.6085 38.6584 17.9448 39.9103C21.7022 41.32 24.4702 44.7864 24.5439 48.2317C24.6281 52.0137 22.5232 55.4854 18.4343 56.7373C15.6346 57.5946 12.4982 57.4684 9.50919 57.542C8.16201 57.5736 6.79905 57.0055 5.09928 56.6373C5.17822 58.1049 5.24663 59.3568 5.32557 60.798H0ZM5.06771 48.4263C4.97825 53.7758 6.94639 56.1849 11.4826 56.2796C15.8504 56.3743 19.5446 52.9605 19.6078 48.784C19.6657 44.718 15.8925 40.8729 11.7878 40.8308C7.34634 40.7782 5.15191 43.2557 5.06771 48.4316V48.4263Z" fill="white"/>
<path d="M102.964 42.6719C102.875 41.3411 102.817 40.4206 102.743 39.2949H107.243V56.974C106.348 56.974 105.069 57.3685 104.375 56.9004C102.307 55.517 100.396 56.5953 98.4178 56.8267C95.1761 57.2055 92.1344 56.7899 89.619 54.5071C85.9984 51.2142 86.551 45.7175 90.7609 43.2137C93.329 41.6883 96.0918 41.1412 99.0545 41.8303C100.228 42.1038 101.412 42.3405 102.97 42.6771L102.964 42.6719ZM102.907 49.4363C103.033 45.2178 101.244 42.977 97.7021 42.9139C94.392 42.856 91.403 45.5912 91.2556 48.8157C91.0977 52.3241 93.9973 55.4118 97.5021 55.4696C101.059 55.5222 102.78 53.6023 102.907 49.4416V49.4363Z" fill="white"/>
<path d="M61.6177 42.4982C65.675 41.604 68.322 42.2826 70.1638 45.5859C71.3637 47.7373 73.1476 49.5625 74.8842 51.8086C76.4945 49.1627 78.0733 46.8904 79.3099 44.4445C80.3677 42.351 81.8096 41.7355 84.3198 42.4719C83.7882 43.5502 83.3041 44.597 82.7621 45.6227C80.5677 49.7677 78.3574 53.9021 76.1525 58.0417C75.2333 59.76 73.6563 60.4526 71.4216 60.1195C71.8794 58.7571 72.3267 57.4368 72.5951 56.6531C67.8063 52.5134 65.4171 47.206 61.6177 42.5035V42.4982Z" fill="white"/>
<path d="M37.3738 58.047C34.9636 57.0897 32.2429 56.49 30.1011 55.0435C26.1227 52.3609 26.2017 47.4269 29.8959 44.3761C34.3637 40.6888 41.7521 40.673 46.1989 44.334C50.0404 47.5006 49.5195 53.2603 44.9306 55.6642C42.752 56.8056 40.1787 57.1949 37.3791 58.047H37.3738ZM44.3465 49.7571C44.3518 46.2118 41.5627 43.4082 38.0579 43.4503C34.3795 43.4924 31.743 46.0909 31.7114 49.7098C31.6799 53.1236 34.5952 56.0587 38.0316 56.0692C41.5048 56.0797 44.3412 53.2445 44.3518 49.7624L44.3465 49.7571Z" fill="white"/>
<path d="M123.099 57.9208C120.925 57.1843 118.562 56.7372 116.557 55.6379C111.8 53.0342 111.611 47.2218 115.994 44.0184C120.236 40.9202 126.393 40.7519 130.813 43.6081C133.181 45.1388 134.597 47.1587 134.308 50.1201C134.034 52.8921 132.592 54.9278 130.092 55.943C127.945 56.8161 125.614 57.2317 123.093 57.9208H123.099ZM117.41 49.7308C117.405 53.192 120.257 56.0534 123.72 56.064C127.203 56.0745 129.977 53.2709 129.977 49.7256C129.977 46.1645 127.193 43.3872 123.688 43.445C119.973 43.5029 117.415 46.0698 117.41 49.7308Z" fill="white"/>
<path d="M150 44.7128C144.522 45.4334 144.327 45.628 144.364 50.825C144.38 52.7186 144.538 54.607 144.643 56.69H138.449V42.0985H149.868C149.895 42.6456 149.947 43.6082 150 44.7075V44.7128Z" fill="white"/>
<path d="M53.1821 38.7478H58.5182V56.6636H53.1821V38.7478Z" fill="white"/>
<path d="M77.9942 36.8858H69.0376C69.1586 34.0033 70.7479 32.278 73.2581 32.1623C75.8366 32.0466 77.5627 33.6667 77.9942 36.8858Z" fill="white"/>
</g>
<defs>
<clipPath id="clip0_1326_220">
<rect width="150" height="60.596" fill="white" transform="translate(0 0.202026)"/>
</clipPath>
</defs>
</svg>
