<svg width="94" height="60" viewBox="0 0 94 60" fill="none" xmlns="http://www.w3.org/2000/svg">
<g clip-path="url(#clip0_1281_373)">
<path d="M0 51.2027V0.0929901C5.8056 0.0929901 11.6112 0.0929901 17.4168 0.0929901C17.8776 0.189766 18.3348 0.310736 18.8029 0.383318C24.3835 1.2543 27.8705 3.98519 28.5164 8.50644C28.8901 11.1375 28.872 13.8563 28.5708 16.4965C28.1427 20.2405 25.6245 22.3 21.1687 23.1468C20.9981 23.1801 20.8494 23.298 20.5373 23.4523C21.5896 23.6337 22.4169 23.7517 23.2333 23.924C26.1796 24.544 27.9177 26.1106 28.3676 28.6207C28.5382 29.5643 28.6724 30.5199 28.6833 31.4695C28.7269 35.5492 28.6833 39.632 28.745 43.7117C28.7777 45.6774 29.1478 47.6099 30.0549 49.4608C30.2762 49.119 30.3742 48.7864 30.4323 48.4507C31.5607 42.13 32.6856 35.8093 33.814 29.4856C34.9969 22.8656 36.1689 16.2455 37.37 9.62844C37.9469 6.44693 38.5819 3.26845 39.1878 0.0899658C44.5108 0.0899658 49.8302 0.0899658 55.1532 0.0899658C55.2802 0.528481 55.4653 0.957924 55.5306 1.40249C56.3071 6.85218 57.051 12.3049 57.8347 17.7516C59.2208 27.3989 60.6323 37.0432 62.0256 46.6906C62.2397 48.1724 62.3994 49.6573 62.6026 51.2723C58.2738 51.3056 54.1445 51.3751 49.8919 51.233C49.4166 46.5424 48.9558 42 48.4913 37.4303H42.8018C42.1559 42.0695 41.521 46.6452 40.8896 51.2058C40.4469 51.2541 40.2111 51.2995 39.9716 51.3025C33.0774 51.3086 26.1869 51.2904 19.2928 51.3298C18.226 51.3358 17.7978 50.9245 17.4676 50.1957C16.604 48.2722 16.4335 46.2672 16.4226 44.25C16.3936 40.2701 16.4226 36.2872 16.4081 32.3072C16.4081 31.5028 16.3972 30.6863 16.2267 29.8969C15.8566 28.164 14.5938 27.4261 12.2281 27.5562C12.2281 31.4665 12.2462 35.389 12.2244 39.3114C12.199 43.2701 12.3333 47.2319 12.141 51.2058H0V51.2027ZM12.4893 7.58707C12.1047 8.90262 12.1228 20.1074 12.5111 21.3141C15.2905 21.6135 16.2412 20.9996 16.3972 18.7979C16.3972 18.7465 16.4081 18.6981 16.4081 18.6467C16.4117 15.8342 16.4589 13.0247 16.4081 10.2121C16.3645 7.92276 15.3087 7.25138 12.4929 7.58707H12.4893ZM46.1146 9.44698C45.1458 16.2697 44.4274 23.0833 43.894 29.9302H47.7112C47.1742 23.047 46.6444 16.2455 46.1146 9.44698Z" fill="white"/>
<path d="M63.4989 0.0929289C67.4902 0.0929289 71.4816 0.0929289 75.4729 0.0929289C75.5165 0.640317 75.5927 1.19073 75.5963 1.73812C75.6072 6.20795 75.6036 10.6808 75.6036 15.1506C75.6036 17.44 75.6036 19.7324 75.6036 22.0217C75.8902 21.7828 76.0535 21.5167 76.1297 21.2384C77.5811 15.9067 79.0398 10.578 80.4585 5.24019C80.9121 3.53452 81.2531 1.8107 81.645 0.0929289C85.5747 0.0929289 89.508 0.0929289 93.4377 0.0989774C93.659 0.0989774 94.1053 -0.0885258 93.9819 0.395353C93.8005 0.758263 93.5755 1.1121 93.4413 1.49013C91.3005 7.60818 89.2068 13.7383 87.0152 19.8443C86.6342 20.9058 86.6233 21.8766 86.8918 22.929C88.5646 29.5098 90.1938 36.0996 91.8629 42.6834C92.5342 45.3296 93.2708 47.9607 93.9819 50.5978V51.2027C89.9616 51.4234 85.9448 51.2692 81.8591 51.3055C79.8235 42.4414 77.8351 33.78 75.8467 25.1216C75.6072 29.4946 75.6181 33.8254 75.5999 38.1561C75.5818 42.511 75.6798 46.8689 75.5419 51.2117H63.4045C63.4045 50.5736 63.4045 50.0323 63.4045 49.4909C63.4045 33.526 63.4045 17.561 63.4082 1.599C63.4082 1.09698 63.4699 0.597978 63.5025 0.0959532L63.4989 0.0929289Z" fill="white"/>
<path d="M0 53.3197C1.01961 53.2955 2.04285 53.2532 3.06246 53.2532C10.8275 53.2471 18.5888 53.2532 26.3538 53.2532C27.0614 53.2532 27.7726 53.2532 28.6652 53.2532V59.0688H0C0 57.1545 0 55.2401 0 53.3227V53.3197Z" fill="white"/>
<path d="M65.313 59.0658V53.4226C65.7484 53.3621 66.1439 53.2623 66.5358 53.2623C75.5055 53.2562 84.4715 53.2593 93.4411 53.2623C93.6189 53.2623 93.7967 53.2986 93.9782 53.3197V59.0658H65.313Z" fill="white"/>
<path d="M45.7192 59.0657C45.7374 57.2663 45.7555 55.4669 45.7809 53.6674C45.7809 53.5828 45.8825 53.4951 45.9841 53.3317C46.2708 53.3045 46.6155 53.2501 46.9638 53.241C49.6707 53.1684 50.3565 53.7309 50.3456 56.0263C50.3383 57.2572 50.1714 58.4367 48.622 59.0657H45.7192ZM47.2686 54.2148V57.977C48.0887 58.231 48.6583 57.98 48.7382 57.4235C48.8615 56.5465 48.8506 55.6392 48.7309 54.7622C48.6511 54.1785 48.0705 53.985 47.265 54.2148H47.2686Z" fill="white"/>
<path d="M54.7903 59.0658C53.1684 57.6414 53.5602 55.9327 53.8796 54.2693C54.032 53.477 54.8629 53.1715 55.7591 53.108C56.6517 53.0445 57.4427 53.2592 57.9181 53.9427C58.8651 55.3036 58.3571 57.9498 56.9638 59.0688H54.7867L54.7903 59.0658ZM57.0037 56.1262C56.9021 55.5546 56.8731 54.9982 56.6844 54.481C56.6082 54.2723 56.1945 54.0607 55.9006 54.0244C55.7083 54.0002 55.2729 54.2754 55.2656 54.4296C55.204 55.5183 55.1967 56.6131 55.2439 57.7018C55.2511 57.8591 55.6612 58.1404 55.8643 58.1252C56.1619 58.1041 56.6154 57.9196 56.6916 57.723C56.8876 57.2089 56.913 56.6524 57.0037 56.1262Z" fill="white"/>
<path d="M31.5681 59.0658C31.0129 58.6091 30.3961 58.1797 30.5775 57.3782C31.0673 57.1423 31.5753 57.0395 31.8837 57.593C32.1196 58.0133 32.4317 58.2855 32.9832 58.1343C33.2227 58.0678 33.5964 57.723 33.5565 57.6595C33.3243 57.2966 33.0412 56.9276 32.6711 56.6585C32.3663 56.4377 31.8946 56.3893 31.5427 56.2018C30.6755 55.7421 30.367 54.8893 30.7299 54.0969C31.0528 53.3983 32.0543 52.981 33.1138 53.1019C34.2386 53.232 34.5761 53.5677 34.7321 54.9588C34.177 54.6987 33.7089 54.5687 33.4005 54.3116C32.9832 53.9608 32.6167 53.8187 32.2067 54.23C31.8075 54.6292 32.0216 55.0012 32.4716 55.2492C32.8707 55.4669 33.3279 55.609 33.7561 55.7935C35.378 56.4982 35.5485 57.7805 34.1588 58.7785C34.0246 58.8752 33.8831 58.966 33.7452 59.0597H31.5681V59.0658Z" fill="white"/>
<path d="M59.8703 59.0658C59.4639 58.5456 58.7128 58.1494 58.9994 57.3571C59.6272 57.1 60.0698 57.1363 60.4218 57.7563C60.5452 57.971 61.0931 58.0859 61.4596 58.1071C61.6192 58.1161 61.9821 57.7351 61.9422 57.5899C61.8587 57.2845 61.6446 56.9367 61.3507 56.7492C60.9806 56.5133 60.4581 56.4498 60.0372 56.2593C59.1736 55.8661 58.8035 55.0042 59.101 54.1877C59.3768 53.4346 60.313 52.9991 61.4197 53.108C62.5808 53.2199 62.9255 53.5405 63.067 54.6715C62.4828 54.9679 62.1127 54.8137 61.7752 54.3328C61.485 53.9124 61.0133 53.8096 60.596 54.2239C60.1896 54.6262 60.4291 54.9981 60.8609 55.2492C61.2527 55.476 61.7172 55.6121 62.1417 55.8026C63.7455 56.5193 63.9378 57.5264 62.7114 58.718C62.5989 58.8268 62.5046 58.9508 62.403 59.0688H59.863L59.8703 59.0658Z" fill="white"/>
<path d="M41.3649 59.0657C40.6211 58.479 40.338 57.7502 40.3598 56.9095C40.3852 55.9568 40.3743 55.0042 40.3707 54.0515C40.3707 53.3771 40.7444 53.1443 41.764 53.4013C41.764 53.9215 41.764 54.5052 41.764 55.0889C41.764 55.6907 41.7495 56.2925 41.7749 56.8943C41.7967 57.4236 41.6443 58.1615 42.6022 58.1403C43.5093 58.1191 43.4114 57.3964 43.4259 56.858C43.4513 55.9054 43.3969 54.9497 43.4803 54.0032C43.5021 53.7552 43.8976 53.5283 44.1226 53.2894C44.3366 53.5404 44.7213 53.7824 44.7358 54.0394C44.7975 55.1887 44.7539 56.3439 44.7467 57.4962C44.743 58.231 44.2205 58.6907 43.542 59.0688H41.3649V59.0657Z" fill="white"/>
<path d="M37.0107 59.0658V54.6565C36.5607 53.9699 35.3089 54.4175 35.6355 53.3863C36.9998 53.099 38.3859 53.2109 39.7357 53.3258C39.9352 54.3631 38.9374 54.0093 38.4657 54.3994C38.3496 55.8903 38.2262 57.4781 38.0992 59.0658H37.0107Z" fill="white"/>
<path d="M51.5246 59.0657C51.4811 57.3661 51.4085 55.6634 51.423 53.9638C51.423 53.74 51.873 53.5192 52.1124 53.2985C52.2939 53.5162 52.6277 53.734 52.6313 53.9547C52.6604 55.6574 52.6277 57.363 52.6132 59.0657H51.5246Z" fill="white"/>
</g>
<defs>
<clipPath id="clip0_1281_373">
<rect width="94" height="59" fill="white" transform="translate(0 0.0657959)"/>
</clipPath>
</defs>
</svg>
