<svg width="150" height="95" viewBox="0 0 150 95" fill="none" xmlns="http://www.w3.org/2000/svg">
<g clip-path="url(#clip0_1281_373)">
<path d="M0 81.9464V0.733931C9.26426 0.733931 18.5285 0.733931 27.7928 0.733931C28.5281 0.887707 29.2577 1.07993 30.0046 1.19526C38.9099 2.57923 44.4743 6.91858 45.5049 14.1028C46.1013 18.2835 46.0723 22.6036 45.5918 26.7988C44.9085 32.748 40.8901 36.0205 33.7798 37.3661C33.5077 37.4189 33.2703 37.6063 32.7723 37.8514C34.4515 38.1397 35.7716 38.3272 37.0744 38.6011C41.776 39.5862 44.5495 42.0754 45.2675 46.064C45.5396 47.5633 45.7539 49.0818 45.7713 50.5907C45.8407 57.0733 45.7713 63.5607 45.8697 70.0433C45.9218 73.1668 46.5124 76.2375 47.9599 79.1785C48.3131 78.6355 48.4695 78.1069 48.5621 77.5735C50.3629 67.53 52.1578 57.4866 53.9585 47.4383C55.8461 36.9192 57.7164 26.4 59.6329 15.8856C60.5535 10.8302 61.5668 5.77968 62.5338 0.729126C71.028 0.729126 79.5163 0.729126 88.0105 0.729126C88.2132 1.42592 88.5085 2.1083 88.6127 2.8147C89.8518 11.4742 91.0388 20.1384 92.2894 28.7931C94.5013 44.1226 96.7537 59.4472 98.9771 74.7767C99.3187 77.1314 99.5735 79.4909 99.8977 82.057C92.9901 82.1098 86.4008 82.2204 79.6148 81.9945C78.8563 74.5412 78.1209 67.3234 77.3798 60.0623H68.3008C67.2701 67.4339 66.2569 74.7046 65.2494 81.9513C64.543 82.0281 64.1666 82.1002 63.7845 82.105C52.7831 82.1146 41.7876 82.0858 30.7863 82.1483C29.084 82.1579 28.4008 81.5043 27.8739 80.3462C26.4958 77.2899 26.2237 74.1039 26.2063 70.8987C26.16 64.5747 26.2063 58.2458 26.1831 51.9218C26.1831 50.6436 26.1658 49.3461 25.8936 48.0919C25.303 45.3383 23.288 44.1658 19.5129 44.3724C19.5129 50.5859 19.5418 56.8186 19.5071 63.0513C19.4665 69.3417 19.6808 75.6369 19.3739 81.9513H0V81.9464ZM19.9297 12.6419C19.316 14.7323 19.3449 32.5366 19.9645 34.4539C24.3998 34.9297 25.9168 33.9542 26.1658 30.4558C26.1658 30.3741 26.1831 30.2972 26.1831 30.2155C26.1889 25.7464 26.2642 21.2821 26.1831 16.813C26.1136 13.1753 24.4287 12.1085 19.9355 12.6419H19.9297ZM73.5872 15.5973C72.0412 26.4384 70.8948 37.2651 70.0436 48.1447H76.1349C75.2779 37.2075 74.4326 26.4 73.5872 15.5973Z" fill="white"/>
<path d="M101.328 0.733833C107.697 0.733833 114.066 0.733833 120.435 0.733833C120.505 1.60362 120.626 2.47822 120.632 3.34801C120.65 10.4505 120.644 17.5578 120.644 24.6603C120.644 28.298 120.644 31.9406 120.644 35.5783C121.101 35.1987 121.362 34.7758 121.483 34.3337C123.799 25.8617 126.127 17.3944 128.391 8.91275C129.115 6.20246 129.659 3.46334 130.284 0.733833C136.555 0.733833 142.832 0.733833 149.102 0.743444C149.456 0.743444 150.168 0.445504 149.971 1.21438C149.681 1.79104 149.322 2.35328 149.108 2.95396C145.692 12.6754 142.351 22.4161 138.854 32.1184C138.246 33.8051 138.229 35.3477 138.657 37.02C141.326 47.4767 143.926 57.9478 146.59 68.4093C147.661 72.6141 148.836 76.7949 149.971 80.9852V81.9463C143.555 82.2971 137.146 82.0521 130.626 82.1097C127.378 68.0249 124.205 54.262 121.032 40.5039C120.65 47.4526 120.667 54.3341 120.638 61.2155C120.609 68.1354 120.765 75.0601 120.545 81.9608H101.177C101.177 80.9468 101.177 80.0866 101.177 79.2264C101.177 53.8583 101.177 28.4903 101.183 3.12696C101.183 2.32925 101.281 1.53635 101.334 0.738638L101.328 0.733833Z" fill="white"/>
<path d="M0 85.3103C1.62704 85.2719 3.25986 85.2046 4.8869 85.2046C17.2779 85.195 29.663 85.2046 42.054 85.2046C43.183 85.2046 44.3179 85.2046 45.7423 85.2046V94.4455H0C0 91.4037 0 88.3618 0 85.3151V85.3103Z" fill="white"/>
<path d="M104.223 94.4408V85.4737C104.918 85.3776 105.549 85.219 106.174 85.219C120.487 85.2094 134.795 85.2142 149.108 85.219C149.392 85.219 149.676 85.2767 149.965 85.3104V94.4408H104.223Z" fill="white"/>
<path d="M72.9561 94.4407C72.985 91.5814 73.014 88.7222 73.0545 85.8629C73.0545 85.7284 73.2166 85.589 73.3787 85.3295C73.8362 85.2863 74.3862 85.1998 74.9421 85.1854C79.2615 85.07 80.3559 85.9638 80.3385 89.6112C80.3269 91.567 80.0606 93.4412 77.5882 94.4407H72.9561ZM75.4285 86.7327V92.7107C76.737 93.1144 77.6461 92.7155 77.7735 91.8313C77.9703 90.4377 77.953 88.9961 77.7619 87.6025C77.6345 86.6751 76.7081 86.3675 75.4227 86.7327H75.4285Z" fill="white"/>
<path d="M87.4314 94.4407C84.8432 92.1773 85.4686 89.4622 85.9781 86.8192C86.2213 85.5601 87.5472 85.0748 88.9774 84.9739C90.4018 84.873 91.664 85.2142 92.4225 86.3002C93.9338 88.4627 93.1232 92.6674 90.8997 94.4455H87.4256L87.4314 94.4407ZM90.9634 89.7697C90.8013 88.8615 90.755 87.9773 90.4539 87.1556C90.3323 86.824 89.6722 86.4876 89.2032 86.4299C88.8963 86.3915 88.2015 86.8288 88.1899 87.0739C88.0915 88.8038 88.0799 90.5434 88.1552 92.2734C88.1668 92.5233 88.8211 92.9702 89.1453 92.9462C89.6201 92.9125 90.3439 92.6194 90.4655 92.307C90.7781 91.4901 90.8187 90.6059 90.9634 89.7697Z" fill="white"/>
<path d="M50.3745 94.4407C49.4886 93.715 48.5043 93.0327 48.7938 91.7592C49.5754 91.3844 50.3861 91.221 50.8782 92.1004C51.2546 92.7684 51.7525 93.2009 52.6326 92.9606C53.0148 92.8549 53.6112 92.307 53.5475 92.2061C53.1769 91.6295 52.7253 91.0432 52.1347 90.6155C51.6483 90.2647 50.8956 90.1878 50.3339 89.8899C48.9501 89.1595 48.4579 87.8043 49.037 86.5453C49.5523 85.4352 51.1504 84.7721 52.8411 84.9643C54.636 85.1709 55.1745 85.7043 55.4235 87.9148C54.5376 87.5016 53.7907 87.2949 53.2985 86.8865C52.6326 86.329 52.0478 86.1032 51.3935 86.7567C50.7566 87.391 51.0982 87.9821 51.8162 88.3762C52.4531 88.7222 53.1827 88.948 53.8659 89.2412C56.4541 90.3608 56.7263 92.3983 54.5087 93.9842C54.2944 94.1379 54.0686 94.2821 53.8486 94.4311H50.3745V94.4407Z" fill="white"/>
<path d="M95.5376 94.4407C94.8891 93.6142 93.6905 92.9847 94.148 91.7256C95.1497 91.3172 95.8561 91.3748 96.4177 92.36C96.6146 92.7012 97.4889 92.8838 98.0737 92.9174C98.3285 92.9318 98.9075 92.3263 98.8438 92.0957C98.7106 91.6103 98.369 91.0577 97.9 90.7597C97.3094 90.3849 96.4756 90.284 95.8039 89.9813C94.4259 89.3565 93.8353 87.987 94.3101 86.6895C94.7501 85.4929 96.244 84.801 98.01 84.974C99.8628 85.1518 100.413 85.6611 100.639 87.4584C99.7065 87.9293 99.1159 87.6842 98.5774 86.9202C98.1142 86.2522 97.3615 86.0888 96.6956 86.7472C96.0471 87.3863 96.4293 87.9774 97.1183 88.3762C97.7436 88.7366 98.4848 88.9529 99.1622 89.2556C101.721 90.3945 102.028 91.9948 100.071 93.8881C99.8918 94.0611 99.7412 94.2581 99.5791 94.4455H95.526L95.5376 94.4407Z" fill="white"/>
<path d="M66.0078 94.4407C64.8208 93.5084 64.3692 92.3503 64.4039 91.0144C64.4445 89.5006 64.4271 87.9869 64.4213 86.4732C64.4213 85.4016 65.0177 85.0315 66.6447 85.44C66.6447 86.2665 66.6447 87.194 66.6447 88.1215C66.6447 89.0778 66.6216 90.034 66.6621 90.9903C66.6969 91.8313 66.4537 93.0038 67.9823 92.9702C69.4298 92.9365 69.2735 91.788 69.2966 90.9327C69.3372 89.4189 69.2503 87.9004 69.3835 86.3963C69.4182 86.0023 70.0494 85.6418 70.4083 85.2622C70.75 85.6611 71.3637 86.0455 71.3869 86.454C71.4853 88.28 71.4158 90.1157 71.4043 91.9466C71.3985 93.1143 70.5647 93.8448 69.4819 94.4455H66.0078V94.4407Z" fill="white"/>
<path d="M59.0597 94.4407V87.4343C58.3417 86.3435 56.3441 87.0547 56.8652 85.416C59.0423 84.9595 61.2541 85.1373 63.4081 85.3199C63.7265 86.9682 62.1342 86.4059 61.3815 87.0258C61.1962 89.3949 60.9994 91.9178 60.7967 94.4407H59.0597Z" fill="white"/>
<path d="M82.2203 94.4408C82.1508 91.7401 82.035 89.0346 82.0582 86.3339C82.0582 85.9783 82.7762 85.6275 83.1583 85.2767C83.4478 85.6227 83.9805 85.9687 83.9863 86.3195C84.0326 89.025 83.9805 91.7353 83.9574 94.4408H82.2203Z" fill="white"/>
</g>
<defs>
<clipPath id="clip0_1281_373">
<rect width="150" height="93.75" fill="white" transform="translate(0 0.690674)"/>
</clipPath>
</defs>
</svg>
