<svg width="150" height="23" viewBox="0 0 150 23" fill="none" xmlns="http://www.w3.org/2000/svg">
<g clip-path="url(#clip0_1281_387)">
<path d="M75.0435 0.500948C97.4116 0.500948 119.778 0.534923 142.144 0.47097C146.202 0.458978 150.272 5.25349 149.969 9.98605C149.912 10.8774 149.897 11.7887 149.972 12.6761C150.375 17.4706 146.376 22.473 141.938 22.469C97.3133 22.427 52.6886 22.447 8.06558 22.443C3.59296 22.445 0.000116568 18.0702 0.0197765 12.6261C0.0263297 10.7795 -0.147333 8.92282 0.421166 7.10814C1.7138 2.97715 4.57432 0.496951 8.1901 0.496951C30.4746 0.496951 52.7591 0.496951 75.0452 0.496951V0.500948H75.0435ZM140.529 20.3925C142.629 20.6703 144.431 20.2426 146.012 18.6717C148.642 16.0576 148.855 12.3363 148.188 8.55109C147.939 7.14212 147.146 5.74314 146.325 4.64593C145.103 3.01312 143.422 2.42955 141.584 2.43154C123.741 2.45153 105.9 2.44354 88.0567 2.44354C61.4831 2.44354 34.9112 2.44354 8.33755 2.44354C5.21162 2.44354 2.70171 4.68191 1.87927 8.38721C1.60731 9.61032 1.60895 10.9454 1.59912 12.2284C1.5598 16.905 4.4498 20.4684 8.2802 20.4704C29.4228 20.4784 50.567 20.4744 71.7095 20.4704C71.9094 20.4704 72.1077 20.4265 72.4583 20.3845C71.5998 19.697 71.1738 18.9136 71.1738 17.8144C71.1738 17.2887 71.2574 17.0049 71.7571 17.0369C72.4091 17.0789 73.0694 17.0889 73.7198 17.0309C74.2719 16.981 74.5438 17.1648 74.6913 17.8683C74.7601 18.1961 75.2188 18.6318 75.4728 18.6058C75.7333 18.5798 76.1166 18.0862 76.1691 17.7344C76.2772 17.0109 76.2018 16.2475 76.2018 15.4801C74.3128 16.5713 73.9966 16.6712 72.9678 16.5013C71.7341 16.2975 71.1541 15.6379 71.0968 14.1011C71.0313 12.3423 71.0329 10.5756 71.0952 8.8149C71.1476 7.302 71.7423 6.59851 72.9694 6.40066C74.1982 6.2008 75.345 6.43663 76.3886 7.66574C76.3263 6.73042 76.6327 6.50458 77.2094 6.57653C77.6943 6.63848 78.194 6.63449 78.6806 6.57653C79.4457 6.4826 79.7275 6.79037 79.7078 7.78365C79.6538 10.5756 79.6816 13.3696 79.6931 16.1636C79.7013 17.7844 79.6308 19.3532 78.1793 20.4045H135.534C135.534 19.8089 135.568 19.2793 135.526 18.7597C135.465 18.0082 135.704 17.7544 136.317 17.8024C137.059 17.8583 137.804 17.8164 138.691 17.8164C137.577 14.115 136.528 10.6376 135.481 7.1601C135.412 7.17809 135.344 7.19608 135.277 7.21407V9.5044C134.592 9.55436 133.981 9.59633 133.309 9.6463C133.309 10.5097 133.309 11.2711 133.309 12.0306C133.309 13.2204 133.785 13.8326 134.736 13.8672C134.895 13.8732 135.05 13.9132 135.237 13.9412V16.7971C134.131 16.7971 133.099 16.8291 132.069 16.7891C130.494 16.7271 129.939 15.9937 129.936 14.0531C129.932 12.6001 129.936 11.1452 129.936 9.63431C129.369 9.58834 128.89 9.54837 128.369 9.5064V6.64848C128.628 6.62649 128.844 6.56654 129.049 6.60051C129.793 6.72642 130.019 6.32471 129.947 5.46534C129.895 4.8258 129.937 4.17428 129.937 3.47878C130.53 3.47878 130.964 3.47878 131.4 3.47878C133.256 3.47279 133.281 3.47279 133.296 5.73314C133.301 6.4786 133.545 6.6125 134.081 6.60051C135.524 6.56654 136.971 6.6205 138.414 6.58053C138.955 6.56454 139.187 6.81835 139.326 7.42391C139.625 8.71697 139.972 9.99205 140.3 11.2751C140.804 9.97006 141.112 8.67101 141.471 7.39393C141.555 7.09615 141.787 6.66247 141.977 6.64248C142.746 6.55654 143.525 6.60651 144.402 6.60651C143.081 11.3071 141.817 15.8178 140.529 20.4005V20.3925ZM74.4636 11.3051H74.4685C74.4685 11.9666 74.421 12.6361 74.4898 13.2876C74.5225 13.5934 74.7323 14.0091 74.9452 14.1111C75.1549 14.211 75.535 14.0731 75.7316 13.8772C76.4771 13.1418 76.4951 9.87413 75.7939 9.0847C75.7546 9.04074 75.7152 8.99277 75.6726 8.9528C75.0878 8.42718 74.5324 8.71897 74.4701 9.61432C74.4308 10.1739 74.4636 10.7395 74.4636 11.3031V11.3051Z" fill="white"/>
<path d="M118.749 6.58857V16.7852C117.794 16.7852 116.875 16.8431 115.969 16.7412C115.761 16.7172 115.594 16.1476 115.377 15.7779C114.514 16.8331 113.336 17.027 112.078 16.8491C110.962 16.6912 110.346 16.0377 110.303 14.6887C110.226 12.2025 110.23 9.7123 110.244 7.22411C110.244 7.01027 110.575 6.63654 110.772 6.61655C111.503 6.54261 112.243 6.62055 112.977 6.57658C113.56 6.54061 113.732 6.85238 113.726 7.5139C113.708 9.4405 113.711 11.3691 113.728 13.2957C113.736 14.257 114.203 14.8246 114.733 14.4529C115.046 14.233 115.31 13.5875 115.328 13.1178C115.395 11.2932 115.389 9.46248 115.341 7.63781C115.32 6.80442 115.536 6.52062 116.216 6.57259C117.027 6.63454 117.843 6.58658 118.749 6.58658V6.58857Z" fill="white"/>
<path d="M39.9834 6.3606C40.6403 6.44853 41.4316 6.50649 42.2066 6.66837C43.124 6.86023 43.8449 7.54573 43.9121 8.66692C44.03 10.6375 44.0415 12.63 43.9317 14.6006C43.8596 15.8757 43.0061 16.6251 42.0313 16.7331C40.6321 16.8889 39.2101 16.8849 37.8077 16.765C36.6215 16.6631 35.7893 15.7518 35.6992 14.2848C35.591 12.5141 35.591 10.7154 35.7188 8.94871C35.8269 7.47379 36.7051 6.71834 37.8912 6.55445C38.54 6.46452 39.1953 6.43254 39.9834 6.3606ZM40.6305 11.7827C40.6305 11.7827 40.6289 11.7827 40.6272 11.7827C40.6272 11.0532 40.6518 10.3237 40.619 9.59624C40.5928 9.02666 40.3848 8.43309 39.8523 8.59297C39.5263 8.6909 39.0807 9.21852 39.0544 9.59025C38.9594 10.9732 38.9987 12.3702 39.0266 13.7612C39.0397 14.3828 39.3117 14.9683 39.8605 14.8164C40.1669 14.7325 40.5158 14.1769 40.5977 13.7612C40.7223 13.1357 40.6305 12.4462 40.6305 11.7827Z" fill="white"/>
<path d="M105.257 6.35864C106.042 6.42859 106.697 6.45257 107.346 6.5505C108.598 6.73837 109.396 7.53779 109.519 9.06268C109.653 10.7355 109.633 12.4402 109.556 14.121C109.492 15.526 108.799 16.4593 107.643 16.7291C106.024 17.1068 104.4 17.1688 102.79 16.6032C102.045 16.3414 101.565 15.7718 101.358 14.8645C100.891 12.806 100.901 10.7335 101.304 8.66896C101.517 7.57376 102.108 6.85828 103.034 6.67241C103.811 6.51653 104.6 6.44858 105.257 6.35864ZM104.577 11.6948C104.577 12.3903 104.577 13.0877 104.577 13.7832C104.577 14.4128 104.862 14.9124 105.338 14.8145C105.66 14.7485 106.135 14.2169 106.16 13.8552C106.257 12.4382 106.257 11.0013 106.163 9.5843C106.139 9.21457 105.649 8.8888 105.372 8.54305C105.108 8.8968 104.692 9.20657 104.613 9.61228C104.486 10.2718 104.579 10.9953 104.579 11.6908L104.577 11.6948Z" fill="white"/>
<path d="M127.966 16.7892C126.926 16.7892 125.93 16.8212 124.939 16.7532C124.801 16.7432 124.583 16.2396 124.578 15.9578C124.544 14.1311 124.557 12.3045 124.554 10.4778C124.554 10.2459 124.619 9.95616 124.529 9.79228C124.313 9.39457 124.062 8.82099 123.756 8.74504C123.23 8.61713 122.935 9.15674 122.93 9.80827C122.915 11.7009 122.919 13.5935 122.914 15.4881C122.914 15.8459 122.914 16.2056 122.914 16.6933H119.519V6.65056H122.611C122.665 6.97033 122.719 7.30409 122.789 7.72778C123.862 6.12095 125.25 6.23886 126.631 6.53065C127.447 6.70253 127.927 7.48596 127.947 8.44726C128.001 11.1633 127.966 13.8793 127.966 16.7912V16.7892Z" fill="white"/>
<path d="M61.8713 6.58655C62.7429 6.58655 63.4785 6.63052 64.2109 6.57256C64.8367 6.52259 65.2201 6.71445 65.1251 7.92957C66.1228 6.28876 67.3466 6.30475 68.577 6.41267C69.6354 6.50461 70.3316 7.18611 70.366 8.4432C70.4398 11.1592 70.389 13.8792 70.389 16.8111C69.3994 16.8111 68.4558 16.8531 67.5186 16.7771C67.3286 16.7611 67.019 16.3035 67.0108 16.0397C66.9616 14.217 66.9845 12.3923 66.9682 10.5697C66.9616 9.79421 67.1091 8.74897 66.1834 8.72299C65.2578 8.69701 65.3479 9.71028 65.3479 10.5137C65.3462 12.3404 65.3233 14.169 65.3446 15.9957C65.3511 16.5673 65.1627 16.7931 64.7302 16.7931C63.9422 16.7931 63.1525 16.8191 62.3677 16.7532C62.1941 16.7392 61.8959 16.3914 61.8943 16.1936C61.8648 13.0439 61.873 9.89214 61.873 6.58655H61.8713Z" fill="white"/>
<path d="M27.5878 9.63427C27.8696 8.67497 28.0907 8.00146 28.2644 7.31196C28.3938 6.79634 28.6035 6.55851 29.0803 6.5805C30.0207 6.62646 30.9644 6.59449 32.0129 6.59449C31.6394 8.00546 31.2756 9.24656 30.9939 10.5156C30.8874 10.9933 30.8792 11.5649 30.9889 12.0385C31.3379 13.5634 31.7606 15.0623 32.1898 16.7031C30.9513 16.7031 29.8028 16.7211 28.656 16.6752C28.538 16.6712 28.3889 16.3034 28.3234 16.0736C28.0858 15.2322 27.8794 14.3788 27.5927 13.2676C27.3224 14.3149 27.0783 15.1043 26.9193 15.9197C26.7965 16.5552 26.518 16.7771 26.0101 16.7671C25.0385 16.7451 24.067 16.7611 22.9775 16.7611C23.415 15.0523 23.8344 13.5234 24.1883 11.9726C24.2898 11.5309 24.2866 10.9973 24.1866 10.5556C23.8983 9.28853 23.5346 8.04543 23.1479 6.59848C24.316 6.59848 25.3384 6.5725 26.3574 6.62446C26.5278 6.63246 26.7539 6.94423 26.8374 7.17806C27.093 7.89554 27.2929 8.64499 27.5878 9.63228V9.63427Z" fill="white"/>
<path d="M23.0725 12.5442H18.3722C18.0298 13.8572 18.2297 14.6886 18.8866 14.8525C19.5141 15.0084 19.8303 14.5607 20.0498 13.0978C20.8919 13.0978 21.757 13.0758 22.6204 13.1177C22.7645 13.1237 22.9988 13.3855 23.0234 13.5614C23.2151 15.0044 22.5483 16.4313 21.3523 16.6252C19.886 16.861 18.3689 16.939 16.901 16.7611C15.5363 16.5952 14.8842 15.6219 14.7744 13.9551C14.6761 12.4762 14.681 10.9713 14.7859 9.49238C14.9071 7.78962 15.6673 6.77236 17.0632 6.61247C18.4082 6.45858 19.7811 6.54852 21.1328 6.67443C22.1452 6.77036 22.7596 7.60175 22.8792 8.82686C22.9939 10.004 23.0054 11.1971 23.0693 12.5442H23.0725ZM19.922 10.08C19.9106 8.84885 19.6321 8.38119 18.9849 8.48911C18.2362 8.61302 18.1314 9.24456 18.2477 10.08H19.922Z" fill="white"/>
<path d="M85.5778 13.0978C86.4772 13.0978 87.3701 13.0698 88.2614 13.1258C88.4072 13.1338 88.6398 13.4895 88.6579 13.7073C88.7676 14.9704 88.0877 16.3075 87.0719 16.6232C85.4172 17.1388 83.7314 17.2148 82.0652 16.6512C81.1379 16.3374 80.4924 15.54 80.4302 14.4048C80.3302 12.5962 80.3188 10.7635 80.4597 8.96079C80.5514 7.77166 81.2264 6.81436 82.2717 6.71443C83.7298 6.57453 85.2092 6.50058 86.6607 6.65047C87.8682 6.77438 88.4055 7.64375 88.5595 9.33452C88.6529 10.3438 88.5759 11.375 88.5759 12.5562C87.2636 12.5562 85.9939 12.5562 84.7242 12.5562C84.2475 12.5562 83.7019 12.3783 83.756 13.3796C83.7937 14.0931 83.8363 14.7726 84.5538 14.8505C85.2714 14.9285 85.4942 14.3569 85.4926 13.5814C85.4926 13.4575 85.5336 13.3336 85.5778 13.0938V13.0978ZM85.4353 10.1699C85.5041 8.88285 85.2551 8.44317 84.5997 8.47515C84.0263 8.50313 83.6692 8.9548 83.7969 9.56236C84.0509 10.7715 84.8537 9.86414 85.4353 10.1699Z" fill="white"/>
<path d="M53.0965 10.0639C52.8261 8.48705 53.3275 7.25795 54.471 6.85624C56.2551 6.2267 58.0688 6.18273 59.8595 6.83226C60.8195 7.18 61.2209 7.90947 61.2242 9.12459C61.2324 11.6108 61.2275 14.097 61.2275 16.6891H58.0032C57.9754 16.2814 57.9508 15.9296 57.918 15.438C57.7116 15.6558 57.5592 15.8077 57.4134 15.9696C56.4567 17.0328 55.3164 17.1987 54.127 16.845C53.3357 16.6111 52.9621 15.8617 52.8229 14.8864C52.5132 12.72 53.1669 11.4969 54.9232 11.0712C55.59 10.9093 56.2633 10.7814 56.9334 10.6335C57.461 10.5176 57.9492 10.2438 57.8034 9.49232C57.7296 9.1086 57.3774 8.61896 57.0792 8.52702C56.5091 8.35315 56.2011 8.80882 56.1274 9.53829C56.1077 9.73415 55.8423 10.0319 55.6801 10.0419C54.8151 10.0919 53.9467 10.0659 53.0965 10.0659V10.0639ZM57.7935 11.8666C56.5222 12.3782 56.2191 12.7939 56.2584 13.7932C56.2814 14.3808 56.4976 14.8384 56.9842 14.6885C57.2938 14.5946 57.6788 14.1789 57.7591 13.8192C57.8885 13.2376 57.7935 12.5821 57.7935 11.8666Z" fill="white"/>
<path d="M97.4951 12.5022H100.587C100.959 14.9964 100.136 16.5473 98.1521 16.8551C97.056 17.025 95.9141 17.0349 94.8181 16.8791C93.1879 16.6452 92.4982 15.7319 92.3737 13.7513C92.2869 12.3663 92.2918 10.9574 92.3999 9.57438C92.5457 7.69774 93.3993 6.66849 94.9328 6.5226C96.0665 6.41467 97.2281 6.39269 98.3519 6.56856C100.118 6.84636 100.619 7.95156 100.665 10.2059C100.669 10.3938 100.362 10.7215 100.172 10.7555C99.7199 10.8355 99.2497 10.7475 98.791 10.7835C97.9719 10.8455 97.2805 10.8295 97.3853 9.4085C97.405 9.1347 96.8955 8.53313 96.6792 8.56711C96.3696 8.61507 95.8814 9.08473 95.8617 9.41049C95.7732 10.8614 95.7749 12.3304 95.8633 13.7833C95.883 14.1131 96.3483 14.5967 96.6596 14.6647C97.1642 14.7746 97.4181 14.273 97.4459 13.6574C97.4623 13.2997 97.4771 12.9399 97.4951 12.5022Z" fill="white"/>
<path d="M9.88892 16.7091H6.40585C6.40585 14.9324 6.40585 13.2476 6.40585 11.5629C6.40585 10.2338 6.44353 8.90079 6.39274 7.57576C6.36161 6.75835 6.62211 6.51653 7.24303 6.57848C7.7034 6.62445 8.17032 6.58847 8.63233 6.58847C9.24506 6.58847 9.61696 6.97086 9.74803 7.73564C10.5754 6.39661 11.6911 6.24872 12.892 6.46057C13.662 6.59647 14.1436 7.15406 14.2223 8.08339C14.3189 9.23055 14.3255 10.3877 14.3747 11.6588C13.3982 11.6588 12.5365 11.6848 11.678 11.6328C11.5338 11.6248 11.3208 11.299 11.2815 11.0832C11.2078 10.6675 11.3093 10.1939 11.1996 9.80414C11.1128 9.49636 10.8064 9.06267 10.6147 9.07467C10.3853 9.08866 10.0364 9.48237 9.98395 9.77815C9.8709 10.4157 9.89711 11.0952 9.89384 11.7587C9.88401 13.3496 9.89056 14.9424 9.89056 16.7111L9.88892 16.7091Z" fill="white"/>
<path d="M47.9569 7.76156C48.7302 6.52646 49.7148 6.32261 50.7929 6.40455C51.8512 6.48449 52.4246 7.13002 52.5541 8.43907C52.5803 8.70088 52.5852 8.96868 52.5868 9.23449C52.5917 9.99394 52.5868 10.7534 52.5868 11.6667C51.6448 11.6667 50.7585 11.6867 49.8738 11.6427C49.7542 11.6367 49.5838 11.319 49.5477 11.1151C49.4888 10.7974 49.5379 10.4536 49.5166 10.1238C49.4806 9.58024 49.438 8.98267 48.8203 9.03664C48.2617 9.0846 48.1535 9.62221 48.1502 10.1938C48.1453 10.8913 48.1503 11.5888 48.1486 12.2843C48.1486 13.5454 48.1306 14.8084 48.1519 16.0695C48.1617 16.6311 47.9864 16.845 47.531 16.829C46.7462 16.803 45.9565 16.8589 45.1751 16.783C44.9932 16.765 44.695 16.3533 44.6918 16.1195C44.659 13.1656 44.6786 10.2098 44.6655 7.25593C44.6639 6.70433 44.8867 6.57842 45.2717 6.58642C45.8435 6.59641 46.4185 6.63438 46.987 6.57443C47.6522 6.50448 48.0716 6.67435 47.9569 7.75956V7.76156Z" fill="white"/>
</g>
<defs>
<clipPath id="clip0_1281_387">
<rect width="150" height="22" fill="white" transform="translate(0 0.470947)"/>
</clipPath>
</defs>
</svg>
