<svg width="120" height="86" viewBox="0 0 120 86" fill="none" xmlns="http://www.w3.org/2000/svg">
<path d="M87.7922 56.9949C87.8441 58.2159 87.3698 59.3492 87.102 60.4988C86.4319 63.3755 85.4141 66.1651 84.919 69.0939C84.7564 70.0556 84.7517 70.9468 85.1906 71.8313C85.5856 72.6271 86.2217 72.7592 86.7466 72.0843C87.3636 71.291 87.506 70.2772 87.6265 69.3522C88.0214 66.3225 88.987 63.4436 89.7378 60.5077C89.9697 59.6008 90.1946 58.691 90.3834 57.7744C90.5633 56.9006 90.9994 56.4894 91.9404 56.3054C93.5412 55.9926 95.2119 56.0572 96.8426 55.3973C98.7199 56.6928 99.463 59.021 101.264 60.4552C99.2053 63.5631 97.2294 66.6103 95.1809 69.6076C94.3117 70.8792 93.2875 72.0441 92.3395 73.2621C92.1106 73.556 91.7633 73.8481 91.7177 74.1756C91.623 74.856 90.7384 75.5838 91.6943 76.2447C92.3001 76.6634 93.671 76.2809 94.154 75.6016C96.2794 72.6117 98.6248 69.7496 100.464 66.5917C102.935 62.3488 106.066 58.5571 108.474 54.2806C109.114 53.1439 110.156 52.2394 110.93 51.154C111.419 50.4682 111.526 49.9048 110.904 49.3231C110.263 48.7243 109.658 49.1579 109.235 49.5921C107.048 51.8396 105.193 54.3538 103.503 56.9927C103.321 57.2765 103.092 57.5295 102.817 57.8837C101.922 56.6332 100.638 55.8038 99.9866 54.3986C99.4095 53.1537 97.5039 52.0999 96.241 52.4657C92.2375 53.6253 88.065 53.8255 84.0098 54.7084C82.5731 55.0212 81.1366 55.1044 79.8565 55.933C79.563 56.123 79.3212 56.2343 79.2121 56.602C78.5252 58.9162 77.7369 61.2048 76.9508 63.4797C75.9653 66.3314 75.2352 69.3344 73.3863 71.8364C73.1664 72.134 73.0328 72.4742 72.4886 72.4976C71.5959 71.0716 71.7394 69.3715 71.4462 67.7921C70.9491 65.1148 70.5771 62.4144 70.123 59.7287C69.9303 58.5887 69.0625 58.1118 68.0491 57.9208C67.239 57.7682 66.8384 58.2114 66.3119 58.9076C64.5679 61.2139 63.8116 63.9622 62.6308 66.5097C61.2746 69.4355 60.1487 72.4703 58.9753 75.4784C58.6054 76.4266 58.3448 77.4194 58.2948 78.4648C58.2579 79.2382 58.4369 79.8528 59.2249 80.0055C59.9453 80.1452 60.2708 79.5033 60.5054 78.9798C61.2363 77.3488 61.8946 75.6853 62.5994 74.0423C64.1078 70.526 65.625 67.0135 67.15 63.5044C67.2329 63.3136 67.4201 63.1683 67.6148 62.9345C68.3902 63.5617 68.1298 64.5296 68.2927 65.3269C68.8495 68.0517 68.9139 70.8703 69.868 73.5216C70.8402 76.2232 73.0494 76.5614 74.9369 74.6939C76.374 73.272 77.0199 71.4162 77.8021 69.6214C79.1446 66.541 80.0576 63.3183 81.0309 60.1155C81.4759 58.6512 82.0971 57.5293 83.8954 57.4876C85.1542 57.4584 86.4069 57.1684 87.6623 56.9949" fill="white"/>
<path d="M117.533 21.3406C116.99 20.0926 116.038 19.9517 114.802 20.1464C112.384 20.5275 109.932 20.6618 107.529 21.1923C105.78 21.5782 105.283 22.1478 105.042 23.94C104.749 26.1218 104.138 28.2671 103.938 30.4532C103.741 32.6059 102.799 33.2989 100.662 33.5463C98.7209 33.7708 96.7522 34.0522 94.8007 34.3187C93.6958 34.4695 93.1175 35.1105 92.606 35.92C92.1171 36.6939 92.7601 37.1371 93.2585 37.4582C94.6268 38.3397 94.723 38.5682 93.8959 39.8181C92.7429 41.5604 91.5311 43.2453 89.6109 44.2433C88.155 45.0001 87.326 44.6676 87.0282 43.0687C86.6211 40.8826 86.9003 38.6811 87.4367 36.5739C88.4207 32.7088 90.2816 29.2983 93.2328 26.5304C93.8535 25.9483 94.4353 25.5388 95.3226 25.4732C95.9899 25.4238 96.6769 25.1421 96.8833 24.3335C95.994 23.1086 94.1665 22.6623 93.001 23.5705C89.5119 26.2892 86.8095 29.5562 85.5317 33.9473C84.9534 35.9345 84.2938 37.884 84.176 39.9497C84.0771 41.6836 84.062 43.4471 84.4403 45.1481C84.8219 46.8641 87.4817 48.3531 89.9833 47.0723C93.9199 45.0569 96.5657 41.8906 97.5093 37.4711C97.593 37.0792 97.7591 36.8836 98.054 36.8374C99.6896 36.5814 101.331 36.3631 103.021 36.1248C102.319 39.1906 101.341 42.0164 101.3 45.0234C101.274 46.9144 102.646 47.8309 104.281 46.9662C106.006 46.054 107.91 45.7247 109.74 45.1522C112.079 44.4204 114.411 43.6637 116.757 42.9537C117.251 42.8042 117.622 42.5309 117.914 42.1541C118.296 41.6605 118.208 41.1495 117.938 40.5915C117.615 39.9224 117.023 39.7469 116.504 39.9731C112.642 41.6588 108.496 42.4526 104.317 43.9373C104.218 42.5658 104.597 41.3236 104.818 40.0808C105.02 38.9428 105.35 37.8281 105.576 36.6937C105.728 35.9287 106.129 35.4031 106.885 35.2732C110.54 34.6445 113.98 33.2577 117.529 32.2563C118.289 32.0416 119.234 31.9705 119.357 30.8405C119.509 29.4553 118.809 28.7788 117.409 29.1704C116.425 29.4457 115.525 30.0297 114.54 30.299C112.239 30.9279 110.015 31.8226 107.664 32.2806C107.307 32.3502 106.975 32.5468 106.549 32.7178C106.234 31.7723 106.664 30.9198 106.767 30.0606C106.981 28.2598 107.29 26.4761 107.762 24.7156C107.939 24.0521 108.162 23.9172 108.822 23.7707C110.929 23.3034 113.065 23.1296 115.197 22.9208C116.259 22.8168 117.149 22.5965 117.533 21.4707" fill="white"/>
<path fill-rule="evenodd" clip-rule="evenodd" d="M45.4469 68.9647C45.4123 69.617 45.3777 70.2697 45.4544 70.9184L45.57 71.1501C45.1559 71.569 44.9478 72.1086 44.7401 72.6471C44.6067 72.9931 44.4735 73.3385 44.286 73.6513C44.1227 73.9235 43.9786 74.2043 43.8343 74.4855C43.5899 74.9617 43.345 75.4389 43.0055 75.8777C40.8148 78.7091 37.9593 80.6806 34.6543 81.7863C31.7764 82.749 28.7469 83.1304 25.7008 82.0154C24.4572 81.5602 23.65 80.7648 23.4188 79.6281C22.962 77.3829 23.3483 75.1715 24.4232 73.1346C25.9865 70.1722 27.9803 67.5524 30.3567 65.1602C32.9581 62.5417 35.7879 60.9683 39.6131 61.249C42.8513 61.4866 44.4502 62.9386 45.3209 66.3649C45.5393 67.2243 45.4931 68.0943 45.4469 68.9647ZM33.8082 79.1727C33.5778 79.2836 33.3472 79.3946 33.1168 79.5066L32.9869 79.5067C32.8777 79.493 32.7554 79.4627 32.6332 79.4324C32.3678 79.3666 32.1025 79.3009 31.9703 79.405C31.2072 80.0059 30.3788 79.9032 29.5687 79.8028C29.409 79.783 29.2501 79.7633 29.0924 79.7491C26.6375 79.5278 25.3189 78.5518 26.246 75.7371C27.3729 72.3154 29.7466 69.8484 32.6016 67.8013C33.9231 66.8537 35.3048 66.1071 37.0062 65.9142C37.0634 65.9077 37.1219 65.9014 37.1815 65.895C37.9947 65.8076 38.9968 65.6999 39.4638 64.7938C39.765 64.2095 40.1224 64.359 40.5174 64.5464C41.8809 65.193 42.3641 66.4465 42.5849 67.7974C43.136 71.1691 41.7275 73.6971 39.2472 75.8932C37.6101 77.3426 35.7162 78.2543 33.8082 79.1727Z" fill="white"/>
<path d="M45.57 71.1501L45.7141 71.4389C46.0199 71.7728 45.9985 72.162 45.9771 72.5503C45.9688 72.7016 45.9604 72.8528 45.9715 73.0005C46.0089 73.5021 46.0244 74.0049 46.0398 74.5073C46.085 75.9755 46.1301 77.4413 46.7232 78.8685C47.3655 80.4141 48.6255 81.3744 50.2598 81.2008C52.2466 80.9897 53.564 79.8212 54.8282 78.3555C59.554 72.8765 61.4294 66.4267 61.5557 59.3371C61.5683 58.6313 61.2062 58.2356 60.5241 58.0208C59.8916 57.8216 59.4897 58.0362 59.2292 58.5607C59.2069 58.6057 59.1844 58.6502 59.1621 58.6946C58.9042 59.2068 58.6613 59.6892 58.7844 60.3865C58.9699 61.438 59.0204 62.5879 58.7972 63.624C57.9635 67.4947 56.7904 71.2559 54.2772 74.4251C54.2238 74.4925 54.1705 74.5599 54.1172 74.6273C53.1969 75.7912 52.2722 76.9606 50.9133 77.6931C49.6304 78.3848 48.8803 78.0629 48.7045 76.6435C48.4352 74.4703 48.532 72.2932 48.8468 70.1399C49.2558 67.3421 50.0469 64.6306 50.8932 61.9347C50.9084 61.8863 50.9239 61.8376 50.9394 61.7888C51.1486 61.1324 51.3678 60.4441 51.0438 59.7253C50.6879 58.9359 50.2818 58.8374 49.7445 59.4711C49.5438 59.7079 49.3411 59.9669 49.2287 60.2513C47.9941 63.3757 46.8484 66.5279 46.358 69.8765C46.3514 69.9216 46.3451 69.9701 46.3386 70.0202C46.3004 70.3148 46.2545 70.6695 46.0885 70.7604C45.8847 70.8721 45.7148 71.0037 45.57 71.1501Z" fill="white"/>
<path d="M79.6103 5.46528C78.804 4.52642 78.6597 3.29263 78.2162 2.1981C77.9555 1.55449 77.6882 1.12827 77.0186 0.894486C76.3048 0.645295 75.9979 0.832727 75.8317 1.55868C75.5495 2.79098 75.8002 3.94998 76.2466 5.0697C76.6341 6.04133 77.1334 6.96816 77.6284 8.00968C75.6682 10.2276 73.8848 12.5814 71.832 14.7177C70.4691 16.1362 69.2969 17.7081 68.4111 19.5038C67.9409 20.4569 68.2899 21.0885 68.9837 21.4234C69.5778 21.7101 70.4289 21.4975 70.7607 20.8112C72.6115 16.9823 76.0283 14.4448 78.5827 10.9696C79.3419 12.3914 79.6718 13.769 80.1276 15.0953C80.4661 16.0804 80.7671 17.0836 81.5594 17.826C82.2248 18.4494 82.95 18.3674 83.222 17.5586C83.3967 17.0391 83.5475 16.3398 83.3406 15.892C82.2648 13.5638 81.7653 11.0249 80.6788 8.64901C82.1121 7.05583 83.6053 5.42203 84.949 3.65422C85.6974 2.6695 85.6683 1.69173 84.6068 0.718018C83.6184 1.29302 82.7943 2.05427 82.0587 2.9776C81.3553 3.8605 80.7218 4.83335 79.7401 5.46528" fill="white"/>
<path d="M73.8843 42.9662C73.8851 42.9613 73.8847 42.9538 73.8831 42.9435C73.438 40.1347 72.7285 37.3841 72.0192 34.6343C71.9504 34.3675 71.8816 34.1008 71.813 33.834C71.8028 33.794 71.7926 33.7541 71.7825 33.7141C71.6076 33.0267 71.4326 32.3389 70.7837 31.8744C69.4085 30.89 67.9111 31.2153 67.1535 32.7968C66.4785 34.2061 65.8252 35.6259 65.1719 37.0457C64.3655 38.7982 63.5591 40.5507 62.7119 42.2833C62.6484 42.4131 62.5849 42.5428 62.5213 42.6725C61.4438 44.8723 60.3689 47.0664 59.7578 49.4522C59.6774 49.766 59.6059 50.0928 59.6857 50.4994C59.7047 50.596 59.7205 50.6924 59.736 50.7869C59.8375 51.4044 59.9254 51.9392 60.7787 51.9097C61.6634 51.8792 62.291 51.2054 62.278 50.4898C62.2592 49.4628 62.6266 48.6022 63.0107 47.7671C64.5989 44.3142 66.2636 40.8963 67.9343 37.4822C68.0335 37.2796 68.0788 37.0498 68.1241 36.8199C68.215 36.359 68.3059 35.8977 68.831 35.6544L69.7269 37.2221C70.0492 38.4398 70.2991 39.6738 70.5489 40.9075C70.9004 42.6438 71.2519 44.3796 71.8053 46.0687C72.4102 47.915 73.8257 48.4224 75.3255 47.2367C76.5448 46.2728 77.3017 44.9333 77.8874 43.577C79.2738 40.3664 80.4775 37.0799 81.4517 33.7092C81.8059 32.4835 82.316 31.3005 82.8244 30.1217C82.9262 29.8855 83.028 29.6495 83.1284 29.4133C83.4291 28.7063 83.5596 28.1163 82.7269 27.7174C81.95 27.3451 81.1193 27.6567 80.6499 28.4978C79.8852 29.8677 79.4234 31.3593 78.9641 32.8428C78.8469 33.2213 78.7298 33.5994 78.608 33.9747C77.6231 37.0079 76.4966 39.9817 75.311 42.9359C75.1694 43.2888 74.9443 43.608 74.7192 43.9272C74.6153 44.0747 74.5113 44.2221 74.4156 44.3728L73.8843 42.9662Z" fill="white"/>
<path d="M56.6233 11.1908C57.729 11.596 58.7274 11.0245 59.7341 10.7758C61.8752 10.2469 64.1158 9.98203 65.8637 8.34918C66.8427 7.43466 67.3605 8.49804 67.93 8.98598C67.8384 11.2167 66.4067 12.1124 64.676 12.7544C61.9343 13.7715 59.0919 14.4002 56.2311 14.951C55.8091 15.0323 55.3609 14.9685 55.1966 15.4855C54.5574 17.4978 53.7478 19.465 53.4651 21.625C56.0169 20.9922 58.4667 20.4002 60.9061 19.7678C61.4455 19.628 62.0556 19.4616 62.4427 19.1018C63.055 18.5328 63.5018 18.7324 64.027 19.127C64.7258 19.652 64.542 20.415 64.2494 20.9295C63.6869 21.9185 62.848 22.7306 61.6865 23.0254C58.5314 23.826 55.3675 24.5921 52.208 25.3757C51.4859 25.5548 50.9879 25.4901 50.755 24.6001C50.4867 23.5751 50.3383 22.7148 50.6928 21.5739C51.2407 19.81 51.9985 18.097 52.3376 16.2652C52.0953 15.7621 51.6019 16.1732 51.3069 15.9919C50.7531 15.6513 50.5063 15.0264 50.553 14.4466C50.6073 13.7706 50.9602 13.0407 51.6929 12.9084C53.2133 12.6339 53.8297 11.7055 54.1902 10.2887C54.5534 8.86081 55.2169 7.51164 55.7035 6.11219C55.9044 5.53455 56.4771 5.00971 55.9998 4.27725C55.9068 4.13449 56.0689 3.64251 56.2471 3.53588C57.0596 3.04962 57.7656 2.46732 58.3123 1.69212C58.4849 1.44737 58.8816 1.50055 58.9402 1.57742C59.6749 2.54236 60.6736 2.11326 61.5575 2.06644C64.729 1.89848 67.8941 1.63391 71.0382 1.16648C71.3896 1.11423 71.7848 1.08002 72.0682 0.89602C73.0675 0.24733 73.6265 0.925434 74.1396 1.57431C74.4521 1.96944 73.6759 3.2446 72.9849 3.50807C71.6064 4.03373 70.1959 4.36447 68.7023 4.44407C65.928 4.59191 63.1624 4.89774 60.3887 5.06031C58.6692 5.16109 58.4796 5.26852 57.7818 6.89223C57.0906 8.50062 56.9163 10.2788 56.1038 11.8414" fill="white"/>
<path fill-rule="evenodd" clip-rule="evenodd" d="M33.1062 51.3322C33.7352 53.0321 34.3634 54.7295 35.1948 56.3443V56.4744C35.0344 57.344 34.5457 57.8455 33.6366 57.9086C32.8247 57.9649 32.631 57.4207 32.4357 56.8717C32.4037 56.782 32.3718 56.6922 32.3371 56.6048C32.1724 56.1906 32.0016 55.7785 31.8308 55.3664C31.4646 54.4831 31.0985 53.5999 30.7936 52.6959C30.5733 52.0429 30.3083 51.4063 30.0433 50.7696C29.6013 49.7077 29.159 48.6451 28.9229 47.5037C28.8643 47.2202 28.6152 46.7319 28.053 46.6976C27.58 46.6686 27.4387 46.9791 27.3099 47.262C27.2676 47.3548 27.2267 47.4446 27.1758 47.5185C27.0585 47.6891 27.0364 47.9232 27.0142 48.1586C26.9928 48.3851 26.9714 48.6126 26.8649 48.7858C25.8449 50.4454 25.1363 52.2438 24.4281 54.0411C24.1394 54.7738 23.8508 55.5063 23.5412 56.2291C23.5276 56.2607 23.5143 56.2921 23.501 56.3233C23.2461 56.9229 23.0273 57.4376 22.3406 57.3596C21.4879 57.2628 21.4437 56.5064 21.431 55.8238C21.4079 54.5917 21.7704 53.4319 22.2179 52.3145C22.8748 50.674 23.5461 49.0393 24.2175 47.4046C25.2012 45.0093 26.1849 42.6141 27.123 40.201C27.906 38.1867 28.6905 36.1771 29.6144 34.2249C30.3399 32.692 31.2134 32.4965 32.4657 33.5745C34.4528 35.2853 35.5345 37.4157 35.7412 40.0765C35.9649 42.9571 34.394 44.8754 32.4588 45.7856C31.9728 46.0142 31.5748 46.2652 31.223 46.7259C31.9555 48.2226 32.5312 49.7784 33.1062 51.3322ZM30.4453 43.496C33.4274 42.1239 34.1427 39.7435 31.6883 36.9556L31.6883 36.305C31.518 36.7382 31.3559 37.1755 31.1938 37.6128C30.8203 38.6204 30.4468 39.628 29.9727 40.5855C29.3875 41.7674 29.621 42.6397 30.4453 43.496Z" fill="white"/>
<path fill-rule="evenodd" clip-rule="evenodd" d="M41.6824 41.184C41.9144 41.0308 42.1476 40.8766 42.4677 41.1196L42.5696 41.0515C42.0603 42.4346 41.416 43.7563 40.7713 45.0791C40.2602 46.1275 39.7488 47.1766 39.3041 48.2573C38.7383 49.6325 38.4079 50.9894 38.3109 52.4405C38.2472 53.393 38.5125 54.1546 39.5118 54.5343C40.1839 54.1746 40.4297 53.5923 40.3994 52.8305C40.3857 52.4858 40.3951 52.1004 40.532 51.7955C40.789 51.223 41.043 50.6491 41.2969 50.0752C42.6529 47.0111 44.0088 43.9471 45.8211 41.1048C46.2082 40.4977 46.6538 39.8709 47.2736 39.8593C48.6268 39.8341 49.9417 39.5813 51.2632 39.3271C52.1448 39.1576 53.0293 38.9875 53.93 38.8841C54.4081 42.1016 53.6338 45.1291 52.7377 48.1495C52.6374 48.4875 52.5102 48.8193 52.3829 49.1511C52.1042 49.8779 51.8254 50.605 51.8291 51.3995C51.8342 52.4957 52.4056 52.7802 53.3811 52.3198C54.559 51.7638 54.9058 50.6692 55.1808 49.5742C55.2777 49.1887 55.3773 48.8035 55.477 48.4183C56.2152 45.5654 56.9537 42.7116 56.5477 39.681C56.5457 39.6662 56.5436 39.6511 56.5415 39.6356C56.4846 39.2164 56.3924 38.5375 56.8707 38.1339C57.3931 38.1199 57.864 37.9407 58.3331 37.7622C58.6252 37.6511 58.9167 37.5402 59.2194 37.4696C59.3903 37.4298 59.5515 37.3299 59.7056 37.2345C59.7168 37.2276 59.728 37.2206 59.7391 37.2138C60.5857 36.6914 61.0187 35.5694 60.6495 34.8736C60.1153 33.8671 59.7988 33.8446 58.4341 34.4666C58.0188 34.6559 57.5645 34.7594 57.1107 34.8627C56.9048 34.9097 56.699 34.9565 56.497 35.0114C56.1859 34.4532 56.1143 33.8434 56.0425 33.2321C55.9833 32.7277 55.924 32.2224 55.7299 31.7443C55.0514 30.0733 53.2663 28.9792 51.9651 29.6993C50.9525 30.2598 49.9551 30.8702 49.1929 31.8591C48.788 32.3843 48.3755 32.9036 47.963 33.4229C47.1462 34.4511 46.3291 35.4796 45.5708 36.5555C45.2268 37.0436 44.7991 37.3038 44.0237 37.2695C41.9949 37.1796 40.6558 38.1805 39.9811 39.8105C39.7813 40.2931 39.9149 40.6412 40.1408 40.9823C40.4049 41.3814 40.8671 41.4322 41.2971 41.3685C41.434 41.3482 41.558 41.2662 41.6824 41.184ZM43.2123 40.6223C43.2242 40.6152 43.2357 40.6076 43.2469 40.5991L43.2123 40.6223ZM52.845 32.5558C51.4954 33.6479 50.1989 34.6971 49.4806 36.305L48.7014 36.6954C50.4527 36.5272 52.1452 36.0974 53.9267 35.645L54.0171 35.6221C53.7897 35.2055 53.7273 34.7594 53.6649 34.3139C53.5759 33.6779 53.4871 33.0429 52.9187 32.4961C52.8941 32.516 52.8695 32.5359 52.845 32.5558Z" fill="white"/>
<path fill-rule="evenodd" clip-rule="evenodd" d="M37.833 10.9293C37.8082 10.0997 37.7889 9.12769 38.8311 8.71841H38.9609C39.5908 9.15273 40.0081 9.03607 40.4097 8.33971C40.6634 7.89974 40.9812 7.49788 41.2996 7.09544C41.5208 6.8157 41.7423 6.53568 41.9426 6.24238C42.9794 4.72442 44.2055 3.402 45.7116 2.33867C47.04 1.40085 48.6381 1.72055 49.4804 3.12302C50.7301 5.20388 50.1292 7.88765 48.2014 9.77956C46.6219 11.3296 44.7679 12.3028 42.6449 12.9082C42.7246 13.0647 42.7355 13.1951 42.7456 13.3163C42.7558 13.4385 42.7652 13.5513 42.8435 13.672C44.0039 15.4599 44.8641 17.3977 45.7245 19.3359C46.2579 20.5374 46.7913 21.739 47.3964 22.9053C47.7774 23.6396 47.473 24.8049 46.883 25.1142C46.3408 25.3985 45.2722 24.9306 44.9418 24.2002C44.6466 23.5477 44.3668 22.8875 44.0871 22.2274C43.6087 21.0982 43.1304 19.9694 42.5748 18.8797C42.3157 18.3714 42.0867 17.8458 41.8571 17.319C41.3302 16.11 40.8005 14.8946 39.8984 13.8675C39.3948 14.0611 39.1472 14.4781 38.9262 14.8503C38.9008 14.8931 38.8757 14.9352 38.8507 14.9764C38.4682 15.6053 38.0772 16.2288 37.6861 16.8525C37.1371 17.7279 36.588 18.6035 36.0624 19.4943C35.8702 19.8199 35.6761 20.1441 35.4822 20.4679C34.1316 22.7231 32.79 24.9635 32.1892 27.5823C32.084 28.041 31.8449 28.6358 31.1723 28.4817C30.617 28.3544 30.3999 27.9491 30.37 27.3273C30.2731 25.3116 31.0549 23.5468 31.9716 21.8741C33.7079 18.706 35.5614 15.6012 37.4246 12.5054C37.7427 11.9768 37.8515 11.5453 37.833 10.9293ZM43.4696 8.60883C43.0592 9.17452 43.1999 8.8 42.9749 9.36902H43.2467C43.3288 9.38274 43.4201 9.40949 43.5115 9.43625C43.709 9.49411 43.9065 9.55196 44.0109 9.47795C44.1933 9.34865 44.3782 9.2208 44.5634 9.09271C45.3748 8.53146 46.1931 7.9655 46.8437 7.25104C46.865 7.22762 46.8868 7.20384 46.9089 7.17972C47.4549 6.58306 48.1961 5.77325 47.4045 4.85289C47.0092 4.76424 46.8361 4.89642 46.629 5.05453C46.6246 5.05792 46.6201 5.06133 46.6156 5.06475C45.3287 6.04623 44.3991 7.32766 43.4696 8.60883Z" fill="white"/>
<path d="M24.935 62.0698C20.2463 62.7924 17.8334 66.4309 15.2091 69.7586C13.7772 71.5742 12.8683 73.7283 12.6511 75.9984C12.4036 78.5834 12.2638 81.3177 14.556 83.2678C16.1708 84.6415 18.1904 84.5942 20.1237 84.3927C20.7886 84.3234 21.5228 84.2488 22.2272 83.9826C23.3153 83.5715 23.3865 82.7953 23.2121 81.9865C23.031 81.1461 22.3238 81.1576 21.5532 81.3C20.8734 81.4255 20.1694 81.4744 19.477 81.5601C16.8361 81.8868 14.848 80.116 15.2231 76.6469C15.5327 73.7836 17.0651 71.4052 18.8683 69.2581C19.4048 68.6194 20.044 68.0081 20.6311 67.3876C22.1353 65.7978 23.8729 64.639 25.9719 64.0148C26.4618 63.8691 27.1729 63.9687 27.1456 63.1107C27.1153 62.1585 26.4161 62.3774 25.8451 62.3198C25.5794 62.293 25.3246 62.1566 25.0649 62.0698" fill="#FFF2F2"/>
<path fill-rule="evenodd" clip-rule="evenodd" d="M21.3922 38.9215C21.8253 40.0465 22.0175 41.3068 21.6882 42.551V42.6812C21.7728 44.6457 21.2933 46.495 20.5169 48.2755C18.1011 53.8157 14.2949 57.6852 8.05048 58.5468C6.02997 58.8256 4.06586 58.8891 2.18092 57.6877C0.974258 56.9186 0.421353 55.7874 0.450824 54.6543C0.548342 50.9047 2.07686 47.6155 4.2878 44.6347C5.28491 43.2904 6.49575 42.1584 7.7072 41.0258C8.19834 40.5666 8.68959 40.1073 9.16673 39.6337C10.9486 37.8653 12.8827 36.8367 15.3185 36.4014C18.0341 35.9161 20.562 36.7648 21.3922 38.9215ZM15.8453 40.1118C16.4958 40.102 17.1736 40.0918 17.7921 39.8184H17.9219C18.5783 39.9326 18.8447 40.2962 18.9873 40.984C19.4509 43.2215 18.8932 45.3228 18.155 47.3559C17.0857 50.3011 15.0381 52.5254 12.4636 54.2566C10.3447 55.6814 7.88247 56.0352 5.45902 55.8809C3.77701 55.7738 2.80824 54.6248 3.38192 52.3118C4.20746 48.9832 5.94835 46.1311 8.34078 43.7517C10.2129 41.8897 12.307 40.3195 15.1897 40.1323C15.4027 40.1185 15.6224 40.1152 15.8453 40.1118Z" fill="white"/>
</svg>
