<svg width="150" height="66" viewBox="0 0 150 66" fill="none" xmlns="http://www.w3.org/2000/svg">
<g clip-path="url(#clip0_1281_247)">
<path d="M108.939 20.7623C108.727 20.4199 108.564 20.1187 108.368 19.8434C106.252 16.8615 104.139 13.8779 101.993 10.9167C101.816 10.6723 101.307 10.3884 101.14 10.4779C100.826 10.6431 100.482 11.0492 100.442 11.3881C100.319 12.4635 100.303 13.5544 100.295 14.6402C100.265 17.9817 100.229 21.3215 100.264 24.663C100.271 25.4442 100.095 25.8502 99.2734 25.8313C99.1032 25.8279 98.933 25.8692 98.7611 25.8761C96.6121 25.9621 96.1565 25.6248 96.1496 23.5274C96.1427 21.244 96.3198 18.9607 96.3765 16.6774C96.4298 14.5077 96.4419 12.3379 96.4522 10.1682C96.4659 7.36525 96.4848 4.5623 96.4436 1.76107C96.4333 1.0556 96.7032 0.776857 97.3393 0.701148C97.623 0.668456 97.9015 0.597909 98.1817 0.549731C98.9914 0.410358 99.6207 0.570379 100.214 1.26208C103.212 4.76189 105.958 8.43549 108.23 12.4515C108.842 13.5321 109.322 13.6095 110.03 12.5565C111.942 9.71566 113.813 6.84561 115.645 3.95147C117.829 0.504994 116.885 1.4049 120.923 0.912789C121.63 0.826756 121.876 1.13992 121.872 1.8471C121.857 5.21787 121.864 8.58863 121.898 11.9594C121.927 14.8157 122.024 17.6702 122.056 20.5248C122.073 21.9203 122.032 23.3192 121.969 24.7129C121.96 24.8901 121.657 25.1947 121.484 25.1998C120.342 25.2377 119.197 25.2239 118.052 25.1981C117.487 25.1843 117.27 24.8402 117.282 24.2879C117.356 20.8311 117.414 17.3726 117.485 13.9158C117.507 12.83 117.602 11.7443 117.559 10.662C117.545 10.3127 117.249 9.75179 116.99 9.69157C116.701 9.62619 116.177 9.93418 115.979 10.2301C113.749 13.551 111.564 16.9011 109.363 20.2426C109.303 20.3338 109.224 20.413 108.935 20.7623H108.939Z" fill="white"/>
<path d="M49.102 59.8366C48.7702 59.4546 48.4505 59.1397 48.1943 58.7818C46.1192 55.8773 44.0648 52.9574 41.9743 50.065C41.8126 49.843 41.3657 49.6142 41.1594 49.6881C40.874 49.7914 40.5576 50.1493 40.494 50.4504C40.3634 51.0578 40.3634 51.6979 40.3582 52.3259C40.3238 56.0374 40.3049 59.7471 40.2808 63.4585C40.2808 63.6874 40.2602 63.918 40.2894 64.1434C40.3668 64.7697 40.0935 65.0656 39.4728 65.0329C38.6493 64.9917 37.8275 64.9452 37.0058 64.8815C36.4539 64.8385 36.1977 64.5047 36.2081 63.9627C36.2528 61.5383 36.3043 59.1156 36.3439 56.6912C36.3645 55.4059 36.3576 54.1206 36.3697 52.8352C36.4023 48.8072 36.4281 44.7774 36.5003 40.7493C36.5055 40.4947 36.8424 40.1643 37.1055 40.0146C37.3874 39.8546 37.7657 39.8632 38.1043 39.8081C39 39.6619 39.7015 39.8408 40.353 40.61C43.2808 44.0547 45.9748 47.6612 48.2115 51.5946C48.8957 52.7974 49.3204 52.8903 50.094 51.7409C52.0367 48.8519 53.9347 45.9337 55.7846 42.9862C57.4195 40.3811 57.38 40.357 60.4058 40.1695C61.8671 40.0783 61.8826 40.0783 61.8946 41.5649C61.9238 45.0217 61.9238 48.4785 61.9616 51.9353C61.9909 54.6195 62.082 57.3038 62.1043 59.9897C62.1147 61.3008 62.0545 62.6154 61.9651 63.9248C61.9513 64.1244 61.6161 64.4582 61.4201 64.4651C60.337 64.5064 59.2488 64.4789 58.1639 64.4462C57.5399 64.4273 57.2975 64.1038 57.3164 63.4431C57.4402 59.2171 57.5261 54.9878 57.6241 50.7601C57.631 50.4745 57.7066 50.1613 57.6172 49.9084C57.4883 49.5436 57.2889 49.0068 57.0207 48.9414C56.7336 48.8726 56.2023 49.1737 56.0063 49.4662C53.7903 52.7595 51.619 56.0821 49.4339 59.3978C49.3582 59.5131 49.2688 59.618 49.1038 59.8348L49.102 59.8366Z" fill="white"/>
<path d="M20.1731 42.5028C19.5232 43.6384 18.9404 44.7069 18.2888 45.7324C18.1977 45.8752 17.7181 45.8976 17.486 45.8064C16.0264 45.2265 14.5943 44.5813 13.1381 43.9894C11.0149 43.1256 8.84872 43.1549 6.67222 43.764C5.57193 44.072 4.85331 44.8015 4.50947 45.8924C4.06248 47.3085 4.76563 48.5422 6.24586 48.7264C7.74672 48.9139 9.26477 48.9759 10.7777 49.0619C13.3255 49.2047 15.8579 49.4318 18.2252 50.4849C20.8865 51.6687 22.843 53.4909 23.1817 56.5399C23.2797 57.4174 23.1129 58.3706 22.8636 59.2292C22.004 62.1939 19.0573 64.6837 15.9765 64.8334C11.9845 65.0278 7.98225 64.9607 4.12952 63.6565C3.32666 63.3846 2.58225 62.9321 1.81548 62.5553C1.31692 62.3109 1.19485 61.9203 1.41319 61.4162C1.78626 60.5524 2.14041 59.6766 2.55818 58.8335C2.63038 58.689 3.08941 58.5547 3.19944 58.6391C5.03382 60.0431 7.32208 60.2806 9.39199 61.0669C10.941 61.6554 12.5089 61.1529 14.0321 60.8157C14.9106 60.6195 15.8132 60.3201 16.58 59.859C18.7135 58.5771 18.5553 55.7862 16.396 54.5422C14.8814 53.6698 13.2275 53.6836 11.5822 53.5408C8.71978 53.293 5.92781 52.7527 3.32666 51.4536C-0.278498 49.6521 -1.14841 44.922 1.67623 42.0623C2.82981 40.8939 4.41835 40.4328 6.00345 40.1506C10.4166 39.3677 14.6407 40.2401 18.7737 41.7474C19.2189 41.9091 19.6178 42.1965 20.1714 42.4993L20.1731 42.5028Z" fill="white"/>
<path d="M29.1629 19.3943C31.0351 20.0808 32.8351 20.6194 34.5285 21.392C36.6379 22.3538 38.7044 22.082 40.7967 21.5245C41.5634 21.3197 42.3508 21.0822 43.0299 20.6865C45.1875 19.4321 45.148 16.6223 42.9783 15.3697C41.8763 14.733 40.6866 14.4354 39.3904 14.3803C36.0603 14.2375 32.8024 13.7144 29.78 12.1865C26.2351 10.3935 25.3737 5.66346 28.1777 2.84847C29.4156 1.60444 31.1176 1.11921 32.8316 0.862833C37.0058 0.239956 41.0288 0.945425 44.9348 2.40454C47.0047 3.17883 46.7881 3.17539 45.803 4.8754C44.6631 6.84211 44.5926 6.80942 42.4935 5.96285C41.5411 5.57915 40.599 5.16791 39.6551 4.76356C37.5646 3.86882 35.431 3.90151 33.2838 4.49169C32.1611 4.79969 31.3926 5.5086 31.0368 6.64251C30.6018 8.02248 31.1485 9.17188 32.572 9.43514C33.8563 9.67259 35.1818 9.69151 36.4918 9.77238C38.8884 9.92036 41.2952 10.0219 43.5904 10.8134C45.7995 11.5739 47.7628 12.6837 48.9319 14.838C49.7588 16.3625 49.9136 17.9369 49.5233 19.6403C48.9371 22.199 45.5692 25.5508 42.6207 25.6317C38.6889 25.7401 34.8001 25.642 31.0041 24.5356C30.0586 24.2603 29.1852 23.7303 28.2912 23.2916C27.803 23.0507 27.6861 22.679 27.9353 22.1559C28.3875 21.2061 28.7915 20.234 29.1611 19.3926L29.1629 19.3943Z" fill="white"/>
<path d="M145.738 58.6028C145.738 57.0318 145.731 55.4609 145.741 53.8916C145.748 52.8524 145.573 52.6682 144.569 52.7061C141.399 52.8231 138.229 52.9384 135.058 53.052C133.502 53.1087 133.374 53.298 133.391 54.8139C133.423 57.6977 133.389 60.5815 133.391 63.4654C133.391 63.8835 133.332 64.1829 132.803 64.1984C131.747 64.231 130.692 64.2896 129.639 64.3721C129.051 64.4186 128.704 64.2551 128.699 63.6064C128.69 62.6653 128.654 61.7241 128.649 60.7829C128.623 56.0407 128.582 51.3003 128.592 46.5582C128.596 44.4762 128.723 42.3942 128.756 40.3122C128.764 39.6962 128.964 39.3986 129.602 39.4519C130.542 39.531 131.482 39.6016 132.423 39.6687C133.004 39.71 133.062 40.0765 133.059 40.5634C133.043 42.6781 133.052 44.7945 133.059 46.9092C133.068 49.0308 133.159 49.0411 135.237 48.8811C137.617 48.697 140.006 48.6333 142.392 48.5679C143.259 48.5438 144.131 48.6849 145 48.7228C145.676 48.752 145.784 48.2771 145.786 47.7472C145.79 45.8889 145.781 44.0306 145.795 42.174C145.798 41.632 145.888 41.0917 145.901 40.5497C145.915 40.0077 146.161 39.7616 146.701 39.7995C147.641 39.8649 148.588 39.8872 149.519 40.018C149.715 40.0455 150 40.4619 150 40.6994C149.993 44.693 149.933 48.6884 149.912 52.682C149.895 56.2162 149.916 59.7505 149.91 63.2847C149.909 64.5167 149.888 64.5132 148.669 64.4771C148.04 64.4582 147.407 64.4392 146.783 64.4995C146.051 64.5683 145.819 64.2465 145.826 63.5686C145.843 61.9116 145.831 60.2563 145.831 58.5993C145.8 58.5993 145.769 58.5993 145.738 58.5993V58.6028Z" fill="white"/>
<path d="M85.3771 24.9914C83.9742 25.191 82.6831 25.3992 81.3817 25.5386C81.1754 25.561 80.8556 25.3201 80.7301 25.1136C80.4052 24.5819 80.0854 24.0227 79.9049 23.4325C79.7278 22.8492 79.396 22.6772 78.8493 22.6582C75.937 22.555 73.023 22.4586 70.1124 22.3193C68.5462 22.2436 66.9851 22.0921 65.4224 21.9631C64.7605 21.908 64.3771 22.1592 64.1295 22.8062C63.8149 23.627 63.3783 24.403 62.976 25.1876C62.9072 25.3201 62.7456 25.5025 62.6321 25.499C61.2774 25.456 59.9227 25.3838 58.4321 25.3115C58.5834 24.8968 58.6573 24.6009 58.7914 24.3342C59.8281 22.2694 60.8734 20.2115 61.9187 18.1518C64.2791 13.4975 66.6447 8.84654 68.9983 4.19045C69.4866 3.22344 69.9147 2.22718 70.4081 1.26361C70.5026 1.07778 70.7674 0.972822 70.9668 0.850655C71.0304 0.81108 71.1353 0.840331 71.2212 0.835169C72.1324 0.792153 73.2035 0.435977 73.9066 0.797315C74.553 1.1294 74.8591 2.20997 75.2184 3.00319C76.7467 6.3774 78.1995 9.78774 79.7536 13.1499C81.4763 16.8768 83.2814 20.5676 85.0505 24.2757C85.1467 24.477 85.2361 24.6817 85.3788 24.9932L85.3771 24.9914ZM72.3559 18.0073C72.3559 17.9299 72.3559 17.8524 72.3559 17.775C73.5267 17.775 74.6975 17.8111 75.8648 17.7647C76.8138 17.7268 77.1336 17.1883 76.7347 16.3193C75.4763 13.5749 74.1972 10.8425 72.9129 8.1101C72.6722 7.59734 72.1015 7.52335 71.8316 7.96556C71.5066 8.49724 71.2092 9.04957 70.9496 9.61395C70.2344 11.166 69.5485 12.7318 68.8402 14.2872C68.4155 15.2216 67.9479 16.137 67.5422 17.0799C67.3255 17.5823 67.4218 18.0021 68.0923 18.0056C69.5141 18.0142 70.9341 18.009 72.3559 18.009V18.0073Z" fill="white"/>
<path d="M107.531 63.1694C107.003 63.4361 106.563 63.529 106.334 63.7991C105.578 64.6887 104.596 64.5631 103.645 64.4478C103.463 64.4254 103.222 63.88 103.214 63.5703C103.161 61.6569 103.142 59.7401 103.159 57.825C103.193 54.1101 103.252 50.3952 103.322 46.6803C103.331 46.2364 103.43 45.7787 103.568 45.3537C103.819 44.5794 103.551 44.1269 102.727 44.0907C100.159 43.9772 97.592 43.8705 95.0236 43.769C93.9491 43.726 93.8648 43.6468 93.8906 42.5542C93.9044 41.9537 93.8941 41.3515 93.9525 40.7561C93.992 40.3552 94.109 39.9973 94.6728 39.9887C96.4092 39.9629 98.1456 39.8373 99.882 39.8459C104.455 39.8682 109.028 39.944 113.601 39.9956C114.793 40.0093 115.986 39.9749 117.174 40.0472C117.437 40.0627 117.839 40.4068 117.896 40.6632C118.05 41.3532 118.04 42.0776 118.123 42.7865C118.193 43.399 117.903 43.5763 117.337 43.5986C114.684 43.6984 112.033 43.8412 109.381 43.9359C108.208 43.9772 108.251 43.941 108.248 45.0922C108.242 46.8059 108.22 48.5214 108.11 50.23C107.955 52.651 107.656 55.0633 107.534 57.486C107.448 59.1878 107.558 60.8981 107.572 62.6067C107.574 62.8614 107.536 63.116 107.531 63.1711V63.1694Z" fill="white"/>
<path d="M81.5174 46.1091C81.3472 50.6464 81.1701 54.4938 81.0756 58.3446C81.0292 60.2219 81.1186 62.1043 81.1856 63.9832C81.208 64.6078 81.0274 64.8608 80.3707 64.8315C79.5163 64.7937 78.6567 64.8539 77.8005 64.8608C77.0166 64.8676 76.6693 64.5786 76.6676 63.6873C76.6641 59.1792 76.6813 54.6762 77.02 50.1733C77.2315 47.3583 77.2246 44.5261 77.271 41.7008C77.2848 40.8353 77.6148 40.4343 78.483 40.4498C79.2532 40.4636 80.0252 40.4533 80.7954 40.4309C81.3679 40.4137 81.5295 40.701 81.5243 41.2258C81.5088 43.0824 81.5174 44.939 81.5174 46.1073V46.1091Z" fill="white"/>
</g>
<defs>
<clipPath id="clip0_1281_247">
<rect width="150" height="64.5349" fill="white" transform="translate(0 0.501465)"/>
</clipPath>
</defs>
</svg>
