<svg width="150" height="43" viewBox="0 0 150 43" fill="none" xmlns="http://www.w3.org/2000/svg">
<g clip-path="url(#clip0_1326_183)">
<path d="M108.406 42.4982C95.5676 42.4982 82.7287 42.4983 69.889 42.5009C69.2771 42.5009 68.6842 42.4965 68.1409 42.1345C67.219 41.5201 66.7737 40.656 66.772 39.5682C66.7642 34.9707 66.7685 30.3733 66.7685 25.7759C66.7685 18.3363 66.7668 10.8958 66.7746 3.45617C66.7755 2.35184 67.2199 1.46595 68.1765 0.867227C68.5827 0.613119 69.0219 0.520004 69.4976 0.520004C74.934 0.523485 80.3703 0.520874 85.8067 0.520874C100.207 0.520874 114.607 0.521745 129.009 0.520874C135.095 0.520874 141.183 0.54263 147.269 0.499989C148.683 0.490416 150.003 1.85842 150.001 3.23165C149.972 15.3705 149.983 27.5094 149.996 39.6491C149.998 40.8944 149.449 41.7542 148.362 42.2781C148.075 42.4165 147.723 42.4774 147.401 42.4782C143.237 42.4904 139.073 42.4852 134.909 42.4852C126.076 42.4852 117.242 42.4852 108.407 42.4852V42.4982H108.406ZM75.8697 12.9626C75.8549 13.3533 75.7863 13.7449 75.835 14.1217C75.973 15.1912 76.532 15.5785 77.5875 15.3531C78.3782 15.1843 79.1586 14.9641 79.9485 14.7892C81.6073 14.4211 83.2782 14.2279 84.9795 14.455C86.482 14.6561 87.5835 15.3818 87.9386 16.9108C88.1295 17.7332 88.1165 18.6034 88.1877 19.4519C88.1938 19.5285 88.1373 19.6112 88.0879 19.7539C87.8674 19.7539 87.6408 19.7626 87.4151 19.7521C86.9968 19.7339 86.5784 19.6721 86.1617 19.6851C84.8641 19.726 83.5638 19.7521 82.2704 19.86C80.4415 20.0141 78.6768 20.4387 77.078 21.3925C76.2585 21.8816 75.5607 22.509 75.0971 23.3566C73.605 26.0857 74.6293 29.7137 77.5866 31.1905C79.3166 32.0546 81.1507 32.1146 83.0074 31.8075C84.9144 31.4916 86.4933 30.5395 87.8214 29.1489C87.9125 29.0532 88.0106 28.9644 88.159 28.8199C88.1833 29.0175 88.205 29.115 88.2059 29.2124C88.2103 29.6475 88.1964 30.0827 88.2129 30.5178C88.2389 31.1931 88.5123 31.529 89.1607 31.6847C89.8925 31.8605 90.6173 31.7692 91.3785 31.6212C91.3907 31.4019 91.4115 31.2035 91.4124 31.0051C91.4219 26.962 91.4323 22.9198 91.4358 18.8767C91.4358 17.8742 91.3585 16.8786 91.0773 15.9083C90.599 14.261 89.639 13.0157 88.0549 12.3116C86.528 11.6337 84.8988 11.4788 83.2591 11.525C82.1958 11.5545 81.1342 11.7173 80.077 11.8609C78.669 12.0514 77.3132 12.4605 75.8697 12.9626ZM126.171 30.6004C127.971 31.2984 129.728 31.6325 131.508 31.8501C132.549 31.978 133.598 32.012 134.654 31.9615C136.147 31.8901 137.578 31.6143 138.924 30.9564C139.606 30.6231 140.191 30.1497 140.693 29.5814C141.452 28.7216 141.802 27.6808 141.878 26.5591C141.974 25.1423 141.624 23.8683 140.584 22.8249C139.83 22.0704 138.961 21.5056 137.966 21.1732C136.543 20.6972 135.093 20.3004 133.663 19.8479C132.756 19.5607 131.851 19.2596 130.963 18.9176C130.307 18.6643 129.793 18.2136 129.589 17.5069C129.272 16.4087 129.854 15.3401 130.985 14.8449C131.828 14.4768 132.726 14.3811 133.614 14.3898C135.159 14.4054 136.698 14.5612 138.196 14.9963C138.638 15.1242 139.094 15.22 139.551 15.2739C140.309 15.3644 140.863 14.9241 140.934 14.1679C140.976 13.7127 140.941 13.2498 140.941 12.7468C140.388 12.5753 139.846 12.3656 139.285 12.2412C136.996 11.7303 134.693 11.3231 132.332 11.5894C130.761 11.7669 129.279 12.1846 128.001 13.188C126.27 14.5473 125.816 16.9648 126.485 18.7696C127.01 20.1829 128.118 21.0427 129.414 21.6414C130.233 22.0191 131.127 22.2384 131.996 22.4977C133.062 22.8153 134.148 23.0695 135.206 23.4106C135.945 23.649 136.693 23.9136 137.365 24.2947C138.725 25.0675 138.995 26.6 138.047 27.8244C137.64 28.3509 137.052 28.6146 136.436 28.793C135.403 29.0923 134.35 29.2368 133.272 29.081C132.002 28.8965 130.731 28.7242 129.464 28.5206C128.81 28.4153 128.17 28.2047 127.515 28.1325C126.87 28.062 126.452 28.377 126.317 29.0114C126.208 29.5257 126.215 30.0644 126.169 30.5987L126.171 30.6004ZM114.931 7.73249C114.171 7.47403 113.482 7.43139 112.792 7.54016C111.984 7.66722 111.654 8.08493 111.632 8.90991C111.628 9.05524 111.63 9.1997 111.63 9.34503C111.632 14.4646 111.63 19.5842 111.64 24.7029C111.641 25.5131 111.641 26.3302 111.736 27.1326C111.861 28.1821 112.234 29.1559 112.922 29.9834C114.22 31.5455 115.995 31.9667 117.896 32.0015C118.611 32.0146 119.332 31.8719 120.044 31.7587C121.207 31.5734 122.305 31.1757 123.371 30.6753C123.612 30.0522 123.519 29.4517 123.272 28.8896C123.025 28.3274 122.405 28.1446 121.652 28.357C121.165 28.4945 120.688 28.6633 120.204 28.8095C119.383 29.0567 118.558 29.1837 117.688 29.1036C115.852 28.9348 114.941 27.6808 114.929 26.0195C114.902 22.4812 114.921 18.9419 114.925 15.4036C114.925 15.2513 114.959 15.0981 114.981 14.9171C115.206 14.9067 115.39 14.8901 115.575 14.8901C117.383 14.8884 119.19 14.8928 120.997 14.8841C121.298 14.8823 121.602 14.844 121.899 14.7883C122.236 14.7248 122.461 14.5029 122.576 14.1783C122.821 13.4812 122.697 12.7859 122.578 12.0558C122.369 12.0427 122.186 12.0227 122.002 12.0227C119.862 12.0201 117.723 12.0227 115.582 12.0192C115.387 12.0192 115.193 11.9879 114.932 11.9653V7.7351L114.931 7.73249ZM96.8236 31.6151C97.5579 31.824 98.2367 31.79 98.9138 31.7422C99.1099 31.7283 99.3113 31.6526 99.4901 31.5629C99.9241 31.3454 100.006 30.9529 100.005 30.5012C99.9979 26.9637 99.9979 23.4263 100.011 19.8888C100.012 19.6112 100.066 19.2996 100.2 19.062C100.505 18.5225 100.839 17.9917 101.224 17.5061C102.281 16.172 103.651 15.3305 105.338 15.0668C105.992 14.965 106.657 14.9293 107.32 14.8962C108.254 14.8484 108.666 14.4559 108.669 13.516C108.671 13.0835 108.618 12.6502 108.577 12.2185C108.567 12.1106 108.506 12.0071 108.452 11.8574C104.907 11.4266 102.168 12.7442 100.092 15.6342C100.028 15.4488 100.005 15.3 100.005 15.1503C100.001 14.3819 100.008 13.6135 99.9996 12.8451C99.9944 12.3465 99.7913 12.0454 99.3235 11.9C98.4884 11.6416 97.6499 11.7277 96.8071 11.8861C96.7923 11.9853 96.7767 12.041 96.7767 12.0958C96.7802 13.7336 96.7915 15.3723 96.7862 17.01C96.7845 17.6749 96.7316 18.3397 96.7316 19.0046C96.7324 19.7408 96.7845 20.4779 96.7862 21.2141C96.7932 24.4757 96.7897 27.7382 96.7923 30.9999C96.7923 31.1983 96.8123 31.3967 96.8236 31.6125V31.6151Z" fill="white"/>
<path d="M60.6456 11.1316C60.3826 11.7364 60.1335 12.3186 59.8765 12.8973C58.8115 15.2922 57.7464 17.6879 56.6753 20.0811C55.8238 21.9851 54.9601 23.884 54.1077 25.7872C53.1781 27.8627 52.2571 29.9417 51.3274 32.0172C50.4751 33.9212 49.6348 35.8305 48.7538 37.7207C48.1401 39.0373 47.1332 39.9006 45.6576 40.092C44.4337 40.2504 43.2349 40.1051 42.0787 39.6604C41.9885 39.6256 41.9121 39.556 41.7697 39.4646C43.4172 35.9776 45.0604 32.501 46.7183 28.9931C44.0396 24.7768 41.3626 20.5649 38.6466 16.2903C37.0035 18.0325 35.4046 19.7278 33.7744 21.456C36.1129 24.9935 38.4313 28.5006 40.7889 32.0668C40.5163 32.1816 40.328 32.2861 40.1266 32.3418C38.789 32.7142 37.4314 32.8604 36.053 32.6359C34.4984 32.3827 33.3569 31.5029 32.5236 30.1993C31.3067 28.2952 30.1071 26.3815 28.8979 24.4731C28.3007 23.5307 27.6983 22.5926 27.1011 21.651C26.9631 21.4334 26.8355 21.208 26.6897 20.9635C26.9215 20.692 27.128 20.4344 27.3511 20.1916C28.4544 18.9854 29.562 17.7837 30.6687 16.5801C31.9603 15.1747 33.2302 13.7475 34.5496 12.3691C35.8429 11.0176 37.4548 10.3345 39.328 10.3675C40.1031 10.3815 40.8757 10.5216 41.6508 10.5868C42.0084 10.6173 42.2228 10.8096 42.399 11.1003C43.2176 12.45 44.0431 13.7954 44.8668 15.1425C46.3633 17.5887 47.8589 20.0349 49.357 22.4794C49.3926 22.5377 49.4473 22.5856 49.5393 22.6909C49.7016 22.3445 49.8553 22.0426 49.9864 21.731C51.1226 19.035 52.2354 16.3286 53.3968 13.644C53.9133 12.45 54.6788 11.4371 55.9192 10.8905C56.8741 10.4711 57.8758 10.4084 58.8887 10.5729C59.3696 10.6512 59.8383 10.8105 60.3088 10.9445C60.413 10.9741 60.5032 11.0515 60.6456 11.1333V11.1316Z" fill="white"/>
<path d="M17.3864 10.9158C17.5964 12.209 17.6025 13.4273 17.0044 14.5699C16.4914 15.5498 15.6043 15.9962 14.5471 16.0128C13.4525 16.0302 12.3571 15.8996 11.2608 15.8909C9.94834 15.8805 8.63503 15.9083 7.32433 15.971C6.99622 15.9867 6.64815 16.1511 6.35997 16.3295C5.66295 16.7603 5.68986 17.5696 6.44069 17.8942C7.03007 18.1492 7.67414 18.2963 8.30692 18.4233C9.89279 18.7427 11.496 18.982 13.0749 19.3318C14.574 19.6643 15.9689 20.2699 17.0704 21.3899C18.4497 22.7927 18.9358 24.5036 18.7509 26.446C18.6511 27.4946 18.3368 28.4571 17.7657 29.3351C16.9064 30.6562 15.6503 31.442 14.2034 31.965C13.1895 32.3322 12.1366 32.5237 11.0646 32.5628C9.6211 32.6159 8.17585 32.6612 6.73321 32.6368C5.53709 32.6168 4.3427 32.4976 3.14918 32.4097C2.44435 32.3583 1.74126 32.2835 1.0373 32.2165C0.952231 32.2087 0.86977 32.1791 0.774288 32.1573C0.736963 32.0799 0.680542 32.0076 0.667522 31.9276C0.464406 30.731 0.499127 29.5588 1.059 28.4501C1.41922 27.7365 2.0034 27.2849 2.76117 27.0734C3.42087 26.8898 4.09358 26.8663 4.77931 26.9394C5.51105 27.0169 6.24886 27.0334 6.98407 27.0699C7.76268 27.1082 8.5465 27.0943 9.31816 27.1839C10.0794 27.2727 10.8198 27.1944 11.5524 27.0412C11.8632 26.976 12.1826 26.8106 12.43 26.6078C12.9213 26.2041 12.9256 25.4826 12.4152 25.1015C12.0793 24.8508 11.6583 24.6637 11.2486 24.5724C9.79644 24.2486 8.32776 24.0006 6.8747 23.6813C5.90426 23.468 4.91038 23.2783 3.99549 22.9067C1.94698 22.0739 0.470482 20.605 0.105916 18.3676C-0.315071 15.79 0.519091 13.6179 2.70996 12.0715C4.00678 11.156 5.47112 10.6782 7.03528 10.5495C8.35727 10.4407 9.68794 10.3571 11.0125 10.385C12.5828 10.418 14.1504 10.5817 15.7189 10.693C16.093 10.72 16.4663 10.7583 16.8386 10.8027C17.007 10.8227 17.1711 10.8706 17.3864 10.9167V10.9158Z" fill="white"/>
<path d="M20.5598 32.4923C20.5486 32.3192 20.5286 32.1486 20.5286 31.9772C20.5269 23.5385 20.5251 15.099 20.5303 6.66037C20.5303 5.55866 20.8524 4.57095 21.7108 3.82516C21.9148 3.64763 22.1535 3.49708 22.3983 3.38134C23.6934 2.77131 25.0449 2.77479 26.458 3.00192C26.484 3.20468 26.524 3.3709 26.524 3.53711C26.5266 12.3099 26.5283 21.0819 26.524 29.8547C26.524 31.2375 25.8521 32.0555 24.5093 32.4166C23.3297 32.7343 22.1309 32.6612 20.9331 32.6403C20.8628 32.6394 20.7907 32.615 20.723 32.5924C20.6831 32.5794 20.6492 32.548 20.559 32.4915L20.5598 32.4923Z" fill="white"/>
<path d="M88.1582 22.1305C88.1755 22.3594 88.1989 22.5291 88.1998 22.6979C88.2042 23.596 88.1903 24.494 88.2085 25.3912C88.2154 25.7315 88.1243 26.0082 87.9064 26.2641C86.5219 27.8923 84.8172 28.927 82.6671 29.1872C81.5187 29.3264 80.4311 29.2185 79.3912 28.6711C77.6439 27.7513 77.1344 25.5052 78.3713 23.9649C78.6352 23.6369 79.0058 23.3723 79.3721 23.1539C80.5404 22.4568 81.8416 22.1818 83.1792 22.1148C84.5038 22.0478 85.8319 22.0452 87.1582 22.0304C87.4715 22.0269 87.7849 22.0905 88.1573 22.1296L88.1582 22.1305Z" fill="white"/>
</g>
<defs>
<clipPath id="clip0_1326_183">
<rect width="150" height="42" fill="white" transform="translate(0 0.5)"/>
</clipPath>
</defs>
</svg>
