<svg width="150" height="151" viewBox="0 0 150 151" fill="none" xmlns="http://www.w3.org/2000/svg">
<g clip-path="url(#clip0_1326_202)">
<path d="M134.309 25.6427H132.812C133.792 26.9765 134.676 28.1726 135.543 29.3749C135.767 29.6849 135.887 30.07 136.159 30.3299C136.645 30.7995 136.675 31.5197 137.74 31.7295C138.417 31.8641 138.876 33.2105 139.301 34.0684C139.682 34.8417 139.882 35.6871 140.457 36.5012L140.719 35.0421C140.838 35.0171 140.961 34.9952 141.08 34.9701C141.45 36.2225 141.824 37.475 142.124 38.48C141.685 39.0687 141.372 39.4851 140.906 40.1113C141.664 40.174 142.018 40.2053 142.698 40.2616C141.382 43.1641 142.093 45.813 144.045 48.4744C143.317 48.3993 143.011 48.3711 142.518 48.321C142.518 49.8208 142.603 51.2579 142.494 52.6857C142.372 54.3389 141.668 56.0453 141.957 57.6109C142.358 59.7807 141.049 61.6092 141.151 63.6726C141.188 64.3959 140.773 65.1505 140.501 65.8675C140.195 66.6722 139.461 67.4518 140.546 68.2377C140.634 68.3003 140.624 68.5539 140.569 68.6886C140.005 70.1195 139.434 71.5504 138.838 72.9687C138.617 73.4979 138.315 73.9957 138.056 74.5124C137.968 74.6877 137.964 74.9601 137.822 75.0384C136.652 75.6928 135.757 76.5726 135.322 78.0661C134.271 76.607 135.417 75.8556 135.771 75.0353C136.376 73.62 137.264 72.3112 137.981 70.9367C138.107 70.6956 137.998 70.3512 137.998 69.7813C137.281 70.6768 136.672 71.3343 136.193 72.0607C135.567 73.0032 135.043 74.002 134.482 74.982C134.387 75.1511 134.241 75.3484 134.264 75.5174C134.472 76.9671 133.9 78.1757 133.037 79.3499C132.224 80.4551 131.53 81.6355 130.751 82.8347C130.551 82.7001 130.333 82.5529 129.966 82.3056C128.112 86.091 126.272 89.8233 122.681 92.8886C122.627 92.8228 122.399 92.5379 122.222 92.3187C122.906 91.3137 123.477 90.4745 124.242 89.3536C122.555 90.0049 122.083 91.1696 121.542 92.2123C120.971 93.3144 120.688 94.548 120.083 95.6314C119.818 96.1042 119.063 96.3453 118.461 96.7367C117.872 98.9128 115.686 100.027 114.302 101.737C114.176 101.665 114.05 101.59 113.924 101.518C114.104 101.032 114.284 100.547 114.468 100.062C114.353 99.9585 114.24 99.8552 114.125 99.7488C108.486 106.528 100.593 110.247 92.441 113.817C92.186 112.711 91.8085 112.642 90.8256 113.212C89.2715 114.117 87.5234 114.743 85.857 115.485C85.7516 115.532 85.602 115.648 85.5442 115.617C83.6397 114.631 82.3746 116.331 80.766 116.559C80.1913 116.641 79.5995 116.694 79.0214 116.666C78.4501 116.638 77.8889 116.491 77.3244 116.397C77.3074 116.491 77.287 116.588 77.27 116.682C77.7495 116.804 78.229 116.926 78.7085 117.048C78.7085 117.139 78.7119 117.229 78.7153 117.317C77.7733 117.583 76.8313 117.849 75.8892 118.116C75.845 118.044 75.7974 117.972 75.7532 117.896C75.9573 117.671 76.1613 117.442 76.3756 117.204C75.0696 116.603 74.937 116.725 74.8418 118.629C74.2875 118.67 73.7229 118.71 73.155 118.751C73.0938 118.617 73.0359 118.482 72.9747 118.344C73.393 118.166 73.8113 117.984 74.233 117.806C74.2228 117.718 74.216 117.63 74.2058 117.543C73.5699 117.668 72.9373 117.865 72.2946 117.903C69.982 118.034 68.0333 119.797 65.5201 119.149C65.4691 118.858 65.4147 118.541 65.3603 118.225C65.2481 118.219 65.1324 118.213 65.0202 118.206C64.9182 118.739 64.8128 119.271 64.7107 119.803C64.6121 119.803 64.5101 119.803 64.4115 119.8C64.3503 119.462 64.2924 119.124 64.221 118.717C61.9833 118.56 59.8306 118.911 57.7459 119.675C57.5894 119.731 57.4296 119.8 57.2663 119.822C55.8142 120 54.362 120.204 52.9065 120.339C49.9104 120.611 46.9074 120.836 43.9079 121.103C42.5476 121.225 41.1941 121.435 39.8337 121.525C39.5277 121.544 39.1978 121.225 38.8747 121.059C39.1808 120.855 39.4562 120.583 39.7963 120.458C40.4357 120.223 41.1124 120.076 41.7722 119.894C43.5134 119.894 45.2512 119.894 46.9891 119.894C46.9891 119.709 46.9891 119.525 46.9891 119.34C45.3805 119.34 43.7753 119.327 42.1667 119.365C42.0409 119.365 41.9218 119.728 41.8028 119.922C38.0687 119.913 34.338 119.888 30.6039 119.9C27.8458 119.91 25.0912 119.988 22.3331 119.991C21.7312 119.991 21.1292 119.8 20.5273 119.694C20.5035 119.593 20.4763 119.493 20.4525 119.393C20.7993 119.177 21.1632 118.98 21.4931 118.742C21.7278 118.573 21.9182 118.35 22.1257 118.15C21.8638 117.962 21.6155 117.646 21.3333 117.611C20.228 117.48 20.0274 116.882 20.2178 116.018C19.0989 115.893 18.7487 115.514 19.4594 115.232C19.8607 115.072 20.3096 115.006 20.7075 114.665C19.8403 114.624 18.9765 114.587 17.9733 114.54C17.7556 114.149 17.4835 113.66 17.1503 113.065C21.7516 112.743 26.1726 112.433 30.5903 112.123C30.5937 111.972 30.5971 111.822 30.6039 111.672C29.3898 111.672 28.1723 111.609 26.965 111.688C25.6727 111.772 24.3974 112.048 23.1051 112.135C21.7958 112.226 20.4763 112.195 19.1601 112.204C17.8814 112.214 16.6027 112.204 15.6369 112.204C15.892 111.318 16.1504 110.598 16.2797 109.862C16.3103 109.693 15.909 109.449 15.6845 109.261C15.4533 109.067 15.1948 108.901 14.9465 108.722C15.2152 108.531 15.4601 108.303 15.7559 108.159C16.3477 107.868 16.97 107.62 17.5754 107.354C16.9598 106.6 17.3169 106.077 18.4902 105.848C19.4084 105.67 20.3164 105.394 21.187 105.072C21.4625 104.968 21.6121 104.577 21.7992 104.339C20.3402 103.105 18.7691 103.919 17.2897 103.963C17.2353 103.81 17.1843 103.653 17.1299 103.5C17.7454 103.221 18.361 102.942 19.0513 102.629C18.8983 102.426 18.7248 102.194 18.4392 101.815C18.8235 101.743 19.1159 101.649 19.4118 101.643C19.9968 101.627 20.5851 101.662 21.17 101.671C21.2959 101.671 21.4251 101.643 21.5509 101.656C23.4656 101.828 23.5846 101.781 25.5061 101.28C26.142 101.114 26.8528 101.202 27.5262 101.155C30.7569 100.923 33.9877 100.682 37.2219 100.453C37.494 100.434 37.9429 100.4 38.0177 100.522C38.5924 101.496 39.48 101.058 40.2588 100.973C41.2145 100.87 42.1565 100.569 43.1087 100.566C45.4859 100.553 47.7815 100.309 50.0192 99.4826C51.0837 99.0912 52.3114 99.0944 53.4166 98.775C54.26 98.5308 55.0286 98.058 55.8278 97.6885C55.7598 97.4787 55.6884 97.269 55.6203 97.0592C54.7973 97.1875 53.9778 97.319 53.1548 97.4412C52.9099 97.4756 52.6582 97.51 52.4134 97.4913C51.723 97.4349 51.0258 97.3848 50.3457 97.2658C49.9444 97.1938 49.5669 96.9965 49.1792 96.8588C49.203 96.7586 49.2268 96.6553 49.2506 96.5551C49.7369 96.5269 50.23 96.5394 50.7062 96.458C51.4645 96.3296 52.1991 96.0854 52.9609 95.9946C53.4812 95.932 54.0322 96.0322 54.5627 96.0979C55.0456 96.1574 55.5285 96.3703 55.9944 96.3359C57.7016 96.2106 59.4089 96.0384 61.1059 95.8255C62.3642 95.6658 63.6123 95.4122 64.8638 95.1993C64.8434 95.0271 64.8196 94.8549 64.7992 94.6827C62.2247 94.8831 59.6537 95.1649 57.0725 95.2588C54.3859 95.359 51.6924 95.2807 49.0023 95.2807C48.9751 95.1304 48.9479 94.977 48.9241 94.8267C49.7335 94.689 50.5429 94.548 51.3523 94.4103C50.3797 94.4103 49.7097 93.5806 48.4514 93.9939C47.1421 94.4259 45.5233 94.0659 44.0406 94.044C40.7043 93.9939 37.3681 93.9406 34.0285 93.8843C33.9095 93.8843 33.7395 93.8498 33.6783 93.7747C32.6818 92.4815 31.2331 93.0451 29.9373 92.9825C29.4986 92.9606 29.0599 92.8823 28.6246 92.8291C28.611 92.7101 28.5974 92.5911 28.5838 92.4722C29.247 92.3782 29.9067 92.2843 30.7672 92.1653C29.5803 91.3011 28.407 91.0475 27.1011 91.2229C26.8528 91.2573 26.5841 91.4139 26.3665 91.3638C24.8599 91.0131 23.3636 90.6217 21.5951 90.1739C23.1493 89.5477 24.6355 89.3755 26.0638 89.7513C26.4719 90.0268 26.8902 90.5528 27.2915 90.5434C30.172 90.4808 30.5325 90.0268 30.5937 89.0687C32.3689 88.646 34.1136 88.1356 35.9024 87.8444C36.9566 87.6722 38.0755 87.8632 39.1672 87.8757C40.9322 87.8945 42.704 87.9853 44.4657 87.8914C47.6624 87.7192 50.849 87.3998 54.0458 87.212C55.9502 87.0992 57.8649 87.1243 59.7727 87.0805C60.174 87.0711 60.5753 87.0335 60.9766 87.0084C60.997 86.8989 61.014 86.7893 61.0345 86.6797C60.6502 86.6045 60.2659 86.4699 59.8816 86.4668C56.3583 86.4511 52.8317 86.5075 49.3084 86.4292C48.0535 86.401 46.8088 86.0597 45.5573 85.8593C45.5641 85.731 45.5709 85.6057 45.5777 85.4773C46.0402 85.421 46.5027 85.3239 46.9653 85.3177C49.7233 85.2801 52.4814 85.3114 55.2395 85.2237C58.8613 85.111 62.4832 84.9576 66.0949 84.7196C67.2818 84.6414 68.4516 84.2688 69.6113 83.9776C70.7268 83.6989 71.8321 83.3827 72.9203 83.0257C74.216 82.603 75.5117 82.1647 76.7666 81.6512C77.8821 81.1909 78.9466 80.6211 80.028 80.0888C80.8816 79.6692 81.7965 79.3248 82.5582 78.7925C84.5817 77.3773 86.4386 75.746 88.5369 74.4466C91.397 72.6744 93.2708 70.1915 95.0529 67.599C96.2023 65.9238 97.396 64.2644 98.3959 62.511C98.8822 61.6593 99.1441 60.6261 99.2019 59.6617C99.3209 57.6672 99.4875 55.6289 98.5863 53.7221C98.2292 52.9644 97.8109 52.2035 97.2668 51.5554C95.5358 49.5045 93.5701 47.7292 90.8732 46.7022C88.7035 45.8756 86.6528 44.786 84.5001 43.9156C83.5717 43.5399 82.4868 43.5085 81.5346 43.1766C78.9908 42.2968 76.4844 41.3199 73.944 40.4213C73.1482 40.1395 72.3014 39.9861 71.4784 39.7607C69.9786 39.3505 68.4584 38.981 66.9859 38.4957C65.2651 37.929 63.5749 37.2777 61.8949 36.6077C61.599 36.4887 61.4289 36.1067 61.2759 35.9314C61.4664 35.4398 61.6364 35.0108 61.837 34.4973C61.2725 34.4065 60.9086 34.3439 60.4019 34.2625C60.5787 33.9776 60.7216 33.7459 60.7522 33.6958C59.9428 32.6156 59.1844 31.6074 58.426 30.5992C58.4498 30.4864 58.477 30.3706 58.5008 30.2579C59.9666 30.4614 61.4324 30.6649 62.8947 30.8653C62.9185 30.7369 62.9423 30.6054 62.9661 30.477C62.1941 30.2015 61.4221 29.9322 60.6502 29.6536C60.0278 29.4313 59.5075 29.2058 59.7489 28.3855C59.8374 28.088 59.5619 27.5808 59.283 27.3366C58.4668 26.6321 57.5656 26.0153 56.5556 25.2607C57.654 24.8912 58.6845 24.5437 59.7047 24.1993C59.4225 23.8173 59.1164 23.404 58.7831 22.95C61.0038 21.8854 63.3062 22.9594 65.7922 22.568C63.966 21.303 62.6022 19.9253 60.4461 19.7156C60.1332 19.6843 59.8714 19.2052 59.5857 18.9328C59.6775 18.8577 59.7727 18.7825 59.8646 18.7105C61.1943 18.8138 62.7213 19.3461 63.8027 18.9171C65.4351 18.2721 66.2377 19.3054 67.411 19.6404C68.3802 19.9191 69.4209 19.9942 70.3663 20.1508C70.55 17.8463 67.8225 17.8933 66.605 16.334C68.115 16.6346 69.3631 16.8851 71.0363 17.217C70.4037 16.4342 69.9684 15.8957 69.4651 15.2726C69.5603 15.2006 69.7882 15.0315 70.1725 14.7434C68.6387 13.7196 67.1525 12.7302 65.5711 11.675C66.4656 11.4683 67.2886 11.4339 68.1966 11.8785C68.9652 12.2542 69.846 12.4014 70.941 11.9317C69.982 11.4214 69.3461 11.0832 68.7101 10.7451C68.7271 10.6323 68.7441 10.5196 68.7611 10.4038C71.0023 10.6073 73.2468 10.8139 75.6546 11.0331C75.6852 10.4445 75.709 10.0093 75.7294 9.61474C75.0798 9.65545 74.5221 9.68676 73.9678 9.7212L73.9304 9.40496C74.5833 9.15761 75.2193 8.76309 75.8892 8.69734C77.0999 8.57836 78.1678 8.6128 79.1778 9.72433C79.7866 10.3944 81.4088 10.2848 82.5752 10.5259C82.6331 10.3787 82.6875 10.2316 82.7453 10.0813C81.9529 9.80261 81.1571 9.52081 80.3647 9.24215C80.4055 9.09499 80.4497 8.9447 80.4905 8.79754C80.9463 8.91652 81.402 9.03863 81.9563 9.18266C82.6841 7.88326 83.7349 7.70166 85.0715 8.522C85.3197 8.67229 85.738 8.57523 86.0713 8.6222C87.0405 8.75996 88.0098 8.91025 89.1184 8.91652C88.7273 8.65038 88.3737 8.24647 87.9349 8.13688C86.0611 7.67348 83.9968 7.59208 82.3066 6.81244C79.824 5.6696 77.1305 5.49426 74.233 4.78038C76.0763 4.0978 77.8617 5.09348 79.3819 4.17608C80.5144 4.43909 81.725 4.72402 82.9391 5.00581C83.0004 4.90249 83.0582 4.79916 83.1194 4.69584C82.0515 3.94438 80.9837 3.19606 79.9056 2.44147C81.8237 1.78708 82.7385 2.0313 82.531 3.21484C85.0646 3.37453 87.5949 3.75026 89.9924 2.27552C89.1048 2.33501 88.2546 2.38824 87.1494 2.46339C87.4316 1.84344 87.5507 0.94169 88.0948 0.584748C88.4995 0.318607 89.4551 0.741301 90.1557 0.885331C90.4073 0.938559 90.727 1.22035 90.8699 1.15147C91.8901 0.650501 92.271 1.31742 92.7131 1.9405C92.2302 2.3037 91.7405 2.67317 91.2541 3.0395L91.4106 3.38392C92.0295 3.22737 92.6485 3.07395 93.3592 2.89548C93.4783 3.01759 93.6619 3.21484 93.8524 3.40271C94.4951 4.03205 95.0393 4.21679 95.5766 3.24929C95.8827 2.69822 96.403 2.24734 96.9607 1.59608C97.2532 2.19725 97.4028 2.50096 97.5525 2.80467C97.6103 2.71387 97.6681 2.62307 97.7259 2.52914C98.27 2.77963 99.1577 2.94244 99.2733 3.30878C99.4093 3.74399 98.8856 4.35768 98.6475 4.89623C98.7496 4.94945 98.855 5.00581 98.957 5.05904C99.3515 4.53929 99.7494 4.01953 100.294 3.30565C100.865 4.10094 101.44 4.90562 102.174 5.93261C102.341 5.27822 102.429 4.9338 102.545 4.48606C103.473 5.13106 104.249 5.68526 105.252 4.62069C105.595 4.25749 106.296 4.68958 106.242 5.36902C106.163 6.3146 106.357 6.91263 107.636 6.94394C108.2 6.9596 108.724 7.5545 109.309 7.80499C109.704 7.97407 110.173 7.99285 110.608 8.08052C110.663 7.97093 110.717 7.86135 110.771 7.75176C110.336 7.34785 109.901 6.94394 109.398 6.47742C109.602 6.41479 109.867 6.23945 110.006 6.30208C110.754 6.64962 111.458 7.07545 112.2 7.43865C113.438 8.04608 114.825 8.46877 115.917 9.24528C118.692 11.2179 121.753 12.8679 124.109 15.3258C124.351 15.5763 124.807 15.6483 125.283 15.855C125.327 16.1274 125.388 16.4968 125.453 16.8694C125.555 16.788 125.66 16.7066 125.762 16.6252C126.851 17.6177 127.969 18.5852 129.024 19.6091C130.255 20.8052 131.469 22.0169 132.608 23.285C133.261 24.0114 133.747 24.8662 134.312 25.6615L134.339 25.6364L134.309 25.6427ZM60.3135 113.313C59.1878 113.532 58.0621 113.738 56.9399 113.979C56.1747 114.142 55.4367 114.44 54.6647 114.531C50.9578 114.969 47.2441 115.357 43.5338 115.777C43.3332 115.799 43.1495 115.946 42.8367 116.09C43.8399 116.4 44.6799 116.898 45.5029 116.869C47.3802 116.81 49.2676 116.594 51.1109 116.256C53.7465 115.774 56.3515 115.15 58.9532 114.537C59.6061 114.383 60.4801 114.283 60.2795 113.297C61.4528 113.159 62.626 113.034 63.7925 112.874C63.9456 112.852 64.0646 112.649 64.2006 112.527C64.0306 112.401 63.8741 112.188 63.6905 112.17C62.3676 112.041 61.2215 112.395 60.3067 113.313H60.3135ZM77.6169 112.245C78.4194 113.018 78.984 112.956 79.875 112.489C82.0787 111.337 84.3947 110.363 86.646 109.277C87.9213 108.66 89.1524 107.965 90.4039 107.307C90.3801 107.207 90.3563 107.11 90.3325 107.01C89.9924 107.01 89.6013 106.906 89.3225 107.025C87.333 107.89 85.3809 108.816 83.3948 109.684C81.504 110.51 79.6982 111.446 77.5488 111.791C75.8246 112.066 74.2126 112.918 72.5496 113.513C72.587 113.66 72.6244 113.804 72.6585 113.951C73.0802 113.929 73.5393 113.995 73.9168 113.867C75.1002 113.466 76.1035 112.26 77.6203 113.441V112.242L77.6169 112.245ZM68.0946 115.551L68.0435 115.176C67.4586 115.216 66.8499 115.166 66.2989 115.31C64.4047 115.805 62.541 116.387 60.6502 116.891C59.5109 117.195 58.3342 117.386 57.2017 117.705C56.9025 117.79 56.7018 118.172 56.4569 118.419L56.7188 118.873C60.6434 118.172 64.6699 117.784 68.0946 115.551ZM128.061 83.7302C127.942 83.6864 127.82 83.6425 127.701 83.6018C126.701 84.4222 126.47 85.0672 126.966 86.0316C127.367 85.1924 127.714 84.4629 128.065 83.7333L128.061 83.7302ZM94.8216 111.337C96.2261 112.129 96.5322 110.942 97.2872 110.767C97.2362 110.657 97.1886 110.545 97.1376 110.435C96.437 110.707 95.7398 110.98 94.8216 111.337Z" fill="white"/>
<path d="M76.4573 143.214V148.449C76.9538 148.502 77.4844 148.562 78.0489 148.621C78.474 149.724 77.7632 150.046 76.8484 150.102C75.7907 150.168 74.7263 150.131 73.6652 150.112C72.4477 150.09 72.2777 149.839 72.594 148.64C73.748 148.475 74.325 147.82 74.325 146.674C74.325 145.462 74.2808 144.25 74.342 143.042C74.376 142.394 74.0597 142.15 73.4646 141.984C72.9341 141.833 72.4273 141.611 71.9104 141.417C71.8798 141.27 71.8458 141.126 71.8152 140.978C72.3457 140.766 72.8626 140.396 73.4068 140.368C74.9303 140.283 76.4675 140.268 77.9843 140.377C78.4944 140.415 79.1984 140.813 79.416 141.223C80.256 142.804 80.9362 144.457 81.7524 146.254C82.81 144.21 83.7895 142.319 84.8165 140.333C86.6258 140.333 88.4894 140.293 90.3497 140.368C90.7306 140.384 91.0876 140.831 91.4583 141.079C91.1693 141.37 90.887 141.899 90.5843 141.908C89.5437 141.943 89.5879 142.525 89.5913 143.183C89.6049 144.93 89.5947 146.68 89.5947 148.427C89.7069 148.362 89.8225 148.296 89.9348 148.227C90.4347 148.571 91.3835 148.953 91.3563 149.254C91.2679 150.181 90.3191 150.131 89.5063 150.121C88.2752 150.106 87.0441 150.121 85.813 150.118C84.4594 150.112 84.2826 149.896 84.6261 148.584C84.99 148.549 85.3879 148.512 85.7824 148.471V143.568L85.5749 143.515C85.2518 144.091 84.9015 144.654 84.6159 145.246C83.9459 146.627 83.3712 148.052 82.6128 149.389C82.4019 149.758 81.681 150.084 81.2049 150.071C80.6573 150.059 79.8275 149.777 79.6269 149.392C78.5828 147.372 77.702 145.284 76.7634 143.217C76.658 143.217 76.5559 143.217 76.4505 143.217L76.4573 143.214Z" fill="white"/>
<path d="M12.6374 140.311V144.106C11.8926 143.699 11.2736 143.515 10.9029 143.129C9.22973 141.398 5.8085 140.869 3.62518 142.093C3.42113 142.209 3.14226 142.525 3.18987 142.638C3.2953 142.876 3.57417 143.176 3.82243 143.214C5.44462 143.452 7.08381 143.59 8.706 143.837C9.75346 143.997 10.8689 144.122 11.7871 144.56C13.0455 145.161 13.61 146.251 13.3481 147.629C13.1373 148.75 12.3007 149.263 11.2838 149.733C9.14811 150.722 6.90357 150.209 4.70324 150.215C4.08089 150.215 3.46194 149.761 2.82939 149.733C2.38728 149.714 1.93837 150.096 1.46906 150.231C1.25481 150.293 0.98274 150.19 0.65286 150.152V145.885C1.40444 146.326 2.08461 146.53 2.41789 146.962C3.15586 147.914 3.94145 148.596 5.31539 148.552C6.83895 148.502 8.36592 148.54 9.85208 148.54C10.6921 147.222 10.4914 146.887 8.99847 146.755C7.07701 146.586 5.13854 146.451 3.25109 146.104C1.73772 145.825 0.52703 144.986 0.0441135 143.527C-0.26196 142.607 1.12557 140.687 2.43829 140.409C3.88704 140.099 5.3834 139.895 6.86616 139.82C7.62114 139.782 8.38973 140.227 9.16511 140.286C10.267 140.374 11.379 140.308 12.6408 140.308L12.6374 140.311Z" fill="white"/>
<path d="M34.1749 142.209C33.3587 141.883 31.7331 142.102 32.5697 140.343C33.9981 140.343 35.474 140.324 36.9466 140.362C37.1812 140.368 37.4295 140.584 37.6335 140.744C39.6366 142.328 41.6329 143.918 43.7516 145.603V142.109C43.4251 142.043 42.9592 142.052 42.6497 141.855C42.3573 141.67 42.0648 141.257 42.0818 140.963C42.0954 140.74 42.5987 140.377 42.8946 140.368C44.6256 140.312 46.3566 140.34 48.1013 140.34C48.4685 141.254 48.4413 141.921 47.2409 141.952C46.4553 141.974 46.377 142.356 46.3838 142.938C46.4077 144.93 46.4008 146.918 46.394 148.909C46.3906 150.08 45.6901 150.585 44.6392 149.961C43.2245 149.119 41.9764 148.033 40.6807 147.028C39.3135 145.969 37.9736 144.883 36.3276 143.574C36.3276 145.287 36.28 146.636 36.3752 147.973C36.3888 148.18 37.0486 148.352 37.4159 148.527C37.8648 148.74 38.3205 148.941 38.7762 149.147C38.7524 149.316 38.7286 149.486 38.7014 149.655C38.062 149.808 37.4295 150.046 36.7833 150.096C35.8141 150.171 34.8347 150.087 33.8586 150.127C32.7091 150.174 32.148 149.805 32.4983 148.615C33.0084 148.559 33.5423 148.502 34.1783 148.433V142.206L34.1749 142.209Z" fill="white"/>
<path d="M123.443 140.44V143.978C122.858 143.749 122.317 143.696 122.093 143.424C120.413 141.364 118.049 141.354 115.635 141.561C115.128 141.605 114.631 141.921 114.176 142.178C114.026 142.262 113.9 142.597 113.965 142.741C114.06 142.948 114.322 143.192 114.543 143.223C116.25 143.458 117.981 143.558 119.668 143.878C120.845 144.1 122.018 144.501 123.083 145.018C124.273 145.594 124.361 146.686 124.116 147.801C123.888 148.828 123.018 149.276 122.12 149.72C120.052 150.744 117.835 150.19 115.676 150.243C115.325 150.253 114.975 149.962 114.614 149.943C114.104 149.915 113.581 149.993 113.067 150.052C112.55 150.112 112.037 150.199 111.404 150.29V146.261C112.227 146.17 112.795 146.079 113.261 146.996C113.683 147.823 114.516 148.578 115.778 148.543C116.961 148.512 118.158 148.64 119.335 148.553C120.069 148.496 120.78 148.171 121.505 147.967C121.505 147.764 121.505 147.557 121.505 147.353C120.821 147.147 120.154 146.874 119.454 146.743C117.335 146.348 115.182 146.085 113.084 145.616C111.754 145.318 110.802 144.022 110.921 143.026C111.067 141.802 112.438 140.443 113.842 140.305C114.618 140.23 115.386 139.782 116.135 139.826C117.835 139.926 119.518 140.252 121.215 140.431C121.923 140.506 122.647 140.443 123.443 140.443V140.44Z" fill="white"/>
<path d="M31.1175 144.858C30.9339 146.89 29.645 148.922 27.5875 149.745C25.1423 150.722 22.6971 150.606 20.2281 150.215C17.7591 149.821 15.3445 147.422 15.4227 145.277C15.4874 143.499 16.3954 141.905 18.2046 141.013C20.1703 140.042 22.3026 139.576 24.5472 139.804C26.9345 140.049 28.9376 141.041 30.3592 142.81C30.8625 143.436 30.9407 144.354 31.1141 144.858H31.1175ZM27.329 145.215C27.329 142.873 25.8191 141.57 23.2548 141.467C20.9933 141.376 18.9528 143.18 19.0378 145.137C19.1262 147.197 20.9967 148.963 23.2718 148.96C25.768 148.956 27.329 147.513 27.329 145.215Z" fill="white"/>
<path d="M94.8013 142.096C94.3898 142.034 94.0769 142.071 93.9103 141.943C93.5396 141.658 93.2437 141.288 92.9172 140.957C93.2981 140.75 93.6688 140.38 94.0565 140.368C95.7501 140.302 97.4505 140.327 99.1475 140.349C99.6883 140.355 100.413 140.127 100.457 141.016C100.498 141.855 99.8821 141.943 99.2054 141.993C99.0455 142.005 98.8891 142.065 98.6068 142.131C98.6068 143.969 98.5116 145.8 98.668 147.613C98.7122 148.111 99.4196 148.681 99.9705 149C101.171 149.695 103.953 148.972 104.694 147.839C104.858 147.591 104.932 147.259 104.936 146.968C104.96 145.409 104.946 143.846 104.946 142.237C104.12 141.855 102.429 142.153 103.242 140.34C104.861 140.34 106.548 140.299 108.228 140.371C108.578 140.387 108.908 140.812 109.248 141.05C108.973 141.348 108.704 141.89 108.418 141.899C107.388 141.924 107.401 142.459 107.429 143.145C107.473 144.275 107.476 145.409 107.449 146.542C107.401 148.437 106.089 150.303 103.681 150.306C101.872 150.306 100.042 150.425 98.2531 150.246C96.3759 150.059 94.8931 148.831 94.8081 146.874C94.7435 145.318 94.7945 143.762 94.7945 142.099L94.8013 142.096Z" fill="white"/>
<path d="M147.902 140.694C148.521 140.55 149.184 140.399 150 140.211V143.715C148.929 144.313 148.245 143.706 147.667 142.967C146.191 141.082 142.147 140.932 140.45 142.632C139.44 143.64 138.998 144.874 139.461 146.07C139.94 147.306 140.709 148.493 142.535 148.621C144.103 148.731 145.626 148.828 146.987 147.998C147.48 147.698 147.97 147.25 148.201 146.765C148.555 146.023 149.187 146.107 149.66 146.317C150.303 146.602 149.854 146.984 149.673 147.479C148.68 150.256 145.062 150.556 142.702 150.425C141.029 150.334 139.508 149.936 138.07 149.054C134.89 147.093 135.438 142.19 138.869 140.863C140.665 140.168 142.443 139.591 144.372 139.817C145.592 139.958 146.769 140.405 147.898 140.697L147.902 140.694Z" fill="white"/>
<path d="M53.6344 148.578C54.199 148.543 54.6955 148.515 55.4471 148.471C55.1512 144.573 52.3353 142.751 48.7236 141.21C49.2406 140.847 49.5908 140.387 49.9581 140.377C52.1108 140.308 54.267 140.343 56.7768 140.343C55.6681 142.052 56.1714 143.308 57.695 144.451C58.3343 143.796 59.0179 143.095 59.6471 142.45C59.4226 141.814 59.1948 141.173 58.9227 140.393H64.7211C64.9966 141.36 64.9592 142.021 63.5852 142.002C63.1873 141.996 62.6772 142.231 62.4051 142.51C61.208 143.734 59.994 144.955 58.9533 146.289C58.1473 147.319 58.6914 148.252 59.9871 148.559C60.3136 148.637 60.5517 149.028 60.8306 149.276C60.5279 149.554 60.2388 150.059 59.9225 150.071C58.1031 150.146 56.2735 150.165 54.454 150.077C53.6072 150.037 53.2059 149.492 53.6378 148.581L53.6344 148.578Z" fill="white"/>
<path d="M126.776 148.618C127.303 148.565 127.837 148.512 128.5 148.446C128.5 146.473 128.527 144.529 128.463 142.588C128.456 142.375 127.919 142.193 127.664 141.962C127.313 141.645 127 141.298 126.67 140.963C127.048 140.753 127.419 140.377 127.806 140.362C129.459 140.296 131.119 140.286 132.772 140.365C133.254 140.387 133.717 140.769 134.19 140.985C133.802 141.31 133.407 141.633 133.023 141.965C132.761 142.193 132.295 142.425 132.289 142.666C132.227 144.57 132.255 146.477 132.255 148.44C132.612 148.477 132.884 148.443 133.088 148.537C133.476 148.712 133.826 148.963 134.193 149.179C133.873 149.482 133.564 150.037 133.227 150.049C131.323 150.134 129.408 150.156 127.504 150.055C126.708 150.011 126.449 149.388 126.776 148.615V148.618Z" fill="white"/>
<path d="M103.626 110.219C106.772 107.67 109.915 105.122 113.383 102.31C113.023 102.967 112.88 103.387 112.605 103.713C110.35 106.402 107.452 108.425 104.443 110.328C104.286 110.429 104.065 110.438 103.871 110.491C103.79 110.4 103.708 110.31 103.623 110.219H103.626Z" fill="white"/>
<path d="M48.1693 95.6969H43.7925C44.8603 94.2253 46.3057 94.7513 47.5436 94.7075C47.8463 94.6981 48.1693 95.1678 48.4822 95.4182C48.3802 95.5122 48.2748 95.603 48.1727 95.6969H48.1693Z" fill="white"/>
<path d="M134.281 25.6675C135.785 26.0119 136.084 27.3051 136.924 28.2757C135.761 28.5199 134.387 27.0107 134.309 25.6425L134.281 25.6675Z" fill="white"/>
<path d="M60.3477 120.273C61.3577 119.299 62.3303 118.939 63.6056 119.48C62.786 120.673 61.6672 120.461 60.3477 120.273Z" fill="white"/>
<path d="M55.9536 32.1958C57.7629 31.8388 58.7015 32.5903 59.5721 33.4827L59.385 33.8646C58.341 33.3574 57.2969 32.8502 55.9536 32.1958Z" fill="white"/>
<path d="M143.137 52.5039C143.1 51.7556 143.062 51.0072 143.018 50.1212C143.946 50.6503 144.032 51.3673 143.498 52.4882C143.379 52.4945 143.256 52.4976 143.137 52.5039Z" fill="white"/>
<path d="M86.5338 2.38803C84.8572 3.05808 84.2382 2.90465 83.9866 1.66162C84.8572 1.90898 85.6088 2.12502 86.5338 2.38803Z" fill="white"/>
</g>
<defs>
<clipPath id="clip0_1326_202">
<rect width="150" height="150" fill="white" transform="translate(0 0.5)"/>
</clipPath>
</defs>
</svg>
