<svg width="93" height="101" viewBox="0 0 93 101" fill="none" xmlns="http://www.w3.org/2000/svg">
<g clip-path="url(#clip0_1278_184)">
<path d="M82.8759 17.4234H81.9582C82.5589 18.3119 83.1012 19.1087 83.6331 19.9097C83.7708 20.1162 83.8438 20.3727 84.0106 20.5459C84.3089 20.8587 84.3277 21.3385 84.9805 21.4782C85.3956 21.5679 85.6772 22.4648 85.9379 23.0364C86.1715 23.5516 86.2946 24.1147 86.6471 24.6571L86.8077 23.685C86.8807 23.6684 86.9558 23.6538 87.0288 23.6371C87.2562 24.4714 87.4856 25.3057 87.6692 25.9753C87.4001 26.3674 87.2082 26.6449 86.9224 27.062C87.3876 27.1037 87.6045 27.1246 88.0217 27.1621C87.2145 29.0957 87.6504 30.8603 88.8477 32.6333C88.4013 32.5832 88.2136 32.5645 87.9111 32.5311C87.9111 33.5302 87.9633 34.4876 87.8965 35.4387C87.8214 36.5401 87.3897 37.6768 87.567 38.7198C87.8131 40.1652 87.0101 41.3834 87.0726 42.7579C87.0956 43.2398 86.8411 43.7425 86.6742 44.2201C86.4865 44.7562 86.036 45.2755 86.7014 45.7991C86.7556 45.8408 86.7493 46.0098 86.716 46.0995C86.3697 47.0527 86.0193 48.0059 85.6543 48.9508C85.5187 49.3033 85.333 49.6349 85.1745 49.9791C85.1203 50.0959 85.1182 50.2774 85.0306 50.3295C84.3131 50.7655 83.7645 51.3516 83.4975 52.3465C82.853 51.3745 83.5559 50.8739 83.7728 50.3274C84.1441 49.3846 84.6885 48.5128 85.1286 47.5971C85.2058 47.4365 85.1391 47.207 85.1391 46.8274C84.699 47.424 84.3256 47.862 84.0315 48.3459C83.6477 48.9737 83.3265 49.6391 82.9823 50.292C82.9239 50.4046 82.8342 50.536 82.8488 50.6487C82.976 51.6144 82.6256 52.4195 82.0958 53.2017C81.5973 53.938 81.1718 54.7244 80.6941 55.5233C80.5711 55.4336 80.4376 55.3355 80.2123 55.1707C79.0755 57.6925 77.9471 60.1788 75.7445 62.2209C75.7111 62.1771 75.5713 61.9873 75.4629 61.8413C75.8821 61.1717 76.2325 60.6127 76.7019 59.866C75.6673 60.2998 75.3773 61.0758 75.0457 61.7703C74.6953 62.5046 74.5222 63.3264 74.1509 64.0481C73.9882 64.363 73.5251 64.5236 73.1559 64.7844C72.7951 66.234 71.4539 66.9766 70.605 68.1155C70.5278 68.0675 70.4506 68.0174 70.3734 67.9694C70.484 67.6461 70.5945 67.3228 70.7072 66.9995C70.6362 66.9307 70.5674 66.8619 70.4965 66.7909C67.0382 71.3068 62.1969 73.7848 57.1972 76.1626C57.0408 75.4263 56.8092 75.3804 56.2064 75.76C55.2532 76.3629 54.1811 76.78 53.159 77.2744C53.0944 77.3056 53.0026 77.3828 52.9671 77.362C51.7991 76.7049 51.0231 77.8375 50.0365 77.9898C49.684 78.044 49.3211 78.0795 48.9665 78.0607C48.6161 78.042 48.2719 77.9439 47.9257 77.8813C47.9152 77.9439 47.9027 78.0086 47.8923 78.0712C48.1864 78.1525 48.4805 78.2338 48.7746 78.3152C48.7746 78.3757 48.7767 78.4362 48.7788 78.4946C48.201 78.6719 47.6232 78.8492 47.0454 79.0265C47.0183 78.9785 46.9891 78.9305 46.962 78.8805C47.0871 78.7303 47.2123 78.578 47.3437 78.4195C46.5427 78.019 46.4614 78.1004 46.403 79.3685C46.063 79.3957 45.7168 79.4228 45.3684 79.4499C45.3309 79.3602 45.2954 79.2705 45.2579 79.1787C45.5144 79.0598 45.771 78.9389 46.0296 78.82C46.0234 78.7616 46.0192 78.7032 46.0129 78.6448C45.6229 78.7282 45.2349 78.8596 44.8407 78.8846C43.4223 78.9722 42.2271 80.1466 40.6857 79.7148C40.6544 79.5208 40.6211 79.3101 40.5877 79.0995C40.5188 79.0953 40.4479 79.0911 40.3791 79.087C40.3165 79.4415 40.2519 79.7961 40.1893 80.1507C40.1288 80.1507 40.0662 80.1507 40.0057 80.1486C39.9682 79.9234 39.9327 79.6981 39.8889 79.4269C38.5164 79.3227 37.1961 79.5563 35.9175 80.0652C35.8215 80.1028 35.7235 80.1486 35.6234 80.1632C34.7327 80.2821 33.8421 80.4177 32.9493 80.5074C31.1117 80.6889 29.2699 80.8391 27.4302 81.0164C26.5959 81.0977 25.7657 81.2375 24.9314 81.2979C24.7437 81.3105 24.5413 81.0977 24.3432 80.9872C24.5309 80.8516 24.6999 80.6701 24.9084 80.5867C25.3006 80.4302 25.7157 80.3322 26.1203 80.2112C27.1883 80.2112 28.2541 80.2112 29.32 80.2112C29.32 80.0882 29.32 79.9651 29.32 79.842C28.3334 79.842 27.3489 79.8337 26.3623 79.8587C26.2851 79.8587 26.2121 80.1007 26.1391 80.23C23.8488 80.2237 21.5607 80.207 19.2704 80.2154C17.5788 80.2216 15.8893 80.2738 14.1977 80.2759C13.8285 80.2759 13.4593 80.1486 13.0901 80.0777C13.0755 80.011 13.0588 79.9442 13.0442 79.8775C13.257 79.7336 13.4801 79.6022 13.6825 79.4436C13.8264 79.331 13.9432 79.1829 14.0704 79.0494C13.9098 78.9243 13.7576 78.7136 13.5844 78.6906C12.9065 78.603 12.7835 78.2046 12.9003 77.629C12.214 77.5455 11.9992 77.2931 12.4351 77.1054C12.6813 76.999 12.9566 76.9552 13.2006 76.7279C12.6688 76.7008 12.139 76.6757 11.5236 76.6444C11.3901 76.3837 11.2233 76.0583 11.0189 75.662C13.841 75.4472 16.5526 75.2407 19.2621 75.0342C19.2642 74.9341 19.2663 74.8339 19.2704 74.7338C18.5258 74.7338 17.7791 74.6921 17.0386 74.7442C16.246 74.8006 15.4638 74.9841 14.6712 75.0425C13.8681 75.103 13.0588 75.0822 12.2516 75.0884C11.4673 75.0947 10.683 75.0884 10.0907 75.0884C10.2471 74.4981 10.4056 74.0184 10.4849 73.5282C10.5037 73.4156 10.2575 73.2529 10.1199 73.1277C9.97803 72.9984 9.8195 72.8879 9.66724 72.769C9.83202 72.6417 9.9822 72.4895 10.1637 72.3935C10.5266 72.1995 10.9083 72.0347 11.2796 71.8574C10.9021 71.3548 11.1211 71.0064 11.8407 70.8542C12.4039 70.7353 12.9608 70.5517 13.4947 70.3369C13.6637 70.268 13.7555 70.0073 13.8702 69.8488C12.9754 69.027 12.0117 69.5693 11.1044 69.5985C11.071 69.4963 11.0397 69.392 11.0063 69.2898C11.3839 69.1041 11.7614 68.9185 12.1848 68.7099C12.091 68.5743 11.9846 68.42 11.8094 68.1676C12.0451 68.1196 12.2245 68.0571 12.4059 68.0529C12.7647 68.0424 13.1256 68.0654 13.4843 68.0717C13.5615 68.0717 13.6408 68.0529 13.7179 68.0612C14.8923 68.1759 14.9653 68.1447 16.1438 67.8109C16.5338 67.7004 16.9698 67.7588 17.3827 67.7275C19.3643 67.5731 21.3458 67.4125 23.3295 67.2603C23.4963 67.2477 23.7717 67.2248 23.8176 67.3062C24.1701 67.9548 24.7145 67.6628 25.1921 67.6065C25.7782 67.5377 26.356 67.3374 26.94 67.3354C28.398 67.327 29.806 67.1643 31.1785 66.6137C31.8313 66.3529 32.5843 66.355 33.2622 66.1423C33.7795 65.9796 34.2509 65.6646 34.7411 65.4185C34.6994 65.2787 34.6556 65.139 34.6138 64.9992C34.1091 65.0847 33.6064 65.1723 33.1016 65.2537C32.9514 65.2766 32.7971 65.2996 32.6469 65.2871C32.2235 65.2495 31.7959 65.2161 31.3787 65.1369C31.1326 65.0889 30.9011 64.9575 30.6633 64.8657C30.6779 64.799 30.6925 64.7301 30.7071 64.6634C31.0053 64.6446 31.3078 64.653 31.5998 64.5987C32.065 64.5132 32.5155 64.3505 32.9827 64.29C33.3019 64.2483 33.6398 64.3151 33.9651 64.3589C34.2613 64.3985 34.5575 64.5403 34.8433 64.5174C35.8904 64.4339 36.9375 64.3192 37.9783 64.1774C38.7501 64.071 39.5156 63.9021 40.2831 63.7602C40.2706 63.6455 40.256 63.5308 40.2435 63.4161C38.6645 63.5496 37.0876 63.7373 35.5045 63.7999C33.8567 63.8666 32.2047 63.8145 30.5548 63.8145C30.5381 63.7143 30.5214 63.6121 30.5068 63.512C31.0033 63.4202 31.4997 63.3264 31.9961 63.2346C31.3996 63.2346 30.9887 62.6819 30.2169 62.9572C29.4139 63.245 28.421 63.0052 27.5116 62.9906C25.4654 62.9572 23.4192 62.9217 21.3709 62.8842C21.2979 62.8842 21.1936 62.8612 21.156 62.8112C20.5449 61.9497 19.6563 62.3252 18.8616 62.2835C18.5925 62.2689 18.3235 62.2167 18.0565 62.1812C18.0481 62.102 18.0398 62.0227 18.0314 61.9435C18.4382 61.8809 18.8428 61.8183 19.3705 61.7391C18.6426 61.1634 17.923 60.9944 17.122 61.1112C16.9698 61.1342 16.805 61.2385 16.6715 61.2051C15.7474 60.9715 14.8297 60.7107 13.745 60.4125C14.6983 59.9953 15.6098 59.8806 16.4858 60.1309C16.7361 60.3144 16.9927 60.6648 17.2388 60.6586C19.0055 60.6169 19.2266 60.3144 19.2642 59.6762C20.353 59.3946 21.423 59.0546 22.5202 58.8606C23.1668 58.7459 23.853 58.8731 24.5226 58.8815C25.6051 58.894 26.6918 58.9545 27.7723 58.8919C29.733 58.7772 31.6874 58.5644 33.6481 58.4393C34.8162 58.3642 35.9905 58.3809 37.1606 58.3516C37.4068 58.3454 37.6529 58.3204 37.899 58.3037C37.9116 58.2307 37.922 58.1577 37.9345 58.0847C37.6988 58.0346 37.4631 57.9449 37.2274 57.9428C35.0665 57.9324 32.9035 57.9699 30.7425 57.9178C29.9729 57.899 29.2094 57.6717 28.4419 57.5382C28.446 57.4527 28.4502 57.3692 28.4544 57.2837C28.738 57.2462 29.0217 57.1815 29.3054 57.1773C30.997 57.1523 32.6886 57.1732 34.3802 57.1148C36.6016 57.0397 38.8231 56.9375 41.0382 56.7789C41.7662 56.7268 42.4837 56.4786 43.195 56.2846C43.8791 56.0989 44.557 55.8883 45.2245 55.6505C46.0192 55.3689 46.8139 55.0769 47.5836 54.7348C48.2677 54.4282 48.9206 54.0486 49.5839 53.694C50.1074 53.4145 50.6685 53.185 51.1358 52.8304C52.3768 51.8876 53.5157 50.8009 54.8027 49.9353C56.5568 48.7547 57.7061 47.1007 58.7991 45.3736C59.5041 44.2577 60.2363 43.1522 60.8495 41.9841C61.1478 41.4167 61.3084 40.7284 61.3438 40.086C61.4168 38.7573 61.5191 37.3994 60.9663 36.1292C60.7473 35.6244 60.4907 35.1175 60.157 34.6858C59.0953 33.3195 57.8897 32.1369 56.2356 31.4527C54.9049 30.902 53.6471 30.1762 52.3268 29.5963C51.7573 29.346 51.092 29.3252 50.5079 29.1041C48.9477 28.5179 47.4105 27.8672 45.8523 27.2685C45.3642 27.0808 44.8449 26.9786 44.3401 26.8284C43.4202 26.5552 42.4879 26.309 41.5847 25.9857C40.5293 25.6082 39.4926 25.1743 38.4622 24.728C38.2807 24.6487 38.1765 24.3942 38.0826 24.2774C38.1994 23.95 38.3037 23.6642 38.4268 23.3221C38.0805 23.2616 37.8573 23.2199 37.5465 23.1657C37.655 22.9759 37.7426 22.8215 37.7614 22.7881C37.2649 22.0685 36.7998 21.3969 36.3347 20.7252C36.3493 20.6502 36.3659 20.573 36.3805 20.4979C37.2795 20.6335 38.1785 20.7691 39.0754 20.9025C39.09 20.817 39.1046 20.7294 39.1192 20.6439C38.6458 20.4603 38.1723 20.281 37.6988 20.0953C37.3171 19.9472 36.998 19.797 37.146 19.2506C37.2003 19.0524 37.0313 18.7145 36.8603 18.5518C36.3597 18.0825 35.8069 17.6716 35.1874 17.1689C35.8612 16.9228 36.4932 16.6912 37.1189 16.4618C36.9458 16.2073 36.7581 15.932 36.5537 15.6295C37.9157 14.9204 39.3278 15.6358 40.8526 15.3751C39.7325 14.5324 38.8961 13.6146 37.5736 13.4749C37.3818 13.454 37.2211 13.1349 37.0459 12.9534C37.1022 12.9034 37.1606 12.8533 37.217 12.8053C38.0325 12.8742 38.9691 13.2287 39.6324 12.943C40.6336 12.5133 41.1258 13.2016 41.8454 13.4248C42.4399 13.6105 43.0782 13.6605 43.658 13.7648C43.7707 12.2296 42.0978 12.2609 41.3511 11.2222C42.2772 11.4224 43.0427 11.5893 44.0689 11.8104C43.681 11.2889 43.414 10.9302 43.1053 10.5151C43.1637 10.4671 43.3034 10.3545 43.5391 10.1626C42.5984 9.4805 41.6869 8.82138 40.717 8.11845C41.2656 7.98078 41.7703 7.95784 42.3273 8.25403C42.7987 8.50433 43.3389 8.60236 44.0105 8.28949C43.4223 7.9495 43.0323 7.72423 42.6422 7.49896C42.6527 7.42387 42.6631 7.34878 42.6735 7.2716C44.0481 7.40718 45.4247 7.54484 46.9015 7.69085C46.9203 7.29872 46.9349 7.00879 46.9474 6.74597C46.549 6.77309 46.2069 6.79394 45.8669 6.81689L45.844 6.60622C46.2445 6.44144 46.6345 6.17862 47.0454 6.13482C47.788 6.05556 48.4429 6.0785 49.0624 6.81897C49.4358 7.26534 50.4307 7.19234 51.1462 7.35295C51.1816 7.25491 51.215 7.15688 51.2505 7.05676C50.7645 6.87112 50.2764 6.68339 49.7904 6.49776C49.8154 6.39972 49.8425 6.2996 49.8676 6.20157C50.1471 6.28083 50.4266 6.36218 50.7666 6.45812C51.2129 5.5925 51.8575 5.47152 52.6772 6.01801C52.8295 6.11813 53.086 6.05347 53.2904 6.08476C53.8849 6.17654 54.4793 6.27666 55.1593 6.28083C54.9195 6.10353 54.7025 5.83446 54.4335 5.76145C53.2842 5.45275 52.0181 5.39852 50.9814 4.87915C49.4587 4.11782 47.8068 4.00101 46.0296 3.52544C47.1602 3.07073 48.2552 3.73402 49.1876 3.12287C49.8822 3.29808 50.6247 3.48789 51.3694 3.67562C51.4069 3.60679 51.4424 3.53795 51.4799 3.46912C50.825 2.96852 50.17 2.47 49.5088 1.96732C50.6852 1.53138 51.2463 1.69407 51.1191 2.48252C52.673 2.5889 54.2249 2.8392 55.6954 1.85677C55.151 1.8964 54.6295 1.93186 53.9516 1.98192C54.1248 1.56892 54.1978 0.968202 54.5315 0.730417C54.7797 0.553121 55.3658 0.834709 55.7955 0.930657C55.9499 0.966116 56.1459 1.15384 56.2335 1.10795C56.8593 0.774219 57.0929 1.2185 57.3641 1.63358C57.0679 1.87554 56.7675 2.12167 56.4692 2.36571L56.5652 2.59515C56.9448 2.49086 57.3244 2.38866 57.7604 2.26976C57.8334 2.35111 57.946 2.48252 58.0628 2.60767C58.457 3.02692 58.7908 3.14999 59.1203 2.50546C59.3081 2.13836 59.6272 1.838 59.9693 1.40414C60.1487 1.80462 60.2404 2.00695 60.3322 2.20927C60.3677 2.14879 60.4031 2.0883 60.4386 2.02572C60.7723 2.19259 61.3167 2.30105 61.3876 2.54509C61.4711 2.83503 61.1499 3.24385 61.0039 3.60261C61.0664 3.63807 61.1311 3.67562 61.1937 3.71108C61.4356 3.36483 61.6797 3.01858 62.0134 2.54301C62.3638 3.07281 62.7163 3.60887 63.1669 4.29303C63.2691 3.85709 63.3233 3.62764 63.3942 3.32937C63.9636 3.75905 64.4392 4.12824 65.0545 3.41906C65.2652 3.1771 65.6949 3.46495 65.6615 3.91758C65.6135 4.5475 65.7324 4.94589 66.5167 4.96675C66.863 4.97718 67.1842 5.37349 67.5429 5.54036C67.7849 5.65299 68.0727 5.66551 68.3397 5.72391C68.3731 5.65091 68.4065 5.5779 68.4399 5.5049C68.1729 5.23582 67.9059 4.96675 67.5972 4.65596C67.7223 4.61424 67.885 4.49744 67.9705 4.53915C68.4294 4.77068 68.8612 5.05436 69.3159 5.29631C70.0752 5.70097 70.9262 5.98255 71.5957 6.49984C73.2978 7.81392 75.175 8.91315 76.6205 10.5505C76.7686 10.7174 77.0481 10.7654 77.3401 10.903C77.3672 11.0845 77.4048 11.3306 77.4444 11.5789C77.507 11.5246 77.5716 11.4704 77.6342 11.4162C78.3017 12.0774 78.9879 12.7219 79.6345 13.404C80.3896 14.2007 81.1343 15.008 81.833 15.8527C82.2335 16.3366 82.5318 16.9061 82.878 17.4359L82.8947 17.4192L82.8759 17.4234ZM37.4923 75.8268C36.8019 75.9728 36.1115 76.1105 35.4231 76.2711C34.9538 76.3795 34.5012 76.5777 34.0277 76.6382C31.7542 76.9302 29.4764 77.1888 27.2008 77.4683C27.0777 77.4829 26.9651 77.581 26.7732 77.6769C27.3885 77.8834 27.9037 78.2151 28.4085 78.1963C29.5599 78.1567 30.7175 78.0128 31.848 77.7875C33.4645 77.4663 35.0623 77.0512 36.658 76.6424C37.0584 76.5401 37.5945 76.4734 37.4714 75.8164C38.1911 75.7246 38.9107 75.6412 39.6261 75.5348C39.72 75.5202 39.793 75.3846 39.8764 75.3032C39.7721 75.2198 39.6762 75.078 39.5635 75.0655C38.7521 74.9799 38.0492 75.2156 37.4881 75.8268H37.4923ZM48.105 75.1155C48.5973 75.6307 48.9435 75.589 49.49 75.2782C50.8417 74.5106 52.2621 73.8619 53.6429 73.1381C54.4251 72.7272 55.1802 72.2642 55.9478 71.8262C55.9332 71.7594 55.9186 71.6948 55.904 71.628C55.6954 71.628 55.4555 71.5592 55.2845 71.6384C54.0643 72.2141 52.867 72.8315 51.6489 73.4093C50.4891 73.96 49.3816 74.5836 48.0633 74.8131C47.0058 74.9966 46.0171 75.564 44.9971 75.9603C45.0201 76.0583 45.043 76.1543 45.0639 76.2523C45.3225 76.2377 45.6041 76.2815 45.8356 76.196C46.5615 75.929 47.1768 75.1259 48.1071 75.9123V75.1134L48.105 75.1155ZM42.2647 77.3182L42.2334 77.0679C41.8746 77.095 41.5013 77.0616 41.1634 77.1576C40.0016 77.4871 38.8585 77.8751 37.6988 78.2109C37 78.4132 36.2783 78.5405 35.5838 78.7532C35.4002 78.8095 35.2771 79.064 35.127 79.2288L35.2876 79.5312C37.6946 79.064 40.1643 78.8054 42.2647 77.3182ZM79.0442 56.1198C78.9712 56.0906 78.8962 56.0614 78.8231 56.0343C78.2099 56.5808 78.0681 57.0105 78.3726 57.6529C78.6187 57.0939 78.8315 56.6079 79.0463 56.1219L79.0442 56.1198ZM58.6573 74.5106C59.5187 75.0383 59.7065 74.2478 60.1695 74.131C60.1382 74.058 60.109 73.9829 60.0777 73.9099C59.6481 74.0914 59.2205 74.2728 58.6573 74.5106Z" fill="white"/>
<path d="M47.3938 95.7465V99.2341C47.6983 99.2695 48.0237 99.3091 48.37 99.3488C48.6307 100.083 48.1948 100.298 47.6337 100.335C46.985 100.379 46.3321 100.354 45.6813 100.342C44.9346 100.327 44.8303 100.16 45.0243 99.3613C45.7321 99.2514 46.086 98.8148 46.086 98.0514C46.086 97.2442 46.0589 96.4369 46.0964 95.6318C46.1173 95.2 45.9233 95.0374 45.5583 94.9268C45.2329 94.8267 44.9221 94.6786 44.605 94.5493C44.5863 94.4512 44.5654 94.3553 44.5466 94.2573C44.872 94.1154 45.1891 93.8693 45.5228 93.8505C46.4573 93.7942 47.4001 93.7838 48.3303 93.8568C48.6432 93.8818 49.075 94.1467 49.2085 94.4199C49.7237 95.4733 50.1408 96.5746 50.6414 97.7719C51.2901 96.4098 51.8909 95.15 52.5208 93.8276C53.6304 93.8276 54.7735 93.8004 55.9144 93.8505C56.1481 93.8609 56.3671 94.1592 56.5944 94.324C56.4171 94.518 56.244 94.8705 56.0584 94.8767C55.4201 94.8997 55.4472 95.2877 55.4493 95.7257C55.4576 96.8896 55.4514 98.0556 55.4514 99.2195C55.5202 99.1757 55.5911 99.1318 55.66 99.086C55.9666 99.3154 56.5485 99.5699 56.5318 99.7701C56.4776 100.388 55.8957 100.354 55.3972 100.348C54.6421 100.337 53.887 100.348 53.1319 100.346C52.3018 100.342 52.1933 100.198 52.404 99.3237C52.6272 99.3008 52.8712 99.2758 53.1132 99.2487V95.9822L52.9859 95.9468C52.7878 96.3306 52.5729 96.706 52.3977 97.1002C51.9868 98.0201 51.6343 98.9692 51.1692 99.8598C51.0398 100.106 50.5976 100.323 50.3056 100.315C49.9698 100.306 49.4609 100.118 49.3378 99.8619C48.6974 98.5165 48.1572 97.1253 47.5815 95.7486C47.5169 95.7486 47.4543 95.7486 47.3896 95.7486L47.3938 95.7465Z" fill="white"/>
<path d="M8.25102 93.813V96.341C7.79422 96.0698 7.41459 95.9468 7.18724 95.6902C6.16101 94.5368 4.06266 94.1842 2.72355 94.9998C2.5984 95.077 2.42736 95.2877 2.45656 95.3627C2.52122 95.5213 2.69226 95.7215 2.84453 95.7465C3.83947 95.9051 4.84484 95.9968 5.83979 96.1616C6.48223 96.268 7.16638 96.3514 7.72956 96.6435C8.50132 97.0439 8.84756 97.7698 8.68696 98.6876C8.55763 99.4343 8.04452 99.7764 7.42085 100.089C6.11095 100.748 4.73429 100.406 3.38476 100.41C3.00305 100.41 2.62343 100.108 2.23546 100.089C1.9643 100.077 1.68897 100.331 1.40113 100.421C1.26972 100.463 1.10285 100.394 0.900527 100.369V97.5258C1.3615 97.8199 1.77866 97.9554 1.98308 98.2433C2.4357 98.8774 2.91753 99.3321 3.76021 99.3029C4.69466 99.2695 5.6312 99.2945 6.54271 99.2945C7.05792 98.4164 6.93485 98.1932 6.01917 98.1056C4.84067 97.993 3.65175 97.9033 2.49411 97.6718C1.56591 97.4861 0.823351 96.9271 0.527162 95.9551C0.339437 95.3419 1.19046 94.0633 1.99559 93.8776C2.88416 93.6711 3.80193 93.5356 4.71135 93.4855C5.17441 93.4605 5.64581 93.7567 6.12138 93.7963C6.79719 93.8547 7.47926 93.8109 8.2531 93.8109L8.25102 93.813Z" fill="white"/>
<path d="M21.4605 95.077C20.9599 94.8601 19.9629 95.0061 20.476 93.8338C21.3521 93.8338 22.2573 93.8213 23.1605 93.8464C23.3044 93.8505 23.4567 93.9944 23.5818 94.1008C24.8104 95.1563 26.0348 96.2159 27.3343 97.338V95.0102C27.134 94.9664 26.8483 94.9727 26.6585 94.8413C26.4791 94.7182 26.2997 94.4429 26.3101 94.2468C26.3185 94.0987 26.6272 93.8568 26.8086 93.8505C27.8703 93.813 28.932 93.8318 30.0021 93.8318C30.2273 94.4408 30.2106 94.8851 29.4743 94.906C28.9925 94.9206 28.9445 95.175 28.9487 95.563C28.9633 96.8896 28.9591 98.2141 28.955 99.5407C28.9529 100.321 28.5232 100.657 27.8787 100.242C27.011 99.6804 26.2455 98.9567 25.4508 98.2871C24.6122 97.5821 23.7904 96.8583 22.7809 95.9864C22.7809 97.1274 22.7517 98.0264 22.8101 98.917C22.8184 99.0547 23.2231 99.1694 23.4484 99.2862C23.7237 99.428 24.0032 99.5615 24.2827 99.6992C24.2681 99.8118 24.2535 99.9245 24.2368 100.037C23.8447 100.139 23.4567 100.298 23.0604 100.331C22.4659 100.381 21.8652 100.325 21.2666 100.352C20.5616 100.383 20.2174 100.137 20.4322 99.3446C20.7451 99.3071 21.0726 99.2695 21.4626 99.2236V95.0749L21.4605 95.077Z" fill="white"/>
<path d="M76.2117 93.8985V96.2555C75.853 96.1032 75.5213 96.0678 75.3836 95.8863C74.3532 94.5138 72.9036 94.5075 71.4226 94.6452C71.1118 94.6744 70.8073 94.8851 70.5278 95.0561C70.436 95.1124 70.3589 95.3356 70.3985 95.4316C70.4569 95.5692 70.6175 95.7319 70.7531 95.7528C71.8002 95.9092 72.8619 95.976 73.8964 96.1887C74.6181 96.3368 75.3378 96.6038 75.9906 96.948C76.7207 97.3318 76.7749 98.0597 76.6247 98.8023C76.485 99.4864 75.951 99.7847 75.4003 100.081C74.1321 100.763 72.7722 100.394 71.4477 100.429C71.2328 100.435 71.018 100.242 70.7969 100.229C70.484 100.21 70.1628 100.262 69.8478 100.302C69.5308 100.342 69.2158 100.4 68.8279 100.461V97.7761C69.3326 97.7156 69.681 97.6551 69.9667 98.2662C70.2254 98.8169 70.7364 99.3196 71.5102 99.2966C72.2361 99.2758 72.9703 99.3613 73.692 99.3029C74.1426 99.2653 74.5785 99.0484 75.0228 98.9128C75.0228 98.7773 75.0228 98.6396 75.0228 98.504C74.6035 98.3663 74.1947 98.1849 73.765 98.0973C72.4656 97.8345 71.1452 97.6592 69.8583 97.3464C69.0427 97.1482 68.4587 96.2847 68.5317 95.6214C68.6214 94.8058 69.462 93.9006 70.3234 93.8088C70.799 93.7587 71.2704 93.4605 71.7293 93.4897C72.7722 93.5564 73.8047 93.7733 74.8455 93.8922C75.2794 93.9423 75.7236 93.9006 76.2117 93.9006V93.8985Z" fill="white"/>
<path d="M19.5854 96.8416C19.4728 98.1953 18.6822 99.549 17.4203 100.098C15.9206 100.748 14.4209 100.671 12.9066 100.41C11.3922 100.148 9.91129 98.5499 9.95926 97.1211C9.9989 95.9363 10.5558 94.8747 11.6655 94.2802C12.8711 93.6336 14.1789 93.3228 15.5556 93.4751C17.0198 93.6378 18.2484 94.299 19.1203 95.4775C19.429 95.8946 19.4769 96.5058 19.5833 96.8416H19.5854ZM17.2618 97.0794C17.2618 95.5192 16.3357 94.6515 14.7629 94.5826C13.3759 94.5221 12.1244 95.7236 12.1765 97.0272C12.2307 98.3997 13.378 99.5761 14.7734 99.574C16.3044 99.572 17.2618 98.6104 17.2618 97.0794Z" fill="white"/>
<path d="M58.6448 95.0019C58.3924 94.9602 58.2005 94.9852 58.0983 94.8997C57.871 94.7099 57.6895 94.4637 57.4893 94.2427C57.7229 94.105 57.9502 93.8589 58.188 93.8505C59.2268 93.8067 60.2697 93.8234 61.3105 93.838C61.6422 93.8422 62.0864 93.6899 62.1136 94.2823C62.1386 94.8413 61.761 94.8997 61.346 94.9331C61.2479 94.9414 61.152 94.981 60.9789 95.0248C60.9789 96.2492 60.9205 97.4694 61.0164 98.6771C61.0435 99.0088 61.4774 99.3884 61.8153 99.6012C62.5516 100.064 64.2578 99.5824 64.7125 98.8273C64.8126 98.6625 64.8585 98.4414 64.8606 98.2475C64.8752 97.2087 64.8669 96.1679 64.8669 95.0958C64.36 94.8413 63.3233 95.0394 63.8219 93.8317C64.8147 93.8317 65.8493 93.8046 66.8797 93.8526C67.0945 93.863 67.2969 94.1467 67.5054 94.3052C67.3365 94.5034 67.1717 94.8642 66.9965 94.8705C66.3645 94.8872 66.3728 95.2439 66.3895 95.7006C66.4166 96.4536 66.4187 97.2087 66.402 97.9638C66.3728 99.2257 65.5677 100.469 64.0909 100.471C62.9813 100.471 61.8591 100.55 60.7619 100.431C59.6106 100.306 58.7011 99.4885 58.649 98.1849C58.6094 97.1482 58.6406 96.1116 58.6406 95.004L58.6448 95.0019Z" fill="white"/>
<path d="M91.2131 94.0674C91.5927 93.9715 91.9994 93.8714 92.5 93.7462V96.0803C91.843 96.4787 91.4237 96.074 91.0692 95.5818C90.1639 94.3261 87.6838 94.226 86.643 95.3586C86.0235 96.0302 85.7524 96.852 86.036 97.6488C86.3301 98.4727 86.8015 99.2633 87.9216 99.3488C88.8832 99.4218 89.8176 99.4864 90.652 98.9337C90.9544 98.7335 91.2548 98.4352 91.3966 98.1119C91.6136 97.6175 92.0015 97.6738 92.2915 97.8136C92.6857 98.0034 92.4103 98.2579 92.2998 98.5874C91.6907 100.438 89.4714 100.638 88.0238 100.55C86.9976 100.49 86.0652 100.225 85.1829 99.6366C83.2327 98.3309 83.5685 95.0645 85.6731 94.1801C86.7744 93.717 87.8653 93.3332 89.048 93.4834C89.7968 93.5773 90.5185 93.8755 91.211 94.0695L91.2131 94.0674Z" fill="white"/>
<path d="M33.3957 99.3196C33.742 99.2966 34.0465 99.2779 34.5075 99.2487C34.326 96.6518 32.5989 95.4378 30.3838 94.4116C30.7008 94.1696 30.9157 93.863 31.1409 93.8568C32.4613 93.8109 33.7837 93.8338 35.323 93.8338C34.6431 94.9727 34.9518 95.8091 35.8862 96.5704C36.2784 96.1345 36.6976 95.6673 37.0835 95.2376C36.9458 94.8142 36.8061 94.3866 36.6392 93.8672H40.1956C40.3645 94.5117 40.3416 94.9518 39.4989 94.9393C39.2549 94.9352 38.942 95.0916 38.7751 95.2772C38.0409 96.0928 37.2963 96.9063 36.658 97.7948C36.1636 98.4811 36.4974 99.1027 37.2921 99.3071C37.4923 99.3592 37.6383 99.6199 37.8094 99.7847C37.6237 99.9704 37.4464 100.306 37.2524 100.315C36.1365 100.365 35.0143 100.377 33.8984 100.319C33.379 100.292 33.1329 99.9286 33.3978 99.3217L33.3957 99.3196Z" fill="white"/>
<path d="M78.2559 99.3467C78.5792 99.3112 78.9066 99.2758 79.3134 99.232C79.3134 97.9179 79.3301 96.6226 79.2904 95.3294C79.2863 95.1875 78.9567 95.0666 78.8003 94.9122C78.5854 94.7015 78.3935 94.47 78.1912 94.2468C78.4227 94.1071 78.6501 93.8568 78.8879 93.8463C79.9016 93.8025 80.9195 93.7963 81.9332 93.8484C82.2294 93.863 82.513 94.1175 82.803 94.2614C82.5652 94.4783 82.3232 94.6932 82.0875 94.9143C81.9269 95.0666 81.6412 95.2209 81.637 95.3815C81.5994 96.6497 81.6161 97.92 81.6161 99.2278C81.8352 99.2528 82.002 99.2299 82.1272 99.2925C82.365 99.4093 82.5798 99.5761 82.8051 99.7201C82.609 99.9224 82.4192 100.292 82.2127 100.3C81.0446 100.356 79.8703 100.371 78.7022 100.304C78.2141 100.275 78.0556 99.8598 78.2559 99.3446V99.3467Z" fill="white"/>
<path d="M64.0575 73.766C65.9869 72.0681 67.9142 70.3702 70.0418 68.4972C69.8207 68.9352 69.7331 69.2147 69.5641 69.4316C68.1812 71.2234 66.4041 72.5708 64.5581 73.839C64.4622 73.9057 64.3266 73.912 64.2077 73.9475C64.1576 73.887 64.1076 73.8265 64.0554 73.766H64.0575Z" fill="white"/>
<path d="M30.0438 64.0919H27.3594C28.0143 63.1115 28.9008 63.462 29.6601 63.4328C29.8457 63.4265 30.0438 63.7394 30.2357 63.9062C30.1732 63.9688 30.1085 64.0293 30.0459 64.0919H30.0438Z" fill="white"/>
<path d="M82.8593 17.4401C83.7812 17.6695 83.9647 18.5309 84.4799 19.1776C83.7666 19.3403 82.9239 18.3349 82.8759 17.4234L82.8593 17.4401Z" fill="white"/>
<path d="M37.5132 80.4636C38.1327 79.8149 38.7292 79.575 39.5114 79.9359C39.0087 80.7306 38.3225 80.5888 37.5132 80.4636Z" fill="white"/>
<path d="M34.8182 21.789C35.9279 21.5512 36.5036 22.0518 37.0376 22.6463L36.9228 22.9008C36.2825 22.5629 35.6421 22.225 34.8182 21.789Z" fill="white"/>
<path d="M88.2908 35.3178C88.2678 34.8192 88.2449 34.3207 88.2178 33.7304C88.7872 34.0829 88.8394 34.5606 88.5119 35.3073C88.4389 35.3115 88.3638 35.3136 88.2908 35.3178Z" fill="white"/>
<path d="M53.5741 1.93186C52.5458 2.37823 52.1662 2.27602 52.0118 1.44794C52.5458 1.61273 53.0068 1.75665 53.5741 1.93186Z" fill="white"/>
</g>
<defs>
<clipPath id="clip0_1278_184">
<rect width="92" height="99.9262" fill="white" transform="translate(0.5 0.674103)"/>
</clipPath>
</defs>
</svg>
