<svg width="150" height="57" viewBox="0 0 150 57" fill="none" xmlns="http://www.w3.org/2000/svg">
<g clip-path="url(#clip0_1326_34)">
<path d="M77.0325 0.5C77.7277 0.614886 78.4267 0.71336 79.1182 0.848446C85.5041 2.09073 90.1051 5.73552 93.1603 11.4483C93.3382 11.7803 93.4885 12.1262 93.6475 12.4671C93.6613 12.4974 93.6438 12.5441 93.6338 12.6577C93.5386 12.4999 93.4697 12.3901 93.4058 12.279C90.3907 6.98664 85.8586 3.77615 79.9975 2.39878C79.3499 2.24602 78.6898 2.11598 78.0284 2.05538C76.5227 1.91651 75.1936 2.38615 74.0462 3.37341C73.9723 3.43654 73.9285 3.53375 73.7882 3.7307C74.3581 3.85568 74.8817 3.89229 75.3339 4.09429C75.7573 4.28366 76.1056 4.646 76.5039 4.94647C76.6718 4.51344 76.8121 4.15363 76.9674 3.75595C76.7682 3.63096 76.4463 3.46052 76.7131 3.03759C77.2906 3.03002 77.8016 3.17394 78.2801 3.53627C78.4618 3.67388 78.8013 3.60066 79.0994 3.51986C79.7608 3.94658 80.4209 4.37456 81.1086 4.81896C80.5337 5.53479 79.7746 4.70155 79.1896 5.08787C79.1232 5.6522 79.7044 5.63831 79.9712 6.03725C79.5841 6.14835 79.2447 6.24683 79.0004 6.31753C78.7336 6.60158 78.5044 6.82252 78.3014 7.06618C78.1311 7.2707 77.9407 7.4828 77.848 7.7252C77.5636 8.46627 77.0801 8.99652 76.3899 9.37652C75.8425 9.67826 75.8237 9.81839 76.0417 10.3941C76.1456 10.668 76.2672 10.9382 76.331 11.2223C76.3774 11.4268 76.3398 11.6503 76.3398 11.9356C75.5469 11.5871 75.7072 10.7842 75.2713 10.2767C75.1097 10.2981 74.9318 10.3322 74.7515 10.3448C74.5072 10.3613 74.2629 10.3663 74.0187 10.365C73.8947 10.365 73.7481 10.2918 73.6491 10.336C73.0616 10.5973 72.4366 10.461 71.8366 10.5481C71.0123 10.668 70.52 11.3182 70.4073 12.3724C70.361 12.8029 70.3998 13.2435 70.3998 13.7169H67.9133C67.9797 13.5112 68.0273 13.3609 68.0837 13.1867C67.4974 12.1515 66.8498 11.1238 66.6544 9.8853C66.2573 10.7956 67.1767 11.6414 66.7621 12.712C66.6043 12.3131 66.5416 12.0075 66.3801 11.7727C66.0268 11.2601 65.9917 10.7047 65.9993 10.1126C66.003 9.80703 65.9291 9.47626 65.8001 9.19978C65.5934 8.75791 65.6122 8.33497 65.8189 7.93477C66.0945 7.39947 66.4064 6.87933 66.7371 6.3756C66.9763 6.01074 67.1818 5.66356 67.3145 5.22295C67.4824 4.6662 67.892 4.18267 68.2064 3.67262C68.3279 3.47567 68.472 3.29261 68.5496 3.05274C63.499 4.73816 59.6534 7.87417 57.0592 12.6287C57.0466 12.5012 57.0191 12.4355 57.0379 12.3926C59.1636 7.604 62.4443 3.96426 67.3471 1.95817C69.1534 1.21962 71.0374 0.785321 72.9802 0.611099C73.1644 0.594686 73.3435 0.539137 73.5264 0.501262C74.6951 0.501262 75.8626 0.501262 77.0313 0.501262L77.0325 0.5Z" fill="white"/>
<path d="M150 53.5319C149.677 54.4169 148.972 54.7363 148.111 54.8133C147.639 54.855 147.164 54.8764 146.599 54.9118C146.64 55.3814 146.678 55.8195 146.718 56.2841H145.04C145.061 55.4509 145.113 54.6138 145.093 53.7793C145.072 52.9575 145.26 52.1154 144.888 51.2329C146.067 51.2771 147.209 51.3011 148.348 51.3718C149.111 51.4185 149.681 51.8036 150 52.5232V53.5306V53.5319ZM146.652 53.8803C147.114 53.8387 147.546 53.8361 147.963 53.7516C148.328 53.6771 148.408 53.3577 148.4 53.0155C148.393 52.6734 148.229 52.4386 147.896 52.4083C147.492 52.3729 147.084 52.3994 146.653 52.3994V53.8791L146.652 53.8803Z" fill="white"/>
<path d="M83.0802 32.4547C83.0489 32.6529 83.0239 32.8158 82.9951 32.9989C82.1646 33.3233 81.3403 33.6465 80.6213 33.928C80.2217 34.3775 79.8823 34.7588 79.5428 35.14L79.4451 35.0731C79.4238 35.2309 79.4012 35.3887 79.3799 35.5415C79.1332 35.6943 78.9052 35.8344 78.6672 35.9821C78.6998 36.1222 78.7261 36.2359 78.7549 36.3621C78.6885 36.3722 78.6183 36.4063 78.5707 36.3874C78.0334 36.1727 77.8968 35.8811 78.0071 35.313C78.1085 34.7916 78.4229 34.3118 78.2814 33.7361C78.2526 33.6162 78.4129 33.4445 78.4956 33.3019C78.6647 33.014 78.9165 32.7501 78.9979 32.4396C79.286 31.3463 79.8585 30.3287 79.871 29.1622C79.8722 29.017 79.8647 28.844 79.9361 28.7304C80.3357 28.0878 80.02 27.6295 79.5841 27.1889C79.5453 27.1498 79.524 27.0904 79.4676 26.997H88.9063C88.7008 27.6838 88.4616 28.3289 87.9167 28.8377C86.981 28.7683 86.3697 29.2013 85.92 30.032C85.3763 31.0382 84.4005 31.8083 83.0802 32.4547Z" fill="white"/>
<path d="M93.4081 29.6798C92.0415 32.6024 90.0949 35.0655 87.5671 37.0552C84.1599 39.738 80.2779 41.1621 75.9601 41.2921C66.1995 41.585 59.7935 35.7271 57.168 29.4525C61.2867 36.2712 67.3657 39.8087 75.2311 39.8465C83.0839 39.8832 89.1955 36.4189 93.4094 29.6785L93.4081 29.6798Z" fill="white"/>
<path d="M85.9837 21.2716C86.6276 22.2033 87.2652 23.1275 87.9541 24.1261H84.7135C84.8363 23.9216 84.939 23.7511 85.0593 23.5491C84.6046 22.8813 84.1461 22.2097 83.6851 21.533H82.7256C82.8145 22.4104 82.4387 23.2967 83.1214 24.1248H80.1301C80.6888 23.5504 80.5159 22.8674 80.5222 22.2185C80.5347 20.7906 80.5397 19.3628 80.5159 17.9361C80.5097 17.5637 80.3869 17.1925 80.3055 16.7595C80.323 16.757 80.4496 16.7216 80.5773 16.7216C81.9953 16.7178 83.4145 16.7103 84.8325 16.7279C85.2246 16.733 85.6255 16.781 86.005 16.8769C86.7829 17.0739 87.3554 17.5284 87.5508 18.3528C87.7562 19.2176 87.562 19.9826 86.9107 20.5937C86.6551 20.8335 86.342 21.0116 85.9825 21.2704L85.9837 21.2716ZM82.7594 20.1089C83.4233 20.0735 84.0258 20.0849 84.6121 19.9953C85.0893 19.922 85.3962 19.4701 85.3674 19.0522C85.3374 18.604 85.0117 18.2997 84.4693 18.2758C83.9131 18.2518 83.3544 18.2707 82.7594 18.2707V20.1089Z" fill="white"/>
<path d="M43.2901 16.7229C44.1081 16.7229 44.7908 16.6964 45.4697 16.7394C45.6588 16.752 45.8668 16.9388 46.0096 17.0979C46.9917 18.1849 47.9587 19.2858 48.932 20.3804C49.0786 20.5445 49.2351 20.701 49.4832 20.9624C49.4832 19.6885 49.5007 18.5624 49.4681 17.4388C49.4619 17.2191 49.2677 17.0045 49.1412 16.7495H51.6139C51.1792 17.1673 51.2168 17.6458 51.2193 18.123C51.2268 19.8855 51.2218 21.6492 51.2218 23.4116V24.1249H49.4969C48.8694 23.4507 48.2155 22.745 47.5604 22.0418C46.909 21.3424 46.2564 20.643 45.4797 19.9751V21.3802C45.4797 21.7577 45.476 22.1365 45.4797 22.514C45.486 23.0657 45.3632 23.6439 45.8943 24.1388H43.3364C43.9102 23.534 43.7235 22.8308 43.731 22.1642C43.7473 20.821 43.731 19.4777 43.7385 18.1344C43.7411 17.6559 43.7849 17.1736 43.2876 16.7204L43.2901 16.7229Z" fill="white"/>
<path d="M32.3193 16.7507H35.3633C34.9424 17.166 34.9612 17.6395 34.9674 18.1217C34.9812 19.1709 34.9674 20.2212 34.9749 21.2704C34.9812 22.0316 35.2004 22.4091 35.8092 22.5758C36.4919 22.7639 37.1921 22.8055 37.7282 22.2248C37.8936 22.0455 37.99 21.735 37.9963 21.4825C38.0251 20.1606 38.0301 18.8376 38.0051 17.5157C38.0001 17.2708 37.8197 17.0297 37.7082 16.7557H40.4565C40.3876 17.2544 40.2736 17.7493 40.2598 18.2455C40.2285 19.3577 40.2611 20.4699 40.2435 21.5822C40.221 23.0139 39.5909 23.8143 38.2118 24.1274C37.0794 24.3849 35.9307 24.3836 34.7971 24.1312C33.4217 23.8244 32.7728 23.0252 32.7402 21.5986C32.7139 20.4447 32.7302 19.2895 32.7327 18.1356C32.7327 17.6597 32.7991 17.1723 32.3218 16.7519L32.3193 16.7507Z" fill="white"/>
<path d="M92.8181 18.6949C93.1726 18.9222 93.4219 19.1393 93.7112 19.2529C94.1947 19.4423 94.7133 19.537 95.1981 19.7226C95.6616 19.9006 96.1388 20.0874 96.5447 20.3652C97.875 21.278 97.7397 23.1818 96.3029 23.9254C95.3121 24.438 94.2461 24.4127 93.1864 24.2435C92.5525 24.1425 91.9325 23.9557 91.2773 23.7991C91.1233 23.938 90.9554 24.0882 90.7274 24.294V21.7817C91.4915 22.0468 92.2632 22.3485 93.0548 22.5745C93.4469 22.6869 93.8778 22.6882 94.2912 22.6932C94.6294 22.697 94.9889 22.6364 95.0478 22.2008C95.1029 21.7905 94.7697 21.6706 94.4778 21.5633C94.1659 21.4484 93.8302 21.3992 93.5196 21.2817C92.9183 21.0532 92.3032 20.8437 91.737 20.5432C90.894 20.0963 90.5395 19.3426 90.6598 18.3907C90.7713 17.5069 91.3813 17.0461 92.1467 16.7823C93.373 16.3581 94.6068 16.4464 95.8332 16.8189C96.0311 16.8795 96.229 16.9413 96.4482 17.0082C96.6211 16.8694 96.7927 16.7305 97.027 16.5411V18.8641C96.3305 18.6621 95.6516 18.4172 94.9513 18.2745C94.2686 18.1356 93.5271 17.8705 92.8168 18.6924L92.8181 18.6949Z" fill="white"/>
<path d="M70.2244 16.7545H77.1991V18.6974C76.7582 18.1937 76.2559 18.2644 75.7686 18.2656C74.8141 18.2656 73.8608 18.2656 72.8712 18.2656V19.6746C73.8558 19.5534 74.8404 19.9511 75.7736 19.3476V21.5216C74.8617 20.8752 73.8671 21.2931 72.8775 21.1517V22.577H74.3769C74.8141 22.577 75.2512 22.5796 75.6897 22.577C76.1982 22.5745 76.7244 22.6654 77.1979 22.1756V24.1173H70.2545C70.8131 23.534 70.6265 22.8295 70.634 22.1629C70.649 20.8424 70.6328 19.5218 70.6415 18.2C70.6453 17.7013 70.6929 17.2001 70.2231 16.7545H70.2244Z" fill="white"/>
<path d="M102.036 22.8283C101.917 23.0732 101.801 23.3143 101.688 23.5466C101.812 23.7423 101.92 23.9102 102.059 24.1286H99.4133C99.5173 23.8875 99.5912 23.6981 99.6789 23.5151C100.6 21.6112 101.532 19.7137 102.437 17.8023C102.574 17.5132 102.589 17.1673 102.679 16.7671H105.005C106.195 19.1658 107.401 21.5961 108.647 24.1084H105.576C105.704 23.9102 105.812 23.7423 105.935 23.5504C105.823 23.3156 105.709 23.0732 105.594 22.8283H102.036ZM102.616 21.3941H105.008C104.598 20.5205 104.227 19.7314 103.804 18.8287C103.372 19.7617 103.008 20.547 102.616 21.3941Z" fill="white"/>
<path d="M68.2815 16.7583C67.0952 19.2567 65.9403 21.6895 64.7791 24.135H63.197C62.0546 21.7059 60.9022 19.2555 59.7222 16.7482H62.7498C62.6333 16.9464 62.5369 17.1105 62.4153 17.3163C62.9891 18.6053 63.574 19.9183 64.2054 21.336C64.848 19.9486 65.4492 18.6507 66.058 17.3365C65.9528 17.156 65.8513 16.9817 65.7211 16.7583H68.2815Z" fill="white"/>
<path d="M117.514 22.245V24.1287H110.723C111.288 23.6666 111.178 23.1073 111.178 22.5758C111.181 21.0671 111.193 19.5585 111.169 18.0498C111.163 17.637 111.04 17.2267 110.963 16.7734H113.759C113.26 17.2305 113.366 17.7847 113.365 18.3162C113.361 19.5105 113.365 20.7048 113.365 21.8991C113.365 22.1024 113.365 22.3056 113.365 22.4938C114.659 22.7298 116.869 22.5998 117.514 22.245Z" fill="white"/>
<path d="M74.635 54.3386C75.1811 53.2567 75.6784 52.2732 76.1732 51.2922H77.8943C77.6376 51.9879 77.6275 55.6188 77.8881 56.2803H76.0705C76.3999 55.4774 76.1782 54.6517 76.2509 53.8399C76.2108 53.8248 76.1707 53.8096 76.1306 53.7945C75.7173 54.6214 75.3026 55.4471 74.8805 56.2904H74.1402C73.6805 55.4673 73.2082 54.6201 72.736 53.7743C72.6934 53.7856 72.6495 53.797 72.6069 53.8096C72.6696 54.6214 72.4779 55.4458 72.7635 56.2816H71.2616C71.5222 55.6541 71.5184 51.9513 71.2566 51.2973H72.9527C73.48 52.2505 74.0237 53.2339 74.635 54.3386Z" fill="white"/>
<path d="M122.178 56.3005H120.441C120.722 55.461 120.58 54.6138 120.577 53.7793C120.573 52.9574 120.746 52.1141 120.405 51.296C121.555 51.296 122.697 51.296 123.84 51.296C123.861 51.296 123.881 51.2998 123.902 51.3023C124.792 51.416 125.313 51.7947 125.458 52.431C125.629 53.1784 125.354 53.7263 124.55 54.2427C124.497 54.2767 124.449 54.3146 124.373 54.3676C124.801 54.9837 125.224 55.596 125.695 56.2753H123.559C123.606 56.1465 123.649 56.0228 123.701 55.8814C123.406 55.4572 123.109 55.0292 122.791 54.5709H122.096C122.122 55.1352 122.149 55.6958 122.176 56.3018L122.178 56.3005ZM122.141 53.5344C122.558 53.5344 122.947 53.5622 123.33 53.5256C123.668 53.4927 123.921 53.2794 123.929 52.9183C123.936 52.5333 123.667 52.3754 123.315 52.3653C122.93 52.354 122.546 52.3628 122.141 52.3628V53.5344Z" fill="white"/>
<path d="M131.25 56.5C130.757 56.4179 130.404 56.3889 130.065 56.298C128.86 55.9761 128.168 55.0797 128.138 53.8387C128.109 52.6217 128.791 51.6798 129.992 51.3251C130.92 51.0511 131.844 51.0789 132.729 51.5006C133.671 51.9488 134.105 52.7264 134.115 53.7629C134.125 54.8234 133.713 55.6529 132.736 56.0884C132.235 56.3119 131.67 56.3876 131.25 56.5ZM132.474 53.8059C132.474 53.7225 132.479 53.6392 132.474 53.5559C132.412 52.7189 131.968 52.2808 131.173 52.2669C130.359 52.2543 129.914 52.6456 129.814 53.4852C129.789 53.6897 129.79 53.9018 129.814 54.1076C129.92 54.9939 130.416 55.3991 131.288 55.3322C132.082 55.2703 132.478 54.7654 132.474 53.8059Z" fill="white"/>
<path d="M36.9317 51.2922C38.0641 51.2922 39.1889 51.2897 40.3126 51.296C40.4566 51.296 40.6007 51.3415 40.7435 51.3655C41.376 51.4715 41.8358 51.801 41.9748 52.4512C42.1214 53.1304 41.9034 53.6935 41.3172 54.0899C41.1969 54.172 41.0704 54.2452 40.8938 54.3563C41.3259 54.985 41.7531 55.6074 42.2228 56.2917H40.0883C40.1322 56.1604 40.1723 56.0417 40.2249 55.8839C39.9292 55.4597 39.6211 55.0153 39.3104 54.5671H38.6065C38.6415 55.1491 38.6753 55.6958 38.7117 56.2778H36.9693C37.2448 55.4648 37.1008 54.6176 37.097 53.7844C37.0933 52.9612 37.2611 52.1192 36.9304 51.2935L36.9317 51.2922ZM38.6816 52.3641V53.5256C39.1225 53.5256 39.5184 53.5635 39.9029 53.5142C40.2349 53.4713 40.4754 53.2377 40.4516 52.8704C40.429 52.5206 40.1735 52.3767 39.8503 52.3679C39.4645 52.3565 39.0799 52.3654 38.6816 52.3654V52.3641Z" fill="white"/>
<path d="M12.3824 54.0697V51.3049H13.7992C13.7628 51.6975 13.7015 52.094 13.6952 52.4904C13.6802 53.5382 13.6914 54.5874 13.6889 55.6352C13.6889 55.8397 13.6714 56.0443 13.6614 56.2816H12.6517C12.1119 55.7829 11.6258 55.3562 11.1661 54.9017C10.7089 54.4485 10.278 53.9675 9.76566 53.5168C9.77318 54.4409 9.56023 55.3575 9.8784 56.2867H8.35143C8.61573 55.5683 8.5982 51.9159 8.30884 51.2746C8.76355 51.2746 9.19696 51.2443 9.62286 51.2885C9.80073 51.3074 9.99364 51.4564 10.1252 51.5978C10.8667 52.3906 11.592 53.1999 12.3812 54.0672L12.3824 54.0697Z" fill="white"/>
<path d="M54.6878 16.757H57.7255C57.2307 17.2809 57.3635 17.8895 57.361 18.4727C57.3547 19.8552 57.3584 21.2388 57.3597 22.6213C57.3597 23.1351 57.2695 23.6691 57.7881 24.1312H54.6753C55.2377 23.6275 55.1075 23.0076 55.1087 22.4167C55.1125 21.0129 55.1049 19.609 55.1125 18.2051C55.115 17.7064 55.1626 17.2065 54.6891 16.757H54.6878Z" fill="white"/>
<path d="M3.58259 51.2922H5.45904C5.41144 51.6255 5.33378 51.9424 5.32626 52.2618C5.30622 53.0383 5.33252 53.8147 5.31374 54.5911C5.28993 55.5872 4.81644 56.1869 3.83186 56.2992C3.07652 56.3851 2.29362 56.38 1.53828 56.2866C0.6489 56.1768 0.191686 55.6049 0.152854 54.6959C0.11778 53.8791 0.149096 53.0597 0.127801 52.2416C0.120285 51.9412 0.0463797 51.6432 -0.0012207 51.3124H1.81511C1.77001 51.6066 1.6911 51.9033 1.68358 52.2025C1.66479 52.936 1.66604 53.6708 1.68358 54.4055C1.69736 55.0279 1.98422 55.288 2.63308 55.3145C3.36463 55.3448 3.75169 55.086 3.77674 54.4649C3.81057 53.6064 3.79679 52.7441 3.7805 51.8843C3.77674 51.7101 3.66777 51.5397 3.58133 51.2922H3.58259Z" fill="white"/>
<path d="M84.3892 51.2998H86.2381C86.1892 51.6634 86.1153 52.0017 86.1053 52.3439C86.0815 53.119 86.1153 53.8967 86.0803 54.6719C86.0364 55.6213 85.583 56.1844 84.6573 56.2929C83.9019 56.3813 83.1203 56.3838 82.3649 56.2929C81.4179 56.1806 80.9457 55.5796 80.9181 54.6176C80.8956 53.8424 80.9244 53.0648 80.9043 52.2896C80.8968 51.9677 80.8242 51.6482 80.7778 51.3074H82.5754C82.529 51.6798 82.4589 52.0194 82.4489 52.3616C82.4301 53.0319 82.4276 53.7048 82.4489 54.3752C82.4714 55.0456 82.7983 55.317 83.5111 55.3158C84.2339 55.3158 84.537 55.0494 84.5483 54.3676C84.5621 53.571 84.5633 52.7731 84.5445 51.9765C84.5395 51.7581 84.4456 51.5409 84.3867 51.2998H84.3892Z" fill="white"/>
<path d="M136.579 51.3011H138.373C138.328 51.6659 138.258 52.0068 138.248 52.3502C138.229 53.0206 138.23 53.6922 138.246 54.3639C138.263 55.0393 138.576 55.3133 139.29 55.317C140.013 55.3208 140.338 55.0494 140.353 54.3866C140.371 53.59 140.37 52.7921 140.351 51.9955C140.346 51.7796 140.248 51.5649 140.183 51.3137H141.997C141.959 51.719 141.902 52.1217 141.89 52.5257C141.872 53.2377 141.898 53.9523 141.875 54.6643C141.848 55.5632 141.385 56.1124 140.521 56.2993C139.696 56.4785 138.864 56.4773 138.041 56.2892C137.204 56.0985 136.752 55.5557 136.724 54.6883C136.699 53.9132 136.727 53.1367 136.707 52.3603C136.698 52.0182 136.627 51.6786 136.58 51.3011H136.579Z" fill="white"/>
<path d="M49.3227 51.3478V52.763C48.3782 52.5105 47.4851 52.022 46.4905 52.431C46.5594 52.8741 46.835 52.941 47.0842 53.0269C47.5552 53.1898 48.0425 53.3135 48.501 53.5079C49.3265 53.8576 49.6647 54.3475 49.5995 55.0014C49.5269 55.7362 49.0684 56.1856 48.1928 56.3813C47.5114 56.5341 46.6132 56.4381 45.3894 56.0745C45.2792 56.149 45.1477 56.2374 44.9598 56.3636V54.7249C45.4633 54.8966 45.9406 55.0911 46.4341 55.216C46.7711 55.3019 47.1356 55.3309 47.4813 55.3082C47.6429 55.2968 47.7932 55.1024 47.9473 54.9913C47.8308 54.86 47.7394 54.6744 47.5941 54.61C47.2922 54.475 46.9552 54.4245 46.6458 54.3033C46.2613 54.1518 45.8579 54.0129 45.5184 53.7831C44.5689 53.1405 44.6867 51.8831 45.7351 51.421C46.6132 51.0347 47.5164 51.1003 48.4283 51.3364C48.6939 51.4059 48.992 51.3465 49.3215 51.3465L49.3227 51.3478Z" fill="white"/>
<path d="M34.0118 56.2955H29.3194C29.5599 55.6529 29.5461 51.9058 29.2981 51.3049H34.0105V52.4891C33.0285 52.2315 32.0602 52.3931 31.0505 52.359V53.3046C31.7207 53.2756 32.3846 53.2453 33.0635 53.2163V54.4434C32.7404 54.3954 32.4297 54.3298 32.1165 54.3083C31.7858 54.2856 31.4514 54.3033 31.0631 54.3033V55.2527C32.0226 55.2287 32.9997 55.4206 34.0105 55.1075V56.2955H34.0118Z" fill="white"/>
<path d="M89.3898 56.072C89.2657 56.1629 89.1367 56.2576 88.9564 56.3901V54.7186C89.4511 54.8878 89.9322 55.0759 90.4282 55.2148C90.7251 55.2968 91.0445 55.3284 91.3539 55.3309C91.5907 55.3334 91.9314 55.3398 91.9151 54.9976C91.9076 54.8436 91.6621 54.6542 91.4829 54.5659C91.2249 54.4383 90.9242 54.4043 90.6512 54.3033C90.3205 54.1808 89.9873 54.0533 89.6779 53.8879C89.1317 53.595 88.8574 53.1254 88.915 52.4916C88.9726 51.8629 89.3873 51.5409 89.9322 51.3478C90.7714 51.0498 91.6082 51.1193 92.4525 51.3415C92.703 51.4084 92.9786 51.3819 93.303 51.4021V52.7403C92.3861 52.5396 91.5142 51.9929 90.551 52.4323C90.5334 52.8918 90.8541 52.9335 91.1184 53.0319C91.7021 53.2491 92.3122 53.4132 92.8646 53.6947C93.5285 54.0331 93.7277 54.5848 93.5535 55.2792C93.417 55.822 93.0324 56.1263 92.5301 56.2879C91.6871 56.5593 90.8428 56.4646 90.0036 56.25C89.8019 56.1982 89.604 56.1339 89.3898 56.072Z" fill="white"/>
<path d="M117.51 51.4021V52.7997C117.301 52.7252 117.141 52.6482 116.973 52.6116C116.449 52.4954 115.923 52.3111 115.396 52.3048C114.503 52.2947 113.943 52.9638 113.975 53.8627C114.007 54.7464 114.564 55.2943 115.452 55.3044C115.678 55.307 115.903 55.2779 116.238 55.2565C116.201 54.7603 116.169 54.302 116.136 53.84H117.706V55.8688C116.328 56.4886 114.916 56.7222 113.497 55.9332C112.624 55.4484 112.302 54.6214 112.347 53.6518C112.393 52.6621 112.887 51.9437 113.777 51.5359C114.683 51.1218 115.626 51.1042 116.588 51.3415C116.86 51.4084 117.155 51.3819 117.51 51.4021Z" fill="white"/>
<path d="M58.1352 56.2967H56.161C56.1472 56.0139 56.1347 55.7501 56.1209 55.4559H53.5054C53.4753 55.7147 53.4428 55.9899 53.4077 56.2854H51.7517C52.0323 55.7084 52.2853 55.1857 52.5421 54.6643C52.958 53.8197 53.3877 52.9814 53.7885 52.1293C53.9037 51.8843 53.9451 51.6053 54.0328 51.2922H55.5998C56.4291 52.9284 57.2583 54.5646 58.1352 56.2955V56.2967ZM55.6324 54.4926C55.338 53.8803 55.0862 53.3577 54.7844 52.7302C54.4837 53.3766 54.2369 53.9068 53.9639 54.4926H55.6336H55.6324Z" fill="white"/>
<path d="M106.103 51.3263V52.6519C105.466 52.5244 104.867 52.3262 104.26 52.301C103.215 52.2568 102.608 53.0307 102.773 54.0697C102.89 54.802 103.387 55.3095 104.133 55.2855C104.781 55.264 105.425 55.0885 106.106 54.9749V55.9066C104.867 56.6944 102.968 56.4886 102.135 55.8902C101.321 55.3057 100.954 54.3209 101.18 53.215C101.383 52.2227 102.204 51.4198 103.315 51.2859C103.966 51.2077 104.637 51.3099 105.298 51.3263C105.554 51.3326 105.809 51.3263 106.104 51.3263H106.103Z" fill="white"/>
<path d="M23.5447 56.2854C22.7555 54.6378 21.9739 53.0067 21.1609 51.3099H23.0762C23.1463 51.6369 23.1689 51.9677 23.2879 52.258C23.5722 52.9511 23.9029 53.6241 24.2599 54.403C24.6846 53.5079 25.0791 52.7125 25.4336 51.8995C25.5013 51.7442 25.4174 51.5208 25.4023 51.3049H27.0771C26.2591 52.9979 25.47 54.629 24.6708 56.2854H23.5459H23.5447Z" fill="white"/>
<path d="M60.5075 56.2665C60.738 55.6365 60.7217 51.902 60.4724 51.3024H62.2737C62.2449 51.945 62.2048 52.5914 62.191 53.2378C62.1773 53.8842 62.1873 54.5318 62.1873 55.2514C63.1631 55.2413 64.0825 55.3979 65.027 55.1189V56.2665H60.5062H60.5075Z" fill="white"/>
<path d="M16.9519 51.3011H18.8058C18.6405 52.9499 18.6705 54.5911 18.7858 56.274H16.9845C17.3077 55.4685 17.1473 54.6202 17.1436 53.7882C17.1398 52.9688 17.3277 52.1255 16.9532 51.3011H16.9519Z" fill="white"/>
<path d="M96.4758 51.2897H98.4375C98.0642 52.1002 98.2446 52.9335 98.2421 53.7465C98.2408 54.5709 98.0817 55.4143 98.3961 56.269H96.5259C96.7602 55.6339 96.7439 51.8983 96.4758 51.2897Z" fill="white"/>
<path d="M75.8023 12.6501C76.0403 12.6665 76.3009 12.6287 76.5138 12.712C76.9773 12.895 77.4145 13.145 77.8679 13.3559C78.0872 13.4581 78.3164 13.5339 78.5569 13.6286C78.1235 13.7813 77.7389 13.7144 77.432 13.5452C76.8997 13.2536 76.3435 13.0049 75.7986 12.7385C75.7998 12.7082 75.8023 12.6792 75.8036 12.6489L75.8023 12.6501Z" fill="white"/>
</g>
<defs>
<clipPath id="clip0_1326_34">
<rect width="150" height="56" fill="white" transform="translate(0 0.5)"/>
</clipPath>
</defs>
</svg>
