<svg width="93" height="28" viewBox="0 0 93 28" fill="none" xmlns="http://www.w3.org/2000/svg">
<g clip-path="url(#clip0_1278_415)">
<path d="M18.3135 14.3432C18.3135 10.4416 18.3135 6.53938 18.3135 2.63783C18.3135 1.77524 18.832 1.07268 19.6335 0.84398C20.7591 0.521884 21.8826 1.34395 21.9348 2.52863C21.9369 2.57739 21.9369 2.62684 21.9369 2.6756C21.9369 10.4595 21.9369 18.2434 21.9369 26.0272C21.9369 26.8857 21.4699 27.567 20.7048 27.8293C19.5634 28.2208 18.3526 27.3864 18.3149 26.1811C18.3114 26.0732 18.3135 25.9654 18.3135 25.8569C18.3135 22.0192 18.3135 18.1809 18.3135 14.3432Z" fill="white"/>
<path d="M37.6248 21.1924H38.4434V19.2543H40.2325V21.1903H43.2536C43.2536 21.2617 43.2536 21.318 43.2536 21.3743C43.2536 22.5178 43.2481 23.6613 43.2577 24.8048C43.2598 25.087 43.2838 25.3748 43.3422 25.6509C43.461 26.2085 43.8078 26.4723 44.3813 26.4723C44.5323 26.4723 44.6869 26.4613 44.8338 26.429C45.3867 26.3088 45.6305 25.9064 45.7177 25.394C45.7665 25.1104 45.7816 24.8185 45.7843 24.5308C45.7919 23.4855 45.7871 22.4402 45.7871 21.3943C45.7871 21.3359 45.7871 21.2782 45.7871 21.2095H47.5699V27.7009H45.875V26.7779C45.8207 26.8452 45.7946 26.8761 45.7706 26.909C45.3146 27.5326 44.6958 27.8602 43.928 27.8815C43.6409 27.8898 43.3463 27.8685 43.0654 27.8108C42.1891 27.6302 41.6822 27.0801 41.5428 26.1625C41.4906 25.8198 41.4686 25.4696 41.4638 25.1228C41.4529 24.2787 41.4604 23.4347 41.4604 22.5899C41.4604 22.5322 41.4604 22.4746 41.4604 22.4052H40.2414C40.2414 22.4526 40.2414 22.5 40.2414 22.5474C40.2414 23.5782 40.2414 24.609 40.2428 25.6392C40.2428 25.7463 40.251 25.8555 40.2702 25.9606C40.3135 26.2017 40.4371 26.3328 40.6816 26.3493C40.9632 26.3686 41.2475 26.3534 41.5401 26.3534C41.5428 26.3782 41.5497 26.4159 41.5497 26.4537C41.5504 26.8362 41.5524 27.2195 41.5469 27.602C41.5469 27.6466 41.5057 27.727 41.4769 27.7297C40.8011 27.8039 40.1233 27.8499 39.4585 27.6631C38.7765 27.4715 38.4489 27.0093 38.4469 26.258C38.4434 25.0362 38.4455 23.8138 38.4455 22.5913C38.4455 22.5329 38.4455 22.4752 38.4455 22.3949H37.3604V21.4025H35.7197C35.7025 21.294 35.6915 21.2027 35.673 21.112C35.5899 20.6944 35.3674 20.3758 34.967 20.2158C34.4114 19.9946 33.8372 19.963 33.2665 20.1464C32.7968 20.2975 32.5695 20.6326 32.5708 21.0893C32.5715 21.3805 32.6896 21.6044 32.9527 21.715C33.2858 21.8551 33.6285 21.978 33.9753 22.0783C34.6627 22.2775 35.3626 22.4347 36.0431 22.6517C36.3652 22.7541 36.6764 22.923 36.9566 23.1139C37.6536 23.5899 37.9531 24.2815 37.9263 25.1131C37.8892 26.26 37.3205 27.0807 36.2801 27.5162C34.8502 28.1143 33.3929 28.1068 31.9836 27.4372C30.9178 26.9303 30.3896 26.0389 30.3491 24.8604C30.3477 24.8226 30.3491 24.7842 30.3491 24.7368H32.2577C32.2693 24.8446 32.2755 24.9552 32.2947 25.0637C32.4136 25.7134 32.8201 26.1007 33.4382 26.2738C34.0749 26.4523 34.7122 26.4386 35.3317 26.1969C35.833 26.0011 36.0624 25.6213 35.9999 25.131C35.9594 24.8096 35.7561 24.6029 35.4917 24.4497C35.0927 24.2183 34.6483 24.1098 34.206 23.9971C33.5316 23.8261 32.849 23.6826 32.2062 23.4051C31.838 23.2465 31.4953 23.048 31.2172 22.7541C30.7076 22.215 30.5826 21.5577 30.6795 20.8538C30.8209 19.8264 31.4596 19.1815 32.3861 18.8161C33.6298 18.3265 34.8804 18.3807 36.0926 18.926C36.9785 19.3243 37.4833 20.0324 37.5973 21.0056C37.6042 21.0639 37.6131 21.1223 37.6227 21.1903L37.6248 21.1924Z" fill="white"/>
<path d="M10.0626 16.7517C10.0626 19.849 10.0626 22.9464 10.0626 26.0437C10.0626 26.8733 9.60792 27.5471 8.87238 27.8163C7.72547 28.2359 6.5037 27.4207 6.44052 26.1927C6.43777 26.1337 6.43709 26.0753 6.43709 26.0162C6.43709 19.8415 6.43709 13.666 6.4364 7.49125C6.4364 6.77288 6.71042 6.20355 7.33333 5.8272C8.48779 5.12944 9.98976 5.93433 10.0584 7.28384C10.0619 7.35733 10.0626 7.43081 10.0626 7.50498C10.0626 10.5879 10.0626 13.6701 10.0626 16.7531V16.7517Z" fill="white"/>
<path d="M38.4132 8.88883H40.2057V12.164C40.2455 12.1311 40.2641 12.1208 40.2765 12.105C40.6775 11.559 41.2407 11.307 41.8917 11.2142C43.1094 11.0405 44.1876 11.6881 44.6478 12.8213C45.156 14.0733 45.1491 15.3452 44.5722 16.5766C44.0667 17.6562 43.0215 18.1843 41.8354 18.0305C41.3753 17.9707 40.9358 17.8567 40.5766 17.549C40.4145 17.4103 40.2826 17.2372 40.135 17.0772V17.878H39.9619C38.9304 17.878 37.8988 17.8766 36.868 17.8801C36.7588 17.8801 36.7066 17.854 36.6702 17.7427C36.482 17.1651 36.2787 16.593 36.0906 16.0155C36.0528 15.9001 35.9992 15.8692 35.8825 15.8699C34.8613 15.8747 33.8393 15.8747 32.8181 15.8699C32.7048 15.8699 32.6567 15.9042 32.6203 16.0093C32.4225 16.5889 32.2151 17.1644 32.0166 17.7441C31.983 17.8423 31.9397 17.8814 31.8305 17.8801C31.2172 17.8746 30.604 17.8773 29.9714 17.8773C29.9907 17.8134 30.0023 17.764 30.0202 17.7166C31.1204 14.8177 32.222 11.9196 33.3194 9.01932C33.362 8.90669 33.419 8.87784 33.5337 8.87853C34.1086 8.88471 34.6827 8.8854 35.2575 8.87853C35.377 8.87716 35.4265 8.91562 35.4677 9.02481C36.4195 11.5817 37.3762 14.1371 38.3315 16.6926C38.3501 16.7421 38.3713 16.7901 38.4139 16.8368V8.88746L38.4132 8.88883ZM43.2014 14.6261C43.2014 14.1797 43.1362 13.7464 42.9343 13.3432C42.6856 12.8481 42.2976 12.5569 41.7303 12.539C41.1466 12.5205 40.7043 12.7732 40.4543 13.2924C40.0326 14.1687 40.0306 15.0657 40.4495 15.944C40.6954 16.4584 41.1301 16.7146 41.7077 16.7043C42.2873 16.694 42.6856 16.4007 42.9391 15.8939C43.1382 15.4949 43.2028 15.0663 43.2028 14.6254L43.2014 14.6261ZM34.3888 11.1099C34.3778 11.1099 34.3675 11.1112 34.3565 11.1119C33.9691 12.2025 33.5818 13.2924 33.191 14.3912H35.5178C35.1387 13.289 34.7637 12.1991 34.3888 11.1099Z" fill="white"/>
<path d="M27.8707 18.0511C27.8707 20.7212 27.8714 23.3907 27.8707 26.0609C27.8707 26.9956 27.2814 27.7187 26.3824 27.8966C25.3722 28.0965 24.3537 27.3335 24.2644 26.3074C24.2541 26.1852 24.248 26.0623 24.248 25.94C24.2473 20.6539 24.2473 15.3685 24.248 10.0824C24.248 9.15324 24.7871 8.43487 25.64 8.22403C26.7258 7.95551 27.815 8.76452 27.8666 9.87915C27.87 9.95745 27.8707 10.0364 27.8707 10.1147C27.8707 12.7602 27.8707 15.4056 27.8707 18.0511Z" fill="white"/>
<path d="M15.9998 18.003C15.9998 20.6725 15.9998 23.3426 15.9998 26.0121C15.9998 26.9915 15.4216 27.7187 14.4999 27.9001C13.4883 28.0985 12.4581 27.3122 12.3874 26.2854C12.3812 26.1975 12.3785 26.1089 12.3785 26.021C12.3785 20.6766 12.3826 15.3321 12.3737 9.98834C12.3723 9.05639 12.9581 8.35451 13.7039 8.15672C14.9078 7.83669 15.9971 8.70339 15.9984 9.9801C16.0012 11.8303 15.9984 13.6804 15.9984 15.5306C15.9984 16.3554 15.9984 17.1795 15.9984 18.0043L15.9998 18.003Z" fill="white"/>
<path d="M58.125 15.0554H53.4323C53.4543 16.2538 54.1136 16.7304 55.073 16.7043C55.4796 16.6933 55.8429 16.5614 56.1471 16.2874C56.2192 16.2222 56.303 16.1508 56.3346 16.0649C56.404 15.8754 56.5338 15.8568 56.7089 15.8609C57.1354 15.8719 57.5619 15.8644 58.0137 15.8644C57.9636 15.9955 57.9231 16.1089 57.8764 16.2201C57.3895 17.3711 56.5083 17.9638 55.2728 18.0449C54.5545 18.0916 53.8608 17.994 53.2235 17.6356C52.422 17.1843 51.9592 16.4838 51.7408 15.6055C51.7305 15.5642 51.7181 15.5237 51.716 15.5162C51.5993 15.8486 51.5073 16.2167 51.3459 16.5511C50.9496 17.3705 50.3082 17.9068 49.3879 18.027C48.7025 18.1163 48.0274 18.038 47.443 17.6266C47.2355 17.4803 47.0728 17.2702 46.8908 17.0903V17.8691H45.2V8.89088H46.9711V12.1551C47.7774 11.2259 48.7677 10.9656 49.8796 11.344C51.0121 11.7293 51.4832 12.6695 51.7023 13.8137C51.7284 13.7299 51.7463 13.6791 51.7614 13.6269C52.1453 12.3014 52.9989 11.4807 54.3697 11.239C56.1327 10.9285 57.6092 11.9209 58.0144 13.6708C58.1181 14.1179 58.1573 14.5698 58.1257 15.0554H58.125ZM46.9121 14.6144C46.9203 15.054 46.9759 15.4846 47.1737 15.8843C47.4272 16.3966 47.8275 16.696 48.4134 16.7057C48.9841 16.7153 49.4181 16.4619 49.6633 15.955C50.0911 15.0684 50.0891 14.1619 49.6557 13.278C49.4133 12.7842 48.9889 12.5342 48.4292 12.5383C47.8756 12.5425 47.4793 12.8034 47.2163 13.2814C46.9883 13.6969 46.9244 14.1502 46.9121 14.6144ZM56.3243 13.9153C56.2213 12.9655 55.6808 12.4923 54.7591 12.5411C54.0181 12.5802 53.4302 13.1846 53.4302 13.9153H56.3243Z" fill="white"/>
<path d="M79.4445 16.01C79.2886 16.2792 79.1526 16.5628 78.972 16.8156C78.5887 17.3526 78.0599 17.7022 77.4295 17.8883C76.6424 18.1204 75.8499 18.1239 75.0656 17.8746C74.1309 17.5772 73.4798 16.9639 73.144 16.0464C72.7938 15.0911 72.7938 14.1193 73.1591 13.1681C73.5835 12.0645 74.4193 11.4477 75.5704 11.2472C76.2798 11.1236 76.9831 11.1696 77.6561 11.4347C78.7227 11.8543 79.3284 12.6626 79.5592 13.7663C79.6443 14.1715 79.6704 14.5822 79.6258 14.9956C79.6203 15.0478 79.6251 15.1014 79.6251 15.1639C79.7109 15.0505 79.7837 14.9359 79.8744 14.8376C80.2315 14.451 80.7019 14.282 81.2005 14.1941C81.741 14.0987 82.2884 14.0382 82.8309 13.9538C82.9992 13.9277 83.1681 13.8858 83.3288 13.8274C83.6434 13.7134 83.7766 13.5287 83.7766 13.2436C83.7766 12.8494 83.6372 12.5706 83.322 12.4827C83.0528 12.4078 82.7636 12.4037 82.4821 12.379C82.3962 12.3714 82.3062 12.3948 82.2204 12.414C81.7726 12.5136 81.524 12.7773 81.4498 13.2306C81.4382 13.3034 81.434 13.3604 81.3338 13.3597C80.7933 13.3556 80.2535 13.3577 79.713 13.357C79.6944 13.357 79.6759 13.3487 79.6464 13.3419C79.6835 12.7203 79.9149 12.1998 80.408 11.811C80.8572 11.4567 81.386 11.2946 81.9429 11.2259C82.6737 11.1353 83.4037 11.1483 84.1214 11.3358C84.2958 11.3811 84.4689 11.4422 84.6317 11.5205C85.2607 11.8227 85.5691 12.3323 85.5712 13.0259C85.5739 14.1447 85.565 15.2641 85.5767 16.3829C85.5808 16.7537 85.6275 17.1253 85.6673 17.4948C85.681 17.6177 85.736 17.7365 85.7758 17.8697H84.6083C84.5005 17.8697 84.392 17.8697 84.2841 17.8697C84.0671 17.8697 83.9382 17.7635 83.8975 17.5511C83.8803 17.4604 83.8686 17.3684 83.8528 17.2668C83.8336 17.2757 83.8144 17.2798 83.802 17.2908C83.1283 17.9151 82.3069 18.084 81.4272 18.0298C81.1339 18.0119 80.831 17.9432 80.5577 17.8347C79.8407 17.5518 79.4912 16.99 79.4451 16.2311C79.4403 16.1528 79.4451 16.0745 79.4451 16.0093L79.4445 16.01ZM74.6776 14.6069C74.6961 14.8164 74.705 15.0279 74.7359 15.236C74.7586 15.3898 74.7998 15.543 74.8506 15.6906C75.078 16.3554 75.5656 16.7043 76.2565 16.7064C76.9556 16.7084 77.4501 16.374 77.6774 15.7126C77.9274 14.9846 77.9246 14.247 77.6733 13.5204C77.4878 12.9834 77.1149 12.6496 76.538 12.5548C75.7888 12.4319 75.1666 12.7677 74.8829 13.4696C74.7353 13.8336 74.6886 14.2168 74.6783 14.6083L74.6776 14.6069ZM83.7533 14.7436C83.5445 14.804 83.3282 14.8802 83.1063 14.9276C82.8625 14.9798 82.6119 15.0018 82.366 15.0451C82.0755 15.0959 81.7877 15.1604 81.5439 15.3411C81.2465 15.5622 81.1957 15.8747 81.2493 16.2105C81.2994 16.5257 81.5075 16.7194 81.8111 16.7785C82.0446 16.8238 82.2884 16.8451 82.5253 16.8334C83.2231 16.7984 83.6695 16.3884 83.7471 15.6954C83.7828 15.3726 83.7533 15.0416 83.7533 14.7429V14.7436Z" fill="white"/>
<path d="M63.9722 26.0059C63.7957 26.271 63.6391 26.556 63.4351 26.8033C62.9839 27.3493 62.3871 27.6638 61.6969 27.8032C60.9346 27.9564 60.1791 27.9289 59.4532 27.6391C58.3544 27.1995 57.7493 26.3534 57.5488 25.21C57.4066 24.4016 57.4657 23.6043 57.807 22.8468C58.2575 21.8468 59.0514 21.2796 60.1166 21.0859C60.824 20.9568 61.5252 20.9987 62.2044 21.2528C63.0855 21.5824 63.6762 22.2019 64.001 23.0796C64.0209 23.1339 64.0415 23.1881 64.0635 23.2458C64.0868 23.0233 64.0903 22.8049 64.1349 22.5947C64.2716 21.9444 64.6878 21.5275 65.2921 21.2885C65.9549 21.0261 66.6492 20.9918 67.3497 21.0392C67.8078 21.0701 68.2535 21.1594 68.6683 21.3682C69.3276 21.6999 69.6772 22.2459 69.7768 22.9649C69.7822 23.0027 69.7768 23.0418 69.7768 23.0899C69.7355 23.0947 69.6985 23.1023 69.6607 23.1023C69.1793 23.1029 68.6978 23.1023 68.2171 23.1023C68.1546 23.1023 68.088 23.1167 68.0756 23.0198C68.0145 22.5405 67.7041 22.3187 67.2584 22.25C66.9411 22.2012 66.6217 22.1971 66.3099 22.2898C66.0716 22.3605 65.8986 22.4972 65.8725 22.7651C65.847 23.0233 65.9679 23.2211 66.1904 23.311C66.5242 23.4463 66.8738 23.5459 67.2213 23.6441C67.7398 23.7897 68.2638 23.9147 68.7816 24.0617C68.9252 24.1022 69.0618 24.1812 69.1909 24.2595C69.8207 24.6427 70.0666 25.2326 69.943 26.0011C69.8083 26.839 69.3097 27.3705 68.5351 27.6405C67.5358 27.9886 66.5173 27.9886 65.5126 27.6659C64.6919 27.4021 64.1452 26.8596 63.9742 26.008L63.9722 26.0059ZM59.2767 24.46C59.2746 24.8906 59.3275 25.3109 59.5116 25.7058C59.776 26.2731 60.2306 26.5368 60.8494 26.5368C61.4737 26.5368 61.9503 26.2813 62.1975 25.6996C62.5361 24.9023 62.532 24.0823 62.2271 23.2774C61.9929 22.6593 61.5115 22.3702 60.8521 22.3702C60.1887 22.3702 59.7348 22.6675 59.4779 23.2801C59.32 23.6572 59.2733 24.0548 59.2767 24.4593V24.46ZM64.1844 23.7375C64.275 24.3584 64.2441 24.9723 64.0813 25.5939H65.6163C65.6238 25.6399 65.6307 25.6728 65.6348 25.7072C65.6863 26.1618 65.9473 26.4441 66.369 26.5904C66.6911 26.7023 67.0255 26.727 67.3552 26.6515C67.542 26.6082 67.7322 26.5347 67.8909 26.4297C68.1264 26.2738 68.2102 26.0272 68.1587 25.7463C68.123 25.5499 67.9863 25.4201 67.8167 25.3494C67.5241 25.2278 67.224 25.1172 66.9191 25.0321C66.4102 24.8899 65.8882 24.7917 65.3828 24.6379C64.8849 24.4868 64.4453 24.232 64.1837 23.7368L64.1844 23.7375Z" fill="white"/>
<path d="M0.503495 21.2136C0.503495 19.6183 0.502121 18.0236 0.503495 16.4282C0.504181 15.5794 0.94921 14.9118 1.68955 14.6392C2.88865 14.1976 4.12622 15.0815 4.12759 16.3884C4.13171 18.9748 4.12896 21.5612 4.12896 24.1475C4.12896 24.7904 4.13171 25.4332 4.12828 26.076C4.12278 26.9949 3.52941 27.7146 2.63455 27.8959C1.60851 28.104 0.546074 27.293 0.51517 26.2477C0.489072 25.3604 0.504868 24.471 0.503495 23.583C0.502121 22.7925 0.503495 22.0027 0.503495 21.2123V21.2136Z" fill="white"/>
<path d="M67.11 17.8718H65.1342V8.89089C65.1843 8.88814 65.2358 8.88333 65.2873 8.88333C66.849 8.88333 68.4107 8.88333 69.9725 8.88196C70.4566 8.88196 70.9223 8.96712 71.3467 9.20474C72.2045 9.68479 72.6145 10.4313 72.6145 11.4058C72.6145 12.039 72.4668 12.6297 71.9984 13.085C71.8055 13.2732 71.5555 13.4037 71.3302 13.5582C71.2918 13.5843 71.2471 13.6008 71.1736 13.6379C71.6708 13.7745 72.0163 14.0602 72.2045 14.5004C72.3192 14.7676 72.403 15.0554 72.451 15.3417C72.5087 15.6837 72.5163 16.0347 72.5389 16.3815C72.5733 16.8904 72.609 17.3979 72.8693 17.878C72.769 17.878 72.6873 17.878 72.6056 17.878C72.0802 17.878 71.5548 17.8746 71.0294 17.8807C70.9264 17.8821 70.8714 17.8498 70.8563 17.7516C70.7904 17.3217 70.7231 16.8911 70.6613 16.4605C70.6091 16.0972 70.5912 15.7263 70.5102 15.3699C70.3612 14.7168 70.0068 14.407 69.3351 14.3789C68.6003 14.348 67.8627 14.372 67.11 14.372V17.8718ZM67.1121 12.9449C67.1485 12.9476 67.1773 12.9525 67.2055 12.9525C67.9218 12.9525 68.6388 12.9525 69.3551 12.9497C69.4622 12.9497 69.5707 12.936 69.6772 12.9195C70.1627 12.846 70.493 12.574 70.5809 12.1187C70.6297 11.8687 70.6338 11.6002 70.6043 11.3468C70.5487 10.8715 70.2602 10.5803 69.7925 10.4773C69.6497 10.4457 69.502 10.4238 69.3564 10.4224C68.6449 10.4162 67.9334 10.419 67.2213 10.419C67.1876 10.419 67.1546 10.4238 67.1121 10.4272V12.9449Z" fill="white"/>
<path d="M52.7661 22.0027V18.7275H54.5496V27.6995H52.8657V26.9077C52.8471 26.8946 52.8286 26.8809 52.8094 26.8678C52.8046 26.8919 52.8066 26.92 52.7943 26.9393C52.3856 27.5697 51.7771 27.8465 51.0533 27.8815C49.6852 27.9474 48.664 27.2751 48.2046 25.986C47.7815 24.7986 47.7939 23.6112 48.3824 22.4759C49.1901 20.917 50.8967 20.7817 51.8973 21.2569C52.2139 21.4073 52.4804 21.6181 52.6844 21.9045C52.7029 21.9299 52.7242 21.9533 52.7661 22.0034V22.0027ZM52.8705 24.4566C52.8574 24.4538 52.8437 24.4518 52.8306 24.449C52.8341 24.0637 52.7901 23.6846 52.6521 23.3227C52.4371 22.7602 52.0477 22.4162 51.4283 22.375C50.7854 22.3324 50.2635 22.5535 49.9888 23.1545C49.6042 23.9958 49.6056 24.8597 49.9963 25.7017C50.2814 26.3157 50.793 26.5828 51.4825 26.5293C52.0553 26.4853 52.4989 26.1193 52.6775 25.4909C52.773 25.155 52.8087 24.8013 52.8712 24.4559L52.8705 24.4566Z" fill="white"/>
<path d="M90.7178 8.8902H92.4999V17.8677H90.8098V17.0278C90.7164 17.1514 90.6539 17.2434 90.5818 17.3279C90.1766 17.8011 89.6423 18.0133 89.0372 18.0449C87.6211 18.119 86.593 17.4323 86.1329 16.0862C85.7373 14.9297 85.7579 13.7766 86.3169 12.6716C87.0875 11.1497 88.7268 10.9443 89.7769 11.3921C90.123 11.5398 90.4115 11.7609 90.6333 12.0672C90.6518 12.0933 90.6745 12.116 90.7178 12.1668V8.88951V8.8902ZM90.818 14.7319C90.7864 14.3157 90.7535 13.9119 90.6154 13.5218C90.4039 12.9257 89.9589 12.5713 89.3827 12.5411C88.6884 12.5047 88.1788 12.7684 87.926 13.3446C87.5586 14.1825 87.5579 15.0361 87.9439 15.8664C88.2131 16.4447 88.6877 16.7345 89.3401 16.7029C89.987 16.672 90.4067 16.3286 90.6038 15.7332C90.7109 15.4111 90.7487 15.0663 90.818 14.7319Z" fill="white"/>
<path d="M57.4884 11.3633C58.1134 11.3633 58.717 11.3653 59.3207 11.3612C59.4237 11.3605 59.4237 11.4319 59.4443 11.4931C59.8523 12.7251 60.2602 13.9565 60.6675 15.1886C60.7362 15.3967 60.8062 15.6055 60.8879 15.8513C60.9284 15.7346 60.9587 15.6542 60.9848 15.5732C61.4188 14.2161 61.8535 12.8591 62.2821 11.4999C62.3164 11.39 62.3624 11.3591 62.4744 11.3605C62.9901 11.3667 63.5059 11.3633 64.021 11.3633C64.0684 11.3633 64.1164 11.3633 64.1831 11.3633C64.0299 11.7746 63.8836 12.1682 63.7373 12.5617C62.9695 14.6275 62.2038 16.694 61.4325 18.7584C61.2553 19.2323 60.9923 19.6464 60.5308 19.8992C60.2595 20.0475 59.9656 20.1189 59.66 20.1478C59.149 20.1958 58.6408 20.1636 58.1237 20.1086V18.6396C58.2741 18.6513 58.419 18.665 58.5646 18.674C58.7411 18.6843 58.9176 18.698 59.0941 18.6966C59.5 18.6932 59.8145 18.4164 59.8379 18.0112C59.8488 17.8217 59.8241 17.615 59.7582 17.4378C59.0316 15.477 58.294 13.5204 57.5591 11.5624C57.5372 11.5034 57.5166 11.4436 57.4884 11.3633Z" fill="white"/>
<path d="M55.2302 21.2033H57.0021V27.7023H55.2302V21.2033Z" fill="white"/>
<path d="M55.2302 18.7227H57V20.1807H55.2302V18.7227Z" fill="white"/>
</g>
<defs>
<clipPath id="clip0_1278_415">
<rect width="92" height="27.1797" fill="white" transform="translate(0.5 0.773926)"/>
</clipPath>
</defs>
</svg>
