<svg width="93" height="10" viewBox="0 0 93 10" fill="none" xmlns="http://www.w3.org/2000/svg">
<g clip-path="url(#clip0_1278_403)">
<path d="M32.7321 9.2024C29.9105 8.23299 28.7208 6.07536 29.4562 3.26133C30.029 1.07179 31.9587 -0.171123 34.3488 0.111495C36.6341 0.381959 38.1475 2.17036 38.1262 4.5787C38.1049 7.11315 37.1978 8.33783 34.7044 9.2024H32.7321ZM31.591 4.55894C31.7399 5.17128 31.8053 5.72285 32.0119 6.21667C32.3067 6.91562 32.8962 7.25142 33.6848 7.26661C34.4826 7.28029 35.0767 6.93689 35.3851 6.25314C35.8896 5.1333 35.8911 3.97243 35.2788 2.88906C34.6132 1.71148 32.8248 1.68717 32.1532 2.86019C31.8554 3.37984 31.7642 4.01498 31.591 4.56198V4.55894Z" fill="white"/>
<path d="M87.3414 9.2024C86.5178 8.79823 85.6913 8.39709 84.8708 7.98532C84.6003 7.85009 84.3465 7.68295 83.9971 7.47934C84.7462 6.87459 85.2293 6.48409 85.5727 6.20603C86.4935 6.60717 87.3034 7.0311 88.1634 7.3046C88.5585 7.43072 89.0751 7.33651 89.4884 7.20128C89.736 7.12075 90.0491 6.76823 90.0491 6.5388C90.0491 6.31695 89.7224 5.96596 89.4747 5.89758C88.6527 5.67119 87.7957 5.5709 86.963 5.37337C85.9648 5.13786 85.1093 4.67746 84.772 3.63512C84.3557 2.3451 84.9604 1.12345 86.2838 0.512633C88.1194 -0.335223 90.6477 0.0871859 92.1748 1.52763C91.7326 1.99106 91.292 2.45298 90.9577 2.80397C90.1402 2.48033 89.4793 2.19771 88.8016 1.96371C88.5737 1.8847 88.2576 1.84064 88.0616 1.93788C87.7137 2.1111 87.428 2.40284 87.1165 2.64595C87.3855 2.90122 87.6118 3.28412 87.9309 3.3844C88.6709 3.6184 89.4565 3.70957 90.2208 3.86911C91.2646 4.08639 92.0775 4.60301 92.4969 5.61497V6.95968C92.0274 8.32112 90.9243 8.89091 89.6145 9.2024C88.8563 9.2024 88.0981 9.2024 87.3384 9.2024H87.3414Z" fill="white"/>
<path d="M70.6289 5.71676C71.2914 6.81077 71.9432 7.88807 72.6619 9.07172C71.7928 9.07172 71.0437 9.10211 70.2992 9.05045C70.1107 9.03829 69.8904 8.80126 69.7719 8.61437C69.3692 7.98531 68.9712 7.34714 68.6338 6.68162C68.3026 6.02673 67.8513 5.74715 67.0612 6.0161V9.00791H64.6589V0.154037C66.5172 0.239127 68.3558 0.226971 70.167 0.438176C71.3385 0.574927 72.0708 1.42278 72.2517 2.60948C72.4249 3.74755 72.1559 4.7352 71.1014 5.39464C70.954 5.48733 70.8142 5.58913 70.6304 5.71524L70.6289 5.71676ZM67.0901 2.17795V4.04232C67.7753 4.04232 68.4059 4.08639 69.0274 4.02865C69.5546 3.98003 69.9102 3.6731 69.8965 3.08811C69.8813 2.50767 69.5303 2.2205 68.9909 2.18707C68.3694 2.14908 67.7419 2.17795 67.0916 2.17795H67.0901Z" fill="white"/>
<path d="M19.437 9.00183C19.285 9.04285 19.2607 9.05349 19.2364 9.05501C17.6805 9.14719 16.5161 8.5313 15.7432 7.20735C15.6307 7.01286 15.4864 6.83204 15.4028 6.62692C15.1232 5.9386 14.6157 5.79122 13.8682 6.0161V9.01246H11.5145V0.14492C13.3743 0.240646 15.2357 0.246724 17.0712 0.464006C18.188 0.596199 18.8808 1.43038 19.0556 2.55022C19.2349 3.705 19.007 4.73823 17.9054 5.41135C17.7777 5.48885 17.6546 5.57394 17.448 5.70765C18.1044 6.79406 18.7517 7.86679 19.4354 9.00031L19.437 9.00183ZM13.8879 4.11374C14.64 4.07119 15.3587 4.11982 16.0212 3.95116C16.316 3.8767 16.6898 3.35401 16.6731 3.05316C16.6579 2.75383 16.2355 2.29191 15.9255 2.22961C15.2782 2.10198 14.5869 2.19163 13.8879 2.19163V4.11374Z" fill="white"/>
<path d="M79.5451 3.7354C80.8397 5.59217 82.0066 7.26661 83.2647 9.07173C82.3029 9.07173 81.4809 9.09908 80.6619 9.05045C80.4735 9.03982 80.2577 8.79822 80.1255 8.61285C79.4053 7.60241 78.7064 6.57526 77.9862 5.53443C76.5153 6.44915 77.4559 7.87743 77.0456 9.02462H74.7847V0.274078H77.1185V3.18535C77.193 3.23702 77.269 3.28868 77.3434 3.34034C77.8722 2.76447 78.4876 2.24329 78.9115 1.60056C79.9706 -0.00246298 81.5143 0.116054 83.1265 0.29687C81.9322 1.44254 80.75 2.57757 79.5451 3.7354Z" fill="white"/>
<path d="M9.27936 9.07477C8.77794 9.07477 8.39504 9.03374 8.02733 9.08237C7.12933 9.2024 6.52307 9.00031 6.43038 7.97316C6.41519 7.81362 6.08546 7.59634 5.87122 7.55683C5.50655 7.48846 5.11757 7.53708 4.73923 7.53708C3.53126 7.53708 3.54493 7.54316 3.09518 8.65996C3.02376 8.83621 2.77001 9.04134 2.58768 9.05502C1.93735 9.10364 1.28095 9.07325 0.501465 9.07325C0.758253 8.27705 0.981613 7.55683 1.22321 6.84269C1.90392 4.84156 2.60895 2.84804 3.26535 0.839318C3.41426 0.383481 3.61027 0.187471 4.10561 0.223938C4.83191 0.277119 5.73295 0.0218506 6.24045 0.360689C6.70844 0.672178 6.76466 1.59449 6.98802 2.25089C7.66266 4.2277 8.33274 6.20452 9.0013 8.18285C9.08791 8.43812 9.16084 8.69794 9.27784 9.07325L9.27936 9.07477ZM4.94435 2.78878C4.90029 2.78878 4.85623 2.78878 4.81064 2.78878C4.55537 3.70501 4.29858 4.62124 4.02812 5.59218H5.71928C5.45185 4.62884 5.1981 3.70805 4.94283 2.78878H4.94435Z" fill="white"/>
<path d="M62.4452 9.07325C61.6414 9.07325 60.9576 9.12339 60.2875 9.04438C60.0779 9.02007 59.7907 8.66603 59.7481 8.42748C59.619 7.69358 59.2452 7.40944 58.5113 7.53252C58.3396 7.56139 58.1588 7.53708 57.981 7.53708C56.7031 7.53708 56.7138 7.54164 56.22 8.70554C56.1516 8.86508 55.9161 9.0459 55.7474 9.05653C55.0743 9.09604 54.3966 9.07325 53.6187 9.07325C54.6336 6.08904 55.6183 3.19751 56.6257 0.234574C57.4446 0.234574 58.2743 0.214821 59.1024 0.251288C59.2665 0.258885 59.5141 0.448817 59.5688 0.606841C60.5261 3.37985 61.4606 6.16045 62.4452 9.07325ZM58.0859 2.76751C58.0418 2.76751 57.9962 2.76599 57.9521 2.76447C57.6954 3.69893 57.4401 4.6334 57.1787 5.58154H58.8501C58.5842 4.60301 58.335 3.68526 58.0859 2.76751Z" fill="white"/>
<path d="M45.26 0.348533C47.0363 0.348533 48.7578 0.236093 50.455 0.380441C52.093 0.518712 52.9545 1.70541 52.8877 3.33274C52.8284 4.78534 51.8666 5.77299 50.2788 5.9067C49.4324 5.97812 48.5755 5.91886 47.6349 5.91886V9.02918H45.26V0.348533ZM47.6608 4.10463C48.4007 4.0712 49.0982 4.0788 49.7849 3.99675C50.3213 3.93293 50.61 3.50292 50.4611 3.03037C50.3563 2.70065 49.9916 2.28128 49.6801 2.21898C49.0359 2.09287 48.3506 2.181 47.6608 2.181V4.10311V4.10463Z" fill="white"/>
<path d="M27.6845 9.03526H21.8513V0.28775H24.173V7.09491H27.683V9.03374L27.6845 9.03526Z" fill="white"/>
</g>
<defs>
<clipPath id="clip0_1278_403">
<rect width="92" height="9.13041" fill="white" transform="translate(0.5 0.071991)"/>
</clipPath>
</defs>
</svg>
