<svg width="93" height="54" viewBox="0 0 93 54" fill="none" xmlns="http://www.w3.org/2000/svg">
<g clip-path="url(#clip0_1278_148)">
<path d="M2.04779 53.4884C2.02013 53.2604 1.96787 53.0323 1.96787 52.8043C1.96326 42.4904 1.96326 32.178 1.96326 21.8641C1.96326 21.6857 1.96326 21.5073 1.96326 21.2685H3.34809V51.9604H89.6351C89.5843 52.539 89.5444 53.0137 89.5029 53.4884H2.04779Z" fill="white"/>
<path d="M89.9978 0V36.2236H88.6391V1.35419H2.15845V0H89.9978Z" fill="white"/>
<path d="M32.2773 32.8776V20.1935C33.7083 20.3346 35.1392 20.2803 36.4549 20.6495C38.4668 21.2142 39.2292 24.0063 37.9904 25.708C37.8889 25.8476 37.7798 25.9826 37.6338 26.1702C38.7281 26.6868 39.429 27.4841 39.6534 28.6661C40.0315 30.6563 38.8403 32.5875 36.8499 32.8419C35.3713 33.0296 33.8512 32.8792 32.2789 32.8792L32.2773 32.8776ZM34.194 31.2737C34.9717 31.2101 35.711 31.2147 36.4226 31.0767C37.2787 30.9107 37.8121 30.2049 37.8459 29.3859C37.8812 28.5405 37.3679 27.7633 36.4903 27.5694C35.7633 27.4097 34.9994 27.4174 34.194 27.3476V31.2752V31.2737ZM34.1479 25.7064C35.1377 25.7855 36.0322 25.8491 36.5394 24.9184C36.9175 24.2235 36.9268 23.4588 36.461 22.7979C35.897 21.996 35.0578 22.0208 34.1479 22.1418C34.1479 23.1113 34.1479 24.0311 34.1479 24.951C34.1479 25.1775 34.1479 25.404 34.1479 25.7064Z" fill="white"/>
<path d="M0.5 5.91782C1.71115 5.91782 2.9054 5.76891 4.04739 5.94885C6.55884 6.34285 7.6209 9.27927 6.07622 11.3377C6.01628 11.4168 5.96402 11.5006 5.86873 11.6402C7.0599 12.2467 7.80227 13.1588 7.90986 14.5161C8.06817 16.4985 6.81091 18.1909 4.85124 18.3786C3.43566 18.5135 1.99703 18.405 0.5 18.405L0.5 5.91782ZM2.37667 16.7793C3.23278 16.6893 4.02741 16.6816 4.78207 16.5032C5.56748 16.3186 6.03011 15.6066 6.04548 14.8434C6.06085 14.0259 5.61666 13.2829 4.81128 13.0844C4.0397 12.8936 3.22509 12.8765 2.37667 12.7772V16.7793ZM2.3444 11.1965C3.29426 11.2943 4.15344 11.3206 4.69139 10.4908C5.14327 9.79271 5.1448 8.98919 4.6837 8.29736C4.13807 7.47678 3.2835 7.49849 2.39973 7.62104C2.37667 7.75134 2.34593 7.84906 2.34593 7.94679C2.34286 9.0016 2.3444 10.0564 2.3444 11.1965Z" fill="white"/>
<path d="M30.9356 18.4686H29.1019C29.1019 17.1268 29.1142 15.8176 29.0958 14.5084C29.0881 13.9685 29.0451 13.4241 28.9667 12.8905C28.8868 12.3491 28.5363 11.9055 28.003 11.9737C27.5572 12.0311 26.9547 12.2917 26.7718 12.6469C26.4936 13.1867 26.4521 13.8817 26.4291 14.5161C26.383 15.8036 26.4153 17.0927 26.4153 18.4453H24.6247C24.6108 18.1878 24.5847 17.9148 24.5816 17.6433C24.5601 16.2224 24.5801 14.8 24.514 13.3822C24.4725 12.4763 24.0314 11.9861 23.3966 11.9365C22.6804 11.8806 22.084 12.3537 21.9764 13.2674C21.8596 14.2633 21.8919 15.2762 21.8734 16.2829C21.8611 16.9779 21.8704 17.6744 21.8704 18.4391H20.0813V10.635C21.1541 10.3294 21.7336 10.438 21.8934 10.8398C22.5989 10.6412 23.2982 10.2565 23.9668 10.3062C24.6431 10.3574 25.2871 10.8382 26.0633 11.1841C26.5797 10.6583 27.3574 10.2224 28.3396 10.2503C29.6645 10.2876 30.5667 10.9437 30.7757 12.2607C30.9371 13.2721 30.9064 14.316 30.9294 15.3476C30.9525 16.3745 30.934 17.4029 30.934 18.4717L30.9356 18.4686Z" fill="white"/>
<path d="M35.2023 17.8884C34.8504 19.0161 33.9758 18.2948 33.2949 18.5539V4.67685H35.0871V11.1934C37.6923 9.92145 39.22 10.0657 40.4235 11.6464C41.6946 13.3155 41.647 15.9029 40.3144 17.4773C39.0541 18.968 37.3511 19.1045 35.2023 17.8884ZM39.4368 14.5859C39.4475 13.0456 38.5422 11.9427 37.2542 11.9271C35.9447 11.9116 34.9856 13.0021 34.9825 14.5099C34.9795 15.9928 35.8832 17.0461 37.1789 17.0709C38.4807 17.0957 39.4275 16.0549 39.4383 14.5859H39.4368Z" fill="white"/>
<path d="M84.4539 35.0958H86.2368V41.6993C86.4289 41.6031 86.5257 41.5783 86.5918 41.5178C88.1918 40.0333 91.4718 40.449 92.3079 43.6181C92.6691 44.9878 92.5477 46.3404 91.7377 47.5612C90.6203 49.2427 88.49 49.6833 86.8039 48.5881C86.6579 48.4935 86.5165 48.3942 86.3167 48.2593C86.2598 48.5183 86.2183 48.7091 86.1707 48.9232H84.4539V35.0958ZM90.5942 44.949C90.5849 43.4661 89.6535 42.3802 88.3963 42.3849C87.0668 42.3896 86.1307 43.4614 86.1384 44.9707C86.1461 46.4537 87.0668 47.5287 88.3363 47.5411C89.632 47.5535 90.6034 46.4382 90.5926 44.949H90.5942Z" fill="white"/>
<path d="M69.0685 39.084C65.993 37.2939 63.8273 37.4537 62.1397 39.5074C60.6811 41.2836 60.6872 43.9919 62.152 45.7293C63.8396 47.7288 66.0498 47.8529 69.0639 46.0395C69.0639 46.7314 69.1008 47.3627 69.0424 47.9847C69.0239 48.174 68.7765 48.4051 68.5797 48.5059C65.7332 49.9579 62.2304 49.0892 60.3476 46.4816C58.5063 43.9315 58.7814 40.3156 60.9916 38.0152C62.9159 36.0126 65.8439 35.4386 68.3446 36.5229C68.901 36.7649 69.1499 37.069 69.0777 37.6848C69.027 38.1098 69.0685 38.5472 69.0685 39.084Z" fill="white"/>
<path d="M49.0583 11.1919C49.1013 10.9654 49.1413 10.7576 49.1858 10.528H50.8919V18.391C49.65 18.7059 49.2366 18.5958 49.0245 17.8015C48.0269 18.6361 46.8803 19.0285 45.6861 18.5647C44.9606 18.284 44.2152 17.786 43.7372 17.1795C42.4661 15.5678 42.6475 12.9091 43.9846 11.4463C45.328 9.97886 46.885 9.89044 49.0598 11.1903L49.0583 11.1919ZM49.2504 14.4789C49.2366 12.9804 48.259 11.8961 46.948 11.9272C45.6984 11.9566 44.7562 13.0875 44.7747 14.5347C44.7946 16.0068 45.7353 17.0802 47.0048 17.074C48.3313 17.0678 49.2658 15.9882 49.2519 14.4789H49.2504Z" fill="white"/>
<path d="M81.9208 29.4526H76.4584C76.383 30.3693 76.7888 31.1 77.5619 31.4211C78.979 32.0105 79.8305 31.1946 80.5468 30.056C81.0786 30.3538 81.5627 30.6253 82.0423 30.8937C81.2523 32.6232 79.6814 33.4609 77.7433 33.2204C76.0234 33.0064 74.803 31.8756 74.5202 30.087C74.4065 29.3626 74.4049 28.5824 74.5386 27.8626C74.9552 25.6149 76.838 24.4143 79.1158 24.8564C81.1078 25.2426 82.3266 27.194 81.9208 29.4526ZM80.0227 27.8735C79.7798 26.9055 79.2342 26.4696 78.3289 26.4634C77.4144 26.4572 76.8119 26.9241 76.5613 27.8735H80.0227Z" fill="white"/>
<path d="M18.0602 14.499C18.0648 16.9468 16.2911 18.7199 13.8381 18.7183C11.3835 18.7183 9.58829 16.8972 9.5929 14.4153C9.59752 12.104 11.4942 10.2426 13.8442 10.2441C16.242 10.2457 18.0556 12.0761 18.0602 14.4975V14.499ZM11.4972 14.4897C11.4727 16.0285 12.4056 17.0632 13.8273 17.074C15.2291 17.0833 16.1743 16.0968 16.1928 14.6061C16.2127 12.999 15.2952 11.9427 13.8673 11.9303C12.4748 11.9179 11.5218 12.9463 11.4972 14.4897Z" fill="white"/>
<path d="M53.3035 37.3838C54.2042 35.6822 54.9788 34.1124 55.8595 32.6062C56.3022 31.8476 56.3145 31.2628 55.8595 30.4996C54.822 28.7545 53.886 26.9489 52.8193 25.0053C53.5402 25.0053 54.1396 24.965 54.7283 25.0286C54.9143 25.0487 55.1187 25.3233 55.2309 25.528C55.9333 26.8155 56.6126 28.1154 57.3781 29.5596C57.6962 28.9438 57.9652 28.4427 58.2173 27.9324C58.5846 27.194 58.9796 26.4665 59.2901 25.7049C59.5222 25.1371 59.8572 24.9076 60.4597 24.9867C60.8317 25.0348 61.2129 24.996 61.7339 24.996C61.1145 26.2214 60.555 27.3352 59.9879 28.4458C58.6169 31.131 57.2198 33.8021 55.8856 36.5043C55.5567 37.1698 55.1925 37.5219 54.4347 37.3931C54.115 37.3389 53.78 37.3838 53.3035 37.3838Z" fill="white"/>
<path d="M52.4274 10.4969C53.0775 10.4969 53.6385 10.4411 54.1811 10.5233C54.4147 10.5574 54.6791 10.8335 54.8082 11.0678C55.5152 12.3429 56.1853 13.6397 56.9415 15.0668C57.564 13.8056 58.1865 12.7105 58.6507 11.5533C58.995 10.6955 59.4853 10.3403 60.3767 10.4923C60.6211 10.5342 60.8778 10.4985 61.2774 10.4985C60.7133 11.606 60.2046 12.6081 59.6943 13.6071C58.2741 16.3837 56.8216 19.1433 55.4491 21.9448C55.0879 22.6831 54.6622 23.0027 53.8706 22.877C53.5986 22.8336 53.3127 22.8708 52.9315 22.8708C53.0268 22.6195 53.0775 22.4349 53.1636 22.2705C53.9797 20.7193 54.7897 19.165 55.6335 17.6293C55.8718 17.1966 55.8856 16.8646 55.6335 16.4225C54.6652 14.7208 53.7415 12.9928 52.8055 11.2725C52.6856 11.0538 52.5857 10.8242 52.4274 10.5V10.4969Z" fill="white"/>
<path d="M75.3578 40.9702H77.1377C77.1377 42.4206 77.1331 43.8368 77.1407 45.2531C77.1423 45.6129 77.1484 45.9821 77.2207 46.3312C77.3867 47.1223 77.9092 47.5271 78.6946 47.5318C79.4293 47.5349 79.9949 47.1533 80.1241 46.3901C80.2485 45.6595 80.2393 44.9025 80.2547 44.1564C80.2747 43.1248 80.2593 42.0917 80.2593 40.9966H81.9408C81.9408 42.9868 82.0776 44.9754 81.8962 46.9346C81.7579 48.4299 80.1748 49.2815 78.3411 49.1652C76.7427 49.0644 75.4593 48.0266 75.3809 46.5545C75.2841 44.7288 75.3578 42.8921 75.3578 40.9718V40.9702Z" fill="white"/>
<path d="M68.861 27.7215C67.118 26.2401 65.8976 26.1067 64.8463 27.1847C63.9503 28.1046 63.9134 29.8109 64.7679 30.8068C65.7439 31.9438 66.9105 31.8383 68.8594 30.374C68.8594 31.1 68.8886 31.7608 68.8394 32.4154C68.8272 32.5783 68.5874 32.7768 68.4076 32.8652C66.6415 33.7246 64.336 33.177 63.1326 31.632C61.9737 30.1444 61.9768 27.9603 63.1372 26.4526C64.3437 24.8874 66.6538 24.3011 68.3937 25.1511C68.5981 25.2504 68.8179 25.5343 68.841 25.7514C68.9025 26.3564 68.8625 26.9722 68.8625 27.7199L68.861 27.7215Z" fill="white"/>
<path d="M52.1246 30.3817C52.1246 30.8316 52.1246 31.1635 52.1246 31.4939C52.1261 32.8357 52.0524 32.9241 50.7167 33.1708C48.837 33.5183 47.0248 32.7504 46.1334 31.2256C45.2373 29.6946 45.3818 27.7121 46.4854 26.3641C47.6673 24.9231 49.6347 24.4081 51.4314 25.0348C51.934 25.21 52.1968 25.4536 52.1354 26.0337C52.0816 26.5379 52.1246 27.0513 52.1246 27.8052C51.2977 26.8512 50.4723 26.2044 49.3688 26.5239C48.86 26.6713 48.3359 27.0079 47.9839 27.4081C47.154 28.3528 47.2662 29.9815 48.1238 30.8905C49.1121 31.936 50.1957 31.8166 52.1231 30.3802L52.1246 30.3817Z" fill="white"/>
<path d="M71.1788 48.9635V35.0927H72.9325C72.9479 35.358 72.9725 35.5844 72.9725 35.8109C72.9725 39.8146 72.9664 43.8166 72.9679 47.8203C72.9679 49.1155 73.0601 48.9511 71.7998 48.962C71.623 48.962 71.4447 48.962 71.1788 48.962V48.9635Z" fill="white"/>
<path d="M72.4238 32.9769H70.6824V19.193H72.4238V32.9769Z" fill="white"/>
<path d="M43.5712 24.9975V32.949H41.7683C41.7683 31.9997 41.7683 31.0767 41.7683 30.1537C41.7683 28.7328 41.8083 27.3119 41.7514 25.8941C41.7238 25.1837 41.9159 24.8874 42.6367 24.9913C42.9103 25.0317 43.1947 24.9975 43.5712 24.9975Z" fill="white"/>
<path d="M42.6998 22.9003C42.0758 22.9096 41.5209 22.3729 41.4948 21.7354C41.4671 21.0621 42.0097 20.482 42.6783 20.4727C43.3069 20.4634 43.8464 20.9877 43.8725 21.6361C43.9002 22.314 43.3638 22.891 42.6998 22.9019V22.9003Z" fill="white"/>
</g>
<defs>
<clipPath id="clip0_1278_148">
<rect width="92" height="53.4884" fill="white" transform="translate(0.5)"/>
</clipPath>
</defs>
</svg>
