<svg width="93" height="21" viewBox="0 0 93 21" fill="none" xmlns="http://www.w3.org/2000/svg">
<path d="M47.5131 11.1178C47.5438 12.7958 47.308 14.4283 46.5609 15.9524C46.0551 16.9838 45.377 17.8829 44.4074 18.5289C43.6996 19.0012 42.9192 19.2629 42.0662 19.3268C38.7283 19.5757 36.783 17.2629 36.0517 15.1101C35.4871 13.4475 35.3598 11.7337 35.4713 9.99542C35.5602 8.60519 35.843 7.26148 36.5314 6.03379C37.3542 4.56588 38.4997 3.45831 40.1756 3.04226C42.8476 2.37884 45.241 3.55439 46.5154 6.11199C47.1602 7.40664 47.4302 8.79328 47.511 10.2244C47.5279 10.5213 47.5136 10.8198 47.5136 11.1173L47.5131 11.1178ZM39.8314 11.1127C39.9122 11.8727 39.9715 12.6358 40.0805 13.3923C40.1592 13.9412 40.327 14.4738 40.6808 14.92C41.1222 15.4766 41.8253 15.5062 42.2452 14.9343C42.4948 14.5939 42.6855 14.1794 42.7909 13.7695C43.2061 12.1533 43.1534 10.5116 42.9095 8.87813C42.8369 8.39155 42.6778 7.89322 42.4472 7.45979C42.036 6.68751 41.1646 6.66859 40.6681 7.39284C40.4875 7.65606 40.3474 7.95659 40.2431 8.25917C39.925 9.18122 39.8964 10.1447 39.8309 11.1132L39.8314 11.1127Z" fill="white"/>
<path d="M79.6277 11.1234C79.6129 12.8551 79.3664 14.5366 78.5604 16.0945C77.8803 17.4091 76.949 18.4783 75.5253 19.0237C73.3442 19.8588 70.7616 19.1075 69.2955 17.247C68.3882 16.096 67.9024 14.7779 67.6887 13.3508C67.4074 11.4735 67.4089 9.60082 67.9126 7.75418C68.3371 6.19734 69.14 4.88429 70.442 3.89785C72.5428 2.30625 76.2939 2.35736 78.2014 5.4276C79.0253 6.75445 79.4124 8.21111 79.5505 9.747C79.5914 10.2044 79.6031 10.6644 79.6282 11.1234H79.6277ZM75.1642 10.9062C75.1376 10.4999 75.1172 9.92078 75.0579 9.34578C74.9883 8.67571 74.8835 8.00667 74.5137 7.42247C74.0627 6.70947 73.2419 6.66551 72.7745 7.36522C72.5198 7.746 72.3127 8.19118 72.2125 8.63636C71.8391 10.2934 71.855 11.9662 72.2079 13.6253C72.2994 14.0567 72.484 14.4906 72.7213 14.8632C73.1309 15.5062 73.9052 15.5036 74.3659 14.8939C74.5071 14.7068 74.6165 14.4881 74.7045 14.2693C75.1162 13.244 75.1366 12.1615 75.1642 10.9072V10.9062Z" fill="white"/>
<path d="M25.1748 3.17566H33.1153V6.88888H29.4649V9.20626C29.5498 9.21188 29.6393 9.22261 29.7283 9.22261C30.657 9.22364 31.5862 9.22824 32.5149 9.21904C32.7087 9.21699 32.7609 9.27833 32.7593 9.46641C32.7511 10.5055 32.7506 11.5446 32.7593 12.5837C32.7609 12.7799 32.6934 12.828 32.5077 12.8254C31.5964 12.8127 30.6846 12.8111 29.7728 12.8081C29.6725 12.8081 29.5723 12.8219 29.4573 12.83V15.2496H33.1168V19.0508H25.1743V3.17566H25.1748Z" fill="white"/>
<path d="M57.1135 13.8144C57.473 14.1594 57.8018 14.5172 58.1741 14.8218C58.6988 15.2512 59.3145 15.4628 60.0023 15.4111C60.6165 15.3651 61.0558 14.9793 61.0891 14.4543C61.1136 14.0731 60.9612 13.7449 60.6932 13.4914C60.3726 13.1878 60.0284 12.9082 59.6807 12.6353C59.0021 12.1027 58.3403 11.5548 57.8519 10.8306C57.3231 10.047 57.0685 9.19246 57.0521 8.23822C57.0286 6.83879 57.4402 5.59731 58.3117 4.52244C59.3631 3.22626 60.7684 2.75195 62.4044 2.89813C63.2282 2.97173 64.0066 3.21399 64.744 3.58302C64.8248 3.62339 64.925 3.73277 64.9255 3.81046C64.9363 5.34277 64.9337 6.87559 64.9337 8.47742C64.8176 8.32817 64.7384 8.22493 64.6581 8.12322C64.2837 7.64942 63.8588 7.22059 63.2906 7.00184C62.9669 6.87713 62.5951 6.79842 62.2525 6.81988C61.3903 6.87406 61.0159 7.73733 61.5386 8.42273C61.7012 8.63586 61.9155 8.81475 62.1241 8.98751C62.7526 9.50884 63.4215 9.98571 64.0158 10.5423C64.9516 11.4183 65.3699 12.5382 65.3909 13.8165C65.4114 15.0483 65.1654 16.2069 64.4469 17.2266C63.4169 18.6889 61.9917 19.385 60.2049 19.3457C59.2071 19.3237 58.2493 19.106 57.3134 18.7702C57.1656 18.717 57.0884 18.6501 57.0889 18.485C57.0935 16.9521 57.0935 15.4193 57.0961 13.886C57.0961 13.862 57.1068 13.8374 57.113 13.8124L57.1135 13.8144Z" fill="white"/>
<path d="M12.7541 7.75368C12.5997 7.62744 12.4734 7.51857 12.3409 7.41686C11.0036 6.39004 9.33953 6.76468 8.56783 8.2653C8.25537 8.8725 8.09786 9.52366 8.04109 10.1999C7.94955 11.2855 7.97512 12.3629 8.35253 13.403C8.99945 15.1847 10.7474 15.7515 12.3179 14.691C12.5209 14.554 12.7132 14.4007 12.9091 14.256C12.9091 14.5755 12.9224 14.8929 12.9065 15.2082C12.8508 16.3225 12.7828 17.4357 12.726 18.5494C12.7183 18.7007 12.6835 18.7947 12.5255 18.855C10.7413 19.5343 8.97746 19.5619 7.2648 18.6511C5.89579 17.9227 4.95636 16.7896 4.357 15.3718C3.72032 13.8661 3.57559 12.2811 3.62622 10.667C3.68298 8.85257 4.0875 7.14188 5.14864 5.63359C6.39082 3.86668 8.11422 2.97939 10.259 2.88177C11.0491 2.84599 11.8229 2.93697 12.5756 3.19201C12.7025 3.23495 12.773 3.28197 12.7725 3.43633C12.7659 4.83268 12.7679 6.22955 12.7669 7.6259C12.7669 7.65657 12.7608 7.68724 12.7541 7.75368Z" fill="white"/>
<path d="M89.7978 19.0569H82.313V3.18332H86.5852V15.2558C86.9396 15.2558 87.2623 15.2558 87.5844 15.2558C88.258 15.2558 88.931 15.2578 89.6045 15.2537C89.7451 15.2527 89.8259 15.2772 89.8254 15.4469C89.8198 16.6138 89.8218 17.7807 89.8203 18.9475C89.8203 18.9797 89.8075 19.0119 89.7983 19.0569H89.7978Z" fill="white"/>
<path d="M19.8016 15.2563H23.0009V19.0585H15.5376V3.18079H19.8016V15.2563Z" fill="white"/>
</svg>
