<svg width="93" height="14" viewBox="0 0 93 14" fill="none" xmlns="http://www.w3.org/2000/svg">
<g clip-path="url(#clip0_1278_338)">
<path d="M0.506872 0.834698C0.583835 0.83048 0.63286 0.825209 0.681358 0.825209C1.13101 0.825209 1.58067 0.819937 2.03033 0.82679C3.16423 0.844186 4.18215 1.20001 5.06934 1.90639C6.04773 2.68551 6.66502 3.69448 6.88431 4.92537C7.38194 7.72083 5.5074 10.1816 2.98763 10.6966C2.67661 10.7604 2.36296 10.7962 2.04667 10.8015C1.59016 10.8083 1.13365 10.8036 0.676613 10.8031C0.628643 10.8031 0.580672 10.7957 0.523213 10.7915C0.514779 10.7461 0.504236 10.7066 0.5016 10.6665C0.49791 10.6107 0.500546 10.5543 0.500546 10.4979C0.500546 7.37292 0.500546 4.24851 0.500546 1.12357C0.500546 1.03343 0.504236 0.94329 0.506344 0.834698H0.506872Z" fill="white"/>
<path d="M14.6966 10.7909C14.6159 10.7962 14.5611 10.8031 14.5068 10.8031C14.0645 10.8041 13.6217 10.8089 13.1794 10.8025C10.764 10.7672 8.81149 9.07297 8.34707 6.85473C7.74876 4.00075 9.63595 1.48309 12.1631 0.941184C12.4936 0.870546 12.8273 0.826793 13.1657 0.825738C13.6154 0.824684 14.065 0.824684 14.5142 0.824684C14.5632 0.824684 14.6117 0.828901 14.6713 0.832064C14.6802 0.872655 14.6934 0.911664 14.6955 0.950673C14.6997 1.0134 14.6971 1.07719 14.6971 1.13992C14.6971 4.25747 14.6971 7.37503 14.6971 10.4926C14.6971 10.5833 14.6971 10.6744 14.6971 10.7899L14.6966 10.7909Z" fill="white"/>
<path d="M17.7377 10.7957C17.7303 10.734 17.7214 10.6929 17.7214 10.6518C17.7208 7.38715 17.7208 4.12305 17.7208 0.874237C17.7814 0.812033 17.8405 0.825739 17.8943 0.825739C18.3576 0.824685 18.8215 0.825212 19.2849 0.825212C19.9733 0.825212 20.6618 0.821522 21.3502 0.826266C23.4926 0.839972 25.3887 2.21056 26.0566 4.24746C27.0123 7.16101 25.1826 10.103 22.3413 10.6955C22.0028 10.7662 21.6613 10.8025 21.3165 10.8031C20.1926 10.8057 19.0687 10.8041 17.9449 10.8036C17.8827 10.8036 17.8205 10.7989 17.7377 10.7957ZM19.259 9.28067C19.3118 9.28383 19.3608 9.28963 19.4093 9.28963C20.0556 9.29016 20.7018 9.29596 21.3481 9.28647C21.5643 9.2833 21.783 9.25747 21.996 9.21688C23.744 8.8832 25.0788 7.17787 24.744 5.22268C24.4615 3.57324 23.0324 2.35552 21.3618 2.34024C20.7156 2.33444 20.0693 2.33865 19.423 2.33971C19.3676 2.33971 19.3128 2.34603 19.2554 2.3492C19.219 2.43723 19.2316 2.52263 19.2316 2.60539C19.2311 4.74719 19.2311 6.88847 19.2316 9.03027C19.2316 9.08668 19.2306 9.14256 19.2353 9.19843C19.2374 9.22479 19.2506 9.25062 19.2601 9.28067H19.259Z" fill="white"/>
<path d="M39.2612 0.826267C39.2849 1.09458 39.2712 1.33286 39.2738 1.57007C39.2765 1.81572 39.2744 2.0619 39.2744 2.30755V3.02395C39.2744 3.2696 39.2717 3.51578 39.2749 3.76143C39.2781 3.99706 39.2596 4.23375 39.2897 4.48836C39.4583 4.3977 39.6075 4.30808 39.7641 4.23586C39.9233 4.16259 40.0867 4.09511 40.2538 4.04503C40.4214 3.99495 40.5949 3.95963 40.7678 3.93591C40.9412 3.91219 41.1173 3.89954 41.2923 3.90218C41.4742 3.90481 41.6576 3.92063 41.8368 3.95015C42.0092 3.97861 42.1805 4.02289 42.3466 4.07877C42.5121 4.13465 42.675 4.2037 42.8305 4.28436C42.986 4.36501 43.1363 4.45779 43.2775 4.56111C43.4188 4.66391 43.5538 4.77882 43.6782 4.90165C43.8026 5.025 43.9191 5.15784 44.0234 5.29859C44.9496 6.5395 44.9286 8.25695 43.9776 9.4736C43.7641 9.74667 43.5163 9.98336 43.2322 10.1831C42.9428 10.3866 42.6297 10.5427 42.2923 10.6491C41.9618 10.7535 41.6233 10.8089 41.277 10.812C40.9233 10.8152 40.578 10.7609 40.2385 10.6607C39.9075 10.5632 39.6059 10.4014 39.2939 10.2174C39.2485 10.4193 39.2965 10.6091 39.2612 10.7888C39.2296 10.7989 39.2101 10.8099 39.1906 10.8099C38.7409 10.811 38.2912 10.811 37.8416 10.8099C37.8221 10.8099 37.8026 10.7999 37.7725 10.7915C37.7678 10.7588 37.7599 10.7256 37.7583 10.6924C37.7335 10.0883 37.7504 1.03027 37.7773 0.845771C37.9322 0.805708 38.0936 0.832592 38.2522 0.827848C38.4209 0.823104 38.5896 0.826794 38.7583 0.826794C38.927 0.826794 39.0798 0.826794 39.2607 0.826794L39.2612 0.826267ZM41.2359 9.42405C42.383 9.4288 43.3244 8.50207 43.3324 7.35974C43.3403 6.24535 42.4452 5.26011 41.2491 5.25853C40.0841 5.25695 39.1674 6.18947 39.1647 7.33444C39.1621 8.51314 40.1162 9.41984 41.2354 9.42405H41.2359Z" fill="white"/>
<path d="M44.8885 13.4088C44.9686 13.1689 45.4072 12.1953 45.4984 12.054C45.559 12.0777 45.6244 12.0993 45.6855 12.1283C46.1051 12.3265 46.5938 12.1225 46.7757 11.7034C46.9739 11.2464 47.1758 10.7904 47.384 10.3376C47.4362 10.2237 47.4283 10.1294 47.3787 10.0192C47.0329 9.25115 46.6913 8.48099 46.3487 7.71135C45.8179 6.51841 45.287 5.32548 44.7572 4.13201C44.7272 4.06401 44.6755 4.00023 44.6924 3.91747C44.8632 3.89585 46.0925 3.89374 46.3076 3.91588C46.3397 3.98389 46.3766 4.05821 46.4109 4.13412C46.9992 5.45516 47.5875 6.77619 48.1758 8.09775C48.2037 8.15995 48.2216 8.22901 48.2928 8.28752C48.6239 7.5453 48.9491 6.81573 49.2738 6.08615C49.5965 5.36238 49.918 4.63808 50.2401 3.91483C50.3566 3.89005 50.4615 3.90323 50.5659 3.90112C50.6782 3.89901 50.791 3.90112 50.9033 3.90112H51.2195C51.3318 3.90112 51.4446 3.9006 51.5569 3.90112C51.6597 3.90165 51.763 3.89691 51.8869 3.9085C51.85 4.00023 51.8242 4.07139 51.7931 4.14045C51.2085 5.44778 50.6228 6.7551 50.0377 8.0619C49.3661 9.56111 48.695 11.0608 48.0229 12.5595C47.9713 12.6744 47.917 12.7899 47.85 12.8964C47.3603 13.6824 46.3766 14.015 45.5095 13.6882C45.3002 13.6091 45.0957 13.5179 44.8885 13.4093V13.4088Z" fill="white"/>
<path d="M33.995 7.34815C33.9876 9.28542 32.4341 10.7983 30.5575 10.811C28.6466 10.8242 27.0925 9.28436 27.0788 7.37029C27.0651 5.46465 28.6155 3.90798 30.5248 3.89744C32.3577 3.88742 33.9792 5.36027 33.995 7.34815ZM30.5295 9.42406C31.6729 9.42722 32.6139 8.49838 32.6202 7.35816C32.6265 6.23639 31.7256 5.26222 30.5401 5.25853C29.383 5.25484 28.4631 6.17946 28.451 7.32548C28.4389 8.47677 29.3788 9.42142 30.5295 9.42406Z" fill="white"/>
<path d="M78.7109 10.7888C78.5285 10.8205 78.1685 10.8205 77.9876 10.7894C77.9544 10.7124 77.9687 10.6275 77.9687 10.5453C77.9676 9.3513 77.9681 8.15731 77.9681 6.96332C77.9681 6.70344 77.9597 6.44408 77.9149 6.18683C77.8701 5.92958 77.8026 5.67972 77.6882 5.44408C77.4231 4.89901 76.9855 4.60064 76.3846 4.54108C76.1453 4.51735 75.9075 4.53422 75.6735 4.59537C75.2475 4.70713 74.9149 4.9512 74.6608 5.30702C74.4152 5.65072 74.2786 6.03923 74.2027 6.45093C74.1505 6.73507 74.1316 7.02184 74.131 7.31019C74.131 8.38504 74.131 9.45937 74.131 10.5342C74.131 10.6175 74.1279 10.7003 74.1268 10.7793C73.9676 10.8199 73.5923 10.8242 73.3767 10.7894C73.3482 10.7203 73.3603 10.6428 73.3603 10.5674C73.3593 9.35236 73.3598 8.13728 73.3598 6.9222C73.3598 6.79569 73.3614 6.66917 73.3556 6.54318C73.3429 6.25483 73.3155 5.96807 73.2317 5.69079C73.189 5.55057 73.1363 5.4114 73.0694 5.28067C72.8748 4.90006 72.5591 4.66706 72.1437 4.58114C71.3704 4.42089 70.7288 4.65441 70.2264 5.26063C69.9423 5.60328 69.7826 6.00655 69.6914 6.43828C69.6287 6.73454 69.6044 7.03501 69.6049 7.33812C69.607 8.41298 69.606 9.48731 69.6049 10.5622C69.6049 10.6375 69.5997 10.7129 69.597 10.7846C69.4088 10.822 69.0219 10.822 68.8501 10.7862C68.82 10.7082 68.8321 10.6233 68.8321 10.5411C68.8311 9.26274 68.8348 7.98441 68.8306 6.70607C68.8279 5.94065 68.8147 5.17524 68.8037 4.40982C68.8016 4.24904 68.7889 4.08878 68.781 3.93011C68.9392 3.88899 69.3182 3.88741 69.5032 3.92853C69.5354 4.15995 69.5274 4.39822 69.5459 4.63491C69.5638 4.86211 69.5591 5.09142 69.5986 5.32653C69.6292 5.27487 69.6603 5.22426 69.6898 5.17207C70.0087 4.60012 70.48 4.21108 71.1026 4.00971C71.5849 3.85368 72.072 3.86 72.5549 4.00497C72.9581 4.12621 73.2813 4.36606 73.5296 4.70607C73.6545 4.8774 73.7541 5.06243 73.8327 5.25853C73.8559 5.31651 73.8822 5.37292 73.9096 5.43617C73.9702 5.41456 73.9787 5.36395 73.9982 5.32389C74.101 5.11514 74.2233 4.91851 74.3751 4.74192C74.8147 4.22953 75.3798 3.9649 76.0451 3.90797C76.3756 3.88003 76.7046 3.90112 77.0282 3.98441C77.6656 4.14835 78.13 4.52421 78.421 5.11356C78.5912 5.45779 78.6782 5.82574 78.7125 6.20581C78.7257 6.35236 78.7299 6.50049 78.7299 6.64756C78.7309 7.95383 78.7309 9.26011 78.7299 10.5669C78.7299 10.6423 78.7425 10.7198 78.7104 10.7888H78.7109Z" fill="white"/>
<path d="M63.6138 10.8062H62.7646C62.694 10.7572 62.6813 10.6766 62.6523 10.6075C62.3392 9.86369 62.0282 9.11883 61.7161 8.37397C61.6834 8.29648 61.6491 8.22004 61.6175 8.1473C61.54 8.09985 61.461 8.11883 61.3856 8.11883C60.3808 8.11725 59.3761 8.11778 58.3713 8.11778H56.5163C56.4393 8.11778 56.3629 8.11778 56.2749 8.11778C56.2432 8.18525 56.2121 8.2464 56.1858 8.30966C55.8647 9.0735 55.5448 9.83733 55.2243 10.6012C55.1974 10.6655 55.1679 10.7287 55.1415 10.7878C54.9639 10.8205 54.4557 10.8215 54.277 10.7899C54.2791 10.7704 54.2759 10.7482 54.2833 10.7303C55.7119 7.43301 57.141 4.1357 58.5669 0.845767C58.7609 0.81941 59.21 0.819937 59.3898 0.846822C60.7825 4.12199 62.1784 7.40296 63.5732 10.6845C63.5864 10.7156 63.5948 10.7488 63.6138 10.8062ZM56.5616 7.38504C56.6781 7.38662 56.754 7.3882 56.83 7.3882C58.2337 7.3882 59.6381 7.3882 61.0419 7.3882C61.0909 7.3882 61.1404 7.39031 61.1895 7.38662C61.2211 7.38451 61.2527 7.37397 61.2875 7.36712C61.2807 7.33233 61.2801 7.31124 61.2728 7.29279C60.51 5.44566 59.7461 3.59906 58.9823 1.75194C58.9797 1.74614 58.9733 1.74086 58.9675 1.73717C58.9633 1.73454 58.957 1.73454 58.9349 1.73032C58.1499 3.60012 57.3618 5.47202 56.5616 7.38504Z" fill="white"/>
<path d="M34.9924 0.839971C35.2829 0.814668 36.3076 0.820994 36.4705 0.84946C36.4758 0.879507 36.4858 0.912717 36.4874 0.946455C36.5111 1.45146 36.4937 10.6122 36.4684 10.7904C36.4479 10.7962 36.4226 10.8099 36.3973 10.8099C35.9476 10.8105 35.4985 10.8099 35.0488 10.8089C35.0356 10.8089 35.023 10.8015 34.995 10.7925C34.9892 10.7604 34.9787 10.7214 34.9761 10.6818C34.9724 10.6259 34.9745 10.5695 34.9745 10.5131C34.9745 7.38188 34.9745 4.25062 34.9745 1.11989C34.9745 1.03027 34.9639 0.939075 34.9919 0.840498L34.9924 0.839971Z" fill="white"/>
<path d="M79.9286 7.33865C79.9223 6.88162 79.995 6.43196 80.1658 6.00339C80.5955 4.92484 81.3878 4.25747 82.5127 3.9939C83.1885 3.83523 83.8685 3.8542 84.5311 4.06875C85.7446 4.46148 86.4853 5.29596 86.7657 6.53317C86.9223 7.22532 86.8859 7.91641 86.6492 8.58852C86.296 9.59327 85.6134 10.2786 84.6065 10.6244C83.8406 10.8874 83.0578 10.9027 82.285 10.6623C81.0773 10.2865 80.3356 9.46042 80.0256 8.24113C79.9507 7.94698 79.9233 7.64651 79.9286 7.33865ZM80.7135 7.36185C80.7193 7.6755 80.7568 8.01709 80.868 8.34603C81.1416 9.15626 81.6677 9.72242 82.4879 9.99337C82.9001 10.1299 83.325 10.1647 83.7578 10.1062C84.8016 9.96596 85.5201 9.40771 85.8801 8.41983C86.1416 7.70239 86.1331 6.96912 85.8701 6.25167C85.5817 5.46464 85.0346 4.93275 84.227 4.6813C83.8801 4.57323 83.5232 4.54371 83.1637 4.57218C82.1532 4.65125 81.4189 5.13992 80.9834 6.06137C80.7942 6.46201 80.7241 6.89005 80.713 7.36185H80.7135Z" fill="white"/>
<path d="M87.6307 9.57692C87.8231 9.43828 88.0103 9.30386 88.209 9.161C88.2459 9.20159 88.2797 9.23375 88.3076 9.27012C88.6566 9.72347 89.1125 10.0071 89.6713 10.1204C90.0641 10.2 90.4541 10.1773 90.8368 10.0561C90.9781 10.0113 91.1125 9.95014 91.2338 9.86422C91.6429 9.57429 91.7857 9.17313 91.7156 8.6871C91.684 8.46833 91.5696 8.2949 91.403 8.15415C91.2728 8.0445 91.1247 7.96596 90.9686 7.89954C90.7156 7.792 90.451 7.72242 90.1869 7.64914C89.889 7.56691 89.5912 7.48573 89.2965 7.39453C89.0546 7.31915 88.8237 7.21583 88.6107 7.07613C88.2997 6.87265 88.0767 6.60223 87.9787 6.23849C87.8769 5.86211 87.888 5.48731 88.015 5.11883C88.1315 4.78198 88.3482 4.52052 88.6408 4.3202C88.918 4.13043 89.2269 4.01814 89.5543 3.95752C90.0598 3.86369 90.5617 3.88267 91.0556 4.03027C91.5543 4.17945 91.9739 4.44672 92.2807 4.87582C92.3013 4.90428 92.3197 4.93433 92.3371 4.96438C92.344 4.97597 92.345 4.99126 92.3487 5.00444C92.2501 5.1125 92.0113 5.2891 91.7847 5.41983C91.7604 5.39189 91.7325 5.36343 91.7088 5.3318C91.2422 4.69922 90.6065 4.47413 89.8426 4.55953C89.6239 4.58377 89.4162 4.64545 89.2222 4.7493C89.0461 4.84366 88.8975 4.96965 88.7926 5.14308C88.4947 5.63491 88.6513 6.26063 89.1463 6.55267C89.3477 6.67128 89.5664 6.74877 89.7905 6.80781C90.0756 6.8832 90.3635 6.94698 90.6487 7.02131C90.9549 7.10091 91.2554 7.19948 91.5353 7.35025C91.6587 7.41667 91.7799 7.48942 91.8922 7.57271C92.2702 7.8542 92.4726 8.23533 92.4968 8.70396C92.539 9.52895 92.1721 10.1763 91.4362 10.5337C91.1226 10.6866 90.7889 10.7688 90.4447 10.7994C89.8463 10.8526 89.267 10.7714 88.7182 10.5174C88.3092 10.3281 87.966 10.055 87.694 9.69448C87.6813 9.67761 87.6687 9.66074 87.6576 9.64282C87.6508 9.63122 87.6471 9.61751 87.6307 9.57587V9.57692Z" fill="white"/>
<path d="M64.7435 4.55637C64.5211 4.52949 64.297 4.54741 64.074 4.54372C63.8574 4.54003 63.6407 4.54688 63.4141 4.5395C63.3756 4.32706 63.3951 4.12727 63.3982 3.91747C63.4573 3.91009 63.5042 3.89954 63.5511 3.89954C63.8743 3.89796 64.1979 3.89954 64.5211 3.89849C64.5901 3.89849 64.6592 3.89375 64.7314 3.89111C64.772 3.81046 64.7572 3.73244 64.7578 3.65758C64.7588 2.80044 64.7583 1.9433 64.7583 1.08615C64.7583 1.00972 64.7583 0.933281 64.7583 0.851573C64.8901 0.797804 65.0171 0.828379 65.1405 0.823107C65.2591 0.817836 65.3777 0.822053 65.4836 0.822053C65.548 0.887946 65.5306 0.954367 65.5306 1.01499C65.5327 1.36607 65.5316 1.71768 65.5316 2.06876C65.5316 2.59591 65.5311 3.12253 65.5327 3.64968C65.5327 3.72506 65.5163 3.80413 65.5627 3.889C65.6186 3.89216 65.6797 3.89902 65.7414 3.89954C66.2195 3.9006 66.6971 3.89954 67.1753 3.9006C67.2443 3.9006 67.3134 3.90482 67.3935 3.90745C67.4267 4.11673 67.4114 4.31652 67.4046 4.51314C67.3287 4.56059 67.257 4.54372 67.189 4.54425C66.7182 4.54583 66.247 4.54477 65.7762 4.5453C65.7066 4.5453 65.637 4.54741 65.5574 4.54846C65.548 4.6054 65.5337 4.65178 65.5332 4.6987C65.5306 4.88847 65.5321 5.07825 65.5321 5.26802C65.5321 6.43407 65.5311 7.60065 65.5332 8.7667C65.5332 8.92116 65.5427 9.07561 65.5553 9.22954C65.5622 9.31283 65.5785 9.39664 65.6001 9.47783C65.7082 9.88373 65.976 10.1057 66.3972 10.142C66.6597 10.1647 66.9164 10.1352 67.1668 10.0535C67.2269 10.034 67.286 10.0118 67.3566 9.98652C67.4093 10.0925 67.4009 10.2048 67.4072 10.3128C67.413 10.4167 67.4083 10.5216 67.4083 10.6349C67.3392 10.6576 67.2744 10.6824 67.2074 10.7008C66.8168 10.8083 66.4225 10.85 66.0192 10.7841C65.4425 10.6897 64.9212 10.3308 64.8036 9.51525C64.7788 9.34235 64.7709 9.16523 64.7709 8.99021C64.7683 7.59907 64.7699 6.20793 64.7688 4.81678C64.7688 4.73455 64.7831 4.64915 64.7446 4.55901L64.7435 4.55637Z" fill="white"/>
</g>
<defs>
<clipPath id="clip0_1278_338">
<rect width="92" height="12.9942" fill="white" transform="translate(0.5 0.818359)"/>
</clipPath>
</defs>
</svg>
