<svg width="93" height="43" viewBox="0 0 93 43" fill="none" xmlns="http://www.w3.org/2000/svg">
<g clip-path="url(#clip0_1278_328)">
<path d="M61.7865 15.3434C60.856 15.759 60.0905 16.1151 59.3125 16.4439C58.2443 16.8955 57.3907 16.7044 56.6736 15.7888C56.3473 15.3732 56.0731 15.3099 55.5855 15.5072C54.4813 15.9551 53.3113 16.2516 52.2319 16.7479C51.1351 17.2528 50.0247 17.8086 49.0843 18.5506C47.8498 19.5245 46.4317 20.0531 45.0222 20.6275C44.4726 20.8521 43.6116 20.3819 43.356 19.831C43.1327 19.3484 43.3138 18.9042 43.8622 18.4563C43.9999 18.3434 44.0619 18.1325 44.1451 17.96C44.3125 17.6126 44.4242 17.2292 44.6413 16.9178C45.1116 16.2466 45.6227 15.6015 46.1401 14.9637C46.5396 14.4724 46.9478 13.9848 47.3969 13.5419C48.3795 12.5717 49.3014 11.5717 50.1215 10.4414C51.5508 8.47118 53.1364 6.61138 54.6934 4.73669C55.6252 3.6151 56.4838 2.47863 56.8684 1.03322C57.1165 0.101455 57.4453 0.025773 58.2245 0.612622C59.3225 1.44016 59.459 2.20567 58.6314 3.29128C58.0694 4.02949 57.4329 4.71064 56.8411 5.42652C55.5768 6.95381 54.2331 8.42652 53.0917 10.0407C52.382 11.0456 51.9143 12.2516 50.9304 13.032C49.583 14.1015 48.5669 15.4364 47.5334 16.7789C47.2207 17.1858 46.7282 17.4563 46.3684 17.8918C46.7257 17.7131 47.1054 17.5704 47.4341 17.3496C48.4093 16.6945 49.3212 15.9352 50.3398 15.3608C51.1699 14.893 52.1178 14.6337 53.0135 14.2814C53.6227 14.0407 54.2245 13.7752 54.8436 13.5667C55.1116 13.4761 55.4577 13.4029 55.6984 13.4972C56.021 13.6238 56.1401 13.5779 56.3336 13.3086C57.016 12.3521 57.7282 11.4166 58.4441 10.4848C58.9354 9.84587 59.8001 9.74662 60.3535 10.2392C61.2083 11.001 61.2778 11.6288 60.5384 12.3285C60.0892 12.7541 59.5793 13.1139 59.119 13.527C58.98 13.6523 58.913 13.8583 58.8138 14.0283C58.985 14.0109 59.1674 14.0283 59.325 13.9724C60.3783 13.6052 61.4379 13.2503 62.4701 12.8297C62.8101 12.6908 63.1364 12.4166 63.3659 12.1238C64.4738 10.7106 65.5247 9.25406 66.6401 7.84711C67.3758 6.92031 68.4478 6.65232 69.5718 6.6027C70.0222 6.58284 70.48 6.64116 70.9279 6.70815C72.7691 6.98359 73.1661 8.73421 72.681 10.0121C72.3957 10.7627 71.6835 11.0928 70.9428 11.2727C70.6103 11.3533 70.356 11.4265 70.3349 11.8223C70.3299 11.9191 70.2753 12.0196 70.2245 12.1089C69.7741 12.8992 67.6227 13.9216 66.7195 13.7491C66.4912 13.7057 66.1947 13.6002 66.0855 13.4253C65.7939 12.9575 65.6823 13.2479 65.521 13.4972C63.6066 16.4613 61.686 19.4216 59.7815 22.3905C59.4924 22.8409 59.2704 23.3335 59.0185 23.8074C58.7369 24.3359 58.3436 24.6163 57.7071 24.4836C57.5259 24.4464 57.2977 24.496 57.1277 24.5791C56.6897 24.795 56.4726 24.589 56.4366 24.1982C56.4081 23.8831 56.4217 23.5084 56.5669 23.2429C56.9217 22.5952 57.3039 21.9439 57.7815 21.3856C58.9453 20.0258 59.9379 18.5704 60.7071 16.9501C60.9577 16.4203 61.3609 15.9637 61.784 15.3409L61.7865 15.3434ZM67.923 10.3409C67.9676 10.4141 68.0123 10.4886 68.0582 10.5618C68.6513 10.1263 69.6637 10.362 69.913 9.37565C69.8783 9.31858 69.8436 9.2615 69.8088 9.20443C69.1798 9.58284 68.552 9.96126 67.923 10.3409Z" fill="white"/>
<path d="M20.129 22.1635C20.8511 21.5084 21.4987 20.9464 22.1116 20.3496C22.3275 20.1399 22.4814 19.8558 22.624 19.5853C22.8759 19.1052 23.263 18.7702 23.789 18.79C24.1886 18.8049 24.6526 18.934 24.9553 19.1771C25.3101 19.4625 25.0893 19.9029 24.9057 20.259C24.5558 20.9377 24.191 21.6089 23.8486 22.2925C23.7903 22.4091 23.8126 22.5655 23.799 22.7044C23.9305 22.6784 24.0781 22.6833 24.1923 22.6238C25.7419 21.8161 27.227 20.9501 27.9938 19.2367C28.2134 18.7454 28.624 18.3186 29.0136 17.929C29.8015 17.1399 30.6451 16.4067 31.4479 15.6312C32.3101 14.7987 33.1216 14.7764 33.9466 15.6337C34.1997 15.8967 34.3374 15.9402 34.6302 15.6672C35.3015 15.0369 35.8201 15.0717 36.5149 15.7131C37.0632 16.2193 37.1042 16.7925 36.6228 17.4836C36.3895 17.8186 36.1302 18.1374 35.8275 18.5357C37.294 18.0196 38.6575 17.5096 40.0434 17.0655C40.8077 16.8211 41.6017 16.6573 42.3945 16.5283C42.629 16.4898 43.0124 16.6263 43.1278 16.8086C43.2419 16.9886 43.1985 17.4141 43.0521 17.5791C42.7481 17.9228 42.366 18.2491 41.9503 18.434C41.0074 18.8521 40.0359 19.2106 39.057 19.5369C37.7345 19.9761 36.4689 20.4997 35.3622 21.3781C35.0198 21.6498 34.5769 21.8397 34.1488 21.9501C33.4962 22.1188 32.8982 21.9228 32.5235 21.3347C32.2196 20.857 31.9665 20.9067 31.6216 21.2727C31.4404 21.465 31.2096 21.6163 30.9826 21.7578C30.4466 22.0915 29.9156 22.3111 29.2469 22.0196C28.7555 21.8049 28.2555 21.9253 27.8263 22.3322C27.3622 22.7727 26.7977 23.1101 26.3573 23.568C25.5645 24.3918 24.5744 24.8173 23.5223 25.1498C22.5285 25.4625 22.1551 25.3496 21.567 24.4985C21.299 24.1101 21.1426 23.991 20.7618 24.4278C20.2791 24.9799 19.7233 25.4885 19.1265 25.9141C18.3188 26.4898 17.5732 26.3707 16.9677 25.5853C16.6712 25.2007 16.4888 25.2429 16.2345 25.5506C15.8945 25.9637 15.5508 26.3744 15.2332 26.8049C14.7431 27.4699 14.2903 28.1622 13.7903 28.8186C13.4801 29.2268 13.0421 29.3223 12.5694 29.1089C12.0881 28.8918 11.9541 28.4526 12.1191 28.0196C12.366 27.3744 12.6166 26.6809 13.0521 26.1647C14.3685 24.6039 15.8052 23.1449 17.1327 21.5928C17.7977 20.8161 18.366 19.9464 18.9082 19.0766C19.3201 18.4153 19.897 18.1982 20.6364 18.5704C21.268 18.8893 21.5719 19.6995 21.2444 20.3024C20.9156 20.9091 20.5397 21.4885 20.1327 22.1647L20.129 22.1635ZM33.5632 17.4079C33.4789 17.2814 33.4168 17.13 33.3734 17.135C33.16 17.1622 32.8908 17.1647 32.7518 17.2938C32.0273 17.9662 31.3275 18.6672 30.6439 19.3806C30.5359 19.4923 30.5546 19.7255 30.5149 19.9017C30.7208 19.8769 30.9851 19.9253 31.1228 19.8149C31.799 19.2739 32.4528 18.7057 33.0868 18.1163C33.2878 17.929 33.4044 17.6511 33.5632 17.4067V17.4079Z" fill="white"/>
<path d="M16.655 16.4253C16.562 17.7404 16.0396 18.6821 15.4838 19.6374C14.7307 20.9327 14.0731 22.2826 13.3771 23.6101C13.1861 23.9737 13.0533 24.3781 12.8101 24.7007C11.0595 27.0295 9.26422 29.3248 7.53221 31.6672C6.85851 32.5779 6.25057 33.5493 5.71087 34.5469C4.54213 36.7069 3.43667 38.9017 2.30516 41.0828C2.18109 41.3211 2.07563 41.5729 1.92551 41.7925C1.70714 42.1101 1.49498 42.5096 1.01111 42.3608C0.614091 42.2379 0.378359 41.563 0.564463 41.089C0.888285 40.2627 1.20094 39.4265 1.60044 38.6362C2.56074 36.7441 3.56694 34.8744 4.5595 32.9985C4.88084 32.3905 5.15876 31.7814 5.12029 31.063C5.10168 30.7131 5.24685 30.46 5.64387 30.3285C5.93543 30.233 6.2332 30.0158 6.42302 29.7714C7.80392 27.996 9.22327 26.2441 10.4913 24.3905C11.0806 23.5283 11.356 22.4526 11.7853 21.4799C11.9081 21.2007 12.0372 20.9129 12.2208 20.6747C13.3002 19.2801 13.9739 17.6796 14.5173 16.0295C14.6265 15.697 14.4478 15.1412 14.2022 14.8657C14.031 14.6734 13.4516 14.6436 13.1749 14.7826C12.2779 15.233 11.4367 15.7925 10.5756 16.3136C10.5062 16.3558 10.4516 16.4228 10.3858 16.4724C9.47017 17.1647 8.56943 17.8769 7.62898 18.532C7.37091 18.7119 6.98754 18.8099 6.67364 18.7876C6.28779 18.7603 6.11161 18.8806 5.959 19.2057C5.6935 19.7714 5.33369 19.9377 4.89325 19.7541C4.44412 19.5655 4.25553 19.1027 4.45652 18.5593C4.54585 18.3161 4.69225 18.068 4.87836 17.893C5.79523 17.032 6.70714 16.161 7.67613 15.3608C8.25677 14.8806 8.92551 14.4997 9.57935 14.1163C10.2183 13.7417 10.9081 13.4526 11.5421 13.0704C12.4156 12.5444 13.3411 12.2441 14.361 12.2578C15.2741 12.2702 15.9069 12.7243 16.1191 13.6201C16.3523 14.6015 16.4987 15.6039 16.6526 16.4278L16.655 16.4253Z" fill="white"/>
<path d="M83.959 9.76274C83.4739 9.91411 82.9937 10.0915 82.5012 10.2106C81.7853 10.3843 81.0595 10.6238 80.3361 10.6275C79.8275 10.63 79.2778 10.3521 78.82 10.0766C78.5309 9.90418 78.3647 9.87192 78.1289 10.0742C77.7381 10.4104 77.3709 10.7838 76.9441 11.068C75.7257 11.8769 74.2381 11.4476 73.5892 10.1461C73.3808 9.72924 73.3684 9.31113 73.6823 8.98979C74.7034 7.94264 75.7208 6.88805 76.8138 5.91907C77.3932 5.40666 78.1873 5.48607 78.7952 5.89178C79.3994 6.295 79.7319 6.25034 80.1066 5.64115C80.351 5.24537 80.7791 5.08905 81.2481 5.29996C81.7071 5.50716 81.9577 5.86076 81.8982 6.38185C81.8721 6.60641 81.8237 6.82974 81.7741 7.05058C81.7009 7.37937 81.619 7.70567 81.5409 8.03321C81.825 7.93148 82.1041 7.76522 82.3957 7.74041C83.0905 7.68086 83.794 7.71808 84.4888 7.66101C85.083 7.61262 85.6711 7.49227 86.2605 7.39426C87.6835 7.15728 89.1079 6.92155 90.5297 6.66969C90.9763 6.59029 91.4106 6.42279 91.8585 6.37689C92.0607 6.35579 92.3622 6.48359 92.4726 6.64364C92.5533 6.76274 92.4466 7.0754 92.3349 7.24413C92.2034 7.44264 91.9999 7.62503 91.7865 7.73545C90.2108 8.55058 88.6079 9.30244 86.8213 9.53818C85.8796 9.66225 84.9379 9.77763 83.9962 9.89798C83.9838 9.85207 83.9726 9.80617 83.9602 9.76026L83.959 9.76274Z" fill="white"/>
<path d="M1.78528 31.0258C1.87709 30.1424 2.4354 29.3198 2.94657 28.4699C3.28404 27.9091 3.55079 27.3062 3.86592 26.7317C4.24061 26.0493 4.63391 25.3756 5.01977 24.6995C5.26295 24.2727 5.56816 23.8707 5.74185 23.4178C6.10538 22.4737 6.38702 21.4985 6.72821 20.5456C6.87461 20.1362 7.06195 19.7044 7.6029 19.7106C8.13267 19.7156 8.30761 20.1523 8.49992 20.5419C9.00736 21.5766 8.83491 22.5456 8.31257 23.5419C7.71952 24.6709 7.24558 25.8608 6.6885 27.0096C6.35848 27.6908 5.94905 28.3347 5.60786 29.0109C5.16121 29.8943 4.76295 30.8024 4.30637 31.6809C4.15128 31.9774 3.9354 32.3111 3.65625 32.4625C2.55451 33.0655 1.80017 32.5245 1.78652 31.0258H1.78528Z" fill="white"/>
<path d="M61.6017 5.08036C61.6017 4.53694 62.2518 3.6027 62.7754 3.48855C63.0161 3.4352 63.3275 3.45754 63.5422 3.57044C64.5595 4.10146 64.7779 5.72553 63.933 6.48979C63.7419 6.66349 63.423 6.79004 63.1675 6.78136C62.3945 6.75778 61.6029 5.85828 61.6005 5.08036H61.6017Z" fill="white"/>
<path d="M44.7319 16.0878C44.2592 15.9687 43.8696 15.5208 43.9664 15.1387C44.0148 14.9489 44.2877 14.7181 44.4887 14.6858C44.8796 14.6225 45.3473 15.0568 45.253 15.3918C45.1798 15.6523 44.9131 15.8583 44.7319 16.0878Z" fill="white"/>
</g>
<defs>
<clipPath id="clip0_1278_328">
<rect width="92" height="42.1526" fill="white" transform="translate(0.5 0.239166)"/>
</clipPath>
</defs>
</svg>
