<svg width="93" height="11" viewBox="0 0 93 11" fill="none" xmlns="http://www.w3.org/2000/svg">
<g clip-path="url(#clip0_1278_310)">
<path d="M7.98027 1.3213V1.81038C8.07711 1.63297 8.05514 1.50114 8.01201 1.34652C8.06083 1.35792 8.10641 1.35385 8.12512 1.37501C8.21545 1.47347 8.29927 1.57927 8.38472 1.68262C8.40425 1.70703 8.4189 1.73551 8.44006 1.7583C8.58328 1.91292 8.57108 1.96419 8.58654 2.18391C8.60526 2.4492 8.5076 2.59731 8.283 2.64451C8.24475 2.8211 8.20162 2.96921 8.18453 3.12057C8.17883 3.1751 8.22522 3.24671 8.26835 3.29147C8.3009 3.32565 8.36519 3.32972 8.42948 3.35169C8.3717 3.50387 8.37089 3.66825 8.20243 3.76672C8.32613 4.0255 8.15442 4.19151 8.00061 4.35753C7.88506 4.48204 7.60918 4.48122 7.51723 4.34857C7.46352 4.27127 7.45782 4.1614 7.42527 4.04666C7.37807 4.03039 7.31297 4.00841 7.24786 3.98481C7.0493 3.91483 6.99315 3.80578 7.05011 3.60559C7.05418 3.59094 7.05825 3.57385 7.0672 3.56246C7.23321 3.34355 7.138 3.15964 6.99722 2.97491C6.91665 2.86993 6.85725 2.74786 6.77424 2.64532C6.70832 2.56313 6.61881 2.49966 6.54394 2.42397C6.48128 2.35968 6.41129 2.29621 6.36898 2.2189C6.26481 2.02847 6.08659 1.91943 5.88721 1.9943C5.69109 2.06754 5.46974 2.02278 5.2842 2.14973C5.24351 2.1774 5.12795 2.11392 5.05634 2.07567C4.90823 1.99592 4.82278 2.01545 4.77558 2.17414C4.75036 2.26122 4.75605 2.35724 4.75117 2.45001C4.74792 2.50698 4.75117 2.56476 4.75117 2.66241C4.67874 2.59731 4.63724 2.55988 4.58109 2.50942C4.42322 2.72263 4.14897 2.52977 3.95203 2.68683C3.95936 2.73728 3.96424 2.79018 3.97319 2.84145C4.00819 3.04082 3.97808 3.2109 3.79253 3.33297C3.62245 3.44446 3.67697 3.64058 3.61513 3.8131C3.76975 3.87983 3.90972 3.94005 4.06515 4.00679C4.04236 4.03771 4.02365 4.08898 4.00005 4.09142C3.88774 4.102 3.83648 4.18989 3.75835 4.24767C3.68186 4.30463 3.67453 4.37055 3.66233 4.44623C3.64605 4.55121 3.62815 4.65537 3.60862 4.775C3.74208 4.8344 3.88856 4.78558 4.0326 4.78476C4.17257 4.78395 4.31254 4.78476 4.47204 4.78476C4.62097 4.56586 4.82685 4.36566 4.90172 4.08247C4.90905 4.05317 4.92288 4.01004 4.94404 4.00272C5.119 3.93761 5.16539 3.77323 5.24188 3.63163C5.32408 3.47945 5.47056 3.43958 5.62192 3.45097C5.81641 3.46562 6.0044 3.51933 6.1696 3.64058C6.15495 3.71057 6.13216 3.77567 6.1281 3.84159C6.11752 4.01167 6.14518 4.04259 6.31282 4.10444C6.36979 4.1256 6.42187 4.1614 6.48942 4.19802C6.52685 4.14838 6.56673 4.0963 6.60416 4.04666C6.75607 4.10363 6.84124 4.18338 6.85969 4.28591H6.45686C6.41536 4.45844 6.36898 4.6098 6.34456 4.76523C6.29818 5.05575 6.34619 5.13957 6.62776 5.29501C6.59195 5.43091 6.55533 5.57088 6.51953 5.71004C6.45117 5.72062 6.4056 5.7255 6.36002 5.73445C6.17285 5.77107 6.12484 5.82478 6.14437 6.0209C6.18343 6.4042 6.05648 6.76307 5.99463 7.13091C5.97673 7.23832 5.88152 7.27657 5.78712 7.29448C5.69598 7.31157 5.61622 7.28959 5.58042 7.18706C5.57065 7.15776 5.55926 7.11951 5.53647 7.10649C5.29152 6.96489 5.24351 6.71994 5.19387 6.47337C5.18817 6.44326 5.17841 6.40501 5.15725 6.38955C4.99856 6.27562 4.90986 6.11612 4.83743 5.94115C4.82523 5.91186 4.78047 5.88256 4.7471 5.87686C4.57539 5.84919 4.39229 5.83129 4.25232 5.94603C4.16036 6.02172 4.07817 6.03636 3.97563 6.01846C3.88123 6.00137 3.81613 6.02904 3.75917 6.11367C3.7136 6.18203 3.63873 6.23249 3.572 6.28457C3.41168 6.40908 3.37587 6.53847 3.48655 6.70774C3.55328 6.81109 3.65093 6.89409 3.73394 6.98687C3.75347 7.00884 3.77056 7.03406 3.79416 7.06499C3.75347 7.09184 3.72255 7.113 3.69081 7.13335C3.50906 7.24565 3.41005 7.4019 3.39378 7.60209C3.38076 7.76566 3.45563 7.84866 3.62164 7.85192C3.67616 7.85273 3.7315 7.8389 3.78521 7.84459C3.91867 7.85924 3.98865 8.01386 3.89344 8.10338C3.76324 8.22707 3.6135 8.33124 3.46539 8.44842V8.79754C3.6078 8.82276 3.74371 8.85125 3.88123 8.86915C4.01144 8.88624 4.12618 8.90903 4.15223 9.07015C4.15792 9.1084 4.20838 9.13933 4.24581 9.18246C4.2922 9.1613 4.33695 9.14828 4.37276 9.12386C4.50948 9.02865 4.64375 8.99936 4.81302 9.05551C4.90335 9.08562 5.03681 9.06527 5.12226 9.01726C5.29152 8.92123 5.45998 8.90333 5.64145 8.9432C5.80828 8.97982 5.96127 8.97494 6.10856 8.86834C6.1582 8.83253 6.2404 8.83497 6.30794 8.83497C6.4528 8.83497 6.55859 8.78452 6.64078 8.65838C6.72541 8.52899 6.82388 8.40773 6.92805 8.29299C7.05255 8.15627 7.12498 8.01468 7.05255 7.82669C7.02326 7.7502 7.02082 7.67289 7.09569 7.61429C7.25681 7.48816 7.27716 7.3075 7.30239 7.12195C7.33819 6.86643 7.46026 6.64019 7.59128 6.42291C7.60756 6.39524 7.71579 6.38873 7.75241 6.41396C7.88587 6.50836 8.00957 6.61741 8.13163 6.72645C8.15686 6.74924 8.17232 6.794 8.17395 6.8298C8.18534 7.04057 8.19836 7.25135 8.19592 7.46212C8.19592 7.53454 8.15279 7.60697 8.1235 7.69811C8.17395 7.77054 8.2358 7.85843 8.29683 7.9455C8.28381 7.9748 8.27974 8.00003 8.26509 8.0163C8.06734 8.2344 8.18778 8.44435 8.27974 8.65512C8.30009 8.70232 8.33182 8.7479 8.33833 8.79754C8.36438 8.99691 8.38147 9.19792 8.40506 9.41927C8.29358 9.46972 8.2301 9.58121 8.19999 9.72688C8.1886 9.78384 8.12756 9.85708 8.07385 9.87417C7.7931 9.96532 7.50746 10.0434 7.22182 10.1199C7.16323 10.1354 7.0965 10.1321 7.03465 10.124C6.77668 10.0915 6.52522 10.0296 6.26074 10.1362C6.16309 10.1753 6.02149 10.0898 5.90186 10.0972C5.78956 10.1037 5.6797 10.1834 5.56821 10.1859C5.37453 10.1891 5.17922 10.159 4.98554 10.1395C4.82034 10.1224 4.6584 10.1199 4.50459 10.1997C4.39229 10.2583 4.27755 10.2436 4.16362 10.2005C4.02121 10.1468 3.87879 10.1387 3.72662 10.1663C3.4068 10.2241 3.08861 10.1777 2.77123 10.1264C2.69636 10.1142 2.61417 10.1102 2.54256 10.1297C2.08521 10.2526 1.63112 10.2029 1.17459 10.124C0.969513 10.0882 0.847445 9.92381 0.675737 9.83837C0.640744 9.82128 0.623654 9.72769 0.630978 9.67398C0.645626 9.56738 0.682247 9.46403 0.712357 9.35091C0.910107 9.3208 1.09077 9.2915 1.29014 9.35579C1.46185 9.41113 1.65879 9.43798 1.82399 9.2915C1.85979 9.25977 1.92652 9.25081 1.97861 9.25244C2.19019 9.25814 2.35213 9.12305 2.53605 9.05388C2.57837 9.0376 2.61173 8.93751 2.6101 8.87647C2.60685 8.76824 2.57918 8.66001 2.55232 8.55421C2.50919 8.38169 2.51082 8.21324 2.58894 8.0513C2.68253 7.85517 2.69881 7.66556 2.57592 7.47188C2.50594 7.36202 2.51408 7.23995 2.5393 7.11056C2.5865 6.86805 2.65323 6.62229 2.53035 6.37653C2.50757 6.33014 2.52059 6.25039 2.545 6.19912C2.65323 5.97208 2.62719 5.76049 2.5507 5.52368C2.49048 5.33814 2.52791 5.12248 2.51408 4.92067C2.49455 4.64479 2.5035 4.36404 2.4034 4.10037C2.3676 4.00597 2.35702 3.9189 2.41154 3.83182C2.46606 3.74475 2.46769 3.6593 2.42537 3.5649C2.4034 3.51689 2.39526 3.45829 2.39689 3.4054C2.40422 3.17591 2.34725 2.95049 2.3798 2.71531C2.40991 2.49803 2.2618 2.31737 2.1438 2.14403C2.11776 2.10578 2.03232 2.0952 1.97372 2.0952C1.84108 2.0952 1.70843 2.11962 1.5766 2.11636C1.49603 2.11474 1.39512 2.10334 1.3406 2.05533C1.23806 1.965 1.13308 1.96581 1.01346 1.97883C0.70666 2.01138 0.544717 1.88281 0.503214 1.57845C0.48287 1.43116 0.568317 1.27247 0.720495 1.23178C0.845818 1.1976 0.98172 1.19516 1.11274 1.18946C1.27631 1.18214 1.43988 1.18702 1.60426 1.18458C1.64251 1.18458 1.69215 1.18702 1.71819 1.16586C2.01685 0.916844 2.37248 1.03728 2.69962 1.03159C3.04141 1.02508 3.38483 1.09588 3.71278 0.938003C3.74533 0.922541 3.79172 0.921727 3.82752 0.929865C3.9561 0.959975 4.07247 0.941258 4.18803 0.877783C4.31335 0.809425 4.45088 0.824073 4.57621 0.871272C4.74222 0.93312 4.89602 0.931492 5.07424 0.905451C5.48114 0.846045 5.89535 0.837093 6.30713 0.809425C6.39258 0.803728 6.47884 0.80617 6.5651 0.800473C6.67821 0.793963 6.7718 0.816749 6.86457 0.8965C6.93537 0.958347 7.03953 0.987644 7.13393 1.01287C7.22345 1.03728 7.32029 1.0324 7.41225 1.0503C7.57094 1.08123 7.7402 1.08937 7.84193 1.25131C7.86227 1.28386 7.92086 1.29281 7.98108 1.32211L7.98027 1.3213Z" fill="white"/>
<path d="M30.1722 7.72985C30.2446 7.80553 30.3252 7.89017 30.4212 7.99026C30.33 8.03909 30.2706 8.07083 30.2161 8.09931C30.1705 8.3288 30.3707 8.2401 30.4627 8.29706C30.5262 8.4354 30.4301 8.50864 30.3414 8.58433C30.291 8.62746 30.2454 8.67873 30.1884 8.70965C30.0078 8.80974 29.9077 8.96925 29.8231 9.14828C29.8027 9.19222 29.7425 9.24756 29.7018 9.24593C29.5301 9.24024 29.4259 9.37777 29.2754 9.42415C29.251 9.66096 29.1094 9.7692 28.8831 9.82128C28.7155 9.85953 28.5462 9.90103 28.4128 10.054C28.3371 10.1411 28.1646 10.1606 28.0319 10.1761C27.8545 10.1964 27.6714 10.1663 27.494 10.1883C27.1514 10.2314 26.8251 10.1362 26.4963 10.0858C26.3246 10.0597 26.17 9.93033 26.0015 9.86115C25.9039 9.82128 25.7948 9.80582 25.6898 9.78385C25.5287 9.74967 25.3464 9.80175 25.2162 9.64225C25.1877 9.60725 25.099 9.62027 25.0331 9.6097C24.9957 9.65771 24.9631 9.70084 24.9298 9.74234C24.6702 10.0646 24.3227 10.05 24.0615 9.72688C23.9776 9.62353 23.8393 9.56575 23.7457 9.50146C23.7075 9.26302 23.6708 9.03516 23.6342 8.8073C23.631 8.78452 23.6163 8.75441 23.6261 8.74139C23.7327 8.59002 23.7351 8.41425 23.7465 8.2401C23.7498 8.18639 23.788 8.12047 23.7677 8.08222C23.6432 7.84704 23.7856 7.58581 23.6863 7.34981C23.657 7.28146 23.6448 7.20333 23.6358 7.12847C23.6179 6.97466 23.5976 6.82004 23.5984 6.66542C23.5984 6.54498 23.6896 6.47337 23.7929 6.4221C23.9378 6.35049 24.0802 6.27155 24.2283 6.20807C24.2812 6.18529 24.3552 6.18041 24.4089 6.19994C24.5701 6.2569 24.7279 6.32363 24.8826 6.39769C25.0201 6.4636 25.1503 6.54498 25.3155 6.63694C25.2878 6.7411 25.2528 6.87456 25.2089 7.0422C25.3261 7.06662 25.4197 7.09673 25.5157 7.10487C25.6638 7.11707 25.7574 7.19682 25.7191 7.33924C25.685 7.46781 25.7313 7.54756 25.803 7.63383C25.8323 7.66963 25.8738 7.71358 25.8729 7.75264C25.8681 7.9512 26.0097 7.97806 26.1513 8.00003C26.3295 8.0277 26.4776 8.08141 26.5476 8.27346C26.6086 8.4411 26.7616 8.34751 26.8959 8.36623C26.9968 8.46958 27.1099 8.59002 27.2995 8.55991C27.4061 8.54364 27.4834 8.5176 27.5298 8.40367C27.5925 8.25067 27.6153 8.24905 27.7805 8.29299C27.8106 8.30113 27.8407 8.30927 27.8708 8.31741C28.1727 8.39797 28.2752 8.31252 28.2468 8.00247C28.2248 7.76159 28.2337 7.74938 28.4689 7.68347C28.5145 7.52722 28.5902 7.37423 28.5967 7.2188C28.6032 7.05197 28.543 6.88352 28.5129 6.71506C28.4657 6.45628 28.4128 6.20726 28.1214 6.09333C28.0563 6.0681 28.0221 5.96068 27.9928 5.91837C27.8106 5.82234 27.6535 5.73852 27.4964 5.65551C27.4566 5.63436 27.4191 5.60262 27.3768 5.59367C27.2491 5.56681 27.1188 5.55054 26.9903 5.52775C26.7087 5.47811 26.4271 5.42603 26.1447 5.37639C26.0837 5.36581 26.0178 5.37476 25.96 5.35767C25.759 5.29664 25.5694 5.20305 25.3643 5.15422C25.1609 4.91416 24.8899 4.76523 24.627 4.6041C24.5701 4.56911 24.54 4.49424 24.4887 4.44704C24.4277 4.39171 24.3634 4.33474 24.2901 4.29975C24.1843 4.25011 24.1493 4.16141 24.116 4.06375C24.0908 3.99051 24.0802 3.89774 24.0281 3.85217C23.906 3.74393 23.9077 3.63733 23.9597 3.49736C23.9988 3.39157 24.0021 3.27194 24.024 3.14092C23.95 3.13604 23.902 3.1336 23.8295 3.12871C23.9703 2.84552 24.103 2.57697 24.2429 2.29458C24.1485 2.19123 24.0354 2.07974 24.1445 1.89827C24.3609 1.8942 24.4854 1.78027 24.4985 1.54265C24.5107 1.31967 24.7052 1.26433 24.8663 1.1976C25.0494 1.12192 25.2227 1.04135 25.3912 0.929052C25.5385 0.831398 25.7387 0.793964 25.9201 0.771992C26.1358 0.745137 26.3571 0.757344 26.5752 0.76304C26.6509 0.764668 26.7372 0.779316 26.7998 0.819191C27.0114 0.953466 27.2417 0.963231 27.4777 0.946142C27.612 0.936377 27.7373 0.934749 27.8643 0.998224C27.9863 1.05844 28.1174 1.06414 28.2468 0.991714C28.298 0.962418 28.3664 0.946956 28.425 0.951025C28.783 0.976252 29.1403 1.00962 29.4975 1.03891C29.6294 1.04949 29.7018 1.12762 29.762 1.23992C29.8231 1.35385 29.9118 1.45232 29.9785 1.56299C30.0029 1.60287 30.0241 1.67367 30.0053 1.70622C29.937 1.82666 29.9842 1.90885 30.0591 2.00162C30.0932 2.04312 30.1217 2.12776 30.1014 2.16763C30.0354 2.30272 30.0729 2.40607 30.1559 2.51268C30.1819 2.54604 30.1836 2.59813 30.2023 2.65916C30.0778 2.71368 29.9598 2.76576 29.845 2.81541C29.8515 2.9391 29.8548 3.05303 29.8637 3.16615C29.8711 3.26055 29.9459 3.28577 30.02 3.31832C30.1836 3.39075 30.1966 3.46969 30.0761 3.59257C30.0346 3.6357 29.998 3.68453 29.9638 3.73417C29.8589 3.88797 29.7596 4.04585 29.6497 4.1964C29.6212 4.23546 29.5626 4.27371 29.5179 4.27452C29.2957 4.28022 29.0947 4.23709 28.9214 4.06863C28.7871 3.93843 28.6683 3.79439 28.5039 3.68453C28.3184 3.56083 28.1849 3.35576 28.0417 3.17591C27.992 3.11325 27.9798 3.01885 27.9554 2.93747C27.944 2.90085 27.957 2.83819 27.9367 2.8268C27.6852 2.68195 27.6584 2.26529 27.2775 2.27831C27.2645 2.27831 27.2515 2.26285 27.2255 2.24576C27.2255 2.09195 27.1685 1.96744 26.987 1.94303C26.9642 1.93977 26.9398 1.93001 26.9178 1.93326C26.712 1.96663 26.5069 2.00243 26.2774 2.0415C26.257 2.09602 26.2302 2.16519 26.2017 2.24006C26.0894 2.27749 26.0593 2.14159 26.0113 2.1302C25.855 2.19286 25.7297 2.24331 25.5832 2.30272C25.4831 2.40933 25.5173 2.64207 25.3017 2.69985C25.2577 2.83901 25.3448 3.01804 25.1829 3.12546C25.1885 3.28008 25.1845 3.43632 25.2056 3.58932C25.2121 3.6357 25.2838 3.6829 25.3358 3.70976C25.4188 3.75207 25.51 3.77893 25.5987 3.80904C25.7175 3.84891 25.816 3.90018 25.9055 4.00353C26.1187 4.25011 26.6932 4.36485 26.9976 4.2322C27.1188 4.17931 27.2149 4.18582 27.328 4.24685C27.4224 4.29812 27.5306 4.32579 27.6332 4.3616C27.6625 4.37218 27.6991 4.36811 27.7235 4.38438C27.9538 4.53331 28.2378 4.54714 28.4697 4.66839C28.6553 4.76523 28.8848 4.78721 29.0321 4.96949C29.0849 5.0346 29.1956 5.05087 29.2754 5.09807C29.4463 5.19979 29.6131 5.30803 29.7897 5.41789C29.7946 5.52124 29.7995 5.62947 29.8051 5.75968C29.9321 5.80525 30.0615 5.85164 30.2202 5.9086C30.2031 5.96964 30.195 6.03555 30.1673 6.09252C30.1225 6.18447 30.1168 6.26911 30.1689 6.35944C30.1917 6.3985 30.2137 6.44733 30.2096 6.48964C30.1941 6.68658 30.2869 6.79563 30.47 6.84527C30.5148 6.85747 30.5595 6.87701 30.5978 6.90223C30.671 6.95106 30.6702 7.02023 30.5961 7.06987C30.5514 7.09998 30.4993 7.12033 30.4489 7.1423C30.3528 7.18299 30.3211 7.24321 30.3121 7.35632C30.3032 7.47921 30.2251 7.59639 30.1722 7.72904V7.72985Z" fill="white"/>
<path d="M32.9375 9.39567C32.9993 9.45345 33.0514 9.50228 33.1401 9.58528V9.35498C33.1499 9.34766 33.167 9.33383 33.1849 9.32162C33.3655 9.20606 33.5608 9.15317 33.7781 9.14828C33.9319 9.14503 34.0459 8.98227 34.1012 8.83823C34.1923 8.60061 34.1264 8.36054 34.1411 8.12373C34.1508 7.97236 34.0939 7.79903 34.0157 7.66394C33.9441 7.53862 33.9458 7.42876 33.9734 7.3075C33.9938 7.21636 34.0263 7.12766 34.0638 7.04139C34.1223 6.90468 34.1337 6.77447 34.0703 6.6345C34.0426 6.57347 34.0369 6.4986 34.0361 6.42943C34.032 6.13972 34.0336 5.85001 34.0328 5.56031C34.0328 5.52938 34.032 5.49602 34.0402 5.46753C34.1044 5.25758 34.1085 5.05983 33.9783 4.86371C33.9417 4.80837 33.9718 4.70095 33.9889 4.6212C33.9995 4.57074 34.0442 4.52761 34.0703 4.48041C34.1647 4.31033 34.1525 4.25011 34.0182 4.11014C33.9449 4.03446 33.8815 3.94901 33.8229 3.87984C33.9303 3.72522 34.032 3.60559 34.1028 3.47051C34.2159 3.25485 34.1809 3.1572 33.9726 3.02862C33.8912 2.97817 33.8147 2.93748 33.8278 2.81541C33.8367 2.72752 33.7545 2.70636 33.6837 2.69416C33.5836 2.67707 33.4835 2.66242 33.3826 2.64777C33.276 2.63231 33.1743 2.62498 33.0848 2.53709C33.0327 2.48664 32.9269 2.49152 32.826 2.46711C32.9131 2.28482 32.8447 2.12451 32.7706 1.96012C32.7251 1.8584 32.7641 1.77132 32.8756 1.74284C33.1222 1.68018 33.3631 1.58659 33.6316 1.64926C33.7366 1.67367 33.8644 1.64275 33.9718 1.60612C34.2379 1.51417 34.4414 1.60775 34.6236 1.79248C34.6619 1.83073 34.7083 1.86165 34.7425 1.90316C34.8539 2.0415 35.0671 2.07486 35.1103 2.2954C35.1241 2.36539 35.2633 2.4134 35.3487 2.46711C35.4382 2.52326 35.531 2.57453 35.6392 2.63719C35.5302 2.75844 35.4822 2.89679 35.3219 2.91388C35.3072 2.9155 35.2885 2.92446 35.282 2.93585C35.1941 3.07908 35.1217 3.22881 35.0672 3.4111H35.5725C35.5652 3.55107 35.7589 3.61455 35.6783 3.76998C35.6222 3.8774 35.5546 3.97831 35.4838 4.09468C35.5514 4.16629 35.6335 4.26557 35.7304 4.34695C35.7605 4.37218 35.8394 4.36811 35.8793 4.34695C35.9509 4.30789 36.0038 4.23302 36.0762 4.19559C36.1503 4.15734 36.2374 4.14513 36.331 4.11828C36.3424 4.08084 36.357 4.0369 36.3692 3.99296C36.4262 3.79765 36.6353 3.66337 36.8314 3.6886C37.0316 3.71464 37.2326 3.74638 37.4336 3.75289C37.7787 3.76347 38.0855 3.87252 38.3475 4.0898C38.433 4.1606 38.5257 4.2672 38.542 4.36892C38.5876 4.65538 38.7829 4.77012 39.0173 4.85801C39.075 4.87917 39.1353 4.893 39.2175 4.9166C39.2085 4.99228 39.2264 5.08912 39.1865 5.1347C39.0612 5.27629 39.0832 5.43824 39.0816 5.60018C39.0816 5.67017 39.0816 5.74015 39.0816 5.81746C39.193 5.85978 39.2964 5.89884 39.4119 5.94278C39.3696 6.05427 39.3525 6.15193 39.2996 6.22191C39.2484 6.29027 39.2142 6.33666 39.2573 6.42454C39.2736 6.45628 39.2362 6.51732 39.2183 6.56289C39.1784 6.66543 39.1572 6.7468 39.2313 6.86399C39.346 7.04546 39.3184 7.25949 39.2427 7.47026C39.3078 7.49223 39.3729 7.51502 39.4526 7.54187C39.4421 7.69242 39.6829 7.81042 39.5462 7.97155C39.4469 8.08874 39.5454 8.29951 39.3167 8.33124C39.4608 8.4883 39.5853 8.62339 39.7074 8.75767C39.8929 8.68605 39.9962 8.44354 40.2542 8.5355C40.2062 8.66571 40.0011 8.70721 40.0776 8.88462C40.2884 9.03272 40.4332 9.22966 40.4756 9.50635H40.666C40.6782 9.54134 40.6953 9.58203 40.7075 9.62435C40.7929 9.94172 40.7791 9.90917 40.465 10.0223C40.2648 10.0939 40.0207 10.0817 39.8603 10.2705C39.8213 10.3169 39.7358 10.3372 39.6683 10.3445C39.4819 10.3641 39.2948 10.3747 39.1076 10.3804C39.0571 10.382 39.0002 10.3624 38.9546 10.3372C38.7853 10.2436 38.6161 10.2347 38.4411 10.3152C38.4142 10.3275 38.3825 10.3364 38.354 10.334C38.1766 10.3185 38 10.2884 37.8234 10.2835C37.5126 10.2737 37.2367 10.1387 36.947 10.0548C36.7826 10.0076 36.6321 9.98323 36.475 10.0711C36.4172 10.1037 36.344 10.1199 36.2773 10.124C35.8638 10.1476 35.4504 10.1663 35.037 10.1859C34.9825 10.1883 34.9166 10.207 34.8751 10.1834C34.679 10.0752 34.4845 10.1549 34.2859 10.1614C33.9506 10.172 33.6137 10.1639 33.2793 10.1354C33.1393 10.1232 32.9944 10.0573 32.8707 9.98323C32.6714 9.86523 32.7055 9.5682 32.9383 9.39405L32.9375 9.39567ZM36.8461 5.71655C36.877 5.73527 36.89 5.74666 36.9039 5.74992C37.0129 5.77596 37.0658 5.84432 37.0495 5.95418C37.0333 6.06892 36.947 6.10391 36.8453 6.10635C36.6996 6.10961 36.5539 6.10717 36.4148 6.10717C36.3855 6.01114 36.3651 5.94523 36.3391 5.86141C36.2846 5.87605 36.1999 5.8785 36.1934 5.90291C36.1633 6.01602 36.0746 6.13484 36.1829 6.25121C36.2496 6.32282 36.2406 6.39525 36.1853 6.46117C36.0746 6.59381 35.9615 6.73053 35.7613 6.71018C35.671 6.70123 35.6067 6.73541 35.5676 6.81109C35.435 7.06337 35.3276 7.31808 35.5115 7.59884C35.4968 7.6143 35.4846 7.63464 35.4667 7.64685C35.3031 7.76241 35.2747 7.89261 35.3984 8.04805C35.4724 8.14082 35.4683 8.21162 35.3951 8.29462C35.3674 8.32636 35.3544 8.36949 35.3227 8.43134C35.5033 8.43459 35.5929 8.51597 35.6222 8.67303C35.6392 8.76499 35.7141 8.80975 35.7987 8.76011C35.9208 8.68849 36.0356 8.7007 36.147 8.76499C36.2187 8.80649 36.261 8.78778 36.3041 8.73081C36.3643 8.65187 36.4278 8.57456 36.4913 8.494C36.7012 8.52655 36.8998 8.55747 37.1268 8.59247C37.1399 8.47691 37.1586 8.37275 37.1626 8.26858C37.1675 8.14163 37.2253 8.07816 37.3449 8.10013C37.3881 8.10827 37.4247 8.14407 37.4678 8.16035C37.5769 8.20348 37.6501 8.15058 37.6428 8.0334C37.6363 7.93249 37.6257 7.83077 37.6151 7.72986C37.6029 7.60697 37.6265 7.50444 37.7323 7.4198C37.7998 7.36609 37.8438 7.2839 37.9154 7.19357C37.6265 7.09836 37.6753 6.85015 37.6078 6.65973C37.4735 6.60521 37.2806 6.63125 37.2636 6.3985C37.4247 6.38223 37.576 6.36758 37.7404 6.3513C37.7014 6.19913 37.668 6.06648 37.6371 5.94604C37.751 5.85164 37.8535 5.7784 37.9406 5.6897C38.0301 5.59937 38.0432 5.48951 37.9659 5.44475C37.8356 5.36907 37.6908 5.3178 37.55 5.26083C37.4808 5.23316 37.4027 5.22584 37.3368 5.19247C37.1447 5.09726 36.9738 5.15504 36.9087 5.3593C36.8738 5.46916 36.8681 5.58797 36.8469 5.71574L36.8461 5.71655Z" fill="white"/>
<path d="M12.6946 3.05303C12.7744 3.11814 12.8142 3.15639 12.859 3.1865C13.0283 3.2988 13.1951 3.28578 13.3668 3.14743C13.4294 3.09698 13.4962 3.03839 13.5743 3.10023C13.746 3.23614 13.9153 3.23207 14.0862 3.10512C14.3124 3.26706 14.5451 3.28089 14.8096 3.17673C14.7999 2.94317 14.8422 2.71125 14.6583 2.51594C14.598 2.45246 14.5785 2.35237 14.5281 2.27831C14.4971 2.23274 14.4475 2.19205 14.397 2.16764C14.2855 2.11311 14.1667 2.07568 14.0552 2.02197C13.9348 1.96338 13.8241 1.89339 13.6801 1.96094C13.641 1.97965 13.5613 1.96663 13.5295 1.93734C13.331 1.75179 13.1015 1.69401 12.8232 1.76807C12.7597 1.63868 12.697 1.52393 12.6466 1.40349C12.6026 1.30014 12.6246 1.21469 12.7272 1.14308C12.8435 1.0617 12.9452 0.965677 13.1064 1.02346C13.1438 1.03648 13.1991 1.02101 13.2398 1.00311C13.6939 0.808616 14.1716 0.750024 14.6599 0.763044C14.8772 0.768741 15.0936 0.79641 15.3109 0.814313C15.3264 0.81594 15.3427 0.81594 15.3573 0.820009C15.5567 0.879416 15.7984 1.28224 15.7552 1.49138C15.7023 1.74854 15.739 1.99511 15.822 2.24006C15.8578 2.34748 15.8586 2.45165 15.7886 2.55093C15.7056 2.6673 15.6901 2.77391 15.7748 2.91388C15.8594 3.05548 15.8488 3.21823 15.7365 3.36878C15.6617 3.46888 15.6063 3.59257 15.5754 3.71464C15.5607 3.77242 15.6096 3.86031 15.6527 3.91727C15.7487 4.04748 15.8488 4.16792 15.7203 4.3323C15.7113 4.3437 15.7032 4.36486 15.7072 4.37625C15.7854 4.58214 15.6853 4.80755 15.7862 5.01263C15.8659 5.17457 15.9204 5.3414 15.8741 5.53182C15.8578 5.59693 15.8895 5.68726 15.9278 5.74992C16.0686 5.98347 16.0458 6.2154 15.9237 6.43919C15.8667 6.54254 15.8309 6.63369 15.8749 6.7468C15.8806 6.76145 15.8879 6.77773 15.8863 6.79156C15.8692 6.92502 15.8236 7.06174 15.8391 7.19113C15.8586 7.35552 15.7845 7.45642 15.6844 7.55978C15.6112 7.63546 15.6202 7.71439 15.691 7.78682C15.7561 7.85437 15.8138 7.939 15.8936 7.9805C16.0523 8.06269 16.0563 8.1929 16.0409 8.33694C16.0336 8.40611 16.0157 8.47447 16.001 8.54364C15.9668 8.70558 16.0279 8.79917 16.1865 8.82521C16.2167 8.83009 16.2508 8.83416 16.2801 8.82684C16.4925 8.77557 16.6968 8.85369 16.8962 8.89194C17.1224 8.93426 17.347 9.02866 17.4373 9.29639C17.4984 9.47787 17.4805 9.70003 17.3283 9.81803C17.1354 9.96695 16.9369 10.0963 16.6642 10.0426C16.5593 10.0223 16.4291 10.0548 16.3281 10.1012C16.0393 10.2339 15.7675 10.2038 15.4981 10.0589C15.3467 9.97753 15.2043 9.87581 15.0473 9.8107C14.913 9.75537 14.7641 9.73339 14.62 9.70898C14.5704 9.70003 14.5069 9.71549 14.4621 9.74072C14.2408 9.86441 14.0276 10.0011 13.8038 10.1191C13.7249 10.1606 13.6239 10.1728 13.532 10.1753C13.1804 10.1859 12.8289 10.1899 12.4773 10.1891C12.4204 10.1891 12.3569 10.159 12.3089 10.1256C12.0851 9.97102 11.8922 9.77083 11.6294 9.67317C11.5838 9.65609 11.552 9.59912 11.5162 9.55843C11.3958 9.42497 11.277 9.2907 11.1557 9.15805C11.0727 9.06772 10.9653 8.99692 10.945 8.85939C10.9401 8.82684 10.9026 8.79266 10.8709 8.77313C10.7163 8.67792 10.6894 8.52737 10.6886 8.36624C10.6886 8.19453 10.6968 8.02282 10.6984 7.85111C10.6992 7.73474 10.6902 7.61755 10.6943 7.50118C10.6968 7.41736 10.7033 7.33192 10.7228 7.25135C10.7773 7.0243 10.7765 6.80133 10.6691 6.59219C10.626 6.50674 10.6064 6.43187 10.652 6.35049C10.7228 6.22191 10.7293 6.10391 10.6284 5.9851C10.5958 5.94685 10.5804 5.88745 10.5722 5.83537C10.556 5.72795 10.709 5.26165 10.7749 5.16481C10.8172 5.10296 10.8652 5.03135 10.8701 4.96055C10.8807 4.80186 10.8611 4.64805 10.9311 4.48774C10.9726 4.39252 10.9938 4.3087 11.0914 4.255C11.1508 4.22244 11.22 4.17687 11.2461 4.11909C11.351 3.88961 11.5114 3.72441 11.7441 3.62838C11.7514 3.62513 11.7596 3.62187 11.7636 3.61617C11.9809 3.26381 12.4244 3.3167 12.6979 3.05466L12.6946 3.05303ZM12.1559 4.87673C12.1559 4.96706 12.1526 5.03623 12.1559 5.1054C12.1632 5.24456 12.081 5.36907 11.9532 5.40813C11.7718 5.46347 11.6977 5.61564 11.7351 5.80037C11.7644 5.94197 11.7628 6.09008 11.775 6.239C11.6993 6.25446 11.6481 6.26504 11.5756 6.28051C11.5276 6.53929 11.4666 6.79726 11.4365 7.0593C11.4145 7.24647 11.4625 7.2839 11.6432 7.33192C11.6839 7.3425 11.7197 7.36935 11.7897 7.40434C11.7221 7.45968 11.6741 7.49711 11.6277 7.5378C11.5431 7.61186 11.5545 7.71765 11.583 7.79903C11.6261 7.9211 11.6985 8.03584 11.7718 8.14407C11.8092 8.1986 11.8727 8.26044 11.9321 8.27021C12.0704 8.293 12.1331 8.38658 12.1941 8.48912C12.2364 8.55992 12.2828 8.60874 12.3756 8.61281C12.6979 8.62583 12.9778 8.77394 13.226 8.87811C13.3481 8.86265 13.4351 8.84311 13.523 8.8423C13.6785 8.84067 13.8127 8.79103 13.9332 8.69501C14.0137 8.63072 14.0959 8.56724 14.1968 8.4883C14.2009 8.40774 14.2074 8.30032 14.2115 8.21406C14.406 8.08548 14.5834 7.9683 14.7624 7.84948C14.7608 7.63302 14.7518 7.42062 14.8886 7.23833C14.9008 7.22205 14.9081 7.19194 14.9024 7.17241C14.8267 6.89654 15.0033 6.59788 14.8235 6.33015C14.8047 6.30248 14.8145 6.25284 14.8186 6.21459C14.8349 6.07462 14.7885 5.95418 14.7055 5.84594C14.6078 5.71818 14.5167 5.58879 14.4345 5.448C14.358 5.31698 14.2815 5.1998 14.2945 5.04111C14.2115 5.01588 14.1391 4.9931 14.0658 4.97113C14.0365 4.88405 13.9934 4.80837 13.9299 4.76117C13.7485 4.62852 13.5556 4.51134 13.3741 4.3795C13.2895 4.31766 13.2236 4.2851 13.1251 4.35835C13.0844 4.38846 12.9998 4.39497 12.9534 4.37381C12.8183 4.31115 12.6954 4.35265 12.5497 4.38357C12.5009 4.61306 12.4448 4.84824 12.1551 4.87917L12.1559 4.87673Z" fill="white"/>
<path d="M78.0341 4.8515C77.991 4.67572 77.9609 4.5504 77.9292 4.42508C77.9178 4.37951 77.8958 4.33638 77.8877 4.2908C77.8535 4.09387 77.9577 3.96285 78.1448 4.01168C78.3328 4.0605 78.4948 4.01737 78.6705 3.97912C78.979 3.91077 79.276 3.9718 79.5559 4.11177C79.5966 4.13212 79.6471 4.1606 79.6642 4.19803C79.7667 4.42101 79.984 4.46577 80.1825 4.53738C80.351 4.59841 80.491 4.54877 80.5951 4.40636C80.7017 4.26151 80.7945 4.10689 81.002 4.0841C81.046 4.07922 81.0891 4.02063 81.1233 3.97912C81.2242 3.85706 81.3609 3.8066 81.509 3.77649C81.8964 3.69755 82.2862 3.69186 82.6719 3.77649C82.7736 3.79928 82.8794 3.85055 82.9584 3.91809C83.1089 4.04667 83.2652 4.11828 83.4694 4.09631C83.6916 4.0719 83.8991 4.14351 84.1082 4.22977C84.1107 4.338 84.1733 4.456 84.0602 4.53331C83.9878 4.58295 83.8942 4.64643 83.8169 4.52436C83.7998 4.55366 83.7876 4.56505 83.7868 4.57807C83.7738 4.73757 83.9731 4.81651 83.9316 5.00205C83.8934 5.17539 84.0659 5.26897 84.1644 5.4065C84.1457 5.45452 84.1392 5.53508 84.0977 5.56356C83.9748 5.64738 83.9878 5.75724 84.0033 5.87524C84.0114 5.93628 84.0415 6.01359 84.0163 6.05753C83.8844 6.28702 84.0008 6.51732 83.9845 6.7525C84.0708 6.7875 84.1497 6.81842 84.2254 6.84934C84.2034 7.01536 84.1506 7.18299 84.1668 7.34331C84.1864 7.53292 84.262 7.71684 84.2271 7.91377C84.3589 8.0334 84.3198 8.27347 84.5338 8.34182C84.5705 8.35322 84.5884 8.4289 84.6103 8.47691C84.6291 8.51923 84.6413 8.5648 84.66 8.61851C84.7479 8.62258 84.839 8.62746 84.9106 8.63072C84.9741 8.7536 85.014 8.87323 85.0888 8.96518C85.1588 9.05063 85.2614 9.11166 85.3558 9.17514C85.4827 9.25977 85.5372 9.38672 85.5731 9.52425C85.5999 9.62598 85.6015 9.7277 85.499 9.79768C85.486 9.80664 85.4705 9.81559 85.4648 9.82861C85.3094 10.1818 84.9464 10.1924 84.6543 10.3177C84.6144 10.3348 84.5623 10.3266 84.5159 10.3258C84.2832 10.3218 84.0496 10.312 83.8169 10.3128C83.6216 10.3128 83.4263 10.3307 83.231 10.3307C83.0056 10.3307 82.7769 10.2957 82.5751 10.4373C82.4196 10.2933 82.2496 10.242 82.0534 10.2322C81.8052 10.2192 81.7076 10.0841 81.7418 9.84163C81.7523 9.76513 81.7702 9.68945 81.7881 9.59668C81.7686 9.58447 81.7491 9.57064 81.7287 9.56006C81.4358 9.41358 81.3723 9.4445 81.3048 9.76351C81.2982 9.79362 81.2925 9.82535 81.2787 9.85221C81.199 10.0044 80.731 10.2306 80.5504 10.2176C80.3583 10.2038 80.1655 10.2029 79.9734 10.1989C79.9514 10.1989 79.9246 10.2046 79.9067 10.2168C79.6796 10.3681 79.4273 10.3242 79.1783 10.3144C78.992 10.3071 78.8056 10.3128 78.6193 10.3096C78.4638 10.3071 78.3068 10.3087 78.1521 10.2925C77.991 10.2754 77.847 10.22 77.7949 10.0394C77.7868 10.0117 77.7656 9.97672 77.742 9.96695C77.5206 9.87337 77.5809 9.68538 77.5996 9.52181C77.6207 9.32976 77.7241 9.18084 77.9137 9.12143C78.0228 9.08725 78.1432 9.07993 78.2588 9.07342C78.3751 9.06609 78.4931 9.07504 78.6103 9.07504C78.9204 9.07342 78.9236 8.97983 78.935 8.71128C78.9415 8.5591 78.9065 8.40449 78.8846 8.25149C78.8756 8.19046 78.8561 8.13105 78.8349 8.07246C78.7478 7.83077 78.7364 7.60372 78.9293 7.39783C78.9724 7.35226 78.9822 7.27414 79.0026 7.20985C79.0205 7.15126 79.0172 7.08208 79.0489 7.03326C79.1075 6.94211 79.101 6.85423 79.0636 6.76552C79.0001 6.61579 79.0042 6.46198 79.0196 6.30492C79.0375 6.12507 79.0432 5.94523 78.9391 5.78247C78.9228 5.75806 78.9147 5.72306 78.9155 5.69295C78.9179 5.34547 78.6933 5.20468 78.4061 5.09401C78.2547 5.03542 78.1269 4.91416 78.035 4.85231L78.0341 4.8515ZM82.5458 5.84188C82.5913 5.67261 82.6426 5.53264 82.6638 5.38941C82.6809 5.27711 82.6402 5.16481 82.5165 5.12493C82.3708 5.07855 82.2243 5.02158 82.0705 5.04193C82.0201 5.14121 81.9753 5.22991 81.9289 5.32268C81.8182 5.30641 81.7198 5.29176 81.6213 5.27711C81.6449 5.30397 81.6685 5.33082 81.6921 5.35849C81.5879 5.4179 81.4618 5.45858 81.3878 5.54403C81.3292 5.61158 81.286 5.68238 81.1949 5.68156C81.0753 5.68075 81.0321 5.76213 80.9971 5.84839C80.9174 6.04288 80.7799 6.18855 80.5935 6.26749C80.4088 6.34561 80.3168 6.51569 80.1711 6.62799C79.9653 6.78587 80.0654 6.97792 80.0792 7.16346C80.0816 7.20253 80.0711 7.24484 80.0841 7.27984C80.106 7.34087 80.128 7.41004 80.172 7.45399C80.2851 7.57036 80.3005 7.60047 80.1777 7.6851C80.0401 7.7795 80.0157 7.92028 80.0629 8.03503C80.1329 8.20592 80.1606 8.35566 80.08 8.52493C80.0483 8.59166 80.0857 8.64618 80.1573 8.66897C80.1866 8.67873 80.2249 8.67548 80.2468 8.69257C80.4291 8.83905 80.6187 8.96356 80.8686 8.9367C81.0045 9.08888 81.2185 9.09132 81.3755 9.20037C81.4708 9.26628 81.5595 9.26466 81.662 9.22885C81.8589 9.16049 82.0396 9.04819 82.2528 9.02459C82.4693 9.00099 82.584 8.87485 82.5848 8.70884C82.6621 8.64374 82.7305 8.61526 82.7468 8.56806C82.7867 8.45738 82.7907 8.34101 82.7232 8.23034C82.6833 8.16442 82.6613 8.08792 82.628 8.00817C82.8591 7.83077 82.8103 7.59884 82.7036 7.39865C82.632 7.26437 82.6263 7.1537 82.667 7.02675C82.7045 6.90956 82.7533 6.79645 82.7761 6.73623C82.7582 6.50999 82.7338 6.33422 82.7329 6.15844C82.7329 6.00789 82.7289 5.87443 82.5474 5.84188H82.5458Z" fill="white"/>
<path d="M63.1086 8.40774C63.1932 8.38414 63.2884 8.34833 63.3869 8.33287C63.6351 8.29218 63.8361 8.33613 63.9508 8.59003C63.9972 8.69175 64.0933 8.7715 64.1714 8.85776C64.2755 8.97332 64.3976 9.07586 64.4879 9.20118C64.6019 9.35906 64.575 9.46566 64.4757 9.62679C64.313 9.89371 64.0469 9.9344 63.7783 9.96858C63.6563 9.98404 63.548 9.98974 63.4292 10.0605C63.229 10.1802 63.0134 10.2298 62.7627 10.1183C62.5072 10.0044 62.2199 9.98323 61.94 10.0833C61.905 10.0963 61.8643 10.0988 61.8261 10.0988C61.4672 10.098 61.1083 10.0915 60.7494 10.0955C60.5948 10.0972 60.441 10.1281 60.2864 10.1297C60.2066 10.1305 60.1106 10.1199 60.0487 10.076C59.8445 9.93033 59.6085 9.88313 59.3733 9.86442C59.1544 9.84651 59.0649 9.67399 58.9265 9.56087C58.8915 9.53239 58.885 9.41114 58.916 9.36801C59.0331 9.20525 59.1357 9.02296 59.3367 8.94077C59.3652 8.92938 59.405 8.92449 59.4213 8.90334C59.5466 8.73977 59.6988 8.76499 59.8616 8.83091C59.9706 8.87567 60.0667 8.87567 60.1562 8.77557C60.2481 8.67304 60.3726 8.64292 60.5134 8.63153C60.6859 8.61688 60.8642 8.61933 61.0228 8.50051C61.1482 8.40611 61.2011 8.29951 61.1734 8.16116C61.1189 7.89587 61.1132 7.63546 61.1832 7.37342C61.1946 7.32948 61.2011 7.2717 61.1823 7.23508C61.0814 7.03733 61.1726 6.87457 61.2645 6.71019C61.3777 6.50755 61.3915 6.30818 61.2776 6.09822C61.2084 5.97127 61.1604 5.83211 61.1124 5.719C61.1384 5.60263 61.1596 5.49927 61.1856 5.39674C61.2125 5.29176 61.2336 5.1819 61.2784 5.08424C61.3842 4.85232 61.3874 4.84499 61.1815 4.69607C61.1799 4.68874 61.1767 4.68061 61.1767 4.67328C61.1783 4.38683 61.0562 4.28755 60.7706 4.34858C60.6868 4.36649 60.6054 4.4088 60.5216 4.41287C60.3523 4.42182 60.1651 4.45682 60.0162 4.39904C59.8412 4.33149 59.6712 4.32987 59.4954 4.31603C59.2903 4.29976 59.2407 4.25744 59.1756 4.06864C59.073 3.77242 59.1894 3.51608 59.322 3.26462C59.3399 3.23126 59.4156 3.21661 59.4645 3.21498C59.628 3.20928 59.7924 3.21498 59.956 3.21417C60.0658 3.21417 60.1708 3.20766 60.2579 3.11895C60.3157 3.06036 60.3987 3.03676 60.4727 3.09047C60.6208 3.1987 60.786 3.1808 60.9455 3.15232C61.1848 3.11 61.4127 3.14418 61.6356 3.22393C61.765 3.27032 61.9042 3.31019 62.0108 3.38994C62.1402 3.4876 62.2655 3.52015 62.4217 3.50794C62.5365 3.49899 62.661 3.50469 62.7692 3.53968C62.9426 3.59665 63.0768 3.56572 63.2282 3.46725C63.4618 3.31589 63.71 3.18731 64.007 3.20766C64.0591 3.21091 64.1152 3.16208 64.1698 3.13767C64.3187 3.07094 64.466 2.97491 64.6361 3.04571C64.894 3.15232 65.1666 3.16534 65.4368 3.18731C65.5451 3.19626 65.6272 3.23777 65.7078 3.30612C65.7957 3.38099 65.9088 3.42901 65.9886 3.5112C66.118 3.64466 66.2994 3.73336 66.3417 3.94739C66.3605 4.04097 66.4304 4.12723 66.4882 4.20943C66.5631 4.31522 66.5891 4.4202 66.5192 4.53494C66.437 4.66921 66.4687 4.79372 66.5192 4.93451C66.6103 5.19004 66.5867 5.43987 66.3889 5.65064C66.3727 5.66773 66.3466 5.68319 66.3434 5.70191C66.3076 5.93058 66.1212 5.92895 65.9544 5.96395C65.8266 5.9908 65.7037 6.04288 65.5752 6.0616C65.3847 6.08845 65.1911 6.09578 65.0486 6.10717C64.8843 5.89315 64.7508 5.719 64.6092 5.53589C64.4114 5.73527 64.2503 5.60344 64.0623 5.50823C64.0941 5.43824 64.1209 5.37802 64.1502 5.3121C64.2821 5.35768 64.4001 5.39755 64.5181 5.43824C64.5311 5.42115 64.5441 5.40488 64.5563 5.38779C64.4993 5.30315 64.4424 5.2177 64.3838 5.13144C64.0697 5.22096 63.784 5.17376 63.5122 5.03379C63.4072 4.98008 63.3324 4.9988 63.2827 5.1054C63.2306 5.21689 63.1957 5.33733 63.1289 5.43905C63.0728 5.52532 62.9898 5.59856 62.9068 5.66122C62.6569 5.85083 62.4738 6.05997 62.517 6.41071C62.5381 6.58405 62.495 6.76471 62.482 6.94212C62.4779 6.99501 62.4592 7.05767 62.4803 7.09918C62.5487 7.23426 62.5414 7.35308 62.4364 7.4548C62.5221 7.59423 62.6276 7.6219 62.753 7.53781C62.8726 7.45724 62.9515 7.48491 62.9515 7.62732C62.9515 7.75346 62.9133 7.88041 62.884 8.05293C62.9361 8.13512 63.0174 8.2637 63.107 8.4053L63.1086 8.40774Z" fill="white"/>
<path d="M73.3191 4.8816C73.3524 4.81731 73.3801 4.76442 73.4053 4.7164C73.2914 4.49424 73.2174 4.25661 73.0033 4.11746C72.9276 4.06863 72.843 4.0312 72.7584 4.00271C72.6518 3.96691 72.5395 3.94575 72.4524 3.92378C72.2815 3.95063 72.1253 3.98969 71.9682 3.99702C71.7184 4.00922 71.4677 4.00515 71.2179 3.99864C71.0828 3.99458 70.986 4.0434 70.885 4.1321C70.7019 4.29242 70.5864 4.46983 70.6352 4.72047C70.6954 5.03296 70.4847 5.20711 70.278 5.35115C70.1242 5.45857 69.9175 5.43091 69.736 5.36499C69.6424 5.33081 69.5553 5.27873 69.4674 5.23071C69.3397 5.16154 69.2461 5.07447 69.2322 4.9109C69.2233 4.80917 69.1737 4.70745 69.1248 4.61387C69.063 4.49424 69.0345 4.36892 69.0988 4.2558C69.2192 4.04422 69.2851 3.79032 69.5106 3.65034C69.6538 3.56164 69.7962 3.46887 69.9484 3.39807C70.3325 3.21985 70.3349 3.22962 70.7955 3.2166C70.9217 3.21334 71.047 3.17021 71.2097 3.13847C71.2879 3.23206 71.4392 3.22067 71.5873 3.21985C71.6964 3.21985 71.8063 3.21497 71.9153 3.22148C71.9845 3.22555 72.074 3.22311 72.1171 3.26298C72.262 3.39644 72.4312 3.38342 72.6021 3.37935C72.7527 3.37528 72.878 3.43551 73.0172 3.48759C73.3801 3.62186 73.5901 3.91889 73.8212 4.1793C73.9685 4.34532 74.0987 4.56992 74.0759 4.83277C74.0629 4.98821 74.0735 5.14527 74.0735 5.30151C74.0735 5.41137 74.0873 5.50821 74.1597 5.6075C74.2126 5.68074 74.2183 5.79792 74.2191 5.89558C74.224 6.61496 74.2216 7.33353 74.2216 8.05292C74.2216 8.31333 74.4152 8.58758 74.648 8.68849C74.8954 8.79591 75.1387 8.91309 75.378 9.03679C75.4235 9.06039 75.465 9.13281 75.4691 9.18571C75.4813 9.333 75.4805 9.48274 75.4691 9.63004C75.4642 9.68619 75.4203 9.74152 75.3869 9.79198C75.2364 10.0158 74.9955 10.1468 74.7627 10.2135C74.5332 10.2794 74.2696 10.3006 74.0189 10.1525C73.8578 10.0573 73.7056 9.96531 73.5624 9.84325C73.4664 9.76187 73.328 9.73094 73.2296 9.68781C73.0977 9.71955 72.9757 9.73501 72.865 9.77977C72.6876 9.85057 72.5183 9.94171 72.345 10.0223C72.2896 10.0483 72.2327 10.0858 72.1749 10.0874C72.0447 10.0915 71.9332 10.1183 71.8299 10.2062C71.7892 10.2404 71.7119 10.242 71.6516 10.2412C71.4775 10.2387 71.3066 10.2379 71.1707 10.4031C71.0372 10.2355 70.8647 10.2379 70.6914 10.2428C70.6051 10.2453 70.5172 10.2314 70.4334 10.2453C70.1404 10.2941 69.9223 10.1142 69.6741 10.0166C69.3852 9.90347 69.1973 9.67968 68.9849 9.47786C68.7643 9.26709 68.6374 9.01319 68.5959 8.71209C68.5894 8.66651 68.5755 8.61931 68.5527 8.58025C68.3859 8.29543 68.3932 8.01223 68.5503 7.72741C68.5649 7.70055 68.591 7.66881 68.5869 7.64359C68.5527 7.41328 68.7147 7.2489 68.7912 7.0601C68.8433 6.93234 68.98 6.83875 69.0793 6.72971C69.1964 6.5995 69.3193 6.48801 69.5163 6.50185C69.5716 6.50591 69.6294 6.46034 69.6872 6.44C69.7799 6.40663 69.8719 6.37408 69.9655 6.34479C70.0094 6.33095 70.0721 6.34316 70.0989 6.3163C70.2527 6.16413 70.444 6.19668 70.6295 6.19424C70.8224 6.19179 71.0096 6.20726 71.1853 6.0738C71.2626 6.0152 71.4116 6.04857 71.5288 6.04613C71.6703 6.04369 71.8038 6.0388 71.9226 5.93545C71.9739 5.89069 72.0675 5.88174 72.1423 5.87849C72.3222 5.87035 72.502 5.86872 72.6819 5.87849C72.8324 5.88581 72.9512 5.84919 73.0562 5.73282C73.1205 5.66121 73.2125 5.60261 73.3036 5.57006C73.4013 5.53426 73.4428 5.47566 73.4501 5.38371C73.4647 5.20223 73.4631 5.0232 73.3183 4.88323L73.3191 4.8816ZM70.7451 9.01237C70.8981 9.01237 71.0234 9.01807 71.1479 9.00993C71.2236 9.00505 71.3098 8.9961 71.3709 8.95703C71.5515 8.84229 71.7729 8.78777 71.9063 8.6006C71.9259 8.57293 71.9723 8.56316 72.0073 8.54689C72.2498 8.43214 72.4939 8.31903 72.7356 8.20103C72.7665 8.18557 72.8015 8.14813 72.8072 8.11558C72.8349 7.96666 72.9342 7.86819 73.0383 7.77461C73.1457 7.67777 73.1734 7.54756 73.1254 7.43282C73.0399 7.22937 72.8894 7.03976 72.677 6.99012C72.4613 6.94048 72.2172 6.8949 72.0073 7.06824C71.9535 7.11218 71.8616 7.11788 71.7859 7.12439C71.685 7.13334 71.5833 7.12521 71.4816 7.12765C71.2675 7.13172 71.0429 7.08533 70.8598 7.25297C70.8354 7.27576 70.7858 7.27413 70.7475 7.2782C70.4912 7.3018 70.2877 7.43444 70.0924 7.58744C69.9411 7.70625 69.8711 7.87633 69.7848 8.04234C69.6611 8.28078 69.6554 8.43621 69.8467 8.62176C70.3211 9.08236 70.1063 9.00423 70.7451 9.01237Z" fill="white"/>
<path d="M56.3956 8.03014C56.5071 8.13838 56.6121 8.23115 56.7032 8.3345C56.7415 8.37763 56.7594 8.44436 56.7708 8.50377C56.7822 8.56399 56.7757 8.62827 56.7757 8.69094C56.7765 9.06853 56.6389 9.25652 56.2833 9.41439C56.1743 9.46322 56.0856 9.56087 55.9952 9.64551C55.8878 9.74642 55.7959 9.86604 55.6356 9.88964C55.6063 9.89371 55.5705 9.90999 55.5542 9.93277C55.4256 10.1126 55.2205 10.1793 55.039 10.2794C54.9748 10.3153 54.8934 10.3315 54.8193 10.3356C54.6045 10.3462 54.3913 10.3153 54.1952 10.4666C54.1178 10.526 53.9673 10.4845 53.8542 10.5065C53.5547 10.5635 53.3098 10.4202 53.0624 10.2965C52.8426 10.1867 52.6441 10.0329 52.3845 10.0239C52.3544 10.0231 52.3153 10.0158 52.2966 9.99543C52.1436 9.83837 51.9548 9.73828 51.7684 9.62679C51.5243 9.48112 51.4389 9.20688 51.3192 8.96518C51.2948 8.91635 51.2899 8.84474 51.2517 8.81951C51.0588 8.68768 51.0173 8.45819 50.892 8.28404C50.8627 8.24335 50.8529 8.18232 50.8513 8.12942C50.8481 8.01631 50.8188 7.9211 50.748 7.82751C50.7065 7.77217 50.6983 7.68103 50.6975 7.60616C50.6943 6.9885 50.6943 6.37084 50.6975 5.75399C50.6975 5.68563 50.6967 5.59693 50.7358 5.55217C50.8448 5.42766 50.857 5.28769 50.8497 5.13632C50.8448 5.03297 50.9001 4.94915 50.9327 4.85638C51.0369 4.55854 51.2753 4.38032 51.4755 4.16792C51.5764 4.06131 51.6749 3.94657 51.8352 3.92216C51.8637 3.91809 51.8962 3.90018 51.9166 3.87821C52.1973 3.582 52.601 3.4998 52.9289 3.28903C53.1478 3.14825 53.3683 3.16208 53.5986 3.16127C53.8875 3.15964 54.1773 3.15394 54.4661 3.16534C54.5614 3.16859 54.6541 3.21823 54.7477 3.24834C54.9512 3.31263 55.109 3.48841 55.345 3.48271C55.411 3.48109 55.4874 3.53805 55.5436 3.58525C55.6502 3.67558 55.7641 3.74638 55.8862 3.81555C56.0367 3.90018 56.1759 4.03446 56.2719 4.1785C56.403 4.37544 56.4925 4.60085 56.5934 4.81651C56.6153 4.86371 56.6129 4.9223 56.621 4.97601C56.6284 5.02239 56.617 5.08506 56.6438 5.11191C56.7944 5.26327 56.7708 5.45289 56.7806 5.63924C56.7838 5.69784 56.8098 5.76212 56.8424 5.81258C56.984 6.0323 56.9913 6.24551 56.8367 6.46198C56.8058 6.50511 56.8017 6.56614 56.7724 6.6109C56.7407 6.6581 56.6984 6.70123 56.652 6.7346C56.5592 6.80214 56.4485 6.85015 56.368 6.92909C56.2776 7.01942 56.1832 7.06174 56.0579 7.06093C55.2295 7.05848 54.4002 7.06255 53.5718 7.05604C53.4863 7.05604 53.3944 7.0121 53.3171 6.96734C53.1747 6.88515 53.0306 6.86318 52.9012 6.96408C52.8133 7.03163 52.7255 7.05197 52.6229 7.06174C52.3633 7.08697 52.0972 7.38888 52.0964 7.65173C52.0964 7.72986 52.1021 7.80879 52.0956 7.8861C52.0639 8.25475 52.2274 8.5412 52.4748 8.79266C52.5627 8.88136 52.662 8.96193 52.7369 9.06039C52.8728 9.23943 53.0852 9.30372 53.2683 9.37614C53.4383 9.44287 53.667 9.46729 53.8444 9.30941C53.877 9.28012 53.929 9.25977 53.9722 9.25896C54.1081 9.2557 54.2375 9.24675 54.3359 9.13608C54.3449 9.1255 54.3644 9.11817 54.3783 9.11899C54.7339 9.12875 54.9756 8.84474 55.2962 8.76499C55.3239 8.75848 55.3507 8.73325 55.3703 8.71047C55.5525 8.494 55.8178 8.41913 56.0579 8.29788C56.1727 8.2401 56.2638 8.13675 56.3932 8.03177L56.3956 8.03014ZM55.1172 6.12507C55.1717 6.12589 55.2278 6.11856 55.2807 6.12751C55.5338 6.17064 55.7169 6.0616 55.865 5.87036C55.8748 5.85815 55.887 5.84839 55.8976 5.83699C56.0213 5.70028 56.0384 5.54322 55.9521 5.38778C55.9074 5.30722 55.8748 5.22014 55.826 5.14202C55.6958 4.93451 55.6282 4.68711 55.415 4.5325C55.3279 4.46902 55.2563 4.38195 55.1863 4.29894C55.0561 4.14432 54.9015 4.0662 54.694 4.09224C54.5784 4.10689 54.4596 4.09387 54.3425 4.09549C54.1862 4.09712 54.0324 4.10526 53.9046 3.97994C53.8672 3.94332 53.7874 3.93843 53.7272 3.93843C53.5124 3.93843 53.2862 3.88879 53.1079 4.06782C53.0982 4.07759 53.0786 4.07596 53.064 4.08166C52.7759 4.18338 52.5879 4.41612 52.439 4.65294C52.3479 4.79779 52.2738 4.95322 52.1387 5.05576C51.9597 5.19248 51.9353 5.41789 51.8067 5.58065C51.7798 5.61483 51.7855 5.68888 51.8002 5.73852C51.8458 5.8964 52.1656 6.12589 52.3381 6.1267C52.7442 6.12914 53.1511 6.12996 53.5571 6.12507C53.632 6.12426 53.7175 6.11287 53.7801 6.07625C54.0609 5.91186 54.3327 5.91186 54.6118 6.07787C54.6623 6.10798 54.7282 6.12019 54.7884 6.12426C54.8974 6.13158 55.0073 6.1267 55.1164 6.1267L55.1172 6.12507Z" fill="white"/>
<path d="M44.7967 6.69554C44.7853 6.70286 44.7528 6.71344 44.7332 6.73623C44.6339 6.8526 44.5273 6.87457 44.38 6.81517C44.284 6.7761 44.166 6.78261 44.0586 6.78506C43.9658 6.7875 43.8722 6.80866 43.7811 6.82819C43.659 6.85423 43.5386 6.88759 43.3929 6.92421C43.3734 7.20904 43.3848 7.4784 43.6322 7.69649C43.6004 7.77787 43.5671 7.86413 43.528 7.96586C43.694 8.17419 43.86 8.38984 44.0358 8.59817C44.083 8.65432 44.1587 8.72105 44.223 8.72268C44.4842 8.72919 44.6144 8.87892 44.6917 9.11492C44.7511 9.11492 44.8057 9.12143 44.8577 9.11411C45.0726 9.08318 45.2728 9.11736 45.4713 9.21095C45.6463 9.29314 45.8318 9.32162 45.9889 9.15398C46.0141 9.12713 46.0532 9.10597 46.089 9.09865C46.22 9.07098 46.3201 9.01483 46.4137 8.90741C46.5162 8.78778 46.6643 8.70722 46.7929 8.60956C46.8051 8.5998 46.8214 8.5941 46.8312 8.58271C46.9516 8.45006 47.0493 8.28161 47.1957 8.19372C47.343 8.10583 47.5294 8.07816 47.6685 7.95853C47.7157 7.91784 47.7768 7.88773 47.8101 7.83809C47.9021 7.70138 48.0323 7.74614 48.1487 7.76567C48.182 7.77136 48.2268 7.86169 48.2235 7.91052C48.2097 8.1042 48.1829 8.29788 48.1527 8.48993C48.1308 8.62828 48.1023 8.76581 48.064 8.90008C48.0461 8.96356 48.0079 9.02703 47.9639 9.07586C47.7898 9.26629 47.6075 9.44776 47.4334 9.63737C47.352 9.72607 47.2527 9.75618 47.1396 9.757C46.9833 9.757 46.8531 9.81152 46.7457 9.92708C46.6627 10.0158 46.5618 10.0491 46.4349 10.0597C46.2265 10.0768 46.0198 10.1224 45.8164 10.1737C45.6316 10.22 45.4632 10.2681 45.2825 10.1395C45.2028 10.0825 45.0734 10.0947 44.966 10.0776C44.817 10.054 44.7104 10.0044 44.612 9.85872C44.4582 9.63167 44.2116 9.48845 43.9219 9.47624C43.7494 9.46892 43.5728 9.49577 43.4735 9.30535C43.4702 9.29884 43.4629 9.29151 43.4564 9.28988C43.1992 9.23455 43.1301 9.00343 43.0031 8.81952C42.9014 8.67304 42.7696 8.54771 42.6467 8.41669C42.5474 8.3109 42.4758 8.19453 42.4563 8.04886C42.453 8.02608 42.453 8.00004 42.4416 7.98051C42.2894 7.71847 42.2927 7.41655 42.2333 7.13173C42.2097 7.02105 42.2577 6.89492 42.2357 6.78343C42.1926 6.56289 42.2593 6.42048 42.453 6.3033C42.5816 6.22517 42.5913 6.11368 42.5026 5.97534C42.2878 5.63843 42.383 5.28118 42.418 4.92718C42.4221 4.88731 42.4685 4.85232 42.4912 4.81244C42.5661 4.67979 42.6402 4.54633 42.7134 4.41369C42.7207 4.39985 42.7215 4.38032 42.7321 4.37137C42.9836 4.14188 43.078 3.77893 43.3848 3.59909C43.5174 3.52096 43.6655 3.46725 43.7624 3.33868C44.0236 3.3045 44.2482 3.18894 44.4549 3.03107C44.4704 3.01886 44.5029 3.01886 44.5233 3.02537C44.6909 3.08396 44.8431 3.07582 44.9676 2.93178C44.9765 2.92121 44.9961 2.91714 45.0107 2.91632C45.3655 2.88296 45.722 2.82111 46.0703 2.96027C46.1419 2.98875 46.2192 3.00258 46.2924 3.02781C46.4161 3.06931 46.5374 3.11814 46.6619 3.1572C46.7726 3.1922 46.8841 3.22393 46.9972 3.24753C47.1673 3.28334 47.304 3.3517 47.3593 3.53399C47.3951 3.65117 47.4814 3.72929 47.5896 3.78626C47.9501 3.97506 48.1698 4.26883 48.261 4.6684C48.2927 4.80919 48.3749 4.93776 48.4254 5.07448C48.4425 5.12168 48.4343 5.17783 48.4384 5.22991C48.4473 5.34466 48.4286 5.47161 48.4734 5.57089C48.5751 5.79956 48.4856 6.00138 48.4066 6.19669C48.3179 6.4156 48.2138 6.63206 47.9037 6.62148C47.8093 6.61823 47.7141 6.72239 47.6156 6.76878C47.5009 6.8233 47.4008 6.82656 47.3064 6.70775C47.2006 6.57429 47.1347 6.57184 46.9874 6.67113C46.7823 6.80866 46.5862 6.8762 46.3714 6.68415C46.338 6.65404 46.255 6.67926 46.1956 6.67764C46.089 6.67519 45.9816 6.68008 45.8766 6.66624C45.7928 6.65485 45.7269 6.64997 45.6365 6.68496C45.4738 6.74844 45.2907 6.76959 45.1141 6.78099C45.0229 6.78668 44.9277 6.73379 44.7983 6.69717L44.7967 6.69554ZM44.9139 5.9908C44.935 5.98429 44.9497 5.97778 44.9652 5.97615C45.4453 5.91186 45.9254 5.84676 46.4056 5.78654C46.5065 5.77352 46.6163 5.74748 46.618 5.64413C46.6196 5.49683 46.7156 5.47649 46.81 5.45533C46.9524 5.42278 47.0981 5.40732 47.2421 5.38453C47.2576 5.11924 47.1786 4.90358 46.9516 4.77745C46.8458 4.71886 46.8271 4.64317 46.7962 4.54308C46.7465 4.38439 46.6953 4.2021 46.583 4.09387C46.4308 3.94657 46.2306 3.83427 46.0312 3.75533C45.8335 3.67721 45.6064 3.61048 45.4022 3.63164C45.2012 3.6528 44.9692 3.71383 44.8561 3.94169C44.7983 4.05888 44.7259 4.14595 44.5631 4.0955C44.363 4.03365 44.2173 4.12886 44.1188 4.29894C44.1375 4.41531 44.2507 4.50971 44.1668 4.64073C43.9626 4.6627 43.7559 4.68549 43.5671 4.70665C43.4971 4.89219 43.4059 5.04762 43.3832 5.21201C43.353 5.43255 43.235 5.59449 43.1179 5.76376C43.0389 5.87769 43.0576 5.99813 43.1862 6.04858C43.2847 6.08683 43.4002 6.1031 43.5052 6.09578C43.7152 6.08032 43.9235 6.04044 44.1318 6.01115C44.4031 5.97371 44.6448 6.02227 44.8569 6.15681C44.8773 6.09904 44.896 6.0437 44.9147 5.99162L44.9139 5.9908Z" fill="white"/>
<path d="M90.293 8.61769C90.5616 8.66734 90.56 8.91147 90.6739 9.06935C90.595 9.15968 90.5193 9.24675 90.4428 9.33464C90.4501 9.34278 90.4582 9.35091 90.4656 9.35905C90.5567 9.30778 90.647 9.2557 90.7447 9.20036C90.8586 9.56982 90.7504 9.8872 90.4639 10.0516C90.3638 10.1094 90.2515 10.1647 90.1401 10.1785C89.7275 10.229 89.3173 10.2241 88.9397 10.0117C88.8779 9.97672 88.7786 9.97183 88.7997 9.85709C88.8014 9.84651 88.7737 9.81884 88.7574 9.81721C88.5141 9.79036 88.3611 9.61621 88.1959 9.46891C88.047 9.33627 87.9062 9.19304 87.776 9.04168C87.667 8.91554 87.623 8.76824 87.6474 8.58921C87.6889 8.27753 87.9062 8.1514 88.1569 8.04642C88.2423 8.01061 88.3269 7.97236 88.4108 7.93411C88.4856 7.89994 88.545 7.821 88.6451 7.86169C88.6598 7.8682 88.6907 7.85355 88.7053 7.83972C88.9316 7.63139 89.1586 7.54106 89.4939 7.52397C89.5557 7.52071 89.6184 7.5142 89.6794 7.50444C89.996 7.45398 90.2955 7.68021 90.3199 8.00003C90.3305 8.1457 90.3126 8.29137 90.3809 8.43134C90.4159 8.50376 90.42 8.58758 90.293 8.61851V8.61769Z" fill="white"/>
<path d="M90.7048 8.66326C90.8391 8.62582 90.927 8.6006 91.0303 8.5713C90.93 8.53766 90.8261 8.54472 90.7187 8.59246C90.5909 8.40691 90.7122 8.25067 90.8033 8.11802C90.9181 7.9512 91.0906 7.84459 91.2826 7.75996C91.5316 7.65009 91.7815 7.61999 92.0476 7.64521C92.2746 7.66718 92.4699 7.80716 92.4984 8.00409C92.5082 8.07408 92.4846 8.1522 92.4642 8.223C92.3552 8.60141 92.0598 8.83497 91.7823 9.07991C91.6977 9.15478 91.5911 9.2028 91.495 9.26464C91.3746 9.34277 91.2517 9.31184 91.141 9.25651C90.9042 9.13769 90.8131 8.91065 90.7057 8.66244L90.7048 8.66326ZM91.3323 8.46144L91.3184 8.50701C91.3876 8.52573 91.4568 8.54444 91.526 8.56235C91.53 8.55014 91.5341 8.53793 91.5373 8.52573C91.469 8.50376 91.4006 8.4826 91.3323 8.46062V8.46144Z" fill="white"/>
<path d="M89.2408 6.2219C89.1838 6.23248 89.1261 6.24225 89.0618 6.25364C89.0577 6.22353 89.0463 6.19912 89.0528 6.18121C89.1692 5.8557 89.4101 5.61889 89.6713 5.42114C89.9203 5.23234 90.3044 5.35197 90.4688 5.6018C90.4892 5.63272 90.516 5.67667 90.5079 5.70759C90.4656 5.87767 90.481 6.05101 90.433 6.2276C90.3443 6.55311 90.1653 6.81922 90.0033 7.09835C89.9268 7.23018 89.7608 7.26924 89.6371 7.26518C89.4646 7.25948 89.2758 7.19356 89.1944 7.00965C89.1261 6.85503 89.0723 6.69064 89.0349 6.52545C88.9975 6.35781 89.0105 6.35536 89.1765 6.30084C89.2026 6.29189 89.227 6.27643 89.2522 6.26341C89.2481 6.24957 89.2432 6.23574 89.2392 6.2219H89.2408ZM90.2304 5.76374C90.2198 5.75642 90.2092 5.74991 90.1986 5.74258C90.1799 5.77188 90.1612 5.80199 90.1425 5.83129C90.1531 5.83454 90.171 5.84431 90.1742 5.84105C90.1946 5.81664 90.2117 5.78978 90.2304 5.76374Z" fill="white"/>
<path d="M91.827 7.02268C91.7896 7.11219 91.7749 7.22368 91.7115 7.28716C91.4999 7.502 91.2802 7.71683 90.9368 7.67859C90.9254 7.67696 90.9123 7.69486 90.9001 7.70463C90.7528 7.81937 90.6715 7.7917 90.5762 7.57198C90.6479 7.58988 90.704 7.60372 90.7927 7.62569C90.6967 7.45317 90.5885 7.5435 90.4932 7.55326C90.2939 7.3132 90.3036 6.98524 90.516 6.76552C90.5258 6.75575 90.5543 6.7468 90.5543 6.74599C90.468 6.56207 90.6495 6.48558 90.7146 6.36677C90.765 6.27562 90.8481 6.19587 90.9335 6.13321C91.1492 5.97615 91.2509 5.98917 91.4673 6.18366C91.4527 6.12263 91.4421 6.07706 91.4307 6.02823C91.7123 6.02009 91.8669 6.12019 91.9198 6.36107C91.9589 6.54173 92.0044 6.72727 91.9092 6.90793C91.8816 6.94618 91.8539 6.98443 91.827 7.02268ZM91.6358 6.43919C91.6236 6.44408 91.6106 6.44896 91.5984 6.45384C91.6358 6.53603 91.6732 6.61904 91.7099 6.70123C91.7188 6.69798 91.7269 6.69472 91.7359 6.69228C91.7025 6.60846 91.6692 6.52383 91.6358 6.44001V6.43919Z" fill="white"/>
<path d="M88.8909 6.80783C88.8608 7.12277 88.8119 7.41003 88.5076 7.57279C88.4628 7.59639 88.4352 7.65254 88.3969 7.6916C88.2236 7.87145 87.9917 7.89749 87.7833 7.76322C87.7443 7.73799 87.7044 7.7152 87.6669 7.68672C87.3667 7.45886 87.3007 7.19438 87.4716 6.85747C87.6295 6.54579 87.85 6.28864 88.1634 6.121C88.5076 5.93627 88.7981 6.09007 88.8404 6.47499C88.8534 6.59055 88.8754 6.7053 88.8909 6.80783Z" fill="white"/>
<path d="M4.68774 3.96121C4.77645 4.04259 4.80737 4.08898 4.74796 4.14431C4.73739 4.15408 4.691 4.14431 4.691 4.14269C4.68693 4.0963 4.68856 4.04991 4.68856 3.96121H4.68774Z" fill="white"/>
<path d="M91.827 7.02267C91.8547 6.98442 91.8824 6.94618 91.9092 6.90793C91.8986 6.96001 91.8881 7.01128 91.8783 7.06336C91.8612 7.04953 91.8441 7.03651 91.827 7.02267Z" fill="white"/>
<path d="M37.467 5.40487C37.3466 5.45045 37.2725 5.47893 37.1879 5.51148C37.1952 5.29257 37.2098 5.28606 37.467 5.40487Z" fill="white"/>
</g>
<defs>
<clipPath id="clip0_1278_310">
<rect width="92" height="9.76135" fill="white" transform="translate(0.5 0.756531)"/>
</clipPath>
</defs>
</svg>
