<svg width="93" height="19" viewBox="0 0 93 19" fill="none" xmlns="http://www.w3.org/2000/svg">
<g clip-path="url(#clip0_1278_300)">
<path d="M6.59497 17.4228C7.51435 16.7202 8.67449 14.7266 9.29398 12.8118C8.8181 13.0441 8.41825 13.2511 8.00854 13.4369C6.41476 14.155 4.80267 14.7407 3.00333 14.2507C0.954791 13.6932 0.21281 12.5373 0.598583 10.4535C1.56302 5.25824 6.05292 1.23999 11.351 0.75848C14.3076 0.489565 17.2418 0.755664 20.1801 0.97671C21.8119 1.10061 23.4423 1.26393 25.0882 1.51172C24.5236 1.54974 23.952 1.66097 23.3944 1.6131C19.8746 1.30476 16.3787 1.55537 12.8997 2.06504C10.502 2.41562 8.67027 3.74471 7.20179 5.59051C5.84877 7.29129 4.88856 9.18637 4.56332 11.3602C4.55628 11.4067 4.53235 11.456 4.5422 11.4968C4.67033 12.0403 4.64217 12.7738 4.98852 13.061C5.25321 13.282 6.07404 13.0751 6.50768 12.8231C8.83359 11.4658 10.4992 9.48767 11.6706 7.08996C11.9353 6.5479 12.1577 5.98473 12.4069 5.41592H16.0183C15.7789 5.9256 15.5537 6.39444 15.3396 6.8675C14.3442 9.06951 13.3249 11.2631 12.3675 13.4806C11.4186 15.6769 9.77268 16.9427 7.42424 17.3411C7.17926 17.382 6.92865 17.3918 6.59638 17.4228H6.59497Z" fill="white"/>
<path d="M39.5828 5.69047C38.4395 5.68483 37.6258 6.27194 36.9246 7.05757C35.7856 8.33316 35.0084 9.79882 34.648 11.4728C34.6184 11.6094 34.5579 11.7615 34.5917 11.884C34.7226 12.3528 34.7606 12.9427 35.0704 13.2454C35.5026 13.6692 36.1446 13.4285 36.5318 13.0511C37.2428 12.3598 38.0369 11.6686 38.4902 10.8153C39.4476 9.01319 40.2009 7.10262 41.0541 5.24556C41.4314 4.42333 41.8341 3.61095 42.2579 2.81124C43.142 1.14847 44.6584 0.761291 46.3395 0.803529C44.381 4.4543 42.814 8.27402 41.1794 12.0642C41.1329 12.1712 41.0541 12.2909 41.0724 12.3922C41.2329 13.3299 40.5162 13.4735 39.8925 13.6903C39.1942 13.9339 38.4888 14.1592 37.7848 14.3915L37.6764 14.2394C37.9383 13.9227 38.2016 13.6059 38.4635 13.2877C38.4409 13.2511 38.4184 13.2159 38.3959 13.1793C38.1312 13.2919 37.8567 13.3876 37.6018 13.52C36.5388 14.0719 35.428 14.3366 34.22 14.2127C32.3024 14.017 31.4196 12.8906 31.7758 11.0153C32.3249 8.14027 35.4406 5.21599 38.776 5.53418C39.0464 5.55953 39.3125 5.63556 39.58 5.68765L39.5828 5.69047Z" fill="white"/>
<path d="M71.9019 6.69291C72.979 6.31699 74.111 5.92277 75.2429 5.52855L75.3823 5.73129C75.1965 5.9988 75.0092 6.26631 74.7079 6.69995C75.0881 6.52114 75.319 6.41836 75.5442 6.30714C76.7804 5.69469 78.0644 5.45534 79.4217 5.81577C80.7254 6.16212 81.3562 7.07587 81.2295 8.41622C80.9296 11.5756 77.6223 14.4619 74.4531 14.3183C74.1546 14.3042 73.8589 14.231 73.438 14.1648C76.0863 13.7875 77.0366 11.8361 77.8744 9.84527C78.1799 9.12019 78.2855 8.2712 78.2967 7.47572C78.3094 6.61266 77.5801 6.18465 76.8438 6.64222C76.1299 7.08572 75.364 7.64467 74.9628 8.34723C74.08 9.89314 73.4126 11.5615 72.6566 13.1793C72.1553 14.2507 71.6879 15.3404 71.1444 16.3908C70.5968 17.4481 69.7013 18.0028 68.4736 17.9944C68.0554 17.9916 67.6373 18.0592 67.3613 18.0817C68.1765 16.2725 69.0607 14.4408 69.8322 12.5626C70.601 10.6914 71.7034 8.92448 71.9005 6.69291H71.9019Z" fill="white"/>
<path d="M83.2456 6.6183C84.2622 6.26491 85.4378 5.8552 86.6148 5.4469C86.6514 5.50462 86.6866 5.56376 86.7232 5.62148C86.5444 5.87632 86.3642 6.12975 86.0643 6.55635C86.467 6.39725 86.7064 6.31841 86.933 6.21141C87.989 5.70455 89.0773 5.4821 90.2614 5.6595C91.7819 5.88758 92.545 6.71967 92.5 8.24024C92.4099 11.3095 88.7 14.9561 85.0056 14.1184C87.4314 13.3876 89.6517 10.4113 89.6475 7.79956C89.6475 7.38562 89.442 6.77177 89.1378 6.60985C88.7999 6.42964 88.1636 6.52819 87.7919 6.74079C86.7514 7.33635 86.0474 8.29092 85.5659 9.36659C84.8451 10.9759 84.2016 12.6189 83.5117 14.2423C83.2851 14.7759 83.0133 15.2898 82.7698 15.8163C81.9335 17.6213 80.4622 18.1788 78.7107 17.9493C79.5203 16.1317 80.3777 14.2901 81.1633 12.419C81.9349 10.5774 82.9556 8.81468 83.2471 6.61971L83.2456 6.6183Z" fill="white"/>
<path d="M64.5624 13.2778C62.9475 14.1859 61.2608 14.6801 59.4291 14.4577C58.8321 14.3845 58.2197 14.2817 57.6621 14.0705C56.7385 13.7213 56.4401 13.0258 56.9328 12.1712C57.2764 11.5742 57.7945 11.0125 58.3661 10.6239C59.2489 10.0255 60.2443 9.59325 61.1876 9.08217C61.3918 8.97095 61.5804 8.83016 61.7705 8.6964C62.2055 8.39229 62.2534 8.13464 61.7466 7.81644C61.4199 7.61088 61.1707 7.28424 60.8863 7.01111C61.2186 6.70418 61.5044 6.23533 61.8944 6.12411C62.8462 5.85097 63.8416 5.63696 64.8285 5.5905C66.5772 5.50743 68.3329 5.56797 70.2322 5.56797C69.5648 7.18991 68.9636 8.63868 68.3737 10.0931C67.9541 11.1251 67.5205 12.1529 67.1587 13.2046C67.0657 13.4763 67.2178 13.8311 67.2643 14.2113C66.0422 14.735 65.3269 14.5421 64.5638 13.2778H64.5624ZM65.8324 6.08046C65.7437 6.0875 65.5775 6.08469 65.417 6.11284C64.0302 6.35642 63.5924 7.28565 64.3724 8.37258C64.6385 8.74427 64.5315 8.94279 64.1921 9.15398C63.3009 9.70871 62.3872 10.2353 61.548 10.8618C61.0961 11.1997 60.7019 11.6728 60.4189 12.1627C60.0092 12.8737 60.3006 13.3538 61.1017 13.5312C61.8634 13.6988 62.4928 13.4017 63.0531 12.9667C64.8327 11.5869 66.0844 9.82275 66.8137 7.69818C66.8728 7.525 66.901 7.33634 66.9137 7.15331C66.9644 6.38317 66.6771 6.08187 65.8338 6.08187L65.8324 6.08046Z" fill="white"/>
<path d="M23.0466 5.97206C20.1913 6.94071 19.1917 9.1568 18.6271 11.6714C18.4877 12.2923 18.316 13.0737 19.0059 13.4482C19.6845 13.8185 20.173 13.1835 20.6264 12.778C21.933 11.6108 22.7524 10.1339 23.186 8.45987C23.2747 8.11775 23.1593 7.63764 22.9622 7.33212C22.7242 6.96183 22.7059 6.68869 23.0804 6.5479C24.0801 6.1748 25.0952 5.83267 26.1272 5.5708C26.3018 5.52574 26.6509 5.90025 26.81 6.14946C26.9142 6.31278 26.8664 6.61407 26.8058 6.8309C25.8217 10.3099 23.9787 13.0497 20.2871 14.124C19.21 14.438 18.0977 14.6097 16.9629 14.3394C15.7718 14.055 15.0313 13.2891 15.1017 12.0783C15.1523 11.2194 15.3086 10.2874 15.7085 9.54258C17.0671 7.01533 19.217 5.69329 22.1624 5.81014C22.4102 5.82 22.6538 5.89744 23.048 5.97206H23.0466Z" fill="white"/>
<path d="M40.4078 17.8818C40.9161 17.2313 41.3497 16.8483 41.5708 16.3682C42.9154 13.4341 44.2107 10.4788 45.5186 7.52923C45.5426 7.47432 45.5214 7.39829 45.5214 7.29692C45.1568 7.25609 44.8048 7.21667 44.443 7.17584C44.4683 7.10685 44.4725 7.07165 44.4824 7.06883C45.7763 6.85764 46.2775 5.89884 46.7787 4.83585C47.5292 3.24207 48.4781 1.78768 50.2774 1.12313C51.5995 0.634578 52.8892 0.768331 54.1887 1.15692C54.3055 1.19212 54.4055 1.28082 54.4844 1.46526C54.2154 1.46526 53.9451 1.48638 53.6776 1.46103C52.5682 1.35826 51.691 1.775 51.1109 2.69579C50.4872 3.68416 49.9438 4.72181 49.3651 5.73834C49.4214 5.80592 49.4763 5.87209 49.5327 5.93967C49.9311 5.90447 50.3295 5.86787 50.728 5.83267L50.7928 5.9453C50.3436 6.1748 49.879 6.37754 49.4538 6.64505C49.199 6.80555 48.916 7.02659 48.8019 7.28706C47.708 9.79882 46.6323 12.319 45.5876 14.8505C45.2286 15.7178 44.657 16.3922 43.8193 16.7399C42.7577 17.1806 41.6356 17.4791 40.4092 17.8832L40.4078 17.8818Z" fill="white"/>
<path d="M58.5617 8.89775C57.6578 9.60594 56.6568 10.0846 55.5051 10.1325C55.2362 10.1438 54.7885 10.0311 54.7293 9.86641C54.6378 9.61157 54.711 9.17793 54.8898 8.97237C55.2981 8.50493 55.8247 8.14028 56.2837 7.71508C56.4822 7.53064 56.7342 7.31805 56.7835 7.08151C56.8849 6.60282 56.6315 6.2804 56.1133 6.22267C55.3699 6.14101 54.711 6.55213 54.3985 7.25047C53.6494 8.92591 52.9272 10.6154 52.1134 12.2599C51.6206 13.2567 51.0588 14.2915 49.7495 14.4183C49.1103 14.4802 48.4584 14.4295 47.8037 14.4295C49.1159 12.7372 49.7382 10.7295 50.6013 8.84143C50.987 7.99667 51.3503 7.14065 51.6924 6.27899C51.8572 5.86224 52.1007 5.74257 52.5484 5.77918C53.006 5.81578 53.4763 5.68484 53.9395 5.70033C54.3126 5.713 54.8054 5.2695 55.0658 5.92982C55.0785 5.96221 55.3601 5.88336 55.5178 5.86647C56.5568 5.75383 57.5945 5.58488 58.6349 5.56658C58.9602 5.56095 59.491 5.9073 59.5698 6.19029C59.6613 6.51975 59.453 7.03787 59.2037 7.3279C58.8799 7.70382 58.3688 7.9136 57.9732 8.23602C57.7803 8.3923 57.6663 8.64432 57.517 8.8541C57.7761 8.88648 58.0352 8.92731 58.297 8.94984C58.3829 8.95688 58.4744 8.91746 58.5617 8.90056V8.89775Z" fill="white"/>
<path d="M29.4401 14.3887C28.7868 14.1592 28.0969 13.9987 27.4873 13.6833C26.6285 13.2398 26.2877 12.4359 26.6665 11.5545C27.8843 8.71612 29.1275 5.88617 30.4595 3.09987C31.2451 1.45681 32.7473 0.862664 34.4256 0.875335C33.5794 2.73381 32.6769 4.62044 31.8561 6.54086C30.9621 8.63305 30.1342 10.7534 29.2979 12.8695C29.1064 13.3538 28.9882 13.8734 29.5823 14.2535C29.5344 14.2986 29.488 14.345 29.4401 14.3901V14.3887Z" fill="white"/>
</g>
<defs>
<clipPath id="clip0_1278_300">
<rect width="92" height="17.4358" fill="white" transform="translate(0.5 0.645844)"/>
</clipPath>
</defs>
</svg>
