<svg width="93" height="24" viewBox="0 0 93 24" fill="none" xmlns="http://www.w3.org/2000/svg">
<g clip-path="url(#clip0_1278_259)">
<path d="M52.5234 0.889847H57.2831C57.7667 2.80208 58.2475 4.70457 58.7282 6.60608C58.7682 6.60218 58.8082 6.59828 58.8482 6.59536C59.3152 4.70165 59.7833 2.80891 60.2543 0.898623H65.0676V11.6407H61.8174V5.6095C61.7862 5.60462 61.756 5.59974 61.7248 5.59584C61.1846 7.60267 60.6444 9.61047 60.0963 11.6475H57.5083C56.9457 9.61827 56.3801 7.57927 55.7804 5.41544V11.6407H52.5234V0.889847Z" fill="white"/>
<path d="M90.8295 18.6773C92.0582 19.4896 92.1411 20.7904 92.2386 22.099C92.2776 22.6236 92.4073 23.1414 92.4999 23.6885H89.0509C88.9427 22.9328 88.8013 22.1575 88.7262 21.3755C88.6306 20.3828 88.2318 19.9771 87.2401 19.9684C86.7691 19.9645 86.2991 19.9684 85.7657 19.9684V23.7041H82.2922V12.8733C84.617 12.8733 86.9046 12.8294 89.1903 12.8908C90.4083 12.924 91.4536 13.4671 91.9685 14.6334C92.4746 15.7792 92.3098 16.9259 91.5921 17.9586C91.4058 18.2258 91.1113 18.4179 90.8305 18.6782L90.8295 18.6773ZM85.7852 17.5559C86.6043 17.4886 87.4068 17.4515 88.1996 17.3433C88.5828 17.2916 88.7223 16.964 88.734 16.5798C88.7457 16.18 88.6345 15.8045 88.2328 15.7421C87.4322 15.6183 86.616 15.589 85.7852 15.5178V17.5549V17.5559Z" fill="white"/>
<path d="M72.5166 12.8138H81.6868V15.7275H76.032V16.8294H81.0373V19.6037H76.0037V20.726H81.6419V23.669H72.5166V12.8148V12.8138Z" fill="white"/>
<path d="M68.4532 12.7914H71.912V23.6397H68.4396V19.4291H65.5434V23.6417H62.1168V12.7709H65.5766V16.4403H68.4542V12.7914H68.4532Z" fill="white"/>
<path d="M6.4766 17.4779H11.048V23.5763H8.67455V22.7251C7.94905 23.3404 7.16895 23.5871 6.34983 23.6856C4.42394 23.9176 2.8179 23.275 1.64286 21.7382C0.0329152 19.6319 0.135304 16.0152 1.86714 14.0288C2.82472 12.9298 4.09142 12.4189 5.56778 12.3506C7.24891 12.2736 8.657 12.7914 9.78328 14.0405C10.4454 14.7738 10.7116 15.6914 10.9495 16.61H7.59118C7.33667 15.6826 6.89591 15.2916 6.13335 15.2565C5.16895 15.2116 4.43272 15.6349 4.19284 16.4686C3.86617 17.6027 3.85154 18.7368 4.39664 19.8309C5.05583 21.1522 7.0139 21.3443 7.84764 20.1624C7.88177 20.1146 7.89445 20.0522 7.93735 19.9459H6.47465V17.4779H6.4766Z" fill="white"/>
<path d="M58.1139 16.6041C57.8077 15.7031 57.3357 15.3209 56.5244 15.3267C55.6546 15.3326 54.972 15.8231 54.7253 16.688C54.4581 17.6232 54.4308 18.5778 54.7243 19.512C55.1319 20.8089 56.6249 21.3998 57.797 20.726C58.0427 20.5846 58.2192 20.3223 58.4269 20.1156C58.4045 20.0776 58.3821 20.0386 58.3596 20.0005H57.0188V17.5607H61.4957V23.5715H59.1095C59.1212 23.3082 59.1319 23.0556 59.1436 22.8031C59.091 22.7982 59.0491 22.7806 59.0305 22.7943C56.1861 24.9883 52.2748 23.6319 51.3114 20.0629C50.7672 18.0464 50.9876 16.0883 52.306 14.3857C54.0876 12.0854 57.3845 11.9615 59.3894 13.236C60.2962 13.8123 60.8969 14.6968 61.2002 15.7519C61.2763 16.0161 61.3406 16.2823 61.4255 16.6022H58.1158L58.1139 16.6041Z" fill="white"/>
<path d="M15.4995 12.7095H18.8237C20.1567 16.3506 21.4868 19.9849 22.8354 23.667C21.6458 23.667 20.5165 23.6748 19.3873 23.6534C19.2859 23.6514 19.1465 23.4808 19.0977 23.3599C18.9368 22.963 18.9232 22.4013 18.6384 22.1887C18.3654 21.984 17.8262 22.1322 17.4039 22.1302C16.772 22.1273 16.1401 22.1302 15.4868 22.1302C15.3074 22.6412 15.1319 23.1414 14.969 23.6056H11.479C12.8276 19.9518 14.1567 16.3516 15.5005 12.7104L15.4995 12.7095ZM18.0407 19.5715C17.7589 18.6627 17.4927 17.8065 17.2264 16.9503C17.1855 16.9571 17.1455 16.963 17.1046 16.9698C16.8354 17.826 16.5653 18.6812 16.2845 19.5725H18.0397L18.0407 19.5715Z" fill="white"/>
<path d="M48.0203 12.7592C49.324 16.3954 50.618 20.0054 51.9247 23.6485H48.3372C48.1938 23.1541 48.0515 22.6597 47.9013 22.1419C46.8823 22.1419 45.8798 22.1331 44.8774 22.1546C44.7653 22.1565 44.6014 22.3106 44.5556 22.4296C44.4045 22.8196 44.2972 23.2272 44.1607 23.666H40.6853C41.0403 22.7104 41.402 21.7499 41.755 20.7865C42.6863 18.2453 43.6195 15.7051 44.5371 13.16C44.6473 12.8538 44.7789 12.7377 45.1222 12.7484C46.0768 12.7797 47.0344 12.7592 48.0203 12.7592ZM46.4054 16.8996C46.3674 16.9054 46.3294 16.9123 46.2913 16.9181C46.0076 17.8152 45.7248 18.7124 45.4401 19.6134H47.1953C46.9232 18.6782 46.6639 17.7889 46.4054 16.8996Z" fill="white"/>
<path d="M47.9783 10.218C46.9827 10.218 46.0261 10.2043 45.0705 10.2326C44.9174 10.2375 44.699 10.3993 44.6326 10.5446C44.4727 10.8937 44.385 11.276 44.2572 11.6817H40.7682C41.1114 10.7445 41.4527 9.81134 41.795 8.87717C42.7214 6.35254 43.6585 3.83182 44.5624 1.2994C44.6863 0.953226 44.8442 0.864489 45.1807 0.871315C46.1207 0.890818 47.0617 0.878141 48.029 0.878141C49.3591 4.46078 50.6873 8.0366 52.0388 11.6758C50.8677 11.6758 49.7258 11.6807 48.5849 11.6641C48.5068 11.6631 48.3976 11.511 48.3616 11.4086C48.225 11.0293 48.1129 10.6412 47.9793 10.218H47.9783ZM47.2801 7.73821C46.9983 6.80403 46.7292 5.91568 46.461 5.02734C46.4171 5.03416 46.3733 5.04196 46.3294 5.04879C46.0534 5.93324 45.7775 6.81768 45.4898 7.73821H47.2792H47.2801Z" fill="white"/>
<path d="M23.3162 23.6846V12.7582H26.7759V20.7387H31.5034V23.6846H23.3162Z" fill="white"/>
<path d="M35.6175 20.7787H40.3079V23.6573H32.1519V12.7933H35.6175V20.7777V20.7787Z" fill="white"/>
<path d="M28.1255 11.7304V0.910324H31.5794V8.79331H36.3108V11.7304H28.1255Z" fill="white"/>
<path d="M40.3703 0.908371V11.7041H36.9222V0.908371H40.3703Z" fill="white"/>
</g>
<defs>
<clipPath id="clip0_1278_259">
<rect width="92" height="22.9849" fill="white" transform="translate(0.5 0.871323)"/>
</clipPath>
</defs>
</svg>
