<svg width="93" height="29" viewBox="0 0 93 29" fill="none" xmlns="http://www.w3.org/2000/svg">
<g clip-path="url(#clip0_1278_285)">
<path d="M53.6327 9.75824C53.6633 9.65826 53.6938 9.60298 53.6938 9.54887C53.6974 7.35403 53.715 5.158 53.6891 2.96434C53.6786 2.03041 53.2986 1.66695 52.38 1.54698C52.2447 1.52933 52.1048 1.53169 51.9718 1.50111C51.7037 1.43994 51.4872 1.3082 51.4978 0.99415C51.5096 0.650691 51.7637 0.595408 52.0365 0.595408C53.3092 0.593056 54.5807 0.594232 55.8534 0.595408C56.011 0.595408 56.1686 0.609523 56.3015 0.705974C56.4568 0.818892 56.525 0.974154 56.5074 1.1647C56.4886 1.36937 56.3674 1.47993 56.1733 1.51757C56.0004 1.55168 55.824 1.56933 55.6558 1.61755C54.9336 1.82339 54.6537 2.17979 54.6501 2.93258C54.6431 4.59812 54.6478 6.26484 54.6478 7.93038C54.6478 9.63591 54.6489 11.3403 54.6454 13.0458C54.6454 13.2411 54.6513 13.4445 54.5995 13.628C54.5066 13.9633 54.189 14.0832 53.9103 13.8786C53.7091 13.7304 53.5339 13.5339 53.3821 13.3328C51.3414 10.631 49.3065 7.9245 47.2693 5.21917C46.7388 4.51578 46.2048 3.81593 45.672 3.11489C45.5896 3.00668 45.5143 2.89259 45.3638 2.85495C45.1838 3.01844 45.2591 3.22663 45.2591 3.40895C45.2532 5.80023 45.2591 8.1915 45.2509 10.5828C45.2497 11.018 45.3332 11.4402 45.3885 11.866C45.4485 12.3283 45.866 12.6247 46.4671 12.6965C46.6988 12.7247 46.9388 12.6965 47.1599 12.7988C47.3798 12.9011 47.4951 13.067 47.4575 13.314C47.4222 13.5516 47.2505 13.6316 47.0376 13.6445C46.8811 13.6551 46.7247 13.6551 46.5682 13.6551C43.73 13.6551 40.8918 13.6551 38.0535 13.6551C37.9359 13.6551 37.8183 13.6539 37.7006 13.6516C37.3913 13.648 37.1572 13.5528 37.1502 13.1905C37.1431 12.8294 37.3642 12.7176 37.6807 12.7141C37.7983 12.7129 37.9159 12.7059 38.0323 12.7059C38.4487 12.7035 38.5805 12.4589 38.5405 12.0895C38.524 11.9366 38.4805 11.7814 38.4217 11.639C38.1406 10.9498 37.8383 10.2699 37.5666 9.5771C37.4266 9.22305 37.2149 9.05368 36.8185 9.05956C35.6634 9.07603 34.5084 9.06779 33.3545 9.06426C33.0828 9.06426 32.8569 9.10543 32.7381 9.39949C32.4311 10.1582 32.0065 10.8721 31.923 11.7155C31.8665 12.2895 31.9642 12.4942 32.497 12.707C32.8099 12.8329 33.2921 12.8576 33.211 13.3305C33.1275 13.8209 32.6487 13.6422 32.3288 13.6492C31.449 13.6704 30.5668 13.6586 29.687 13.6539C29.4106 13.6527 29.1059 13.6598 29.0624 13.281C29.0236 12.9482 29.2377 12.7812 29.5223 12.6906C30.2351 12.4636 30.6327 11.939 30.9067 11.2756C31.9395 8.77844 32.9816 6.28483 34.0202 3.79005C34.359 2.97727 34.6954 2.16215 35.033 1.34937C35.0929 1.2047 35.1541 1.06002 35.2235 0.920047C35.3411 0.680097 35.5011 0.488371 35.7999 0.4919C36.0822 0.495428 36.2104 0.696564 36.3068 0.917695C36.6809 1.77987 37.0525 2.64322 37.4184 3.50893C38.5699 6.23308 39.712 8.95958 40.8718 11.6802C41.3717 12.8553 43.0701 13.2046 44.0041 12.3448C44.2193 12.146 44.3064 11.8919 44.3064 11.6061C44.3064 8.60789 44.3158 5.6085 44.2958 2.61029C44.2911 1.83868 43.997 1.5952 43.2136 1.53404C43.0784 1.52345 42.9372 1.51169 42.8125 1.46347C42.5938 1.37995 42.4503 1.21646 42.4867 0.967097C42.5197 0.742437 42.6937 0.641281 42.9019 0.615404C43.076 0.594232 43.2536 0.595408 43.4289 0.595408C44.2711 0.594232 45.1121 0.605994 45.9543 0.589527C46.3636 0.581293 46.6494 0.727146 46.8988 1.05884C48.956 3.79711 51.0262 6.52596 53.0928 9.25717C53.2328 9.44183 53.3445 9.65473 53.6327 9.76177V9.75824ZM36.9114 8.09387C36.3739 6.57301 35.7634 5.22858 35.1106 3.87709C34.4637 5.26034 33.832 6.60594 33.3039 8.08211C34.5201 8.14328 35.6399 8.12916 36.9102 8.09387H36.9114Z" fill="white"/>
<path d="M37.81 21.6488C37.0078 21.6488 36.2044 21.6652 35.4022 21.6429C34.9376 21.6299 34.7835 21.8217 34.7906 22.271C34.8094 23.466 34.7871 24.6623 34.8035 25.8585C34.8153 26.7442 35.0717 26.9912 35.9586 27.0571C36.0938 27.0676 36.2362 27.0759 36.3597 27.1253C36.5843 27.217 36.6784 27.4064 36.649 27.6475C36.6196 27.8851 36.4526 27.9698 36.2373 27.9863C36.1209 27.9957 36.0033 27.9969 35.8856 27.9969C34.4365 27.9969 32.9886 27.9969 31.5395 27.9969C31.3242 27.9969 31.1078 28.0051 30.9031 27.9157C30.682 27.8193 30.5585 27.6593 30.5903 27.4099C30.6197 27.1723 30.7843 27.0865 30.9984 27.0653C31.0184 27.0629 31.0372 27.0629 31.0572 27.0606C32.3511 26.8947 32.4428 26.7936 32.444 25.4809C32.4464 22.7168 32.4452 19.9526 32.444 17.1885C32.444 16.9544 32.4405 16.7168 32.4087 16.4851C32.3475 16.0358 32.0923 15.7829 31.6242 15.7735C31.4877 15.7711 31.3501 15.77 31.2137 15.7641C30.8937 15.75 30.5961 15.6641 30.6067 15.2806C30.6173 14.8948 30.9302 14.8396 31.2419 14.8278C31.2619 14.8278 31.2807 14.8278 31.3007 14.8278C32.8274 14.8278 34.3554 14.8266 35.8821 14.8325C36.035 14.8325 36.195 14.8643 36.3397 14.916C36.5667 14.9972 36.6831 15.1713 36.6502 15.4194C36.6184 15.657 36.4526 15.7394 36.2385 15.7594C36.1997 15.7629 36.1597 15.77 36.1209 15.7664C35.114 15.6794 34.82 16.0758 34.8012 17.165C34.7859 18.0471 34.7929 18.9293 34.7988 19.8115C34.8035 20.4102 34.8541 20.4678 35.4234 20.4702C37.0489 20.4761 38.6733 20.4619 40.2989 20.4784C40.767 20.4831 40.9152 20.289 40.9058 19.8444C40.8858 18.8846 40.9117 17.9236 40.8952 16.9627C40.8799 16.0534 40.6106 15.8017 39.6931 15.7676C39.5378 15.7617 39.3767 15.7523 39.232 15.7053C39.0262 15.6382 38.9227 15.4688 38.9274 15.2512C38.9321 15.016 39.0862 14.8995 39.2967 14.8619C39.4496 14.8349 39.6084 14.8302 39.7637 14.829C41.2316 14.8266 42.7007 14.8266 44.1687 14.829C44.4027 14.829 44.6439 14.8102 44.8426 14.9713C44.9826 15.0842 45.1144 15.2112 45.0732 15.4136C45.0332 15.6112 44.8873 15.7123 44.7015 15.7406C44.5286 15.7664 44.351 15.7617 44.1745 15.7735C43.6476 15.8064 43.3441 16.0758 43.2712 16.5945C43.2465 16.7686 43.2524 16.9462 43.2524 17.1226C43.2524 20.0244 43.2512 22.925 43.2524 25.8267C43.2524 26.7701 43.4641 26.9888 44.4133 27.0582C44.5298 27.0665 44.6509 27.0688 44.7591 27.1065C44.965 27.177 45.0708 27.3441 45.0779 27.5558C45.0861 27.7887 44.9332 27.9145 44.7274 27.9628C44.5956 27.9945 44.4557 27.9969 44.3192 27.9969C42.7925 27.9992 41.2645 28.0004 39.7378 27.9957C39.5637 27.9957 39.3802 27.9839 39.2191 27.9275C38.9909 27.8475 38.8968 27.6511 38.9262 27.4099C38.9556 27.1735 39.1203 27.0876 39.3355 27.0676C39.3743 27.0641 39.4132 27.0629 39.4532 27.0594C40.647 26.9559 40.8929 26.6913 40.8964 25.4891C40.8999 24.4305 40.9011 23.3719 40.8964 22.3133C40.8929 21.6993 40.8458 21.6546 40.2165 21.6511C39.4143 21.6452 38.611 21.6499 37.8088 21.6499L37.81 21.6488Z" fill="white"/>
<path d="M67.8309 9.76295C67.965 9.52888 67.9203 9.32892 67.9203 9.13719C67.9238 7.09879 67.9238 5.06156 67.9215 3.02315C67.9215 1.98689 67.6804 1.70342 66.6629 1.55639C66.2771 1.50111 65.7831 1.53992 65.8419 0.970628C65.8995 0.413095 66.4088 0.605997 66.7417 0.59894C67.8368 0.577768 68.933 0.590706 70.0293 0.591882C70.2045 0.591882 70.3845 0.58012 70.5492 0.658927C70.7209 0.741263 70.8291 0.874177 70.8256 1.07296C70.8209 1.27057 70.7127 1.40466 70.5362 1.47641C70.4468 1.51287 70.348 1.52463 70.2528 1.54816C69.1259 1.82222 68.8719 2.12686 68.8695 3.30662C68.8613 6.52008 68.866 9.73472 68.866 12.9482C68.866 13.1446 68.8778 13.3422 68.8554 13.5351C68.8084 13.9491 68.579 14.075 68.2038 13.8997C67.965 13.788 67.8144 13.5833 67.6592 13.3775C65.1326 10.0123 62.6049 6.64829 60.0713 3.28898C59.9596 3.14077 59.8784 2.94905 59.6749 2.87024C59.5126 3.03962 59.5844 3.24428 59.5832 3.42777C59.5785 6.05312 59.5773 8.67964 59.5808 11.305C59.582 12.2554 59.9067 12.6047 60.8582 12.7012C61.0899 12.7247 61.3322 12.6941 61.5298 12.8588C61.6863 12.9893 61.818 13.1423 61.7663 13.361C61.7039 13.6304 61.4734 13.6492 61.2534 13.6504C60.216 13.6551 59.1786 13.6551 58.1411 13.6551C57.7894 13.6551 57.4366 13.6598 57.0849 13.6433C56.8061 13.6304 56.5791 13.5092 56.5626 13.1964C56.5485 12.9011 56.7779 12.8047 57.0143 12.74C58.0188 12.4647 58.5214 11.8143 58.5222 10.7886C58.5222 8.16327 58.5222 5.53675 58.5199 2.91141C58.5199 2.67734 58.5105 2.43974 58.474 2.2092C58.4023 1.76223 58.1564 1.51993 57.673 1.53169C57.2872 1.5411 56.7861 1.5905 56.7943 1.02591C56.8026 0.403685 57.3531 0.613054 57.7 0.601292C58.5011 0.574239 59.3056 0.616583 60.1066 0.583649C60.5936 0.563653 60.9335 0.756554 61.2099 1.12236C62.1403 2.3574 63.0695 3.59362 64.0023 4.82631C65.2185 6.43422 66.4359 8.03977 67.6557 9.64532C67.6874 9.68767 67.7474 9.71002 67.8286 9.76412L67.8309 9.76295Z" fill="white"/>
<path d="M76.5797 13.6539C75.0729 13.6539 73.565 13.6563 72.0583 13.6527C71.8642 13.6527 71.663 13.6504 71.4772 13.6045C71.2678 13.5539 71.162 13.3787 71.1467 13.1658C71.1302 12.9447 71.289 12.8517 71.4666 12.807C71.6548 12.7588 71.8489 12.7306 72.043 12.7106C72.6276 12.6506 72.9146 12.3671 72.9663 11.7767C72.9769 11.6602 72.9734 11.5414 72.9734 11.4238C72.9734 8.48439 72.9757 5.54381 72.9734 2.60441C72.9734 1.75047 72.8781 1.64343 72.0253 1.53169C71.6913 1.48817 71.4513 1.35173 71.469 0.984745C71.4878 0.60247 71.7924 0.594236 72.0736 0.594236C74.7554 0.591884 77.4372 0.588355 80.1178 0.596589C80.713 0.598941 80.9094 0.818896 80.9635 1.41172C81.027 2.11275 81.1117 2.81143 81.1764 3.51246C81.2011 3.78182 81.2611 4.10293 80.9023 4.19821C80.5165 4.30054 80.3225 4.05 80.2237 3.71595C80.1072 3.32191 79.9849 2.93729 79.792 2.56677C79.4332 1.8775 78.8639 1.57404 78.1311 1.54934C77.3689 1.52346 76.6044 1.54816 75.841 1.5364C75.4611 1.53052 75.3211 1.7093 75.3235 2.07393C75.3317 3.32779 75.327 4.58283 75.327 5.83669C75.327 6.08841 75.3635 6.33189 75.6822 6.34012C76.2092 6.35306 76.7397 6.41775 77.2596 6.27425C77.8289 6.11781 77.9818 5.9155 78.0253 5.31798C78.0512 4.95923 77.9629 4.51461 78.5228 4.48873C78.891 4.47109 79.0933 4.75809 79.0733 5.36032C79.0392 6.37541 79.011 7.38814 79.078 8.40205C79.0874 8.53732 79.0709 8.67729 79.0427 8.8102C78.9945 9.03722 78.8663 9.21012 78.6228 9.24423C78.3629 9.2807 78.2358 9.09838 78.1323 8.90077C78.0088 8.66553 78.0394 8.4044 78.0194 8.15269C77.9747 7.57281 77.7512 7.33874 77.1772 7.30933C76.7279 7.28699 76.2774 7.30933 75.8269 7.29992C75.4858 7.29404 75.3235 7.44342 75.3258 7.79159C75.3329 9.04545 75.3035 10.3005 75.3435 11.5543C75.3752 12.5259 75.6046 12.7223 76.5609 12.7059C77.1455 12.6953 77.7289 12.7365 78.3135 12.7376C79.6685 12.7388 80.353 11.8966 80.9165 10.8663C81.1023 10.5263 81.2058 10.1405 81.3411 9.77354C81.434 9.523 81.5434 9.27246 81.8704 9.34539C82.1668 9.41126 82.3738 9.63474 82.342 9.93703C82.2268 11.045 82.2456 12.166 82.0139 13.2634C81.9292 13.6645 81.6328 13.6551 81.3352 13.6563C79.7496 13.6586 78.1641 13.6563 76.5785 13.6574L76.5797 13.6539Z" fill="white"/>
<path d="M85.0133 26.9041C84.8039 27.097 84.7863 27.3064 84.6887 27.4734C84.5757 27.6687 84.4464 27.8522 84.1923 27.8087C83.9171 27.7628 83.7383 27.5899 83.6865 27.3064C83.6724 27.23 83.6665 27.1512 83.6665 27.0723C83.6653 26.0537 83.6642 25.0351 83.6665 24.0165C83.6665 23.7095 83.7006 23.3907 84.0747 23.3355C84.424 23.2837 84.611 23.5425 84.7145 23.8307C84.8604 24.2353 84.9498 24.6611 85.1039 25.0622C85.772 26.8136 87.474 27.6722 89.1619 27.07C90.0029 26.7701 90.6075 26.1737 90.6886 25.2363C90.7674 24.3153 90.3475 23.6036 89.5571 23.1332C88.462 22.4815 87.247 22.0804 86.1225 21.4806C84.9051 20.8313 84.1217 19.8997 83.8488 18.5282C83.5724 17.1356 84.4334 15.5159 85.7437 14.9689C87.2152 14.3549 88.569 14.5455 89.8464 15.4641C89.9558 15.5429 90.0687 15.6182 90.1722 15.69C90.4698 15.61 90.4745 15.3347 90.5933 15.1442C90.8098 14.796 91.1873 14.8019 91.3649 15.1724C91.4473 15.3453 91.5026 15.5476 91.5073 15.7382C91.5249 16.4816 91.532 17.2261 91.5132 17.9707C91.5061 18.2389 91.4614 18.5623 91.1262 18.6235C90.7674 18.6894 90.618 18.4106 90.4992 18.1248C90.1523 17.2885 89.7959 16.4651 88.9631 15.9676C87.8727 15.3159 86.66 15.4312 85.9119 16.2781C85.412 16.8439 85.4238 17.7484 85.9225 18.3224C86.5024 18.9905 87.2446 19.401 88.0386 19.7597C89.1219 20.2502 90.2605 20.6501 91.1944 21.4217C91.986 22.0745 92.4224 22.9097 92.4859 23.9542C92.5635 25.2327 92.3342 26.3984 91.2838 27.23C89.7312 28.4591 87.5963 28.5897 85.6885 27.3852C85.4603 27.2417 85.2486 27.0712 85.0133 26.9018V26.9041Z" fill="white"/>
<path d="M56.7732 27.998C56.1275 27.998 55.4817 27.998 54.836 27.998C54.6396 27.998 54.4396 28.0027 54.2702 27.8839C54.0867 27.7557 53.9362 27.5946 53.9868 27.3476C54.0362 27.1076 54.2385 27.0841 54.4408 27.0594C55.5805 26.9265 55.6629 26.7724 55.2053 25.6914C54.9536 25.0963 54.6996 24.5023 54.4725 23.8977C54.3149 23.479 54.0667 23.279 53.5962 23.2908C52.5212 23.3166 51.4449 23.3084 50.3687 23.2943C49.9382 23.2884 49.6841 23.4437 49.5336 23.8648C49.3042 24.5082 48.9725 25.1163 48.829 25.7902C48.6749 26.5183 48.8784 26.8547 49.6018 27.0429C49.8864 27.117 50.1605 27.197 50.1417 27.5452C50.1205 27.9298 49.8147 27.9933 49.503 27.9945C48.5443 27.998 47.5857 27.9969 46.6271 27.9945C46.3095 27.9945 46.0307 27.911 45.9755 27.5428C45.9237 27.1994 46.1589 27.0594 46.433 26.9559C47.0752 26.7136 47.4857 26.256 47.748 25.6232C49.1583 22.2251 50.5816 18.8317 52.0001 15.4359C52.0307 15.3641 52.0624 15.2924 52.0989 15.223C52.2165 14.9948 52.3294 14.7443 52.6317 14.7384C52.9529 14.7313 53.114 14.9642 53.2269 15.2265C53.5374 15.9452 53.8421 16.6662 54.1455 17.3884C55.3465 20.2384 56.5404 23.0896 57.7495 25.9361C57.9671 26.4478 58.2565 26.9065 58.8869 27.0124C59.201 27.0653 59.4492 27.2617 59.4021 27.6158C59.3551 27.9663 59.0481 27.9922 58.7658 27.9933C58.1012 27.998 57.4355 27.9945 56.7709 27.9957L56.7732 27.998ZM52.0919 18.1295C52.046 18.1248 51.9989 18.1189 51.9531 18.1142C51.3226 19.4939 50.7545 20.8995 50.1934 22.3145C50.8709 22.5509 53.3716 22.5109 53.8033 22.2627C53.2351 20.8889 52.6635 19.5092 52.0919 18.1283V18.1295Z" fill="white"/>
<path d="M79.9614 27.9969C79.3157 27.9969 78.6699 27.9969 78.0254 27.9969C77.8078 27.9969 77.5937 27.9769 77.4102 27.8428C77.2502 27.7275 77.1961 27.5664 77.2314 27.3782C77.2632 27.2041 77.382 27.1112 77.5502 27.0771C77.589 27.07 77.6278 27.0676 77.6666 27.0618C78.8593 26.8877 78.9052 26.8159 78.4547 25.7209C78.1795 25.0516 77.8772 24.3929 77.609 23.7201C77.4902 23.4202 77.3008 23.2967 76.9868 23.2978C75.7941 23.3037 74.6002 23.3014 73.4075 23.3002C73.1558 23.3002 72.9464 23.3625 72.8476 23.6307C72.6171 24.2541 72.2748 24.834 72.1136 25.4844C71.9325 26.2137 71.9631 26.863 72.897 27.0723C73.1769 27.1359 73.3369 27.3335 73.3028 27.6322C73.2628 27.9769 72.9911 27.9922 72.7288 27.9933C71.7702 27.9969 70.8115 27.9969 69.8541 27.991C69.5447 27.9898 69.2389 27.9228 69.1625 27.5734C69.079 27.19 69.3942 27.0665 69.6706 26.9688C70.3093 26.743 70.6939 26.2831 70.9456 25.6762C72.3453 22.2957 73.7451 18.9152 75.1601 15.5406C75.3012 15.2042 75.3612 14.7113 75.8811 14.7302C76.3728 14.7478 76.4539 15.2054 76.6021 15.5559C78.0171 18.9093 79.4239 22.2663 80.8389 25.6185C81.1165 26.2772 81.4329 26.9006 82.2327 27.0829C82.508 27.1453 82.6397 27.3935 82.5762 27.6828C82.5103 27.9804 82.2551 27.9898 82.0163 27.991C81.3318 27.9945 80.6472 27.9922 79.9626 27.9922L79.9614 27.9969ZM75.3165 18.1342C75.2612 18.1306 75.2048 18.1271 75.1495 18.1236C74.5731 19.5115 73.9321 20.8724 73.4181 22.418C74.679 22.5003 75.8235 22.4698 77.0926 22.4439C76.4669 20.9254 75.8929 19.5292 75.3177 18.1342H75.3165Z" fill="white"/>
<path d="M23.033 27.998C22.3873 27.998 21.7415 27.998 21.0958 27.998C20.8993 27.998 20.7041 27.9898 20.5229 27.8969C20.33 27.7981 20.2277 27.644 20.2512 27.4217C20.2759 27.1841 20.4312 27.09 20.6488 27.0676C20.6688 27.0653 20.6876 27.0653 20.7076 27.0618C21.8909 26.903 21.9509 26.7912 21.4745 25.655C21.2169 25.041 20.9617 24.427 20.7158 23.8071C20.577 23.4554 20.35 23.2896 19.9572 23.2943C18.8421 23.3096 17.727 23.3049 16.6108 23.2966C16.2356 23.2943 15.9909 23.4249 15.8439 23.793C15.5828 24.447 15.2605 25.0775 15.117 25.775C14.9652 26.516 15.1582 26.8571 15.8721 27.0406C16.1791 27.1194 16.4755 27.2053 16.4226 27.5875C16.372 27.9627 16.0497 27.9945 15.7439 27.9957C14.8241 27.998 13.9043 27.9969 12.9845 27.9957C12.654 27.9957 12.334 27.9545 12.2623 27.5546C12.1941 27.177 12.4716 27.0512 12.7598 26.9382C13.3562 26.7054 13.7596 26.2784 14.0054 25.6879C15.3934 22.3439 16.7837 18.9999 18.1752 15.657C18.2352 15.5124 18.3057 15.3724 18.3775 15.2324C18.5045 14.9866 18.6257 14.7113 18.9621 14.7372C19.275 14.7607 19.4208 15.0042 19.5314 15.2665C20.2289 16.9274 20.9229 18.5894 21.6227 20.249C22.4296 22.1604 23.2318 24.0741 24.0552 25.9784C24.2575 26.4466 24.5233 26.8936 25.1067 26.9924C25.1984 27.0076 25.2914 27.0641 25.3678 27.1206C25.5407 27.2488 25.7383 27.3852 25.6866 27.6369C25.6289 27.918 25.3914 27.9851 25.1443 27.9874C24.4398 27.9945 23.7352 27.9898 23.0307 27.9898C23.0307 27.991 23.0307 27.9922 23.0307 27.9945L23.033 27.998ZM20.1265 22.3992C19.5302 20.8912 18.9785 19.5021 18.2787 18.1377C17.6106 19.5092 17.006 20.8877 16.4555 22.3992H20.1265Z" fill="white"/>
<path d="M65.1503 25.0657C65.5456 24.6246 65.6291 24.0635 65.842 23.5672C66.6912 21.5876 67.5534 19.6139 68.3097 17.5955C68.372 17.4308 68.4273 17.2614 68.465 17.0897C68.6496 16.2369 68.4602 15.9405 67.5945 15.777C67.2934 15.7205 67.0417 15.6241 67.0558 15.2818C67.0711 14.8972 67.3675 14.829 67.6863 14.8278C68.6649 14.8278 69.6435 14.8278 70.6222 14.8278C70.7998 14.8278 70.9727 14.8443 71.1279 14.9478C71.4879 15.1889 71.509 15.5923 71.1126 15.7123C70.0164 16.0464 69.6741 16.9862 69.2942 17.8789C67.9215 21.1041 66.5771 24.3411 65.2268 27.5758C65.0845 27.9157 64.9398 28.2121 64.5022 28.2368C64.0506 28.2627 63.8894 27.9639 63.7447 27.6299C62.9731 25.8514 62.2027 24.0718 61.4346 22.2921C60.6818 20.549 59.9232 18.807 59.1821 17.0579C58.8799 16.3463 58.4741 15.7982 57.6201 15.7511C57.3366 15.7358 57.1308 15.5676 57.1531 15.2559C57.1731 14.976 57.3825 14.8631 57.6401 14.8372C57.7566 14.8254 57.8742 14.8243 57.9918 14.8243C59.3621 14.8243 60.7324 14.8219 62.1027 14.8254C62.278 14.8254 62.4579 14.8301 62.625 14.8748C62.859 14.9372 62.9767 15.1183 62.972 15.3606C62.9661 15.6264 62.7979 15.737 62.5532 15.7582C62.5144 15.7617 62.4756 15.7617 62.4356 15.7652C61.317 15.8664 61.1735 16.1287 61.6158 17.1367C62.7085 19.6292 63.7824 22.131 64.8633 24.6281C64.9245 24.7693 64.9492 24.9316 65.1515 25.0622L65.1503 25.0657Z" fill="white"/>
<path d="M6.0718 27.998C4.52623 27.998 2.98067 28.0004 1.43628 27.9969C1.2422 27.9969 1.04224 27.9933 0.855221 27.9475C0.621152 27.8898 0.502352 27.7052 0.507057 27.464C0.511762 27.2005 0.677611 27.0865 0.923443 27.0653C0.943439 27.0641 0.962258 27.0606 0.982254 27.0618C2.30434 27.0994 2.37609 26.4889 2.37373 25.4868C2.3655 22.7062 2.37138 19.9244 2.37021 17.1438C2.37021 16.9485 2.37256 16.7509 2.34668 16.558C2.26905 15.9993 2.06321 15.8123 1.5045 15.7758C1.29043 15.7617 1.07282 15.7735 0.859926 15.7476C0.602332 15.7147 0.5 15.5371 0.5 15.2912C0.5 15.0407 0.614094 14.8784 0.870512 14.8466C1.00578 14.829 1.1434 14.8278 1.27984 14.8278C2.84423 14.8278 4.40979 14.8278 5.97417 14.8278C6.20824 14.8278 6.44584 14.8196 6.66345 14.9325C6.85635 15.0324 6.95633 15.1889 6.93045 15.4088C6.9034 15.6453 6.7446 15.7452 6.52818 15.7558C6.25529 15.7699 5.98006 15.7594 5.70717 15.7758C5.12141 15.8099 4.85087 16.044 4.7556 16.6168C4.72031 16.8274 4.72267 17.0462 4.72267 17.2614C4.72031 20.1208 4.72031 22.9802 4.72267 25.8397C4.72267 26.7406 4.9979 27.0276 5.90595 27.0512C6.55053 27.0676 7.19745 27.0476 7.84203 27.057C8.8924 27.0723 9.62519 26.5689 10.1098 25.6691C10.3321 25.2562 10.5556 24.841 10.6532 24.3741C10.6767 24.2612 10.725 24.1494 10.7826 24.0483C10.9014 23.8389 11.092 23.7518 11.3284 23.7954C11.5624 23.8389 11.646 24.0188 11.646 24.2282C11.6495 25.3056 11.6565 26.3831 11.6342 27.4593C11.6248 27.9298 11.2684 28.0004 10.8838 28.0004C9.27938 27.998 7.67618 28.0004 6.0718 28.0004V27.998Z" fill="white"/>
<path d="M16.2462 13.6539C14.7006 13.6539 13.1539 13.6551 11.6083 13.6539C11.4131 13.6539 11.2143 13.6539 11.0237 13.621C10.7908 13.5798 10.6309 13.4316 10.6309 13.1799C10.6309 12.9258 10.7908 12.7788 11.0249 12.7423C11.2354 12.7094 11.4542 12.72 11.6683 12.7071C12.187 12.6765 12.494 12.3989 12.5728 11.8837C12.5905 11.7684 12.5905 11.6496 12.5905 11.532C12.5905 8.55379 12.5952 5.57557 12.5893 2.59618C12.5881 1.74694 12.3905 1.55639 11.5589 1.53522C11.3248 1.52934 11.0837 1.55404 10.8837 1.3929C10.7438 1.27998 10.6132 1.15295 10.652 0.950637C10.6897 0.75303 10.8379 0.654227 11.0214 0.621292C11.1555 0.596591 11.2943 0.593063 11.4307 0.593063C13.0551 0.59071 14.6794 0.589534 16.3038 0.593063C16.8978 0.594239 17.1848 0.761264 17.1354 1.09061C17.0613 1.58227 16.6567 1.51758 16.3097 1.53405C16.0192 1.54816 15.7122 1.47406 15.444 1.62344C15.0594 1.83634 14.9441 2.19862 14.9441 2.61853C14.9453 5.69555 14.9406 8.77139 14.9476 11.8484C14.9488 12.4283 15.1805 12.68 15.7651 12.6965C16.7037 12.7223 17.6447 12.7294 18.5822 12.6953C19.6478 12.6565 20.1066 11.8519 20.5182 11.0321C20.6759 10.7192 20.7982 10.3816 20.8864 10.0429C20.9805 9.68179 21.1534 9.47478 21.5427 9.55358C21.9368 9.63357 22.0309 9.94174 21.9732 10.2734C21.8615 10.9157 21.878 11.5614 21.8744 12.2072C21.8733 12.4624 21.878 12.7165 21.8709 12.9717C21.8544 13.5575 21.7698 13.6516 21.1781 13.6539C19.5337 13.661 17.8906 13.6563 16.2462 13.6563V13.6539Z" fill="white"/>
<path d="M25.2843 13.6539C24.5021 13.6539 23.7199 13.6539 22.9365 13.6539C22.7613 13.6539 22.5813 13.6657 22.4178 13.5869C22.2473 13.5045 22.139 13.3728 22.1414 13.174C22.1437 12.9964 22.252 12.8882 22.399 12.8129C22.6366 12.6918 22.8942 12.7035 23.1471 12.7118C23.6187 12.7259 23.8657 12.4824 23.9775 12.0472C24.0598 11.7225 24.101 11.3956 24.101 11.0603C24.0986 8.39616 24.101 5.73318 24.0975 3.06902C24.0975 2.85495 24.0892 2.63734 24.0528 2.42562C23.9222 1.67283 23.7787 1.55639 23.0095 1.53639C22.9118 1.53404 22.8142 1.53404 22.7166 1.53051C22.399 1.5211 22.172 1.3729 22.1637 1.04708C22.1543 0.683625 22.439 0.601289 22.7307 0.600112C24.3939 0.594231 26.0559 0.595407 27.7191 0.600112C28.0484 0.600112 28.3084 0.736555 28.3119 1.10707C28.3154 1.53169 27.9873 1.52581 27.6861 1.53522C27.5097 1.5411 27.3333 1.53522 27.1592 1.55521C26.7557 1.60344 26.5299 1.83986 26.4735 2.24095C26.4652 2.29859 26.4582 2.35858 26.4605 2.41621C26.5264 4.2182 26.2335 6.01665 26.3629 7.81275C26.4558 9.10543 26.4276 10.3946 26.457 11.6849C26.4746 12.4636 26.6417 12.6377 27.405 12.72C27.5979 12.7412 27.7897 12.7859 27.979 12.8317C28.2237 12.8905 28.3354 13.0576 28.3201 13.3069C28.3025 13.5939 28.1014 13.6516 27.8685 13.6527C27.0075 13.6551 26.1465 13.6527 25.2866 13.6527C25.2866 13.6527 25.2866 13.6551 25.2866 13.6563L25.2843 13.6539Z" fill="white"/>
</g>
<defs>
<clipPath id="clip0_1278_285">
<rect width="92" height="27.7508" fill="white" transform="translate(0.5 0.488373)"/>
</clipPath>
</defs>
</svg>
