<svg width="93" height="18" viewBox="0 0 93 18" fill="none" xmlns="http://www.w3.org/2000/svg">
<g clip-path="url(#clip0_1278_273)">
<path d="M0.5 17.3671V16.5115C0.859054 16.3279 91.2556 16.2315 92.2569 16.409C92.3164 16.6511 92.38 16.9055 92.4692 17.2686C92.2805 17.3056 92.0866 17.3784 91.8917 17.3784C76.0933 17.3825 60.2949 17.3805 44.4954 17.3815C29.9609 17.3815 15.4264 17.3866 0.891882 17.3887C0.775959 17.3887 0.65901 17.3764 0.5 17.3671Z" fill="white"/>
<path d="M82.6712 0.857799V14.1859C82.07 14.1859 81.4945 14.2105 80.9262 14.1613C80.8307 14.1531 80.6933 13.8258 80.6923 13.6453C80.6758 11.5863 80.6841 9.5264 80.6789 7.46748C80.6789 7.23871 80.641 7.01097 80.6204 6.7822C80.5763 6.77912 80.5322 6.77502 80.4881 6.77194C80.3312 7.50851 80.1721 8.24509 80.0172 8.98269C79.6869 10.5636 79.3556 12.1444 79.0324 13.7263C78.9626 14.0648 78.7913 14.2003 78.4323 14.2013C77.3254 14.2064 77.2915 14.228 77.0248 13.1405C76.5457 11.1934 76.1117 9.23505 75.6583 7.2818C75.6173 7.10535 75.5732 6.92992 75.5301 6.75347C75.4808 6.75758 75.4316 6.76168 75.3834 6.76578V14.1397H73.3347V0.874213C73.8487 0.874213 74.3524 0.874213 74.8551 0.874213C76.282 0.874213 76.2574 0.878317 76.5159 2.25914C76.874 4.18059 77.2751 6.09486 77.6536 8.01324C77.746 8.48001 77.8188 8.95089 77.9101 9.41868C77.9378 9.56025 77.9952 9.69567 78.066 9.92239C78.1584 9.77569 78.222 9.71824 78.2343 9.65053C78.5708 7.845 78.898 6.03844 79.2355 4.23394C79.4253 3.21525 79.6192 2.19759 79.8408 1.18505C79.8695 1.05477 80.0778 0.876265 80.2091 0.872162C81.0082 0.843437 81.8084 0.857799 82.6722 0.857799H82.6712Z" fill="white"/>
<path d="M56.847 10.5851C57.5384 10.5276 58.1406 10.4764 58.7695 10.424C58.8936 10.8036 58.9828 11.1657 59.1265 11.5033C59.4547 12.2716 59.9369 12.5814 60.5114 12.4347C61.129 12.2768 61.5219 11.6848 61.4931 10.938C61.4644 10.2066 61.0592 9.67925 60.5606 9.18376C59.6322 8.2615 58.6946 7.34643 57.8216 6.37288C56.8398 5.27827 56.7003 2.42123 58.2534 1.26302C59.1059 0.628005 60.7761 0.45771 61.8614 1.00655C62.8483 1.50615 63.5315 2.66538 63.4454 3.78153C62.8432 3.8995 62.2215 4.02056 61.5906 4.14366C61.4521 3.76819 61.3505 3.4471 61.2151 3.14036C61.0284 2.71975 60.6704 2.53099 60.2241 2.55561C59.7594 2.58126 59.4814 2.888 59.3439 3.3004C58.9767 4.40936 59.4958 5.25878 60.2231 6.00767C60.9679 6.77502 61.806 7.45722 62.5139 8.25637C63.4567 9.3202 63.8106 10.5841 63.4977 12.0059C63.1766 13.4647 62.082 14.3295 60.575 14.3665C59.5153 14.3921 58.5633 14.1869 57.8482 13.358C57.1906 12.5958 56.9444 11.6735 56.8459 10.5851H56.847Z" fill="white"/>
<path d="M44.1764 14.2023V0.899859H49.8936V2.91672C49.4935 2.91672 49.1406 2.91672 48.7877 2.91672C48.088 2.91672 47.3884 2.92082 46.6887 2.91467C46.3902 2.91159 46.1953 2.98648 46.1994 3.33835C46.2086 4.25651 46.2076 5.17466 46.1994 6.09281C46.1963 6.42622 46.3882 6.48777 46.661 6.48572C47.2417 6.48162 47.8223 6.49803 48.4019 6.47854C48.7918 6.4652 48.9693 6.59959 48.9498 7.00686C48.9272 7.47876 48.9446 7.95374 48.9446 8.52618C48.2686 8.52618 47.6449 8.52618 47.0211 8.52618C46.4733 8.52618 46.2004 8.79701 46.2025 9.33866C46.2045 10.0701 46.2004 10.8016 46.2056 11.532C46.2066 11.7136 46.2312 11.8962 46.2507 12.1465H49.9254C49.9254 12.801 49.9367 13.3878 49.912 13.9725C49.909 14.0525 49.7284 14.1921 49.6289 14.1921C47.8398 14.2054 46.0507 14.2023 44.1774 14.2023H44.1764Z" fill="white"/>
<path d="M90.0933 2.91877C89.2685 2.91877 88.5391 2.9198 87.8097 2.91877C86.9145 2.9174 86.4617 2.46978 86.4515 1.57591C86.4494 1.37689 86.472 1.17684 86.4853 0.943972C86.6474 0.9173 86.7757 0.878316 86.9049 0.877291C88.5781 0.862928 90.2513 0.86498 91.9235 0.836256C92.3636 0.829075 92.4395 1.00963 92.4805 1.40972C92.5923 2.48893 92.223 3.43581 91.8281 4.40115C90.8227 6.85503 89.8533 9.3243 88.8705 11.7874C88.8336 11.8797 88.813 11.9782 88.7546 12.1721H92.461C92.461 12.8153 92.4826 13.3703 92.4426 13.9212C92.4344 14.0279 92.1871 14.2003 92.0476 14.2013C90.3231 14.2198 88.5986 14.2095 86.8741 14.2146C86.5254 14.2146 86.4689 14.0269 86.4453 13.7273C86.3602 12.6502 86.5992 11.6571 87.0198 10.6631C88.019 8.29843 88.9556 5.90713 89.9138 3.52506C89.9754 3.37118 90.0092 3.20704 90.0943 2.9198L90.0933 2.91877Z" fill="white"/>
<path d="M27.2044 2.93826H25.1332V0.901912C27.2054 0.780859 29.2849 0.819842 31.4146 0.880369V2.93313H29.3341C29.3208 3.22243 29.3033 3.42145 29.3033 3.62047C29.3013 6.91761 29.3033 10.2158 29.3013 13.5129C29.3013 14.2126 29.2982 14.2126 28.5863 14.2167C28.2959 14.2177 28.0046 14.2003 27.7163 14.2218C27.309 14.2516 27.1952 14.0802 27.1972 13.6832C27.2106 10.3348 27.2044 6.98635 27.2044 3.63688C27.2044 3.43684 27.2044 3.23679 27.2044 2.93724V2.93826Z" fill="white"/>
<path d="M15.3372 2.77618V0.915248H21.5273V2.84901C21.1179 2.84901 20.7035 2.84696 20.289 2.84901C19.7173 2.85175 19.4314 3.14583 19.4314 3.73126C19.4314 6.98122 19.4335 10.2301 19.4314 13.4801C19.4314 13.6771 19.4099 13.8751 19.3955 14.1141H17.4771C17.4607 13.9079 17.432 13.7119 17.432 13.516C17.4289 10.1809 17.4299 6.84683 17.4289 3.51172C17.4289 2.88184 17.3951 2.84901 16.7652 2.84491C16.3384 2.84183 15.9116 2.83978 15.4859 2.83465C15.4551 2.83465 15.4244 2.81106 15.3382 2.7772L15.3372 2.77618Z" fill="white"/>
<path d="M6.00895 12.1721V14.11H0.518494V0.938843H2.54664V12.1731H6.00895V12.1721Z" fill="white"/>
<path d="M37.1667 0.91217V12.1906H40.6833C40.6833 12.7928 40.7049 13.3303 40.6649 13.8638C40.6567 13.9715 40.4146 14.1449 40.2781 14.1469C38.6901 14.1674 37.102 14.1603 35.5129 14.1613C35.0913 14.1613 35.1365 13.8628 35.1365 13.5878C35.1365 10.3881 35.1344 7.18844 35.1344 3.98978C35.1344 3.15575 35.1344 2.32172 35.1416 1.48768C35.1436 1.30713 35.1765 1.12658 35.198 0.91217H37.1677H37.1667Z" fill="white"/>
<path d="M9.53176 0.903963H11.5507C11.565 1.10914 11.5876 1.28866 11.5876 1.46819C11.5886 5.50191 11.5876 9.53563 11.5876 13.5694C11.5876 14.2331 11.5876 14.231 10.9413 14.2208C10.5823 14.2156 10.2191 14.2516 9.86825 14.2003C9.72873 14.1797 9.59742 13.9828 9.50098 13.8412C9.45277 13.7714 9.49175 13.6422 9.49175 13.5406C9.49175 9.54076 9.4897 5.54192 9.49175 1.54205C9.49175 1.34304 9.5174 1.14504 9.53381 0.904989L9.53176 0.903963Z" fill="white"/>
<path d="M69.2939 14.07H67.3919C67.3765 13.9079 67.3529 13.7797 67.3529 13.6504C67.3529 9.60642 67.355 5.56244 67.355 1.51846C67.355 0.937817 67.4052 0.88242 67.993 0.879343C68.2485 0.878317 68.506 0.889601 68.7604 0.87011C69.1718 0.838308 69.3472 0.997318 69.3462 1.42305C69.338 5.51833 69.341 9.61257 69.339 13.7078C69.339 13.8063 69.3154 13.9048 69.2949 14.071L69.2939 14.07Z" fill="white"/>
</g>
<defs>
<clipPath id="clip0_1278_273">
<rect width="92" height="16.7114" fill="white" transform="translate(0.5 0.677246)"/>
</clipPath>
</defs>
</svg>
