<svg width="93" height="12" viewBox="0 0 93 12" fill="none" xmlns="http://www.w3.org/2000/svg">
<g clip-path="url(#clip0_1278_248)">
<path d="M41.3524 5.65228C41.5746 5.38274 41.771 5.09829 42.012 4.85984C42.9528 3.93069 44.5954 3.8309 45.5511 4.62658C45.8738 4.89548 46.0766 5.24019 46.2178 5.67366C46.2677 5.59461 46.3014 5.54213 46.3338 5.489C47.0239 4.35444 48.38 3.82572 49.6481 4.2119C50.5312 4.48079 51.0113 5.10477 51.1526 5.99893C51.1863 6.21146 51.1934 6.42982 51.1941 6.64558C51.198 7.91815 51.2012 9.19137 51.1908 10.4639C51.1889 10.6739 51.2647 10.762 51.4604 10.7808C51.5206 10.7866 51.5796 10.8054 51.6399 10.8171C51.9489 10.8767 52.0597 11.062 51.945 11.3633C51.9249 11.4158 51.8103 11.4631 51.7409 11.4605C51.2867 11.4436 50.8332 11.3866 50.3802 11.3905C49.4245 11.3989 48.4688 11.4378 47.5131 11.4611C47.4016 11.4637 47.2623 11.5201 47.2409 11.3199C47.2072 11.0017 47.2409 10.8922 47.4288 10.8397C47.9802 10.6862 47.9031 10.8022 47.9051 10.1918C47.9077 9.29115 47.9109 8.39115 47.896 7.49051C47.8915 7.23003 47.8481 6.96373 47.78 6.71167C47.6556 6.25034 47.3427 6.01124 46.8664 5.98144C46.6805 5.96978 46.4932 5.97949 46.3124 5.97949C46.3124 6.99418 46.3124 7.9674 46.3124 8.93996C46.3124 9.44795 46.3196 9.9553 46.3085 10.4633C46.304 10.6583 46.3811 10.7516 46.5658 10.7808C46.639 10.7924 46.7096 10.8229 46.7828 10.8339C46.9293 10.8559 46.985 10.9402 46.9928 11.0834C47.0135 11.4462 46.9889 11.4728 46.6247 11.4624C45.7098 11.4359 44.7949 11.3996 43.88 11.3911C43.4472 11.3873 43.0131 11.4359 42.5809 11.4683C42.4215 11.4799 42.3645 11.421 42.36 11.2635C42.3496 10.8987 42.3444 10.8968 42.7079 10.7989C42.9204 10.7415 43.0267 10.6011 43.0267 10.3778C43.0241 9.37603 43.0364 8.37366 43.0092 7.37258C43.0008 7.06999 42.9211 6.75379 42.8019 6.47453C42.6334 6.07863 41.9116 5.82723 41.5319 5.99764C41.4846 6.01902 41.4561 6.12917 41.4561 6.19785C41.4515 7.22679 41.4528 8.25573 41.4528 9.28467C41.4528 9.69093 41.46 10.0972 41.4496 10.5035C41.4457 10.6622 41.5034 10.7445 41.6543 10.7724C41.6945 10.7795 41.7334 10.7918 41.7729 10.8022C42.1215 10.8942 42.1137 10.8942 42.1163 11.2492C42.1176 11.4346 42.0418 11.4786 41.8701 11.4683C41.2202 11.4307 40.5697 11.3782 39.9191 11.3795C39.1604 11.3814 38.401 11.4281 37.6429 11.4689C37.4401 11.4799 37.3837 11.4099 37.3889 11.2181C37.3986 10.8838 37.3902 10.8883 37.7194 10.8158C38.2008 10.7102 38.1554 10.7827 38.1561 10.2922C38.1561 9.16869 38.1522 8.0445 38.16 6.92096C38.1613 6.72463 38.0991 6.62939 37.9001 6.62355C37.8334 6.62161 37.7673 6.59893 37.6999 6.58792C37.3941 6.53867 37.3235 6.43954 37.4012 6.13759C37.4148 6.08446 37.4764 6.0242 37.5295 6.00347C38.723 5.52917 39.796 4.84494 40.836 4.10563C40.9896 3.99613 41.1159 4.01168 41.2669 4.08166C41.4224 4.15358 41.3978 4.28706 41.3926 4.41276C41.3783 4.77755 41.3595 5.14235 41.3446 5.50714C41.3427 5.55703 41.3498 5.60757 41.3524 5.65293V5.65228Z" fill="white"/>
<path d="M4.52183 5.60757C4.69224 5.39634 4.87107 5.12226 5.10109 4.90002C5.96869 4.06157 6.99439 3.89505 8.10951 4.29224C8.7445 4.51837 9.13261 5.00563 9.33218 5.63155C9.5473 5.37496 9.74363 5.10088 9.98013 4.86762C10.7486 4.10758 12.0108 3.87432 13.0054 4.29483C13.803 4.63241 14.2145 5.26611 14.287 6.10066C14.3402 6.71232 14.3201 7.33111 14.324 7.94666C14.3291 8.76567 14.3253 9.58532 14.3253 10.4043C14.3253 10.616 14.4268 10.7434 14.6298 10.7866C14.6829 10.7976 14.7386 10.8028 14.7885 10.8216C14.8838 10.8579 15.0386 10.8857 15.0561 10.9479C15.0957 11.0905 15.0769 11.2538 15.0561 11.4048C15.0523 11.4333 14.9317 11.4657 14.8663 11.4631C14.4127 11.4423 13.9585 11.3873 13.5056 11.3911C12.5499 11.3996 11.5942 11.4378 10.6384 11.4631C10.5231 11.4663 10.3909 11.511 10.3631 11.3205C10.3222 11.038 10.3721 10.8922 10.5562 10.8404C11.1017 10.6875 11.0376 10.7963 11.0376 10.1931C11.0376 9.29245 11.0402 8.39245 11.0233 7.49245C11.0188 7.23133 10.9773 6.96502 10.9093 6.71297C10.7849 6.24839 10.4603 6.00995 9.97495 5.97949C9.93412 5.9769 9.89395 5.97496 9.85313 5.97302C9.43456 5.95487 9.44233 5.95487 9.44363 6.35854C9.44752 7.70562 9.44492 9.05335 9.44557 10.4004C9.44557 10.6095 9.54773 10.7406 9.75205 10.7937C10.1285 10.8922 10.1363 10.9084 10.113 11.2862C10.1045 11.4229 10.0553 11.4793 9.91404 11.4689C9.48121 11.4378 9.04773 11.3879 8.61491 11.3918C7.65918 11.4009 6.70346 11.4391 5.74774 11.4637C5.63953 11.4663 5.51513 11.5097 5.49504 11.3225C5.46329 11.0179 5.49504 10.8981 5.66027 10.8469C5.99072 10.7436 6.15595 10.5197 6.15595 10.1749C6.15595 9.32873 6.16632 8.48186 6.15076 7.63629C6.14493 7.32852 6.11124 7.01232 6.03219 6.71556C5.87992 6.14343 5.24623 5.81621 4.67798 5.9931C4.62874 6.00865 4.57949 6.11232 4.5782 6.17582C4.56913 6.56848 4.57366 6.96113 4.57366 7.35379C4.57366 8.38986 4.57755 9.42527 4.56977 10.4613C4.56848 10.6525 4.62939 10.7568 4.81988 10.7808C4.85293 10.7853 4.88468 10.7996 4.91772 10.808C5.23846 10.8916 5.32139 11.0225 5.22874 11.3458C5.21319 11.3996 5.10433 11.4637 5.04018 11.4611C4.60671 11.4456 4.17323 11.3873 3.7404 11.3918C2.75747 11.4009 1.77453 11.4391 0.791598 11.4631C0.678207 11.4657 0.54149 11.5175 0.520756 11.3199C0.485767 10.9868 0.521404 10.8903 0.730043 10.8404C0.736522 10.8391 0.743002 10.8365 0.749481 10.8352C1.1011 10.7553 1.27691 10.533 1.27691 10.1685C1.27691 9.09871 1.27108 8.02895 1.28145 6.95919C1.28339 6.74342 1.23415 6.62226 1.00153 6.61967C0.941273 6.61967 0.881662 6.59828 0.821403 6.58856C0.529179 6.54191 0.445594 6.41751 0.533067 6.13176C0.549265 6.07863 0.611468 6.02226 0.666544 6.00023C1.84062 5.53241 2.89548 4.85855 3.92701 4.14192C4.01772 4.07907 4.14602 4.03047 4.25163 4.03825C4.44083 4.0525 4.53673 4.16395 4.52766 4.38101C4.51016 4.80542 4.52247 5.23176 4.52247 5.61017L4.52183 5.60757Z" fill="white"/>
<path d="M27.0042 5.05811C26.999 5.14559 26.9932 5.19872 26.9932 5.2525C26.9951 6.22701 26.9874 7.20217 27.0081 8.17668C27.0139 8.4553 27.0716 8.74299 27.1617 9.008C27.3055 9.43305 27.7403 9.62808 28.1673 9.481C28.3435 9.42009 28.4666 9.46091 28.5858 9.58337C28.7122 9.71296 28.6558 9.83802 28.591 9.97149C28.0079 11.165 26.6401 11.8233 25.3396 11.5324C24.4668 11.3367 23.8759 10.6739 23.7548 9.73888C23.7249 9.51145 23.71 9.28078 23.7088 9.05141C23.7042 7.80606 23.7023 6.56005 23.7113 5.3147C23.7126 5.11513 23.6459 5.02896 23.4535 5.01535C23.3252 5.00628 23.1936 4.99721 23.0725 4.95898C23.007 4.93824 22.9228 4.86244 22.9131 4.80023C22.8567 4.46136 22.9079 4.39138 23.2383 4.31103C24.3878 4.03047 25.3792 3.47972 26.1897 2.61212C26.2655 2.53112 26.3867 2.4579 26.4943 2.44559C26.8429 2.40477 26.8565 2.41968 26.8876 2.76957C26.9219 3.14667 26.9401 3.52507 26.9653 3.90283C26.9718 3.99613 26.9783 4.08943 26.9854 4.19959C27.174 4.19959 27.3483 4.20023 27.5219 4.19959C28.0785 4.1957 28.6383 4.23133 29.1904 4.1782C29.975 4.10239 30.6444 3.7214 31.2496 3.23479C31.4971 3.03587 31.7303 2.81492 31.9467 2.58296C32.1152 2.40218 32.3122 2.4268 32.5098 2.45596C32.5552 2.46244 32.6115 2.57324 32.6174 2.63998C32.6549 3.07086 32.6796 3.50304 32.7087 3.93458C32.7139 4.01492 32.7217 4.09462 32.7314 4.20606C32.8299 4.20606 32.9213 4.20671 33.0126 4.20606C33.4331 4.20283 33.8543 4.20282 34.2748 4.19246C34.4284 4.18857 34.5016 4.25466 34.5197 4.39786C34.523 4.42442 34.5269 4.45164 34.5301 4.4782C34.5858 5.01794 34.5353 5.07496 34.0033 5.07496C33.5912 5.07496 33.1791 5.07496 32.7534 5.07496C32.7476 5.13004 32.7366 5.18187 32.7366 5.23371C32.7385 6.21535 32.7314 7.19699 32.7508 8.17798C32.756 8.45076 32.8085 8.73262 32.8973 8.9905C33.0515 9.43823 33.4824 9.63067 33.9327 9.47452C34.1057 9.41426 34.2359 9.46026 34.3234 9.58921C34.374 9.66372 34.4012 9.79849 34.3688 9.87819C33.9826 10.8495 32.8817 11.5771 31.8295 11.5907C31.2502 11.5985 30.7046 11.5097 30.2426 11.1352C29.6848 10.6823 29.4735 10.0557 29.4612 9.37344C29.4366 8.04061 29.4509 6.70649 29.4496 5.37302C29.4496 5.07691 29.4483 5.07691 29.1573 5.07496C28.5262 5.06978 27.8958 5.06395 27.2647 5.05811C27.1843 5.05747 27.1046 5.05811 27.0036 5.05811H27.0042Z" fill="white"/>
<path d="M56.119 9.82635C55.8715 10.3823 55.5644 10.8372 55.0985 11.1715C54.3067 11.7397 53.2447 11.7443 52.5709 11.1585C52.0454 10.7017 51.8879 10.0933 51.9113 9.42009C51.9391 8.6121 52.3616 8.08986 53.0795 7.76459C53.9549 7.3674 54.8834 7.14385 55.8126 6.9242C55.8715 6.90995 55.9305 6.89504 56.005 6.8769C56.0225 6.32679 56.0445 5.78187 55.8106 5.26546C55.6998 5.02053 55.5365 4.83004 55.2521 4.78274C55.0797 4.75423 54.9612 4.79894 54.9326 4.99526C54.8879 5.30952 54.8471 5.62572 54.7804 5.93543C54.6158 6.69742 54.135 7.13154 53.41 7.18727C53.0815 7.21254 52.7821 7.14061 52.5864 6.85163C52.3882 6.55811 52.4206 6.24645 52.5735 5.9458C52.7724 5.55639 53.0828 5.26092 53.4385 5.01859C54.7441 4.12831 56.1793 3.89116 57.7052 4.25077C58.7277 4.49181 59.2467 5.19677 59.2525 6.25487C59.2577 7.24947 59.2564 8.24472 59.2635 9.23931C59.2648 9.37279 59.2855 9.51016 59.3205 9.63975C59.3899 9.89957 59.5233 9.95076 59.7592 9.82635C59.9886 9.70519 60.2225 9.81275 60.2724 10.0739C60.2827 10.1289 60.2555 10.2119 60.2153 10.2534C59.8162 10.6693 59.4048 11.0749 58.8864 11.3451C58.335 11.6322 57.7648 11.7086 57.1907 11.4158C56.7987 11.2156 56.5635 10.8657 56.3834 10.4788C56.2901 10.2793 56.2169 10.0706 56.119 9.82571V9.82635ZM56.0128 8.97042C56.0128 8.835 56.0154 8.70022 56.0128 8.5648C56.0024 8.12744 55.784 7.82355 55.3927 7.64666C55.0493 7.4918 54.7888 7.63435 54.7551 8.00757C54.7052 8.56027 54.8594 9.05854 55.2709 9.44212C55.3992 9.56199 55.5948 9.63067 55.7711 9.67149C55.9136 9.70454 56.029 9.6229 56.0154 9.43629C56.0043 9.28143 56.0128 9.12528 56.0128 8.97042Z" fill="white"/>
<path d="M19.2529 9.90799C19.0507 10.1989 18.8596 10.5475 18.5991 10.8339C18.0354 11.4527 17.3175 11.7125 16.4862 11.5473C15.6347 11.3782 15.0691 10.635 15.036 9.7013C15.0017 8.71512 15.3399 8.15919 16.2451 7.74709C17.1069 7.35444 18.0231 7.13414 18.9419 6.92744C19.0967 6.89245 19.1648 6.83932 19.146 6.67733C19.1 6.27625 19.087 5.86934 19.0125 5.47345C18.9594 5.19289 18.8071 4.93954 18.5162 4.81967C18.2246 4.69915 18.0879 4.78533 18.0419 5.0944C17.9926 5.42161 17.957 5.75336 17.8715 6.0715C17.6816 6.77841 17.1607 7.17755 16.4563 7.19439C15.7974 7.20995 15.4099 6.66891 15.6509 6.05854C15.8045 5.66848 16.0922 5.3795 16.4181 5.13004C17.2676 4.48015 18.2343 4.13155 19.3008 4.11276C19.7972 4.10369 20.3058 4.14321 20.7905 4.24753C21.8388 4.47431 22.3676 5.16697 22.3727 6.23414C22.3773 7.13414 22.3695 8.03413 22.3766 8.93413C22.3786 9.16286 22.4013 9.39417 22.446 9.61771C22.503 9.90411 22.6449 9.95594 22.9021 9.81599C23.1192 9.69741 23.1555 9.71167 23.3149 9.91188C23.4386 10.068 23.4399 10.1957 23.2799 10.3266C22.8872 10.6467 22.514 10.9933 22.1039 11.2888C21.7352 11.5544 21.2952 11.6302 20.8423 11.5816C20.3563 11.5298 19.9864 11.2726 19.7388 10.8676C19.5464 10.5527 19.4039 10.208 19.2542 9.90735L19.2529 9.90799ZM19.1447 8.99374C19.1447 8.84536 19.1486 8.69633 19.144 8.54795C19.1311 8.13197 18.8531 7.75552 18.4663 7.62463C18.1715 7.52485 17.9596 7.63565 17.8928 7.92398C17.7704 8.45465 18.0522 9.22441 18.5026 9.53154C18.6185 9.61059 18.7721 9.65659 18.914 9.67279C19.0533 9.68834 19.1576 9.61383 19.1466 9.44018C19.1369 9.2918 19.1447 9.14277 19.1447 8.99439V8.99374Z" fill="white"/>
<path d="M88.2139 7.00584C88.5197 7.92009 88.9441 8.73068 89.7858 9.24191C90.4421 9.64039 91.2417 9.52895 91.9331 8.96134C92.0665 8.85184 92.1773 8.83888 92.3141 8.93672C92.4482 9.03327 92.4877 9.13953 92.4113 9.30087C91.9642 10.2391 91.2443 10.8981 90.2866 11.2693C88.762 11.8603 87.3249 11.7035 86.0679 10.6058C85.4076 10.0292 85.0758 9.25681 84.9929 8.3931C84.853 6.9417 85.2761 5.71448 86.5136 4.85207C87.2465 4.34149 88.0836 4.13479 88.9687 4.10304C89.673 4.07777 90.3644 4.13997 91.0227 4.41082C92.0179 4.82032 92.524 5.58554 92.4987 6.63586C92.4922 6.91254 92.4592 6.94947 92.178 6.95336C90.9093 6.96891 89.6413 6.98122 88.3726 6.99483C88.3272 6.99483 88.2825 7.00066 88.2139 7.00584ZM88.1277 6.67928C88.3188 6.65465 88.499 6.63716 88.6771 6.60671C89.0847 6.53802 89.362 6.30217 89.456 5.90433C89.5143 5.65876 89.5447 5.3931 89.5188 5.14429C89.4599 4.58058 88.948 4.35315 88.4951 4.66416C88.2903 4.80477 88.1704 5.00433 88.1005 5.2376C87.9579 5.71384 88.0376 6.18554 88.1277 6.67928Z" fill="white"/>
<path d="M73.8715 6.99353C74.1871 7.9337 74.6186 8.75659 75.4836 9.26199C76.129 9.6391 76.924 9.51599 77.5953 8.96005C77.7488 8.83305 77.8706 8.8486 78.0087 8.96199C78.1169 9.05076 78.1428 9.14731 78.0812 9.28273C77.8279 9.83607 77.4644 10.3045 76.9797 10.6687C75.61 11.697 74.1242 11.9089 72.562 11.178C71.4547 10.6596 70.8463 9.73175 70.6752 8.53305C70.5113 7.38295 70.7303 6.32096 71.5195 5.4255C72.091 4.77691 72.8264 4.3998 73.6648 4.2268C74.6789 4.01751 75.6877 4.02205 76.6661 4.40628C77.6737 4.80218 78.1907 5.58749 78.1616 6.63781C78.1538 6.91254 78.1201 6.95141 77.8402 6.95465C76.565 6.96956 75.2899 6.98187 74.0147 6.99483C73.981 6.99483 73.948 6.99483 73.8722 6.99483L73.8715 6.99353ZM73.7886 6.67992C73.981 6.6553 74.1488 6.63781 74.3154 6.61189C74.7495 6.54321 75.0326 6.29245 75.1298 5.8687C75.1817 5.64191 75.2069 5.39764 75.1849 5.16697C75.1305 4.58965 74.6102 4.33112 74.1663 4.67064C73.9907 4.80477 73.8501 5.02636 73.7724 5.23695C73.6 5.70282 73.6998 6.18165 73.7886 6.67992Z" fill="white"/>
<path d="M60.8278 6.89504C60.8278 5.7106 60.8239 4.5268 60.8317 3.34235C60.833 3.14991 60.7837 3.04689 60.5803 3.04041C60.4999 3.03782 60.4183 3.02097 60.3405 2.99894C60.2271 2.96719 60.0658 3.00024 60.071 2.79937C60.0749 2.62508 60.0476 2.47022 60.2796 2.38015C61.479 1.91298 62.5766 1.25596 63.6457 0.547758C63.7364 0.487499 63.8673 0.446031 63.9729 0.457694C64.1621 0.478428 64.2502 0.595059 64.236 0.810177C64.0202 4.03436 64.1705 7.26243 64.1219 10.4886C64.1193 10.681 64.1964 10.7613 64.374 10.7782C64.4278 10.7834 64.4796 10.8002 64.5327 10.8112C64.8988 10.8838 64.8839 10.8203 64.8904 11.2505C64.893 11.4164 64.8353 11.4806 64.6649 11.4676C64.212 11.4339 63.7578 11.3866 63.3049 11.3905C62.3155 11.3996 61.3267 11.4378 60.3373 11.4624C60.2219 11.465 60.0885 11.5117 60.071 11.314C60.0418 10.9784 60.0697 10.8929 60.2641 10.8443C60.277 10.841 60.29 10.8352 60.3029 10.8326C60.6533 10.7527 60.8284 10.5367 60.8284 10.1847V6.89569L60.8278 6.89504Z" fill="white"/>
<path d="M84.0831 5.2849C84.0831 5.57582 84.0792 5.8674 84.0851 6.15833C84.0877 6.27949 84.0358 6.32291 83.9205 6.33781C83.5771 6.38057 83.4935 6.33522 83.3697 6.01902C83.2486 5.7106 83.1307 5.40088 83.0037 5.09505C82.7775 4.54883 82.0324 4.34213 81.5497 4.68814C81.1823 4.9512 81.1771 5.59202 81.5749 5.86675C81.8438 6.05271 82.1626 6.16675 82.4613 6.308C82.773 6.45509 83.1041 6.56913 83.3989 6.74342C84.6877 7.50606 84.9961 9.21923 84.0669 10.4004C83.557 11.0484 82.854 11.3639 82.0648 11.5C80.949 11.6918 79.8494 11.5991 78.7693 11.259C78.5749 11.1974 78.4907 11.0886 78.505 10.889C78.551 10.2553 78.5924 9.62095 78.6384 8.98726C78.6469 8.87387 78.652 8.73845 78.8199 8.75011C79.0026 8.76242 79.2248 8.65811 79.3317 8.91534C79.4847 9.28337 79.6382 9.65206 79.7996 10.0162C79.876 10.1892 79.9648 10.3577 80.06 10.521C80.3827 11.0717 81.0877 11.2622 81.6514 10.9551C82.1231 10.6985 82.2183 9.9864 81.7978 9.61577C81.5859 9.42916 81.3093 9.3054 81.0456 9.19137C80.6425 9.01707 80.2117 8.90368 79.8171 8.71448C79.0117 8.32895 78.6274 7.66156 78.6138 6.77582C78.5957 5.57258 79.1749 4.75747 80.3529 4.32075C81.1803 4.01427 82.0369 3.99095 82.9019 4.05509C83.1993 4.07712 83.4954 4.11924 83.7909 4.15617C84.0527 4.18857 84.0812 4.22291 84.0825 4.49246C84.0838 4.75617 84.0825 5.02053 84.0825 5.2849H84.0831Z" fill="white"/>
<path d="M68.8039 4.19829C69.2102 4.19829 69.6015 4.19829 69.9929 4.19829C70.1218 4.19829 70.2508 4.19959 70.3797 4.1944C70.5171 4.18922 70.5773 4.26049 70.5897 4.38749C70.5916 4.40758 70.5942 4.42766 70.5961 4.4484C70.6493 5.06006 70.635 5.0782 70.0246 5.07561C69.6786 5.07431 69.3326 5.06848 68.9873 5.05747C68.8603 5.05358 68.8046 5.08986 68.8065 5.22788C68.8188 6.26977 68.8182 7.31232 68.8389 8.35422C68.8428 8.5661 68.8959 8.7851 68.9666 8.98661C69.1234 9.43111 69.5529 9.63197 70.0013 9.47646C70.1717 9.4175 70.289 9.46739 70.4011 9.58143C70.5093 9.69158 70.4866 9.80562 70.4277 9.93456C69.8529 11.2 68.3108 11.8972 66.9838 11.4851C66.1622 11.2298 65.7424 10.6318 65.5888 9.82117C65.5473 9.60346 65.5324 9.37797 65.5318 9.15573C65.5266 7.88964 65.5292 6.62355 65.5292 5.35747C65.5292 5.06265 65.5201 5.05358 65.2318 5.01276C65.178 5.00498 65.1236 5.00304 65.0698 4.99591C64.727 4.94732 64.6435 4.83781 64.7413 4.50218C64.7627 4.42766 64.8884 4.35704 64.9784 4.33371C65.6316 4.16524 66.2763 3.96373 66.8316 3.57561C67.2514 3.28209 67.6409 2.94062 68.016 2.59138C68.1942 2.42551 68.3789 2.42292 68.5752 2.45726C68.629 2.46633 68.6905 2.59527 68.6977 2.67367C68.7378 3.11103 68.7624 3.55034 68.7923 3.989C68.7968 4.05444 68.7994 4.12054 68.8033 4.20088L68.8039 4.19829Z" fill="white"/>
</g>
<defs>
<clipPath id="clip0_1278_248">
<rect width="92" height="11.1544" fill="white" transform="translate(0.5 0.45575)"/>
</clipPath>
</defs>
</svg>
