<svg width="93" height="18" viewBox="0 0 93 18" fill="none" xmlns="http://www.w3.org/2000/svg">
<g clip-path="url(#clip0_1278_230)">
<path d="M16.4758 0.710205C16.4932 0.936278 16.5164 1.16815 16.5164 1.39422C16.5164 6.19971 16.5164 11.011 16.5164 15.8165C16.5164 16.0658 16.5164 16.3092 16.5164 16.5933C16.2613 16.6107 16.0874 16.6396 15.9077 16.6396C10.9515 16.6396 6.0011 16.6396 1.04489 16.6396C0.865194 16.6396 0.679699 16.5991 0.5 16.5817V0.710205H16.4758ZM3.13751 3.33613V14.0195H5.69388V5.89828H7.21262V14.0195H9.82695V5.89828H11.3341V14.0195H13.8789V3.33613H3.13751Z" fill="white"/>
<path d="M21.2929 8.52421V14.1992H19.2003V3.54481C20.4697 3.27816 20.5625 3.31874 21.2117 4.37374C22.2088 6.00263 23.2116 7.63151 24.2144 9.26039C24.3304 9.45168 24.4579 9.63138 24.626 9.88644C25.7622 8.03728 26.8577 6.25768 27.9533 4.47229C28.4132 3.72644 29.103 3.40569 30.0228 3.51003V14.205H27.9823V8.3561C27.762 8.63434 27.6519 8.75608 27.5649 8.8952C26.9099 9.9502 26.2665 11.0168 25.6057 12.0718C25.2289 12.6689 24 12.6689 23.629 12.0718C22.887 10.8835 22.1566 9.68935 21.4262 8.50102C21.3856 8.51261 21.345 8.51841 21.3045 8.53L21.2929 8.52421Z" fill="white"/>
<path d="M61.7599 6.73301C62.4497 6.95909 63.2323 6.4026 63.7887 7.18516C65.9857 6.26928 67.6146 6.55332 68.7623 8.08365C69.8405 9.51545 69.8174 11.6428 68.7044 13.0341C67.5798 14.4427 65.8176 14.7499 63.7366 13.8514V17.9265H61.7599V6.73301ZM63.6032 10.5241C63.7308 10.9878 63.7308 11.5501 64.0032 11.9037C64.6061 12.6631 65.8408 12.7558 66.6465 12.2283C67.4465 11.7008 67.7479 10.6052 67.3537 9.66037C66.977 8.77347 66.1074 8.28074 65.1684 8.51841C64.2931 8.73869 63.5337 8.92998 63.6032 10.5241Z" fill="white"/>
<path d="M56.4385 6.62288C58.6935 6.61708 60.4499 8.29234 60.4789 10.4777C60.5078 12.6747 58.7282 14.4021 56.4385 14.3963C54.172 14.3963 52.4446 12.7095 52.4446 10.5067C52.4446 8.30973 54.1778 6.62288 56.4385 6.61708V6.62288ZM58.4326 10.5415C58.4442 9.37053 57.6037 8.48363 56.4791 8.46624C55.3545 8.44885 54.485 9.32995 54.4676 10.4893C54.4502 11.6486 55.2966 12.5413 56.4269 12.5587C57.5573 12.5761 58.4268 11.7066 58.4326 10.5415Z" fill="white"/>
<path d="M74.6344 14.4021C72.3621 14.4021 70.6347 12.7326 70.6231 10.5357C70.6173 8.33291 72.3331 6.63447 74.588 6.62288C76.8719 6.61128 78.6515 8.32132 78.6457 10.5299C78.6399 12.7152 76.8893 14.4021 74.6286 14.4021H74.6344ZM76.6169 10.5183C76.6169 9.35894 75.7532 8.46624 74.6286 8.46624C73.5156 8.46624 72.6345 9.36473 72.6287 10.5125C72.6287 11.6602 73.4982 12.5587 74.6228 12.5587C75.7532 12.5587 76.6111 11.6776 76.6111 10.5183H76.6169Z" fill="white"/>
<path d="M38.5092 11.0284H33.3965C33.4718 11.8283 33.8602 12.3153 34.4921 12.5877C35.5355 13.0341 36.4282 12.6863 37.3151 11.9385C37.6455 12.35 37.9701 12.7558 38.3005 13.1674C37.3325 14.3267 35.4021 14.7615 33.7559 14.1238C32.1965 13.521 31.2691 12.008 31.3908 10.2864C31.5183 8.48363 32.5675 7.12719 34.1558 6.72142C36.7006 6.07218 39.0773 8.36189 38.515 11.0284H38.5092ZM36.4861 9.52704C36.3006 8.65173 35.7615 8.22277 34.979 8.25755C34.1906 8.29233 33.6399 8.77926 33.553 9.52704H36.4861Z" fill="white"/>
<path d="M45.0363 12.5993C45.1349 13.1558 45.2276 13.6659 45.3204 14.1702C42.8915 14.918 40.9032 13.7645 40.9206 11.5385C40.9264 10.5531 40.9206 9.56762 40.9206 8.49522H38.8628V6.78519H40.8859V4.74474H42.9263V6.77359H45.3725V8.45465H42.9727C42.9727 9.5966 42.9495 10.669 42.9843 11.7414C43.0017 12.2805 43.39 12.5471 43.9117 12.5935C44.2538 12.6225 44.6016 12.5935 45.0363 12.5935V12.5993Z" fill="white"/>
<path d="M92.3319 7.42283C92.0479 7.85758 91.7638 8.29813 91.503 8.69811C90.9175 8.56478 90.39 8.3619 89.8625 8.3503C89.5669 8.3503 89.2712 8.66912 88.9756 8.84303C89.2017 9.0691 89.393 9.36473 89.6596 9.49806C90.2335 9.7821 90.8537 9.98498 91.4566 10.2169C92.871 10.7675 92.8188 13.2891 91.4682 13.9673C90.077 14.663 87.9612 14.4948 86.5931 13.3645C86.8946 12.9239 87.2018 12.4776 87.4221 12.1472C88.193 12.3501 88.8655 12.6051 89.5553 12.6805C89.8625 12.7152 90.3726 12.4544 90.4943 12.1993C90.7088 11.7356 90.2045 11.5501 89.8451 11.3994C89.2944 11.1675 88.7147 10.9936 88.1699 10.7444C87.4569 10.4197 86.9583 9.89224 86.9178 9.0633C86.8772 8.19959 87.283 7.56195 87.9959 7.1098C89.1843 6.35623 91.1784 6.49535 92.3261 7.42283H92.3319Z" fill="white"/>
<path d="M79.9442 3.33613H81.8687V14.1934H79.9442V3.33613Z" fill="white"/>
<path d="M51.291 8.43146C50.7809 8.48363 50.3578 8.47203 49.9694 8.57637C49.0651 8.81984 48.6999 9.34154 48.6999 10.269C48.6999 11.5733 48.6999 12.8718 48.6999 14.2166H46.729V6.80837H48.526C48.5782 6.95908 48.6361 7.13878 48.7115 7.36486C49.5172 6.7446 50.3983 6.50694 51.4707 6.69823C51.407 7.2779 51.349 7.85178 51.2852 8.43725L51.291 8.43146Z" fill="white"/>
<path d="M83.5789 6.79099H85.4628V14.1934H83.5789V6.79099Z" fill="white"/>
<path d="M84.4947 5.39397C83.7643 5.38817 83.1614 4.78531 83.1846 4.0839C83.202 3.3767 83.8338 2.80283 84.5584 2.83181C85.2772 2.86079 85.8221 3.41148 85.8221 4.11289C85.8221 4.84328 85.2425 5.40556 84.5005 5.39976L84.4947 5.39397Z" fill="white"/>
</g>
<defs>
<clipPath id="clip0_1278_230">
<rect width="92" height="17.2105" fill="white" transform="translate(0.5 0.710205)"/>
</clipPath>
</defs>
</svg>
