<svg width="93" height="34" viewBox="0 0 93 34" fill="none" xmlns="http://www.w3.org/2000/svg">
<g clip-path="url(#clip0_1278_243)">
<path d="M0.5 27.7782C0.915202 25.0061 1.26797 21.8281 1.90794 18.7062C2.29505 16.8238 3.93712 15.8966 5.67598 15.3784C7.23064 14.9132 8.21089 16.0964 9.1131 17.0267C10.0403 17.982 10.7677 19.137 11.5325 20.2391C12.4503 21.5658 12.8874 21.6564 13.9706 20.3889C15.2412 18.8998 16.3807 17.3045 17.6201 15.7873C19.0655 14.0141 21.1009 13.293 22.6493 14.0984C23.2955 14.4356 24.0135 15.0038 24.2758 15.6406C25.3372 18.2036 26.2269 20.8353 27.204 23.4327C27.4756 24.1538 27.8378 24.8375 28.1499 25.543C29.0615 27.5878 28.5246 29.1237 26.5391 30.1571C23.9542 31.4995 21.9188 30.4817 21.6066 27.6596C21.4974 26.6887 21.5036 25.7085 21.3912 24.7376C21.3163 24.0851 21.2289 23.3983 20.9573 22.8114C20.2892 21.3535 19.5806 21.2755 18.6159 22.5367C17.4265 24.0945 16.2527 25.6679 15.1632 27.2912C14.0424 28.9583 12.3098 29.0582 10.6178 29.0925C9.09437 29.1206 8.20465 28.1092 7.66457 26.7449C7.53346 26.4109 7.18381 26.1643 6.93407 25.8771C6.71554 26.2298 6.36278 26.5639 6.3097 26.9416C6.22542 27.541 6.27224 28.1778 6.38151 28.7803C6.76549 30.9219 4.80499 33.2383 2.62284 33.1447C1.42718 33.0947 0.677944 32.6046 0.70604 31.2497C0.727893 30.2257 0.593655 29.1987 0.506244 27.7782H0.5Z" fill="white"/>
<path d="M61.3224 31.7086C59.0747 31.6181 57.1766 30.438 56.4898 28.3589C55.9435 26.7106 55.6938 24.9655 55.1724 23.3078C54.7541 21.9717 54.0923 20.7104 53.6084 19.3899C53.393 18.803 53.0527 18.0319 53.2619 17.5605C54.5855 14.6042 53.8363 11.5791 53.7863 8.56969C53.7582 6.88078 53.7957 5.17939 53.958 3.49673C54.0798 2.25113 56.6584 0.412376 57.8072 0.777629C58.3161 0.939964 58.9592 1.64237 58.9998 2.13874C59.1246 3.71526 58.9779 5.31051 58.9654 6.89952C58.9498 8.49164 58.8437 10.0994 58.9998 11.6759C59.2433 14.1234 59.5523 14.2764 62.0342 14.7977C64.0946 15.2316 66.3048 15.4814 68.1186 16.4335C71.3341 18.1225 72.5297 20.2297 71.281 23.4483C70.0697 26.5795 68.7835 29.6357 65.234 30.8158C63.9728 31.2341 62.6304 31.4152 61.3286 31.7055L61.3224 31.7086ZM63.5014 26.5326C64.1757 26.0082 64.9656 25.646 65.3464 25.0342C65.8865 24.1632 66.539 23.1673 65.7304 22.0435C64.6877 20.5949 63.2392 19.8738 61.5035 19.8832C61.0727 19.8832 60.2329 20.6137 60.286 20.8572C60.62 22.3869 61.0539 23.9134 61.672 25.3495C61.8812 25.8333 62.721 26.0488 63.5077 26.5326H63.5014Z" fill="white"/>
<path d="M42.0608 11.576C44.143 11.4792 45.9287 12.6031 47.3835 14.3451C49.3377 16.6864 51.061 19.1527 52.0537 22.0934C52.8123 24.338 52.4221 26.3922 50.8643 27.9687C48.2264 30.6347 44.9204 31.9365 41.0868 31.7711C37.6777 31.6243 35.0492 28.6524 35.2833 24.5253C35.3863 22.6772 36.2105 20.8759 36.6694 19.0434C36.8661 18.2629 37.1564 17.4419 37.0846 16.6708C36.8068 13.755 38.7641 11.5573 42.0639 11.5729L42.0608 11.576ZM44.168 26.6076C46.3314 26.5795 47.0276 25.7241 46.3845 23.6824C46.0817 22.7178 45.5759 21.7968 45.0546 20.9196C44.4365 19.8832 43.4843 19.8363 42.4978 20.3764C40.9994 21.1943 40.4999 22.5398 40.9713 24.3255C41.4021 25.9551 42.348 26.6294 44.168 26.6044V26.6076Z" fill="white"/>
<path d="M75.6297 7.62378C76.5631 8.26063 77.2936 8.68832 77.9399 9.21279C79.7692 10.7019 81.4488 12.4126 83.4093 13.702C85.6102 15.1474 86.2876 14.8196 87.964 12.8622C88.5634 12.1598 89.4219 11.551 90.2866 11.242C90.8798 11.0297 92.0099 11.1764 92.3127 11.5916C92.6405 12.038 92.5 13.0963 92.1816 13.6832C91.0015 15.8529 89.5468 17.879 88.4104 20.0673C86.7309 23.3016 84.9608 26.5139 84.4489 30.2257C84.1929 32.0739 82.4759 33.5817 80.6621 33.8627C78.9482 34.128 77.8306 33.001 78.4581 31.3995C79.635 28.3839 81.0024 25.44 82.2948 22.468C82.5414 21.8999 82.8099 21.3442 83.0565 20.776C83.403 19.9706 83.2251 19.2838 82.3447 19.059C78.5393 18.0912 75.9076 15.2473 72.7889 13.1931C71.5464 12.3752 71.3435 11.1358 72.4517 9.87773C73.2509 8.96928 74.4684 8.42609 75.6297 7.63002V7.62378Z" fill="white"/>
</g>
<defs>
<clipPath id="clip0_1278_243">
<rect width="92" height="33.1693" fill="white" transform="translate(0.5 0.730804)"/>
</clipPath>
</defs>
</svg>
