<svg width="93" height="70" viewBox="0 0 93 70" fill="none" xmlns="http://www.w3.org/2000/svg">
<g clip-path="url(#clip0_1278_216)">
<path d="M0.5 60.4407V0.423748C6.18208 0.423748 11.8642 0.423748 17.5462 0.423748C17.9973 0.537389 18.4447 0.679441 18.9028 0.764673C24.3647 1.78745 27.7775 4.99427 28.4097 10.3035C28.7755 13.3931 28.7577 16.5857 28.4629 19.686C28.0439 24.0825 25.5793 26.5009 21.2183 27.4953C21.0514 27.5344 20.9058 27.6729 20.6004 27.854C21.6302 28.0671 22.4399 28.2056 23.239 28.408C26.1226 29.136 27.8237 30.9756 28.2641 33.9232C28.431 35.0312 28.5624 36.1534 28.573 37.2685C28.6157 42.0592 28.573 46.8535 28.6334 51.6442C28.6654 53.9525 29.0276 56.2218 29.9154 58.3952C30.1321 57.9939 30.2279 57.6032 30.2848 57.209C31.3892 49.7868 32.4901 42.3646 33.5946 34.9388C34.7523 27.165 35.8994 19.3912 37.0748 11.621C37.6395 7.88503 38.261 4.15261 38.8541 0.420197C44.0638 0.420197 49.27 0.420197 54.4798 0.420197C54.6041 0.935135 54.7852 1.43942 54.8491 1.96146C55.6091 8.36091 56.3371 14.7639 57.1042 21.1598C58.4608 32.4884 59.8422 43.8135 61.2059 55.1422C61.4155 56.8823 61.5717 58.626 61.7706 60.5224C57.5339 60.5615 53.4925 60.6432 49.3304 60.4762C48.8652 54.9682 48.4142 49.6341 47.9596 44.2681H42.3911C41.759 49.7158 41.1375 55.0889 40.5196 60.4443C40.0864 60.5011 39.8555 60.5544 39.6211 60.5579C32.8737 60.565 26.1297 60.5437 19.3823 60.5899C18.3382 60.597 17.9191 60.114 17.596 59.2581C16.7508 56.9995 16.5838 54.645 16.5732 52.2763C16.5448 47.6028 16.5732 42.9257 16.559 38.2522C16.559 37.3076 16.5483 36.3487 16.3814 35.4218C16.0192 33.3869 14.7833 32.5204 12.4679 32.6731C12.4679 37.2649 12.4856 41.871 12.4643 46.477C12.4395 51.1257 12.5709 55.7779 12.3827 60.4443H0.5V60.4407ZM12.7236 9.22387C12.3471 10.7687 12.3649 23.9263 12.7449 25.3432C15.4652 25.6948 16.3956 24.9739 16.5483 22.3885C16.5483 22.3282 16.559 22.2713 16.559 22.211C16.5625 18.9083 16.6087 15.6091 16.559 12.3064C16.5164 9.61806 15.4829 8.82968 12.7271 9.22387H12.7236ZM45.6335 11.4079C44.6853 19.4197 43.9821 27.4207 43.4601 35.4609H47.1961C46.6705 27.3781 46.152 19.3912 45.6335 11.4079Z" fill="white"/>
<path d="M62.6478 0.423746C66.5542 0.423746 70.4606 0.423746 74.367 0.423746C74.4097 1.06653 74.4842 1.71287 74.4878 2.35565C74.4984 7.60448 74.4949 12.8569 74.4949 18.1057C74.4949 20.794 74.4949 23.4859 74.4949 26.1742C74.7754 25.8937 74.9353 25.5812 75.0098 25.2544C76.4303 18.9935 77.858 12.7361 79.2465 6.46806C79.6904 4.46513 80.0243 2.44088 80.4078 0.423746C84.2539 0.423746 88.1035 0.423746 91.9495 0.430849C92.1662 0.430849 92.603 0.210668 92.4822 0.778876C92.3047 1.20503 92.0845 1.62053 91.9531 2.06445C89.8578 9.24873 87.8087 16.4472 85.6637 23.6173C85.2908 24.8638 85.2802 26.0038 85.543 27.2396C87.1801 34.9672 88.7747 42.7055 90.4083 50.4367C91.0653 53.5441 91.7862 56.6337 92.4822 59.7305V60.4407C88.5474 60.7 84.6161 60.5189 80.6173 60.5615C78.6251 50.1526 76.6789 39.9817 74.7328 29.8143C74.4984 34.9495 74.5091 40.035 74.4913 45.1204C74.4736 50.2343 74.5695 55.3517 74.4345 60.4514H62.5554C62.5554 59.7021 62.5554 59.0664 62.5554 58.4307C62.5554 39.6834 62.5554 20.9361 62.559 2.19229C62.559 1.60278 62.6193 1.01681 62.6513 0.427297L62.6478 0.423746Z" fill="white"/>
<path d="M0.5 62.9266C1.49792 62.8982 2.49938 62.8485 3.4973 62.8485C11.0971 62.8414 18.6933 62.8485 26.2931 62.8485C26.9856 62.8485 27.6817 62.8485 28.5553 62.8485V69.6777H0.5C0.5 67.4297 0.5 65.1817 0.5 62.9302V62.9266Z" fill="white"/>
<path d="M64.4235 69.6741V63.0474C64.8496 62.9764 65.2367 62.8592 65.6202 62.8592C74.3991 62.8521 83.1743 62.8556 91.9531 62.8592C92.1272 62.8592 92.3012 62.9018 92.4787 62.9266V69.6741H64.4235Z" fill="white"/>
<path d="M45.2463 69.6741C45.2641 67.5611 45.2819 65.4481 45.3067 63.335C45.3067 63.2356 45.4061 63.1326 45.5056 62.9408C45.7861 62.9089 46.1235 62.845 46.4644 62.8343C49.1137 62.7491 49.7849 63.4096 49.7742 66.1051C49.7671 67.5504 49.6038 68.9354 48.0874 69.6741H45.2463ZM46.7627 63.9778V68.3956C47.5653 68.694 48.1229 68.3992 48.201 67.7458C48.3218 66.7159 48.3111 65.6505 48.1939 64.6206C48.1158 63.9352 47.5476 63.7079 46.7592 63.9778H46.7627Z" fill="white"/>
<path d="M54.1247 69.6741C52.5373 68.0014 52.9208 65.995 53.2333 64.0417C53.3825 63.1113 54.1957 62.7526 55.0729 62.678C55.9465 62.6035 56.7207 62.8556 57.1859 63.6582C58.1128 65.2563 57.6156 68.3637 56.2519 69.6777H54.1212L54.1247 69.6741ZM56.291 66.2222C56.1916 65.551 56.1632 64.8976 55.9785 64.2903C55.9039 64.0453 55.4991 63.7967 55.2114 63.7541C55.0232 63.7257 54.597 64.0488 54.5899 64.23C54.5296 65.5084 54.5224 66.794 54.5686 68.0725C54.5757 68.2571 54.977 68.5874 55.1759 68.5697C55.4671 68.5448 55.911 68.3282 55.9856 68.0973C56.1774 67.4936 56.2022 66.8402 56.291 66.2222Z" fill="white"/>
<path d="M31.3963 69.6741C30.8529 69.1379 30.2492 68.6336 30.4268 67.6925C30.9062 67.4155 31.4034 67.2947 31.7052 67.9446C31.9361 68.4383 32.2415 68.7579 32.7813 68.5803C33.0157 68.5022 33.3815 68.0973 33.3424 68.0228C33.1151 67.5966 32.8381 67.1633 32.4759 66.8473C32.1776 66.588 31.7159 66.5312 31.3714 66.311C30.5227 65.7712 30.2208 64.7698 30.5759 63.8393C30.892 63.019 31.8722 62.5289 32.9091 62.6709C34.01 62.8236 34.3403 63.2178 34.493 64.8514C33.9497 64.546 33.4915 64.3933 33.1897 64.0915C32.7813 63.6795 32.4226 63.5126 32.0213 63.9956C31.6307 64.4644 31.8402 64.9012 32.2806 65.1924C32.6712 65.4481 33.1187 65.615 33.5377 65.8316C35.1251 66.6591 35.2921 68.1648 33.9319 69.3367C33.8005 69.4504 33.662 69.5569 33.5271 69.667H31.3963V69.6741Z" fill="white"/>
<path d="M59.0965 69.6741C58.6987 69.0633 57.9636 68.5981 58.2442 67.6676C58.8586 67.3658 59.2918 67.4084 59.6363 68.1364C59.757 68.3885 60.2933 68.5235 60.652 68.5483C60.8082 68.559 61.1633 68.1115 61.1243 67.9411C61.0426 67.5824 60.8331 67.174 60.5454 66.9538C60.1832 66.6768 59.6718 66.6022 59.2599 66.3785C58.4146 65.9168 58.0524 64.9047 58.3436 63.9459C58.6135 63.0616 59.5297 62.5502 60.6129 62.678C61.7493 62.8094 62.0867 63.1859 62.2252 64.5141C61.6534 64.8621 61.2912 64.681 60.9609 64.1163C60.6768 63.6227 60.2151 63.502 59.8067 63.9885C59.409 64.4608 59.6434 64.8976 60.066 65.1924C60.4495 65.4587 60.9041 65.6185 61.3196 65.8423C62.8893 66.6839 63.0775 67.8665 61.8772 69.2657C61.7671 69.3936 61.6747 69.5392 61.5753 69.6777H59.0894L59.0965 69.6741Z" fill="white"/>
<path d="M40.9848 69.6741C40.2568 68.9852 39.9798 68.1293 40.0011 67.142C40.026 66.0234 40.0153 64.9047 40.0118 63.7861C40.0118 62.9941 40.3776 62.7207 41.3755 63.0225C41.3755 63.6333 41.3755 64.3188 41.3755 65.0042C41.3755 65.7109 41.3613 66.4176 41.3861 67.1243C41.4074 67.7458 41.2583 68.6123 42.1958 68.5874C43.0837 68.5626 42.9878 67.7138 43.002 67.0817C43.0268 65.963 42.9736 64.8408 43.0553 63.7292C43.0766 63.438 43.4637 63.1717 43.6838 62.8911C43.8934 63.1859 44.2698 63.47 44.284 63.7718C44.3444 65.1213 44.3018 66.4779 44.2947 67.831C44.2911 68.6939 43.7797 69.2338 43.1156 69.6777H40.9848V69.6741Z" fill="white"/>
<path d="M36.7233 69.6741V64.4963C36.2829 63.6902 35.0577 64.2158 35.3774 63.0048C36.7127 62.6674 38.0693 62.7988 39.3903 62.9337C39.5857 64.1518 38.609 63.7363 38.1474 64.1945C38.0337 65.9452 37.913 67.8097 37.7887 69.6741H36.7233Z" fill="white"/>
<path d="M50.9284 69.6741C50.8858 67.6783 50.8148 65.6789 50.829 63.6831C50.829 63.4203 51.2694 63.161 51.5037 62.9018C51.6813 63.1575 52.008 63.4132 52.0116 63.6724C52.04 65.6718 52.008 67.6747 51.9938 69.6741H50.9284Z" fill="white"/>
</g>
<defs>
<clipPath id="clip0_1278_216">
<rect width="92" height="69.2823" fill="white" transform="translate(0.5 0.391785)"/>
</clipPath>
</defs>
</svg>
