<svg width="93" height="12" viewBox="0 0 93 12" fill="none" xmlns="http://www.w3.org/2000/svg">
<g clip-path="url(#clip0_1278_202)">
<path d="M46.5266 0.517392C60.2457 0.517392 73.9637 0.534474 87.6818 0.502319C90.1708 0.49629 92.6668 2.9069 92.4809 5.28636C92.4457 5.73451 92.4367 6.19272 92.4829 6.63887C92.7301 9.04948 90.2773 11.5646 87.5552 11.5626C60.1854 11.5415 32.8156 11.5515 5.4468 11.5495C2.70359 11.5505 0.499977 9.35093 0.512035 6.61375C0.516055 5.68528 0.409542 4.75178 0.758221 3.83939C1.55104 1.76239 3.30549 0.515382 5.52317 0.515382C19.191 0.515382 32.8588 0.515382 46.5276 0.515382V0.517392H46.5266ZM86.691 10.5185C87.9792 10.6582 89.0845 10.4432 90.0542 9.65338C91.667 8.33905 91.7976 6.46805 91.3886 4.56488C91.2359 3.85647 90.7496 3.15308 90.2461 2.60143C89.4965 1.78047 88.4656 1.48706 87.3381 1.48807C76.3944 1.49811 65.4517 1.49409 54.508 1.49409C38.2096 1.49409 21.9121 1.49409 5.6136 1.49409C3.69637 1.49409 2.15696 2.61951 1.65253 4.48248C1.48572 5.09745 1.48673 5.76868 1.4807 6.41378C1.45658 8.76511 3.22912 10.5567 5.57843 10.5577C18.5459 10.5618 31.5143 10.5597 44.4818 10.5577C44.6044 10.5577 44.7259 10.5356 44.941 10.5145C44.4144 10.1689 44.1532 9.77497 44.1532 9.22231C44.1532 8.95804 44.2044 8.81535 44.5109 8.83143C44.9108 8.85253 45.3158 8.85755 45.7147 8.82841C46.0533 8.80329 46.2201 8.89574 46.3106 9.24944C46.3528 9.41423 46.6341 9.63329 46.7899 9.62022C46.9496 9.60716 47.1848 9.35897 47.2169 9.18211C47.2833 8.81836 47.237 8.43451 47.237 8.04866C46.0784 8.5973 45.8845 8.64754 45.2535 8.56213C44.4968 8.45964 44.1411 8.12804 44.106 7.35532C44.0658 6.47106 44.0668 5.58278 44.1049 4.69752C44.1371 3.93686 44.5019 3.58315 45.2545 3.48368C46.0081 3.38319 46.7115 3.50176 47.3516 4.11974C47.3134 3.64947 47.5013 3.53593 47.855 3.5721C48.1524 3.60325 48.4589 3.60124 48.7573 3.5721C49.2266 3.52487 49.3994 3.67962 49.3874 4.17902C49.3542 5.58278 49.3713 6.98755 49.3783 8.39231C49.3834 9.20723 49.3402 9.99603 48.4499 10.5246H83.6273C83.6273 10.2251 83.6484 9.95885 83.6222 9.6976C83.5851 9.31978 83.7318 9.19216 84.1076 9.21628C84.5628 9.24441 85.02 9.22331 85.5636 9.22331C84.8803 7.36235 84.2372 5.61393 83.5951 3.86551C83.5529 3.87456 83.5107 3.8836 83.4695 3.89264V5.04419C83.0495 5.06931 82.6747 5.09041 82.2627 5.11553C82.2627 5.54962 82.2627 5.93247 82.2627 6.3143C82.2627 6.91252 82.5544 7.22033 83.1379 7.23775C83.2354 7.24077 83.3308 7.26086 83.4454 7.27493V8.71085C82.7671 8.71085 82.1341 8.72692 81.502 8.70683C80.5364 8.67568 80.1957 8.3069 80.1937 7.3312C80.1917 6.60068 80.1937 5.86916 80.1937 5.1095C79.846 5.08639 79.5526 5.0663 79.2331 5.04519V3.60827C79.3919 3.59722 79.5245 3.56708 79.6501 3.58416C80.1063 3.64746 80.245 3.44549 80.2008 3.01341C80.1686 2.69186 80.1947 2.36428 80.1947 2.0146C80.5585 2.0146 80.8248 2.0146 81.092 2.0146C82.2305 2.01159 82.2456 2.01159 82.2546 3.14806C82.2577 3.52286 82.4074 3.59019 82.736 3.58416C83.6212 3.56708 84.5085 3.59421 85.3938 3.57411C85.7254 3.56607 85.868 3.69369 85.9535 3.99815C86.1363 4.64828 86.3494 5.28937 86.5503 5.93448C86.8598 5.27832 87.0487 4.62517 87.2688 3.98308C87.32 3.83336 87.4627 3.61531 87.5793 3.60526C88.0506 3.56205 88.5289 3.58717 89.0665 3.58717C88.2566 5.95055 87.4808 8.21847 86.691 10.5226V10.5185ZM46.1709 5.94955H46.1739C46.1739 6.28215 46.1448 6.61877 46.187 6.94635C46.2071 7.10009 46.3357 7.3091 46.4663 7.36034C46.5949 7.41058 46.8281 7.34125 46.9486 7.24278C47.4058 6.873 47.4169 5.23008 46.9868 4.83317C46.9627 4.81107 46.9386 4.78695 46.9125 4.76685C46.5537 4.50258 46.2131 4.64929 46.1749 5.09946C46.1508 5.38081 46.1709 5.66518 46.1709 5.94854V5.94955Z" fill="white"/>
<path d="M73.3327 3.57813V8.70482C72.7469 8.70482 72.1832 8.73396 71.6275 8.68271C71.4999 8.67065 71.3974 8.38427 71.2647 8.19838C70.7352 8.72893 70.0127 8.8264 69.241 8.73697C68.5567 8.65759 68.1789 8.32901 68.1528 7.65074C68.1055 6.40072 68.1075 5.14869 68.1166 3.89767C68.1166 3.79015 68.3196 3.60225 68.4402 3.5922C68.8883 3.55502 69.3425 3.59421 69.7927 3.5721C70.1504 3.55401 70.2559 3.71077 70.2519 4.04337C70.2408 5.01203 70.2428 5.9817 70.2529 6.95037C70.2579 7.4337 70.5443 7.71907 70.8698 7.53217C71.0618 7.42164 71.2236 7.09707 71.2346 6.86094C71.2758 5.94352 71.2718 5.02309 71.2426 4.10567C71.2296 3.68665 71.3622 3.54397 71.7792 3.57009C72.2766 3.60124 72.777 3.57713 73.3327 3.57713V3.57813Z" fill="white"/>
<path d="M25.023 3.46358C25.426 3.50779 25.9113 3.53693 26.3866 3.61832C26.9493 3.71479 27.3914 4.05945 27.4326 4.62316C27.505 5.61393 27.512 6.61576 27.4447 7.60653C27.4005 8.24761 26.877 8.62443 26.2791 8.67869C25.4209 8.75707 24.5487 8.75506 23.6886 8.69477C22.9611 8.64352 22.4506 8.18531 22.3954 7.44776C22.3291 6.55748 22.3291 5.65312 22.4074 4.76484C22.4738 4.02327 23.0123 3.64344 23.7398 3.56105C24.1378 3.51583 24.5397 3.49975 25.023 3.46358ZM25.4199 6.1897C25.4199 6.1897 25.4189 6.1897 25.4179 6.1897C25.4179 5.82294 25.433 5.45617 25.4129 5.09041C25.3968 4.80403 25.2692 4.5056 24.9426 4.58598C24.7427 4.63522 24.4694 4.9005 24.4533 5.0874C24.395 5.78275 24.4191 6.48513 24.4362 7.1845C24.4442 7.497 24.611 7.79142 24.9477 7.71505C25.1356 7.67285 25.3496 7.3935 25.3998 7.1845C25.4762 6.86998 25.4199 6.52331 25.4199 6.1897Z" fill="white"/>
<path d="M65.0579 3.46257C65.5392 3.49774 65.9411 3.5098 66.3391 3.55904C67.1068 3.65349 67.5961 4.05543 67.6715 4.82212C67.7539 5.66317 67.7418 6.5203 67.6946 7.36537C67.6554 8.07177 67.2304 8.54103 66.5209 8.67668C65.5282 8.86659 64.5324 8.89774 63.5446 8.61338C63.0874 8.48174 62.793 8.19536 62.6664 7.73917C62.38 6.70418 62.386 5.66216 62.6332 4.62417C62.7639 4.07351 63.1266 3.71378 63.6943 3.62033C64.1706 3.54196 64.655 3.50779 65.0579 3.46257ZM64.6409 6.14549C64.6409 6.49518 64.6409 6.84586 64.6409 7.19555C64.6409 7.51207 64.8157 7.76328 65.1071 7.71404C65.3051 7.68088 65.5965 7.4136 65.6116 7.23172C65.6708 6.51929 65.6708 5.79681 65.6136 5.08438C65.5985 4.89849 65.2981 4.7347 65.1282 4.56086C64.9665 4.73872 64.7112 4.89447 64.663 5.09845C64.5846 5.43005 64.6419 5.7938 64.6419 6.14348L64.6409 6.14549Z" fill="white"/>
<path d="M78.9859 8.70683C78.3478 8.70683 77.7369 8.7229 77.1289 8.68874C77.0445 8.68371 76.9109 8.43049 76.9079 8.28881C76.8868 7.37039 76.8948 6.45197 76.8928 5.53355C76.8928 5.41698 76.933 5.27128 76.8777 5.18889C76.7451 4.98892 76.5913 4.70053 76.4034 4.66235C76.0809 4.59804 75.9 4.86935 75.897 5.19692C75.888 6.14851 75.89 7.10009 75.887 8.05268C75.887 8.23254 75.887 8.41341 75.887 8.65859H73.8049V3.60928H75.7011C75.7342 3.77005 75.7674 3.93786 75.8106 4.15089C76.4688 3.343 77.3199 3.40228 78.1669 3.54899C78.6673 3.63541 78.9618 4.0293 78.9738 4.51263C79.007 5.87821 78.9859 7.24378 78.9859 8.70783V8.70683Z" fill="white"/>
<path d="M38.4478 3.57713C38.9823 3.57713 39.4335 3.59923 39.8827 3.57009C40.2665 3.54497 40.5016 3.64143 40.4434 4.25238C41.0553 3.4274 41.8059 3.43544 42.5606 3.4897C43.2097 3.53593 43.6367 3.87858 43.6578 4.51062C43.7031 5.8762 43.6719 7.24378 43.6719 8.71788C43.065 8.71788 42.4862 8.73898 41.9114 8.7008C41.7949 8.69276 41.605 8.46265 41.5999 8.33001C41.5698 7.4136 41.5839 6.49618 41.5738 5.57977C41.5698 5.18989 41.6602 4.66436 41.0925 4.6513C40.5248 4.63823 40.58 5.14769 40.58 5.55163C40.579 6.47006 40.565 7.38948 40.578 8.3079C40.582 8.59529 40.4665 8.70884 40.2012 8.70884C39.7179 8.70884 39.2335 8.7219 38.7522 8.68874C38.6457 8.6817 38.4628 8.50686 38.4618 8.40738C38.4437 6.82376 38.4488 5.23913 38.4488 3.57713H38.4478Z" fill="white"/>
<path d="M17.4205 5.1095C17.5933 4.62718 17.729 4.28855 17.8355 3.94188C17.9149 3.68263 18.0435 3.56306 18.3359 3.57411C18.9127 3.59722 19.4915 3.58114 20.1346 3.58114C19.9055 4.29056 19.6824 4.91457 19.5096 5.55264C19.4443 5.79279 19.4392 6.08018 19.5066 6.31832C19.7206 7.08502 19.9798 7.83865 20.2431 8.66362C19.4834 8.66362 18.7791 8.67266 18.0757 8.64955C18.0033 8.64754 17.9119 8.46265 17.8717 8.34709C17.726 7.92406 17.5994 7.49499 17.4235 6.9363C17.2577 7.46284 17.108 7.85975 17.0105 8.26972C16.9352 8.58926 16.7644 8.7008 16.4529 8.69577C15.857 8.68472 15.2611 8.69276 14.5929 8.69276C14.8612 7.83362 15.1184 7.06492 15.3355 6.28516C15.3978 6.0631 15.3958 5.7948 15.3345 5.57273C15.1576 4.93567 14.9345 4.31066 14.6974 3.58315C15.4138 3.58315 16.0409 3.57009 16.6659 3.59622C16.7704 3.60024 16.909 3.75699 16.9603 3.87456C17.117 4.23529 17.2396 4.61211 17.4205 5.1085V5.1095Z" fill="white"/>
<path d="M14.6511 6.57255H11.7682C11.5582 7.23273 11.6808 7.65074 12.0837 7.73314C12.4686 7.81151 12.6625 7.58643 12.7972 6.85089C13.3137 6.85089 13.8442 6.83984 14.3738 6.86094C14.4622 6.86395 14.6059 6.99559 14.621 7.08401C14.7385 7.8095 14.3296 8.52696 13.596 8.62443C12.6967 8.743 11.7662 8.78219 10.8659 8.69276C10.0288 8.60936 9.62892 8.12 9.56159 7.28196C9.5013 6.53838 9.50432 5.78174 9.56863 5.03816C9.64299 4.18204 10.1092 3.67058 10.9654 3.59019C11.7903 3.51282 12.6324 3.55803 13.4614 3.62134C14.0824 3.66957 14.4592 4.08758 14.5325 4.70355C14.6029 5.2954 14.6099 5.89529 14.6491 6.57255H14.6511ZM12.7188 5.33358C12.7118 4.7146 12.5409 4.47947 12.144 4.53373C11.6848 4.59603 11.6205 4.91356 11.6919 5.33358H12.7188Z" fill="white"/>
<path d="M52.9877 6.85089C53.5393 6.85089 54.087 6.83682 54.6336 6.86496C54.723 6.86898 54.8657 7.04784 54.8768 7.15736C54.9441 7.79242 54.5271 8.46466 53.9041 8.62342C52.8892 8.88267 51.8552 8.92086 50.8333 8.63749C50.2646 8.47973 49.8687 8.0788 49.8305 7.50805C49.7692 6.59867 49.7622 5.67724 49.8486 4.77087C49.9048 4.17299 50.3188 3.69168 50.9599 3.64143C51.8542 3.5711 52.7616 3.53392 53.6519 3.60928C54.3925 3.67158 54.722 4.10868 54.8165 4.95878C54.8738 5.46622 54.8265 5.98472 54.8265 6.57858C54.0217 6.57858 53.2429 6.57858 52.4642 6.57858C52.1718 6.57858 51.8371 6.48915 51.8703 6.99257C51.8934 7.3513 51.9195 7.69294 52.3597 7.73213C52.7998 7.77132 52.9364 7.48394 52.9354 7.09406C52.9354 7.03176 52.9606 6.96946 52.9877 6.84888V6.85089ZM52.9003 5.3788C52.9425 4.73168 52.7897 4.51062 52.3878 4.5267C52.0361 4.54076 51.8171 4.76786 51.8954 5.07333C52.0512 5.68126 52.5435 5.22506 52.9003 5.3788Z" fill="white"/>
<path d="M33.0658 5.32554C32.9 4.53273 33.2075 3.91475 33.9088 3.71278C35.0031 3.39625 36.1155 3.37415 37.2138 3.70072C37.8026 3.87556 38.0488 4.24233 38.0508 4.85327C38.0558 6.10329 38.0528 7.35331 38.0528 8.65658H36.0753C36.0582 8.4516 36.0431 8.27474 36.023 8.02755C35.8964 8.13708 35.803 8.21345 35.7135 8.29484C35.1267 8.82942 34.4273 8.91282 33.6978 8.73496C33.2125 8.61739 32.9834 8.24058 32.898 7.75022C32.7081 6.66097 33.109 6.04601 34.1862 5.83198C34.5951 5.75059 35.0081 5.68628 35.4191 5.61192C35.7427 5.55364 36.0421 5.41598 35.9527 5.03816C35.9075 4.84523 35.6914 4.59905 35.5085 4.55282C35.1589 4.4654 34.9699 4.69451 34.9247 5.06127C34.9127 5.15975 34.7499 5.30947 34.6504 5.31449C34.1199 5.33961 33.5873 5.32655 33.0658 5.32655V5.32554ZM35.9467 6.23191C35.1669 6.48915 34.981 6.69815 35.0051 7.20057C35.0192 7.496 35.1518 7.7261 35.4503 7.65074C35.6402 7.60351 35.8763 7.39451 35.9255 7.21364C36.0049 6.92123 35.9467 6.59164 35.9467 6.23191Z" fill="white"/>
<path d="M60.297 6.55145H62.1931C62.4212 7.80549 61.9168 8.58524 60.6999 8.73999C60.0277 8.8254 59.3273 8.83042 58.6551 8.75204C57.6553 8.63448 57.2322 8.17527 57.1559 7.17947C57.1026 6.48312 57.1056 5.77471 57.1719 5.07936C57.2614 4.13581 57.7849 3.61832 58.7254 3.54497C59.4208 3.49071 60.1332 3.47966 60.8225 3.56808C61.9057 3.70775 62.2132 4.26343 62.2414 5.39689C62.2434 5.49134 62.0555 5.65614 61.9389 5.67322C61.6616 5.71341 61.3732 5.6692 61.0918 5.68729C60.5894 5.71844 60.1654 5.7104 60.2297 4.99596C60.2417 4.85829 59.9292 4.55584 59.7966 4.57292C59.6067 4.59704 59.3072 4.83317 59.2952 4.99696C59.2409 5.72647 59.2419 6.46503 59.2962 7.19555C59.3082 7.36135 59.5936 7.60452 59.7845 7.63868C60.094 7.69395 60.2498 7.44173 60.2668 7.13224C60.2769 6.95238 60.2859 6.77151 60.297 6.55145Z" fill="white"/>
<path d="M6.56516 8.66663H4.42887C4.42887 7.77333 4.42887 6.92625 4.42887 6.07917C4.42887 5.41096 4.45198 4.74073 4.42083 4.07452C4.40174 3.66354 4.56151 3.54196 4.94234 3.57311C5.2247 3.59622 5.51108 3.57813 5.79445 3.57813C6.17026 3.57813 6.39836 3.77039 6.47874 4.15491C6.98619 3.48167 7.67048 3.40731 8.40703 3.51382C8.8793 3.58215 9.17472 3.8625 9.22296 4.32975C9.28224 4.90653 9.28626 5.48833 9.31641 6.12741C8.71752 6.12741 8.18898 6.14047 7.66244 6.11434C7.57402 6.11032 7.44339 5.94653 7.41927 5.83801C7.37405 5.62901 7.43635 5.39086 7.36903 5.19492C7.31577 5.04017 7.12787 4.82212 7.0103 4.82815C6.86963 4.83518 6.65559 5.03314 6.62344 5.18185C6.55411 5.5024 6.57018 5.84404 6.56817 6.17765C6.56214 6.9775 6.56616 7.77835 6.56616 8.66764L6.56516 8.66663Z" fill="white"/>
<path d="M29.9136 4.16797C30.3879 3.54698 30.9918 3.44449 31.653 3.48568C32.3021 3.52588 32.6538 3.85044 32.7332 4.50861C32.7493 4.64024 32.7523 4.77489 32.7533 4.90854C32.7563 5.29037 32.7533 5.67221 32.7533 6.13142C32.1755 6.13142 31.6319 6.14147 31.0893 6.11937C31.0159 6.11635 30.9114 5.95658 30.8893 5.85409C30.8531 5.69432 30.8833 5.52149 30.8702 5.35569C30.8481 5.08237 30.822 4.78193 30.4432 4.80906C30.1005 4.83317 30.0342 5.10347 30.0322 5.39086C30.0292 5.74155 30.0322 6.09224 30.0312 6.44192C30.0312 7.07597 30.0201 7.71103 30.0332 8.34508C30.0392 8.62744 29.9317 8.73496 29.6524 8.72692C29.171 8.71386 28.6867 8.742 28.2074 8.70381C28.0959 8.69477 27.913 8.48777 27.911 8.3702C27.8909 6.88505 27.9029 5.3989 27.8949 3.91375C27.8939 3.63641 28.0306 3.57311 28.2667 3.57713C28.6174 3.58215 28.9701 3.60124 29.3188 3.5711C29.7267 3.53593 29.984 3.62134 29.9136 4.16697V4.16797Z" fill="white"/>
</g>
<defs>
<clipPath id="clip0_1278_202">
<rect width="92" height="11.0613" fill="white" transform="translate(0.5 0.502319)"/>
</clipPath>
</defs>
</svg>
