<svg width="93" height="41" viewBox="0 0 93 41" fill="none" xmlns="http://www.w3.org/2000/svg">
<g clip-path="url(#clip0_1278_170)">
<path d="M67.3158 13.38C67.1861 13.17 67.0859 12.9854 66.9657 12.8165C65.6677 10.9876 64.3718 9.15765 63.0558 7.34142C62.9472 7.19156 62.6351 7.01743 62.5328 7.07231C62.3399 7.17362 62.129 7.42268 62.1047 7.63058C62.0288 8.29017 62.0193 8.95925 62.0141 9.62517C61.9961 11.6746 61.974 13.723 61.9951 15.7725C61.9993 16.2516 61.8917 16.5007 61.3877 16.4891C61.2833 16.487 61.1789 16.5123 61.0735 16.5165C59.7554 16.5693 59.476 16.3624 59.4718 15.076C59.4676 13.6755 59.5762 12.2751 59.611 10.8747C59.6437 9.54391 59.6511 8.21313 59.6574 6.88235C59.6658 5.16321 59.6774 3.44407 59.6521 1.72598C59.6458 1.2933 59.8113 1.12233 60.2015 1.0759C60.3755 1.05585 60.5463 1.01258 60.7181 0.983028C61.2148 0.897546 61.6007 0.995692 61.9645 1.41994C63.8034 3.56649 65.4874 5.81963 66.8814 8.28278C67.2567 8.94553 67.5509 8.99302 67.9854 8.34716C69.1579 6.6048 70.3051 4.8445 71.4292 3.06943C72.7683 0.95559 72.1894 1.50753 74.6663 1.2057C75.0997 1.15294 75.2505 1.34501 75.2483 1.77875C75.2389 3.84615 75.2431 5.91355 75.2642 7.98095C75.2821 9.73281 75.3411 11.4836 75.3612 13.2344C75.3717 14.0903 75.3464 14.9483 75.3074 15.8031C75.3021 15.9118 75.1165 16.0986 75.01 16.1018C74.3099 16.125 73.6076 16.1165 72.9054 16.1007C72.5585 16.0923 72.4256 15.8812 72.433 15.5424C72.4783 13.4223 72.5142 11.301 72.5574 9.18087C72.5711 8.51495 72.6291 7.84904 72.6028 7.18523C72.5943 6.971 72.413 6.62696 72.2537 6.59002C72.0766 6.54992 71.755 6.73883 71.6337 6.92034C70.2661 8.95714 68.9259 11.0119 67.5762 13.0613C67.5393 13.1173 67.4908 13.1658 67.3137 13.38H67.3158Z" fill="white"/>
<path d="M30.6159 37.3457C30.4124 37.1114 30.2163 36.9182 30.0591 36.6987C28.7864 34.9173 27.5264 33.1264 26.2442 31.3524C26.1451 31.2163 25.8709 31.0759 25.7444 31.1213C25.5693 31.1846 25.3753 31.4041 25.3363 31.5888C25.2562 31.9613 25.2562 32.3539 25.253 32.7391C25.2319 35.0155 25.2203 37.2908 25.2056 39.5671C25.2056 39.7075 25.1929 39.8489 25.2108 39.9872C25.2583 40.3713 25.0906 40.5528 24.71 40.5328C24.2049 40.5074 23.7009 40.4789 23.1968 40.4399C22.8584 40.4135 22.7013 40.2088 22.7076 39.8763C22.735 38.3894 22.7666 36.9035 22.7909 35.4165C22.8035 34.6282 22.7993 33.8398 22.8067 33.0515C22.8267 30.581 22.8425 28.1094 22.8868 25.6388C22.89 25.4826 23.0967 25.28 23.258 25.1882C23.4309 25.09 23.6629 25.0953 23.8706 25.0616C24.42 24.9718 24.8502 25.0816 25.2498 25.5533C27.0456 27.6661 28.6979 29.8781 30.0697 32.2906C30.4894 33.0283 30.7498 33.0853 31.2243 32.3803C32.4158 30.6084 33.5799 28.8185 34.7145 27.0108C35.7173 25.413 35.693 25.3982 37.5488 25.2832C38.4451 25.2272 38.4546 25.2272 38.462 26.139C38.4799 28.2592 38.4799 30.3794 38.5031 32.4996C38.521 34.1459 38.5769 35.7922 38.5906 37.4396C38.597 38.2437 38.56 39.05 38.5052 39.8531C38.4968 39.9755 38.2912 40.1803 38.171 40.1845C37.5067 40.2098 36.8392 40.1929 36.1738 40.1729C35.7911 40.1613 35.6424 39.9629 35.654 39.5576C35.7299 36.9657 35.7827 34.3717 35.8428 31.7788C35.847 31.6036 35.8934 31.4115 35.8385 31.2564C35.7595 31.0326 35.6371 30.7034 35.4726 30.6633C35.2966 30.6211 34.9707 30.8057 34.8505 30.9851C33.4913 33.0051 32.1596 35.0429 30.8194 37.0765C30.773 37.1472 30.7182 37.2116 30.6169 37.3446L30.6159 37.3457Z" fill="white"/>
<path d="M12.8729 26.7142C12.4743 27.4107 12.1168 28.0661 11.7172 28.6951C11.6613 28.7827 11.3671 28.7964 11.2248 28.7404C10.3296 28.3848 9.4512 27.9891 8.55809 27.626C7.25586 27.0962 5.92726 27.1142 4.59234 27.4878C3.9175 27.6767 3.47674 28.1241 3.26585 28.7932C2.9917 29.6618 3.42296 30.4184 4.33084 30.5314C5.25136 30.6464 6.18244 30.6844 7.11034 30.7371C8.67303 30.8247 10.2262 30.964 11.6782 31.6099C13.3105 32.336 14.5104 33.4536 14.7181 35.3236C14.7782 35.8619 14.676 36.4465 14.5231 36.9731C13.9958 38.7915 12.1885 40.3185 10.299 40.4103C7.85056 40.5296 5.39582 40.4884 3.03282 39.6885C2.54039 39.5218 2.08382 39.2442 1.61354 39.0131C1.30775 38.8632 1.23289 38.6237 1.3668 38.3144C1.59562 37.7847 1.81283 37.2475 2.06906 36.7304C2.11335 36.6417 2.39488 36.5594 2.46237 36.6111C3.58746 37.4723 4.99092 37.6179 6.26046 38.1002C7.21052 38.4611 8.17217 38.153 9.1064 37.9461C9.64522 37.8258 10.1988 37.6422 10.6691 37.3594C11.9776 36.5731 11.8806 34.8614 10.5563 34.0984C9.62729 33.5633 8.61292 33.5718 7.60382 33.4842C5.84818 33.3322 4.13576 33.0008 2.54039 32.2041C0.329232 31.0991 -0.204316 28.198 1.52813 26.444C2.23566 25.7275 3.20996 25.4446 4.18216 25.2716C6.88891 24.7914 9.47967 25.3264 12.0145 26.2509C12.2876 26.3501 12.5323 26.5264 12.8718 26.7121L12.8729 26.7142Z" fill="white"/>
<path d="M18.3864 12.5411C19.5347 12.9621 20.6387 13.2925 21.6773 13.7663C22.9711 14.3562 24.2386 14.1895 25.5218 13.8476C25.9921 13.722 26.4751 13.5764 26.8916 13.3336C28.2149 12.5643 28.1906 10.8409 26.8599 10.0726C26.184 9.68217 25.4544 9.49959 24.6593 9.46582C22.6169 9.37823 20.6187 9.05741 18.765 8.12027C16.5907 7.02061 16.0624 4.11949 17.7822 2.39297C18.5414 1.62996 19.5853 1.33236 20.6366 1.17511C23.1968 0.793079 25.6642 1.22577 28.0599 2.12069C29.3294 2.59559 29.1966 2.59348 28.5924 3.63615C27.8933 4.8424 27.85 4.82235 26.5626 4.30312C25.9784 4.06778 25.4006 3.81556 24.8217 3.56755C23.5395 3.01878 22.2309 3.03883 20.9139 3.40081C20.2254 3.58972 19.754 4.02451 19.5358 4.71998C19.269 5.56636 19.6043 6.27132 20.4774 6.43279C21.2651 6.57843 22.078 6.59003 22.8815 6.63964C24.3514 6.73039 25.8276 6.79266 27.2353 7.27811C28.5903 7.74457 29.7944 8.42526 30.5115 9.74654C31.0186 10.6816 31.1135 11.6472 30.8742 12.692C30.5146 14.2613 28.449 16.3171 26.6406 16.3667C24.2291 16.4331 21.8439 16.373 19.5157 15.6944C18.9358 15.5256 18.4001 15.2005 17.8518 14.9314C17.5524 14.7837 17.4807 14.5557 17.6336 14.2349C17.9109 13.6523 18.1587 13.0561 18.3854 12.54L18.3864 12.5411Z" fill="white"/>
<path d="M89.8861 36.589C89.8861 35.6255 89.8819 34.662 89.8882 33.6995C89.8924 33.0621 89.7849 32.9492 89.1691 32.9724C87.2247 33.0441 85.2803 33.1148 83.3359 33.1845C82.3816 33.2193 82.3025 33.3354 82.3131 34.2652C82.3331 36.0339 82.312 37.8026 82.3131 39.5714C82.3131 39.8278 82.2772 40.0115 81.9525 40.021C81.305 40.041 80.6576 40.0769 80.0123 40.1275C79.6517 40.156 79.4387 40.0558 79.4355 39.6579C79.4302 39.0806 79.4081 38.5034 79.4049 37.9261C79.3891 35.0176 79.3638 32.1102 79.3701 29.2017C79.3722 27.9247 79.4503 26.6477 79.4703 25.3708C79.4756 24.993 79.5979 24.8104 79.9891 24.8431C80.5659 24.8917 81.1427 24.9349 81.7194 24.9761C82.0758 25.0014 82.1117 25.2262 82.1096 25.5249C82.1001 26.8219 82.1054 28.1199 82.1096 29.4169C82.1149 30.7182 82.1707 30.7245 83.4456 30.6264C84.9049 30.5134 86.3706 30.4744 87.8341 30.4343C88.3656 30.4195 88.9002 30.5061 89.4337 30.5293C89.8481 30.5472 89.9145 30.2559 89.9156 29.9309C89.9177 28.7911 89.9124 27.6514 89.9209 26.5127C89.923 26.1802 89.9778 25.8489 89.9862 25.5164C89.9947 25.184 90.1455 25.0331 90.4766 25.0563C91.0533 25.0964 91.6343 25.1101 92.2048 25.1903C92.325 25.2072 92.5 25.4626 92.5 25.6082C92.4958 28.0577 92.4589 30.5082 92.4463 32.9576C92.4357 35.1253 92.4484 37.2929 92.4452 39.4606C92.4442 40.2162 92.4315 40.2141 91.6839 40.1919C91.298 40.1803 90.9099 40.1687 90.5272 40.2056C90.078 40.2478 89.9356 40.0505 89.9399 39.6347C89.9504 38.6184 89.943 37.6032 89.943 36.5869C89.924 36.5869 89.9051 36.5869 89.8861 36.5869V36.589Z" fill="white"/>
<path d="M52.8646 15.9741C52.0042 16.0965 51.2123 16.2242 50.4141 16.3097C50.2876 16.3234 50.0915 16.1756 50.0145 16.049C49.8152 15.7229 49.6191 15.3799 49.5083 15.0179C49.3997 14.6602 49.1962 14.5546 48.8609 14.543C47.0747 14.4797 45.2874 14.4206 43.5023 14.3351C42.5417 14.2887 41.5842 14.1958 40.6257 14.1167C40.2198 14.0829 39.9846 14.237 39.8328 14.6338C39.6398 15.1372 39.372 15.6131 39.1253 16.0944C39.0831 16.1756 38.984 16.2875 38.9144 16.2854C38.0835 16.259 37.2526 16.2147 36.3384 16.1704C36.4312 15.916 36.4765 15.7345 36.5588 15.5709C37.1946 14.3045 37.8357 13.0423 38.4768 11.7791C39.9245 8.92443 41.3754 6.07186 42.819 3.21612C43.1184 2.62302 43.381 2.01198 43.6836 1.421C43.7416 1.30702 43.904 1.24264 44.0263 1.16772C44.0653 1.14344 44.1296 1.16138 44.1824 1.15822C44.7412 1.13183 45.3981 0.91338 45.8294 1.135C46.2259 1.33868 46.4136 2.00143 46.6339 2.48794C47.5713 4.55745 48.4623 6.64913 49.4156 8.71125C50.4721 10.9971 51.5793 13.2608 52.6643 15.535C52.7233 15.6585 52.7782 15.7841 52.8657 15.9751L52.8646 15.9741ZM44.8783 11.6905C44.8783 11.643 44.8783 11.5955 44.8783 11.548C45.5964 11.548 46.3144 11.5702 47.0304 11.5417C47.6125 11.5184 47.8086 11.1881 47.564 10.6552C46.7921 8.97192 46.0076 7.29605 45.2199 5.62017C45.0723 5.30568 44.7222 5.26031 44.5567 5.53153C44.3574 5.85762 44.175 6.19639 44.0158 6.54254C43.5771 7.49445 43.1564 8.4548 42.722 9.40883C42.4615 9.98187 42.1747 10.5433 41.9259 11.1216C41.793 11.4298 41.8521 11.6873 42.2633 11.6894C43.1353 11.6947 44.0063 11.6915 44.8783 11.6915V11.6905Z" fill="white"/>
<path d="M66.4522 39.3899C66.1284 39.5534 65.8585 39.6104 65.7183 39.7761C65.2543 40.3217 64.6522 40.2447 64.0691 40.174C63.9574 40.1603 63.8097 39.8257 63.8045 39.6358C63.7718 38.4622 63.7602 37.2866 63.7707 36.112C63.7918 33.8335 63.8277 31.5551 63.8709 29.2766C63.8762 29.0043 63.9373 28.7236 64.0217 28.4629C64.1756 27.988 64.0111 27.7105 63.5061 27.6883C61.9307 27.6187 60.3564 27.5532 58.7811 27.491C58.1221 27.4646 58.0704 27.416 58.0862 26.7459C58.0947 26.3776 58.0883 26.0082 58.1242 25.6431C58.1484 25.3972 58.2201 25.1777 58.566 25.1724C59.631 25.1566 60.696 25.0795 61.7609 25.0848C64.5658 25.0985 67.3706 25.1449 70.1754 25.1766C70.9061 25.185 71.6379 25.1639 72.3665 25.2083C72.5278 25.2178 72.7746 25.4288 72.8094 25.5861C72.9043 26.0093 72.898 26.4536 72.9486 26.8884C72.9918 27.2641 72.8136 27.3728 72.4667 27.3865C70.8397 27.4477 69.2137 27.5353 67.5867 27.5933C66.8676 27.6187 66.894 27.5965 66.8919 28.3025C66.8887 29.3536 66.875 30.4058 66.8075 31.4537C66.7126 32.9386 66.5291 34.4182 66.4543 35.9041C66.4015 36.9478 66.469 37.9968 66.4775 39.0448C66.4785 39.201 66.4553 39.3571 66.4522 39.3909V39.3899Z" fill="white"/>
<path d="M50.4974 28.9262C50.393 31.7091 50.2844 34.0688 50.2264 36.4307C50.1979 37.5821 50.2527 38.7366 50.2939 39.889C50.3076 40.2721 50.1968 40.4272 49.7941 40.4093C49.27 40.3861 48.7428 40.423 48.2177 40.4272C47.7368 40.4315 47.5238 40.2542 47.5228 39.7075C47.5207 36.9425 47.5312 34.1807 47.7389 31.4189C47.8686 29.6924 47.8644 27.9553 47.8929 26.2224C47.9013 25.6916 48.1038 25.4457 48.6363 25.4552C49.1087 25.4636 49.5821 25.4573 50.0545 25.4436C50.4056 25.433 50.5047 25.6093 50.5016 25.9312C50.4921 27.0699 50.4974 28.2086 50.4974 28.9251V28.9262Z" fill="white"/>
</g>
<defs>
<clipPath id="clip0_1278_170">
<rect width="92" height="39.5814" fill="white" transform="translate(0.5 0.953491)"/>
</clipPath>
</defs>
</svg>
